%TF.GenerationSoftware,KiCad,Pcbnew,8.0.5*%
%TF.CreationDate,2024-11-15T20:54:06-05:00*%
%TF.ProjectId,amp_board_final,616d705f-626f-4617-9264-5f66696e616c,rev?*%
%TF.SameCoordinates,Original*%
%TF.FileFunction,Soldermask,Bot*%
%TF.FilePolarity,Negative*%
%FSLAX46Y46*%
G04 Gerber Fmt 4.6, Leading zero omitted, Abs format (unit mm)*
G04 Created by KiCad (PCBNEW 8.0.5) date 2024-11-15 20:54:06*
%MOMM*%
%LPD*%
G01*
G04 APERTURE LIST*
%ADD10C,2.209800*%
%ADD11R,1.275000X1.275000*%
%ADD12C,1.275000*%
%ADD13R,1.950000X1.950000*%
%ADD14C,2.250000*%
%ADD15R,1.700000X1.700000*%
%ADD16O,1.700000X1.700000*%
%ADD17C,1.575000*%
G04 APERTURE END LIST*
D10*
%TO.C,J8*%
X154381200Y-103924100D03*
X154381200Y-108699300D03*
X156768800Y-106311700D03*
X151993600Y-106311700D03*
%TD*%
D11*
%TO.C,C22*%
X47230000Y-74090000D03*
D12*
X42230000Y-74090000D03*
%TD*%
D11*
%TO.C,C10*%
X139398469Y-75438000D03*
D12*
X134398469Y-75438000D03*
%TD*%
D11*
%TO.C,C2*%
X231180000Y-91440000D03*
D12*
X236180000Y-91440000D03*
%TD*%
D13*
%TO.C,J13*%
X248818400Y-87731600D03*
D14*
X245643400Y-84556600D03*
X245643400Y-90906600D03*
X251993400Y-90906600D03*
X251993400Y-84556600D03*
%TD*%
D10*
%TO.C,J4*%
X138328400Y-103924100D03*
X138328400Y-108699300D03*
X140716000Y-106311700D03*
X135940800Y-106311700D03*
%TD*%
%TO.C,J2*%
X221843600Y-103263700D03*
X221843600Y-108038900D03*
X224231200Y-105651300D03*
X219456000Y-105651300D03*
%TD*%
D15*
%TO.C,J23*%
X127609600Y-22047200D03*
D16*
X130149600Y-22047200D03*
X132689600Y-22047200D03*
X135229600Y-22047200D03*
X137769600Y-22047200D03*
X140309600Y-22047200D03*
%TD*%
D13*
%TO.C,J5*%
X72796400Y-87731600D03*
D14*
X69621400Y-84556600D03*
X69621400Y-90906600D03*
X75971400Y-90906600D03*
X75971400Y-84556600D03*
%TD*%
D13*
%TO.C,J11*%
X203911200Y-87731600D03*
D14*
X200736200Y-84556600D03*
X200736200Y-90906600D03*
X207086200Y-90906600D03*
X207086200Y-84556600D03*
%TD*%
D15*
%TO.C,J12*%
X127630000Y-32630000D03*
D16*
X130170000Y-32630000D03*
X132710000Y-32630000D03*
X135250000Y-32630000D03*
X137790000Y-32630000D03*
X140330000Y-32630000D03*
%TD*%
D13*
%TO.C,J9*%
X161036000Y-87731600D03*
D14*
X157861000Y-84556600D03*
X157861000Y-90906600D03*
X164211000Y-90906600D03*
X164211000Y-84556600D03*
%TD*%
D15*
%TO.C,J10*%
X185679000Y-22098000D03*
D16*
X183139000Y-22098000D03*
%TD*%
D13*
%TO.C,J18*%
X91094560Y-25958800D03*
D14*
X94269560Y-29133800D03*
X94269560Y-22783800D03*
X87919560Y-22783800D03*
X87919560Y-29133800D03*
%TD*%
D13*
%TO.C,J15*%
X52476400Y-25958800D03*
D14*
X49301400Y-22783800D03*
X49301400Y-29133800D03*
X55651400Y-29133800D03*
X55651400Y-22783800D03*
%TD*%
D13*
%TO.C,J17*%
X78221840Y-25958800D03*
D14*
X81396840Y-29133800D03*
X81396840Y-22783800D03*
X75046840Y-22783800D03*
X75046840Y-29133800D03*
%TD*%
D15*
%TO.C,J21*%
X127630000Y-27338600D03*
D16*
X130170000Y-27338600D03*
X132710000Y-27338600D03*
X135250000Y-27338600D03*
X137790000Y-27338600D03*
X140330000Y-27338600D03*
%TD*%
D10*
%TO.C,J6*%
X260134100Y-103327200D03*
X260134100Y-108102400D03*
X262521700Y-105714800D03*
X257746500Y-105714800D03*
%TD*%
D13*
%TO.C,J7*%
X116992400Y-87731600D03*
D14*
X113817400Y-84556600D03*
X113817400Y-90906600D03*
X120167400Y-90906600D03*
X120167400Y-84556600D03*
%TD*%
D11*
%TO.C,C50*%
X216458800Y-75387200D03*
D12*
X211458800Y-75387200D03*
%TD*%
D11*
%TO.C,C44*%
X169672000Y-73761600D03*
D12*
X164672000Y-73761600D03*
%TD*%
D13*
%TO.C,J20*%
X116840000Y-25958800D03*
D14*
X120015000Y-29133800D03*
X120015000Y-22783800D03*
X113665000Y-22783800D03*
X113665000Y-29133800D03*
%TD*%
D11*
%TO.C,C52*%
X258950000Y-73890000D03*
D12*
X253950000Y-73890000D03*
%TD*%
D17*
%TO.C,R1*%
X192442500Y-22098000D03*
X225642500Y-22098000D03*
%TD*%
D13*
%TO.C,J19*%
X103967280Y-25958800D03*
D14*
X107142280Y-29133800D03*
X107142280Y-22783800D03*
X100792280Y-22783800D03*
X100792280Y-29133800D03*
%TD*%
D11*
%TO.C,C48*%
X36560000Y-74090000D03*
D12*
X31560000Y-74090000D03*
%TD*%
D11*
%TO.C,C40*%
X275804000Y-107696000D03*
D12*
X270804000Y-107696000D03*
%TD*%
D10*
%TO.C,J1*%
X243535200Y-103365300D03*
X243535200Y-108140500D03*
X245922800Y-105752900D03*
X241147600Y-105752900D03*
%TD*%
D11*
%TO.C,C38*%
X269800000Y-73890000D03*
D12*
X264800000Y-73890000D03*
%TD*%
D13*
%TO.C,J16*%
X65349120Y-25958800D03*
D14*
X62174120Y-22783800D03*
X62174120Y-29133800D03*
X68524120Y-29133800D03*
X68524120Y-22783800D03*
%TD*%
D11*
%TO.C,C34*%
X227899600Y-75387200D03*
D12*
X222899600Y-75387200D03*
%TD*%
D11*
%TO.C,C46*%
X77070000Y-73300000D03*
D12*
X72070000Y-73300000D03*
%TD*%
D11*
%TO.C,C26*%
X88310000Y-73300000D03*
D12*
X83310000Y-73300000D03*
%TD*%
D11*
%TO.C,C14*%
X180350800Y-73863200D03*
D12*
X175350800Y-73863200D03*
%TD*%
D11*
%TO.C,C42*%
X126655200Y-75438000D03*
D12*
X121655200Y-75438000D03*
%TD*%
D13*
%TO.C,J3*%
X29571100Y-87731600D03*
D14*
X26396100Y-84556600D03*
X26396100Y-90906600D03*
X32746100Y-90906600D03*
X32746100Y-84556600D03*
%TD*%
M02*
