%TF.GenerationSoftware,KiCad,Pcbnew,8.0.5*%
%TF.CreationDate,2024-11-15T20:54:06-05:00*%
%TF.ProjectId,amp_board_final,616d705f-626f-4617-9264-5f66696e616c,rev?*%
%TF.SameCoordinates,Original*%
%TF.FileFunction,Soldermask,Top*%
%TF.FilePolarity,Negative*%
%FSLAX46Y46*%
G04 Gerber Fmt 4.6, Leading zero omitted, Abs format (unit mm)*
G04 Created by KiCad (PCBNEW 8.0.5) date 2024-11-15 20:54:06*
%MOMM*%
%LPD*%
G01*
G04 APERTURE LIST*
G04 Aperture macros list*
%AMRoundRect*
0 Rectangle with rounded corners*
0 $1 Rounding radius*
0 $2 $3 $4 $5 $6 $7 $8 $9 X,Y pos of 4 corners*
0 Add a 4 corners polygon primitive as box body*
4,1,4,$2,$3,$4,$5,$6,$7,$8,$9,$2,$3,0*
0 Add four circle primitives for the rounded corners*
1,1,$1+$1,$2,$3*
1,1,$1+$1,$4,$5*
1,1,$1+$1,$6,$7*
1,1,$1+$1,$8,$9*
0 Add four rect primitives between the rounded corners*
20,1,$1+$1,$2,$3,$4,$5,0*
20,1,$1+$1,$4,$5,$6,$7,0*
20,1,$1+$1,$6,$7,$8,$9,0*
20,1,$1+$1,$8,$9,$2,$3,0*%
G04 Aperture macros list end*
%ADD10RoundRect,0.250000X-0.475000X0.250000X-0.475000X-0.250000X0.475000X-0.250000X0.475000X0.250000X0*%
%ADD11RoundRect,0.249999X-1.450001X0.450001X-1.450001X-0.450001X1.450001X-0.450001X1.450001X0.450001X0*%
%ADD12C,2.209800*%
%ADD13RoundRect,0.200000X-0.200000X-0.275000X0.200000X-0.275000X0.200000X0.275000X-0.200000X0.275000X0*%
%ADD14RoundRect,0.462963X-1.187037X0.787037X-1.187037X-0.787037X1.187037X-0.787037X1.187037X0.787037X0*%
%ADD15R,1.275000X1.275000*%
%ADD16C,1.275000*%
%ADD17RoundRect,0.200000X0.200000X0.275000X-0.200000X0.275000X-0.200000X-0.275000X0.200000X-0.275000X0*%
%ADD18RoundRect,0.225000X-0.225000X-0.250000X0.225000X-0.250000X0.225000X0.250000X-0.225000X0.250000X0*%
%ADD19RoundRect,0.249999X-0.450001X-1.450001X0.450001X-1.450001X0.450001X1.450001X-0.450001X1.450001X0*%
%ADD20RoundRect,0.462963X-0.787037X-1.187037X0.787037X-1.187037X0.787037X1.187037X-0.787037X1.187037X0*%
%ADD21R,1.950000X1.950000*%
%ADD22C,2.250000*%
%ADD23R,3.180000X0.560000*%
%ADD24R,6.130000X13.340000*%
%ADD25R,3.070000X1.470000*%
%ADD26RoundRect,0.250000X0.475000X-0.250000X0.475000X0.250000X-0.475000X0.250000X-0.475000X-0.250000X0*%
%ADD27R,1.700000X1.700000*%
%ADD28O,1.700000X1.700000*%
%ADD29RoundRect,0.225000X-0.250000X0.225000X-0.250000X-0.225000X0.250000X-0.225000X0.250000X0.225000X0*%
%ADD30RoundRect,0.225000X0.225000X0.250000X-0.225000X0.250000X-0.225000X-0.250000X0.225000X-0.250000X0*%
%ADD31RoundRect,0.200000X0.275000X-0.200000X0.275000X0.200000X-0.275000X0.200000X-0.275000X-0.200000X0*%
%ADD32RoundRect,0.200000X-0.275000X0.200000X-0.275000X-0.200000X0.275000X-0.200000X0.275000X0.200000X0*%
%ADD33RoundRect,0.249999X1.450001X-0.450001X1.450001X0.450001X-1.450001X0.450001X-1.450001X-0.450001X0*%
%ADD34C,1.575000*%
%ADD35R,0.300000X0.700000*%
%ADD36R,0.300000X1.000000*%
G04 APERTURE END LIST*
D10*
%TO.C,C35*%
X207264000Y-56454000D03*
X207264000Y-58354000D03*
%TD*%
D11*
%TO.C,C49*%
X234391200Y-48648400D03*
X234391200Y-52748400D03*
%TD*%
D12*
%TO.C,J8*%
X154381200Y-103924100D03*
X154381200Y-108699300D03*
X156768800Y-106311700D03*
X151993600Y-106311700D03*
%TD*%
D13*
%TO.C,R43*%
X115710200Y-77012800D03*
X117360200Y-77012800D03*
%TD*%
%TO.C,R23*%
X91427800Y-53194157D03*
X93077800Y-53194157D03*
%TD*%
D14*
%TO.C,U17*%
X229443400Y-45233900D03*
X229443400Y-52133900D03*
%TD*%
D15*
%TO.C,C22*%
X47230000Y-74090000D03*
D16*
X42230000Y-74090000D03*
%TD*%
D11*
%TO.C,C43*%
X186283600Y-47530800D03*
X186283600Y-51630800D03*
%TD*%
D17*
%TO.C,R36*%
X230263200Y-57454800D03*
X228613200Y-57454800D03*
%TD*%
D15*
%TO.C,C10*%
X139398469Y-75438000D03*
D16*
X134398469Y-75438000D03*
%TD*%
D13*
%TO.C,R26*%
X228638600Y-62915800D03*
X230288600Y-62915800D03*
%TD*%
D10*
%TO.C,C11*%
X118618000Y-55692000D03*
X118618000Y-57592000D03*
%TD*%
D18*
%TO.C,C15*%
X25196000Y-80010000D03*
X26746000Y-80010000D03*
%TD*%
D17*
%TO.C,R17*%
X71132200Y-59594957D03*
X69482200Y-59594957D03*
%TD*%
%TO.C,R5*%
X160527072Y-61137291D03*
X158877072Y-61137291D03*
%TD*%
D19*
%TO.C,C33*%
X213850000Y-43180000D03*
X217950000Y-43180000D03*
%TD*%
D17*
%TO.C,R29*%
X249160800Y-59842400D03*
X247510800Y-59842400D03*
%TD*%
D15*
%TO.C,C2*%
X231180000Y-91440000D03*
D16*
X236180000Y-91440000D03*
%TD*%
D20*
%TO.C,U10*%
X74634000Y-46407157D03*
X81534000Y-46407157D03*
%TD*%
D21*
%TO.C,J13*%
X248818400Y-87731600D03*
D22*
X245643400Y-84556600D03*
X245643400Y-90906600D03*
X251993400Y-90906600D03*
X251993400Y-84556600D03*
%TD*%
D17*
%TO.C,R37*%
X271436600Y-56261000D03*
X269786600Y-56261000D03*
%TD*%
D19*
%TO.C,C9*%
X125458000Y-43712891D03*
X129558000Y-43712891D03*
%TD*%
D13*
%TO.C,R30*%
X206108800Y-60375800D03*
X207758800Y-60375800D03*
%TD*%
D23*
%TO.C,U8*%
X46689600Y-64942557D03*
X46689600Y-63942557D03*
X46689600Y-62942557D03*
X46689600Y-61942557D03*
X46689600Y-60942557D03*
X46689600Y-59942557D03*
X46689600Y-58942557D03*
X46689600Y-57942557D03*
X46689600Y-56942557D03*
X46689600Y-55942557D03*
X46689600Y-54942557D03*
X46689600Y-53942557D03*
X34539600Y-53942557D03*
X34539600Y-54942557D03*
X34539600Y-55942557D03*
X34539600Y-56942557D03*
X34539600Y-57942557D03*
X34539600Y-58942557D03*
X34539600Y-59942557D03*
X34539600Y-60942557D03*
X34539600Y-61942557D03*
X34539600Y-62942557D03*
X34539600Y-63942557D03*
X34539600Y-64942557D03*
D24*
X40614600Y-59442557D03*
D25*
X40614600Y-66847557D03*
X40614600Y-52037557D03*
%TD*%
D17*
%TO.C,R20*%
X30187400Y-52578000D03*
X28537400Y-52578000D03*
%TD*%
D26*
%TO.C,C19*%
X50800000Y-61148000D03*
X50800000Y-59248000D03*
%TD*%
D13*
%TO.C,R7*%
X158826272Y-58851291D03*
X160476272Y-58851291D03*
%TD*%
D12*
%TO.C,J4*%
X138328400Y-103924100D03*
X138328400Y-108699300D03*
X140716000Y-106311700D03*
X135940800Y-106311700D03*
%TD*%
%TO.C,J2*%
X221843600Y-103263700D03*
X221843600Y-108038900D03*
X224231200Y-105651300D03*
X219456000Y-105651300D03*
%TD*%
D10*
%TO.C,C24*%
X70612000Y-53152000D03*
X70612000Y-55052000D03*
%TD*%
D26*
%TO.C,C20*%
X91948000Y-59370000D03*
X91948000Y-57470000D03*
%TD*%
D18*
%TO.C,C17*%
X25488600Y-60636357D03*
X27038600Y-60636357D03*
%TD*%
D13*
%TO.C,R34*%
X228613200Y-55600600D03*
X230263200Y-55600600D03*
%TD*%
D27*
%TO.C,J23*%
X127609600Y-22047200D03*
D28*
X130149600Y-22047200D03*
X132689600Y-22047200D03*
X135229600Y-22047200D03*
X137769600Y-22047200D03*
X140309600Y-22047200D03*
%TD*%
D20*
%TO.C,U7*%
X33626100Y-48134357D03*
X40526100Y-48134357D03*
%TD*%
D21*
%TO.C,J5*%
X72796400Y-87731600D03*
D22*
X69621400Y-84556600D03*
X69621400Y-90906600D03*
X75971400Y-90906600D03*
X75971400Y-84556600D03*
%TD*%
D17*
%TO.C,R39*%
X26796000Y-76200000D03*
X25146000Y-76200000D03*
%TD*%
D21*
%TO.C,J11*%
X203911200Y-87731600D03*
D22*
X200736200Y-84556600D03*
X200736200Y-90906600D03*
X207086200Y-90906600D03*
X207086200Y-84556600D03*
%TD*%
D17*
%TO.C,R16*%
X30593800Y-60712557D03*
X28943800Y-60712557D03*
%TD*%
D18*
%TO.C,C28*%
X248805400Y-80111600D03*
X250355400Y-80111600D03*
%TD*%
D11*
%TO.C,C47*%
X56515000Y-47734000D03*
X56515000Y-51834000D03*
%TD*%
D13*
%TO.C,R2*%
X140208072Y-63296291D03*
X141858072Y-63296291D03*
%TD*%
D27*
%TO.C,J12*%
X127630000Y-32630000D03*
D28*
X130170000Y-32630000D03*
X132710000Y-32630000D03*
X135250000Y-32630000D03*
X137790000Y-32630000D03*
X140330000Y-32630000D03*
%TD*%
D29*
%TO.C,C16*%
X65176400Y-87820200D03*
X65176400Y-89370200D03*
%TD*%
D17*
%TO.C,R24*%
X52133000Y-55048357D03*
X50483000Y-55048357D03*
%TD*%
D10*
%TO.C,C36*%
X248920000Y-55692000D03*
X248920000Y-57592000D03*
%TD*%
D26*
%TO.C,C32*%
X270256000Y-60386000D03*
X270256000Y-58486000D03*
%TD*%
D23*
%TO.C,U3*%
X176687909Y-63868182D03*
X176687909Y-62868182D03*
X176687909Y-61868182D03*
X176687909Y-60868182D03*
X176687909Y-59868182D03*
X176687909Y-58868182D03*
X176687909Y-57868182D03*
X176687909Y-56868182D03*
X176687909Y-55868182D03*
X176687909Y-54868182D03*
X176687909Y-53868182D03*
X176687909Y-52868182D03*
X164537909Y-52868182D03*
X164537909Y-53868182D03*
X164537909Y-54868182D03*
X164537909Y-55868182D03*
X164537909Y-56868182D03*
X164537909Y-57868182D03*
X164537909Y-58868182D03*
X164537909Y-59868182D03*
X164537909Y-60868182D03*
X164537909Y-61868182D03*
X164537909Y-62868182D03*
X164537909Y-63868182D03*
D24*
X170612909Y-58368182D03*
D25*
X170612909Y-65773182D03*
X170612909Y-50963182D03*
%TD*%
D19*
%TO.C,C21*%
X36050000Y-43942000D03*
X40150000Y-43942000D03*
%TD*%
D21*
%TO.C,J9*%
X161036000Y-87731600D03*
D22*
X157861000Y-84556600D03*
X157861000Y-90906600D03*
X164211000Y-90906600D03*
X164211000Y-84556600D03*
%TD*%
D20*
%TO.C,U13*%
X211494900Y-47594400D03*
X218394900Y-47594400D03*
%TD*%
D23*
%TO.C,U9*%
X87380400Y-63316957D03*
X87380400Y-62316957D03*
X87380400Y-61316957D03*
X87380400Y-60316957D03*
X87380400Y-59316957D03*
X87380400Y-58316957D03*
X87380400Y-57316957D03*
X87380400Y-56316957D03*
X87380400Y-55316957D03*
X87380400Y-54316957D03*
X87380400Y-53316957D03*
X87380400Y-52316957D03*
X75230400Y-52316957D03*
X75230400Y-53316957D03*
X75230400Y-54316957D03*
X75230400Y-55316957D03*
X75230400Y-56316957D03*
X75230400Y-57316957D03*
X75230400Y-58316957D03*
X75230400Y-59316957D03*
X75230400Y-60316957D03*
X75230400Y-61316957D03*
X75230400Y-62316957D03*
X75230400Y-63316957D03*
D24*
X81305400Y-57816957D03*
D25*
X81305400Y-65221957D03*
X81305400Y-50411957D03*
%TD*%
D18*
%TO.C,C29*%
X202679000Y-62331600D03*
X204229000Y-62331600D03*
%TD*%
D23*
%TO.C,U14*%
X224438800Y-65240800D03*
X224438800Y-64240800D03*
X224438800Y-63240800D03*
X224438800Y-62240800D03*
X224438800Y-61240800D03*
X224438800Y-60240800D03*
X224438800Y-59240800D03*
X224438800Y-58240800D03*
X224438800Y-57240800D03*
X224438800Y-56240800D03*
X224438800Y-55240800D03*
X224438800Y-54240800D03*
X212288800Y-54240800D03*
X212288800Y-55240800D03*
X212288800Y-56240800D03*
X212288800Y-57240800D03*
X212288800Y-58240800D03*
X212288800Y-59240800D03*
X212288800Y-60240800D03*
X212288800Y-61240800D03*
X212288800Y-62240800D03*
X212288800Y-63240800D03*
X212288800Y-64240800D03*
X212288800Y-65240800D03*
D24*
X218363800Y-59740800D03*
D25*
X218363800Y-67145800D03*
X218363800Y-52335800D03*
%TD*%
D17*
%TO.C,R12*%
X141807272Y-57632091D03*
X140157272Y-57632091D03*
%TD*%
%TO.C,R4*%
X119023472Y-61543691D03*
X117373472Y-61543691D03*
%TD*%
D26*
%TO.C,C31*%
X229108000Y-61173400D03*
X229108000Y-59273400D03*
%TD*%
D13*
%TO.C,R3*%
X181025872Y-61950091D03*
X182675872Y-61950091D03*
%TD*%
D18*
%TO.C,C6*%
X155638200Y-61112400D03*
X157188200Y-61112400D03*
%TD*%
D13*
%TO.C,R38*%
X25146000Y-78130400D03*
X26796000Y-78130400D03*
%TD*%
D23*
%TO.C,U15*%
X265358200Y-63716800D03*
X265358200Y-62716800D03*
X265358200Y-61716800D03*
X265358200Y-60716800D03*
X265358200Y-59716800D03*
X265358200Y-58716800D03*
X265358200Y-57716800D03*
X265358200Y-56716800D03*
X265358200Y-55716800D03*
X265358200Y-54716800D03*
X265358200Y-53716800D03*
X265358200Y-52716800D03*
X253208200Y-52716800D03*
X253208200Y-53716800D03*
X253208200Y-54716800D03*
X253208200Y-55716800D03*
X253208200Y-56716800D03*
X253208200Y-57716800D03*
X253208200Y-58716800D03*
X253208200Y-59716800D03*
X253208200Y-60716800D03*
X253208200Y-61716800D03*
X253208200Y-62716800D03*
X253208200Y-63716800D03*
D24*
X259283200Y-58216800D03*
D25*
X259283200Y-65621800D03*
X259283200Y-50811800D03*
%TD*%
D18*
%TO.C,C30*%
X244284200Y-59842400D03*
X245834200Y-59842400D03*
%TD*%
D17*
%TO.C,R13*%
X182802872Y-56311291D03*
X181152872Y-56311291D03*
%TD*%
D11*
%TO.C,C45*%
X97790000Y-46387800D03*
X97790000Y-50487800D03*
%TD*%
D13*
%TO.C,R18*%
X28994600Y-58782157D03*
X30644600Y-58782157D03*
%TD*%
D17*
%TO.C,R33*%
X249186200Y-53416200D03*
X247536200Y-53416200D03*
%TD*%
D19*
%TO.C,C1*%
X230715600Y-102666800D03*
X234815600Y-102666800D03*
%TD*%
D17*
%TO.C,R49*%
X250405400Y-75488800D03*
X248755400Y-75488800D03*
%TD*%
D27*
%TO.C,J10*%
X185679000Y-22098000D03*
D28*
X183139000Y-22098000D03*
%TD*%
D30*
%TO.C,C3*%
X117361000Y-80822800D03*
X115811000Y-80822800D03*
%TD*%
D31*
%TO.C,R41*%
X60807600Y-89420200D03*
X60807600Y-87770200D03*
%TD*%
D21*
%TO.C,J18*%
X91094560Y-25958800D03*
D22*
X94269560Y-29133800D03*
X94269560Y-22783800D03*
X87919560Y-22783800D03*
X87919560Y-29133800D03*
%TD*%
D14*
%TO.C,U5*%
X140848200Y-45233900D03*
X140848200Y-52133900D03*
%TD*%
D20*
%TO.C,U16*%
X252929700Y-46527600D03*
X259829700Y-46527600D03*
%TD*%
D32*
%TO.C,R40*%
X62890400Y-87770200D03*
X62890400Y-89420200D03*
%TD*%
D17*
%TO.C,R9*%
X160527072Y-52578000D03*
X158877072Y-52578000D03*
%TD*%
D30*
%TO.C,C4*%
X161049000Y-80568800D03*
X159499000Y-80568800D03*
%TD*%
D21*
%TO.C,J15*%
X52476400Y-25958800D03*
D22*
X49301400Y-22783800D03*
X49301400Y-29133800D03*
X55651400Y-29133800D03*
X55651400Y-22783800D03*
%TD*%
D17*
%TO.C,R21*%
X70979800Y-51054000D03*
X69329800Y-51054000D03*
%TD*%
D21*
%TO.C,J17*%
X78221840Y-25958800D03*
D22*
X81396840Y-29133800D03*
X81396840Y-22783800D03*
X75046840Y-22783800D03*
X75046840Y-29133800D03*
%TD*%
D33*
%TO.C,C39*%
X270459200Y-100805200D03*
X270459200Y-96705200D03*
%TD*%
D13*
%TO.C,R14*%
X50330600Y-63277957D03*
X51980600Y-63277957D03*
%TD*%
D19*
%TO.C,C13*%
X166908835Y-42240200D03*
X171008835Y-42240200D03*
%TD*%
D18*
%TO.C,C5*%
X113384872Y-61543691D03*
X114934872Y-61543691D03*
%TD*%
D26*
%TO.C,C7*%
X140716000Y-61402000D03*
X140716000Y-59502000D03*
%TD*%
D27*
%TO.C,J21*%
X127630000Y-27338600D03*
D28*
X130170000Y-27338600D03*
X132710000Y-27338600D03*
X135250000Y-27338600D03*
X137790000Y-27338600D03*
X140330000Y-27338600D03*
%TD*%
D12*
%TO.C,J6*%
X260134100Y-103327200D03*
X260134100Y-108102400D03*
X262521700Y-105714800D03*
X257746500Y-105714800D03*
%TD*%
D20*
%TO.C,U1*%
X123782972Y-48051091D03*
X130682972Y-48051091D03*
%TD*%
D17*
%TO.C,R32*%
X207733400Y-54381400D03*
X206083400Y-54381400D03*
%TD*%
D21*
%TO.C,J7*%
X116992400Y-87731600D03*
D22*
X113817400Y-84556600D03*
X113817400Y-90906600D03*
X120167400Y-90906600D03*
X120167400Y-84556600D03*
%TD*%
D13*
%TO.C,R31*%
X247485400Y-61518800D03*
X249135400Y-61518800D03*
%TD*%
D15*
%TO.C,C50*%
X216458800Y-75387200D03*
D16*
X211458800Y-75387200D03*
%TD*%
D26*
%TO.C,C8*%
X181356000Y-60132000D03*
X181356000Y-58232000D03*
%TD*%
D13*
%TO.C,R22*%
X50457600Y-57105757D03*
X52107600Y-57105757D03*
%TD*%
D19*
%TO.C,C25*%
X77198000Y-42164000D03*
X81298000Y-42164000D03*
%TD*%
D15*
%TO.C,C44*%
X169672000Y-73761600D03*
D16*
X164672000Y-73761600D03*
%TD*%
D14*
%TO.C,U18*%
X270896200Y-43506700D03*
X270896200Y-50406700D03*
%TD*%
D13*
%TO.C,R48*%
X248755400Y-77978000D03*
X250405400Y-77978000D03*
%TD*%
D17*
%TO.C,R44*%
X161099000Y-78841600D03*
X159449000Y-78841600D03*
%TD*%
D13*
%TO.C,R35*%
X269812000Y-54102000D03*
X271462000Y-54102000D03*
%TD*%
D19*
%TO.C,C37*%
X254642400Y-42240200D03*
X258742400Y-42240200D03*
%TD*%
D17*
%TO.C,R28*%
X207809600Y-62382400D03*
X206159600Y-62382400D03*
%TD*%
D21*
%TO.C,J20*%
X116840000Y-25958800D03*
D22*
X120015000Y-29133800D03*
X120015000Y-22783800D03*
X113665000Y-22783800D03*
X113665000Y-29133800D03*
%TD*%
D14*
%TO.C,U12*%
X51922800Y-44471900D03*
X51922800Y-51371900D03*
%TD*%
D15*
%TO.C,C52*%
X258950000Y-73890000D03*
D16*
X253950000Y-73890000D03*
%TD*%
D34*
%TO.C,R1*%
X192442500Y-22098000D03*
X225642500Y-22098000D03*
%TD*%
D10*
%TO.C,C23*%
X29972000Y-54676000D03*
X29972000Y-56576000D03*
%TD*%
D21*
%TO.C,J19*%
X103967280Y-25958800D03*
D22*
X107142280Y-29133800D03*
X107142280Y-22783800D03*
X100792280Y-22783800D03*
X100792280Y-29133800D03*
%TD*%
D15*
%TO.C,C48*%
X36560000Y-74090000D03*
D16*
X31560000Y-74090000D03*
%TD*%
D15*
%TO.C,C40*%
X275804000Y-107696000D03*
D16*
X270804000Y-107696000D03*
%TD*%
D20*
%TO.C,U4*%
X164764335Y-46527600D03*
X171664335Y-46527600D03*
%TD*%
D12*
%TO.C,J1*%
X243535200Y-103365300D03*
X243535200Y-108140500D03*
X245922800Y-105752900D03*
X241147600Y-105752900D03*
%TD*%
D15*
%TO.C,C38*%
X269800000Y-73890000D03*
D16*
X264800000Y-73890000D03*
%TD*%
D13*
%TO.C,R27*%
X269787800Y-62388200D03*
X271437800Y-62388200D03*
%TD*%
%TO.C,R15*%
X91377000Y-61601557D03*
X93027000Y-61601557D03*
%TD*%
%TO.C,R46*%
X203848200Y-78486000D03*
X205498200Y-78486000D03*
%TD*%
D21*
%TO.C,J16*%
X65349120Y-25958800D03*
D22*
X62174120Y-22783800D03*
X62174120Y-29133800D03*
X68524120Y-29133800D03*
X68524120Y-22783800D03*
%TD*%
D18*
%TO.C,C18*%
X65773000Y-59518757D03*
X67323000Y-59518757D03*
%TD*%
D35*
%TO.C,J22*%
X171072000Y-24572200D03*
X170572000Y-24572200D03*
X170072000Y-24572200D03*
X169572000Y-24572200D03*
X169072000Y-24572200D03*
X168572000Y-24572200D03*
X168072000Y-24572200D03*
X167572000Y-24572200D03*
X167072000Y-24572200D03*
X166572000Y-24572200D03*
X166072000Y-24572200D03*
X165572000Y-24572200D03*
X165072000Y-24572200D03*
X164572000Y-24572200D03*
X164072000Y-24572200D03*
X163572000Y-24572200D03*
X163072000Y-24572200D03*
X162572000Y-24572200D03*
X162072000Y-24572200D03*
X161572000Y-24572200D03*
X161072000Y-24572200D03*
X160572000Y-24572200D03*
X160072000Y-24572200D03*
X159572000Y-24572200D03*
X159072000Y-24572200D03*
X158572000Y-24572200D03*
X158072000Y-24572200D03*
X157572000Y-24572200D03*
X157072000Y-24572200D03*
X156572000Y-24572200D03*
X156072000Y-24572200D03*
X155572000Y-24572200D03*
D36*
X171862000Y-21922200D03*
X154782000Y-21922200D03*
%TD*%
D17*
%TO.C,R8*%
X119189000Y-53594000D03*
X117539000Y-53594000D03*
%TD*%
D23*
%TO.C,U2*%
X135500272Y-65519691D03*
X135500272Y-64519691D03*
X135500272Y-63519691D03*
X135500272Y-62519691D03*
X135500272Y-61519691D03*
X135500272Y-60519691D03*
X135500272Y-59519691D03*
X135500272Y-58519691D03*
X135500272Y-57519691D03*
X135500272Y-56519691D03*
X135500272Y-55519691D03*
X135500272Y-54519691D03*
X123350272Y-54519691D03*
X123350272Y-55519691D03*
X123350272Y-56519691D03*
X123350272Y-57519691D03*
X123350272Y-58519691D03*
X123350272Y-59519691D03*
X123350272Y-60519691D03*
X123350272Y-61519691D03*
X123350272Y-62519691D03*
X123350272Y-63519691D03*
X123350272Y-64519691D03*
X123350272Y-65519691D03*
D24*
X129425272Y-60019691D03*
D25*
X129425272Y-67424691D03*
X129425272Y-52614691D03*
%TD*%
D13*
%TO.C,R6*%
X117398872Y-59384691D03*
X119048872Y-59384691D03*
%TD*%
D15*
%TO.C,C34*%
X227899600Y-75387200D03*
D16*
X222899600Y-75387200D03*
%TD*%
D15*
%TO.C,C46*%
X77070000Y-73300000D03*
D16*
X72070000Y-73300000D03*
%TD*%
D14*
%TO.C,U11*%
X93147000Y-43024100D03*
X93147000Y-49924100D03*
%TD*%
D15*
%TO.C,C26*%
X88310000Y-73300000D03*
D16*
X83310000Y-73300000D03*
%TD*%
D18*
%TO.C,C27*%
X203898200Y-80518000D03*
X205448200Y-80518000D03*
%TD*%
D17*
%TO.C,R25*%
X93052400Y-55429357D03*
X91402400Y-55429357D03*
%TD*%
D11*
%TO.C,C51*%
X275742400Y-46870400D03*
X275742400Y-50970400D03*
%TD*%
%TO.C,C41*%
X145288000Y-48597600D03*
X145288000Y-52697600D03*
%TD*%
D10*
%TO.C,C12*%
X160020000Y-54930000D03*
X160020000Y-56830000D03*
%TD*%
D13*
%TO.C,R45*%
X159449000Y-77114400D03*
X161099000Y-77114400D03*
%TD*%
D17*
%TO.C,R42*%
X117411000Y-78943200D03*
X115761000Y-78943200D03*
%TD*%
%TO.C,R47*%
X205498200Y-76555600D03*
X203848200Y-76555600D03*
%TD*%
D13*
%TO.C,R10*%
X140182672Y-55193691D03*
X141832672Y-55193691D03*
%TD*%
D15*
%TO.C,C14*%
X180350800Y-73863200D03*
D16*
X175350800Y-73863200D03*
%TD*%
D15*
%TO.C,C42*%
X126655200Y-75438000D03*
D16*
X121655200Y-75438000D03*
%TD*%
D21*
%TO.C,J3*%
X29571100Y-87731600D03*
D22*
X26396100Y-84556600D03*
X26396100Y-90906600D03*
X32746100Y-90906600D03*
X32746100Y-84556600D03*
%TD*%
D14*
%TO.C,U6*%
X181691400Y-44065500D03*
X181691400Y-50965500D03*
%TD*%
D13*
%TO.C,R11*%
X181178272Y-54355491D03*
X182828272Y-54355491D03*
%TD*%
%TO.C,R19*%
X69507600Y-57150000D03*
X71157600Y-57150000D03*
%TD*%
M02*
