%TF.GenerationSoftware,KiCad,Pcbnew,8.0.5*%
%TF.CreationDate,2024-11-16T17:36:21-05:00*%
%TF.ProjectId,huxley,6875786c-6579-42e6-9b69-6361645f7063,rev?*%
%TF.SameCoordinates,Original*%
%TF.FileFunction,Component,L1,Top*%
%TF.FilePolarity,Positive*%
%FSLAX46Y46*%
G04 Gerber Fmt 4.6, Leading zero omitted, Abs format (unit mm)*
G04 Created by KiCad (PCBNEW 8.0.5) date 2024-11-16 17:36:21*
%MOMM*%
%LPD*%
G01*
G04 APERTURE LIST*
%TA.AperFunction,ComponentMain*%
%ADD10C,0.300000*%
%TD*%
%TA.AperFunction,ComponentOutline,Courtyard*%
%ADD11C,0.100000*%
%TD*%
%TA.AperFunction,ComponentPin*%
%ADD12P,0.360000X4X0.000000*%
%TD*%
%TA.AperFunction,ComponentPin*%
%ADD13C,0.100000*%
%TD*%
%TA.AperFunction,ComponentOutline,Footprint*%
%ADD14C,0.100000*%
%TD*%
%TA.AperFunction,Profile*%
%ADD15C,0.100000*%
%TD*%
G04 APERTURE END LIST*
D10*
%TO.C,R10*%
%TO.CFtp,R_0603_1608Metric*%
%TO.CVal,50*%
%TO.CLbN,Resistor_SMD*%
%TO.CMnt,SMD*%
%TO.CRot,90*%
X73000000Y-126225000D03*
D11*
X73729999Y-124745001D02*
X73729999Y-127704999D01*
X72270001Y-127704999D01*
X72270001Y-124745001D01*
X73729999Y-124745001D01*
D12*
%TO.P,R10,1*%
X73000000Y-127050000D03*
D13*
%TO.P,R10,2*%
X73000000Y-125400000D03*
%TD*%
D10*
%TO.C,C69*%
%TO.CFtp,C_0603_1608Metric*%
%TO.CVal,x*%
%TO.CLbN,Capacitor_SMD*%
%TO.CMnt,SMD*%
%TO.CRot,90*%
X133000000Y-99000000D03*
D11*
X133729999Y-97520001D02*
X133729999Y-100479999D01*
X132270001Y-100479999D01*
X132270001Y-97520001D01*
X133729999Y-97520001D01*
D12*
%TO.P,C69,1*%
X133000000Y-99775000D03*
D13*
%TO.P,C69,2*%
X133000000Y-98225000D03*
%TD*%
D10*
%TO.C,C16*%
%TO.CFtp,C_0603_1608Metric*%
%TO.CVal,0.1u*%
%TO.CLbN,Capacitor_SMD*%
%TO.CMnt,SMD*%
%TO.CRot,180*%
X106534000Y-70405000D03*
D11*
X108013999Y-69675001D02*
X108013999Y-71134999D01*
X105054001Y-71134999D01*
X105054001Y-69675001D01*
X108013999Y-69675001D01*
D12*
%TO.P,C16,1*%
X107309000Y-70405000D03*
D13*
%TO.P,C16,2*%
X105759000Y-70405000D03*
%TD*%
D10*
%TO.C,R20*%
%TO.CFtp,R_0603_1608Metric*%
%TO.CVal,898k*%
%TO.CLbN,Resistor_SMD*%
%TO.CMnt,SMD*%
%TO.CRot,0*%
X130810000Y-67310000D03*
D11*
X132289999Y-66580001D02*
X132289999Y-68039999D01*
X129330001Y-68039999D01*
X129330001Y-66580001D01*
X132289999Y-66580001D01*
D12*
%TO.P,R20,1*%
X129985000Y-67310000D03*
D13*
%TO.P,R20,2*%
X131635000Y-67310000D03*
%TD*%
D10*
%TO.C,J19*%
%TO.CFtp,CONN_RF2-04A-T-00-50-G_ADM*%
%TO.CVal,SMA_RF2-04A-T-00-50-G*%
%TO.CLbN,0_726_footprints*%
%TO.CMnt,TH*%
%TO.CRot,0*%
X71000000Y-88000000D03*
D11*
X74632199Y-84367801D02*
X74632199Y-91632199D01*
X67367801Y-91632199D01*
X67367801Y-84367801D01*
X74632199Y-84367801D01*
D12*
%TO.P,J19,1*%
X71000000Y-88000000D03*
D13*
%TO.P,J19,2*%
X68447300Y-85447300D03*
%TO.P,J19,3,Ext*%
X68447300Y-90552700D03*
%TO.P,J19,4,Ext*%
X73552700Y-90552700D03*
%TO.P,J19,5,Ext*%
X73552700Y-85447300D03*
%TD*%
D10*
%TO.C,C37*%
%TO.CFtp,C_0603_1608Metric*%
%TO.CVal,0.1u*%
%TO.CLbN,Capacitor_SMD*%
%TO.CMnt,SMD*%
%TO.CRot,-90*%
X144500000Y-77000000D03*
D11*
X145229999Y-75520001D02*
X145229999Y-78479999D01*
X143770001Y-78479999D01*
X143770001Y-75520001D01*
X145229999Y-75520001D01*
D12*
%TO.P,C37,1*%
X144500000Y-76225000D03*
D13*
%TO.P,C37,2*%
X144500000Y-77775000D03*
%TD*%
D10*
%TO.C,J5*%
%TO.CFtp,CONN_RF2-04A-T-00-50-G_ADM*%
%TO.CVal,SMA_RF2-04A-T-00-50-G*%
%TO.CLbN,0_726_footprints*%
%TO.CMnt,TH*%
%TO.CRot,0*%
X98750000Y-151000000D03*
D11*
X102382199Y-147367801D02*
X102382199Y-154632199D01*
X95117801Y-154632199D01*
X95117801Y-147367801D01*
X102382199Y-147367801D01*
D12*
%TO.P,J5,1*%
X98750000Y-151000000D03*
D13*
%TO.P,J5,2*%
X96197300Y-148447300D03*
%TO.P,J5,3,Ext*%
X96197300Y-153552700D03*
%TO.P,J5,4,Ext*%
X101302700Y-153552700D03*
%TO.P,J5,5,Ext*%
X101302700Y-148447300D03*
%TD*%
D10*
%TO.C,C21*%
%TO.CFtp,C_0603_1608Metric*%
%TO.CVal,1u*%
%TO.CLbN,Capacitor_SMD*%
%TO.CMnt,SMD*%
%TO.CRot,180*%
X75000000Y-147000000D03*
D11*
X76479999Y-146270001D02*
X76479999Y-147729999D01*
X73520001Y-147729999D01*
X73520001Y-146270001D01*
X76479999Y-146270001D01*
D12*
%TO.P,C21,1*%
X75775000Y-147000000D03*
D13*
%TO.P,C21,2*%
X74225000Y-147000000D03*
%TD*%
D10*
%TO.C,C64*%
%TO.CFtp,C_0603_1608Metric*%
%TO.CVal,x*%
%TO.CLbN,Capacitor_SMD*%
%TO.CMnt,SMD*%
%TO.CRot,90*%
X133000000Y-126500000D03*
D11*
X133729999Y-125020001D02*
X133729999Y-127979999D01*
X132270001Y-127979999D01*
X132270001Y-125020001D01*
X133729999Y-125020001D01*
D12*
%TO.P,C64,1*%
X133000000Y-127275000D03*
D13*
%TO.P,C64,2*%
X133000000Y-125725000D03*
%TD*%
D10*
%TO.C,D1*%
%TO.CFtp,DIO_1N457*%
%TO.CVal,1N457*%
%TO.CLbN,0_726_footprints*%
%TO.CMnt,TH*%
%TO.CRot,0*%
X111760000Y-78359000D03*
D14*
X100901500Y-77660500D02*
X100901500Y-79057500D01*
X112458500Y-79057500D01*
X112458500Y-77660500D01*
X100901500Y-77660500D01*
D12*
%TO.P,D1,1,C*%
X101600000Y-78359000D03*
D13*
%TO.P,D1,2,A*%
X111760000Y-78359000D03*
%TD*%
D10*
%TO.C,C17*%
%TO.CFtp,C_0603_1608Metric*%
%TO.CVal,0.1u*%
%TO.CLbN,Capacitor_SMD*%
%TO.CMnt,SMD*%
%TO.CRot,180*%
X106534000Y-72005000D03*
D11*
X108013999Y-71275001D02*
X108013999Y-72734999D01*
X105054001Y-72734999D01*
X105054001Y-71275001D01*
X108013999Y-71275001D01*
D12*
%TO.P,C17,1*%
X107309000Y-72005000D03*
D13*
%TO.P,C17,2*%
X105759000Y-72005000D03*
%TD*%
D10*
%TO.C,R9*%
%TO.CFtp,R_0603_1608Metric*%
%TO.CVal,50*%
%TO.CLbN,Resistor_SMD*%
%TO.CMnt,SMD*%
%TO.CRot,-90*%
X73000000Y-117000000D03*
D11*
X73729999Y-115520001D02*
X73729999Y-118479999D01*
X72270001Y-118479999D01*
X72270001Y-115520001D01*
X73729999Y-115520001D01*
D12*
%TO.P,R9,1*%
X73000000Y-116175000D03*
D13*
%TO.P,R9,2*%
X73000000Y-117825000D03*
%TD*%
D10*
%TO.C,C41*%
%TO.CFtp,C_0603_1608Metric*%
%TO.CVal,1u*%
%TO.CLbN,Capacitor_SMD*%
%TO.CMnt,SMD*%
%TO.CRot,-90*%
X77000000Y-64000000D03*
D11*
X77729999Y-62520001D02*
X77729999Y-65479999D01*
X76270001Y-65479999D01*
X76270001Y-62520001D01*
X77729999Y-62520001D01*
D12*
%TO.P,C41,1*%
X77000000Y-63225000D03*
D13*
%TO.P,C41,2*%
X77000000Y-64775000D03*
%TD*%
D10*
%TO.C,J24*%
%TO.CFtp,banana_plug_CT3151V1-0*%
%TO.CVal,CT3151V1-2*%
%TO.CLbN,0_726_footprints*%
%TO.CMnt,TH*%
%TO.CRot,0*%
X71224800Y-55000000D03*
D11*
X80597399Y-48015001D02*
X80597399Y-61984999D01*
X66627401Y-61984999D01*
X66627401Y-48015001D01*
X80597399Y-48015001D01*
D12*
%TO.P,J24,1,1*%
X71224800Y-55000000D03*
D13*
%TO.P,J24,2,2*%
X76000000Y-55000000D03*
%TO.P,J24,3,3*%
X73612400Y-52612400D03*
%TO.P,J24,4,4*%
X73612400Y-57387600D03*
%TD*%
D10*
%TO.C,C29*%
%TO.CFtp,C_0603_1608Metric*%
%TO.CVal,1u*%
%TO.CLbN,Capacitor_SMD*%
%TO.CMnt,SMD*%
%TO.CRot,180*%
X89000000Y-64750000D03*
D11*
X90479999Y-64020001D02*
X90479999Y-65479999D01*
X87520001Y-65479999D01*
X87520001Y-64020001D01*
X90479999Y-64020001D01*
D12*
%TO.P,C29,1*%
X89775000Y-64750000D03*
D13*
%TO.P,C29,2*%
X88225000Y-64750000D03*
%TD*%
D10*
%TO.C,R22*%
%TO.CFtp,R_0603_1608Metric*%
%TO.CVal,10k*%
%TO.CLbN,Resistor_SMD*%
%TO.CMnt,SMD*%
%TO.CRot,0*%
X105800000Y-142000000D03*
D11*
X107279999Y-141270001D02*
X107279999Y-142729999D01*
X104320001Y-142729999D01*
X104320001Y-141270001D01*
X107279999Y-141270001D01*
D12*
%TO.P,R22,1*%
X104975000Y-142000000D03*
D13*
%TO.P,R22,2*%
X106625000Y-142000000D03*
%TD*%
D10*
%TO.C,C5*%
%TO.CFtp,C_0603_1608Metric*%
%TO.CVal,3.19pF*%
%TO.CLbN,Capacitor_SMD*%
%TO.CMnt,SMD*%
%TO.CRot,-90*%
X135962000Y-103026000D03*
D11*
X136691999Y-101546001D02*
X136691999Y-104505999D01*
X135232001Y-104505999D01*
X135232001Y-101546001D01*
X136691999Y-101546001D01*
D12*
%TO.P,C5,1*%
X135962000Y-102251000D03*
D13*
%TO.P,C5,2*%
X135962000Y-103801000D03*
%TD*%
D10*
%TO.C,C42*%
%TO.CFtp,C_0603_1608Metric*%
%TO.CVal,0.1u*%
%TO.CLbN,Capacitor_SMD*%
%TO.CMnt,SMD*%
%TO.CRot,-90*%
X78500000Y-64000000D03*
D11*
X79229999Y-62520001D02*
X79229999Y-65479999D01*
X77770001Y-65479999D01*
X77770001Y-62520001D01*
X79229999Y-62520001D01*
D12*
%TO.P,C42,1*%
X78500000Y-63225000D03*
D13*
%TO.P,C42,2*%
X78500000Y-64775000D03*
%TD*%
D10*
%TO.C,U6*%
%TO.CFtp,TSSOP24_SOT355-1_NXP*%
%TO.CVal,NVT2010PW_118*%
%TO.CLbN,0_726_footprints*%
%TO.CMnt,SMD*%
%TO.CRot,90*%
X112000000Y-145500000D03*
D11*
X116006799Y-141588401D02*
X116006799Y-142998101D01*
X116203699Y-142998101D01*
X116203699Y-148001899D01*
X116006799Y-148001899D01*
X116006799Y-149411599D01*
X107993201Y-149411599D01*
X107993201Y-148001899D01*
X107796301Y-148001899D01*
X107796301Y-142998101D01*
X107993201Y-142998101D01*
X107993201Y-141588401D01*
X116006799Y-141588401D01*
D12*
%TO.P,U6,1,GND*%
X108425001Y-148452750D03*
D13*
%TO.P,U6,2,VREFA*%
X109075000Y-148452750D03*
%TO.P,U6,3,A1*%
X109724998Y-148452750D03*
%TO.P,U6,4,A2*%
X110374999Y-148452750D03*
%TO.P,U6,5,A3*%
X111024998Y-148452750D03*
%TO.P,U6,6,A4*%
X111674999Y-148452750D03*
%TO.P,U6,7,A5*%
X112324998Y-148452750D03*
%TO.P,U6,8,A6*%
X112974999Y-148452750D03*
%TO.P,U6,9,A7*%
X113624998Y-148452750D03*
%TO.P,U6,10,A8*%
X114274999Y-148452750D03*
%TO.P,U6,11,A9*%
X114924998Y-148452750D03*
%TO.P,U6,12,A10*%
X115574999Y-148452750D03*
%TO.P,U6,13,B10*%
X115574999Y-142547250D03*
%TO.P,U6,14,B9*%
X114925000Y-142547250D03*
%TO.P,U6,15,B8*%
X114274999Y-142547250D03*
%TO.P,U6,16,B7*%
X113625001Y-142547250D03*
%TO.P,U6,17,B6*%
X112974999Y-142547250D03*
%TO.P,U6,18,B5*%
X112325001Y-142547250D03*
%TO.P,U6,19,B4*%
X111675002Y-142547250D03*
%TO.P,U6,20,B3*%
X111025001Y-142547250D03*
%TO.P,U6,21,B2*%
X110375002Y-142547250D03*
%TO.P,U6,22,B1*%
X109725001Y-142547250D03*
%TO.P,U6,23,VREFB*%
X109075002Y-142547250D03*
%TO.P,U6,24,EN*%
X108425001Y-142547250D03*
%TD*%
D10*
%TO.C,C35*%
%TO.CFtp,C_0603_1608Metric*%
%TO.CVal,0.1u*%
%TO.CLbN,Capacitor_SMD*%
%TO.CMnt,SMD*%
%TO.CRot,-90*%
X143000000Y-148000000D03*
D11*
X143729999Y-146520001D02*
X143729999Y-149479999D01*
X142270001Y-149479999D01*
X142270001Y-146520001D01*
X143729999Y-146520001D01*
D12*
%TO.P,C35,1*%
X143000000Y-147225000D03*
D13*
%TO.P,C35,2*%
X143000000Y-148775000D03*
%TD*%
D10*
%TO.C,C6*%
%TO.CFtp,C_0603_1608Metric*%
%TO.CVal,3.19pF*%
%TO.CLbN,Capacitor_SMD*%
%TO.CMnt,SMD*%
%TO.CRot,90*%
X76000000Y-100000000D03*
D11*
X76729999Y-98520001D02*
X76729999Y-101479999D01*
X75270001Y-101479999D01*
X75270001Y-98520001D01*
X76729999Y-98520001D01*
D12*
%TO.P,C6,1*%
X76000000Y-100775000D03*
D13*
%TO.P,C6,2*%
X76000000Y-99225000D03*
%TD*%
D10*
%TO.C,C66*%
%TO.CFtp,C_0603_1608Metric*%
%TO.CVal,x*%
%TO.CLbN,Capacitor_SMD*%
%TO.CMnt,SMD*%
%TO.CRot,-90*%
X133000000Y-117000000D03*
D11*
X133729999Y-115520001D02*
X133729999Y-118479999D01*
X132270001Y-118479999D01*
X132270001Y-115520001D01*
X133729999Y-115520001D01*
D12*
%TO.P,C66,1*%
X133000000Y-116225000D03*
D13*
%TO.P,C66,2*%
X133000000Y-117775000D03*
%TD*%
D10*
%TO.C,C32*%
%TO.CFtp,C_0603_1608Metric*%
%TO.CVal,10u*%
%TO.CLbN,Capacitor_SMD*%
%TO.CMnt,SMD*%
%TO.CRot,-90*%
X147500000Y-148000000D03*
D11*
X148229999Y-146520001D02*
X148229999Y-149479999D01*
X146770001Y-149479999D01*
X146770001Y-146520001D01*
X148229999Y-146520001D01*
D12*
%TO.P,C32,1*%
X147500000Y-147225000D03*
D13*
%TO.P,C32,2*%
X147500000Y-148775000D03*
%TD*%
D10*
%TO.C,C4*%
%TO.CFtp,C_0603_1608Metric*%
%TO.CVal,3.19pF*%
%TO.CLbN,Capacitor_SMD*%
%TO.CMnt,SMD*%
%TO.CRot,90*%
X136000000Y-113000000D03*
D11*
X136729999Y-111520001D02*
X136729999Y-114479999D01*
X135270001Y-114479999D01*
X135270001Y-111520001D01*
X136729999Y-111520001D01*
D12*
%TO.P,C4,1*%
X136000000Y-113775000D03*
D13*
%TO.P,C4,2*%
X136000000Y-112225000D03*
%TD*%
D10*
%TO.C,R1*%
%TO.CFtp,R_0603_1608Metric*%
%TO.CVal,50*%
%TO.CLbN,Resistor_SMD*%
%TO.CMnt,SMD*%
%TO.CRot,-90*%
X139000000Y-130500000D03*
D11*
X139729999Y-129020001D02*
X139729999Y-131979999D01*
X138270001Y-131979999D01*
X138270001Y-129020001D01*
X139729999Y-129020001D01*
D12*
%TO.P,R1,1*%
X139000000Y-129675000D03*
D13*
%TO.P,R1,2*%
X139000000Y-131325000D03*
%TD*%
D10*
%TO.C,C67*%
%TO.CFtp,C_0603_1608Metric*%
%TO.CVal,x*%
%TO.CLbN,Capacitor_SMD*%
%TO.CMnt,SMD*%
%TO.CRot,90*%
X133000000Y-113000000D03*
D11*
X133729999Y-111520001D02*
X133729999Y-114479999D01*
X132270001Y-114479999D01*
X132270001Y-111520001D01*
X133729999Y-111520001D01*
D12*
%TO.P,C67,1*%
X133000000Y-113775000D03*
D13*
%TO.P,C67,2*%
X133000000Y-112225000D03*
%TD*%
D10*
%TO.C,C18*%
%TO.CFtp,C_0603_1608Metric*%
%TO.CVal,0.1u*%
%TO.CLbN,Capacitor_SMD*%
%TO.CMnt,SMD*%
%TO.CRot,180*%
X135390000Y-71805000D03*
D11*
X136869999Y-71075001D02*
X136869999Y-72534999D01*
X133910001Y-72534999D01*
X133910001Y-71075001D01*
X136869999Y-71075001D01*
D12*
%TO.P,C18,1*%
X136165000Y-71805000D03*
D13*
%TO.P,C18,2*%
X134615000Y-71805000D03*
%TD*%
D10*
%TO.C,J39*%
%TO.CFtp,banana_plug_CT3151V1-0*%
%TO.CVal,CT3151V1-2*%
%TO.CLbN,0_726_footprints*%
%TO.CMnt,TH*%
%TO.CRot,0*%
X155224800Y-71612400D03*
D11*
X164597399Y-64627401D02*
X164597399Y-78597399D01*
X150627401Y-78597399D01*
X150627401Y-64627401D01*
X164597399Y-64627401D01*
D12*
%TO.P,J39,1,1*%
X155224800Y-71612400D03*
D13*
%TO.P,J39,2,2*%
X160000000Y-71612400D03*
%TO.P,J39,3,3*%
X157612400Y-69224800D03*
%TO.P,J39,4,4*%
X157612400Y-74000000D03*
%TD*%
D10*
%TO.C,J34*%
%TO.CFtp,banana_plug_CT3151V1-0*%
%TO.CVal,CT3151V1-0*%
%TO.CLbN,0_726_footprints*%
%TO.CMnt,TH*%
%TO.CRot,0*%
X145000000Y-54000000D03*
D11*
X154372599Y-47015001D02*
X154372599Y-60984999D01*
X140402601Y-60984999D01*
X140402601Y-47015001D01*
X154372599Y-47015001D01*
D12*
%TO.P,J34,1,1*%
X145000000Y-54000000D03*
D13*
%TO.P,J34,2,2*%
X149775200Y-54000000D03*
%TO.P,J34,3,3*%
X147387600Y-51612400D03*
%TO.P,J34,4,4*%
X147387600Y-56387600D03*
%TD*%
D10*
%TO.C,J6*%
%TO.CFtp,PinHeader_2x15_P2.54mm_Horizontal*%
%TO.CVal,~*%
%TO.CLbN,Connector_PinHeader_2.54mm*%
%TO.CMnt,TH*%
%TO.CRot,-90*%
X145400000Y-156000000D03*
D11*
X147199999Y-154200001D02*
X147199999Y-169099999D01*
X108050001Y-169099999D01*
X108050001Y-154200001D01*
X147199999Y-154200001D01*
D12*
%TO.P,J6,1,Scope_Ch1+*%
X145400000Y-156000000D03*
D13*
%TO.P,J6,2,Scope_Ch1-*%
X145400000Y-158540000D03*
%TO.P,J6,3,Scope_Ch2+*%
X142860000Y-156000000D03*
%TO.P,J6,4,Scope_Ch2-*%
X142860000Y-158540000D03*
%TO.P,J6,5,GND*%
X140320000Y-156000000D03*
%TO.P,J6,6,GND*%
X140320000Y-158540000D03*
%TO.P,J6,7,V+Power*%
X137780000Y-156000000D03*
%TO.P,J6,8,V-Power*%
X137780000Y-158540000D03*
%TO.P,J6,9,WaveformGen1*%
X135240000Y-156000000D03*
%TO.P,J6,10,WaveformGen2*%
X135240000Y-158540000D03*
%TO.P,J6,11,GND*%
X132700000Y-156000000D03*
%TO.P,J6,12,GND*%
X132700000Y-158540000D03*
%TO.P,J6,13,Trigger1*%
X130160000Y-156000000D03*
%TO.P,J6,14,Trigger2*%
X130160000Y-158540000D03*
%TO.P,J6,15,DIO0*%
X127620000Y-156000000D03*
%TO.P,J6,16,DIO8*%
X127620000Y-158540000D03*
%TO.P,J6,17,DIO1*%
X125080000Y-156000000D03*
%TO.P,J6,18,DIO9*%
X125080000Y-158540000D03*
%TO.P,J6,19,DIO2*%
X122540000Y-156000000D03*
%TO.P,J6,20,DIO10*%
X122540000Y-158540000D03*
%TO.P,J6,21,DIO3*%
X120000000Y-156000000D03*
%TO.P,J6,22,DIO11*%
X120000000Y-158540000D03*
%TO.P,J6,23,DIO4*%
X117460000Y-156000000D03*
%TO.P,J6,24,DIO12*%
X117460000Y-158540000D03*
%TO.P,J6,25,DIO5*%
X114920000Y-156000000D03*
%TO.P,J6,26,DIO13*%
X114920000Y-158540000D03*
%TO.P,J6,27,DIO6*%
X112380000Y-156000000D03*
%TO.P,J6,28,DIO14*%
X112380000Y-158540000D03*
%TO.P,J6,29,DIO7*%
X109840000Y-156000000D03*
%TO.P,J6,30,DIO15*%
X109840000Y-158540000D03*
%TD*%
D10*
%TO.C,R3*%
%TO.CFtp,R_0603_1608Metric*%
%TO.CVal,50*%
%TO.CLbN,Resistor_SMD*%
%TO.CMnt,SMD*%
%TO.CRot,-90*%
X139000000Y-117000000D03*
D11*
X139729999Y-115520001D02*
X139729999Y-118479999D01*
X138270001Y-118479999D01*
X138270001Y-115520001D01*
X139729999Y-115520001D01*
D12*
%TO.P,R3,1*%
X139000000Y-116175000D03*
D13*
%TO.P,R3,2*%
X139000000Y-117825000D03*
%TD*%
D10*
%TO.C,J37*%
%TO.CFtp,banana_plug_CT3151V1-0*%
%TO.CVal,CT3151V1-0*%
%TO.CLbN,0_726_footprints*%
%TO.CMnt,TH*%
%TO.CRot,0*%
X62224800Y-158000000D03*
D11*
X71597399Y-151015001D02*
X71597399Y-164984999D01*
X57627401Y-164984999D01*
X57627401Y-151015001D01*
X71597399Y-151015001D01*
D12*
%TO.P,J37,1,1*%
X62224800Y-158000000D03*
D13*
%TO.P,J37,2,2*%
X67000000Y-158000000D03*
%TO.P,J37,3,3*%
X64612400Y-155612400D03*
%TO.P,J37,4,4*%
X64612400Y-160387600D03*
%TD*%
D10*
%TO.C,J27*%
%TO.CFtp,PinHeader_1x02_P2.54mm_Vertical*%
%TO.CVal,61300211121*%
%TO.CLbN,Connector_PinHeader_2.54mm*%
%TO.CMnt,TH*%
%TO.CRot,-90*%
X119380000Y-71120000D03*
D11*
X121179999Y-69320001D02*
X121179999Y-72919999D01*
X115030001Y-72919999D01*
X115030001Y-69320001D01*
X121179999Y-69320001D01*
D12*
%TO.P,J27,1,Pin_1*%
X119380000Y-71120000D03*
D13*
%TO.P,J27,2,Pin_2*%
X116840000Y-71120000D03*
%TD*%
D10*
%TO.C,J13*%
%TO.CFtp,CONN_RF2-04A-T-00-50-G_ADM*%
%TO.CVal,SMA_RF2-04A-T-00-50-G*%
%TO.CLbN,0_726_footprints*%
%TO.CMnt,TH*%
%TO.CRot,0*%
X64000000Y-115000000D03*
D11*
X67632199Y-111367801D02*
X67632199Y-118632199D01*
X60367801Y-118632199D01*
X60367801Y-111367801D01*
X67632199Y-111367801D01*
D12*
%TO.P,J13,1*%
X64000000Y-115000000D03*
D13*
%TO.P,J13,2*%
X61447300Y-112447300D03*
%TO.P,J13,3,Ext*%
X61447300Y-117552700D03*
%TO.P,J13,4,Ext*%
X66552700Y-117552700D03*
%TO.P,J13,5,Ext*%
X66552700Y-112447300D03*
%TD*%
D10*
%TO.C,R16*%
%TO.CFtp,R_0603_1608Metric*%
%TO.CVal,75k*%
%TO.CLbN,Resistor_SMD*%
%TO.CMnt,SMD*%
%TO.CRot,180*%
X113030000Y-63500000D03*
D11*
X114509999Y-62770001D02*
X114509999Y-64229999D01*
X111550001Y-64229999D01*
X111550001Y-62770001D01*
X114509999Y-62770001D01*
D12*
%TO.P,R16,1*%
X113855000Y-63500000D03*
D13*
%TO.P,R16,2*%
X112205000Y-63500000D03*
%TD*%
D10*
%TO.C,J11*%
%TO.CFtp,CONN_RF2-04A-T-00-50-G_ADM*%
%TO.CVal,SMA_RF2-04A-T-00-50-G*%
%TO.CLbN,0_726_footprints*%
%TO.CMnt,TH*%
%TO.CRot,0*%
X64000000Y-101000000D03*
D11*
X67632199Y-97367801D02*
X67632199Y-104632199D01*
X60367801Y-104632199D01*
X60367801Y-97367801D01*
X67632199Y-97367801D01*
D12*
%TO.P,J11,1*%
X64000000Y-101000000D03*
D13*
%TO.P,J11,2*%
X61447300Y-98447300D03*
%TO.P,J11,3,Ext*%
X61447300Y-103552700D03*
%TO.P,J11,4,Ext*%
X66552700Y-103552700D03*
%TO.P,J11,5,Ext*%
X66552700Y-98447300D03*
%TD*%
D10*
%TO.C,U4*%
%TO.CFtp,TSSOP-16_4.4x5mm_P0.65mm*%
%TO.CVal,TMUX1112PWR*%
%TO.CLbN,Package_SO*%
%TO.CMnt,SMD*%
%TO.CRot,-90*%
X106934000Y-65405000D03*
D11*
X109683999Y-61555001D02*
X109683999Y-69254999D01*
X104184001Y-69254999D01*
X104184001Y-61555001D01*
X109683999Y-61555001D01*
D12*
%TO.P,U4,1,SEL1*%
X109209000Y-62542500D03*
D13*
%TO.P,U4,2,D1*%
X108559000Y-62542500D03*
%TO.P,U4,3,S1*%
X107909000Y-62542500D03*
%TO.P,U4,4,NC*%
X107259000Y-62542500D03*
%TO.P,U4,5,GND*%
X106609000Y-62542500D03*
%TO.P,U4,6,S4*%
X105959000Y-62542500D03*
%TO.P,U4,7,D4*%
X105309000Y-62542500D03*
%TO.P,U4,8,SEL4*%
X104659000Y-62542500D03*
%TO.P,U4,9,SEL3*%
X104659000Y-68267500D03*
%TO.P,U4,10,D3*%
X105309000Y-68267500D03*
%TO.P,U4,11,S3*%
X105959000Y-68267500D03*
%TO.P,U4,12,NC*%
X106609000Y-68267500D03*
%TO.P,U4,13,VDD*%
X107259000Y-68267500D03*
%TO.P,U4,14,S2*%
X107909000Y-68267500D03*
%TO.P,U4,15,D2*%
X108559000Y-68267500D03*
%TO.P,U4,16,SEL2*%
X109209000Y-68267500D03*
%TD*%
D10*
%TO.C,C7*%
%TO.CFtp,C_0603_1608Metric*%
%TO.CVal,3.19pF*%
%TO.CLbN,Capacitor_SMD*%
%TO.CMnt,SMD*%
%TO.CRot,90*%
X136000000Y-99000000D03*
D11*
X136729999Y-97520001D02*
X136729999Y-100479999D01*
X135270001Y-100479999D01*
X135270001Y-97520001D01*
X136729999Y-97520001D01*
D12*
%TO.P,C7,1*%
X136000000Y-99775000D03*
D13*
%TO.P,C7,2*%
X136000000Y-98225000D03*
%TD*%
D10*
%TO.C,J17*%
%TO.CFtp,CONN_RF2-04A-T-00-50-G_ADM*%
%TO.CVal,SMA_RF2-04A-T-00-50-G*%
%TO.CLbN,0_726_footprints*%
%TO.CMnt,TH*%
%TO.CRot,0*%
X139000000Y-88000000D03*
D11*
X142632199Y-84367801D02*
X142632199Y-91632199D01*
X135367801Y-91632199D01*
X135367801Y-84367801D01*
X142632199Y-84367801D01*
D12*
%TO.P,J17,1*%
X139000000Y-88000000D03*
D13*
%TO.P,J17,2*%
X136447300Y-85447300D03*
%TO.P,J17,3,Ext*%
X136447300Y-90552700D03*
%TO.P,J17,4,Ext*%
X141552700Y-90552700D03*
%TO.P,J17,5,Ext*%
X141552700Y-85447300D03*
%TD*%
D10*
%TO.C,C33*%
%TO.CFtp,C_0603_1608Metric*%
%TO.CVal,1u*%
%TO.CLbN,Capacitor_SMD*%
%TO.CMnt,SMD*%
%TO.CRot,-90*%
X146000000Y-148000000D03*
D11*
X146729999Y-146520001D02*
X146729999Y-149479999D01*
X145270001Y-149479999D01*
X145270001Y-146520001D01*
X146729999Y-146520001D01*
D12*
%TO.P,C33,1*%
X146000000Y-147225000D03*
D13*
%TO.P,C33,2*%
X146000000Y-148775000D03*
%TD*%
D10*
%TO.C,C15*%
%TO.CFtp,C_0603_1608Metric*%
%TO.CVal,10p*%
%TO.CLbN,Capacitor_SMD*%
%TO.CMnt,SMD*%
%TO.CRot,0*%
X94825000Y-68200000D03*
D11*
X96304999Y-67470001D02*
X96304999Y-68929999D01*
X93345001Y-68929999D01*
X93345001Y-67470001D01*
X96304999Y-67470001D01*
D12*
%TO.P,C15,1*%
X94050000Y-68200000D03*
D13*
%TO.P,C15,2*%
X95600000Y-68200000D03*
%TD*%
D10*
%TO.C,C36*%
%TO.CFtp,C_0603_1608Metric*%
%TO.CVal,10u*%
%TO.CLbN,Capacitor_SMD*%
%TO.CMnt,SMD*%
%TO.CRot,-90*%
X149000000Y-77000000D03*
D11*
X149729999Y-75520001D02*
X149729999Y-78479999D01*
X148270001Y-78479999D01*
X148270001Y-75520001D01*
X149729999Y-75520001D01*
D12*
%TO.P,C36,1*%
X149000000Y-76225000D03*
D13*
%TO.P,C36,2*%
X149000000Y-77775000D03*
%TD*%
D10*
%TO.C,C11*%
%TO.CFtp,C_0603_1608Metric*%
%TO.CVal,3.19pF*%
%TO.CLbN,Capacitor_SMD*%
%TO.CMnt,SMD*%
%TO.CRot,90*%
X76000000Y-113000000D03*
D11*
X76729999Y-111520001D02*
X76729999Y-114479999D01*
X75270001Y-114479999D01*
X75270001Y-111520001D01*
X76729999Y-111520001D01*
D12*
%TO.P,C11,1*%
X76000000Y-113775000D03*
D13*
%TO.P,C11,2*%
X76000000Y-112225000D03*
%TD*%
D10*
%TO.C,U5*%
%TO.CFtp,TSSOP-16_4.4x5mm_P0.65mm*%
%TO.CVal,TMUX1112PWR*%
%TO.CLbN,Package_SO*%
%TO.CMnt,SMD*%
%TO.CRot,-90*%
X135890000Y-65405000D03*
D11*
X138639999Y-61555001D02*
X138639999Y-69254999D01*
X133140001Y-69254999D01*
X133140001Y-61555001D01*
X138639999Y-61555001D01*
D12*
%TO.P,U5,1,SEL1*%
X138165000Y-62542500D03*
D13*
%TO.P,U5,2,D1*%
X137515000Y-62542500D03*
%TO.P,U5,3,S1*%
X136865000Y-62542500D03*
%TO.P,U5,4,NC*%
X136215000Y-62542500D03*
%TO.P,U5,5,GND*%
X135565000Y-62542500D03*
%TO.P,U5,6,S4*%
X134915000Y-62542500D03*
%TO.P,U5,7,D4*%
X134265000Y-62542500D03*
%TO.P,U5,8,SEL4*%
X133615000Y-62542500D03*
%TO.P,U5,9,SEL3*%
X133615000Y-68267500D03*
%TO.P,U5,10,D3*%
X134265000Y-68267500D03*
%TO.P,U5,11,S3*%
X134915000Y-68267500D03*
%TO.P,U5,12,NC*%
X135565000Y-68267500D03*
%TO.P,U5,13,VDD*%
X136215000Y-68267500D03*
%TO.P,U5,14,S2*%
X136865000Y-68267500D03*
%TO.P,U5,15,D2*%
X137515000Y-68267500D03*
%TO.P,U5,16,SEL2*%
X138165000Y-68267500D03*
%TD*%
D10*
%TO.C,J2*%
%TO.CFtp,banana_plug_CT3151V1-0*%
%TO.CVal,CT3151V1-2*%
%TO.CLbN,0_726_footprints*%
%TO.CMnt,TH*%
%TO.CRot,-90*%
X51612400Y-68612400D03*
D11*
X58597399Y-64015001D02*
X58597399Y-77984999D01*
X44627401Y-77984999D01*
X44627401Y-64015001D01*
X58597399Y-64015001D01*
D12*
%TO.P,J2,1,1*%
X51612400Y-68612400D03*
D13*
%TO.P,J2,2,2*%
X51612400Y-73387600D03*
%TO.P,J2,3,3*%
X54000000Y-71000000D03*
%TO.P,J2,4,4*%
X49224800Y-71000000D03*
%TD*%
D10*
%TO.C,U3*%
%TO.CFtp,MAX40201FAUA+*%
%TO.CVal,21-0036K_MXM*%
%TO.CLbN,0_726_footprints*%
%TO.CMnt,SMD*%
%TO.CRot,90*%
X95000000Y-75000000D03*
D11*
X96254759Y-72231401D02*
X96254759Y-73349001D01*
X96650999Y-73349001D01*
X96650999Y-76650999D01*
X96254759Y-76650999D01*
X96254759Y-77768599D01*
X93745241Y-77768599D01*
X93745241Y-76650999D01*
X93349001Y-76650999D01*
X93349001Y-73349001D01*
X93745241Y-73349001D01*
X93745241Y-72231401D01*
X96254759Y-72231401D01*
D12*
%TO.P,U3,1,RS1+*%
X94024640Y-77133600D03*
D13*
%TO.P,U3,2,RS1-*%
X94674880Y-77133600D03*
%TO.P,U3,3,RS2+*%
X95325120Y-77133600D03*
%TO.P,U3,4,RS2-*%
X95975360Y-77133600D03*
%TO.P,U3,5,GND*%
X95975360Y-72866400D03*
%TO.P,U3,6,OUT2*%
X95325120Y-72866400D03*
%TO.P,U3,7,OUT1*%
X94674880Y-72866400D03*
%TO.P,U3,8,VDD*%
X94024640Y-72866400D03*
%TD*%
D10*
%TO.C,U1*%
%TO.CFtp,CPG08462_Full*%
%TO.CVal,~*%
%TO.CLbN,0_726_footprints*%
%TO.CMnt,TH*%
%TO.CRot,0*%
X122682000Y-134620000D03*
D14*
X86550500Y-98488500D02*
X86550500Y-135191500D01*
X123253500Y-135191500D01*
X123253500Y-98488500D01*
X86550500Y-98488500D01*
D12*
%TO.P,U1,A1,VDDPST*%
X117602000Y-129540000D03*
D13*
%TO.P,U1,*%
X87122000Y-99060000D03*
X87122000Y-101600000D03*
X87122000Y-104140000D03*
X87122000Y-106680000D03*
X87122000Y-109220000D03*
X87122000Y-111760000D03*
X87122000Y-114300000D03*
X87122000Y-116840000D03*
X87122000Y-119380000D03*
X87122000Y-121920000D03*
X87122000Y-124460000D03*
X87122000Y-127000000D03*
X87122000Y-129540000D03*
X87122000Y-132080000D03*
X87122000Y-134620000D03*
X89662000Y-99060000D03*
X89662000Y-101600000D03*
X89662000Y-104140000D03*
X89662000Y-106680000D03*
X89662000Y-109220000D03*
X89662000Y-111760000D03*
X89662000Y-114300000D03*
X89662000Y-116840000D03*
X89662000Y-119380000D03*
X89662000Y-121920000D03*
X89662000Y-124460000D03*
X89662000Y-127000000D03*
X89662000Y-129540000D03*
X89662000Y-132080000D03*
X89662000Y-134620000D03*
X92202000Y-99060000D03*
X92202000Y-101600000D03*
X92202000Y-132080000D03*
X92202000Y-134620000D03*
X94742000Y-99060000D03*
X94742000Y-101600000D03*
X94742000Y-132080000D03*
X94742000Y-134620000D03*
X97282000Y-99060000D03*
X97282000Y-101600000D03*
X97282000Y-109220000D03*
X97282000Y-111760000D03*
X97282000Y-121920000D03*
X97282000Y-124460000D03*
X97282000Y-132080000D03*
X97282000Y-134620000D03*
X99822000Y-99060000D03*
X99822000Y-101600000D03*
X99822000Y-109220000D03*
X99822000Y-111760000D03*
X99822000Y-114300000D03*
X99822000Y-116840000D03*
X99822000Y-119380000D03*
X99822000Y-121920000D03*
X99822000Y-124460000D03*
X99822000Y-132080000D03*
X99822000Y-134620000D03*
X102362000Y-99060000D03*
X102362000Y-101600000D03*
X102362000Y-111760000D03*
X102362000Y-114300000D03*
X102362000Y-116840000D03*
X102362000Y-119380000D03*
X102362000Y-121920000D03*
X102362000Y-132080000D03*
X102362000Y-134620000D03*
X104902000Y-99060000D03*
X104902000Y-101600000D03*
X104902000Y-111760000D03*
X104902000Y-114300000D03*
X104902000Y-116840000D03*
X104902000Y-119380000D03*
X104902000Y-121920000D03*
X104902000Y-132080000D03*
X104902000Y-134620000D03*
X107442000Y-99060000D03*
X107442000Y-101600000D03*
X107442000Y-111760000D03*
X107442000Y-114300000D03*
X107442000Y-116840000D03*
X107442000Y-119380000D03*
X107442000Y-121920000D03*
X107442000Y-132080000D03*
X107442000Y-134620000D03*
X109982000Y-99060000D03*
X109982000Y-101600000D03*
X109982000Y-109220000D03*
X109982000Y-111760000D03*
X109982000Y-114300000D03*
X109982000Y-116840000D03*
X109982000Y-119380000D03*
X109982000Y-121920000D03*
X109982000Y-124460000D03*
X109982000Y-132080000D03*
X109982000Y-134620000D03*
X112522000Y-99060000D03*
X112522000Y-101600000D03*
X112522000Y-109220000D03*
X112522000Y-111760000D03*
X112522000Y-121920000D03*
X112522000Y-124460000D03*
X112522000Y-132080000D03*
X112522000Y-134620000D03*
X115062000Y-99060000D03*
X115062000Y-101600000D03*
X115062000Y-132080000D03*
X115062000Y-134620000D03*
X117602000Y-99060000D03*
X117602000Y-101600000D03*
X117602000Y-132080000D03*
X117602000Y-134620000D03*
X120142000Y-99060000D03*
X120142000Y-101600000D03*
X120142000Y-104140000D03*
X120142000Y-106680000D03*
X120142000Y-109220000D03*
X120142000Y-111760000D03*
X120142000Y-114300000D03*
X120142000Y-116840000D03*
X120142000Y-119380000D03*
X120142000Y-121920000D03*
X120142000Y-124460000D03*
X120142000Y-127000000D03*
X120142000Y-129540000D03*
X120142000Y-132080000D03*
X120142000Y-134620000D03*
X122682000Y-99060000D03*
X122682000Y-101600000D03*
X122682000Y-104140000D03*
X122682000Y-106680000D03*
X122682000Y-109220000D03*
X122682000Y-111760000D03*
X122682000Y-114300000D03*
X122682000Y-116840000D03*
X122682000Y-119380000D03*
X122682000Y-121920000D03*
X122682000Y-124460000D03*
X122682000Y-127000000D03*
X122682000Y-129540000D03*
X122682000Y-132080000D03*
X122682000Y-134620000D03*
%TO.P,U1,A2*%
X115062000Y-129540000D03*
%TO.P,U1,A3,SPI_CS_L*%
X112522000Y-129540000D03*
%TO.P,U1,A4,VSS*%
X109982000Y-129540000D03*
%TO.P,U1,A5,VDD*%
X107442000Y-129540000D03*
%TO.P,U1,A6,SPI_COPI*%
X104902000Y-129540000D03*
%TO.P,U1,A7,VDDPST_POC*%
X102362000Y-129540000D03*
%TO.P,U1,A8,CLK*%
X99822000Y-129540000D03*
%TO.P,U1,A9*%
X97282000Y-129540000D03*
%TO.P,U1,A10*%
X94742000Y-129540000D03*
%TO.P,U1,A11,VSS*%
X92202000Y-129540000D03*
%TO.P,U1,B1*%
X117602000Y-127000000D03*
%TO.P,U1,B2*%
X115062000Y-127000000D03*
%TO.P,U1,B3*%
X112522000Y-127000000D03*
%TO.P,U1,B4,SPI_CLK*%
X109982000Y-127000000D03*
%TO.P,U1,B5,SPI_CIPO*%
X107442000Y-127000000D03*
%TO.P,U1,B6*%
X104902000Y-127000000D03*
%TO.P,U1,B7,IO_UCLK*%
X102362000Y-127000000D03*
%TO.P,U1,B8*%
X99822000Y-127000000D03*
%TO.P,U1,B9*%
X97282000Y-127000000D03*
%TO.P,U1,B10*%
X94742000Y-127000000D03*
%TO.P,U1,B11*%
X92202000Y-127000000D03*
%TO.P,U1,C1,RST_L*%
X117602000Y-124460000D03*
%TO.P,U1,C2*%
X115062000Y-124460000D03*
%TO.P,U1,C5*%
X107442000Y-124460000D03*
%TO.P,U1,C6*%
X104902000Y-124460000D03*
%TO.P,U1,C7*%
X102362000Y-124460000D03*
%TO.P,U1,C10*%
X94742000Y-124460000D03*
%TO.P,U1,C11,TSCAN_OUT*%
X92202000Y-124460000D03*
%TO.P,U1,D1,VDD*%
X117602000Y-121920000D03*
%TO.P,U1,D2,SCAN_EN*%
X115062000Y-121920000D03*
%TO.P,U1,D10,TSCAN_EN*%
X94742000Y-121920000D03*
%TO.P,U1,D11,VDD*%
X92202000Y-121920000D03*
%TO.P,U1,E1,output_0-*%
X117602000Y-119380000D03*
%TO.P,U1,E2,output_0+*%
X115062000Y-119380000D03*
%TO.P,U1,E3*%
X112522000Y-119380000D03*
%TO.P,U1,E9*%
X97282000Y-119380000D03*
%TO.P,U1,E10,output_5-*%
X94742000Y-119380000D03*
%TO.P,U1,E11,TAVDD*%
X92202000Y-119380000D03*
%TO.P,U1,F1*%
X117602000Y-116840000D03*
%TO.P,U1,F2*%
X115062000Y-116840000D03*
%TO.P,U1,F3*%
X112522000Y-116840000D03*
%TO.P,U1,F9*%
X97282000Y-116840000D03*
%TO.P,U1,F10,output_4+*%
X94742000Y-116840000D03*
%TO.P,U1,F11,output_5+*%
X92202000Y-116840000D03*
%TO.P,U1,G1,TAVDD*%
X117602000Y-114300000D03*
%TO.P,U1,G2,output_1+*%
X115062000Y-114300000D03*
%TO.P,U1,G3*%
X112522000Y-114300000D03*
%TO.P,U1,G9*%
X97282000Y-114300000D03*
%TO.P,U1,G10,output_3+*%
X94742000Y-114300000D03*
%TO.P,U1,G11,output_4-*%
X92202000Y-114300000D03*
%TO.P,U1,H1,output_1-*%
X117602000Y-111760000D03*
%TO.P,U1,H2,output_2+*%
X115062000Y-111760000D03*
%TO.P,U1,H10*%
X94742000Y-111760000D03*
%TO.P,U1,H11,output_3-*%
X92202000Y-111760000D03*
%TO.P,U1,J1,output_2-*%
X117602000Y-109220000D03*
%TO.P,U1,J2*%
X115062000Y-109220000D03*
%TO.P,U1,J5*%
X107442000Y-109220000D03*
%TO.P,U1,J6*%
X104902000Y-109220000D03*
%TO.P,U1,J7*%
X102362000Y-109220000D03*
%TO.P,U1,J10*%
X94742000Y-109220000D03*
%TO.P,U1,J11*%
X92202000Y-109220000D03*
%TO.P,U1,K1,VSS*%
X117602000Y-106680000D03*
%TO.P,U1,K2*%
X115062000Y-106680000D03*
%TO.P,U1,K3*%
X112522000Y-106680000D03*
%TO.P,U1,K4*%
X109982000Y-106680000D03*
%TO.P,U1,K5,vrbias*%
X107442000Y-106680000D03*
%TO.P,U1,K6,vbias0*%
X104902000Y-106680000D03*
%TO.P,U1,K7*%
X102362000Y-106680000D03*
%TO.P,U1,K8*%
X99822000Y-106680000D03*
%TO.P,U1,K9,vd1_dummy*%
X97282000Y-106680000D03*
%TO.P,U1,K10*%
X94742000Y-106680000D03*
%TO.P,U1,K11*%
X92202000Y-106680000D03*
%TO.P,U1,L1,VSS*%
X117602000Y-104140000D03*
%TO.P,U1,L2*%
X115062000Y-104140000D03*
%TO.P,U1,L3*%
X112522000Y-104140000D03*
%TO.P,U1,L4,vbias2*%
X109982000Y-104140000D03*
%TO.P,U1,L5,vbias1*%
X107442000Y-104140000D03*
%TO.P,U1,L6,vlvl*%
X104902000Y-104140000D03*
%TO.P,U1,L7,VSS*%
X102362000Y-104140000D03*
%TO.P,U1,L8,TAVDD*%
X99822000Y-104140000D03*
%TO.P,U1,L9,iout_dummy*%
X97282000Y-104140000D03*
%TO.P,U1,L10,vlvl_p_dummy*%
X94742000Y-104140000D03*
%TO.P,U1,L11,VSS*%
X92202000Y-104140000D03*
%TD*%
D10*
%TO.C,J30*%
%TO.CFtp,PinHeader_1x02_P2.54mm_Vertical*%
%TO.CVal,61300211121*%
%TO.CLbN,Connector_PinHeader_2.54mm*%
%TO.CMnt,TH*%
%TO.CRot,90*%
X124460000Y-67310000D03*
D11*
X128809999Y-65510001D02*
X128809999Y-69109999D01*
X122660001Y-69109999D01*
X122660001Y-65510001D01*
X128809999Y-65510001D01*
D12*
%TO.P,J30,1,Pin_1*%
X124460000Y-67310000D03*
D13*
%TO.P,J30,2,Pin_2*%
X127000000Y-67310000D03*
%TD*%
D10*
%TO.C,C26*%
%TO.CFtp,C_0603_1608Metric*%
%TO.CVal,0.1u*%
%TO.CLbN,Capacitor_SMD*%
%TO.CMnt,SMD*%
%TO.CRot,-90*%
X63000000Y-76500000D03*
D11*
X63729999Y-75020001D02*
X63729999Y-77979999D01*
X62270001Y-77979999D01*
X62270001Y-75020001D01*
X63729999Y-75020001D01*
D12*
%TO.P,C26,1*%
X63000000Y-75725000D03*
D13*
%TO.P,C26,2*%
X63000000Y-77275000D03*
%TD*%
D10*
%TO.C,J31*%
%TO.CFtp,PinHeader_1x02_P2.54mm_Vertical*%
%TO.CVal,61300211121*%
%TO.CLbN,Connector_PinHeader_2.54mm*%
%TO.CMnt,TH*%
%TO.CRot,90*%
X124460000Y-71120000D03*
D11*
X128809999Y-69320001D02*
X128809999Y-72919999D01*
X122660001Y-72919999D01*
X122660001Y-69320001D01*
X128809999Y-69320001D01*
D12*
%TO.P,J31,1,Pin_1*%
X124460000Y-71120000D03*
D13*
%TO.P,J31,2,Pin_2*%
X127000000Y-71120000D03*
%TD*%
D10*
%TO.C,C75*%
%TO.CFtp,C_0603_1608Metric*%
%TO.CVal,x*%
%TO.CLbN,Capacitor_SMD*%
%TO.CMnt,SMD*%
%TO.CRot,-90*%
X79000000Y-130225000D03*
D11*
X79729999Y-128745001D02*
X79729999Y-131704999D01*
X78270001Y-131704999D01*
X78270001Y-128745001D01*
X79729999Y-128745001D01*
D12*
%TO.P,C75,1*%
X79000000Y-129450000D03*
D13*
%TO.P,C75,2*%
X79000000Y-131000000D03*
%TD*%
D10*
%TO.C,C70*%
%TO.CFtp,C_0603_1608Metric*%
%TO.CVal,x*%
%TO.CLbN,Capacitor_SMD*%
%TO.CMnt,SMD*%
%TO.CRot,90*%
X79000000Y-100000000D03*
D11*
X79729999Y-98520001D02*
X79729999Y-101479999D01*
X78270001Y-101479999D01*
X78270001Y-98520001D01*
X79729999Y-98520001D01*
D12*
%TO.P,C70,1*%
X79000000Y-100775000D03*
D13*
%TO.P,C70,2*%
X79000000Y-99225000D03*
%TD*%
D10*
%TO.C,R21*%
%TO.CFtp,R_0603_1608Metric*%
%TO.CVal,665k*%
%TO.CLbN,Resistor_SMD*%
%TO.CMnt,SMD*%
%TO.CRot,0*%
X130810000Y-71120000D03*
D11*
X132289999Y-70390001D02*
X132289999Y-71849999D01*
X129330001Y-71849999D01*
X129330001Y-70390001D01*
X132289999Y-70390001D01*
D12*
%TO.P,R21,1*%
X129985000Y-71120000D03*
D13*
%TO.P,R21,2*%
X131635000Y-71120000D03*
%TD*%
D10*
%TO.C,C20*%
%TO.CFtp,C_0603_1608Metric*%
%TO.CVal,10u*%
%TO.CLbN,Capacitor_SMD*%
%TO.CMnt,SMD*%
%TO.CRot,180*%
X75000000Y-145490000D03*
D11*
X76479999Y-144760001D02*
X76479999Y-146219999D01*
X73520001Y-146219999D01*
X73520001Y-144760001D01*
X76479999Y-144760001D01*
D12*
%TO.P,C20,1*%
X75775000Y-145490000D03*
D13*
%TO.P,C20,2*%
X74225000Y-145490000D03*
%TD*%
D10*
%TO.C,C19*%
%TO.CFtp,C_0603_1608Metric*%
%TO.CVal,0.1u*%
%TO.CLbN,Capacitor_SMD*%
%TO.CMnt,SMD*%
%TO.CRot,180*%
X135390000Y-70205000D03*
D11*
X136869999Y-69475001D02*
X136869999Y-70934999D01*
X133910001Y-70934999D01*
X133910001Y-69475001D01*
X136869999Y-69475001D01*
D12*
%TO.P,C19,1*%
X136165000Y-70205000D03*
D13*
%TO.P,C19,2*%
X134615000Y-70205000D03*
%TD*%
D10*
%TO.C,R11*%
%TO.CFtp,R_0603_1608Metric*%
%TO.CVal,50*%
%TO.CLbN,Resistor_SMD*%
%TO.CMnt,SMD*%
%TO.CRot,90*%
X73000000Y-113000000D03*
D11*
X73729999Y-111520001D02*
X73729999Y-114479999D01*
X72270001Y-114479999D01*
X72270001Y-111520001D01*
X73729999Y-111520001D01*
D12*
%TO.P,R11,1*%
X73000000Y-113825000D03*
D13*
%TO.P,R11,2*%
X73000000Y-112175000D03*
%TD*%
D10*
%TO.C,C8*%
%TO.CFtp,C_0603_1608Metric*%
%TO.CVal,3.19pF*%
%TO.CLbN,Capacitor_SMD*%
%TO.CMnt,SMD*%
%TO.CRot,-90*%
X76000000Y-104000000D03*
D11*
X76729999Y-102520001D02*
X76729999Y-105479999D01*
X75270001Y-105479999D01*
X75270001Y-102520001D01*
X76729999Y-102520001D01*
D12*
%TO.P,C8,1*%
X76000000Y-103225000D03*
D13*
%TO.P,C8,2*%
X76000000Y-104775000D03*
%TD*%
D10*
%TO.C,J28*%
%TO.CFtp,PinHeader_1x02_P2.54mm_Vertical*%
%TO.CVal,61300211121*%
%TO.CLbN,Connector_PinHeader_2.54mm*%
%TO.CMnt,TH*%
%TO.CRot,90*%
X124460000Y-59690000D03*
D11*
X128809999Y-57890001D02*
X128809999Y-61489999D01*
X122660001Y-61489999D01*
X122660001Y-57890001D01*
X128809999Y-57890001D01*
D12*
%TO.P,J28,1,Pin_1*%
X124460000Y-59690000D03*
D13*
%TO.P,J28,2,Pin_2*%
X127000000Y-59690000D03*
%TD*%
D10*
%TO.C,C9*%
%TO.CFtp,C_0603_1608Metric*%
%TO.CVal,3.19pF*%
%TO.CLbN,Capacitor_SMD*%
%TO.CMnt,SMD*%
%TO.CRot,-90*%
X76000000Y-117000000D03*
D11*
X76729999Y-115520001D02*
X76729999Y-118479999D01*
X75270001Y-118479999D01*
X75270001Y-115520001D01*
X76729999Y-115520001D01*
D12*
%TO.P,C9,1*%
X76000000Y-116225000D03*
D13*
%TO.P,C9,2*%
X76000000Y-117775000D03*
%TD*%
D10*
%TO.C,C72*%
%TO.CFtp,C_0603_1608Metric*%
%TO.CVal,x*%
%TO.CLbN,Capacitor_SMD*%
%TO.CMnt,SMD*%
%TO.CRot,-90*%
X79000000Y-117000000D03*
D11*
X79729999Y-115520001D02*
X79729999Y-118479999D01*
X78270001Y-118479999D01*
X78270001Y-115520001D01*
X79729999Y-115520001D01*
D12*
%TO.P,C72,1*%
X79000000Y-116225000D03*
D13*
%TO.P,C72,2*%
X79000000Y-117775000D03*
%TD*%
D10*
%TO.C,C68*%
%TO.CFtp,C_0603_1608Metric*%
%TO.CVal,x*%
%TO.CLbN,Capacitor_SMD*%
%TO.CMnt,SMD*%
%TO.CRot,-90*%
X133000000Y-103000000D03*
D11*
X133729999Y-101520001D02*
X133729999Y-104479999D01*
X132270001Y-104479999D01*
X132270001Y-101520001D01*
X133729999Y-101520001D01*
D12*
%TO.P,C68,1*%
X133000000Y-102225000D03*
D13*
%TO.P,C68,2*%
X133000000Y-103775000D03*
%TD*%
D10*
%TO.C,R6*%
%TO.CFtp,R_0603_1608Metric*%
%TO.CVal,50*%
%TO.CLbN,Resistor_SMD*%
%TO.CMnt,SMD*%
%TO.CRot,90*%
X73000000Y-100000000D03*
D11*
X73729999Y-98520001D02*
X73729999Y-101479999D01*
X72270001Y-101479999D01*
X72270001Y-98520001D01*
X73729999Y-98520001D01*
D12*
%TO.P,R6,1*%
X73000000Y-100825000D03*
D13*
%TO.P,R6,2*%
X73000000Y-99175000D03*
%TD*%
D10*
%TO.C,C23*%
%TO.CFtp,C_0603_1608Metric*%
%TO.CVal,0.1u*%
%TO.CLbN,Capacitor_SMD*%
%TO.CMnt,SMD*%
%TO.CRot,180*%
X74950000Y-150000000D03*
D11*
X76429999Y-149270001D02*
X76429999Y-150729999D01*
X73470001Y-150729999D01*
X73470001Y-149270001D01*
X76429999Y-149270001D01*
D12*
%TO.P,C23,1*%
X75725000Y-150000000D03*
D13*
%TO.P,C23,2*%
X74175000Y-150000000D03*
%TD*%
D10*
%TO.C,R18*%
%TO.CFtp,R_0603_1608Metric*%
%TO.CVal,66.5k*%
%TO.CLbN,Resistor_SMD*%
%TO.CMnt,SMD*%
%TO.CRot,180*%
X113030000Y-71120000D03*
D11*
X114509999Y-70390001D02*
X114509999Y-71849999D01*
X111550001Y-71849999D01*
X111550001Y-70390001D01*
X114509999Y-70390001D01*
D12*
%TO.P,R18,1*%
X113855000Y-71120000D03*
D13*
%TO.P,R18,2*%
X112205000Y-71120000D03*
%TD*%
D10*
%TO.C,R5*%
%TO.CFtp,R_0603_1608Metric*%
%TO.CVal,50*%
%TO.CLbN,Resistor_SMD*%
%TO.CMnt,SMD*%
%TO.CRot,-90*%
X139000000Y-103000000D03*
D11*
X139729999Y-101520001D02*
X139729999Y-104479999D01*
X138270001Y-104479999D01*
X138270001Y-101520001D01*
X139729999Y-101520001D01*
D12*
%TO.P,R5,1*%
X139000000Y-102175000D03*
D13*
%TO.P,R5,2*%
X139000000Y-103825000D03*
%TD*%
D10*
%TO.C,C13*%
%TO.CFtp,C_0603_1608Metric*%
%TO.CVal,0.1u*%
%TO.CLbN,Capacitor_SMD*%
%TO.CMnt,SMD*%
%TO.CRot,0*%
X94825000Y-71200000D03*
D11*
X96304999Y-70470001D02*
X96304999Y-71929999D01*
X93345001Y-71929999D01*
X93345001Y-70470001D01*
X96304999Y-70470001D01*
D12*
%TO.P,C13,1*%
X94050000Y-71200000D03*
D13*
%TO.P,C13,2*%
X95600000Y-71200000D03*
%TD*%
D10*
%TO.C,C25*%
%TO.CFtp,C_0603_1608Metric*%
%TO.CVal,1u*%
%TO.CLbN,Capacitor_SMD*%
%TO.CMnt,SMD*%
%TO.CRot,-90*%
X61500000Y-76500000D03*
D11*
X62229999Y-75020001D02*
X62229999Y-77979999D01*
X60770001Y-77979999D01*
X60770001Y-75020001D01*
X62229999Y-75020001D01*
D12*
%TO.P,C25,1*%
X61500000Y-75725000D03*
D13*
%TO.P,C25,2*%
X61500000Y-77275000D03*
%TD*%
D10*
%TO.C,J18*%
%TO.CFtp,CONN_RF2-04A-T-00-50-G_ADM*%
%TO.CVal,SMA_RF2-04A-T-00-50-G*%
%TO.CLbN,0_726_footprints*%
%TO.CMnt,TH*%
%TO.CRot,0*%
X156000000Y-88000000D03*
D11*
X159632199Y-84367801D02*
X159632199Y-91632199D01*
X152367801Y-91632199D01*
X152367801Y-84367801D01*
X159632199Y-84367801D01*
D12*
%TO.P,J18,1*%
X156000000Y-88000000D03*
D13*
%TO.P,J18,2*%
X153447300Y-85447300D03*
%TO.P,J18,3,Ext*%
X153447300Y-90552700D03*
%TO.P,J18,4,Ext*%
X158552700Y-90552700D03*
%TO.P,J18,5,Ext*%
X158552700Y-85447300D03*
%TD*%
D10*
%TO.C,C34*%
%TO.CFtp,C_0603_1608Metric*%
%TO.CVal,0.1u*%
%TO.CLbN,Capacitor_SMD*%
%TO.CMnt,SMD*%
%TO.CRot,-90*%
X144500000Y-148000000D03*
D11*
X145229999Y-146520001D02*
X145229999Y-149479999D01*
X143770001Y-149479999D01*
X143770001Y-146520001D01*
X145229999Y-146520001D01*
D12*
%TO.P,C34,1*%
X144500000Y-147225000D03*
D13*
%TO.P,C34,2*%
X144500000Y-148775000D03*
%TD*%
D10*
%TO.C,C1*%
%TO.CFtp,C_0603_1608Metric*%
%TO.CVal,3.19pF*%
%TO.CLbN,Capacitor_SMD*%
%TO.CMnt,SMD*%
%TO.CRot,-90*%
X136000000Y-130500000D03*
D11*
X136729999Y-129020001D02*
X136729999Y-131979999D01*
X135270001Y-131979999D01*
X135270001Y-129020001D01*
X136729999Y-129020001D01*
D12*
%TO.P,C1,1*%
X136000000Y-129725000D03*
D13*
%TO.P,C1,2*%
X136000000Y-131275000D03*
%TD*%
D10*
%TO.C,R17*%
%TO.CFtp,R_0603_1608Metric*%
%TO.CVal,89.8k*%
%TO.CLbN,Resistor_SMD*%
%TO.CMnt,SMD*%
%TO.CRot,180*%
X113030000Y-67310000D03*
D11*
X114509999Y-66580001D02*
X114509999Y-68039999D01*
X111550001Y-68039999D01*
X111550001Y-66580001D01*
X114509999Y-66580001D01*
D12*
%TO.P,R17,1*%
X113855000Y-67310000D03*
D13*
%TO.P,R17,2*%
X112205000Y-67310000D03*
%TD*%
D10*
%TO.C,J26*%
%TO.CFtp,PinHeader_1x02_P2.54mm_Vertical*%
%TO.CVal,61300211121*%
%TO.CLbN,Connector_PinHeader_2.54mm*%
%TO.CMnt,TH*%
%TO.CRot,-90*%
X119380000Y-67310000D03*
D11*
X121179999Y-65510001D02*
X121179999Y-69109999D01*
X115030001Y-69109999D01*
X115030001Y-65510001D01*
X121179999Y-65510001D01*
D12*
%TO.P,J26,1,Pin_1*%
X119380000Y-67310000D03*
D13*
%TO.P,J26,2,Pin_2*%
X116840000Y-67310000D03*
%TD*%
D10*
%TO.C,J15*%
%TO.CFtp,CONN_RF2-04A-T-00-50-G_ADM*%
%TO.CVal,SMA_RF2-04A-T-00-50-G*%
%TO.CLbN,0_726_footprints*%
%TO.CMnt,TH*%
%TO.CRot,0*%
X64000000Y-130000000D03*
D11*
X67632199Y-126367801D02*
X67632199Y-133632199D01*
X60367801Y-133632199D01*
X60367801Y-126367801D01*
X67632199Y-126367801D01*
D12*
%TO.P,J15,1*%
X64000000Y-130000000D03*
D13*
%TO.P,J15,2*%
X61447300Y-127447300D03*
%TO.P,J15,3,Ext*%
X61447300Y-132552700D03*
%TO.P,J15,4,Ext*%
X66552700Y-132552700D03*
%TO.P,J15,5,Ext*%
X66552700Y-127447300D03*
%TD*%
D10*
%TO.C,R14*%
%TO.CFtp,R_0603_1608Metric*%
%TO.CVal,16.2k*%
%TO.CLbN,Resistor_SMD*%
%TO.CMnt,SMD*%
%TO.CRot,0*%
X130810000Y-59690000D03*
D11*
X132289999Y-58960001D02*
X132289999Y-60419999D01*
X129330001Y-60419999D01*
X129330001Y-58960001D01*
X132289999Y-58960001D01*
D12*
%TO.P,R14,1*%
X129985000Y-59690000D03*
D13*
%TO.P,R14,2*%
X131635000Y-59690000D03*
%TD*%
D10*
%TO.C,C31*%
%TO.CFtp,C_0603_1608Metric*%
%TO.CVal,0.1u*%
%TO.CLbN,Capacitor_SMD*%
%TO.CMnt,SMD*%
%TO.CRot,180*%
X89000000Y-67750000D03*
D11*
X90479999Y-67020001D02*
X90479999Y-68479999D01*
X87520001Y-68479999D01*
X87520001Y-67020001D01*
X90479999Y-67020001D01*
D12*
%TO.P,C31,1*%
X89775000Y-67750000D03*
D13*
%TO.P,C31,2*%
X88225000Y-67750000D03*
%TD*%
D10*
%TO.C,J32*%
%TO.CFtp,PinHeader_1x03_P2.54mm_Vertical*%
%TO.CVal,61300211121*%
%TO.CLbN,Connector_PinHeader_2.54mm*%
%TO.CMnt,TH*%
%TO.CRot,0*%
X80000000Y-69450000D03*
D11*
X81799999Y-67650001D02*
X81799999Y-76299999D01*
X78200001Y-76299999D01*
X78200001Y-67650001D01*
X81799999Y-67650001D01*
D12*
%TO.P,J32,1,Pin_1*%
X80000000Y-69450000D03*
D13*
%TO.P,J32,2,Pin_2*%
X80000000Y-71990000D03*
%TO.P,J32,3,Pin_3*%
X80000000Y-74530000D03*
%TD*%
D10*
%TO.C,J35*%
%TO.CFtp,banana_plug_CT3151V1-0*%
%TO.CVal,CT3151V1-2*%
%TO.CLbN,0_726_footprints*%
%TO.CMnt,TH*%
%TO.CRot,0*%
X91224800Y-55000000D03*
D11*
X100597399Y-48015001D02*
X100597399Y-61984999D01*
X86627401Y-61984999D01*
X86627401Y-48015001D01*
X100597399Y-48015001D01*
D12*
%TO.P,J35,1,1*%
X91224800Y-55000000D03*
D13*
%TO.P,J35,2,2*%
X96000000Y-55000000D03*
%TO.P,J35,3,3*%
X93612400Y-52612400D03*
%TO.P,J35,4,4*%
X93612400Y-57387600D03*
%TD*%
D10*
%TO.C,C71*%
%TO.CFtp,C_0603_1608Metric*%
%TO.CVal,x*%
%TO.CLbN,Capacitor_SMD*%
%TO.CMnt,SMD*%
%TO.CRot,-90*%
X79000000Y-104000000D03*
D11*
X79729999Y-102520001D02*
X79729999Y-105479999D01*
X78270001Y-105479999D01*
X78270001Y-102520001D01*
X79729999Y-102520001D01*
D12*
%TO.P,C71,1*%
X79000000Y-103225000D03*
D13*
%TO.P,C71,2*%
X79000000Y-104775000D03*
%TD*%
D10*
%TO.C,C43*%
%TO.CFtp,C_0603_1608Metric*%
%TO.CVal,0.1u*%
%TO.CLbN,Capacitor_SMD*%
%TO.CMnt,SMD*%
%TO.CRot,-90*%
X80000000Y-64000000D03*
D11*
X80729999Y-62520001D02*
X80729999Y-65479999D01*
X79270001Y-65479999D01*
X79270001Y-62520001D01*
X80729999Y-62520001D01*
D12*
%TO.P,C43,1*%
X80000000Y-63225000D03*
D13*
%TO.P,C43,2*%
X80000000Y-64775000D03*
%TD*%
D10*
%TO.C,R12*%
%TO.CFtp,R_0603_1608Metric*%
%TO.CVal,50*%
%TO.CLbN,Resistor_SMD*%
%TO.CMnt,SMD*%
%TO.CRot,-90*%
X73000000Y-130225000D03*
D11*
X73729999Y-128745001D02*
X73729999Y-131704999D01*
X72270001Y-131704999D01*
X72270001Y-128745001D01*
X73729999Y-128745001D01*
D12*
%TO.P,R12,1*%
X73000000Y-129400000D03*
D13*
%TO.P,R12,2*%
X73000000Y-131050000D03*
%TD*%
D10*
%TO.C,J29*%
%TO.CFtp,PinHeader_1x02_P2.54mm_Vertical*%
%TO.CVal,61300211121*%
%TO.CLbN,Connector_PinHeader_2.54mm*%
%TO.CMnt,TH*%
%TO.CRot,90*%
X124460000Y-63500000D03*
D11*
X128809999Y-61700001D02*
X128809999Y-65299999D01*
X122660001Y-65299999D01*
X122660001Y-61700001D01*
X128809999Y-61700001D01*
D12*
%TO.P,J29,1,Pin_1*%
X124460000Y-63500000D03*
D13*
%TO.P,J29,2,Pin_2*%
X127000000Y-63500000D03*
%TD*%
D10*
%TO.C,C27*%
%TO.CFtp,C_0603_1608Metric*%
%TO.CVal,0.1u*%
%TO.CLbN,Capacitor_SMD*%
%TO.CMnt,SMD*%
%TO.CRot,-90*%
X64500000Y-76500000D03*
D11*
X65229999Y-75020001D02*
X65229999Y-77979999D01*
X63770001Y-77979999D01*
X63770001Y-75020001D01*
X65229999Y-75020001D01*
D12*
%TO.P,C27,1*%
X64500000Y-75725000D03*
D13*
%TO.P,C27,2*%
X64500000Y-77275000D03*
%TD*%
D10*
%TO.C,C38*%
%TO.CFtp,C_0603_1608Metric*%
%TO.CVal,1n*%
%TO.CLbN,Capacitor_SMD*%
%TO.CMnt,SMD*%
%TO.CRot,-90*%
X146000000Y-77000000D03*
D11*
X146729999Y-75520001D02*
X146729999Y-78479999D01*
X145270001Y-78479999D01*
X145270001Y-75520001D01*
X146729999Y-75520001D01*
D12*
%TO.P,C38,1*%
X146000000Y-76225000D03*
D13*
%TO.P,C38,2*%
X146000000Y-77775000D03*
%TD*%
D10*
%TO.C,R19*%
%TO.CFtp,R_0603_1608Metric*%
%TO.CVal,750k*%
%TO.CLbN,Resistor_SMD*%
%TO.CMnt,SMD*%
%TO.CRot,0*%
X130810000Y-63500000D03*
D11*
X132289999Y-62770001D02*
X132289999Y-64229999D01*
X129330001Y-64229999D01*
X129330001Y-62770001D01*
X132289999Y-62770001D01*
D12*
%TO.P,R19,1*%
X129985000Y-63500000D03*
D13*
%TO.P,R19,2*%
X131635000Y-63500000D03*
%TD*%
D10*
%TO.C,C65*%
%TO.CFtp,C_0603_1608Metric*%
%TO.CVal,x*%
%TO.CLbN,Capacitor_SMD*%
%TO.CMnt,SMD*%
%TO.CRot,-90*%
X133000000Y-130500000D03*
D11*
X133729999Y-129020001D02*
X133729999Y-131979999D01*
X132270001Y-131979999D01*
X132270001Y-129020001D01*
X133729999Y-129020001D01*
D12*
%TO.P,C65,1*%
X133000000Y-129725000D03*
D13*
%TO.P,C65,2*%
X133000000Y-131275000D03*
%TD*%
D10*
%TO.C,C40*%
%TO.CFtp,C_0603_1608Metric*%
%TO.CVal,10u*%
%TO.CLbN,Capacitor_SMD*%
%TO.CMnt,SMD*%
%TO.CRot,-90*%
X75500000Y-64000000D03*
D11*
X76229999Y-62520001D02*
X76229999Y-65479999D01*
X74770001Y-65479999D01*
X74770001Y-62520001D01*
X76229999Y-62520001D01*
D12*
%TO.P,C40,1*%
X75500000Y-63225000D03*
D13*
%TO.P,C40,2*%
X75500000Y-64775000D03*
%TD*%
D10*
%TO.C,R13*%
%TO.CFtp,R_0603_1608Metric*%
%TO.CVal,1.62k*%
%TO.CLbN,Resistor_SMD*%
%TO.CMnt,SMD*%
%TO.CRot,180*%
X113030000Y-59690000D03*
D11*
X114509999Y-58960001D02*
X114509999Y-60419999D01*
X111550001Y-60419999D01*
X111550001Y-58960001D01*
X114509999Y-58960001D01*
D12*
%TO.P,R13,1*%
X113855000Y-59690000D03*
D13*
%TO.P,R13,2*%
X112205000Y-59690000D03*
%TD*%
D10*
%TO.C,J4*%
%TO.CFtp,CONN_RF2-04A-T-00-50-G_ADM*%
%TO.CVal,SMA_RF2-04A-T-00-50-G*%
%TO.CLbN,0_726_footprints*%
%TO.CMnt,TH*%
%TO.CRot,0*%
X145000000Y-130000000D03*
D11*
X148632199Y-126367801D02*
X148632199Y-133632199D01*
X141367801Y-133632199D01*
X141367801Y-126367801D01*
X148632199Y-126367801D01*
D12*
%TO.P,J4,1*%
X145000000Y-130000000D03*
D13*
%TO.P,J4,2*%
X142447300Y-127447300D03*
%TO.P,J4,3,Ext*%
X142447300Y-132552700D03*
%TO.P,J4,4,Ext*%
X147552700Y-132552700D03*
%TO.P,J4,5,Ext*%
X147552700Y-127447300D03*
%TD*%
D10*
%TO.C,J25*%
%TO.CFtp,PinHeader_1x02_P2.54mm_Vertical*%
%TO.CVal,61300211121*%
%TO.CLbN,Connector_PinHeader_2.54mm*%
%TO.CMnt,TH*%
%TO.CRot,-90*%
X119380000Y-63500000D03*
D11*
X121179999Y-61700001D02*
X121179999Y-65299999D01*
X115030001Y-65299999D01*
X115030001Y-61700001D01*
X121179999Y-61700001D01*
D12*
%TO.P,J25,1,Pin_1*%
X119380000Y-63500000D03*
D13*
%TO.P,J25,2,Pin_2*%
X116840000Y-63500000D03*
%TD*%
D10*
%TO.C,C30*%
%TO.CFtp,C_0603_1608Metric*%
%TO.CVal,0.1u*%
%TO.CLbN,Capacitor_SMD*%
%TO.CMnt,SMD*%
%TO.CRot,180*%
X89000000Y-66250000D03*
D11*
X90479999Y-65520001D02*
X90479999Y-66979999D01*
X87520001Y-66979999D01*
X87520001Y-65520001D01*
X90479999Y-65520001D01*
D12*
%TO.P,C30,1*%
X89775000Y-66250000D03*
D13*
%TO.P,C30,2*%
X88225000Y-66250000D03*
%TD*%
D10*
%TO.C,J7*%
%TO.CFtp,CONN_RF2-04A-T-00-50-G_ADM*%
%TO.CVal,SMA_RF2-04A-T-00-50-G*%
%TO.CLbN,0_726_footprints*%
%TO.CMnt,TH*%
%TO.CRot,0*%
X145000000Y-115000000D03*
D11*
X148632199Y-111367801D02*
X148632199Y-118632199D01*
X141367801Y-118632199D01*
X141367801Y-111367801D01*
X148632199Y-111367801D01*
D12*
%TO.P,J7,1*%
X145000000Y-115000000D03*
D13*
%TO.P,J7,2*%
X142447300Y-112447300D03*
%TO.P,J7,3,Ext*%
X142447300Y-117552700D03*
%TO.P,J7,4,Ext*%
X147552700Y-117552700D03*
%TO.P,J7,5,Ext*%
X147552700Y-112447300D03*
%TD*%
D10*
%TO.C,C28*%
%TO.CFtp,C_0603_1608Metric*%
%TO.CVal,10u*%
%TO.CLbN,Capacitor_SMD*%
%TO.CMnt,SMD*%
%TO.CRot,180*%
X89000000Y-63250000D03*
D11*
X90479999Y-62520001D02*
X90479999Y-63979999D01*
X87520001Y-63979999D01*
X87520001Y-62520001D01*
X90479999Y-62520001D01*
D12*
%TO.P,C28,1*%
X89775000Y-63250000D03*
D13*
%TO.P,C28,2*%
X88225000Y-63250000D03*
%TD*%
D10*
%TO.C,R8*%
%TO.CFtp,R_0603_1608Metric*%
%TO.CVal,50*%
%TO.CLbN,Resistor_SMD*%
%TO.CMnt,SMD*%
%TO.CRot,-90*%
X73000000Y-104000000D03*
D11*
X73729999Y-102520001D02*
X73729999Y-105479999D01*
X72270001Y-105479999D01*
X72270001Y-102520001D01*
X73729999Y-102520001D01*
D12*
%TO.P,R8,1*%
X73000000Y-103175000D03*
D13*
%TO.P,R8,2*%
X73000000Y-104825000D03*
%TD*%
D10*
%TO.C,C10*%
%TO.CFtp,C_0603_1608Metric*%
%TO.CVal,3.19pF*%
%TO.CLbN,Capacitor_SMD*%
%TO.CMnt,SMD*%
%TO.CRot,90*%
X76000000Y-126225000D03*
D11*
X76729999Y-124745001D02*
X76729999Y-127704999D01*
X75270001Y-127704999D01*
X75270001Y-124745001D01*
X76729999Y-124745001D01*
D12*
%TO.P,C10,1*%
X76000000Y-127000000D03*
D13*
%TO.P,C10,2*%
X76000000Y-125450000D03*
%TD*%
D10*
%TO.C,J22*%
%TO.CFtp,CONN_RF2-04A-T-00-50-G_ADM*%
%TO.CVal,SMA_RF2-04A-T-00-50-G*%
%TO.CLbN,0_726_footprints*%
%TO.CMnt,TH*%
%TO.CRot,0*%
X70750000Y-71500000D03*
D11*
X74382199Y-67867801D02*
X74382199Y-75132199D01*
X67117801Y-75132199D01*
X67117801Y-67867801D01*
X74382199Y-67867801D01*
D12*
%TO.P,J22,1*%
X70750000Y-71500000D03*
D13*
%TO.P,J22,2*%
X68197300Y-68947300D03*
%TO.P,J22,3,Ext*%
X68197300Y-74052700D03*
%TO.P,J22,4,Ext*%
X73302700Y-74052700D03*
%TO.P,J22,5,Ext*%
X73302700Y-68947300D03*
%TD*%
D10*
%TO.C,J1*%
%TO.CFtp,banana_plug_CT3151V1-0*%
%TO.CVal,CT3151V1-2*%
%TO.CLbN,0_726_footprints*%
%TO.CMnt,TH*%
%TO.CRot,90*%
X156000000Y-151000000D03*
D11*
X162984999Y-141627401D02*
X162984999Y-155597399D01*
X149015001Y-155597399D01*
X149015001Y-141627401D01*
X162984999Y-141627401D01*
D12*
%TO.P,J1,1,1*%
X156000000Y-151000000D03*
D13*
%TO.P,J1,2,2*%
X156000000Y-146224800D03*
%TO.P,J1,3,3*%
X153612400Y-148612400D03*
%TO.P,J1,4,4*%
X158387600Y-148612400D03*
%TD*%
D10*
%TO.C,C39*%
%TO.CFtp,C_0603_1608Metric*%
%TO.CVal,10p*%
%TO.CLbN,Capacitor_SMD*%
%TO.CMnt,SMD*%
%TO.CRot,-90*%
X147500000Y-77000000D03*
D11*
X148229999Y-75520001D02*
X148229999Y-78479999D01*
X146770001Y-78479999D01*
X146770001Y-75520001D01*
X148229999Y-75520001D01*
D12*
%TO.P,C39,1*%
X147500000Y-76225000D03*
D13*
%TO.P,C39,2*%
X147500000Y-77775000D03*
%TD*%
D10*
%TO.C,C74*%
%TO.CFtp,C_0603_1608Metric*%
%TO.CVal,x*%
%TO.CLbN,Capacitor_SMD*%
%TO.CMnt,SMD*%
%TO.CRot,90*%
X79000000Y-126252000D03*
D11*
X79729999Y-124772001D02*
X79729999Y-127731999D01*
X78270001Y-127731999D01*
X78270001Y-124772001D01*
X79729999Y-124772001D01*
D12*
%TO.P,C74,1*%
X79000000Y-127027000D03*
D13*
%TO.P,C74,2*%
X79000000Y-125477000D03*
%TD*%
D10*
%TO.C,R15*%
%TO.CFtp,R_0603_1608Metric*%
%TO.CVal,500*%
%TO.CLbN,Resistor_SMD*%
%TO.CMnt,SMD*%
%TO.CRot,0*%
X94391880Y-79604000D03*
D11*
X95871879Y-78874001D02*
X95871879Y-80333999D01*
X92911881Y-80333999D01*
X92911881Y-78874001D01*
X95871879Y-78874001D01*
D12*
%TO.P,R15,1*%
X93566880Y-79604000D03*
D13*
%TO.P,R15,2*%
X95216880Y-79604000D03*
%TD*%
D10*
%TO.C,C2*%
%TO.CFtp,C_0603_1608Metric*%
%TO.CVal,3.19pF*%
%TO.CLbN,Capacitor_SMD*%
%TO.CMnt,SMD*%
%TO.CRot,90*%
X136000000Y-126500000D03*
D11*
X136729999Y-125020001D02*
X136729999Y-127979999D01*
X135270001Y-127979999D01*
X135270001Y-125020001D01*
X136729999Y-125020001D01*
D12*
%TO.P,C2,1*%
X136000000Y-127275000D03*
D13*
%TO.P,C2,2*%
X136000000Y-125725000D03*
%TD*%
D10*
%TO.C,J21*%
%TO.CFtp,PinHeader_1x02_P2.54mm_Vertical*%
%TO.CVal,61300211121*%
%TO.CLbN,Connector_PinHeader_2.54mm*%
%TO.CMnt,TH*%
%TO.CRot,-90*%
X119380000Y-59690000D03*
D11*
X121179999Y-57890001D02*
X121179999Y-61489999D01*
X115030001Y-61489999D01*
X115030001Y-57890001D01*
X121179999Y-57890001D01*
D12*
%TO.P,J21,1,Pin_1*%
X119380000Y-59690000D03*
D13*
%TO.P,J21,2,Pin_2*%
X116840000Y-59690000D03*
%TD*%
D10*
%TO.C,R7*%
%TO.CFtp,R_0603_1608Metric*%
%TO.CVal,50*%
%TO.CLbN,Resistor_SMD*%
%TO.CMnt,SMD*%
%TO.CRot,90*%
X139000000Y-99000000D03*
D11*
X139729999Y-97520001D02*
X139729999Y-100479999D01*
X138270001Y-100479999D01*
X138270001Y-97520001D01*
X139729999Y-97520001D01*
D12*
%TO.P,R7,1*%
X139000000Y-99825000D03*
D13*
%TO.P,R7,2*%
X139000000Y-98175000D03*
%TD*%
D10*
%TO.C,R2*%
%TO.CFtp,R_0603_1608Metric*%
%TO.CVal,50*%
%TO.CLbN,Resistor_SMD*%
%TO.CMnt,SMD*%
%TO.CRot,90*%
X139000000Y-126500000D03*
D11*
X139729999Y-125020001D02*
X139729999Y-127979999D01*
X138270001Y-127979999D01*
X138270001Y-125020001D01*
X139729999Y-125020001D01*
D12*
%TO.P,R2,1*%
X139000000Y-127325000D03*
D13*
%TO.P,R2,2*%
X139000000Y-125675000D03*
%TD*%
D10*
%TO.C,C14*%
%TO.CFtp,C_0603_1608Metric*%
%TO.CVal,1n*%
%TO.CLbN,Capacitor_SMD*%
%TO.CMnt,SMD*%
%TO.CRot,0*%
X94825000Y-69700000D03*
D11*
X96304999Y-68970001D02*
X96304999Y-70429999D01*
X93345001Y-70429999D01*
X93345001Y-68970001D01*
X96304999Y-68970001D01*
D12*
%TO.P,C14,1*%
X94050000Y-69700000D03*
D13*
%TO.P,C14,2*%
X95600000Y-69700000D03*
%TD*%
D10*
%TO.C,U2*%
%TO.CFtp,TO-46-3*%
%TO.CVal,LM134H*%
%TO.CLbN,Package_TO_SOT_THT*%
%TO.CMnt,TH*%
%TO.CRot,180*%
X119270000Y-78000000D03*
D11*
X121499999Y-74850001D02*
X121499999Y-81499999D01*
X114850001Y-81499999D01*
X114850001Y-74850001D01*
X121499999Y-74850001D01*
D12*
%TO.P,U2,1,R*%
X119270000Y-78000000D03*
D13*
%TO.P,U2,2,+V*%
X118000000Y-76730000D03*
%TO.P,U2,3,-V*%
X116730000Y-78000000D03*
%TD*%
D10*
%TO.C,C12*%
%TO.CFtp,C_0603_1608Metric*%
%TO.CVal,3.19pF*%
%TO.CLbN,Capacitor_SMD*%
%TO.CMnt,SMD*%
%TO.CRot,-90*%
X76000000Y-130225000D03*
D11*
X76729999Y-128745001D02*
X76729999Y-131704999D01*
X75270001Y-131704999D01*
X75270001Y-128745001D01*
X76729999Y-128745001D01*
D12*
%TO.P,C12,1*%
X76000000Y-129450000D03*
D13*
%TO.P,C12,2*%
X76000000Y-131000000D03*
%TD*%
D10*
%TO.C,C3*%
%TO.CFtp,C_0603_1608Metric*%
%TO.CVal,3.19pF*%
%TO.CLbN,Capacitor_SMD*%
%TO.CMnt,SMD*%
%TO.CRot,-90*%
X136000000Y-117000000D03*
D11*
X136729999Y-115520001D02*
X136729999Y-118479999D01*
X135270001Y-118479999D01*
X135270001Y-115520001D01*
X136729999Y-115520001D01*
D12*
%TO.P,C3,1*%
X136000000Y-116225000D03*
D13*
%TO.P,C3,2*%
X136000000Y-117775000D03*
%TD*%
D10*
%TO.C,C73*%
%TO.CFtp,C_0603_1608Metric*%
%TO.CVal,x*%
%TO.CLbN,Capacitor_SMD*%
%TO.CMnt,SMD*%
%TO.CRot,90*%
X79000000Y-113000000D03*
D11*
X79729999Y-111520001D02*
X79729999Y-114479999D01*
X78270001Y-114479999D01*
X78270001Y-111520001D01*
X79729999Y-111520001D01*
D12*
%TO.P,C73,1*%
X79000000Y-113775000D03*
D13*
%TO.P,C73,2*%
X79000000Y-112225000D03*
%TD*%
D10*
%TO.C,J3*%
%TO.CFtp,banana_plug_CT3151V1-0*%
%TO.CVal,CT3151V1-2*%
%TO.CLbN,0_726_footprints*%
%TO.CMnt,TH*%
%TO.CRot,0*%
X80000000Y-158000000D03*
D11*
X89372599Y-151015001D02*
X89372599Y-164984999D01*
X75402601Y-164984999D01*
X75402601Y-151015001D01*
X89372599Y-151015001D01*
D12*
%TO.P,J3,1,1*%
X80000000Y-158000000D03*
D13*
%TO.P,J3,2,2*%
X84775200Y-158000000D03*
%TO.P,J3,3,3*%
X82387600Y-155612400D03*
%TO.P,J3,4,4*%
X82387600Y-160387600D03*
%TD*%
D10*
%TO.C,J20*%
%TO.CFtp,CONN_RF2-04A-T-00-50-G_ADM*%
%TO.CVal,SMA_RF2-04A-T-00-50-G*%
%TO.CLbN,0_726_footprints*%
%TO.CMnt,TH*%
%TO.CRot,0*%
X52000000Y-88000000D03*
D11*
X55632199Y-84367801D02*
X55632199Y-91632199D01*
X48367801Y-91632199D01*
X48367801Y-84367801D01*
X55632199Y-84367801D01*
D12*
%TO.P,J20,1*%
X52000000Y-88000000D03*
D13*
%TO.P,J20,2*%
X49447300Y-85447300D03*
%TO.P,J20,3,Ext*%
X49447300Y-90552700D03*
%TO.P,J20,4,Ext*%
X54552700Y-90552700D03*
%TO.P,J20,5,Ext*%
X54552700Y-85447300D03*
%TD*%
D10*
%TO.C,J9*%
%TO.CFtp,CONN_RF2-04A-T-00-50-G_ADM*%
%TO.CVal,SMA_RF2-04A-T-00-50-G*%
%TO.CLbN,0_726_footprints*%
%TO.CMnt,TH*%
%TO.CRot,0*%
X145000000Y-101000000D03*
D11*
X148632199Y-97367801D02*
X148632199Y-104632199D01*
X141367801Y-104632199D01*
X141367801Y-97367801D01*
X148632199Y-97367801D01*
D12*
%TO.P,J9,1*%
X145000000Y-101000000D03*
D13*
%TO.P,J9,2*%
X142447300Y-98447300D03*
%TO.P,J9,3,Ext*%
X142447300Y-103552700D03*
%TO.P,J9,4,Ext*%
X147552700Y-103552700D03*
%TO.P,J9,5,Ext*%
X147552700Y-98447300D03*
%TD*%
D10*
%TO.C,C22*%
%TO.CFtp,C_0603_1608Metric*%
%TO.CVal,0.1u*%
%TO.CLbN,Capacitor_SMD*%
%TO.CMnt,SMD*%
%TO.CRot,180*%
X75000000Y-148500000D03*
D11*
X76479999Y-147770001D02*
X76479999Y-149229999D01*
X73520001Y-149229999D01*
X73520001Y-147770001D01*
X76479999Y-147770001D01*
D12*
%TO.P,C22,1*%
X75775000Y-148500000D03*
D13*
%TO.P,C22,2*%
X74225000Y-148500000D03*
%TD*%
D10*
%TO.C,C24*%
%TO.CFtp,C_0603_1608Metric*%
%TO.CVal,10u*%
%TO.CLbN,Capacitor_SMD*%
%TO.CMnt,SMD*%
%TO.CRot,-90*%
X60000000Y-76500000D03*
D11*
X60729999Y-75020001D02*
X60729999Y-77979999D01*
X59270001Y-77979999D01*
X59270001Y-75020001D01*
X60729999Y-75020001D01*
D12*
%TO.P,C24,1*%
X60000000Y-75725000D03*
D13*
%TO.P,C24,2*%
X60000000Y-77275000D03*
%TD*%
D10*
%TO.C,R4*%
%TO.CFtp,R_0603_1608Metric*%
%TO.CVal,50*%
%TO.CLbN,Resistor_SMD*%
%TO.CMnt,SMD*%
%TO.CRot,90*%
X139000000Y-113000000D03*
D11*
X139729999Y-111520001D02*
X139729999Y-114479999D01*
X138270001Y-114479999D01*
X138270001Y-111520001D01*
X139729999Y-111520001D01*
D12*
%TO.P,R4,1*%
X139000000Y-113825000D03*
D13*
%TO.P,R4,2*%
X139000000Y-112175000D03*
%TD*%
D15*
X159000000Y-45000000D02*
G75*
G02*
X167000000Y-53000000I0J-8000000D01*
G01*
X159000000Y-169000000D02*
X51000000Y-169000000D01*
X51000000Y-169000000D02*
G75*
G02*
X43000000Y-161000000I0J8000000D01*
G01*
X167000000Y-161000000D02*
G75*
G02*
X159000000Y-169000000I-8000000J0D01*
G01*
X43000000Y-161000000D02*
X43000000Y-53000000D01*
X51000000Y-45000000D02*
X159000000Y-45000000D01*
X167000000Y-53000000D02*
X167000000Y-161000000D01*
X43000000Y-53000000D02*
G75*
G02*
X51000000Y-45000000I8000000J0D01*
G01*
M02*
