%TF.GenerationSoftware,KiCad,Pcbnew,8.0.5*%
%TF.CreationDate,2024-11-19T12:56:19-05:00*%
%TF.ProjectId,huxley-rounded,6875786c-6579-42d7-926f-756e6465642e,rev?*%
%TF.SameCoordinates,Original*%
%TF.FileFunction,Component,L4,Bot*%
%TF.FilePolarity,Positive*%
%FSLAX46Y46*%
G04 Gerber Fmt 4.6, Leading zero omitted, Abs format (unit mm)*
G04 Created by KiCad (PCBNEW 8.0.5) date 2024-11-19 12:56:19*
%MOMM*%
%LPD*%
G01*
G04 APERTURE LIST*
%TA.AperFunction,ComponentMain*%
%ADD10C,0.300000*%
%TD*%
%TA.AperFunction,ComponentOutline,Courtyard*%
%ADD11C,0.100000*%
%TD*%
%TA.AperFunction,ComponentPin*%
%ADD12P,0.360000X4X0.000000*%
%TD*%
%TA.AperFunction,ComponentPin*%
%ADD13C,0.100000*%
%TD*%
%TA.AperFunction,Profile*%
%ADD14C,0.100000*%
%TD*%
G04 APERTURE END LIST*
D10*
%TO.C,C63*%
%TO.CFtp,C_0603_1608Metric*%
%TO.CVal,10p*%
%TO.CLbN,Capacitor_SMD*%
%TO.CMnt,SMD*%
%TO.CRot,0*%
X99500000Y-93500000D03*
D11*
X100979999Y-92770001D02*
X100979999Y-94229999D01*
X98020001Y-94229999D01*
X98020001Y-92770001D01*
X100979999Y-92770001D01*
D12*
%TO.P,C63,1*%
X100275000Y-93500000D03*
D13*
%TO.P,C63,2*%
X98725000Y-93500000D03*
%TD*%
D10*
%TO.C,C61*%
%TO.CFtp,C_0603_1608Metric*%
%TO.CVal,1n*%
%TO.CLbN,Capacitor_SMD*%
%TO.CMnt,SMD*%
%TO.CRot,0*%
X99500000Y-90500000D03*
D11*
X100979999Y-89770001D02*
X100979999Y-91229999D01*
X98020001Y-91229999D01*
X98020001Y-89770001D01*
X100979999Y-89770001D01*
D12*
%TO.P,C61,1*%
X100275000Y-90500000D03*
D13*
%TO.P,C61,2*%
X98725000Y-90500000D03*
%TD*%
D10*
%TO.C,C55*%
%TO.CFtp,C_0603_1608Metric*%
%TO.CVal,10p*%
%TO.CLbN,Capacitor_SMD*%
%TO.CMnt,SMD*%
%TO.CRot,180*%
X125750000Y-116000000D03*
D11*
X127229999Y-115270001D02*
X127229999Y-116729999D01*
X124270001Y-116729999D01*
X124270001Y-115270001D01*
X127229999Y-115270001D01*
D12*
%TO.P,C55,1*%
X124975000Y-116000000D03*
D13*
%TO.P,C55,2*%
X126525000Y-116000000D03*
%TD*%
D10*
%TO.C,C60*%
%TO.CFtp,C_0603_1608Metric*%
%TO.CVal,1n*%
%TO.CLbN,Capacitor_SMD*%
%TO.CMnt,SMD*%
%TO.CRot,0*%
X99500000Y-89000000D03*
D11*
X100979999Y-88270001D02*
X100979999Y-89729999D01*
X98020001Y-89729999D01*
X98020001Y-88270001D01*
X100979999Y-88270001D01*
D12*
%TO.P,C60,1*%
X100275000Y-89000000D03*
D13*
%TO.P,C60,2*%
X98725000Y-89000000D03*
%TD*%
D10*
%TO.C,C47*%
%TO.CFtp,C_0603_1608Metric*%
%TO.CVal,10p*%
%TO.CLbN,Capacitor_SMD*%
%TO.CMnt,SMD*%
%TO.CRot,180*%
X125950000Y-122150000D03*
D11*
X127429999Y-121420001D02*
X127429999Y-122879999D01*
X124470001Y-122879999D01*
X124470001Y-121420001D01*
X127429999Y-121420001D01*
D12*
%TO.P,C47,1*%
X125175000Y-122150000D03*
D13*
%TO.P,C47,2*%
X126725000Y-122150000D03*
%TD*%
D10*
%TO.C,C62*%
%TO.CFtp,C_0603_1608Metric*%
%TO.CVal,10p*%
%TO.CLbN,Capacitor_SMD*%
%TO.CMnt,SMD*%
%TO.CRot,0*%
X99500000Y-92000000D03*
D11*
X100979999Y-91270001D02*
X100979999Y-92729999D01*
X98020001Y-92729999D01*
X98020001Y-91270001D01*
X100979999Y-91270001D01*
D12*
%TO.P,C62,1*%
X100275000Y-92000000D03*
D13*
%TO.P,C62,2*%
X98725000Y-92000000D03*
%TD*%
D10*
%TO.C,C50*%
%TO.CFtp,C_0603_1608Metric*%
%TO.CVal,10p*%
%TO.CLbN,Capacitor_SMD*%
%TO.CMnt,SMD*%
%TO.CRot,90*%
X99750000Y-138000000D03*
D11*
X100479999Y-136520001D02*
X100479999Y-139479999D01*
X99020001Y-139479999D01*
X99020001Y-136520001D01*
X100479999Y-136520001D01*
D12*
%TO.P,C50,1*%
X99750000Y-137225000D03*
D13*
%TO.P,C50,2*%
X99750000Y-138775000D03*
%TD*%
D10*
%TO.C,C44*%
%TO.CFtp,C_0603_1608Metric*%
%TO.CVal,1n*%
%TO.CLbN,Capacitor_SMD*%
%TO.CMnt,SMD*%
%TO.CRot,0*%
X83225000Y-121250000D03*
D11*
X84704999Y-120520001D02*
X84704999Y-121979999D01*
X81745001Y-121979999D01*
X81745001Y-120520001D01*
X84704999Y-120520001D01*
D12*
%TO.P,C44,1*%
X84000000Y-121250000D03*
D13*
%TO.P,C44,2*%
X82450000Y-121250000D03*
%TD*%
D10*
%TO.C,C45*%
%TO.CFtp,C_0603_1608Metric*%
%TO.CVal,10p*%
%TO.CLbN,Capacitor_SMD*%
%TO.CMnt,SMD*%
%TO.CRot,0*%
X83225000Y-122750000D03*
D11*
X84704999Y-122020001D02*
X84704999Y-123479999D01*
X81745001Y-123479999D01*
X81745001Y-122020001D01*
X84704999Y-122020001D01*
D12*
%TO.P,C45,1*%
X84000000Y-122750000D03*
D13*
%TO.P,C45,2*%
X82450000Y-122750000D03*
%TD*%
D10*
%TO.C,C48*%
%TO.CFtp,C_0603_1608Metric*%
%TO.CVal,1n*%
%TO.CLbN,Capacitor_SMD*%
%TO.CMnt,SMD*%
%TO.CRot,180*%
X125500000Y-130500000D03*
D11*
X126979999Y-129770001D02*
X126979999Y-131229999D01*
X124020001Y-131229999D01*
X124020001Y-129770001D01*
X126979999Y-129770001D01*
D12*
%TO.P,C48,1*%
X124725000Y-130500000D03*
D13*
%TO.P,C48,2*%
X126275000Y-130500000D03*
%TD*%
D10*
%TO.C,C51*%
%TO.CFtp,C_0603_1608Metric*%
%TO.CVal,10p*%
%TO.CLbN,Capacitor_SMD*%
%TO.CMnt,SMD*%
%TO.CRot,90*%
X101250000Y-138000000D03*
D11*
X101979999Y-136520001D02*
X101979999Y-139479999D01*
X100520001Y-139479999D01*
X100520001Y-136520001D01*
X101979999Y-136520001D01*
D12*
%TO.P,C51,1*%
X101250000Y-137225000D03*
D13*
%TO.P,C51,2*%
X101250000Y-138775000D03*
%TD*%
D10*
%TO.C,C53*%
%TO.CFtp,C_0603_1608Metric*%
%TO.CVal,1n*%
%TO.CLbN,Capacitor_SMD*%
%TO.CMnt,SMD*%
%TO.CRot,0*%
X83250000Y-119000000D03*
D11*
X84729999Y-118270001D02*
X84729999Y-119729999D01*
X81770001Y-119729999D01*
X81770001Y-118270001D01*
X84729999Y-118270001D01*
D12*
%TO.P,C53,1*%
X84025000Y-119000000D03*
D13*
%TO.P,C53,2*%
X82475000Y-119000000D03*
%TD*%
D10*
%TO.C,C49*%
%TO.CFtp,C_0603_1608Metric*%
%TO.CVal,1n*%
%TO.CLbN,Capacitor_SMD*%
%TO.CMnt,SMD*%
%TO.CRot,180*%
X125500000Y-129000000D03*
D11*
X126979999Y-128270001D02*
X126979999Y-129729999D01*
X124020001Y-129729999D01*
X124020001Y-128270001D01*
X126979999Y-128270001D01*
D12*
%TO.P,C49,1*%
X124725000Y-129000000D03*
D13*
%TO.P,C49,2*%
X126275000Y-129000000D03*
%TD*%
D10*
%TO.C,C54*%
%TO.CFtp,C_0603_1608Metric*%
%TO.CVal,10p*%
%TO.CLbN,Capacitor_SMD*%
%TO.CMnt,SMD*%
%TO.CRot,180*%
X125750000Y-117500000D03*
D11*
X127229999Y-116770001D02*
X127229999Y-118229999D01*
X124270001Y-118229999D01*
X124270001Y-116770001D01*
X127229999Y-116770001D01*
D12*
%TO.P,C54,1*%
X124975000Y-117500000D03*
D13*
%TO.P,C54,2*%
X126525000Y-117500000D03*
%TD*%
D10*
%TO.C,C52*%
%TO.CFtp,C_0603_1608Metric*%
%TO.CVal,1n*%
%TO.CLbN,Capacitor_SMD*%
%TO.CMnt,SMD*%
%TO.CRot,-90*%
X98500000Y-96000000D03*
D11*
X99229999Y-94520001D02*
X99229999Y-97479999D01*
X97770001Y-97479999D01*
X97770001Y-94520001D01*
X99229999Y-94520001D01*
D12*
%TO.P,C52,1*%
X98500000Y-96775000D03*
D13*
%TO.P,C52,2*%
X98500000Y-95225000D03*
%TD*%
D10*
%TO.C,C46*%
%TO.CFtp,C_0603_1608Metric*%
%TO.CVal,1n*%
%TO.CLbN,Capacitor_SMD*%
%TO.CMnt,SMD*%
%TO.CRot,180*%
X125950000Y-123650000D03*
D11*
X127429999Y-122920001D02*
X127429999Y-124379999D01*
X124470001Y-124379999D01*
X124470001Y-122920001D01*
X127429999Y-122920001D01*
D12*
%TO.P,C46,1*%
X125175000Y-123650000D03*
D13*
%TO.P,C46,2*%
X126725000Y-123650000D03*
%TD*%
D14*
X159000000Y-45000000D02*
G75*
G02*
X167000000Y-53000000I0J-8000000D01*
G01*
X159000000Y-169000000D02*
X51000000Y-169000000D01*
X51000000Y-169000000D02*
G75*
G02*
X43000000Y-161000000I0J8000000D01*
G01*
X167000000Y-161000000D02*
G75*
G02*
X159000000Y-169000000I-8000000J0D01*
G01*
X43000000Y-161000000D02*
X43000000Y-53000000D01*
X51000000Y-45000000D02*
X159000000Y-45000000D01*
X167000000Y-53000000D02*
X167000000Y-161000000D01*
X43000000Y-53000000D02*
G75*
G02*
X51000000Y-45000000I8000000J0D01*
G01*
M02*
