%TF.GenerationSoftware,KiCad,Pcbnew,8.0.5*%
%TF.CreationDate,2024-11-07T20:20:23-05:00*%
%TF.ProjectId,huxley-rounded,6875786c-6579-42d7-926f-756e6465642e,rev?*%
%TF.SameCoordinates,Original*%
%TF.FileFunction,Drillmap*%
%TF.FilePolarity,Positive*%
%FSLAX45Y45*%
G04 Gerber Fmt 4.5, Leading zero omitted, Abs format (unit mm)*
G04 Created by KiCad (PCBNEW 8.0.5) date 2024-11-07 20:20:23*
%MOMM*%
%LPD*%
G01*
G04 APERTURE LIST*
%ADD10C,0.100000*%
%ADD11C,0.200000*%
%ADD12C,0.139700*%
%ADD13C,0.149860*%
%ADD14C,0.170180*%
%ADD15C,0.320000*%
G04 APERTURE END LIST*
D10*
X15900000Y-4500000D02*
G75*
G02*
X16700000Y-5300000I0J-800000D01*
G01*
X15900000Y-16900000D02*
X5100000Y-16900000D01*
X5100000Y-16900000D02*
G75*
G02*
X4300000Y-16100000I0J800000D01*
G01*
X16700000Y-16100000D02*
G75*
G02*
X15900000Y-16900000I-800000J0D01*
G01*
X4300000Y-16100000D02*
X4300000Y-5300000D01*
X5100000Y-4500000D02*
X15900000Y-4500000D01*
X16700000Y-5300000D02*
X16700000Y-16100000D01*
X4300000Y-5300000D02*
G75*
G02*
X5100000Y-4500000I800000J0D01*
G01*
D11*
D10*
X4897300Y-9837300D02*
X4922700Y-9862700D01*
X4922700Y-9837300D02*
X4897300Y-9862700D01*
X5987300Y-7472300D02*
X6012700Y-7497700D01*
X6012700Y-7472300D02*
X5987300Y-7497700D01*
X5987300Y-7807300D02*
X6012700Y-7832700D01*
X6012700Y-7807300D02*
X5987300Y-7832700D01*
X6137300Y-7472300D02*
X6162700Y-7497700D01*
X6162700Y-7472300D02*
X6137300Y-7497700D01*
X6137300Y-7807300D02*
X6162700Y-7832700D01*
X6162700Y-7807300D02*
X6137300Y-7832700D01*
X6287300Y-7472300D02*
X6312700Y-7497700D01*
X6312700Y-7472300D02*
X6287300Y-7497700D01*
X6287300Y-7807300D02*
X6312700Y-7832700D01*
X6312700Y-7807300D02*
X6287300Y-7832700D01*
X6437300Y-7472300D02*
X6462700Y-7497700D01*
X6462700Y-7472300D02*
X6437300Y-7497700D01*
X6437300Y-7807300D02*
X6462700Y-7832700D01*
X6462700Y-7807300D02*
X6437300Y-7832700D01*
X7287300Y-9819800D02*
X7312700Y-9845200D01*
X7312700Y-9819800D02*
X7287300Y-9845200D01*
X7287300Y-10557300D02*
X7312700Y-10582700D01*
X7312700Y-10557300D02*
X7287300Y-10582700D01*
X7287300Y-11117300D02*
X7312700Y-11142700D01*
X7312700Y-11117300D02*
X7287300Y-11142700D01*
X7287300Y-11862300D02*
X7312700Y-11887700D01*
X7312700Y-11862300D02*
X7287300Y-11887700D01*
X7287300Y-12439600D02*
X7312700Y-12465000D01*
X7312700Y-12439600D02*
X7287300Y-12465000D01*
X7287300Y-13182300D02*
X7312700Y-13207700D01*
X7312700Y-13182300D02*
X7287300Y-13207700D01*
X7312300Y-14987300D02*
X7337700Y-15012700D01*
X7337700Y-14987300D02*
X7312300Y-15012700D01*
X7317300Y-14536300D02*
X7342700Y-14561700D01*
X7342700Y-14536300D02*
X7317300Y-14561700D01*
X7317300Y-14687300D02*
X7342700Y-14712700D01*
X7342700Y-14687300D02*
X7317300Y-14712700D01*
X7317300Y-14837300D02*
X7342700Y-14862700D01*
X7342700Y-14837300D02*
X7317300Y-14862700D01*
X7537300Y-6217300D02*
X7562700Y-6242700D01*
X7562700Y-6217300D02*
X7537300Y-6242700D01*
X7537300Y-6557300D02*
X7562700Y-6582700D01*
X7562700Y-6557300D02*
X7537300Y-6582700D01*
X7587300Y-9822300D02*
X7612700Y-9847700D01*
X7612700Y-9822300D02*
X7587300Y-9847700D01*
X7587300Y-10552300D02*
X7612700Y-10577700D01*
X7612700Y-10552300D02*
X7587300Y-10577700D01*
X7587300Y-11122300D02*
X7612700Y-11147700D01*
X7612700Y-11122300D02*
X7587300Y-11147700D01*
X7587300Y-11857300D02*
X7612700Y-11882700D01*
X7612700Y-11857300D02*
X7587300Y-11882700D01*
X7587300Y-12444600D02*
X7612700Y-12470000D01*
X7612700Y-12444600D02*
X7587300Y-12470000D01*
X7587300Y-13177300D02*
X7612700Y-13202700D01*
X7612700Y-13177300D02*
X7587300Y-13202700D01*
X7652300Y-14987300D02*
X7677700Y-15012700D01*
X7677700Y-14987300D02*
X7652300Y-15012700D01*
X7657300Y-14536300D02*
X7682700Y-14561700D01*
X7682700Y-14536300D02*
X7657300Y-14561700D01*
X7657300Y-14687300D02*
X7682700Y-14712700D01*
X7682700Y-14687300D02*
X7657300Y-14712700D01*
X7657300Y-14837300D02*
X7682700Y-14862700D01*
X7682700Y-14837300D02*
X7657300Y-14862700D01*
X7687300Y-6217300D02*
X7712700Y-6242700D01*
X7712700Y-6217300D02*
X7687300Y-6242700D01*
X7687300Y-6557300D02*
X7712700Y-6582700D01*
X7712700Y-6557300D02*
X7687300Y-6582700D01*
X7837300Y-6217300D02*
X7862700Y-6242700D01*
X7862700Y-6217300D02*
X7837300Y-6242700D01*
X7837300Y-6557300D02*
X7862700Y-6582700D01*
X7862700Y-6557300D02*
X7837300Y-6582700D01*
X7887300Y-9822300D02*
X7912700Y-9847700D01*
X7912700Y-9822300D02*
X7887300Y-9847700D01*
X7887300Y-10552300D02*
X7912700Y-10577700D01*
X7912700Y-10552300D02*
X7887300Y-10577700D01*
X7887300Y-11122300D02*
X7912700Y-11147700D01*
X7912700Y-11122300D02*
X7887300Y-11147700D01*
X7887300Y-11857300D02*
X7912700Y-11882700D01*
X7912700Y-11857300D02*
X7887300Y-11882700D01*
X7887300Y-12447300D02*
X7912700Y-12472700D01*
X7912700Y-12447300D02*
X7887300Y-12472700D01*
X7887300Y-13177300D02*
X7912700Y-13202700D01*
X7912700Y-13177300D02*
X7887300Y-13202700D01*
X7987300Y-6217300D02*
X8012700Y-6242700D01*
X8012700Y-6217300D02*
X7987300Y-6242700D01*
X7987300Y-6557300D02*
X8012700Y-6582700D01*
X8012700Y-6557300D02*
X7987300Y-6582700D01*
X8127300Y-12112300D02*
X8152700Y-12137700D01*
X8152700Y-12112300D02*
X8127300Y-12137700D01*
X8127300Y-12262300D02*
X8152700Y-12287700D01*
X8152700Y-12262300D02*
X8127300Y-12287700D01*
X8129800Y-11887300D02*
X8155200Y-11912700D01*
X8155200Y-11887300D02*
X8129800Y-11912700D01*
X8477300Y-12112300D02*
X8502700Y-12137700D01*
X8502700Y-12112300D02*
X8477300Y-12137700D01*
X8477300Y-12262300D02*
X8502700Y-12287700D01*
X8502700Y-12262300D02*
X8477300Y-12287700D01*
X8479800Y-11887300D02*
X8505200Y-11912700D01*
X8505200Y-11887300D02*
X8479800Y-11912700D01*
X8717300Y-6312300D02*
X8742700Y-6337700D01*
X8742700Y-6312300D02*
X8717300Y-6337700D01*
X8717300Y-6462300D02*
X8742700Y-6487700D01*
X8742700Y-6462300D02*
X8717300Y-6487700D01*
X8717300Y-6612300D02*
X8742700Y-6637700D01*
X8742700Y-6612300D02*
X8717300Y-6637700D01*
X8717300Y-6762300D02*
X8742700Y-6787700D01*
X8742700Y-6762300D02*
X8717300Y-6787700D01*
X9057300Y-6312300D02*
X9082700Y-6337700D01*
X9082700Y-6312300D02*
X9057300Y-6337700D01*
X9057300Y-6462300D02*
X9082700Y-6487700D01*
X9082700Y-6462300D02*
X9057300Y-6487700D01*
X9057300Y-6612300D02*
X9082700Y-6637700D01*
X9082700Y-6612300D02*
X9057300Y-6637700D01*
X9057300Y-6762300D02*
X9082700Y-6787700D01*
X9082700Y-6762300D02*
X9057300Y-6787700D01*
X9387300Y-6707300D02*
X9412700Y-6732700D01*
X9412700Y-6707300D02*
X9387300Y-6732700D01*
X9455260Y-7810860D02*
X9480660Y-7836260D01*
X9480660Y-7810860D02*
X9455260Y-7836260D01*
X9616500Y-7947700D02*
X9641900Y-7973100D01*
X9641900Y-7947700D02*
X9616500Y-7973100D01*
X9637300Y-6807300D02*
X9662700Y-6832700D01*
X9662700Y-6807300D02*
X9637300Y-6832700D01*
X9637300Y-6957300D02*
X9662700Y-6982700D01*
X9662700Y-6957300D02*
X9637300Y-6982700D01*
X9637300Y-7107300D02*
X9662700Y-7132700D01*
X9662700Y-7107300D02*
X9637300Y-7132700D01*
X9665100Y-7258700D02*
X9690500Y-7284100D01*
X9690500Y-7258700D02*
X9665100Y-7284100D01*
X9762300Y-9437300D02*
X9787700Y-9462700D01*
X9787700Y-9437300D02*
X9762300Y-9462700D01*
X9767300Y-8887300D02*
X9792700Y-8912700D01*
X9792700Y-8887300D02*
X9767300Y-8912700D01*
X9767300Y-9037300D02*
X9792700Y-9062700D01*
X9792700Y-9037300D02*
X9767300Y-9062700D01*
X9767300Y-9187300D02*
X9792700Y-9212700D01*
X9792700Y-9187300D02*
X9767300Y-9212700D01*
X9767300Y-9337300D02*
X9792700Y-9362700D01*
X9792700Y-9337300D02*
X9767300Y-9362700D01*
X9832300Y-9757300D02*
X9857700Y-9782700D01*
X9857700Y-9757300D02*
X9832300Y-9782700D01*
X9962300Y-13617300D02*
X9987700Y-13642700D01*
X9987700Y-13617300D02*
X9962300Y-13642700D01*
X9962300Y-13957300D02*
X9987700Y-13982700D01*
X9987700Y-13957300D02*
X9962300Y-13982700D01*
X10112300Y-13617300D02*
X10137700Y-13642700D01*
X10137700Y-13617300D02*
X10112300Y-13642700D01*
X10112300Y-13957300D02*
X10137700Y-13982700D01*
X10137700Y-13957300D02*
X10112300Y-13982700D01*
X10329800Y-14187300D02*
X10355200Y-14212700D01*
X10355200Y-14187300D02*
X10329800Y-14212700D01*
X10347300Y-6787300D02*
X10372700Y-6812700D01*
X10372700Y-6787300D02*
X10347300Y-6812700D01*
X10367300Y-6247300D02*
X10392700Y-6272700D01*
X10392700Y-6247300D02*
X10367300Y-6272700D01*
X10472300Y-7027800D02*
X10497700Y-7053200D01*
X10497700Y-7027800D02*
X10472300Y-7053200D01*
X10472300Y-7187800D02*
X10497700Y-7213200D01*
X10497700Y-7187800D02*
X10472300Y-7213200D01*
X10487300Y-5097300D02*
X10512700Y-5122700D01*
X10512700Y-5097300D02*
X10487300Y-5122700D01*
X10650220Y-6098540D02*
X10675620Y-6123940D01*
X10675620Y-6098540D02*
X10650220Y-6123940D01*
X10821640Y-14962300D02*
X10847040Y-14987700D01*
X10847040Y-14962300D02*
X10821640Y-14987700D01*
X10827300Y-7187300D02*
X10852700Y-7212700D01*
X10852700Y-7187300D02*
X10827300Y-7212700D01*
X10837300Y-14062300D02*
X10862700Y-14087700D01*
X10862700Y-14062300D02*
X10837300Y-14087700D01*
X10936600Y-14627025D02*
X10962000Y-14652425D01*
X10962000Y-14627025D02*
X10936600Y-14652425D01*
X10997300Y-6127300D02*
X11022700Y-6152700D01*
X11022700Y-6127300D02*
X10997300Y-6152700D01*
X11007300Y-6927300D02*
X11032700Y-6952700D01*
X11032700Y-6927300D02*
X11007300Y-6952700D01*
X11127300Y-6337300D02*
X11152700Y-6362700D01*
X11152700Y-6337300D02*
X11127300Y-6362700D01*
X11127300Y-6718300D02*
X11152700Y-6743700D01*
X11152700Y-6718300D02*
X11127300Y-6743700D01*
X11207300Y-5837300D02*
X11232700Y-5862700D01*
X11232700Y-5837300D02*
X11207300Y-5862700D01*
X11207800Y-7202300D02*
X11233200Y-7227700D01*
X11233200Y-7202300D02*
X11207800Y-7227700D01*
X12367300Y-12827300D02*
X12392700Y-12852700D01*
X12392700Y-12827300D02*
X12367300Y-12852700D01*
X12367300Y-13062300D02*
X12392700Y-13087700D01*
X12392700Y-13062300D02*
X12367300Y-13087700D01*
X12392300Y-11587300D02*
X12417700Y-11612700D01*
X12417700Y-11587300D02*
X12392300Y-11612700D01*
X12392300Y-11737300D02*
X12417700Y-11762700D01*
X12417700Y-11737300D02*
X12392300Y-11762700D01*
X12417300Y-12202300D02*
X12442700Y-12227700D01*
X12442700Y-12202300D02*
X12417300Y-12227700D01*
X12417300Y-12352300D02*
X12442700Y-12377700D01*
X12442700Y-12352300D02*
X12417300Y-12377700D01*
X12702300Y-12887300D02*
X12727700Y-12912700D01*
X12727700Y-12887300D02*
X12702300Y-12912700D01*
X12702300Y-13037300D02*
X12727700Y-13062700D01*
X12727700Y-13037300D02*
X12702300Y-13062700D01*
X12727300Y-11587300D02*
X12752700Y-11612700D01*
X12752700Y-11587300D02*
X12727300Y-11612700D01*
X12727300Y-11737300D02*
X12752700Y-11762700D01*
X12752700Y-11737300D02*
X12727300Y-11762700D01*
X12747300Y-12202300D02*
X12772700Y-12227700D01*
X12772700Y-12202300D02*
X12747300Y-12227700D01*
X12747300Y-12352300D02*
X12772700Y-12377700D01*
X12772700Y-12352300D02*
X12747300Y-12377700D01*
X13231420Y-6339629D02*
X13256820Y-6365029D01*
X13256820Y-6339629D02*
X13231420Y-6365029D01*
X13232180Y-6718113D02*
X13257580Y-6743513D01*
X13257580Y-6718113D02*
X13232180Y-6743513D01*
X13236800Y-7099300D02*
X13262200Y-7124700D01*
X13262200Y-7099300D02*
X13236800Y-7124700D01*
X13237300Y-5957300D02*
X13262700Y-5982700D01*
X13262700Y-5957300D02*
X13237300Y-5982700D01*
X13287300Y-6227300D02*
X13312700Y-6252700D01*
X13312700Y-6227300D02*
X13287300Y-6252700D01*
X13287300Y-6807300D02*
X13312700Y-6832700D01*
X13312700Y-6807300D02*
X13287300Y-6832700D01*
X13287300Y-9722300D02*
X13312700Y-9747700D01*
X13312700Y-9722300D02*
X13287300Y-9747700D01*
X13287300Y-10457300D02*
X13312700Y-10482700D01*
X13312700Y-10457300D02*
X13287300Y-10482700D01*
X13287300Y-11127300D02*
X13312700Y-11152700D01*
X13312700Y-11127300D02*
X13287300Y-11152700D01*
X13287300Y-11852300D02*
X13312700Y-11877700D01*
X13312700Y-11852300D02*
X13287300Y-11877700D01*
X13287300Y-12472300D02*
X13312700Y-12497700D01*
X13312700Y-12472300D02*
X13287300Y-12497700D01*
X13287300Y-13207300D02*
X13312700Y-13232700D01*
X13312700Y-13207300D02*
X13287300Y-13232700D01*
X13367300Y-7012300D02*
X13392700Y-7037700D01*
X13392700Y-7012300D02*
X13367300Y-7037700D01*
X13367300Y-7167300D02*
X13392700Y-7192700D01*
X13392700Y-7167300D02*
X13367300Y-7192700D01*
X13574300Y-6113180D02*
X13599700Y-6138580D01*
X13599700Y-6113180D02*
X13574300Y-6138580D01*
X13583500Y-10459900D02*
X13608900Y-10485300D01*
X13608900Y-10459900D02*
X13583500Y-10485300D01*
X13587300Y-9722300D02*
X13612700Y-9747700D01*
X13612700Y-9722300D02*
X13587300Y-9747700D01*
X13587300Y-11127300D02*
X13612700Y-11152700D01*
X13612700Y-11127300D02*
X13587300Y-11152700D01*
X13587300Y-11852300D02*
X13612700Y-11877700D01*
X13612700Y-11852300D02*
X13587300Y-11877700D01*
X13587300Y-12472300D02*
X13612700Y-12497700D01*
X13612700Y-12472300D02*
X13587300Y-12497700D01*
X13587300Y-13207300D02*
X13612700Y-13232700D01*
X13612700Y-13207300D02*
X13587300Y-13232700D01*
X13607300Y-7277300D02*
X13632700Y-7302700D01*
X13632700Y-7277300D02*
X13607300Y-7302700D01*
X13887300Y-9717300D02*
X13912700Y-9742700D01*
X13912700Y-9717300D02*
X13887300Y-9742700D01*
X13887300Y-10462300D02*
X13912700Y-10487700D01*
X13912700Y-10462300D02*
X13887300Y-10487700D01*
X13887300Y-11122300D02*
X13912700Y-11147700D01*
X13912700Y-11122300D02*
X13887300Y-11147700D01*
X13887300Y-11857300D02*
X13912700Y-11882700D01*
X13912700Y-11857300D02*
X13887300Y-11882700D01*
X13887300Y-12467300D02*
X13912700Y-12492700D01*
X13912700Y-12467300D02*
X13887300Y-12492700D01*
X13887300Y-13212300D02*
X13912700Y-13237700D01*
X13912700Y-13212300D02*
X13887300Y-13237700D01*
X14097300Y-6407300D02*
X14122700Y-6432700D01*
X14122700Y-6407300D02*
X14097300Y-6432700D01*
X14117300Y-6667300D02*
X14142700Y-6692700D01*
X14142700Y-6667300D02*
X14117300Y-6692700D01*
X14157300Y-6497300D02*
X14182700Y-6522700D01*
X14182700Y-6497300D02*
X14157300Y-6522700D01*
X14157300Y-6587300D02*
X14182700Y-6612700D01*
X14182700Y-6587300D02*
X14157300Y-6612700D01*
X14287300Y-14617300D02*
X14312700Y-14642700D01*
X14312700Y-14617300D02*
X14287300Y-14642700D01*
X14287300Y-14952300D02*
X14312700Y-14977700D01*
X14312700Y-14952300D02*
X14287300Y-14977700D01*
X14437300Y-7517300D02*
X14462700Y-7542700D01*
X14462700Y-7517300D02*
X14437300Y-7542700D01*
X14437300Y-7857300D02*
X14462700Y-7882700D01*
X14462700Y-7857300D02*
X14437300Y-7882700D01*
X14437300Y-14617300D02*
X14462700Y-14642700D01*
X14462700Y-14617300D02*
X14437300Y-14642700D01*
X14437300Y-14952300D02*
X14462700Y-14977700D01*
X14462700Y-14952300D02*
X14437300Y-14977700D01*
X14587300Y-7517300D02*
X14612700Y-7542700D01*
X14612700Y-7517300D02*
X14587300Y-7542700D01*
X14587300Y-7857300D02*
X14612700Y-7882700D01*
X14612700Y-7857300D02*
X14587300Y-7882700D01*
X14587300Y-14617300D02*
X14612700Y-14642700D01*
X14612700Y-14617300D02*
X14587300Y-14642700D01*
X14587300Y-14952300D02*
X14612700Y-14977700D01*
X14612700Y-14952300D02*
X14587300Y-14977700D01*
X14737300Y-7517300D02*
X14762700Y-7542700D01*
X14762700Y-7517300D02*
X14737300Y-7542700D01*
X14737300Y-7857300D02*
X14762700Y-7882700D01*
X14762700Y-7857300D02*
X14737300Y-7882700D01*
X14737300Y-14617300D02*
X14762700Y-14642700D01*
X14762700Y-14617300D02*
X14737300Y-14642700D01*
X14737300Y-14952300D02*
X14762700Y-14977700D01*
X14762700Y-14952300D02*
X14737300Y-14977700D01*
X14887300Y-7517300D02*
X14912700Y-7542700D01*
X14912700Y-7517300D02*
X14887300Y-7542700D01*
X14887300Y-7857300D02*
X14912700Y-7882700D01*
X14912700Y-7857300D02*
X14887300Y-7882700D01*
X15187300Y-16097300D02*
X15212700Y-16122700D01*
X15212700Y-16097300D02*
X15187300Y-16122700D01*
X15652300Y-10077300D02*
X15677700Y-10102700D01*
X15677700Y-10077300D02*
X15652300Y-10102700D01*
X11708000Y-7800000D02*
G75*
G02*
X11638000Y-7800000I-35000J0D01*
G01*
X11638000Y-7800000D02*
G75*
G02*
X11708000Y-7800000I35000J0D01*
G01*
X11835000Y-7673000D02*
G75*
G02*
X11765000Y-7673000I-35000J0D01*
G01*
X11765000Y-7673000D02*
G75*
G02*
X11835000Y-7673000I35000J0D01*
G01*
X11962000Y-7800000D02*
G75*
G02*
X11892000Y-7800000I-35000J0D01*
G01*
X11892000Y-7800000D02*
G75*
G02*
X11962000Y-7800000I35000J0D01*
G01*
X8712200Y-9865360D02*
X8712200Y-9946640D01*
X8671560Y-9906000D02*
X8752840Y-9906000D01*
X8712200Y-10119360D02*
X8712200Y-10200640D01*
X8671560Y-10160000D02*
X8752840Y-10160000D01*
X8712200Y-10373360D02*
X8712200Y-10454640D01*
X8671560Y-10414000D02*
X8752840Y-10414000D01*
X8712200Y-10627360D02*
X8712200Y-10708640D01*
X8671560Y-10668000D02*
X8752840Y-10668000D01*
X8712200Y-10881360D02*
X8712200Y-10962640D01*
X8671560Y-10922000D02*
X8752840Y-10922000D01*
X8712200Y-11135360D02*
X8712200Y-11216640D01*
X8671560Y-11176000D02*
X8752840Y-11176000D01*
X8712200Y-11389360D02*
X8712200Y-11470640D01*
X8671560Y-11430000D02*
X8752840Y-11430000D01*
X8712200Y-11643360D02*
X8712200Y-11724640D01*
X8671560Y-11684000D02*
X8752840Y-11684000D01*
X8712200Y-11897360D02*
X8712200Y-11978640D01*
X8671560Y-11938000D02*
X8752840Y-11938000D01*
X8712200Y-12151360D02*
X8712200Y-12232640D01*
X8671560Y-12192000D02*
X8752840Y-12192000D01*
X8712200Y-12405360D02*
X8712200Y-12486640D01*
X8671560Y-12446000D02*
X8752840Y-12446000D01*
X8712200Y-12659360D02*
X8712200Y-12740640D01*
X8671560Y-12700000D02*
X8752840Y-12700000D01*
X8712200Y-12913360D02*
X8712200Y-12994640D01*
X8671560Y-12954000D02*
X8752840Y-12954000D01*
X8712200Y-13167360D02*
X8712200Y-13248640D01*
X8671560Y-13208000D02*
X8752840Y-13208000D01*
X8712200Y-13421360D02*
X8712200Y-13502640D01*
X8671560Y-13462000D02*
X8752840Y-13462000D01*
X8966200Y-9865360D02*
X8966200Y-9946640D01*
X8925560Y-9906000D02*
X9006840Y-9906000D01*
X8966200Y-10119360D02*
X8966200Y-10200640D01*
X8925560Y-10160000D02*
X9006840Y-10160000D01*
X8966200Y-10373360D02*
X8966200Y-10454640D01*
X8925560Y-10414000D02*
X9006840Y-10414000D01*
X8966200Y-10627360D02*
X8966200Y-10708640D01*
X8925560Y-10668000D02*
X9006840Y-10668000D01*
X8966200Y-10881360D02*
X8966200Y-10962640D01*
X8925560Y-10922000D02*
X9006840Y-10922000D01*
X8966200Y-11135360D02*
X8966200Y-11216640D01*
X8925560Y-11176000D02*
X9006840Y-11176000D01*
X8966200Y-11389360D02*
X8966200Y-11470640D01*
X8925560Y-11430000D02*
X9006840Y-11430000D01*
X8966200Y-11643360D02*
X8966200Y-11724640D01*
X8925560Y-11684000D02*
X9006840Y-11684000D01*
X8966200Y-11897360D02*
X8966200Y-11978640D01*
X8925560Y-11938000D02*
X9006840Y-11938000D01*
X8966200Y-12151360D02*
X8966200Y-12232640D01*
X8925560Y-12192000D02*
X9006840Y-12192000D01*
X8966200Y-12405360D02*
X8966200Y-12486640D01*
X8925560Y-12446000D02*
X9006840Y-12446000D01*
X8966200Y-12659360D02*
X8966200Y-12740640D01*
X8925560Y-12700000D02*
X9006840Y-12700000D01*
X8966200Y-12913360D02*
X8966200Y-12994640D01*
X8925560Y-12954000D02*
X9006840Y-12954000D01*
X8966200Y-13167360D02*
X8966200Y-13248640D01*
X8925560Y-13208000D02*
X9006840Y-13208000D01*
X8966200Y-13421360D02*
X8966200Y-13502640D01*
X8925560Y-13462000D02*
X9006840Y-13462000D01*
X9220200Y-9865360D02*
X9220200Y-9946640D01*
X9179560Y-9906000D02*
X9260840Y-9906000D01*
X9220200Y-10119360D02*
X9220200Y-10200640D01*
X9179560Y-10160000D02*
X9260840Y-10160000D01*
X9220200Y-10373360D02*
X9220200Y-10454640D01*
X9179560Y-10414000D02*
X9260840Y-10414000D01*
X9220200Y-10627360D02*
X9220200Y-10708640D01*
X9179560Y-10668000D02*
X9260840Y-10668000D01*
X9220200Y-10881360D02*
X9220200Y-10962640D01*
X9179560Y-10922000D02*
X9260840Y-10922000D01*
X9220200Y-11135360D02*
X9220200Y-11216640D01*
X9179560Y-11176000D02*
X9260840Y-11176000D01*
X9220200Y-11389360D02*
X9220200Y-11470640D01*
X9179560Y-11430000D02*
X9260840Y-11430000D01*
X9220200Y-11643360D02*
X9220200Y-11724640D01*
X9179560Y-11684000D02*
X9260840Y-11684000D01*
X9220200Y-11897360D02*
X9220200Y-11978640D01*
X9179560Y-11938000D02*
X9260840Y-11938000D01*
X9220200Y-12151360D02*
X9220200Y-12232640D01*
X9179560Y-12192000D02*
X9260840Y-12192000D01*
X9220200Y-12405360D02*
X9220200Y-12486640D01*
X9179560Y-12446000D02*
X9260840Y-12446000D01*
X9220200Y-12659360D02*
X9220200Y-12740640D01*
X9179560Y-12700000D02*
X9260840Y-12700000D01*
X9220200Y-12913360D02*
X9220200Y-12994640D01*
X9179560Y-12954000D02*
X9260840Y-12954000D01*
X9220200Y-13167360D02*
X9220200Y-13248640D01*
X9179560Y-13208000D02*
X9260840Y-13208000D01*
X9220200Y-13421360D02*
X9220200Y-13502640D01*
X9179560Y-13462000D02*
X9260840Y-13462000D01*
X9474200Y-9865360D02*
X9474200Y-9946640D01*
X9433560Y-9906000D02*
X9514840Y-9906000D01*
X9474200Y-10119360D02*
X9474200Y-10200640D01*
X9433560Y-10160000D02*
X9514840Y-10160000D01*
X9474200Y-10373360D02*
X9474200Y-10454640D01*
X9433560Y-10414000D02*
X9514840Y-10414000D01*
X9474200Y-10627360D02*
X9474200Y-10708640D01*
X9433560Y-10668000D02*
X9514840Y-10668000D01*
X9474200Y-10881360D02*
X9474200Y-10962640D01*
X9433560Y-10922000D02*
X9514840Y-10922000D01*
X9474200Y-11135360D02*
X9474200Y-11216640D01*
X9433560Y-11176000D02*
X9514840Y-11176000D01*
X9474200Y-11389360D02*
X9474200Y-11470640D01*
X9433560Y-11430000D02*
X9514840Y-11430000D01*
X9474200Y-11643360D02*
X9474200Y-11724640D01*
X9433560Y-11684000D02*
X9514840Y-11684000D01*
X9474200Y-11897360D02*
X9474200Y-11978640D01*
X9433560Y-11938000D02*
X9514840Y-11938000D01*
X9474200Y-12151360D02*
X9474200Y-12232640D01*
X9433560Y-12192000D02*
X9514840Y-12192000D01*
X9474200Y-12405360D02*
X9474200Y-12486640D01*
X9433560Y-12446000D02*
X9514840Y-12446000D01*
X9474200Y-12659360D02*
X9474200Y-12740640D01*
X9433560Y-12700000D02*
X9514840Y-12700000D01*
X9474200Y-12913360D02*
X9474200Y-12994640D01*
X9433560Y-12954000D02*
X9514840Y-12954000D01*
X9474200Y-13167360D02*
X9474200Y-13248640D01*
X9433560Y-13208000D02*
X9514840Y-13208000D01*
X9474200Y-13421360D02*
X9474200Y-13502640D01*
X9433560Y-13462000D02*
X9514840Y-13462000D01*
X9728200Y-9865360D02*
X9728200Y-9946640D01*
X9687560Y-9906000D02*
X9768840Y-9906000D01*
X9728200Y-10119360D02*
X9728200Y-10200640D01*
X9687560Y-10160000D02*
X9768840Y-10160000D01*
X9728200Y-10373360D02*
X9728200Y-10454640D01*
X9687560Y-10414000D02*
X9768840Y-10414000D01*
X9728200Y-10627360D02*
X9728200Y-10708640D01*
X9687560Y-10668000D02*
X9768840Y-10668000D01*
X9728200Y-10881360D02*
X9728200Y-10962640D01*
X9687560Y-10922000D02*
X9768840Y-10922000D01*
X9728200Y-11135360D02*
X9728200Y-11216640D01*
X9687560Y-11176000D02*
X9768840Y-11176000D01*
X9728200Y-11389360D02*
X9728200Y-11470640D01*
X9687560Y-11430000D02*
X9768840Y-11430000D01*
X9728200Y-11643360D02*
X9728200Y-11724640D01*
X9687560Y-11684000D02*
X9768840Y-11684000D01*
X9728200Y-11897360D02*
X9728200Y-11978640D01*
X9687560Y-11938000D02*
X9768840Y-11938000D01*
X9728200Y-12151360D02*
X9728200Y-12232640D01*
X9687560Y-12192000D02*
X9768840Y-12192000D01*
X9728200Y-12405360D02*
X9728200Y-12486640D01*
X9687560Y-12446000D02*
X9768840Y-12446000D01*
X9728200Y-12659360D02*
X9728200Y-12740640D01*
X9687560Y-12700000D02*
X9768840Y-12700000D01*
X9728200Y-12913360D02*
X9728200Y-12994640D01*
X9687560Y-12954000D02*
X9768840Y-12954000D01*
X9728200Y-13167360D02*
X9728200Y-13248640D01*
X9687560Y-13208000D02*
X9768840Y-13208000D01*
X9728200Y-13421360D02*
X9728200Y-13502640D01*
X9687560Y-13462000D02*
X9768840Y-13462000D01*
X9982200Y-9865360D02*
X9982200Y-9946640D01*
X9941560Y-9906000D02*
X10022840Y-9906000D01*
X9982200Y-10119360D02*
X9982200Y-10200640D01*
X9941560Y-10160000D02*
X10022840Y-10160000D01*
X9982200Y-10373360D02*
X9982200Y-10454640D01*
X9941560Y-10414000D02*
X10022840Y-10414000D01*
X9982200Y-10627360D02*
X9982200Y-10708640D01*
X9941560Y-10668000D02*
X10022840Y-10668000D01*
X9982200Y-10881360D02*
X9982200Y-10962640D01*
X9941560Y-10922000D02*
X10022840Y-10922000D01*
X9982200Y-11135360D02*
X9982200Y-11216640D01*
X9941560Y-11176000D02*
X10022840Y-11176000D01*
X9982200Y-11389360D02*
X9982200Y-11470640D01*
X9941560Y-11430000D02*
X10022840Y-11430000D01*
X9982200Y-11643360D02*
X9982200Y-11724640D01*
X9941560Y-11684000D02*
X10022840Y-11684000D01*
X9982200Y-11897360D02*
X9982200Y-11978640D01*
X9941560Y-11938000D02*
X10022840Y-11938000D01*
X9982200Y-12151360D02*
X9982200Y-12232640D01*
X9941560Y-12192000D02*
X10022840Y-12192000D01*
X9982200Y-12405360D02*
X9982200Y-12486640D01*
X9941560Y-12446000D02*
X10022840Y-12446000D01*
X9982200Y-12659360D02*
X9982200Y-12740640D01*
X9941560Y-12700000D02*
X10022840Y-12700000D01*
X9982200Y-12913360D02*
X9982200Y-12994640D01*
X9941560Y-12954000D02*
X10022840Y-12954000D01*
X9982200Y-13167360D02*
X9982200Y-13248640D01*
X9941560Y-13208000D02*
X10022840Y-13208000D01*
X9982200Y-13421360D02*
X9982200Y-13502640D01*
X9941560Y-13462000D02*
X10022840Y-13462000D01*
X10236200Y-9865360D02*
X10236200Y-9946640D01*
X10195560Y-9906000D02*
X10276840Y-9906000D01*
X10236200Y-10119360D02*
X10236200Y-10200640D01*
X10195560Y-10160000D02*
X10276840Y-10160000D01*
X10236200Y-10373360D02*
X10236200Y-10454640D01*
X10195560Y-10414000D02*
X10276840Y-10414000D01*
X10236200Y-10627360D02*
X10236200Y-10708640D01*
X10195560Y-10668000D02*
X10276840Y-10668000D01*
X10236200Y-10881360D02*
X10236200Y-10962640D01*
X10195560Y-10922000D02*
X10276840Y-10922000D01*
X10236200Y-11135360D02*
X10236200Y-11216640D01*
X10195560Y-11176000D02*
X10276840Y-11176000D01*
X10236200Y-11389360D02*
X10236200Y-11470640D01*
X10195560Y-11430000D02*
X10276840Y-11430000D01*
X10236200Y-11643360D02*
X10236200Y-11724640D01*
X10195560Y-11684000D02*
X10276840Y-11684000D01*
X10236200Y-11897360D02*
X10236200Y-11978640D01*
X10195560Y-11938000D02*
X10276840Y-11938000D01*
X10236200Y-12151360D02*
X10236200Y-12232640D01*
X10195560Y-12192000D02*
X10276840Y-12192000D01*
X10236200Y-12405360D02*
X10236200Y-12486640D01*
X10195560Y-12446000D02*
X10276840Y-12446000D01*
X10236200Y-12659360D02*
X10236200Y-12740640D01*
X10195560Y-12700000D02*
X10276840Y-12700000D01*
X10236200Y-12913360D02*
X10236200Y-12994640D01*
X10195560Y-12954000D02*
X10276840Y-12954000D01*
X10236200Y-13167360D02*
X10236200Y-13248640D01*
X10195560Y-13208000D02*
X10276840Y-13208000D01*
X10236200Y-13421360D02*
X10236200Y-13502640D01*
X10195560Y-13462000D02*
X10276840Y-13462000D01*
X10490200Y-9865360D02*
X10490200Y-9946640D01*
X10449560Y-9906000D02*
X10530840Y-9906000D01*
X10490200Y-10119360D02*
X10490200Y-10200640D01*
X10449560Y-10160000D02*
X10530840Y-10160000D01*
X10490200Y-10373360D02*
X10490200Y-10454640D01*
X10449560Y-10414000D02*
X10530840Y-10414000D01*
X10490200Y-10627360D02*
X10490200Y-10708640D01*
X10449560Y-10668000D02*
X10530840Y-10668000D01*
X10490200Y-10881360D02*
X10490200Y-10962640D01*
X10449560Y-10922000D02*
X10530840Y-10922000D01*
X10490200Y-11135360D02*
X10490200Y-11216640D01*
X10449560Y-11176000D02*
X10530840Y-11176000D01*
X10490200Y-11389360D02*
X10490200Y-11470640D01*
X10449560Y-11430000D02*
X10530840Y-11430000D01*
X10490200Y-11643360D02*
X10490200Y-11724640D01*
X10449560Y-11684000D02*
X10530840Y-11684000D01*
X10490200Y-11897360D02*
X10490200Y-11978640D01*
X10449560Y-11938000D02*
X10530840Y-11938000D01*
X10490200Y-12151360D02*
X10490200Y-12232640D01*
X10449560Y-12192000D02*
X10530840Y-12192000D01*
X10490200Y-12405360D02*
X10490200Y-12486640D01*
X10449560Y-12446000D02*
X10530840Y-12446000D01*
X10490200Y-12659360D02*
X10490200Y-12740640D01*
X10449560Y-12700000D02*
X10530840Y-12700000D01*
X10490200Y-12913360D02*
X10490200Y-12994640D01*
X10449560Y-12954000D02*
X10530840Y-12954000D01*
X10490200Y-13167360D02*
X10490200Y-13248640D01*
X10449560Y-13208000D02*
X10530840Y-13208000D01*
X10490200Y-13421360D02*
X10490200Y-13502640D01*
X10449560Y-13462000D02*
X10530840Y-13462000D01*
X10744200Y-9865360D02*
X10744200Y-9946640D01*
X10703560Y-9906000D02*
X10784840Y-9906000D01*
X10744200Y-10119360D02*
X10744200Y-10200640D01*
X10703560Y-10160000D02*
X10784840Y-10160000D01*
X10744200Y-10373360D02*
X10744200Y-10454640D01*
X10703560Y-10414000D02*
X10784840Y-10414000D01*
X10744200Y-10627360D02*
X10744200Y-10708640D01*
X10703560Y-10668000D02*
X10784840Y-10668000D01*
X10744200Y-10881360D02*
X10744200Y-10962640D01*
X10703560Y-10922000D02*
X10784840Y-10922000D01*
X10744200Y-11135360D02*
X10744200Y-11216640D01*
X10703560Y-11176000D02*
X10784840Y-11176000D01*
X10744200Y-11389360D02*
X10744200Y-11470640D01*
X10703560Y-11430000D02*
X10784840Y-11430000D01*
X10744200Y-11643360D02*
X10744200Y-11724640D01*
X10703560Y-11684000D02*
X10784840Y-11684000D01*
X10744200Y-11897360D02*
X10744200Y-11978640D01*
X10703560Y-11938000D02*
X10784840Y-11938000D01*
X10744200Y-12151360D02*
X10744200Y-12232640D01*
X10703560Y-12192000D02*
X10784840Y-12192000D01*
X10744200Y-12405360D02*
X10744200Y-12486640D01*
X10703560Y-12446000D02*
X10784840Y-12446000D01*
X10744200Y-12659360D02*
X10744200Y-12740640D01*
X10703560Y-12700000D02*
X10784840Y-12700000D01*
X10744200Y-12913360D02*
X10744200Y-12994640D01*
X10703560Y-12954000D02*
X10784840Y-12954000D01*
X10744200Y-13167360D02*
X10744200Y-13248640D01*
X10703560Y-13208000D02*
X10784840Y-13208000D01*
X10744200Y-13421360D02*
X10744200Y-13502640D01*
X10703560Y-13462000D02*
X10784840Y-13462000D01*
X10998200Y-9865360D02*
X10998200Y-9946640D01*
X10957560Y-9906000D02*
X11038840Y-9906000D01*
X10998200Y-10119360D02*
X10998200Y-10200640D01*
X10957560Y-10160000D02*
X11038840Y-10160000D01*
X10998200Y-10373360D02*
X10998200Y-10454640D01*
X10957560Y-10414000D02*
X11038840Y-10414000D01*
X10998200Y-10627360D02*
X10998200Y-10708640D01*
X10957560Y-10668000D02*
X11038840Y-10668000D01*
X10998200Y-10881360D02*
X10998200Y-10962640D01*
X10957560Y-10922000D02*
X11038840Y-10922000D01*
X10998200Y-11135360D02*
X10998200Y-11216640D01*
X10957560Y-11176000D02*
X11038840Y-11176000D01*
X10998200Y-11389360D02*
X10998200Y-11470640D01*
X10957560Y-11430000D02*
X11038840Y-11430000D01*
X10998200Y-11643360D02*
X10998200Y-11724640D01*
X10957560Y-11684000D02*
X11038840Y-11684000D01*
X10998200Y-11897360D02*
X10998200Y-11978640D01*
X10957560Y-11938000D02*
X11038840Y-11938000D01*
X10998200Y-12151360D02*
X10998200Y-12232640D01*
X10957560Y-12192000D02*
X11038840Y-12192000D01*
X10998200Y-12405360D02*
X10998200Y-12486640D01*
X10957560Y-12446000D02*
X11038840Y-12446000D01*
X10998200Y-12659360D02*
X10998200Y-12740640D01*
X10957560Y-12700000D02*
X11038840Y-12700000D01*
X10998200Y-12913360D02*
X10998200Y-12994640D01*
X10957560Y-12954000D02*
X11038840Y-12954000D01*
X10998200Y-13167360D02*
X10998200Y-13248640D01*
X10957560Y-13208000D02*
X11038840Y-13208000D01*
X10998200Y-13421360D02*
X10998200Y-13502640D01*
X10957560Y-13462000D02*
X11038840Y-13462000D01*
X11252200Y-9865360D02*
X11252200Y-9946640D01*
X11211560Y-9906000D02*
X11292840Y-9906000D01*
X11252200Y-10119360D02*
X11252200Y-10200640D01*
X11211560Y-10160000D02*
X11292840Y-10160000D01*
X11252200Y-10373360D02*
X11252200Y-10454640D01*
X11211560Y-10414000D02*
X11292840Y-10414000D01*
X11252200Y-10627360D02*
X11252200Y-10708640D01*
X11211560Y-10668000D02*
X11292840Y-10668000D01*
X11252200Y-10881360D02*
X11252200Y-10962640D01*
X11211560Y-10922000D02*
X11292840Y-10922000D01*
X11252200Y-11135360D02*
X11252200Y-11216640D01*
X11211560Y-11176000D02*
X11292840Y-11176000D01*
X11252200Y-11389360D02*
X11252200Y-11470640D01*
X11211560Y-11430000D02*
X11292840Y-11430000D01*
X11252200Y-11643360D02*
X11252200Y-11724640D01*
X11211560Y-11684000D02*
X11292840Y-11684000D01*
X11252200Y-11897360D02*
X11252200Y-11978640D01*
X11211560Y-11938000D02*
X11292840Y-11938000D01*
X11252200Y-12151360D02*
X11252200Y-12232640D01*
X11211560Y-12192000D02*
X11292840Y-12192000D01*
X11252200Y-12405360D02*
X11252200Y-12486640D01*
X11211560Y-12446000D02*
X11292840Y-12446000D01*
X11252200Y-12659360D02*
X11252200Y-12740640D01*
X11211560Y-12700000D02*
X11292840Y-12700000D01*
X11252200Y-12913360D02*
X11252200Y-12994640D01*
X11211560Y-12954000D02*
X11292840Y-12954000D01*
X11252200Y-13167360D02*
X11252200Y-13248640D01*
X11211560Y-13208000D02*
X11292840Y-13208000D01*
X11252200Y-13421360D02*
X11252200Y-13502640D01*
X11211560Y-13462000D02*
X11292840Y-13462000D01*
X11506200Y-9865360D02*
X11506200Y-9946640D01*
X11465560Y-9906000D02*
X11546840Y-9906000D01*
X11506200Y-10119360D02*
X11506200Y-10200640D01*
X11465560Y-10160000D02*
X11546840Y-10160000D01*
X11506200Y-10373360D02*
X11506200Y-10454640D01*
X11465560Y-10414000D02*
X11546840Y-10414000D01*
X11506200Y-10627360D02*
X11506200Y-10708640D01*
X11465560Y-10668000D02*
X11546840Y-10668000D01*
X11506200Y-10881360D02*
X11506200Y-10962640D01*
X11465560Y-10922000D02*
X11546840Y-10922000D01*
X11506200Y-11135360D02*
X11506200Y-11216640D01*
X11465560Y-11176000D02*
X11546840Y-11176000D01*
X11506200Y-11389360D02*
X11506200Y-11470640D01*
X11465560Y-11430000D02*
X11546840Y-11430000D01*
X11506200Y-11643360D02*
X11506200Y-11724640D01*
X11465560Y-11684000D02*
X11546840Y-11684000D01*
X11506200Y-11897360D02*
X11506200Y-11978640D01*
X11465560Y-11938000D02*
X11546840Y-11938000D01*
X11506200Y-12151360D02*
X11506200Y-12232640D01*
X11465560Y-12192000D02*
X11546840Y-12192000D01*
X11506200Y-12405360D02*
X11506200Y-12486640D01*
X11465560Y-12446000D02*
X11546840Y-12446000D01*
X11506200Y-12659360D02*
X11506200Y-12740640D01*
X11465560Y-12700000D02*
X11546840Y-12700000D01*
X11506200Y-12913360D02*
X11506200Y-12994640D01*
X11465560Y-12954000D02*
X11546840Y-12954000D01*
X11506200Y-13167360D02*
X11506200Y-13248640D01*
X11465560Y-13208000D02*
X11546840Y-13208000D01*
X11506200Y-13421360D02*
X11506200Y-13502640D01*
X11465560Y-13462000D02*
X11546840Y-13462000D01*
X11760200Y-9865360D02*
X11760200Y-9946640D01*
X11719560Y-9906000D02*
X11800840Y-9906000D01*
X11760200Y-10119360D02*
X11760200Y-10200640D01*
X11719560Y-10160000D02*
X11800840Y-10160000D01*
X11760200Y-10373360D02*
X11760200Y-10454640D01*
X11719560Y-10414000D02*
X11800840Y-10414000D01*
X11760200Y-10627360D02*
X11760200Y-10708640D01*
X11719560Y-10668000D02*
X11800840Y-10668000D01*
X11760200Y-10881360D02*
X11760200Y-10962640D01*
X11719560Y-10922000D02*
X11800840Y-10922000D01*
X11760200Y-11135360D02*
X11760200Y-11216640D01*
X11719560Y-11176000D02*
X11800840Y-11176000D01*
X11760200Y-11389360D02*
X11760200Y-11470640D01*
X11719560Y-11430000D02*
X11800840Y-11430000D01*
X11760200Y-11643360D02*
X11760200Y-11724640D01*
X11719560Y-11684000D02*
X11800840Y-11684000D01*
X11760200Y-11897360D02*
X11760200Y-11978640D01*
X11719560Y-11938000D02*
X11800840Y-11938000D01*
X11760200Y-12151360D02*
X11760200Y-12232640D01*
X11719560Y-12192000D02*
X11800840Y-12192000D01*
X11760200Y-12405360D02*
X11760200Y-12486640D01*
X11719560Y-12446000D02*
X11800840Y-12446000D01*
X11760200Y-12659360D02*
X11760200Y-12740640D01*
X11719560Y-12700000D02*
X11800840Y-12700000D01*
X11760200Y-12913360D02*
X11760200Y-12994640D01*
X11719560Y-12954000D02*
X11800840Y-12954000D01*
X11760200Y-13167360D02*
X11760200Y-13248640D01*
X11719560Y-13208000D02*
X11800840Y-13208000D01*
X11760200Y-13421360D02*
X11760200Y-13502640D01*
X11719560Y-13462000D02*
X11800840Y-13462000D01*
X12014200Y-9865360D02*
X12014200Y-9946640D01*
X11973560Y-9906000D02*
X12054840Y-9906000D01*
X12014200Y-10119360D02*
X12014200Y-10200640D01*
X11973560Y-10160000D02*
X12054840Y-10160000D01*
X12014200Y-10373360D02*
X12014200Y-10454640D01*
X11973560Y-10414000D02*
X12054840Y-10414000D01*
X12014200Y-10627360D02*
X12014200Y-10708640D01*
X11973560Y-10668000D02*
X12054840Y-10668000D01*
X12014200Y-10881360D02*
X12014200Y-10962640D01*
X11973560Y-10922000D02*
X12054840Y-10922000D01*
X12014200Y-11135360D02*
X12014200Y-11216640D01*
X11973560Y-11176000D02*
X12054840Y-11176000D01*
X12014200Y-11389360D02*
X12014200Y-11470640D01*
X11973560Y-11430000D02*
X12054840Y-11430000D01*
X12014200Y-11643360D02*
X12014200Y-11724640D01*
X11973560Y-11684000D02*
X12054840Y-11684000D01*
X12014200Y-11897360D02*
X12014200Y-11978640D01*
X11973560Y-11938000D02*
X12054840Y-11938000D01*
X12014200Y-12151360D02*
X12014200Y-12232640D01*
X11973560Y-12192000D02*
X12054840Y-12192000D01*
X12014200Y-12405360D02*
X12014200Y-12486640D01*
X11973560Y-12446000D02*
X12054840Y-12446000D01*
X12014200Y-12659360D02*
X12014200Y-12740640D01*
X11973560Y-12700000D02*
X12054840Y-12700000D01*
X12014200Y-12913360D02*
X12014200Y-12994640D01*
X11973560Y-12954000D02*
X12054840Y-12954000D01*
X12014200Y-13167360D02*
X12014200Y-13248640D01*
X11973560Y-13208000D02*
X12054840Y-13208000D01*
X12014200Y-13421360D02*
X12014200Y-13502640D01*
X11973560Y-13462000D02*
X12054840Y-13462000D01*
X12268200Y-9865360D02*
X12268200Y-9946640D01*
X12227560Y-9906000D02*
X12308840Y-9906000D01*
X12268200Y-10119360D02*
X12268200Y-10200640D01*
X12227560Y-10160000D02*
X12308840Y-10160000D01*
X12268200Y-10373360D02*
X12268200Y-10454640D01*
X12227560Y-10414000D02*
X12308840Y-10414000D01*
X12268200Y-10627360D02*
X12268200Y-10708640D01*
X12227560Y-10668000D02*
X12308840Y-10668000D01*
X12268200Y-10881360D02*
X12268200Y-10962640D01*
X12227560Y-10922000D02*
X12308840Y-10922000D01*
X12268200Y-11135360D02*
X12268200Y-11216640D01*
X12227560Y-11176000D02*
X12308840Y-11176000D01*
X12268200Y-11389360D02*
X12268200Y-11470640D01*
X12227560Y-11430000D02*
X12308840Y-11430000D01*
X12268200Y-11643360D02*
X12268200Y-11724640D01*
X12227560Y-11684000D02*
X12308840Y-11684000D01*
X12268200Y-11897360D02*
X12268200Y-11978640D01*
X12227560Y-11938000D02*
X12308840Y-11938000D01*
X12268200Y-12151360D02*
X12268200Y-12232640D01*
X12227560Y-12192000D02*
X12308840Y-12192000D01*
X12268200Y-12405360D02*
X12268200Y-12486640D01*
X12227560Y-12446000D02*
X12308840Y-12446000D01*
X12268200Y-12659360D02*
X12268200Y-12740640D01*
X12227560Y-12700000D02*
X12308840Y-12700000D01*
X12268200Y-12913360D02*
X12268200Y-12994640D01*
X12227560Y-12954000D02*
X12308840Y-12954000D01*
X12268200Y-13167360D02*
X12268200Y-13248640D01*
X12227560Y-13208000D02*
X12308840Y-13208000D01*
X12268200Y-13421360D02*
X12268200Y-13502640D01*
X12227560Y-13462000D02*
X12308840Y-13462000D01*
X10191431Y-7867331D02*
X10191431Y-7804469D01*
X10128569Y-7804469D01*
X10128569Y-7867331D01*
X10191431Y-7867331D01*
X11207431Y-7867331D02*
X11207431Y-7804469D01*
X11144569Y-7804469D01*
X11144569Y-7867331D01*
X11207431Y-7867331D01*
X8000000Y-6995000D02*
X8050000Y-6945000D01*
X8000000Y-6895000D01*
X7950000Y-6945000D01*
X8000000Y-6995000D01*
X8000000Y-7249000D02*
X8050000Y-7199000D01*
X8000000Y-7149000D01*
X7950000Y-7199000D01*
X8000000Y-7249000D01*
X8000000Y-7503000D02*
X8050000Y-7453000D01*
X8000000Y-7403000D01*
X7950000Y-7453000D01*
X8000000Y-7503000D01*
X10984000Y-15650000D02*
X11034000Y-15600000D01*
X10984000Y-15550000D01*
X10934000Y-15600000D01*
X10984000Y-15650000D01*
X10984000Y-15904000D02*
X11034000Y-15854000D01*
X10984000Y-15804000D01*
X10934000Y-15854000D01*
X10984000Y-15904000D01*
X11238000Y-15650000D02*
X11288000Y-15600000D01*
X11238000Y-15550000D01*
X11188000Y-15600000D01*
X11238000Y-15650000D01*
X11238000Y-15904000D02*
X11288000Y-15854000D01*
X11238000Y-15804000D01*
X11188000Y-15854000D01*
X11238000Y-15904000D01*
X11492000Y-15650000D02*
X11542000Y-15600000D01*
X11492000Y-15550000D01*
X11442000Y-15600000D01*
X11492000Y-15650000D01*
X11492000Y-15904000D02*
X11542000Y-15854000D01*
X11492000Y-15804000D01*
X11442000Y-15854000D01*
X11492000Y-15904000D01*
X11684000Y-6019000D02*
X11734000Y-5969000D01*
X11684000Y-5919000D01*
X11634000Y-5969000D01*
X11684000Y-6019000D01*
X11684000Y-6400000D02*
X11734000Y-6350000D01*
X11684000Y-6300000D01*
X11634000Y-6350000D01*
X11684000Y-6400000D01*
X11684000Y-6781000D02*
X11734000Y-6731000D01*
X11684000Y-6681000D01*
X11634000Y-6731000D01*
X11684000Y-6781000D01*
X11684000Y-7162000D02*
X11734000Y-7112000D01*
X11684000Y-7062000D01*
X11634000Y-7112000D01*
X11684000Y-7162000D01*
X11746000Y-15650000D02*
X11796000Y-15600000D01*
X11746000Y-15550000D01*
X11696000Y-15600000D01*
X11746000Y-15650000D01*
X11746000Y-15904000D02*
X11796000Y-15854000D01*
X11746000Y-15804000D01*
X11696000Y-15854000D01*
X11746000Y-15904000D01*
X11938000Y-6019000D02*
X11988000Y-5969000D01*
X11938000Y-5919000D01*
X11888000Y-5969000D01*
X11938000Y-6019000D01*
X11938000Y-6400000D02*
X11988000Y-6350000D01*
X11938000Y-6300000D01*
X11888000Y-6350000D01*
X11938000Y-6400000D01*
X11938000Y-6781000D02*
X11988000Y-6731000D01*
X11938000Y-6681000D01*
X11888000Y-6731000D01*
X11938000Y-6781000D01*
X11938000Y-7162000D02*
X11988000Y-7112000D01*
X11938000Y-7062000D01*
X11888000Y-7112000D01*
X11938000Y-7162000D01*
X12000000Y-15650000D02*
X12050000Y-15600000D01*
X12000000Y-15550000D01*
X11950000Y-15600000D01*
X12000000Y-15650000D01*
X12000000Y-15904000D02*
X12050000Y-15854000D01*
X12000000Y-15804000D01*
X11950000Y-15854000D01*
X12000000Y-15904000D01*
X12254000Y-15650000D02*
X12304000Y-15600000D01*
X12254000Y-15550000D01*
X12204000Y-15600000D01*
X12254000Y-15650000D01*
X12254000Y-15904000D02*
X12304000Y-15854000D01*
X12254000Y-15804000D01*
X12204000Y-15854000D01*
X12254000Y-15904000D01*
X12446000Y-6019000D02*
X12496000Y-5969000D01*
X12446000Y-5919000D01*
X12396000Y-5969000D01*
X12446000Y-6019000D01*
X12446000Y-6400000D02*
X12496000Y-6350000D01*
X12446000Y-6300000D01*
X12396000Y-6350000D01*
X12446000Y-6400000D01*
X12446000Y-6781000D02*
X12496000Y-6731000D01*
X12446000Y-6681000D01*
X12396000Y-6731000D01*
X12446000Y-6781000D01*
X12446000Y-7162000D02*
X12496000Y-7112000D01*
X12446000Y-7062000D01*
X12396000Y-7112000D01*
X12446000Y-7162000D01*
X12508000Y-15650000D02*
X12558000Y-15600000D01*
X12508000Y-15550000D01*
X12458000Y-15600000D01*
X12508000Y-15650000D01*
X12508000Y-15904000D02*
X12558000Y-15854000D01*
X12508000Y-15804000D01*
X12458000Y-15854000D01*
X12508000Y-15904000D01*
X12700000Y-6019000D02*
X12750000Y-5969000D01*
X12700000Y-5919000D01*
X12650000Y-5969000D01*
X12700000Y-6019000D01*
X12700000Y-6400000D02*
X12750000Y-6350000D01*
X12700000Y-6300000D01*
X12650000Y-6350000D01*
X12700000Y-6400000D01*
X12700000Y-6781000D02*
X12750000Y-6731000D01*
X12700000Y-6681000D01*
X12650000Y-6731000D01*
X12700000Y-6781000D01*
X12700000Y-7162000D02*
X12750000Y-7112000D01*
X12700000Y-7062000D01*
X12650000Y-7112000D01*
X12700000Y-7162000D01*
X12762000Y-15650000D02*
X12812000Y-15600000D01*
X12762000Y-15550000D01*
X12712000Y-15600000D01*
X12762000Y-15650000D01*
X12762000Y-15904000D02*
X12812000Y-15854000D01*
X12762000Y-15804000D01*
X12712000Y-15854000D01*
X12762000Y-15904000D01*
X13016000Y-15650000D02*
X13066000Y-15600000D01*
X13016000Y-15550000D01*
X12966000Y-15600000D01*
X13016000Y-15650000D01*
X13016000Y-15904000D02*
X13066000Y-15854000D01*
X13016000Y-15804000D01*
X12966000Y-15854000D01*
X13016000Y-15904000D01*
X13270000Y-15650000D02*
X13320000Y-15600000D01*
X13270000Y-15550000D01*
X13220000Y-15600000D01*
X13270000Y-15650000D01*
X13270000Y-15904000D02*
X13320000Y-15854000D01*
X13270000Y-15804000D01*
X13220000Y-15854000D01*
X13270000Y-15904000D01*
X13524000Y-15650000D02*
X13574000Y-15600000D01*
X13524000Y-15550000D01*
X13474000Y-15600000D01*
X13524000Y-15650000D01*
X13524000Y-15904000D02*
X13574000Y-15854000D01*
X13524000Y-15804000D01*
X13474000Y-15854000D01*
X13524000Y-15904000D01*
X13778000Y-15650000D02*
X13828000Y-15600000D01*
X13778000Y-15550000D01*
X13728000Y-15600000D01*
X13778000Y-15650000D01*
X13778000Y-15904000D02*
X13828000Y-15854000D01*
X13778000Y-15804000D01*
X13728000Y-15854000D01*
X13778000Y-15904000D01*
X14032000Y-15650000D02*
X14082000Y-15600000D01*
X14032000Y-15550000D01*
X13982000Y-15600000D01*
X14032000Y-15650000D01*
X14032000Y-15904000D02*
X14082000Y-15854000D01*
X14032000Y-15804000D01*
X13982000Y-15854000D01*
X14032000Y-15904000D01*
X14286000Y-15650000D02*
X14336000Y-15600000D01*
X14286000Y-15550000D01*
X14236000Y-15600000D01*
X14286000Y-15650000D01*
X14286000Y-15904000D02*
X14336000Y-15854000D01*
X14286000Y-15804000D01*
X14236000Y-15854000D01*
X14286000Y-15904000D01*
X14540000Y-15650000D02*
X14590000Y-15600000D01*
X14540000Y-15550000D01*
X14490000Y-15600000D01*
X14540000Y-15650000D01*
X14540000Y-15904000D02*
X14590000Y-15854000D01*
X14540000Y-15804000D01*
X14490000Y-15854000D01*
X14540000Y-15904000D01*
D12*
X4874880Y-8474880D02*
X5014580Y-8614580D01*
X5014580Y-8474880D02*
X4874880Y-8614580D01*
X5014580Y-8544730D02*
G75*
G02*
X4874880Y-8544730I-69850J0D01*
G01*
X4874880Y-8544730D02*
G75*
G02*
X5014580Y-8544730I69850J0D01*
G01*
X4874880Y-8985420D02*
X5014580Y-9125120D01*
X5014580Y-8985420D02*
X4874880Y-9125120D01*
X5014580Y-9055270D02*
G75*
G02*
X4874880Y-9055270I-69850J0D01*
G01*
X4874880Y-9055270D02*
G75*
G02*
X5014580Y-9055270I69850J0D01*
G01*
X5385420Y-8474880D02*
X5525120Y-8614580D01*
X5525120Y-8474880D02*
X5385420Y-8614580D01*
X5525120Y-8544730D02*
G75*
G02*
X5385420Y-8544730I-69850J0D01*
G01*
X5385420Y-8544730D02*
G75*
G02*
X5525120Y-8544730I69850J0D01*
G01*
X5385420Y-8985420D02*
X5525120Y-9125120D01*
X5525120Y-8985420D02*
X5385420Y-9125120D01*
X5525120Y-9055270D02*
G75*
G02*
X5385420Y-9055270I-69850J0D01*
G01*
X5385420Y-9055270D02*
G75*
G02*
X5525120Y-9055270I69850J0D01*
G01*
X6074880Y-9774880D02*
X6214580Y-9914580D01*
X6214580Y-9774880D02*
X6074880Y-9914580D01*
X6214580Y-9844730D02*
G75*
G02*
X6074880Y-9844730I-69850J0D01*
G01*
X6074880Y-9844730D02*
G75*
G02*
X6214580Y-9844730I69850J0D01*
G01*
X6074880Y-10285420D02*
X6214580Y-10425120D01*
X6214580Y-10285420D02*
X6074880Y-10425120D01*
X6214580Y-10355270D02*
G75*
G02*
X6074880Y-10355270I-69850J0D01*
G01*
X6074880Y-10355270D02*
G75*
G02*
X6214580Y-10355270I69850J0D01*
G01*
X6074880Y-11174880D02*
X6214580Y-11314580D01*
X6214580Y-11174880D02*
X6074880Y-11314580D01*
X6214580Y-11244730D02*
G75*
G02*
X6074880Y-11244730I-69850J0D01*
G01*
X6074880Y-11244730D02*
G75*
G02*
X6214580Y-11244730I69850J0D01*
G01*
X6074880Y-11685420D02*
X6214580Y-11825120D01*
X6214580Y-11685420D02*
X6074880Y-11825120D01*
X6214580Y-11755270D02*
G75*
G02*
X6074880Y-11755270I-69850J0D01*
G01*
X6074880Y-11755270D02*
G75*
G02*
X6214580Y-11755270I69850J0D01*
G01*
X6074880Y-12674880D02*
X6214580Y-12814580D01*
X6214580Y-12674880D02*
X6074880Y-12814580D01*
X6214580Y-12744730D02*
G75*
G02*
X6074880Y-12744730I-69850J0D01*
G01*
X6074880Y-12744730D02*
G75*
G02*
X6214580Y-12744730I69850J0D01*
G01*
X6074880Y-13185420D02*
X6214580Y-13325120D01*
X6214580Y-13185420D02*
X6074880Y-13325120D01*
X6214580Y-13255270D02*
G75*
G02*
X6074880Y-13255270I-69850J0D01*
G01*
X6074880Y-13255270D02*
G75*
G02*
X6214580Y-13255270I69850J0D01*
G01*
X6585420Y-9774880D02*
X6725120Y-9914580D01*
X6725120Y-9774880D02*
X6585420Y-9914580D01*
X6725120Y-9844730D02*
G75*
G02*
X6585420Y-9844730I-69850J0D01*
G01*
X6585420Y-9844730D02*
G75*
G02*
X6725120Y-9844730I69850J0D01*
G01*
X6585420Y-10285420D02*
X6725120Y-10425120D01*
X6725120Y-10285420D02*
X6585420Y-10425120D01*
X6725120Y-10355270D02*
G75*
G02*
X6585420Y-10355270I-69850J0D01*
G01*
X6585420Y-10355270D02*
G75*
G02*
X6725120Y-10355270I69850J0D01*
G01*
X6585420Y-11174880D02*
X6725120Y-11314580D01*
X6725120Y-11174880D02*
X6585420Y-11314580D01*
X6725120Y-11244730D02*
G75*
G02*
X6585420Y-11244730I-69850J0D01*
G01*
X6585420Y-11244730D02*
G75*
G02*
X6725120Y-11244730I69850J0D01*
G01*
X6585420Y-11685420D02*
X6725120Y-11825120D01*
X6725120Y-11685420D02*
X6585420Y-11825120D01*
X6725120Y-11755270D02*
G75*
G02*
X6585420Y-11755270I-69850J0D01*
G01*
X6585420Y-11755270D02*
G75*
G02*
X6725120Y-11755270I69850J0D01*
G01*
X6585420Y-12674880D02*
X6725120Y-12814580D01*
X6725120Y-12674880D02*
X6585420Y-12814580D01*
X6725120Y-12744730D02*
G75*
G02*
X6585420Y-12744730I-69850J0D01*
G01*
X6585420Y-12744730D02*
G75*
G02*
X6725120Y-12744730I69850J0D01*
G01*
X6585420Y-13185420D02*
X6725120Y-13325120D01*
X6725120Y-13185420D02*
X6585420Y-13325120D01*
X6725120Y-13255270D02*
G75*
G02*
X6585420Y-13255270I-69850J0D01*
G01*
X6585420Y-13255270D02*
G75*
G02*
X6725120Y-13255270I69850J0D01*
G01*
X6749880Y-6824880D02*
X6889580Y-6964580D01*
X6889580Y-6824880D02*
X6749880Y-6964580D01*
X6889580Y-6894730D02*
G75*
G02*
X6749880Y-6894730I-69850J0D01*
G01*
X6749880Y-6894730D02*
G75*
G02*
X6889580Y-6894730I69850J0D01*
G01*
X6749880Y-7335420D02*
X6889580Y-7475120D01*
X6889580Y-7335420D02*
X6749880Y-7475120D01*
X6889580Y-7405270D02*
G75*
G02*
X6749880Y-7405270I-69850J0D01*
G01*
X6749880Y-7405270D02*
G75*
G02*
X6889580Y-7405270I69850J0D01*
G01*
X6774880Y-8474880D02*
X6914580Y-8614580D01*
X6914580Y-8474880D02*
X6774880Y-8614580D01*
X6914580Y-8544730D02*
G75*
G02*
X6774880Y-8544730I-69850J0D01*
G01*
X6774880Y-8544730D02*
G75*
G02*
X6914580Y-8544730I69850J0D01*
G01*
X6774880Y-8985420D02*
X6914580Y-9125120D01*
X6914580Y-8985420D02*
X6774880Y-9125120D01*
X6914580Y-9055270D02*
G75*
G02*
X6774880Y-9055270I-69850J0D01*
G01*
X6774880Y-9055270D02*
G75*
G02*
X6914580Y-9055270I69850J0D01*
G01*
X7260420Y-6824880D02*
X7400120Y-6964580D01*
X7400120Y-6824880D02*
X7260420Y-6964580D01*
X7400120Y-6894730D02*
G75*
G02*
X7260420Y-6894730I-69850J0D01*
G01*
X7260420Y-6894730D02*
G75*
G02*
X7400120Y-6894730I69850J0D01*
G01*
X7260420Y-7335420D02*
X7400120Y-7475120D01*
X7400120Y-7335420D02*
X7260420Y-7475120D01*
X7400120Y-7405270D02*
G75*
G02*
X7260420Y-7405270I-69850J0D01*
G01*
X7260420Y-7405270D02*
G75*
G02*
X7400120Y-7405270I69850J0D01*
G01*
X7285420Y-8474880D02*
X7425120Y-8614580D01*
X7425120Y-8474880D02*
X7285420Y-8614580D01*
X7425120Y-8544730D02*
G75*
G02*
X7285420Y-8544730I-69850J0D01*
G01*
X7285420Y-8544730D02*
G75*
G02*
X7425120Y-8544730I69850J0D01*
G01*
X7285420Y-8985420D02*
X7425120Y-9125120D01*
X7425120Y-8985420D02*
X7285420Y-9125120D01*
X7425120Y-9055270D02*
G75*
G02*
X7285420Y-9055270I-69850J0D01*
G01*
X7285420Y-9055270D02*
G75*
G02*
X7425120Y-9055270I69850J0D01*
G01*
X9549880Y-14774880D02*
X9689580Y-14914580D01*
X9689580Y-14774880D02*
X9549880Y-14914580D01*
X9689580Y-14844730D02*
G75*
G02*
X9549880Y-14844730I-69850J0D01*
G01*
X9549880Y-14844730D02*
G75*
G02*
X9689580Y-14844730I69850J0D01*
G01*
X9549880Y-15285420D02*
X9689580Y-15425120D01*
X9689580Y-15285420D02*
X9549880Y-15425120D01*
X9689580Y-15355270D02*
G75*
G02*
X9549880Y-15355270I-69850J0D01*
G01*
X9549880Y-15355270D02*
G75*
G02*
X9689580Y-15355270I69850J0D01*
G01*
X10060420Y-14774880D02*
X10200120Y-14914580D01*
X10200120Y-14774880D02*
X10060420Y-14914580D01*
X10200120Y-14844730D02*
G75*
G02*
X10060420Y-14844730I-69850J0D01*
G01*
X10060420Y-14844730D02*
G75*
G02*
X10200120Y-14844730I69850J0D01*
G01*
X10060420Y-15285420D02*
X10200120Y-15425120D01*
X10200120Y-15285420D02*
X10060420Y-15425120D01*
X10200120Y-15355270D02*
G75*
G02*
X10060420Y-15355270I-69850J0D01*
G01*
X10060420Y-15355270D02*
G75*
G02*
X10200120Y-15355270I69850J0D01*
G01*
X13574880Y-8474880D02*
X13714580Y-8614580D01*
X13714580Y-8474880D02*
X13574880Y-8614580D01*
X13714580Y-8544730D02*
G75*
G02*
X13574880Y-8544730I-69850J0D01*
G01*
X13574880Y-8544730D02*
G75*
G02*
X13714580Y-8544730I69850J0D01*
G01*
X13574880Y-8985420D02*
X13714580Y-9125120D01*
X13714580Y-8985420D02*
X13574880Y-9125120D01*
X13714580Y-9055270D02*
G75*
G02*
X13574880Y-9055270I-69850J0D01*
G01*
X13574880Y-9055270D02*
G75*
G02*
X13714580Y-9055270I69850J0D01*
G01*
X14085420Y-8474880D02*
X14225120Y-8614580D01*
X14225120Y-8474880D02*
X14085420Y-8614580D01*
X14225120Y-8544730D02*
G75*
G02*
X14085420Y-8544730I-69850J0D01*
G01*
X14085420Y-8544730D02*
G75*
G02*
X14225120Y-8544730I69850J0D01*
G01*
X14085420Y-8985420D02*
X14225120Y-9125120D01*
X14225120Y-8985420D02*
X14085420Y-9125120D01*
X14225120Y-9055270D02*
G75*
G02*
X14085420Y-9055270I-69850J0D01*
G01*
X14085420Y-9055270D02*
G75*
G02*
X14225120Y-9055270I69850J0D01*
G01*
X14174880Y-9774880D02*
X14314580Y-9914580D01*
X14314580Y-9774880D02*
X14174880Y-9914580D01*
X14314580Y-9844730D02*
G75*
G02*
X14174880Y-9844730I-69850J0D01*
G01*
X14174880Y-9844730D02*
G75*
G02*
X14314580Y-9844730I69850J0D01*
G01*
X14174880Y-10285420D02*
X14314580Y-10425120D01*
X14314580Y-10285420D02*
X14174880Y-10425120D01*
X14314580Y-10355270D02*
G75*
G02*
X14174880Y-10355270I-69850J0D01*
G01*
X14174880Y-10355270D02*
G75*
G02*
X14314580Y-10355270I69850J0D01*
G01*
X14174880Y-11174880D02*
X14314580Y-11314580D01*
X14314580Y-11174880D02*
X14174880Y-11314580D01*
X14314580Y-11244730D02*
G75*
G02*
X14174880Y-11244730I-69850J0D01*
G01*
X14174880Y-11244730D02*
G75*
G02*
X14314580Y-11244730I69850J0D01*
G01*
X14174880Y-11685420D02*
X14314580Y-11825120D01*
X14314580Y-11685420D02*
X14174880Y-11825120D01*
X14314580Y-11755270D02*
G75*
G02*
X14174880Y-11755270I-69850J0D01*
G01*
X14174880Y-11755270D02*
G75*
G02*
X14314580Y-11755270I69850J0D01*
G01*
X14174880Y-12674880D02*
X14314580Y-12814580D01*
X14314580Y-12674880D02*
X14174880Y-12814580D01*
X14314580Y-12744730D02*
G75*
G02*
X14174880Y-12744730I-69850J0D01*
G01*
X14174880Y-12744730D02*
G75*
G02*
X14314580Y-12744730I69850J0D01*
G01*
X14174880Y-13185420D02*
X14314580Y-13325120D01*
X14314580Y-13185420D02*
X14174880Y-13325120D01*
X14314580Y-13255270D02*
G75*
G02*
X14174880Y-13255270I-69850J0D01*
G01*
X14174880Y-13255270D02*
G75*
G02*
X14314580Y-13255270I69850J0D01*
G01*
X14685420Y-9774880D02*
X14825120Y-9914580D01*
X14825120Y-9774880D02*
X14685420Y-9914580D01*
X14825120Y-9844730D02*
G75*
G02*
X14685420Y-9844730I-69850J0D01*
G01*
X14685420Y-9844730D02*
G75*
G02*
X14825120Y-9844730I69850J0D01*
G01*
X14685420Y-10285420D02*
X14825120Y-10425120D01*
X14825120Y-10285420D02*
X14685420Y-10425120D01*
X14825120Y-10355270D02*
G75*
G02*
X14685420Y-10355270I-69850J0D01*
G01*
X14685420Y-10355270D02*
G75*
G02*
X14825120Y-10355270I69850J0D01*
G01*
X14685420Y-11174880D02*
X14825120Y-11314580D01*
X14825120Y-11174880D02*
X14685420Y-11314580D01*
X14825120Y-11244730D02*
G75*
G02*
X14685420Y-11244730I-69850J0D01*
G01*
X14685420Y-11244730D02*
G75*
G02*
X14825120Y-11244730I69850J0D01*
G01*
X14685420Y-11685420D02*
X14825120Y-11825120D01*
X14825120Y-11685420D02*
X14685420Y-11825120D01*
X14825120Y-11755270D02*
G75*
G02*
X14685420Y-11755270I-69850J0D01*
G01*
X14685420Y-11755270D02*
G75*
G02*
X14825120Y-11755270I69850J0D01*
G01*
X14685420Y-12674880D02*
X14825120Y-12814580D01*
X14825120Y-12674880D02*
X14685420Y-12814580D01*
X14825120Y-12744730D02*
G75*
G02*
X14685420Y-12744730I-69850J0D01*
G01*
X14685420Y-12744730D02*
G75*
G02*
X14825120Y-12744730I69850J0D01*
G01*
X14685420Y-13185420D02*
X14825120Y-13325120D01*
X14825120Y-13185420D02*
X14685420Y-13325120D01*
X14825120Y-13255270D02*
G75*
G02*
X14685420Y-13255270I-69850J0D01*
G01*
X14685420Y-13255270D02*
G75*
G02*
X14825120Y-13255270I69850J0D01*
G01*
X15274880Y-8474880D02*
X15414580Y-8614580D01*
X15414580Y-8474880D02*
X15274880Y-8614580D01*
X15414580Y-8544730D02*
G75*
G02*
X15274880Y-8544730I-69850J0D01*
G01*
X15274880Y-8544730D02*
G75*
G02*
X15414580Y-8544730I69850J0D01*
G01*
X15274880Y-8985420D02*
X15414580Y-9125120D01*
X15414580Y-8985420D02*
X15274880Y-9125120D01*
X15414580Y-9055270D02*
G75*
G02*
X15274880Y-9055270I-69850J0D01*
G01*
X15274880Y-9055270D02*
G75*
G02*
X15414580Y-9055270I69850J0D01*
G01*
X15785420Y-8474880D02*
X15925120Y-8614580D01*
X15925120Y-8474880D02*
X15785420Y-8614580D01*
X15925120Y-8544730D02*
G75*
G02*
X15785420Y-8544730I-69850J0D01*
G01*
X15785420Y-8544730D02*
G75*
G02*
X15925120Y-8544730I69850J0D01*
G01*
X15785420Y-8985420D02*
X15925120Y-9125120D01*
X15925120Y-8985420D02*
X15785420Y-9125120D01*
X15925120Y-9055270D02*
G75*
G02*
X15785420Y-9055270I-69850J0D01*
G01*
X15785420Y-9055270D02*
G75*
G02*
X15925120Y-9055270I69850J0D01*
G01*
D13*
X5125070Y-8725070D02*
X5274930Y-8874930D01*
X5274930Y-8725070D02*
X5125070Y-8874930D01*
X5200000Y-8725070D02*
X5200000Y-8874930D01*
X5125070Y-8800000D02*
X5274930Y-8800000D01*
X6325070Y-10025070D02*
X6474930Y-10174930D01*
X6474930Y-10025070D02*
X6325070Y-10174930D01*
X6400000Y-10025070D02*
X6400000Y-10174930D01*
X6325070Y-10100000D02*
X6474930Y-10100000D01*
X6325070Y-11425070D02*
X6474930Y-11574930D01*
X6474930Y-11425070D02*
X6325070Y-11574930D01*
X6400000Y-11425070D02*
X6400000Y-11574930D01*
X6325070Y-11500000D02*
X6474930Y-11500000D01*
X6325070Y-12925070D02*
X6474930Y-13074930D01*
X6474930Y-12925070D02*
X6325070Y-13074930D01*
X6400000Y-12925070D02*
X6400000Y-13074930D01*
X6325070Y-13000000D02*
X6474930Y-13000000D01*
X7000070Y-7075070D02*
X7149930Y-7224930D01*
X7149930Y-7075070D02*
X7000070Y-7224930D01*
X7075000Y-7075070D02*
X7075000Y-7224930D01*
X7000070Y-7150000D02*
X7149930Y-7150000D01*
X7025070Y-8725070D02*
X7174930Y-8874930D01*
X7174930Y-8725070D02*
X7025070Y-8874930D01*
X7100000Y-8725070D02*
X7100000Y-8874930D01*
X7025070Y-8800000D02*
X7174930Y-8800000D01*
X9800070Y-15025070D02*
X9949930Y-15174930D01*
X9949930Y-15025070D02*
X9800070Y-15174930D01*
X9875000Y-15025070D02*
X9875000Y-15174930D01*
X9800070Y-15100000D02*
X9949930Y-15100000D01*
X13825070Y-8725070D02*
X13974930Y-8874930D01*
X13974930Y-8725070D02*
X13825070Y-8874930D01*
X13900000Y-8725070D02*
X13900000Y-8874930D01*
X13825070Y-8800000D02*
X13974930Y-8800000D01*
X14425070Y-10025070D02*
X14574930Y-10174930D01*
X14574930Y-10025070D02*
X14425070Y-10174930D01*
X14500000Y-10025070D02*
X14500000Y-10174930D01*
X14425070Y-10100000D02*
X14574930Y-10100000D01*
X14425070Y-11425070D02*
X14574930Y-11574930D01*
X14574930Y-11425070D02*
X14425070Y-11574930D01*
X14500000Y-11425070D02*
X14500000Y-11574930D01*
X14425070Y-11500000D02*
X14574930Y-11500000D01*
X14425070Y-12925070D02*
X14574930Y-13074930D01*
X14574930Y-12925070D02*
X14425070Y-13074930D01*
X14500000Y-12925070D02*
X14500000Y-13074930D01*
X14425070Y-13000000D02*
X14574930Y-13000000D01*
X15525070Y-8725070D02*
X15674930Y-8874930D01*
X15674930Y-8725070D02*
X15525070Y-8874930D01*
X15600000Y-8725070D02*
X15600000Y-8874930D01*
X15525070Y-8800000D02*
X15674930Y-8800000D01*
D14*
X4837390Y-7014910D02*
X5007570Y-7185090D01*
X5007570Y-7014910D02*
X4837390Y-7185090D01*
X4982648Y-7160168D02*
X4982648Y-7039832D01*
X4862312Y-7039832D01*
X4862312Y-7160168D01*
X4982648Y-7160168D01*
X5076150Y-6776150D02*
X5246330Y-6946330D01*
X5246330Y-6776150D02*
X5076150Y-6946330D01*
X5221408Y-6921408D02*
X5221408Y-6801072D01*
X5101072Y-6801072D01*
X5101072Y-6921408D01*
X5221408Y-6921408D01*
X5076150Y-7253670D02*
X5246330Y-7423850D01*
X5246330Y-7253670D02*
X5076150Y-7423850D01*
X5221408Y-7398928D02*
X5221408Y-7278592D01*
X5101072Y-7278592D01*
X5101072Y-7398928D01*
X5221408Y-7398928D01*
X5314910Y-7014910D02*
X5485090Y-7185090D01*
X5485090Y-7014910D02*
X5314910Y-7185090D01*
X5460168Y-7160168D02*
X5460168Y-7039832D01*
X5339832Y-7039832D01*
X5339832Y-7160168D01*
X5460168Y-7160168D01*
X6137390Y-15714910D02*
X6307570Y-15885090D01*
X6307570Y-15714910D02*
X6137390Y-15885090D01*
X6282648Y-15860168D02*
X6282648Y-15739832D01*
X6162312Y-15739832D01*
X6162312Y-15860168D01*
X6282648Y-15860168D01*
X6376150Y-15476150D02*
X6546330Y-15646330D01*
X6546330Y-15476150D02*
X6376150Y-15646330D01*
X6521408Y-15621408D02*
X6521408Y-15501072D01*
X6401072Y-15501072D01*
X6401072Y-15621408D01*
X6521408Y-15621408D01*
X6376150Y-15953670D02*
X6546330Y-16123850D01*
X6546330Y-15953670D02*
X6376150Y-16123850D01*
X6521408Y-16098928D02*
X6521408Y-15978592D01*
X6401072Y-15978592D01*
X6401072Y-16098928D01*
X6521408Y-16098928D01*
X6614910Y-15714910D02*
X6785090Y-15885090D01*
X6785090Y-15714910D02*
X6614910Y-15885090D01*
X6760168Y-15860168D02*
X6760168Y-15739832D01*
X6639832Y-15739832D01*
X6639832Y-15860168D01*
X6760168Y-15860168D01*
X7037390Y-5414910D02*
X7207570Y-5585090D01*
X7207570Y-5414910D02*
X7037390Y-5585090D01*
X7182648Y-5560168D02*
X7182648Y-5439832D01*
X7062312Y-5439832D01*
X7062312Y-5560168D01*
X7182648Y-5560168D01*
X7276150Y-5176150D02*
X7446330Y-5346330D01*
X7446330Y-5176150D02*
X7276150Y-5346330D01*
X7421408Y-5321408D02*
X7421408Y-5201072D01*
X7301072Y-5201072D01*
X7301072Y-5321408D01*
X7421408Y-5321408D01*
X7276150Y-5653670D02*
X7446330Y-5823850D01*
X7446330Y-5653670D02*
X7276150Y-5823850D01*
X7421408Y-5798928D02*
X7421408Y-5678592D01*
X7301072Y-5678592D01*
X7301072Y-5798928D01*
X7421408Y-5798928D01*
X7514910Y-5414910D02*
X7685090Y-5585090D01*
X7685090Y-5414910D02*
X7514910Y-5585090D01*
X7660168Y-5560168D02*
X7660168Y-5439832D01*
X7539832Y-5439832D01*
X7539832Y-5560168D01*
X7660168Y-5560168D01*
X7914910Y-15714910D02*
X8085090Y-15885090D01*
X8085090Y-15714910D02*
X7914910Y-15885090D01*
X8060168Y-15860168D02*
X8060168Y-15739832D01*
X7939832Y-15739832D01*
X7939832Y-15860168D01*
X8060168Y-15860168D01*
X8153670Y-15476150D02*
X8323850Y-15646330D01*
X8323850Y-15476150D02*
X8153670Y-15646330D01*
X8298928Y-15621408D02*
X8298928Y-15501072D01*
X8178592Y-15501072D01*
X8178592Y-15621408D01*
X8298928Y-15621408D01*
X8153670Y-15953670D02*
X8323850Y-16123850D01*
X8323850Y-15953670D02*
X8153670Y-16123850D01*
X8298928Y-16098928D02*
X8298928Y-15978592D01*
X8178592Y-15978592D01*
X8178592Y-16098928D01*
X8298928Y-16098928D01*
X8392430Y-15714910D02*
X8562610Y-15885090D01*
X8562610Y-15714910D02*
X8392430Y-15885090D01*
X8537688Y-15860168D02*
X8537688Y-15739832D01*
X8417352Y-15739832D01*
X8417352Y-15860168D01*
X8537688Y-15860168D01*
X9037390Y-5414910D02*
X9207570Y-5585090D01*
X9207570Y-5414910D02*
X9037390Y-5585090D01*
X9182648Y-5560168D02*
X9182648Y-5439832D01*
X9062312Y-5439832D01*
X9062312Y-5560168D01*
X9182648Y-5560168D01*
X9276150Y-5176150D02*
X9446330Y-5346330D01*
X9446330Y-5176150D02*
X9276150Y-5346330D01*
X9421408Y-5321408D02*
X9421408Y-5201072D01*
X9301072Y-5201072D01*
X9301072Y-5321408D01*
X9421408Y-5321408D01*
X9276150Y-5653670D02*
X9446330Y-5823850D01*
X9446330Y-5653670D02*
X9276150Y-5823850D01*
X9421408Y-5798928D02*
X9421408Y-5678592D01*
X9301072Y-5678592D01*
X9301072Y-5798928D01*
X9421408Y-5798928D01*
X9514910Y-5414910D02*
X9685090Y-5585090D01*
X9685090Y-5414910D02*
X9514910Y-5585090D01*
X9660168Y-5560168D02*
X9660168Y-5439832D01*
X9539832Y-5439832D01*
X9539832Y-5560168D01*
X9660168Y-5560168D01*
X14414910Y-5314910D02*
X14585090Y-5485090D01*
X14585090Y-5314910D02*
X14414910Y-5485090D01*
X14560168Y-5460168D02*
X14560168Y-5339832D01*
X14439832Y-5339832D01*
X14439832Y-5460168D01*
X14560168Y-5460168D01*
X14653670Y-5076150D02*
X14823850Y-5246330D01*
X14823850Y-5076150D02*
X14653670Y-5246330D01*
X14798928Y-5221408D02*
X14798928Y-5101072D01*
X14678592Y-5101072D01*
X14678592Y-5221408D01*
X14798928Y-5221408D01*
X14653670Y-5553670D02*
X14823850Y-5723850D01*
X14823850Y-5553670D02*
X14653670Y-5723850D01*
X14798928Y-5698928D02*
X14798928Y-5578592D01*
X14678592Y-5578592D01*
X14678592Y-5698928D01*
X14798928Y-5698928D01*
X14892430Y-5314910D02*
X15062610Y-5485090D01*
X15062610Y-5314910D02*
X14892430Y-5485090D01*
X15037688Y-5460168D02*
X15037688Y-5339832D01*
X14917352Y-5339832D01*
X14917352Y-5460168D01*
X15037688Y-5460168D01*
X15276150Y-14776150D02*
X15446330Y-14946330D01*
X15446330Y-14776150D02*
X15276150Y-14946330D01*
X15421408Y-14921408D02*
X15421408Y-14801072D01*
X15301072Y-14801072D01*
X15301072Y-14921408D01*
X15421408Y-14921408D01*
X15437390Y-7076150D02*
X15607570Y-7246330D01*
X15607570Y-7076150D02*
X15437390Y-7246330D01*
X15582648Y-7221408D02*
X15582648Y-7101072D01*
X15462312Y-7101072D01*
X15462312Y-7221408D01*
X15582648Y-7221408D01*
X15514910Y-14537390D02*
X15685090Y-14707570D01*
X15685090Y-14537390D02*
X15514910Y-14707570D01*
X15660168Y-14682648D02*
X15660168Y-14562312D01*
X15539832Y-14562312D01*
X15539832Y-14682648D01*
X15660168Y-14682648D01*
X15514910Y-15014910D02*
X15685090Y-15185090D01*
X15685090Y-15014910D02*
X15514910Y-15185090D01*
X15660168Y-15160168D02*
X15660168Y-15039832D01*
X15539832Y-15039832D01*
X15539832Y-15160168D01*
X15660168Y-15160168D01*
X15676150Y-6837390D02*
X15846330Y-7007570D01*
X15846330Y-6837390D02*
X15676150Y-7007570D01*
X15821408Y-6982648D02*
X15821408Y-6862312D01*
X15701072Y-6862312D01*
X15701072Y-6982648D01*
X15821408Y-6982648D01*
X15676150Y-7314910D02*
X15846330Y-7485090D01*
X15846330Y-7314910D02*
X15676150Y-7485090D01*
X15821408Y-7460168D02*
X15821408Y-7339832D01*
X15701072Y-7339832D01*
X15701072Y-7460168D01*
X15821408Y-7460168D01*
X15753670Y-14776150D02*
X15923850Y-14946330D01*
X15923850Y-14776150D02*
X15753670Y-14946330D01*
X15898928Y-14921408D02*
X15898928Y-14801072D01*
X15778592Y-14801072D01*
X15778592Y-14921408D01*
X15898928Y-14921408D01*
X15914910Y-7076150D02*
X16085090Y-7246330D01*
X16085090Y-7076150D02*
X15914910Y-7246330D01*
X16060168Y-7221408D02*
X16060168Y-7101072D01*
X15939832Y-7101072D01*
X15939832Y-7221408D01*
X16060168Y-7221408D01*
D15*
X4940000Y-5140000D02*
X5260000Y-5460000D01*
X5260000Y-5140000D02*
X4940000Y-5460000D01*
X5100000Y-5460000D02*
X5260000Y-5300000D01*
X5100000Y-5140000D01*
X4940000Y-5300000D01*
X5100000Y-5460000D01*
X4940000Y-15940000D02*
X5260000Y-16260000D01*
X5260000Y-15940000D02*
X4940000Y-16260000D01*
X5100000Y-16260000D02*
X5260000Y-16100000D01*
X5100000Y-15940000D01*
X4940000Y-16100000D01*
X5100000Y-16260000D01*
X15740000Y-5140000D02*
X16060000Y-5460000D01*
X16060000Y-5140000D02*
X15740000Y-5460000D01*
X15900000Y-5460000D02*
X16060000Y-5300000D01*
X15900000Y-5140000D01*
X15740000Y-5300000D01*
X15900000Y-5460000D01*
X15740000Y-15940000D02*
X16060000Y-16260000D01*
X16060000Y-15940000D02*
X15740000Y-16260000D01*
X15900000Y-16260000D02*
X16060000Y-16100000D01*
X15900000Y-15940000D01*
X15740000Y-16100000D01*
X15900000Y-16260000D01*
D11*
X4555777Y-17216484D02*
X4555777Y-17016484D01*
X4555777Y-17016484D02*
X4603396Y-17016484D01*
X4603396Y-17016484D02*
X4631967Y-17026008D01*
X4631967Y-17026008D02*
X4651015Y-17045055D01*
X4651015Y-17045055D02*
X4660539Y-17064103D01*
X4660539Y-17064103D02*
X4670063Y-17102198D01*
X4670063Y-17102198D02*
X4670063Y-17130770D01*
X4670063Y-17130770D02*
X4660539Y-17168865D01*
X4660539Y-17168865D02*
X4651015Y-17187912D01*
X4651015Y-17187912D02*
X4631967Y-17206960D01*
X4631967Y-17206960D02*
X4603396Y-17216484D01*
X4603396Y-17216484D02*
X4555777Y-17216484D01*
X4755777Y-17216484D02*
X4755777Y-17083150D01*
X4755777Y-17121246D02*
X4765301Y-17102198D01*
X4765301Y-17102198D02*
X4774824Y-17092674D01*
X4774824Y-17092674D02*
X4793872Y-17083150D01*
X4793872Y-17083150D02*
X4812920Y-17083150D01*
X4879586Y-17216484D02*
X4879586Y-17083150D01*
X4879586Y-17016484D02*
X4870063Y-17026008D01*
X4870063Y-17026008D02*
X4879586Y-17035531D01*
X4879586Y-17035531D02*
X4889110Y-17026008D01*
X4889110Y-17026008D02*
X4879586Y-17016484D01*
X4879586Y-17016484D02*
X4879586Y-17035531D01*
X5003396Y-17216484D02*
X4984348Y-17206960D01*
X4984348Y-17206960D02*
X4974824Y-17187912D01*
X4974824Y-17187912D02*
X4974824Y-17016484D01*
X5108158Y-17216484D02*
X5089110Y-17206960D01*
X5089110Y-17206960D02*
X5079586Y-17187912D01*
X5079586Y-17187912D02*
X5079586Y-17016484D01*
X5336729Y-17216484D02*
X5336729Y-17016484D01*
X5336729Y-17016484D02*
X5403396Y-17159341D01*
X5403396Y-17159341D02*
X5470063Y-17016484D01*
X5470063Y-17016484D02*
X5470063Y-17216484D01*
X5651015Y-17216484D02*
X5651015Y-17111722D01*
X5651015Y-17111722D02*
X5641491Y-17092674D01*
X5641491Y-17092674D02*
X5622443Y-17083150D01*
X5622443Y-17083150D02*
X5584348Y-17083150D01*
X5584348Y-17083150D02*
X5565301Y-17092674D01*
X5651015Y-17206960D02*
X5631967Y-17216484D01*
X5631967Y-17216484D02*
X5584348Y-17216484D01*
X5584348Y-17216484D02*
X5565301Y-17206960D01*
X5565301Y-17206960D02*
X5555777Y-17187912D01*
X5555777Y-17187912D02*
X5555777Y-17168865D01*
X5555777Y-17168865D02*
X5565301Y-17149817D01*
X5565301Y-17149817D02*
X5584348Y-17140293D01*
X5584348Y-17140293D02*
X5631967Y-17140293D01*
X5631967Y-17140293D02*
X5651015Y-17130770D01*
X5746253Y-17083150D02*
X5746253Y-17283150D01*
X5746253Y-17092674D02*
X5765301Y-17083150D01*
X5765301Y-17083150D02*
X5803396Y-17083150D01*
X5803396Y-17083150D02*
X5822443Y-17092674D01*
X5822443Y-17092674D02*
X5831967Y-17102198D01*
X5831967Y-17102198D02*
X5841491Y-17121246D01*
X5841491Y-17121246D02*
X5841491Y-17178389D01*
X5841491Y-17178389D02*
X5831967Y-17197436D01*
X5831967Y-17197436D02*
X5822443Y-17206960D01*
X5822443Y-17206960D02*
X5803396Y-17216484D01*
X5803396Y-17216484D02*
X5765301Y-17216484D01*
X5765301Y-17216484D02*
X5746253Y-17206960D01*
X5927205Y-17197436D02*
X5936729Y-17206960D01*
X5936729Y-17206960D02*
X5927205Y-17216484D01*
X5927205Y-17216484D02*
X5917682Y-17206960D01*
X5917682Y-17206960D02*
X5927205Y-17197436D01*
X5927205Y-17197436D02*
X5927205Y-17216484D01*
X5927205Y-17092674D02*
X5936729Y-17102198D01*
X5936729Y-17102198D02*
X5927205Y-17111722D01*
X5927205Y-17111722D02*
X5917682Y-17102198D01*
X5917682Y-17102198D02*
X5927205Y-17092674D01*
X5927205Y-17092674D02*
X5927205Y-17111722D01*
D10*
X4269600Y-17532300D02*
X4295000Y-17557700D01*
X4295000Y-17532300D02*
X4269600Y-17557700D01*
D11*
X4593872Y-17436484D02*
X4612920Y-17436484D01*
X4612920Y-17436484D02*
X4631967Y-17446008D01*
X4631967Y-17446008D02*
X4641491Y-17455531D01*
X4641491Y-17455531D02*
X4651015Y-17474579D01*
X4651015Y-17474579D02*
X4660539Y-17512674D01*
X4660539Y-17512674D02*
X4660539Y-17560293D01*
X4660539Y-17560293D02*
X4651015Y-17598389D01*
X4651015Y-17598389D02*
X4641491Y-17617436D01*
X4641491Y-17617436D02*
X4631967Y-17626960D01*
X4631967Y-17626960D02*
X4612920Y-17636484D01*
X4612920Y-17636484D02*
X4593872Y-17636484D01*
X4593872Y-17636484D02*
X4574824Y-17626960D01*
X4574824Y-17626960D02*
X4565301Y-17617436D01*
X4565301Y-17617436D02*
X4555777Y-17598389D01*
X4555777Y-17598389D02*
X4546253Y-17560293D01*
X4546253Y-17560293D02*
X4546253Y-17512674D01*
X4546253Y-17512674D02*
X4555777Y-17474579D01*
X4555777Y-17474579D02*
X4565301Y-17455531D01*
X4565301Y-17455531D02*
X4574824Y-17446008D01*
X4574824Y-17446008D02*
X4593872Y-17436484D01*
X4746253Y-17617436D02*
X4755777Y-17626960D01*
X4755777Y-17626960D02*
X4746253Y-17636484D01*
X4746253Y-17636484D02*
X4736729Y-17626960D01*
X4736729Y-17626960D02*
X4746253Y-17617436D01*
X4746253Y-17617436D02*
X4746253Y-17636484D01*
X4831967Y-17455531D02*
X4841491Y-17446008D01*
X4841491Y-17446008D02*
X4860539Y-17436484D01*
X4860539Y-17436484D02*
X4908158Y-17436484D01*
X4908158Y-17436484D02*
X4927205Y-17446008D01*
X4927205Y-17446008D02*
X4936729Y-17455531D01*
X4936729Y-17455531D02*
X4946253Y-17474579D01*
X4946253Y-17474579D02*
X4946253Y-17493627D01*
X4946253Y-17493627D02*
X4936729Y-17522198D01*
X4936729Y-17522198D02*
X4822444Y-17636484D01*
X4822444Y-17636484D02*
X4946253Y-17636484D01*
X5127205Y-17436484D02*
X5031967Y-17436484D01*
X5031967Y-17436484D02*
X5022444Y-17531722D01*
X5022444Y-17531722D02*
X5031967Y-17522198D01*
X5031967Y-17522198D02*
X5051015Y-17512674D01*
X5051015Y-17512674D02*
X5098634Y-17512674D01*
X5098634Y-17512674D02*
X5117682Y-17522198D01*
X5117682Y-17522198D02*
X5127205Y-17531722D01*
X5127205Y-17531722D02*
X5136729Y-17550770D01*
X5136729Y-17550770D02*
X5136729Y-17598389D01*
X5136729Y-17598389D02*
X5127205Y-17617436D01*
X5127205Y-17617436D02*
X5117682Y-17626960D01*
X5117682Y-17626960D02*
X5098634Y-17636484D01*
X5098634Y-17636484D02*
X5051015Y-17636484D01*
X5051015Y-17636484D02*
X5031967Y-17626960D01*
X5031967Y-17626960D02*
X5022444Y-17617436D01*
X5308158Y-17503150D02*
X5308158Y-17636484D01*
X5260539Y-17426960D02*
X5212920Y-17569817D01*
X5212920Y-17569817D02*
X5336729Y-17569817D01*
X5412920Y-17636484D02*
X5412920Y-17503150D01*
X5412920Y-17522198D02*
X5422444Y-17512674D01*
X5422444Y-17512674D02*
X5441491Y-17503150D01*
X5441491Y-17503150D02*
X5470063Y-17503150D01*
X5470063Y-17503150D02*
X5489110Y-17512674D01*
X5489110Y-17512674D02*
X5498634Y-17531722D01*
X5498634Y-17531722D02*
X5498634Y-17636484D01*
X5498634Y-17531722D02*
X5508158Y-17512674D01*
X5508158Y-17512674D02*
X5527205Y-17503150D01*
X5527205Y-17503150D02*
X5555777Y-17503150D01*
X5555777Y-17503150D02*
X5574825Y-17512674D01*
X5574825Y-17512674D02*
X5584348Y-17531722D01*
X5584348Y-17531722D02*
X5584348Y-17636484D01*
X5679586Y-17636484D02*
X5679586Y-17503150D01*
X5679586Y-17522198D02*
X5689110Y-17512674D01*
X5689110Y-17512674D02*
X5708158Y-17503150D01*
X5708158Y-17503150D02*
X5736729Y-17503150D01*
X5736729Y-17503150D02*
X5755777Y-17512674D01*
X5755777Y-17512674D02*
X5765301Y-17531722D01*
X5765301Y-17531722D02*
X5765301Y-17636484D01*
X5765301Y-17531722D02*
X5774824Y-17512674D01*
X5774824Y-17512674D02*
X5793872Y-17503150D01*
X5793872Y-17503150D02*
X5822443Y-17503150D01*
X5822443Y-17503150D02*
X5841491Y-17512674D01*
X5841491Y-17512674D02*
X5851015Y-17531722D01*
X5851015Y-17531722D02*
X5851015Y-17636484D01*
X6241491Y-17426960D02*
X6070063Y-17684103D01*
X6498634Y-17436484D02*
X6517682Y-17436484D01*
X6517682Y-17436484D02*
X6536729Y-17446008D01*
X6536729Y-17446008D02*
X6546253Y-17455531D01*
X6546253Y-17455531D02*
X6555777Y-17474579D01*
X6555777Y-17474579D02*
X6565301Y-17512674D01*
X6565301Y-17512674D02*
X6565301Y-17560293D01*
X6565301Y-17560293D02*
X6555777Y-17598389D01*
X6555777Y-17598389D02*
X6546253Y-17617436D01*
X6546253Y-17617436D02*
X6536729Y-17626960D01*
X6536729Y-17626960D02*
X6517682Y-17636484D01*
X6517682Y-17636484D02*
X6498634Y-17636484D01*
X6498634Y-17636484D02*
X6479586Y-17626960D01*
X6479586Y-17626960D02*
X6470063Y-17617436D01*
X6470063Y-17617436D02*
X6460539Y-17598389D01*
X6460539Y-17598389D02*
X6451015Y-17560293D01*
X6451015Y-17560293D02*
X6451015Y-17512674D01*
X6451015Y-17512674D02*
X6460539Y-17474579D01*
X6460539Y-17474579D02*
X6470063Y-17455531D01*
X6470063Y-17455531D02*
X6479586Y-17446008D01*
X6479586Y-17446008D02*
X6498634Y-17436484D01*
X6651015Y-17617436D02*
X6660539Y-17626960D01*
X6660539Y-17626960D02*
X6651015Y-17636484D01*
X6651015Y-17636484D02*
X6641491Y-17626960D01*
X6641491Y-17626960D02*
X6651015Y-17617436D01*
X6651015Y-17617436D02*
X6651015Y-17636484D01*
X6784348Y-17436484D02*
X6803396Y-17436484D01*
X6803396Y-17436484D02*
X6822444Y-17446008D01*
X6822444Y-17446008D02*
X6831967Y-17455531D01*
X6831967Y-17455531D02*
X6841491Y-17474579D01*
X6841491Y-17474579D02*
X6851015Y-17512674D01*
X6851015Y-17512674D02*
X6851015Y-17560293D01*
X6851015Y-17560293D02*
X6841491Y-17598389D01*
X6841491Y-17598389D02*
X6831967Y-17617436D01*
X6831967Y-17617436D02*
X6822444Y-17626960D01*
X6822444Y-17626960D02*
X6803396Y-17636484D01*
X6803396Y-17636484D02*
X6784348Y-17636484D01*
X6784348Y-17636484D02*
X6765301Y-17626960D01*
X6765301Y-17626960D02*
X6755777Y-17617436D01*
X6755777Y-17617436D02*
X6746253Y-17598389D01*
X6746253Y-17598389D02*
X6736729Y-17560293D01*
X6736729Y-17560293D02*
X6736729Y-17512674D01*
X6736729Y-17512674D02*
X6746253Y-17474579D01*
X6746253Y-17474579D02*
X6755777Y-17455531D01*
X6755777Y-17455531D02*
X6765301Y-17446008D01*
X6765301Y-17446008D02*
X6784348Y-17436484D01*
X7041491Y-17636484D02*
X6927206Y-17636484D01*
X6984348Y-17636484D02*
X6984348Y-17436484D01*
X6984348Y-17436484D02*
X6965301Y-17465055D01*
X6965301Y-17465055D02*
X6946253Y-17484103D01*
X6946253Y-17484103D02*
X6927206Y-17493627D01*
X7165301Y-17436484D02*
X7184348Y-17436484D01*
X7184348Y-17436484D02*
X7203396Y-17446008D01*
X7203396Y-17446008D02*
X7212920Y-17455531D01*
X7212920Y-17455531D02*
X7222444Y-17474579D01*
X7222444Y-17474579D02*
X7231967Y-17512674D01*
X7231967Y-17512674D02*
X7231967Y-17560293D01*
X7231967Y-17560293D02*
X7222444Y-17598389D01*
X7222444Y-17598389D02*
X7212920Y-17617436D01*
X7212920Y-17617436D02*
X7203396Y-17626960D01*
X7203396Y-17626960D02*
X7184348Y-17636484D01*
X7184348Y-17636484D02*
X7165301Y-17636484D01*
X7165301Y-17636484D02*
X7146253Y-17626960D01*
X7146253Y-17626960D02*
X7136729Y-17617436D01*
X7136729Y-17617436D02*
X7127206Y-17598389D01*
X7127206Y-17598389D02*
X7117682Y-17560293D01*
X7117682Y-17560293D02*
X7117682Y-17512674D01*
X7117682Y-17512674D02*
X7127206Y-17474579D01*
X7127206Y-17474579D02*
X7136729Y-17455531D01*
X7136729Y-17455531D02*
X7146253Y-17446008D01*
X7146253Y-17446008D02*
X7165301Y-17436484D01*
X7355777Y-17436484D02*
X7374825Y-17436484D01*
X7374825Y-17436484D02*
X7393872Y-17446008D01*
X7393872Y-17446008D02*
X7403396Y-17455531D01*
X7403396Y-17455531D02*
X7412920Y-17474579D01*
X7412920Y-17474579D02*
X7422444Y-17512674D01*
X7422444Y-17512674D02*
X7422444Y-17560293D01*
X7422444Y-17560293D02*
X7412920Y-17598389D01*
X7412920Y-17598389D02*
X7403396Y-17617436D01*
X7403396Y-17617436D02*
X7393872Y-17626960D01*
X7393872Y-17626960D02*
X7374825Y-17636484D01*
X7374825Y-17636484D02*
X7355777Y-17636484D01*
X7355777Y-17636484D02*
X7336729Y-17626960D01*
X7336729Y-17626960D02*
X7327206Y-17617436D01*
X7327206Y-17617436D02*
X7317682Y-17598389D01*
X7317682Y-17598389D02*
X7308158Y-17560293D01*
X7308158Y-17560293D02*
X7308158Y-17512674D01*
X7308158Y-17512674D02*
X7317682Y-17474579D01*
X7317682Y-17474579D02*
X7327206Y-17455531D01*
X7327206Y-17455531D02*
X7336729Y-17446008D01*
X7336729Y-17446008D02*
X7355777Y-17436484D01*
X7498634Y-17436484D02*
X7498634Y-17474579D01*
X7574825Y-17436484D02*
X7574825Y-17474579D01*
X7870063Y-17712674D02*
X7860539Y-17703150D01*
X7860539Y-17703150D02*
X7841491Y-17674579D01*
X7841491Y-17674579D02*
X7831968Y-17655531D01*
X7831968Y-17655531D02*
X7822444Y-17626960D01*
X7822444Y-17626960D02*
X7812920Y-17579341D01*
X7812920Y-17579341D02*
X7812920Y-17541246D01*
X7812920Y-17541246D02*
X7822444Y-17493627D01*
X7822444Y-17493627D02*
X7831968Y-17465055D01*
X7831968Y-17465055D02*
X7841491Y-17446008D01*
X7841491Y-17446008D02*
X7860539Y-17417436D01*
X7860539Y-17417436D02*
X7870063Y-17407912D01*
X8051015Y-17636484D02*
X7936729Y-17636484D01*
X7993872Y-17636484D02*
X7993872Y-17436484D01*
X7993872Y-17436484D02*
X7974825Y-17465055D01*
X7974825Y-17465055D02*
X7955777Y-17484103D01*
X7955777Y-17484103D02*
X7936729Y-17493627D01*
X8231968Y-17436484D02*
X8136729Y-17436484D01*
X8136729Y-17436484D02*
X8127206Y-17531722D01*
X8127206Y-17531722D02*
X8136729Y-17522198D01*
X8136729Y-17522198D02*
X8155777Y-17512674D01*
X8155777Y-17512674D02*
X8203396Y-17512674D01*
X8203396Y-17512674D02*
X8222444Y-17522198D01*
X8222444Y-17522198D02*
X8231968Y-17531722D01*
X8231968Y-17531722D02*
X8241491Y-17550770D01*
X8241491Y-17550770D02*
X8241491Y-17598389D01*
X8241491Y-17598389D02*
X8231968Y-17617436D01*
X8231968Y-17617436D02*
X8222444Y-17626960D01*
X8222444Y-17626960D02*
X8203396Y-17636484D01*
X8203396Y-17636484D02*
X8155777Y-17636484D01*
X8155777Y-17636484D02*
X8136729Y-17626960D01*
X8136729Y-17626960D02*
X8127206Y-17617436D01*
X8308158Y-17436484D02*
X8431968Y-17436484D01*
X8431968Y-17436484D02*
X8365301Y-17512674D01*
X8365301Y-17512674D02*
X8393872Y-17512674D01*
X8393872Y-17512674D02*
X8412920Y-17522198D01*
X8412920Y-17522198D02*
X8422444Y-17531722D01*
X8422444Y-17531722D02*
X8431968Y-17550770D01*
X8431968Y-17550770D02*
X8431968Y-17598389D01*
X8431968Y-17598389D02*
X8422444Y-17617436D01*
X8422444Y-17617436D02*
X8412920Y-17626960D01*
X8412920Y-17626960D02*
X8393872Y-17636484D01*
X8393872Y-17636484D02*
X8336729Y-17636484D01*
X8336729Y-17636484D02*
X8317682Y-17626960D01*
X8317682Y-17626960D02*
X8308158Y-17617436D01*
X8670063Y-17636484D02*
X8670063Y-17436484D01*
X8755777Y-17636484D02*
X8755777Y-17531722D01*
X8755777Y-17531722D02*
X8746253Y-17512674D01*
X8746253Y-17512674D02*
X8727206Y-17503150D01*
X8727206Y-17503150D02*
X8698634Y-17503150D01*
X8698634Y-17503150D02*
X8679587Y-17512674D01*
X8679587Y-17512674D02*
X8670063Y-17522198D01*
X8879587Y-17636484D02*
X8860539Y-17626960D01*
X8860539Y-17626960D02*
X8851015Y-17617436D01*
X8851015Y-17617436D02*
X8841492Y-17598389D01*
X8841492Y-17598389D02*
X8841492Y-17541246D01*
X8841492Y-17541246D02*
X8851015Y-17522198D01*
X8851015Y-17522198D02*
X8860539Y-17512674D01*
X8860539Y-17512674D02*
X8879587Y-17503150D01*
X8879587Y-17503150D02*
X8908158Y-17503150D01*
X8908158Y-17503150D02*
X8927206Y-17512674D01*
X8927206Y-17512674D02*
X8936730Y-17522198D01*
X8936730Y-17522198D02*
X8946253Y-17541246D01*
X8946253Y-17541246D02*
X8946253Y-17598389D01*
X8946253Y-17598389D02*
X8936730Y-17617436D01*
X8936730Y-17617436D02*
X8927206Y-17626960D01*
X8927206Y-17626960D02*
X8908158Y-17636484D01*
X8908158Y-17636484D02*
X8879587Y-17636484D01*
X9060539Y-17636484D02*
X9041492Y-17626960D01*
X9041492Y-17626960D02*
X9031968Y-17607912D01*
X9031968Y-17607912D02*
X9031968Y-17436484D01*
X9212920Y-17626960D02*
X9193873Y-17636484D01*
X9193873Y-17636484D02*
X9155777Y-17636484D01*
X9155777Y-17636484D02*
X9136730Y-17626960D01*
X9136730Y-17626960D02*
X9127206Y-17607912D01*
X9127206Y-17607912D02*
X9127206Y-17531722D01*
X9127206Y-17531722D02*
X9136730Y-17512674D01*
X9136730Y-17512674D02*
X9155777Y-17503150D01*
X9155777Y-17503150D02*
X9193873Y-17503150D01*
X9193873Y-17503150D02*
X9212920Y-17512674D01*
X9212920Y-17512674D02*
X9222444Y-17531722D01*
X9222444Y-17531722D02*
X9222444Y-17550770D01*
X9222444Y-17550770D02*
X9127206Y-17569817D01*
X9298634Y-17626960D02*
X9317682Y-17636484D01*
X9317682Y-17636484D02*
X9355777Y-17636484D01*
X9355777Y-17636484D02*
X9374825Y-17626960D01*
X9374825Y-17626960D02*
X9384349Y-17607912D01*
X9384349Y-17607912D02*
X9384349Y-17598389D01*
X9384349Y-17598389D02*
X9374825Y-17579341D01*
X9374825Y-17579341D02*
X9355777Y-17569817D01*
X9355777Y-17569817D02*
X9327206Y-17569817D01*
X9327206Y-17569817D02*
X9308158Y-17560293D01*
X9308158Y-17560293D02*
X9298634Y-17541246D01*
X9298634Y-17541246D02*
X9298634Y-17531722D01*
X9298634Y-17531722D02*
X9308158Y-17512674D01*
X9308158Y-17512674D02*
X9327206Y-17503150D01*
X9327206Y-17503150D02*
X9355777Y-17503150D01*
X9355777Y-17503150D02*
X9374825Y-17512674D01*
X9451015Y-17712674D02*
X9460539Y-17703150D01*
X9460539Y-17703150D02*
X9479587Y-17674579D01*
X9479587Y-17674579D02*
X9489111Y-17655531D01*
X9489111Y-17655531D02*
X9498634Y-17626960D01*
X9498634Y-17626960D02*
X9508158Y-17579341D01*
X9508158Y-17579341D02*
X9508158Y-17541246D01*
X9508158Y-17541246D02*
X9498634Y-17493627D01*
X9498634Y-17493627D02*
X9489111Y-17465055D01*
X9489111Y-17465055D02*
X9479587Y-17446008D01*
X9479587Y-17446008D02*
X9460539Y-17417436D01*
X9460539Y-17417436D02*
X9451015Y-17407912D01*
D10*
X4295000Y-17809000D02*
G75*
G02*
X4225000Y-17809000I-35000J0D01*
G01*
X4225000Y-17809000D02*
G75*
G02*
X4295000Y-17809000I35000J0D01*
G01*
D11*
X4593872Y-17700484D02*
X4612920Y-17700484D01*
X4612920Y-17700484D02*
X4631967Y-17710008D01*
X4631967Y-17710008D02*
X4641491Y-17719531D01*
X4641491Y-17719531D02*
X4651015Y-17738579D01*
X4651015Y-17738579D02*
X4660539Y-17776674D01*
X4660539Y-17776674D02*
X4660539Y-17824293D01*
X4660539Y-17824293D02*
X4651015Y-17862389D01*
X4651015Y-17862389D02*
X4641491Y-17881436D01*
X4641491Y-17881436D02*
X4631967Y-17890960D01*
X4631967Y-17890960D02*
X4612920Y-17900484D01*
X4612920Y-17900484D02*
X4593872Y-17900484D01*
X4593872Y-17900484D02*
X4574824Y-17890960D01*
X4574824Y-17890960D02*
X4565301Y-17881436D01*
X4565301Y-17881436D02*
X4555777Y-17862389D01*
X4555777Y-17862389D02*
X4546253Y-17824293D01*
X4546253Y-17824293D02*
X4546253Y-17776674D01*
X4546253Y-17776674D02*
X4555777Y-17738579D01*
X4555777Y-17738579D02*
X4565301Y-17719531D01*
X4565301Y-17719531D02*
X4574824Y-17710008D01*
X4574824Y-17710008D02*
X4593872Y-17700484D01*
X4746253Y-17881436D02*
X4755777Y-17890960D01*
X4755777Y-17890960D02*
X4746253Y-17900484D01*
X4746253Y-17900484D02*
X4736729Y-17890960D01*
X4736729Y-17890960D02*
X4746253Y-17881436D01*
X4746253Y-17881436D02*
X4746253Y-17900484D01*
X4822444Y-17700484D02*
X4955777Y-17700484D01*
X4955777Y-17700484D02*
X4870063Y-17900484D01*
X5070063Y-17700484D02*
X5089110Y-17700484D01*
X5089110Y-17700484D02*
X5108158Y-17710008D01*
X5108158Y-17710008D02*
X5117682Y-17719531D01*
X5117682Y-17719531D02*
X5127205Y-17738579D01*
X5127205Y-17738579D02*
X5136729Y-17776674D01*
X5136729Y-17776674D02*
X5136729Y-17824293D01*
X5136729Y-17824293D02*
X5127205Y-17862389D01*
X5127205Y-17862389D02*
X5117682Y-17881436D01*
X5117682Y-17881436D02*
X5108158Y-17890960D01*
X5108158Y-17890960D02*
X5089110Y-17900484D01*
X5089110Y-17900484D02*
X5070063Y-17900484D01*
X5070063Y-17900484D02*
X5051015Y-17890960D01*
X5051015Y-17890960D02*
X5041491Y-17881436D01*
X5041491Y-17881436D02*
X5031967Y-17862389D01*
X5031967Y-17862389D02*
X5022444Y-17824293D01*
X5022444Y-17824293D02*
X5022444Y-17776674D01*
X5022444Y-17776674D02*
X5031967Y-17738579D01*
X5031967Y-17738579D02*
X5041491Y-17719531D01*
X5041491Y-17719531D02*
X5051015Y-17710008D01*
X5051015Y-17710008D02*
X5070063Y-17700484D01*
X5260539Y-17700484D02*
X5279586Y-17700484D01*
X5279586Y-17700484D02*
X5298634Y-17710008D01*
X5298634Y-17710008D02*
X5308158Y-17719531D01*
X5308158Y-17719531D02*
X5317682Y-17738579D01*
X5317682Y-17738579D02*
X5327205Y-17776674D01*
X5327205Y-17776674D02*
X5327205Y-17824293D01*
X5327205Y-17824293D02*
X5317682Y-17862389D01*
X5317682Y-17862389D02*
X5308158Y-17881436D01*
X5308158Y-17881436D02*
X5298634Y-17890960D01*
X5298634Y-17890960D02*
X5279586Y-17900484D01*
X5279586Y-17900484D02*
X5260539Y-17900484D01*
X5260539Y-17900484D02*
X5241491Y-17890960D01*
X5241491Y-17890960D02*
X5231967Y-17881436D01*
X5231967Y-17881436D02*
X5222444Y-17862389D01*
X5222444Y-17862389D02*
X5212920Y-17824293D01*
X5212920Y-17824293D02*
X5212920Y-17776674D01*
X5212920Y-17776674D02*
X5222444Y-17738579D01*
X5222444Y-17738579D02*
X5231967Y-17719531D01*
X5231967Y-17719531D02*
X5241491Y-17710008D01*
X5241491Y-17710008D02*
X5260539Y-17700484D01*
X5412920Y-17900484D02*
X5412920Y-17767150D01*
X5412920Y-17786198D02*
X5422444Y-17776674D01*
X5422444Y-17776674D02*
X5441491Y-17767150D01*
X5441491Y-17767150D02*
X5470063Y-17767150D01*
X5470063Y-17767150D02*
X5489110Y-17776674D01*
X5489110Y-17776674D02*
X5498634Y-17795722D01*
X5498634Y-17795722D02*
X5498634Y-17900484D01*
X5498634Y-17795722D02*
X5508158Y-17776674D01*
X5508158Y-17776674D02*
X5527205Y-17767150D01*
X5527205Y-17767150D02*
X5555777Y-17767150D01*
X5555777Y-17767150D02*
X5574825Y-17776674D01*
X5574825Y-17776674D02*
X5584348Y-17795722D01*
X5584348Y-17795722D02*
X5584348Y-17900484D01*
X5679586Y-17900484D02*
X5679586Y-17767150D01*
X5679586Y-17786198D02*
X5689110Y-17776674D01*
X5689110Y-17776674D02*
X5708158Y-17767150D01*
X5708158Y-17767150D02*
X5736729Y-17767150D01*
X5736729Y-17767150D02*
X5755777Y-17776674D01*
X5755777Y-17776674D02*
X5765301Y-17795722D01*
X5765301Y-17795722D02*
X5765301Y-17900484D01*
X5765301Y-17795722D02*
X5774824Y-17776674D01*
X5774824Y-17776674D02*
X5793872Y-17767150D01*
X5793872Y-17767150D02*
X5822443Y-17767150D01*
X5822443Y-17767150D02*
X5841491Y-17776674D01*
X5841491Y-17776674D02*
X5851015Y-17795722D01*
X5851015Y-17795722D02*
X5851015Y-17900484D01*
X6241491Y-17690960D02*
X6070063Y-17948103D01*
X6498634Y-17700484D02*
X6517682Y-17700484D01*
X6517682Y-17700484D02*
X6536729Y-17710008D01*
X6536729Y-17710008D02*
X6546253Y-17719531D01*
X6546253Y-17719531D02*
X6555777Y-17738579D01*
X6555777Y-17738579D02*
X6565301Y-17776674D01*
X6565301Y-17776674D02*
X6565301Y-17824293D01*
X6565301Y-17824293D02*
X6555777Y-17862389D01*
X6555777Y-17862389D02*
X6546253Y-17881436D01*
X6546253Y-17881436D02*
X6536729Y-17890960D01*
X6536729Y-17890960D02*
X6517682Y-17900484D01*
X6517682Y-17900484D02*
X6498634Y-17900484D01*
X6498634Y-17900484D02*
X6479586Y-17890960D01*
X6479586Y-17890960D02*
X6470063Y-17881436D01*
X6470063Y-17881436D02*
X6460539Y-17862389D01*
X6460539Y-17862389D02*
X6451015Y-17824293D01*
X6451015Y-17824293D02*
X6451015Y-17776674D01*
X6451015Y-17776674D02*
X6460539Y-17738579D01*
X6460539Y-17738579D02*
X6470063Y-17719531D01*
X6470063Y-17719531D02*
X6479586Y-17710008D01*
X6479586Y-17710008D02*
X6498634Y-17700484D01*
X6651015Y-17881436D02*
X6660539Y-17890960D01*
X6660539Y-17890960D02*
X6651015Y-17900484D01*
X6651015Y-17900484D02*
X6641491Y-17890960D01*
X6641491Y-17890960D02*
X6651015Y-17881436D01*
X6651015Y-17881436D02*
X6651015Y-17900484D01*
X6784348Y-17700484D02*
X6803396Y-17700484D01*
X6803396Y-17700484D02*
X6822444Y-17710008D01*
X6822444Y-17710008D02*
X6831967Y-17719531D01*
X6831967Y-17719531D02*
X6841491Y-17738579D01*
X6841491Y-17738579D02*
X6851015Y-17776674D01*
X6851015Y-17776674D02*
X6851015Y-17824293D01*
X6851015Y-17824293D02*
X6841491Y-17862389D01*
X6841491Y-17862389D02*
X6831967Y-17881436D01*
X6831967Y-17881436D02*
X6822444Y-17890960D01*
X6822444Y-17890960D02*
X6803396Y-17900484D01*
X6803396Y-17900484D02*
X6784348Y-17900484D01*
X6784348Y-17900484D02*
X6765301Y-17890960D01*
X6765301Y-17890960D02*
X6755777Y-17881436D01*
X6755777Y-17881436D02*
X6746253Y-17862389D01*
X6746253Y-17862389D02*
X6736729Y-17824293D01*
X6736729Y-17824293D02*
X6736729Y-17776674D01*
X6736729Y-17776674D02*
X6746253Y-17738579D01*
X6746253Y-17738579D02*
X6755777Y-17719531D01*
X6755777Y-17719531D02*
X6765301Y-17710008D01*
X6765301Y-17710008D02*
X6784348Y-17700484D01*
X6927206Y-17719531D02*
X6936729Y-17710008D01*
X6936729Y-17710008D02*
X6955777Y-17700484D01*
X6955777Y-17700484D02*
X7003396Y-17700484D01*
X7003396Y-17700484D02*
X7022444Y-17710008D01*
X7022444Y-17710008D02*
X7031967Y-17719531D01*
X7031967Y-17719531D02*
X7041491Y-17738579D01*
X7041491Y-17738579D02*
X7041491Y-17757627D01*
X7041491Y-17757627D02*
X7031967Y-17786198D01*
X7031967Y-17786198D02*
X6917682Y-17900484D01*
X6917682Y-17900484D02*
X7041491Y-17900484D01*
X7108158Y-17700484D02*
X7241491Y-17700484D01*
X7241491Y-17700484D02*
X7155777Y-17900484D01*
X7403396Y-17700484D02*
X7365301Y-17700484D01*
X7365301Y-17700484D02*
X7346253Y-17710008D01*
X7346253Y-17710008D02*
X7336729Y-17719531D01*
X7336729Y-17719531D02*
X7317682Y-17748103D01*
X7317682Y-17748103D02*
X7308158Y-17786198D01*
X7308158Y-17786198D02*
X7308158Y-17862389D01*
X7308158Y-17862389D02*
X7317682Y-17881436D01*
X7317682Y-17881436D02*
X7327206Y-17890960D01*
X7327206Y-17890960D02*
X7346253Y-17900484D01*
X7346253Y-17900484D02*
X7384348Y-17900484D01*
X7384348Y-17900484D02*
X7403396Y-17890960D01*
X7403396Y-17890960D02*
X7412920Y-17881436D01*
X7412920Y-17881436D02*
X7422444Y-17862389D01*
X7422444Y-17862389D02*
X7422444Y-17814770D01*
X7422444Y-17814770D02*
X7412920Y-17795722D01*
X7412920Y-17795722D02*
X7403396Y-17786198D01*
X7403396Y-17786198D02*
X7384348Y-17776674D01*
X7384348Y-17776674D02*
X7346253Y-17776674D01*
X7346253Y-17776674D02*
X7327206Y-17786198D01*
X7327206Y-17786198D02*
X7317682Y-17795722D01*
X7317682Y-17795722D02*
X7308158Y-17814770D01*
X7498634Y-17700484D02*
X7498634Y-17738579D01*
X7574825Y-17700484D02*
X7574825Y-17738579D01*
X7870063Y-17976674D02*
X7860539Y-17967150D01*
X7860539Y-17967150D02*
X7841491Y-17938579D01*
X7841491Y-17938579D02*
X7831968Y-17919531D01*
X7831968Y-17919531D02*
X7822444Y-17890960D01*
X7822444Y-17890960D02*
X7812920Y-17843341D01*
X7812920Y-17843341D02*
X7812920Y-17805246D01*
X7812920Y-17805246D02*
X7822444Y-17757627D01*
X7822444Y-17757627D02*
X7831968Y-17729055D01*
X7831968Y-17729055D02*
X7841491Y-17710008D01*
X7841491Y-17710008D02*
X7860539Y-17681436D01*
X7860539Y-17681436D02*
X7870063Y-17671912D01*
X7927206Y-17700484D02*
X8051015Y-17700484D01*
X8051015Y-17700484D02*
X7984348Y-17776674D01*
X7984348Y-17776674D02*
X8012920Y-17776674D01*
X8012920Y-17776674D02*
X8031968Y-17786198D01*
X8031968Y-17786198D02*
X8041491Y-17795722D01*
X8041491Y-17795722D02*
X8051015Y-17814770D01*
X8051015Y-17814770D02*
X8051015Y-17862389D01*
X8051015Y-17862389D02*
X8041491Y-17881436D01*
X8041491Y-17881436D02*
X8031968Y-17890960D01*
X8031968Y-17890960D02*
X8012920Y-17900484D01*
X8012920Y-17900484D02*
X7955777Y-17900484D01*
X7955777Y-17900484D02*
X7936729Y-17890960D01*
X7936729Y-17890960D02*
X7927206Y-17881436D01*
X8289110Y-17900484D02*
X8289110Y-17700484D01*
X8374825Y-17900484D02*
X8374825Y-17795722D01*
X8374825Y-17795722D02*
X8365301Y-17776674D01*
X8365301Y-17776674D02*
X8346253Y-17767150D01*
X8346253Y-17767150D02*
X8317682Y-17767150D01*
X8317682Y-17767150D02*
X8298634Y-17776674D01*
X8298634Y-17776674D02*
X8289110Y-17786198D01*
X8498634Y-17900484D02*
X8479587Y-17890960D01*
X8479587Y-17890960D02*
X8470063Y-17881436D01*
X8470063Y-17881436D02*
X8460539Y-17862389D01*
X8460539Y-17862389D02*
X8460539Y-17805246D01*
X8460539Y-17805246D02*
X8470063Y-17786198D01*
X8470063Y-17786198D02*
X8479587Y-17776674D01*
X8479587Y-17776674D02*
X8498634Y-17767150D01*
X8498634Y-17767150D02*
X8527206Y-17767150D01*
X8527206Y-17767150D02*
X8546253Y-17776674D01*
X8546253Y-17776674D02*
X8555777Y-17786198D01*
X8555777Y-17786198D02*
X8565301Y-17805246D01*
X8565301Y-17805246D02*
X8565301Y-17862389D01*
X8565301Y-17862389D02*
X8555777Y-17881436D01*
X8555777Y-17881436D02*
X8546253Y-17890960D01*
X8546253Y-17890960D02*
X8527206Y-17900484D01*
X8527206Y-17900484D02*
X8498634Y-17900484D01*
X8679587Y-17900484D02*
X8660539Y-17890960D01*
X8660539Y-17890960D02*
X8651015Y-17871912D01*
X8651015Y-17871912D02*
X8651015Y-17700484D01*
X8831968Y-17890960D02*
X8812920Y-17900484D01*
X8812920Y-17900484D02*
X8774825Y-17900484D01*
X8774825Y-17900484D02*
X8755777Y-17890960D01*
X8755777Y-17890960D02*
X8746253Y-17871912D01*
X8746253Y-17871912D02*
X8746253Y-17795722D01*
X8746253Y-17795722D02*
X8755777Y-17776674D01*
X8755777Y-17776674D02*
X8774825Y-17767150D01*
X8774825Y-17767150D02*
X8812920Y-17767150D01*
X8812920Y-17767150D02*
X8831968Y-17776674D01*
X8831968Y-17776674D02*
X8841492Y-17795722D01*
X8841492Y-17795722D02*
X8841492Y-17814770D01*
X8841492Y-17814770D02*
X8746253Y-17833817D01*
X8917682Y-17890960D02*
X8936730Y-17900484D01*
X8936730Y-17900484D02*
X8974825Y-17900484D01*
X8974825Y-17900484D02*
X8993873Y-17890960D01*
X8993873Y-17890960D02*
X9003396Y-17871912D01*
X9003396Y-17871912D02*
X9003396Y-17862389D01*
X9003396Y-17862389D02*
X8993873Y-17843341D01*
X8993873Y-17843341D02*
X8974825Y-17833817D01*
X8974825Y-17833817D02*
X8946253Y-17833817D01*
X8946253Y-17833817D02*
X8927206Y-17824293D01*
X8927206Y-17824293D02*
X8917682Y-17805246D01*
X8917682Y-17805246D02*
X8917682Y-17795722D01*
X8917682Y-17795722D02*
X8927206Y-17776674D01*
X8927206Y-17776674D02*
X8946253Y-17767150D01*
X8946253Y-17767150D02*
X8974825Y-17767150D01*
X8974825Y-17767150D02*
X8993873Y-17776674D01*
X9070063Y-17976674D02*
X9079587Y-17967150D01*
X9079587Y-17967150D02*
X9098634Y-17938579D01*
X9098634Y-17938579D02*
X9108158Y-17919531D01*
X9108158Y-17919531D02*
X9117682Y-17890960D01*
X9117682Y-17890960D02*
X9127206Y-17843341D01*
X9127206Y-17843341D02*
X9127206Y-17805246D01*
X9127206Y-17805246D02*
X9117682Y-17757627D01*
X9117682Y-17757627D02*
X9108158Y-17729055D01*
X9108158Y-17729055D02*
X9098634Y-17710008D01*
X9098634Y-17710008D02*
X9079587Y-17681436D01*
X9079587Y-17681436D02*
X9070063Y-17671912D01*
D10*
X4254360Y-18032360D02*
X4254360Y-18113640D01*
X4213720Y-18073000D02*
X4295000Y-18073000D01*
D11*
X4593872Y-17964484D02*
X4612920Y-17964484D01*
X4612920Y-17964484D02*
X4631967Y-17974008D01*
X4631967Y-17974008D02*
X4641491Y-17983531D01*
X4641491Y-17983531D02*
X4651015Y-18002579D01*
X4651015Y-18002579D02*
X4660539Y-18040674D01*
X4660539Y-18040674D02*
X4660539Y-18088293D01*
X4660539Y-18088293D02*
X4651015Y-18126389D01*
X4651015Y-18126389D02*
X4641491Y-18145436D01*
X4641491Y-18145436D02*
X4631967Y-18154960D01*
X4631967Y-18154960D02*
X4612920Y-18164484D01*
X4612920Y-18164484D02*
X4593872Y-18164484D01*
X4593872Y-18164484D02*
X4574824Y-18154960D01*
X4574824Y-18154960D02*
X4565301Y-18145436D01*
X4565301Y-18145436D02*
X4555777Y-18126389D01*
X4555777Y-18126389D02*
X4546253Y-18088293D01*
X4546253Y-18088293D02*
X4546253Y-18040674D01*
X4546253Y-18040674D02*
X4555777Y-18002579D01*
X4555777Y-18002579D02*
X4565301Y-17983531D01*
X4565301Y-17983531D02*
X4574824Y-17974008D01*
X4574824Y-17974008D02*
X4593872Y-17964484D01*
X4746253Y-18145436D02*
X4755777Y-18154960D01*
X4755777Y-18154960D02*
X4746253Y-18164484D01*
X4746253Y-18164484D02*
X4736729Y-18154960D01*
X4736729Y-18154960D02*
X4746253Y-18145436D01*
X4746253Y-18145436D02*
X4746253Y-18164484D01*
X4870063Y-18050198D02*
X4851015Y-18040674D01*
X4851015Y-18040674D02*
X4841491Y-18031150D01*
X4841491Y-18031150D02*
X4831967Y-18012103D01*
X4831967Y-18012103D02*
X4831967Y-18002579D01*
X4831967Y-18002579D02*
X4841491Y-17983531D01*
X4841491Y-17983531D02*
X4851015Y-17974008D01*
X4851015Y-17974008D02*
X4870063Y-17964484D01*
X4870063Y-17964484D02*
X4908158Y-17964484D01*
X4908158Y-17964484D02*
X4927205Y-17974008D01*
X4927205Y-17974008D02*
X4936729Y-17983531D01*
X4936729Y-17983531D02*
X4946253Y-18002579D01*
X4946253Y-18002579D02*
X4946253Y-18012103D01*
X4946253Y-18012103D02*
X4936729Y-18031150D01*
X4936729Y-18031150D02*
X4927205Y-18040674D01*
X4927205Y-18040674D02*
X4908158Y-18050198D01*
X4908158Y-18050198D02*
X4870063Y-18050198D01*
X4870063Y-18050198D02*
X4851015Y-18059722D01*
X4851015Y-18059722D02*
X4841491Y-18069246D01*
X4841491Y-18069246D02*
X4831967Y-18088293D01*
X4831967Y-18088293D02*
X4831967Y-18126389D01*
X4831967Y-18126389D02*
X4841491Y-18145436D01*
X4841491Y-18145436D02*
X4851015Y-18154960D01*
X4851015Y-18154960D02*
X4870063Y-18164484D01*
X4870063Y-18164484D02*
X4908158Y-18164484D01*
X4908158Y-18164484D02*
X4927205Y-18154960D01*
X4927205Y-18154960D02*
X4936729Y-18145436D01*
X4936729Y-18145436D02*
X4946253Y-18126389D01*
X4946253Y-18126389D02*
X4946253Y-18088293D01*
X4946253Y-18088293D02*
X4936729Y-18069246D01*
X4936729Y-18069246D02*
X4927205Y-18059722D01*
X4927205Y-18059722D02*
X4908158Y-18050198D01*
X5136729Y-18164484D02*
X5022444Y-18164484D01*
X5079586Y-18164484D02*
X5079586Y-17964484D01*
X5079586Y-17964484D02*
X5060539Y-17993055D01*
X5060539Y-17993055D02*
X5041491Y-18012103D01*
X5041491Y-18012103D02*
X5022444Y-18021627D01*
X5203396Y-17964484D02*
X5327205Y-17964484D01*
X5327205Y-17964484D02*
X5260539Y-18040674D01*
X5260539Y-18040674D02*
X5289110Y-18040674D01*
X5289110Y-18040674D02*
X5308158Y-18050198D01*
X5308158Y-18050198D02*
X5317682Y-18059722D01*
X5317682Y-18059722D02*
X5327205Y-18078770D01*
X5327205Y-18078770D02*
X5327205Y-18126389D01*
X5327205Y-18126389D02*
X5317682Y-18145436D01*
X5317682Y-18145436D02*
X5308158Y-18154960D01*
X5308158Y-18154960D02*
X5289110Y-18164484D01*
X5289110Y-18164484D02*
X5231967Y-18164484D01*
X5231967Y-18164484D02*
X5212920Y-18154960D01*
X5212920Y-18154960D02*
X5203396Y-18145436D01*
X5412920Y-18164484D02*
X5412920Y-18031150D01*
X5412920Y-18050198D02*
X5422444Y-18040674D01*
X5422444Y-18040674D02*
X5441491Y-18031150D01*
X5441491Y-18031150D02*
X5470063Y-18031150D01*
X5470063Y-18031150D02*
X5489110Y-18040674D01*
X5489110Y-18040674D02*
X5498634Y-18059722D01*
X5498634Y-18059722D02*
X5498634Y-18164484D01*
X5498634Y-18059722D02*
X5508158Y-18040674D01*
X5508158Y-18040674D02*
X5527205Y-18031150D01*
X5527205Y-18031150D02*
X5555777Y-18031150D01*
X5555777Y-18031150D02*
X5574825Y-18040674D01*
X5574825Y-18040674D02*
X5584348Y-18059722D01*
X5584348Y-18059722D02*
X5584348Y-18164484D01*
X5679586Y-18164484D02*
X5679586Y-18031150D01*
X5679586Y-18050198D02*
X5689110Y-18040674D01*
X5689110Y-18040674D02*
X5708158Y-18031150D01*
X5708158Y-18031150D02*
X5736729Y-18031150D01*
X5736729Y-18031150D02*
X5755777Y-18040674D01*
X5755777Y-18040674D02*
X5765301Y-18059722D01*
X5765301Y-18059722D02*
X5765301Y-18164484D01*
X5765301Y-18059722D02*
X5774824Y-18040674D01*
X5774824Y-18040674D02*
X5793872Y-18031150D01*
X5793872Y-18031150D02*
X5822443Y-18031150D01*
X5822443Y-18031150D02*
X5841491Y-18040674D01*
X5841491Y-18040674D02*
X5851015Y-18059722D01*
X5851015Y-18059722D02*
X5851015Y-18164484D01*
X6241491Y-17954960D02*
X6070063Y-18212103D01*
X6498634Y-17964484D02*
X6517682Y-17964484D01*
X6517682Y-17964484D02*
X6536729Y-17974008D01*
X6536729Y-17974008D02*
X6546253Y-17983531D01*
X6546253Y-17983531D02*
X6555777Y-18002579D01*
X6555777Y-18002579D02*
X6565301Y-18040674D01*
X6565301Y-18040674D02*
X6565301Y-18088293D01*
X6565301Y-18088293D02*
X6555777Y-18126389D01*
X6555777Y-18126389D02*
X6546253Y-18145436D01*
X6546253Y-18145436D02*
X6536729Y-18154960D01*
X6536729Y-18154960D02*
X6517682Y-18164484D01*
X6517682Y-18164484D02*
X6498634Y-18164484D01*
X6498634Y-18164484D02*
X6479586Y-18154960D01*
X6479586Y-18154960D02*
X6470063Y-18145436D01*
X6470063Y-18145436D02*
X6460539Y-18126389D01*
X6460539Y-18126389D02*
X6451015Y-18088293D01*
X6451015Y-18088293D02*
X6451015Y-18040674D01*
X6451015Y-18040674D02*
X6460539Y-18002579D01*
X6460539Y-18002579D02*
X6470063Y-17983531D01*
X6470063Y-17983531D02*
X6479586Y-17974008D01*
X6479586Y-17974008D02*
X6498634Y-17964484D01*
X6651015Y-18145436D02*
X6660539Y-18154960D01*
X6660539Y-18154960D02*
X6651015Y-18164484D01*
X6651015Y-18164484D02*
X6641491Y-18154960D01*
X6641491Y-18154960D02*
X6651015Y-18145436D01*
X6651015Y-18145436D02*
X6651015Y-18164484D01*
X6784348Y-17964484D02*
X6803396Y-17964484D01*
X6803396Y-17964484D02*
X6822444Y-17974008D01*
X6822444Y-17974008D02*
X6831967Y-17983531D01*
X6831967Y-17983531D02*
X6841491Y-18002579D01*
X6841491Y-18002579D02*
X6851015Y-18040674D01*
X6851015Y-18040674D02*
X6851015Y-18088293D01*
X6851015Y-18088293D02*
X6841491Y-18126389D01*
X6841491Y-18126389D02*
X6831967Y-18145436D01*
X6831967Y-18145436D02*
X6822444Y-18154960D01*
X6822444Y-18154960D02*
X6803396Y-18164484D01*
X6803396Y-18164484D02*
X6784348Y-18164484D01*
X6784348Y-18164484D02*
X6765301Y-18154960D01*
X6765301Y-18154960D02*
X6755777Y-18145436D01*
X6755777Y-18145436D02*
X6746253Y-18126389D01*
X6746253Y-18126389D02*
X6736729Y-18088293D01*
X6736729Y-18088293D02*
X6736729Y-18040674D01*
X6736729Y-18040674D02*
X6746253Y-18002579D01*
X6746253Y-18002579D02*
X6755777Y-17983531D01*
X6755777Y-17983531D02*
X6765301Y-17974008D01*
X6765301Y-17974008D02*
X6784348Y-17964484D01*
X6917682Y-17964484D02*
X7041491Y-17964484D01*
X7041491Y-17964484D02*
X6974825Y-18040674D01*
X6974825Y-18040674D02*
X7003396Y-18040674D01*
X7003396Y-18040674D02*
X7022444Y-18050198D01*
X7022444Y-18050198D02*
X7031967Y-18059722D01*
X7031967Y-18059722D02*
X7041491Y-18078770D01*
X7041491Y-18078770D02*
X7041491Y-18126389D01*
X7041491Y-18126389D02*
X7031967Y-18145436D01*
X7031967Y-18145436D02*
X7022444Y-18154960D01*
X7022444Y-18154960D02*
X7003396Y-18164484D01*
X7003396Y-18164484D02*
X6946253Y-18164484D01*
X6946253Y-18164484D02*
X6927206Y-18154960D01*
X6927206Y-18154960D02*
X6917682Y-18145436D01*
X7117682Y-17983531D02*
X7127206Y-17974008D01*
X7127206Y-17974008D02*
X7146253Y-17964484D01*
X7146253Y-17964484D02*
X7193872Y-17964484D01*
X7193872Y-17964484D02*
X7212920Y-17974008D01*
X7212920Y-17974008D02*
X7222444Y-17983531D01*
X7222444Y-17983531D02*
X7231967Y-18002579D01*
X7231967Y-18002579D02*
X7231967Y-18021627D01*
X7231967Y-18021627D02*
X7222444Y-18050198D01*
X7222444Y-18050198D02*
X7108158Y-18164484D01*
X7108158Y-18164484D02*
X7231967Y-18164484D01*
X7355777Y-17964484D02*
X7374825Y-17964484D01*
X7374825Y-17964484D02*
X7393872Y-17974008D01*
X7393872Y-17974008D02*
X7403396Y-17983531D01*
X7403396Y-17983531D02*
X7412920Y-18002579D01*
X7412920Y-18002579D02*
X7422444Y-18040674D01*
X7422444Y-18040674D02*
X7422444Y-18088293D01*
X7422444Y-18088293D02*
X7412920Y-18126389D01*
X7412920Y-18126389D02*
X7403396Y-18145436D01*
X7403396Y-18145436D02*
X7393872Y-18154960D01*
X7393872Y-18154960D02*
X7374825Y-18164484D01*
X7374825Y-18164484D02*
X7355777Y-18164484D01*
X7355777Y-18164484D02*
X7336729Y-18154960D01*
X7336729Y-18154960D02*
X7327206Y-18145436D01*
X7327206Y-18145436D02*
X7317682Y-18126389D01*
X7317682Y-18126389D02*
X7308158Y-18088293D01*
X7308158Y-18088293D02*
X7308158Y-18040674D01*
X7308158Y-18040674D02*
X7317682Y-18002579D01*
X7317682Y-18002579D02*
X7327206Y-17983531D01*
X7327206Y-17983531D02*
X7336729Y-17974008D01*
X7336729Y-17974008D02*
X7355777Y-17964484D01*
X7498634Y-17964484D02*
X7498634Y-18002579D01*
X7574825Y-17964484D02*
X7574825Y-18002579D01*
X7870063Y-18240674D02*
X7860539Y-18231150D01*
X7860539Y-18231150D02*
X7841491Y-18202579D01*
X7841491Y-18202579D02*
X7831968Y-18183531D01*
X7831968Y-18183531D02*
X7822444Y-18154960D01*
X7822444Y-18154960D02*
X7812920Y-18107341D01*
X7812920Y-18107341D02*
X7812920Y-18069246D01*
X7812920Y-18069246D02*
X7822444Y-18021627D01*
X7822444Y-18021627D02*
X7831968Y-17993055D01*
X7831968Y-17993055D02*
X7841491Y-17974008D01*
X7841491Y-17974008D02*
X7860539Y-17945436D01*
X7860539Y-17945436D02*
X7870063Y-17935912D01*
X7936729Y-17983531D02*
X7946253Y-17974008D01*
X7946253Y-17974008D02*
X7965301Y-17964484D01*
X7965301Y-17964484D02*
X8012920Y-17964484D01*
X8012920Y-17964484D02*
X8031968Y-17974008D01*
X8031968Y-17974008D02*
X8041491Y-17983531D01*
X8041491Y-17983531D02*
X8051015Y-18002579D01*
X8051015Y-18002579D02*
X8051015Y-18021627D01*
X8051015Y-18021627D02*
X8041491Y-18050198D01*
X8041491Y-18050198D02*
X7927206Y-18164484D01*
X7927206Y-18164484D02*
X8051015Y-18164484D01*
X8127206Y-17983531D02*
X8136729Y-17974008D01*
X8136729Y-17974008D02*
X8155777Y-17964484D01*
X8155777Y-17964484D02*
X8203396Y-17964484D01*
X8203396Y-17964484D02*
X8222444Y-17974008D01*
X8222444Y-17974008D02*
X8231968Y-17983531D01*
X8231968Y-17983531D02*
X8241491Y-18002579D01*
X8241491Y-18002579D02*
X8241491Y-18021627D01*
X8241491Y-18021627D02*
X8231968Y-18050198D01*
X8231968Y-18050198D02*
X8117682Y-18164484D01*
X8117682Y-18164484D02*
X8241491Y-18164484D01*
X8422444Y-17964484D02*
X8327206Y-17964484D01*
X8327206Y-17964484D02*
X8317682Y-18059722D01*
X8317682Y-18059722D02*
X8327206Y-18050198D01*
X8327206Y-18050198D02*
X8346253Y-18040674D01*
X8346253Y-18040674D02*
X8393872Y-18040674D01*
X8393872Y-18040674D02*
X8412920Y-18050198D01*
X8412920Y-18050198D02*
X8422444Y-18059722D01*
X8422444Y-18059722D02*
X8431968Y-18078770D01*
X8431968Y-18078770D02*
X8431968Y-18126389D01*
X8431968Y-18126389D02*
X8422444Y-18145436D01*
X8422444Y-18145436D02*
X8412920Y-18154960D01*
X8412920Y-18154960D02*
X8393872Y-18164484D01*
X8393872Y-18164484D02*
X8346253Y-18164484D01*
X8346253Y-18164484D02*
X8327206Y-18154960D01*
X8327206Y-18154960D02*
X8317682Y-18145436D01*
X8670063Y-18164484D02*
X8670063Y-17964484D01*
X8755777Y-18164484D02*
X8755777Y-18059722D01*
X8755777Y-18059722D02*
X8746253Y-18040674D01*
X8746253Y-18040674D02*
X8727206Y-18031150D01*
X8727206Y-18031150D02*
X8698634Y-18031150D01*
X8698634Y-18031150D02*
X8679587Y-18040674D01*
X8679587Y-18040674D02*
X8670063Y-18050198D01*
X8879587Y-18164484D02*
X8860539Y-18154960D01*
X8860539Y-18154960D02*
X8851015Y-18145436D01*
X8851015Y-18145436D02*
X8841492Y-18126389D01*
X8841492Y-18126389D02*
X8841492Y-18069246D01*
X8841492Y-18069246D02*
X8851015Y-18050198D01*
X8851015Y-18050198D02*
X8860539Y-18040674D01*
X8860539Y-18040674D02*
X8879587Y-18031150D01*
X8879587Y-18031150D02*
X8908158Y-18031150D01*
X8908158Y-18031150D02*
X8927206Y-18040674D01*
X8927206Y-18040674D02*
X8936730Y-18050198D01*
X8936730Y-18050198D02*
X8946253Y-18069246D01*
X8946253Y-18069246D02*
X8946253Y-18126389D01*
X8946253Y-18126389D02*
X8936730Y-18145436D01*
X8936730Y-18145436D02*
X8927206Y-18154960D01*
X8927206Y-18154960D02*
X8908158Y-18164484D01*
X8908158Y-18164484D02*
X8879587Y-18164484D01*
X9060539Y-18164484D02*
X9041492Y-18154960D01*
X9041492Y-18154960D02*
X9031968Y-18135912D01*
X9031968Y-18135912D02*
X9031968Y-17964484D01*
X9212920Y-18154960D02*
X9193873Y-18164484D01*
X9193873Y-18164484D02*
X9155777Y-18164484D01*
X9155777Y-18164484D02*
X9136730Y-18154960D01*
X9136730Y-18154960D02*
X9127206Y-18135912D01*
X9127206Y-18135912D02*
X9127206Y-18059722D01*
X9127206Y-18059722D02*
X9136730Y-18040674D01*
X9136730Y-18040674D02*
X9155777Y-18031150D01*
X9155777Y-18031150D02*
X9193873Y-18031150D01*
X9193873Y-18031150D02*
X9212920Y-18040674D01*
X9212920Y-18040674D02*
X9222444Y-18059722D01*
X9222444Y-18059722D02*
X9222444Y-18078770D01*
X9222444Y-18078770D02*
X9127206Y-18097817D01*
X9298634Y-18154960D02*
X9317682Y-18164484D01*
X9317682Y-18164484D02*
X9355777Y-18164484D01*
X9355777Y-18164484D02*
X9374825Y-18154960D01*
X9374825Y-18154960D02*
X9384349Y-18135912D01*
X9384349Y-18135912D02*
X9384349Y-18126389D01*
X9384349Y-18126389D02*
X9374825Y-18107341D01*
X9374825Y-18107341D02*
X9355777Y-18097817D01*
X9355777Y-18097817D02*
X9327206Y-18097817D01*
X9327206Y-18097817D02*
X9308158Y-18088293D01*
X9308158Y-18088293D02*
X9298634Y-18069246D01*
X9298634Y-18069246D02*
X9298634Y-18059722D01*
X9298634Y-18059722D02*
X9308158Y-18040674D01*
X9308158Y-18040674D02*
X9327206Y-18031150D01*
X9327206Y-18031150D02*
X9355777Y-18031150D01*
X9355777Y-18031150D02*
X9374825Y-18040674D01*
X9451015Y-18240674D02*
X9460539Y-18231150D01*
X9460539Y-18231150D02*
X9479587Y-18202579D01*
X9479587Y-18202579D02*
X9489111Y-18183531D01*
X9489111Y-18183531D02*
X9498634Y-18154960D01*
X9498634Y-18154960D02*
X9508158Y-18107341D01*
X9508158Y-18107341D02*
X9508158Y-18069246D01*
X9508158Y-18069246D02*
X9498634Y-18021627D01*
X9498634Y-18021627D02*
X9489111Y-17993055D01*
X9489111Y-17993055D02*
X9479587Y-17974008D01*
X9479587Y-17974008D02*
X9460539Y-17945436D01*
X9460539Y-17945436D02*
X9451015Y-17935912D01*
D10*
X4281981Y-18368431D02*
X4281981Y-18305569D01*
X4219119Y-18305569D01*
X4219119Y-18368431D01*
X4281981Y-18368431D01*
D11*
X4593872Y-18228484D02*
X4612920Y-18228484D01*
X4612920Y-18228484D02*
X4631967Y-18238008D01*
X4631967Y-18238008D02*
X4641491Y-18247531D01*
X4641491Y-18247531D02*
X4651015Y-18266579D01*
X4651015Y-18266579D02*
X4660539Y-18304674D01*
X4660539Y-18304674D02*
X4660539Y-18352293D01*
X4660539Y-18352293D02*
X4651015Y-18390389D01*
X4651015Y-18390389D02*
X4641491Y-18409436D01*
X4641491Y-18409436D02*
X4631967Y-18418960D01*
X4631967Y-18418960D02*
X4612920Y-18428484D01*
X4612920Y-18428484D02*
X4593872Y-18428484D01*
X4593872Y-18428484D02*
X4574824Y-18418960D01*
X4574824Y-18418960D02*
X4565301Y-18409436D01*
X4565301Y-18409436D02*
X4555777Y-18390389D01*
X4555777Y-18390389D02*
X4546253Y-18352293D01*
X4546253Y-18352293D02*
X4546253Y-18304674D01*
X4546253Y-18304674D02*
X4555777Y-18266579D01*
X4555777Y-18266579D02*
X4565301Y-18247531D01*
X4565301Y-18247531D02*
X4574824Y-18238008D01*
X4574824Y-18238008D02*
X4593872Y-18228484D01*
X4746253Y-18409436D02*
X4755777Y-18418960D01*
X4755777Y-18418960D02*
X4746253Y-18428484D01*
X4746253Y-18428484D02*
X4736729Y-18418960D01*
X4736729Y-18418960D02*
X4746253Y-18409436D01*
X4746253Y-18409436D02*
X4746253Y-18428484D01*
X4870063Y-18314198D02*
X4851015Y-18304674D01*
X4851015Y-18304674D02*
X4841491Y-18295150D01*
X4841491Y-18295150D02*
X4831967Y-18276103D01*
X4831967Y-18276103D02*
X4831967Y-18266579D01*
X4831967Y-18266579D02*
X4841491Y-18247531D01*
X4841491Y-18247531D02*
X4851015Y-18238008D01*
X4851015Y-18238008D02*
X4870063Y-18228484D01*
X4870063Y-18228484D02*
X4908158Y-18228484D01*
X4908158Y-18228484D02*
X4927205Y-18238008D01*
X4927205Y-18238008D02*
X4936729Y-18247531D01*
X4936729Y-18247531D02*
X4946253Y-18266579D01*
X4946253Y-18266579D02*
X4946253Y-18276103D01*
X4946253Y-18276103D02*
X4936729Y-18295150D01*
X4936729Y-18295150D02*
X4927205Y-18304674D01*
X4927205Y-18304674D02*
X4908158Y-18314198D01*
X4908158Y-18314198D02*
X4870063Y-18314198D01*
X4870063Y-18314198D02*
X4851015Y-18323722D01*
X4851015Y-18323722D02*
X4841491Y-18333246D01*
X4841491Y-18333246D02*
X4831967Y-18352293D01*
X4831967Y-18352293D02*
X4831967Y-18390389D01*
X4831967Y-18390389D02*
X4841491Y-18409436D01*
X4841491Y-18409436D02*
X4851015Y-18418960D01*
X4851015Y-18418960D02*
X4870063Y-18428484D01*
X4870063Y-18428484D02*
X4908158Y-18428484D01*
X4908158Y-18428484D02*
X4927205Y-18418960D01*
X4927205Y-18418960D02*
X4936729Y-18409436D01*
X4936729Y-18409436D02*
X4946253Y-18390389D01*
X4946253Y-18390389D02*
X4946253Y-18352293D01*
X4946253Y-18352293D02*
X4936729Y-18333246D01*
X4936729Y-18333246D02*
X4927205Y-18323722D01*
X4927205Y-18323722D02*
X4908158Y-18314198D01*
X5060539Y-18314198D02*
X5041491Y-18304674D01*
X5041491Y-18304674D02*
X5031967Y-18295150D01*
X5031967Y-18295150D02*
X5022444Y-18276103D01*
X5022444Y-18276103D02*
X5022444Y-18266579D01*
X5022444Y-18266579D02*
X5031967Y-18247531D01*
X5031967Y-18247531D02*
X5041491Y-18238008D01*
X5041491Y-18238008D02*
X5060539Y-18228484D01*
X5060539Y-18228484D02*
X5098634Y-18228484D01*
X5098634Y-18228484D02*
X5117682Y-18238008D01*
X5117682Y-18238008D02*
X5127205Y-18247531D01*
X5127205Y-18247531D02*
X5136729Y-18266579D01*
X5136729Y-18266579D02*
X5136729Y-18276103D01*
X5136729Y-18276103D02*
X5127205Y-18295150D01*
X5127205Y-18295150D02*
X5117682Y-18304674D01*
X5117682Y-18304674D02*
X5098634Y-18314198D01*
X5098634Y-18314198D02*
X5060539Y-18314198D01*
X5060539Y-18314198D02*
X5041491Y-18323722D01*
X5041491Y-18323722D02*
X5031967Y-18333246D01*
X5031967Y-18333246D02*
X5022444Y-18352293D01*
X5022444Y-18352293D02*
X5022444Y-18390389D01*
X5022444Y-18390389D02*
X5031967Y-18409436D01*
X5031967Y-18409436D02*
X5041491Y-18418960D01*
X5041491Y-18418960D02*
X5060539Y-18428484D01*
X5060539Y-18428484D02*
X5098634Y-18428484D01*
X5098634Y-18428484D02*
X5117682Y-18418960D01*
X5117682Y-18418960D02*
X5127205Y-18409436D01*
X5127205Y-18409436D02*
X5136729Y-18390389D01*
X5136729Y-18390389D02*
X5136729Y-18352293D01*
X5136729Y-18352293D02*
X5127205Y-18333246D01*
X5127205Y-18333246D02*
X5117682Y-18323722D01*
X5117682Y-18323722D02*
X5098634Y-18314198D01*
X5231967Y-18428484D02*
X5270063Y-18428484D01*
X5270063Y-18428484D02*
X5289110Y-18418960D01*
X5289110Y-18418960D02*
X5298634Y-18409436D01*
X5298634Y-18409436D02*
X5317682Y-18380865D01*
X5317682Y-18380865D02*
X5327205Y-18342770D01*
X5327205Y-18342770D02*
X5327205Y-18266579D01*
X5327205Y-18266579D02*
X5317682Y-18247531D01*
X5317682Y-18247531D02*
X5308158Y-18238008D01*
X5308158Y-18238008D02*
X5289110Y-18228484D01*
X5289110Y-18228484D02*
X5251015Y-18228484D01*
X5251015Y-18228484D02*
X5231967Y-18238008D01*
X5231967Y-18238008D02*
X5222444Y-18247531D01*
X5222444Y-18247531D02*
X5212920Y-18266579D01*
X5212920Y-18266579D02*
X5212920Y-18314198D01*
X5212920Y-18314198D02*
X5222444Y-18333246D01*
X5222444Y-18333246D02*
X5231967Y-18342770D01*
X5231967Y-18342770D02*
X5251015Y-18352293D01*
X5251015Y-18352293D02*
X5289110Y-18352293D01*
X5289110Y-18352293D02*
X5308158Y-18342770D01*
X5308158Y-18342770D02*
X5317682Y-18333246D01*
X5317682Y-18333246D02*
X5327205Y-18314198D01*
X5412920Y-18428484D02*
X5412920Y-18295150D01*
X5412920Y-18314198D02*
X5422444Y-18304674D01*
X5422444Y-18304674D02*
X5441491Y-18295150D01*
X5441491Y-18295150D02*
X5470063Y-18295150D01*
X5470063Y-18295150D02*
X5489110Y-18304674D01*
X5489110Y-18304674D02*
X5498634Y-18323722D01*
X5498634Y-18323722D02*
X5498634Y-18428484D01*
X5498634Y-18323722D02*
X5508158Y-18304674D01*
X5508158Y-18304674D02*
X5527205Y-18295150D01*
X5527205Y-18295150D02*
X5555777Y-18295150D01*
X5555777Y-18295150D02*
X5574825Y-18304674D01*
X5574825Y-18304674D02*
X5584348Y-18323722D01*
X5584348Y-18323722D02*
X5584348Y-18428484D01*
X5679586Y-18428484D02*
X5679586Y-18295150D01*
X5679586Y-18314198D02*
X5689110Y-18304674D01*
X5689110Y-18304674D02*
X5708158Y-18295150D01*
X5708158Y-18295150D02*
X5736729Y-18295150D01*
X5736729Y-18295150D02*
X5755777Y-18304674D01*
X5755777Y-18304674D02*
X5765301Y-18323722D01*
X5765301Y-18323722D02*
X5765301Y-18428484D01*
X5765301Y-18323722D02*
X5774824Y-18304674D01*
X5774824Y-18304674D02*
X5793872Y-18295150D01*
X5793872Y-18295150D02*
X5822443Y-18295150D01*
X5822443Y-18295150D02*
X5841491Y-18304674D01*
X5841491Y-18304674D02*
X5851015Y-18323722D01*
X5851015Y-18323722D02*
X5851015Y-18428484D01*
X6241491Y-18218960D02*
X6070063Y-18476103D01*
X6498634Y-18228484D02*
X6517682Y-18228484D01*
X6517682Y-18228484D02*
X6536729Y-18238008D01*
X6536729Y-18238008D02*
X6546253Y-18247531D01*
X6546253Y-18247531D02*
X6555777Y-18266579D01*
X6555777Y-18266579D02*
X6565301Y-18304674D01*
X6565301Y-18304674D02*
X6565301Y-18352293D01*
X6565301Y-18352293D02*
X6555777Y-18390389D01*
X6555777Y-18390389D02*
X6546253Y-18409436D01*
X6546253Y-18409436D02*
X6536729Y-18418960D01*
X6536729Y-18418960D02*
X6517682Y-18428484D01*
X6517682Y-18428484D02*
X6498634Y-18428484D01*
X6498634Y-18428484D02*
X6479586Y-18418960D01*
X6479586Y-18418960D02*
X6470063Y-18409436D01*
X6470063Y-18409436D02*
X6460539Y-18390389D01*
X6460539Y-18390389D02*
X6451015Y-18352293D01*
X6451015Y-18352293D02*
X6451015Y-18304674D01*
X6451015Y-18304674D02*
X6460539Y-18266579D01*
X6460539Y-18266579D02*
X6470063Y-18247531D01*
X6470063Y-18247531D02*
X6479586Y-18238008D01*
X6479586Y-18238008D02*
X6498634Y-18228484D01*
X6651015Y-18409436D02*
X6660539Y-18418960D01*
X6660539Y-18418960D02*
X6651015Y-18428484D01*
X6651015Y-18428484D02*
X6641491Y-18418960D01*
X6641491Y-18418960D02*
X6651015Y-18409436D01*
X6651015Y-18409436D02*
X6651015Y-18428484D01*
X6784348Y-18228484D02*
X6803396Y-18228484D01*
X6803396Y-18228484D02*
X6822444Y-18238008D01*
X6822444Y-18238008D02*
X6831967Y-18247531D01*
X6831967Y-18247531D02*
X6841491Y-18266579D01*
X6841491Y-18266579D02*
X6851015Y-18304674D01*
X6851015Y-18304674D02*
X6851015Y-18352293D01*
X6851015Y-18352293D02*
X6841491Y-18390389D01*
X6841491Y-18390389D02*
X6831967Y-18409436D01*
X6831967Y-18409436D02*
X6822444Y-18418960D01*
X6822444Y-18418960D02*
X6803396Y-18428484D01*
X6803396Y-18428484D02*
X6784348Y-18428484D01*
X6784348Y-18428484D02*
X6765301Y-18418960D01*
X6765301Y-18418960D02*
X6755777Y-18409436D01*
X6755777Y-18409436D02*
X6746253Y-18390389D01*
X6746253Y-18390389D02*
X6736729Y-18352293D01*
X6736729Y-18352293D02*
X6736729Y-18304674D01*
X6736729Y-18304674D02*
X6746253Y-18266579D01*
X6746253Y-18266579D02*
X6755777Y-18247531D01*
X6755777Y-18247531D02*
X6765301Y-18238008D01*
X6765301Y-18238008D02*
X6784348Y-18228484D01*
X6917682Y-18228484D02*
X7041491Y-18228484D01*
X7041491Y-18228484D02*
X6974825Y-18304674D01*
X6974825Y-18304674D02*
X7003396Y-18304674D01*
X7003396Y-18304674D02*
X7022444Y-18314198D01*
X7022444Y-18314198D02*
X7031967Y-18323722D01*
X7031967Y-18323722D02*
X7041491Y-18342770D01*
X7041491Y-18342770D02*
X7041491Y-18390389D01*
X7041491Y-18390389D02*
X7031967Y-18409436D01*
X7031967Y-18409436D02*
X7022444Y-18418960D01*
X7022444Y-18418960D02*
X7003396Y-18428484D01*
X7003396Y-18428484D02*
X6946253Y-18428484D01*
X6946253Y-18428484D02*
X6927206Y-18418960D01*
X6927206Y-18418960D02*
X6917682Y-18409436D01*
X7222444Y-18228484D02*
X7127206Y-18228484D01*
X7127206Y-18228484D02*
X7117682Y-18323722D01*
X7117682Y-18323722D02*
X7127206Y-18314198D01*
X7127206Y-18314198D02*
X7146253Y-18304674D01*
X7146253Y-18304674D02*
X7193872Y-18304674D01*
X7193872Y-18304674D02*
X7212920Y-18314198D01*
X7212920Y-18314198D02*
X7222444Y-18323722D01*
X7222444Y-18323722D02*
X7231967Y-18342770D01*
X7231967Y-18342770D02*
X7231967Y-18390389D01*
X7231967Y-18390389D02*
X7222444Y-18409436D01*
X7222444Y-18409436D02*
X7212920Y-18418960D01*
X7212920Y-18418960D02*
X7193872Y-18428484D01*
X7193872Y-18428484D02*
X7146253Y-18428484D01*
X7146253Y-18428484D02*
X7127206Y-18418960D01*
X7127206Y-18418960D02*
X7117682Y-18409436D01*
X7355777Y-18228484D02*
X7374825Y-18228484D01*
X7374825Y-18228484D02*
X7393872Y-18238008D01*
X7393872Y-18238008D02*
X7403396Y-18247531D01*
X7403396Y-18247531D02*
X7412920Y-18266579D01*
X7412920Y-18266579D02*
X7422444Y-18304674D01*
X7422444Y-18304674D02*
X7422444Y-18352293D01*
X7422444Y-18352293D02*
X7412920Y-18390389D01*
X7412920Y-18390389D02*
X7403396Y-18409436D01*
X7403396Y-18409436D02*
X7393872Y-18418960D01*
X7393872Y-18418960D02*
X7374825Y-18428484D01*
X7374825Y-18428484D02*
X7355777Y-18428484D01*
X7355777Y-18428484D02*
X7336729Y-18418960D01*
X7336729Y-18418960D02*
X7327206Y-18409436D01*
X7327206Y-18409436D02*
X7317682Y-18390389D01*
X7317682Y-18390389D02*
X7308158Y-18352293D01*
X7308158Y-18352293D02*
X7308158Y-18304674D01*
X7308158Y-18304674D02*
X7317682Y-18266579D01*
X7317682Y-18266579D02*
X7327206Y-18247531D01*
X7327206Y-18247531D02*
X7336729Y-18238008D01*
X7336729Y-18238008D02*
X7355777Y-18228484D01*
X7498634Y-18228484D02*
X7498634Y-18266579D01*
X7574825Y-18228484D02*
X7574825Y-18266579D01*
X7870063Y-18504674D02*
X7860539Y-18495150D01*
X7860539Y-18495150D02*
X7841491Y-18466579D01*
X7841491Y-18466579D02*
X7831968Y-18447531D01*
X7831968Y-18447531D02*
X7822444Y-18418960D01*
X7822444Y-18418960D02*
X7812920Y-18371341D01*
X7812920Y-18371341D02*
X7812920Y-18333246D01*
X7812920Y-18333246D02*
X7822444Y-18285627D01*
X7822444Y-18285627D02*
X7831968Y-18257055D01*
X7831968Y-18257055D02*
X7841491Y-18238008D01*
X7841491Y-18238008D02*
X7860539Y-18209436D01*
X7860539Y-18209436D02*
X7870063Y-18199912D01*
X7936729Y-18247531D02*
X7946253Y-18238008D01*
X7946253Y-18238008D02*
X7965301Y-18228484D01*
X7965301Y-18228484D02*
X8012920Y-18228484D01*
X8012920Y-18228484D02*
X8031968Y-18238008D01*
X8031968Y-18238008D02*
X8041491Y-18247531D01*
X8041491Y-18247531D02*
X8051015Y-18266579D01*
X8051015Y-18266579D02*
X8051015Y-18285627D01*
X8051015Y-18285627D02*
X8041491Y-18314198D01*
X8041491Y-18314198D02*
X7927206Y-18428484D01*
X7927206Y-18428484D02*
X8051015Y-18428484D01*
X8289110Y-18428484D02*
X8289110Y-18228484D01*
X8374825Y-18428484D02*
X8374825Y-18323722D01*
X8374825Y-18323722D02*
X8365301Y-18304674D01*
X8365301Y-18304674D02*
X8346253Y-18295150D01*
X8346253Y-18295150D02*
X8317682Y-18295150D01*
X8317682Y-18295150D02*
X8298634Y-18304674D01*
X8298634Y-18304674D02*
X8289110Y-18314198D01*
X8498634Y-18428484D02*
X8479587Y-18418960D01*
X8479587Y-18418960D02*
X8470063Y-18409436D01*
X8470063Y-18409436D02*
X8460539Y-18390389D01*
X8460539Y-18390389D02*
X8460539Y-18333246D01*
X8460539Y-18333246D02*
X8470063Y-18314198D01*
X8470063Y-18314198D02*
X8479587Y-18304674D01*
X8479587Y-18304674D02*
X8498634Y-18295150D01*
X8498634Y-18295150D02*
X8527206Y-18295150D01*
X8527206Y-18295150D02*
X8546253Y-18304674D01*
X8546253Y-18304674D02*
X8555777Y-18314198D01*
X8555777Y-18314198D02*
X8565301Y-18333246D01*
X8565301Y-18333246D02*
X8565301Y-18390389D01*
X8565301Y-18390389D02*
X8555777Y-18409436D01*
X8555777Y-18409436D02*
X8546253Y-18418960D01*
X8546253Y-18418960D02*
X8527206Y-18428484D01*
X8527206Y-18428484D02*
X8498634Y-18428484D01*
X8679587Y-18428484D02*
X8660539Y-18418960D01*
X8660539Y-18418960D02*
X8651015Y-18399912D01*
X8651015Y-18399912D02*
X8651015Y-18228484D01*
X8831968Y-18418960D02*
X8812920Y-18428484D01*
X8812920Y-18428484D02*
X8774825Y-18428484D01*
X8774825Y-18428484D02*
X8755777Y-18418960D01*
X8755777Y-18418960D02*
X8746253Y-18399912D01*
X8746253Y-18399912D02*
X8746253Y-18323722D01*
X8746253Y-18323722D02*
X8755777Y-18304674D01*
X8755777Y-18304674D02*
X8774825Y-18295150D01*
X8774825Y-18295150D02*
X8812920Y-18295150D01*
X8812920Y-18295150D02*
X8831968Y-18304674D01*
X8831968Y-18304674D02*
X8841492Y-18323722D01*
X8841492Y-18323722D02*
X8841492Y-18342770D01*
X8841492Y-18342770D02*
X8746253Y-18361817D01*
X8917682Y-18418960D02*
X8936730Y-18428484D01*
X8936730Y-18428484D02*
X8974825Y-18428484D01*
X8974825Y-18428484D02*
X8993873Y-18418960D01*
X8993873Y-18418960D02*
X9003396Y-18399912D01*
X9003396Y-18399912D02*
X9003396Y-18390389D01*
X9003396Y-18390389D02*
X8993873Y-18371341D01*
X8993873Y-18371341D02*
X8974825Y-18361817D01*
X8974825Y-18361817D02*
X8946253Y-18361817D01*
X8946253Y-18361817D02*
X8927206Y-18352293D01*
X8927206Y-18352293D02*
X8917682Y-18333246D01*
X8917682Y-18333246D02*
X8917682Y-18323722D01*
X8917682Y-18323722D02*
X8927206Y-18304674D01*
X8927206Y-18304674D02*
X8946253Y-18295150D01*
X8946253Y-18295150D02*
X8974825Y-18295150D01*
X8974825Y-18295150D02*
X8993873Y-18304674D01*
X9070063Y-18504674D02*
X9079587Y-18495150D01*
X9079587Y-18495150D02*
X9098634Y-18466579D01*
X9098634Y-18466579D02*
X9108158Y-18447531D01*
X9108158Y-18447531D02*
X9117682Y-18418960D01*
X9117682Y-18418960D02*
X9127206Y-18371341D01*
X9127206Y-18371341D02*
X9127206Y-18333246D01*
X9127206Y-18333246D02*
X9117682Y-18285627D01*
X9117682Y-18285627D02*
X9108158Y-18257055D01*
X9108158Y-18257055D02*
X9098634Y-18238008D01*
X9098634Y-18238008D02*
X9079587Y-18209436D01*
X9079587Y-18209436D02*
X9070063Y-18199912D01*
D10*
X4245000Y-18651000D02*
X4295000Y-18601000D01*
X4245000Y-18551000D01*
X4195000Y-18601000D01*
X4245000Y-18651000D01*
D11*
X4660539Y-18692484D02*
X4546253Y-18692484D01*
X4603396Y-18692484D02*
X4603396Y-18492484D01*
X4603396Y-18492484D02*
X4584348Y-18521055D01*
X4584348Y-18521055D02*
X4565301Y-18540103D01*
X4565301Y-18540103D02*
X4546253Y-18549627D01*
X4746253Y-18673436D02*
X4755777Y-18682960D01*
X4755777Y-18682960D02*
X4746253Y-18692484D01*
X4746253Y-18692484D02*
X4736729Y-18682960D01*
X4736729Y-18682960D02*
X4746253Y-18673436D01*
X4746253Y-18673436D02*
X4746253Y-18692484D01*
X4879586Y-18492484D02*
X4898634Y-18492484D01*
X4898634Y-18492484D02*
X4917682Y-18502008D01*
X4917682Y-18502008D02*
X4927205Y-18511531D01*
X4927205Y-18511531D02*
X4936729Y-18530579D01*
X4936729Y-18530579D02*
X4946253Y-18568674D01*
X4946253Y-18568674D02*
X4946253Y-18616293D01*
X4946253Y-18616293D02*
X4936729Y-18654389D01*
X4936729Y-18654389D02*
X4927205Y-18673436D01*
X4927205Y-18673436D02*
X4917682Y-18682960D01*
X4917682Y-18682960D02*
X4898634Y-18692484D01*
X4898634Y-18692484D02*
X4879586Y-18692484D01*
X4879586Y-18692484D02*
X4860539Y-18682960D01*
X4860539Y-18682960D02*
X4851015Y-18673436D01*
X4851015Y-18673436D02*
X4841491Y-18654389D01*
X4841491Y-18654389D02*
X4831967Y-18616293D01*
X4831967Y-18616293D02*
X4831967Y-18568674D01*
X4831967Y-18568674D02*
X4841491Y-18530579D01*
X4841491Y-18530579D02*
X4851015Y-18511531D01*
X4851015Y-18511531D02*
X4860539Y-18502008D01*
X4860539Y-18502008D02*
X4879586Y-18492484D01*
X5070063Y-18492484D02*
X5089110Y-18492484D01*
X5089110Y-18492484D02*
X5108158Y-18502008D01*
X5108158Y-18502008D02*
X5117682Y-18511531D01*
X5117682Y-18511531D02*
X5127205Y-18530579D01*
X5127205Y-18530579D02*
X5136729Y-18568674D01*
X5136729Y-18568674D02*
X5136729Y-18616293D01*
X5136729Y-18616293D02*
X5127205Y-18654389D01*
X5127205Y-18654389D02*
X5117682Y-18673436D01*
X5117682Y-18673436D02*
X5108158Y-18682960D01*
X5108158Y-18682960D02*
X5089110Y-18692484D01*
X5089110Y-18692484D02*
X5070063Y-18692484D01*
X5070063Y-18692484D02*
X5051015Y-18682960D01*
X5051015Y-18682960D02*
X5041491Y-18673436D01*
X5041491Y-18673436D02*
X5031967Y-18654389D01*
X5031967Y-18654389D02*
X5022444Y-18616293D01*
X5022444Y-18616293D02*
X5022444Y-18568674D01*
X5022444Y-18568674D02*
X5031967Y-18530579D01*
X5031967Y-18530579D02*
X5041491Y-18511531D01*
X5041491Y-18511531D02*
X5051015Y-18502008D01*
X5051015Y-18502008D02*
X5070063Y-18492484D01*
X5260539Y-18492484D02*
X5279586Y-18492484D01*
X5279586Y-18492484D02*
X5298634Y-18502008D01*
X5298634Y-18502008D02*
X5308158Y-18511531D01*
X5308158Y-18511531D02*
X5317682Y-18530579D01*
X5317682Y-18530579D02*
X5327205Y-18568674D01*
X5327205Y-18568674D02*
X5327205Y-18616293D01*
X5327205Y-18616293D02*
X5317682Y-18654389D01*
X5317682Y-18654389D02*
X5308158Y-18673436D01*
X5308158Y-18673436D02*
X5298634Y-18682960D01*
X5298634Y-18682960D02*
X5279586Y-18692484D01*
X5279586Y-18692484D02*
X5260539Y-18692484D01*
X5260539Y-18692484D02*
X5241491Y-18682960D01*
X5241491Y-18682960D02*
X5231967Y-18673436D01*
X5231967Y-18673436D02*
X5222444Y-18654389D01*
X5222444Y-18654389D02*
X5212920Y-18616293D01*
X5212920Y-18616293D02*
X5212920Y-18568674D01*
X5212920Y-18568674D02*
X5222444Y-18530579D01*
X5222444Y-18530579D02*
X5231967Y-18511531D01*
X5231967Y-18511531D02*
X5241491Y-18502008D01*
X5241491Y-18502008D02*
X5260539Y-18492484D01*
X5412920Y-18692484D02*
X5412920Y-18559150D01*
X5412920Y-18578198D02*
X5422444Y-18568674D01*
X5422444Y-18568674D02*
X5441491Y-18559150D01*
X5441491Y-18559150D02*
X5470063Y-18559150D01*
X5470063Y-18559150D02*
X5489110Y-18568674D01*
X5489110Y-18568674D02*
X5498634Y-18587722D01*
X5498634Y-18587722D02*
X5498634Y-18692484D01*
X5498634Y-18587722D02*
X5508158Y-18568674D01*
X5508158Y-18568674D02*
X5527205Y-18559150D01*
X5527205Y-18559150D02*
X5555777Y-18559150D01*
X5555777Y-18559150D02*
X5574825Y-18568674D01*
X5574825Y-18568674D02*
X5584348Y-18587722D01*
X5584348Y-18587722D02*
X5584348Y-18692484D01*
X5679586Y-18692484D02*
X5679586Y-18559150D01*
X5679586Y-18578198D02*
X5689110Y-18568674D01*
X5689110Y-18568674D02*
X5708158Y-18559150D01*
X5708158Y-18559150D02*
X5736729Y-18559150D01*
X5736729Y-18559150D02*
X5755777Y-18568674D01*
X5755777Y-18568674D02*
X5765301Y-18587722D01*
X5765301Y-18587722D02*
X5765301Y-18692484D01*
X5765301Y-18587722D02*
X5774824Y-18568674D01*
X5774824Y-18568674D02*
X5793872Y-18559150D01*
X5793872Y-18559150D02*
X5822443Y-18559150D01*
X5822443Y-18559150D02*
X5841491Y-18568674D01*
X5841491Y-18568674D02*
X5851015Y-18587722D01*
X5851015Y-18587722D02*
X5851015Y-18692484D01*
X6241491Y-18482960D02*
X6070063Y-18740103D01*
X6498634Y-18492484D02*
X6517682Y-18492484D01*
X6517682Y-18492484D02*
X6536729Y-18502008D01*
X6536729Y-18502008D02*
X6546253Y-18511531D01*
X6546253Y-18511531D02*
X6555777Y-18530579D01*
X6555777Y-18530579D02*
X6565301Y-18568674D01*
X6565301Y-18568674D02*
X6565301Y-18616293D01*
X6565301Y-18616293D02*
X6555777Y-18654389D01*
X6555777Y-18654389D02*
X6546253Y-18673436D01*
X6546253Y-18673436D02*
X6536729Y-18682960D01*
X6536729Y-18682960D02*
X6517682Y-18692484D01*
X6517682Y-18692484D02*
X6498634Y-18692484D01*
X6498634Y-18692484D02*
X6479586Y-18682960D01*
X6479586Y-18682960D02*
X6470063Y-18673436D01*
X6470063Y-18673436D02*
X6460539Y-18654389D01*
X6460539Y-18654389D02*
X6451015Y-18616293D01*
X6451015Y-18616293D02*
X6451015Y-18568674D01*
X6451015Y-18568674D02*
X6460539Y-18530579D01*
X6460539Y-18530579D02*
X6470063Y-18511531D01*
X6470063Y-18511531D02*
X6479586Y-18502008D01*
X6479586Y-18502008D02*
X6498634Y-18492484D01*
X6651015Y-18673436D02*
X6660539Y-18682960D01*
X6660539Y-18682960D02*
X6651015Y-18692484D01*
X6651015Y-18692484D02*
X6641491Y-18682960D01*
X6641491Y-18682960D02*
X6651015Y-18673436D01*
X6651015Y-18673436D02*
X6651015Y-18692484D01*
X6784348Y-18492484D02*
X6803396Y-18492484D01*
X6803396Y-18492484D02*
X6822444Y-18502008D01*
X6822444Y-18502008D02*
X6831967Y-18511531D01*
X6831967Y-18511531D02*
X6841491Y-18530579D01*
X6841491Y-18530579D02*
X6851015Y-18568674D01*
X6851015Y-18568674D02*
X6851015Y-18616293D01*
X6851015Y-18616293D02*
X6841491Y-18654389D01*
X6841491Y-18654389D02*
X6831967Y-18673436D01*
X6831967Y-18673436D02*
X6822444Y-18682960D01*
X6822444Y-18682960D02*
X6803396Y-18692484D01*
X6803396Y-18692484D02*
X6784348Y-18692484D01*
X6784348Y-18692484D02*
X6765301Y-18682960D01*
X6765301Y-18682960D02*
X6755777Y-18673436D01*
X6755777Y-18673436D02*
X6746253Y-18654389D01*
X6746253Y-18654389D02*
X6736729Y-18616293D01*
X6736729Y-18616293D02*
X6736729Y-18568674D01*
X6736729Y-18568674D02*
X6746253Y-18530579D01*
X6746253Y-18530579D02*
X6755777Y-18511531D01*
X6755777Y-18511531D02*
X6765301Y-18502008D01*
X6765301Y-18502008D02*
X6784348Y-18492484D01*
X6917682Y-18492484D02*
X7041491Y-18492484D01*
X7041491Y-18492484D02*
X6974825Y-18568674D01*
X6974825Y-18568674D02*
X7003396Y-18568674D01*
X7003396Y-18568674D02*
X7022444Y-18578198D01*
X7022444Y-18578198D02*
X7031967Y-18587722D01*
X7031967Y-18587722D02*
X7041491Y-18606770D01*
X7041491Y-18606770D02*
X7041491Y-18654389D01*
X7041491Y-18654389D02*
X7031967Y-18673436D01*
X7031967Y-18673436D02*
X7022444Y-18682960D01*
X7022444Y-18682960D02*
X7003396Y-18692484D01*
X7003396Y-18692484D02*
X6946253Y-18692484D01*
X6946253Y-18692484D02*
X6927206Y-18682960D01*
X6927206Y-18682960D02*
X6917682Y-18673436D01*
X7136729Y-18692484D02*
X7174825Y-18692484D01*
X7174825Y-18692484D02*
X7193872Y-18682960D01*
X7193872Y-18682960D02*
X7203396Y-18673436D01*
X7203396Y-18673436D02*
X7222444Y-18644865D01*
X7222444Y-18644865D02*
X7231967Y-18606770D01*
X7231967Y-18606770D02*
X7231967Y-18530579D01*
X7231967Y-18530579D02*
X7222444Y-18511531D01*
X7222444Y-18511531D02*
X7212920Y-18502008D01*
X7212920Y-18502008D02*
X7193872Y-18492484D01*
X7193872Y-18492484D02*
X7155777Y-18492484D01*
X7155777Y-18492484D02*
X7136729Y-18502008D01*
X7136729Y-18502008D02*
X7127206Y-18511531D01*
X7127206Y-18511531D02*
X7117682Y-18530579D01*
X7117682Y-18530579D02*
X7117682Y-18578198D01*
X7117682Y-18578198D02*
X7127206Y-18597246D01*
X7127206Y-18597246D02*
X7136729Y-18606770D01*
X7136729Y-18606770D02*
X7155777Y-18616293D01*
X7155777Y-18616293D02*
X7193872Y-18616293D01*
X7193872Y-18616293D02*
X7212920Y-18606770D01*
X7212920Y-18606770D02*
X7222444Y-18597246D01*
X7222444Y-18597246D02*
X7231967Y-18578198D01*
X7403396Y-18559150D02*
X7403396Y-18692484D01*
X7355777Y-18482960D02*
X7308158Y-18625817D01*
X7308158Y-18625817D02*
X7431967Y-18625817D01*
X7498634Y-18492484D02*
X7498634Y-18530579D01*
X7574825Y-18492484D02*
X7574825Y-18530579D01*
X7870063Y-18768674D02*
X7860539Y-18759150D01*
X7860539Y-18759150D02*
X7841491Y-18730579D01*
X7841491Y-18730579D02*
X7831968Y-18711531D01*
X7831968Y-18711531D02*
X7822444Y-18682960D01*
X7822444Y-18682960D02*
X7812920Y-18635341D01*
X7812920Y-18635341D02*
X7812920Y-18597246D01*
X7812920Y-18597246D02*
X7822444Y-18549627D01*
X7822444Y-18549627D02*
X7831968Y-18521055D01*
X7831968Y-18521055D02*
X7841491Y-18502008D01*
X7841491Y-18502008D02*
X7860539Y-18473436D01*
X7860539Y-18473436D02*
X7870063Y-18463912D01*
X8031968Y-18559150D02*
X8031968Y-18692484D01*
X7984348Y-18482960D02*
X7936729Y-18625817D01*
X7936729Y-18625817D02*
X8060539Y-18625817D01*
X8146253Y-18692484D02*
X8184348Y-18692484D01*
X8184348Y-18692484D02*
X8203396Y-18682960D01*
X8203396Y-18682960D02*
X8212920Y-18673436D01*
X8212920Y-18673436D02*
X8231968Y-18644865D01*
X8231968Y-18644865D02*
X8241491Y-18606770D01*
X8241491Y-18606770D02*
X8241491Y-18530579D01*
X8241491Y-18530579D02*
X8231968Y-18511531D01*
X8231968Y-18511531D02*
X8222444Y-18502008D01*
X8222444Y-18502008D02*
X8203396Y-18492484D01*
X8203396Y-18492484D02*
X8165301Y-18492484D01*
X8165301Y-18492484D02*
X8146253Y-18502008D01*
X8146253Y-18502008D02*
X8136729Y-18511531D01*
X8136729Y-18511531D02*
X8127206Y-18530579D01*
X8127206Y-18530579D02*
X8127206Y-18578198D01*
X8127206Y-18578198D02*
X8136729Y-18597246D01*
X8136729Y-18597246D02*
X8146253Y-18606770D01*
X8146253Y-18606770D02*
X8165301Y-18616293D01*
X8165301Y-18616293D02*
X8203396Y-18616293D01*
X8203396Y-18616293D02*
X8222444Y-18606770D01*
X8222444Y-18606770D02*
X8231968Y-18597246D01*
X8231968Y-18597246D02*
X8241491Y-18578198D01*
X8479587Y-18692484D02*
X8479587Y-18492484D01*
X8565301Y-18692484D02*
X8565301Y-18587722D01*
X8565301Y-18587722D02*
X8555777Y-18568674D01*
X8555777Y-18568674D02*
X8536730Y-18559150D01*
X8536730Y-18559150D02*
X8508158Y-18559150D01*
X8508158Y-18559150D02*
X8489111Y-18568674D01*
X8489111Y-18568674D02*
X8479587Y-18578198D01*
X8689111Y-18692484D02*
X8670063Y-18682960D01*
X8670063Y-18682960D02*
X8660539Y-18673436D01*
X8660539Y-18673436D02*
X8651015Y-18654389D01*
X8651015Y-18654389D02*
X8651015Y-18597246D01*
X8651015Y-18597246D02*
X8660539Y-18578198D01*
X8660539Y-18578198D02*
X8670063Y-18568674D01*
X8670063Y-18568674D02*
X8689111Y-18559150D01*
X8689111Y-18559150D02*
X8717682Y-18559150D01*
X8717682Y-18559150D02*
X8736730Y-18568674D01*
X8736730Y-18568674D02*
X8746253Y-18578198D01*
X8746253Y-18578198D02*
X8755777Y-18597246D01*
X8755777Y-18597246D02*
X8755777Y-18654389D01*
X8755777Y-18654389D02*
X8746253Y-18673436D01*
X8746253Y-18673436D02*
X8736730Y-18682960D01*
X8736730Y-18682960D02*
X8717682Y-18692484D01*
X8717682Y-18692484D02*
X8689111Y-18692484D01*
X8870063Y-18692484D02*
X8851015Y-18682960D01*
X8851015Y-18682960D02*
X8841492Y-18663912D01*
X8841492Y-18663912D02*
X8841492Y-18492484D01*
X9022444Y-18682960D02*
X9003396Y-18692484D01*
X9003396Y-18692484D02*
X8965301Y-18692484D01*
X8965301Y-18692484D02*
X8946253Y-18682960D01*
X8946253Y-18682960D02*
X8936730Y-18663912D01*
X8936730Y-18663912D02*
X8936730Y-18587722D01*
X8936730Y-18587722D02*
X8946253Y-18568674D01*
X8946253Y-18568674D02*
X8965301Y-18559150D01*
X8965301Y-18559150D02*
X9003396Y-18559150D01*
X9003396Y-18559150D02*
X9022444Y-18568674D01*
X9022444Y-18568674D02*
X9031968Y-18587722D01*
X9031968Y-18587722D02*
X9031968Y-18606770D01*
X9031968Y-18606770D02*
X8936730Y-18625817D01*
X9108158Y-18682960D02*
X9127206Y-18692484D01*
X9127206Y-18692484D02*
X9165301Y-18692484D01*
X9165301Y-18692484D02*
X9184349Y-18682960D01*
X9184349Y-18682960D02*
X9193873Y-18663912D01*
X9193873Y-18663912D02*
X9193873Y-18654389D01*
X9193873Y-18654389D02*
X9184349Y-18635341D01*
X9184349Y-18635341D02*
X9165301Y-18625817D01*
X9165301Y-18625817D02*
X9136730Y-18625817D01*
X9136730Y-18625817D02*
X9117682Y-18616293D01*
X9117682Y-18616293D02*
X9108158Y-18597246D01*
X9108158Y-18597246D02*
X9108158Y-18587722D01*
X9108158Y-18587722D02*
X9117682Y-18568674D01*
X9117682Y-18568674D02*
X9136730Y-18559150D01*
X9136730Y-18559150D02*
X9165301Y-18559150D01*
X9165301Y-18559150D02*
X9184349Y-18568674D01*
X9260539Y-18768674D02*
X9270063Y-18759150D01*
X9270063Y-18759150D02*
X9289111Y-18730579D01*
X9289111Y-18730579D02*
X9298634Y-18711531D01*
X9298634Y-18711531D02*
X9308158Y-18682960D01*
X9308158Y-18682960D02*
X9317682Y-18635341D01*
X9317682Y-18635341D02*
X9317682Y-18597246D01*
X9317682Y-18597246D02*
X9308158Y-18549627D01*
X9308158Y-18549627D02*
X9298634Y-18521055D01*
X9298634Y-18521055D02*
X9289111Y-18502008D01*
X9289111Y-18502008D02*
X9270063Y-18473436D01*
X9270063Y-18473436D02*
X9260539Y-18463912D01*
D12*
X4155300Y-18795150D02*
X4295000Y-18934850D01*
X4295000Y-18795150D02*
X4155300Y-18934850D01*
X4295000Y-18865000D02*
G75*
G02*
X4155300Y-18865000I-69850J0D01*
G01*
X4155300Y-18865000D02*
G75*
G02*
X4295000Y-18865000I69850J0D01*
G01*
D11*
X4660539Y-18956484D02*
X4546253Y-18956484D01*
X4603396Y-18956484D02*
X4603396Y-18756484D01*
X4603396Y-18756484D02*
X4584348Y-18785055D01*
X4584348Y-18785055D02*
X4565301Y-18804103D01*
X4565301Y-18804103D02*
X4546253Y-18813627D01*
X4746253Y-18937436D02*
X4755777Y-18946960D01*
X4755777Y-18946960D02*
X4746253Y-18956484D01*
X4746253Y-18956484D02*
X4736729Y-18946960D01*
X4736729Y-18946960D02*
X4746253Y-18937436D01*
X4746253Y-18937436D02*
X4746253Y-18956484D01*
X4822444Y-18756484D02*
X4946253Y-18756484D01*
X4946253Y-18756484D02*
X4879586Y-18832674D01*
X4879586Y-18832674D02*
X4908158Y-18832674D01*
X4908158Y-18832674D02*
X4927205Y-18842198D01*
X4927205Y-18842198D02*
X4936729Y-18851722D01*
X4936729Y-18851722D02*
X4946253Y-18870770D01*
X4946253Y-18870770D02*
X4946253Y-18918389D01*
X4946253Y-18918389D02*
X4936729Y-18937436D01*
X4936729Y-18937436D02*
X4927205Y-18946960D01*
X4927205Y-18946960D02*
X4908158Y-18956484D01*
X4908158Y-18956484D02*
X4851015Y-18956484D01*
X4851015Y-18956484D02*
X4831967Y-18946960D01*
X4831967Y-18946960D02*
X4822444Y-18937436D01*
X5041491Y-18956484D02*
X5079586Y-18956484D01*
X5079586Y-18956484D02*
X5098634Y-18946960D01*
X5098634Y-18946960D02*
X5108158Y-18937436D01*
X5108158Y-18937436D02*
X5127205Y-18908865D01*
X5127205Y-18908865D02*
X5136729Y-18870770D01*
X5136729Y-18870770D02*
X5136729Y-18794579D01*
X5136729Y-18794579D02*
X5127205Y-18775531D01*
X5127205Y-18775531D02*
X5117682Y-18766008D01*
X5117682Y-18766008D02*
X5098634Y-18756484D01*
X5098634Y-18756484D02*
X5060539Y-18756484D01*
X5060539Y-18756484D02*
X5041491Y-18766008D01*
X5041491Y-18766008D02*
X5031967Y-18775531D01*
X5031967Y-18775531D02*
X5022444Y-18794579D01*
X5022444Y-18794579D02*
X5022444Y-18842198D01*
X5022444Y-18842198D02*
X5031967Y-18861246D01*
X5031967Y-18861246D02*
X5041491Y-18870770D01*
X5041491Y-18870770D02*
X5060539Y-18880293D01*
X5060539Y-18880293D02*
X5098634Y-18880293D01*
X5098634Y-18880293D02*
X5117682Y-18870770D01*
X5117682Y-18870770D02*
X5127205Y-18861246D01*
X5127205Y-18861246D02*
X5136729Y-18842198D01*
X5203396Y-18756484D02*
X5336729Y-18756484D01*
X5336729Y-18756484D02*
X5251015Y-18956484D01*
X5412920Y-18956484D02*
X5412920Y-18823150D01*
X5412920Y-18842198D02*
X5422444Y-18832674D01*
X5422444Y-18832674D02*
X5441491Y-18823150D01*
X5441491Y-18823150D02*
X5470063Y-18823150D01*
X5470063Y-18823150D02*
X5489110Y-18832674D01*
X5489110Y-18832674D02*
X5498634Y-18851722D01*
X5498634Y-18851722D02*
X5498634Y-18956484D01*
X5498634Y-18851722D02*
X5508158Y-18832674D01*
X5508158Y-18832674D02*
X5527205Y-18823150D01*
X5527205Y-18823150D02*
X5555777Y-18823150D01*
X5555777Y-18823150D02*
X5574825Y-18832674D01*
X5574825Y-18832674D02*
X5584348Y-18851722D01*
X5584348Y-18851722D02*
X5584348Y-18956484D01*
X5679586Y-18956484D02*
X5679586Y-18823150D01*
X5679586Y-18842198D02*
X5689110Y-18832674D01*
X5689110Y-18832674D02*
X5708158Y-18823150D01*
X5708158Y-18823150D02*
X5736729Y-18823150D01*
X5736729Y-18823150D02*
X5755777Y-18832674D01*
X5755777Y-18832674D02*
X5765301Y-18851722D01*
X5765301Y-18851722D02*
X5765301Y-18956484D01*
X5765301Y-18851722D02*
X5774824Y-18832674D01*
X5774824Y-18832674D02*
X5793872Y-18823150D01*
X5793872Y-18823150D02*
X5822443Y-18823150D01*
X5822443Y-18823150D02*
X5841491Y-18832674D01*
X5841491Y-18832674D02*
X5851015Y-18851722D01*
X5851015Y-18851722D02*
X5851015Y-18956484D01*
X6241491Y-18746960D02*
X6070063Y-19004103D01*
X6498634Y-18756484D02*
X6517682Y-18756484D01*
X6517682Y-18756484D02*
X6536729Y-18766008D01*
X6536729Y-18766008D02*
X6546253Y-18775531D01*
X6546253Y-18775531D02*
X6555777Y-18794579D01*
X6555777Y-18794579D02*
X6565301Y-18832674D01*
X6565301Y-18832674D02*
X6565301Y-18880293D01*
X6565301Y-18880293D02*
X6555777Y-18918389D01*
X6555777Y-18918389D02*
X6546253Y-18937436D01*
X6546253Y-18937436D02*
X6536729Y-18946960D01*
X6536729Y-18946960D02*
X6517682Y-18956484D01*
X6517682Y-18956484D02*
X6498634Y-18956484D01*
X6498634Y-18956484D02*
X6479586Y-18946960D01*
X6479586Y-18946960D02*
X6470063Y-18937436D01*
X6470063Y-18937436D02*
X6460539Y-18918389D01*
X6460539Y-18918389D02*
X6451015Y-18880293D01*
X6451015Y-18880293D02*
X6451015Y-18832674D01*
X6451015Y-18832674D02*
X6460539Y-18794579D01*
X6460539Y-18794579D02*
X6470063Y-18775531D01*
X6470063Y-18775531D02*
X6479586Y-18766008D01*
X6479586Y-18766008D02*
X6498634Y-18756484D01*
X6651015Y-18937436D02*
X6660539Y-18946960D01*
X6660539Y-18946960D02*
X6651015Y-18956484D01*
X6651015Y-18956484D02*
X6641491Y-18946960D01*
X6641491Y-18946960D02*
X6651015Y-18937436D01*
X6651015Y-18937436D02*
X6651015Y-18956484D01*
X6784348Y-18756484D02*
X6803396Y-18756484D01*
X6803396Y-18756484D02*
X6822444Y-18766008D01*
X6822444Y-18766008D02*
X6831967Y-18775531D01*
X6831967Y-18775531D02*
X6841491Y-18794579D01*
X6841491Y-18794579D02*
X6851015Y-18832674D01*
X6851015Y-18832674D02*
X6851015Y-18880293D01*
X6851015Y-18880293D02*
X6841491Y-18918389D01*
X6841491Y-18918389D02*
X6831967Y-18937436D01*
X6831967Y-18937436D02*
X6822444Y-18946960D01*
X6822444Y-18946960D02*
X6803396Y-18956484D01*
X6803396Y-18956484D02*
X6784348Y-18956484D01*
X6784348Y-18956484D02*
X6765301Y-18946960D01*
X6765301Y-18946960D02*
X6755777Y-18937436D01*
X6755777Y-18937436D02*
X6746253Y-18918389D01*
X6746253Y-18918389D02*
X6736729Y-18880293D01*
X6736729Y-18880293D02*
X6736729Y-18832674D01*
X6736729Y-18832674D02*
X6746253Y-18794579D01*
X6746253Y-18794579D02*
X6755777Y-18775531D01*
X6755777Y-18775531D02*
X6765301Y-18766008D01*
X6765301Y-18766008D02*
X6784348Y-18756484D01*
X7031967Y-18756484D02*
X6936729Y-18756484D01*
X6936729Y-18756484D02*
X6927206Y-18851722D01*
X6927206Y-18851722D02*
X6936729Y-18842198D01*
X6936729Y-18842198D02*
X6955777Y-18832674D01*
X6955777Y-18832674D02*
X7003396Y-18832674D01*
X7003396Y-18832674D02*
X7022444Y-18842198D01*
X7022444Y-18842198D02*
X7031967Y-18851722D01*
X7031967Y-18851722D02*
X7041491Y-18870770D01*
X7041491Y-18870770D02*
X7041491Y-18918389D01*
X7041491Y-18918389D02*
X7031967Y-18937436D01*
X7031967Y-18937436D02*
X7022444Y-18946960D01*
X7022444Y-18946960D02*
X7003396Y-18956484D01*
X7003396Y-18956484D02*
X6955777Y-18956484D01*
X6955777Y-18956484D02*
X6936729Y-18946960D01*
X6936729Y-18946960D02*
X6927206Y-18937436D01*
X7222444Y-18756484D02*
X7127206Y-18756484D01*
X7127206Y-18756484D02*
X7117682Y-18851722D01*
X7117682Y-18851722D02*
X7127206Y-18842198D01*
X7127206Y-18842198D02*
X7146253Y-18832674D01*
X7146253Y-18832674D02*
X7193872Y-18832674D01*
X7193872Y-18832674D02*
X7212920Y-18842198D01*
X7212920Y-18842198D02*
X7222444Y-18851722D01*
X7222444Y-18851722D02*
X7231967Y-18870770D01*
X7231967Y-18870770D02*
X7231967Y-18918389D01*
X7231967Y-18918389D02*
X7222444Y-18937436D01*
X7222444Y-18937436D02*
X7212920Y-18946960D01*
X7212920Y-18946960D02*
X7193872Y-18956484D01*
X7193872Y-18956484D02*
X7146253Y-18956484D01*
X7146253Y-18956484D02*
X7127206Y-18946960D01*
X7127206Y-18946960D02*
X7117682Y-18937436D01*
X7355777Y-18756484D02*
X7374825Y-18756484D01*
X7374825Y-18756484D02*
X7393872Y-18766008D01*
X7393872Y-18766008D02*
X7403396Y-18775531D01*
X7403396Y-18775531D02*
X7412920Y-18794579D01*
X7412920Y-18794579D02*
X7422444Y-18832674D01*
X7422444Y-18832674D02*
X7422444Y-18880293D01*
X7422444Y-18880293D02*
X7412920Y-18918389D01*
X7412920Y-18918389D02*
X7403396Y-18937436D01*
X7403396Y-18937436D02*
X7393872Y-18946960D01*
X7393872Y-18946960D02*
X7374825Y-18956484D01*
X7374825Y-18956484D02*
X7355777Y-18956484D01*
X7355777Y-18956484D02*
X7336729Y-18946960D01*
X7336729Y-18946960D02*
X7327206Y-18937436D01*
X7327206Y-18937436D02*
X7317682Y-18918389D01*
X7317682Y-18918389D02*
X7308158Y-18880293D01*
X7308158Y-18880293D02*
X7308158Y-18832674D01*
X7308158Y-18832674D02*
X7317682Y-18794579D01*
X7317682Y-18794579D02*
X7327206Y-18775531D01*
X7327206Y-18775531D02*
X7336729Y-18766008D01*
X7336729Y-18766008D02*
X7355777Y-18756484D01*
X7498634Y-18756484D02*
X7498634Y-18794579D01*
X7574825Y-18756484D02*
X7574825Y-18794579D01*
X7870063Y-19032674D02*
X7860539Y-19023150D01*
X7860539Y-19023150D02*
X7841491Y-18994579D01*
X7841491Y-18994579D02*
X7831968Y-18975531D01*
X7831968Y-18975531D02*
X7822444Y-18946960D01*
X7822444Y-18946960D02*
X7812920Y-18899341D01*
X7812920Y-18899341D02*
X7812920Y-18861246D01*
X7812920Y-18861246D02*
X7822444Y-18813627D01*
X7822444Y-18813627D02*
X7831968Y-18785055D01*
X7831968Y-18785055D02*
X7841491Y-18766008D01*
X7841491Y-18766008D02*
X7860539Y-18737436D01*
X7860539Y-18737436D02*
X7870063Y-18727912D01*
X8031968Y-18823150D02*
X8031968Y-18956484D01*
X7984348Y-18746960D02*
X7936729Y-18889817D01*
X7936729Y-18889817D02*
X8060539Y-18889817D01*
X8165301Y-18842198D02*
X8146253Y-18832674D01*
X8146253Y-18832674D02*
X8136729Y-18823150D01*
X8136729Y-18823150D02*
X8127206Y-18804103D01*
X8127206Y-18804103D02*
X8127206Y-18794579D01*
X8127206Y-18794579D02*
X8136729Y-18775531D01*
X8136729Y-18775531D02*
X8146253Y-18766008D01*
X8146253Y-18766008D02*
X8165301Y-18756484D01*
X8165301Y-18756484D02*
X8203396Y-18756484D01*
X8203396Y-18756484D02*
X8222444Y-18766008D01*
X8222444Y-18766008D02*
X8231968Y-18775531D01*
X8231968Y-18775531D02*
X8241491Y-18794579D01*
X8241491Y-18794579D02*
X8241491Y-18804103D01*
X8241491Y-18804103D02*
X8231968Y-18823150D01*
X8231968Y-18823150D02*
X8222444Y-18832674D01*
X8222444Y-18832674D02*
X8203396Y-18842198D01*
X8203396Y-18842198D02*
X8165301Y-18842198D01*
X8165301Y-18842198D02*
X8146253Y-18851722D01*
X8146253Y-18851722D02*
X8136729Y-18861246D01*
X8136729Y-18861246D02*
X8127206Y-18880293D01*
X8127206Y-18880293D02*
X8127206Y-18918389D01*
X8127206Y-18918389D02*
X8136729Y-18937436D01*
X8136729Y-18937436D02*
X8146253Y-18946960D01*
X8146253Y-18946960D02*
X8165301Y-18956484D01*
X8165301Y-18956484D02*
X8203396Y-18956484D01*
X8203396Y-18956484D02*
X8222444Y-18946960D01*
X8222444Y-18946960D02*
X8231968Y-18937436D01*
X8231968Y-18937436D02*
X8241491Y-18918389D01*
X8241491Y-18918389D02*
X8241491Y-18880293D01*
X8241491Y-18880293D02*
X8231968Y-18861246D01*
X8231968Y-18861246D02*
X8222444Y-18851722D01*
X8222444Y-18851722D02*
X8203396Y-18842198D01*
X8479587Y-18956484D02*
X8479587Y-18756484D01*
X8565301Y-18956484D02*
X8565301Y-18851722D01*
X8565301Y-18851722D02*
X8555777Y-18832674D01*
X8555777Y-18832674D02*
X8536730Y-18823150D01*
X8536730Y-18823150D02*
X8508158Y-18823150D01*
X8508158Y-18823150D02*
X8489111Y-18832674D01*
X8489111Y-18832674D02*
X8479587Y-18842198D01*
X8689111Y-18956484D02*
X8670063Y-18946960D01*
X8670063Y-18946960D02*
X8660539Y-18937436D01*
X8660539Y-18937436D02*
X8651015Y-18918389D01*
X8651015Y-18918389D02*
X8651015Y-18861246D01*
X8651015Y-18861246D02*
X8660539Y-18842198D01*
X8660539Y-18842198D02*
X8670063Y-18832674D01*
X8670063Y-18832674D02*
X8689111Y-18823150D01*
X8689111Y-18823150D02*
X8717682Y-18823150D01*
X8717682Y-18823150D02*
X8736730Y-18832674D01*
X8736730Y-18832674D02*
X8746253Y-18842198D01*
X8746253Y-18842198D02*
X8755777Y-18861246D01*
X8755777Y-18861246D02*
X8755777Y-18918389D01*
X8755777Y-18918389D02*
X8746253Y-18937436D01*
X8746253Y-18937436D02*
X8736730Y-18946960D01*
X8736730Y-18946960D02*
X8717682Y-18956484D01*
X8717682Y-18956484D02*
X8689111Y-18956484D01*
X8870063Y-18956484D02*
X8851015Y-18946960D01*
X8851015Y-18946960D02*
X8841492Y-18927912D01*
X8841492Y-18927912D02*
X8841492Y-18756484D01*
X9022444Y-18946960D02*
X9003396Y-18956484D01*
X9003396Y-18956484D02*
X8965301Y-18956484D01*
X8965301Y-18956484D02*
X8946253Y-18946960D01*
X8946253Y-18946960D02*
X8936730Y-18927912D01*
X8936730Y-18927912D02*
X8936730Y-18851722D01*
X8936730Y-18851722D02*
X8946253Y-18832674D01*
X8946253Y-18832674D02*
X8965301Y-18823150D01*
X8965301Y-18823150D02*
X9003396Y-18823150D01*
X9003396Y-18823150D02*
X9022444Y-18832674D01*
X9022444Y-18832674D02*
X9031968Y-18851722D01*
X9031968Y-18851722D02*
X9031968Y-18870770D01*
X9031968Y-18870770D02*
X8936730Y-18889817D01*
X9108158Y-18946960D02*
X9127206Y-18956484D01*
X9127206Y-18956484D02*
X9165301Y-18956484D01*
X9165301Y-18956484D02*
X9184349Y-18946960D01*
X9184349Y-18946960D02*
X9193873Y-18927912D01*
X9193873Y-18927912D02*
X9193873Y-18918389D01*
X9193873Y-18918389D02*
X9184349Y-18899341D01*
X9184349Y-18899341D02*
X9165301Y-18889817D01*
X9165301Y-18889817D02*
X9136730Y-18889817D01*
X9136730Y-18889817D02*
X9117682Y-18880293D01*
X9117682Y-18880293D02*
X9108158Y-18861246D01*
X9108158Y-18861246D02*
X9108158Y-18851722D01*
X9108158Y-18851722D02*
X9117682Y-18832674D01*
X9117682Y-18832674D02*
X9136730Y-18823150D01*
X9136730Y-18823150D02*
X9165301Y-18823150D01*
X9165301Y-18823150D02*
X9184349Y-18832674D01*
X9260539Y-19032674D02*
X9270063Y-19023150D01*
X9270063Y-19023150D02*
X9289111Y-18994579D01*
X9289111Y-18994579D02*
X9298634Y-18975531D01*
X9298634Y-18975531D02*
X9308158Y-18946960D01*
X9308158Y-18946960D02*
X9317682Y-18899341D01*
X9317682Y-18899341D02*
X9317682Y-18861246D01*
X9317682Y-18861246D02*
X9308158Y-18813627D01*
X9308158Y-18813627D02*
X9298634Y-18785055D01*
X9298634Y-18785055D02*
X9289111Y-18766008D01*
X9289111Y-18766008D02*
X9270063Y-18737436D01*
X9270063Y-18737436D02*
X9260539Y-18727912D01*
D13*
X4145140Y-19054070D02*
X4295000Y-19203930D01*
X4295000Y-19054070D02*
X4145140Y-19203930D01*
X4220070Y-19054070D02*
X4220070Y-19203930D01*
X4145140Y-19129000D02*
X4295000Y-19129000D01*
D11*
X4660539Y-19220484D02*
X4546253Y-19220484D01*
X4603396Y-19220484D02*
X4603396Y-19020484D01*
X4603396Y-19020484D02*
X4584348Y-19049055D01*
X4584348Y-19049055D02*
X4565301Y-19068103D01*
X4565301Y-19068103D02*
X4546253Y-19077627D01*
X4746253Y-19201436D02*
X4755777Y-19210960D01*
X4755777Y-19210960D02*
X4746253Y-19220484D01*
X4746253Y-19220484D02*
X4736729Y-19210960D01*
X4736729Y-19210960D02*
X4746253Y-19201436D01*
X4746253Y-19201436D02*
X4746253Y-19220484D01*
X4927205Y-19087150D02*
X4927205Y-19220484D01*
X4879586Y-19010960D02*
X4831967Y-19153817D01*
X4831967Y-19153817D02*
X4955777Y-19153817D01*
X5041491Y-19220484D02*
X5079586Y-19220484D01*
X5079586Y-19220484D02*
X5098634Y-19210960D01*
X5098634Y-19210960D02*
X5108158Y-19201436D01*
X5108158Y-19201436D02*
X5127205Y-19172865D01*
X5127205Y-19172865D02*
X5136729Y-19134770D01*
X5136729Y-19134770D02*
X5136729Y-19058579D01*
X5136729Y-19058579D02*
X5127205Y-19039531D01*
X5127205Y-19039531D02*
X5117682Y-19030008D01*
X5117682Y-19030008D02*
X5098634Y-19020484D01*
X5098634Y-19020484D02*
X5060539Y-19020484D01*
X5060539Y-19020484D02*
X5041491Y-19030008D01*
X5041491Y-19030008D02*
X5031967Y-19039531D01*
X5031967Y-19039531D02*
X5022444Y-19058579D01*
X5022444Y-19058579D02*
X5022444Y-19106198D01*
X5022444Y-19106198D02*
X5031967Y-19125246D01*
X5031967Y-19125246D02*
X5041491Y-19134770D01*
X5041491Y-19134770D02*
X5060539Y-19144293D01*
X5060539Y-19144293D02*
X5098634Y-19144293D01*
X5098634Y-19144293D02*
X5117682Y-19134770D01*
X5117682Y-19134770D02*
X5127205Y-19125246D01*
X5127205Y-19125246D02*
X5136729Y-19106198D01*
X5231967Y-19220484D02*
X5270063Y-19220484D01*
X5270063Y-19220484D02*
X5289110Y-19210960D01*
X5289110Y-19210960D02*
X5298634Y-19201436D01*
X5298634Y-19201436D02*
X5317682Y-19172865D01*
X5317682Y-19172865D02*
X5327205Y-19134770D01*
X5327205Y-19134770D02*
X5327205Y-19058579D01*
X5327205Y-19058579D02*
X5317682Y-19039531D01*
X5317682Y-19039531D02*
X5308158Y-19030008D01*
X5308158Y-19030008D02*
X5289110Y-19020484D01*
X5289110Y-19020484D02*
X5251015Y-19020484D01*
X5251015Y-19020484D02*
X5231967Y-19030008D01*
X5231967Y-19030008D02*
X5222444Y-19039531D01*
X5222444Y-19039531D02*
X5212920Y-19058579D01*
X5212920Y-19058579D02*
X5212920Y-19106198D01*
X5212920Y-19106198D02*
X5222444Y-19125246D01*
X5222444Y-19125246D02*
X5231967Y-19134770D01*
X5231967Y-19134770D02*
X5251015Y-19144293D01*
X5251015Y-19144293D02*
X5289110Y-19144293D01*
X5289110Y-19144293D02*
X5308158Y-19134770D01*
X5308158Y-19134770D02*
X5317682Y-19125246D01*
X5317682Y-19125246D02*
X5327205Y-19106198D01*
X5412920Y-19220484D02*
X5412920Y-19087150D01*
X5412920Y-19106198D02*
X5422444Y-19096674D01*
X5422444Y-19096674D02*
X5441491Y-19087150D01*
X5441491Y-19087150D02*
X5470063Y-19087150D01*
X5470063Y-19087150D02*
X5489110Y-19096674D01*
X5489110Y-19096674D02*
X5498634Y-19115722D01*
X5498634Y-19115722D02*
X5498634Y-19220484D01*
X5498634Y-19115722D02*
X5508158Y-19096674D01*
X5508158Y-19096674D02*
X5527205Y-19087150D01*
X5527205Y-19087150D02*
X5555777Y-19087150D01*
X5555777Y-19087150D02*
X5574825Y-19096674D01*
X5574825Y-19096674D02*
X5584348Y-19115722D01*
X5584348Y-19115722D02*
X5584348Y-19220484D01*
X5679586Y-19220484D02*
X5679586Y-19087150D01*
X5679586Y-19106198D02*
X5689110Y-19096674D01*
X5689110Y-19096674D02*
X5708158Y-19087150D01*
X5708158Y-19087150D02*
X5736729Y-19087150D01*
X5736729Y-19087150D02*
X5755777Y-19096674D01*
X5755777Y-19096674D02*
X5765301Y-19115722D01*
X5765301Y-19115722D02*
X5765301Y-19220484D01*
X5765301Y-19115722D02*
X5774824Y-19096674D01*
X5774824Y-19096674D02*
X5793872Y-19087150D01*
X5793872Y-19087150D02*
X5822443Y-19087150D01*
X5822443Y-19087150D02*
X5841491Y-19096674D01*
X5841491Y-19096674D02*
X5851015Y-19115722D01*
X5851015Y-19115722D02*
X5851015Y-19220484D01*
X6241491Y-19010960D02*
X6070063Y-19268103D01*
X6498634Y-19020484D02*
X6517682Y-19020484D01*
X6517682Y-19020484D02*
X6536729Y-19030008D01*
X6536729Y-19030008D02*
X6546253Y-19039531D01*
X6546253Y-19039531D02*
X6555777Y-19058579D01*
X6555777Y-19058579D02*
X6565301Y-19096674D01*
X6565301Y-19096674D02*
X6565301Y-19144293D01*
X6565301Y-19144293D02*
X6555777Y-19182389D01*
X6555777Y-19182389D02*
X6546253Y-19201436D01*
X6546253Y-19201436D02*
X6536729Y-19210960D01*
X6536729Y-19210960D02*
X6517682Y-19220484D01*
X6517682Y-19220484D02*
X6498634Y-19220484D01*
X6498634Y-19220484D02*
X6479586Y-19210960D01*
X6479586Y-19210960D02*
X6470063Y-19201436D01*
X6470063Y-19201436D02*
X6460539Y-19182389D01*
X6460539Y-19182389D02*
X6451015Y-19144293D01*
X6451015Y-19144293D02*
X6451015Y-19096674D01*
X6451015Y-19096674D02*
X6460539Y-19058579D01*
X6460539Y-19058579D02*
X6470063Y-19039531D01*
X6470063Y-19039531D02*
X6479586Y-19030008D01*
X6479586Y-19030008D02*
X6498634Y-19020484D01*
X6651015Y-19201436D02*
X6660539Y-19210960D01*
X6660539Y-19210960D02*
X6651015Y-19220484D01*
X6651015Y-19220484D02*
X6641491Y-19210960D01*
X6641491Y-19210960D02*
X6651015Y-19201436D01*
X6651015Y-19201436D02*
X6651015Y-19220484D01*
X6784348Y-19020484D02*
X6803396Y-19020484D01*
X6803396Y-19020484D02*
X6822444Y-19030008D01*
X6822444Y-19030008D02*
X6831967Y-19039531D01*
X6831967Y-19039531D02*
X6841491Y-19058579D01*
X6841491Y-19058579D02*
X6851015Y-19096674D01*
X6851015Y-19096674D02*
X6851015Y-19144293D01*
X6851015Y-19144293D02*
X6841491Y-19182389D01*
X6841491Y-19182389D02*
X6831967Y-19201436D01*
X6831967Y-19201436D02*
X6822444Y-19210960D01*
X6822444Y-19210960D02*
X6803396Y-19220484D01*
X6803396Y-19220484D02*
X6784348Y-19220484D01*
X6784348Y-19220484D02*
X6765301Y-19210960D01*
X6765301Y-19210960D02*
X6755777Y-19201436D01*
X6755777Y-19201436D02*
X6746253Y-19182389D01*
X6746253Y-19182389D02*
X6736729Y-19144293D01*
X6736729Y-19144293D02*
X6736729Y-19096674D01*
X6736729Y-19096674D02*
X6746253Y-19058579D01*
X6746253Y-19058579D02*
X6755777Y-19039531D01*
X6755777Y-19039531D02*
X6765301Y-19030008D01*
X6765301Y-19030008D02*
X6784348Y-19020484D01*
X7031967Y-19020484D02*
X6936729Y-19020484D01*
X6936729Y-19020484D02*
X6927206Y-19115722D01*
X6927206Y-19115722D02*
X6936729Y-19106198D01*
X6936729Y-19106198D02*
X6955777Y-19096674D01*
X6955777Y-19096674D02*
X7003396Y-19096674D01*
X7003396Y-19096674D02*
X7022444Y-19106198D01*
X7022444Y-19106198D02*
X7031967Y-19115722D01*
X7031967Y-19115722D02*
X7041491Y-19134770D01*
X7041491Y-19134770D02*
X7041491Y-19182389D01*
X7041491Y-19182389D02*
X7031967Y-19201436D01*
X7031967Y-19201436D02*
X7022444Y-19210960D01*
X7022444Y-19210960D02*
X7003396Y-19220484D01*
X7003396Y-19220484D02*
X6955777Y-19220484D01*
X6955777Y-19220484D02*
X6936729Y-19210960D01*
X6936729Y-19210960D02*
X6927206Y-19201436D01*
X7136729Y-19220484D02*
X7174825Y-19220484D01*
X7174825Y-19220484D02*
X7193872Y-19210960D01*
X7193872Y-19210960D02*
X7203396Y-19201436D01*
X7203396Y-19201436D02*
X7222444Y-19172865D01*
X7222444Y-19172865D02*
X7231967Y-19134770D01*
X7231967Y-19134770D02*
X7231967Y-19058579D01*
X7231967Y-19058579D02*
X7222444Y-19039531D01*
X7222444Y-19039531D02*
X7212920Y-19030008D01*
X7212920Y-19030008D02*
X7193872Y-19020484D01*
X7193872Y-19020484D02*
X7155777Y-19020484D01*
X7155777Y-19020484D02*
X7136729Y-19030008D01*
X7136729Y-19030008D02*
X7127206Y-19039531D01*
X7127206Y-19039531D02*
X7117682Y-19058579D01*
X7117682Y-19058579D02*
X7117682Y-19106198D01*
X7117682Y-19106198D02*
X7127206Y-19125246D01*
X7127206Y-19125246D02*
X7136729Y-19134770D01*
X7136729Y-19134770D02*
X7155777Y-19144293D01*
X7155777Y-19144293D02*
X7193872Y-19144293D01*
X7193872Y-19144293D02*
X7212920Y-19134770D01*
X7212920Y-19134770D02*
X7222444Y-19125246D01*
X7222444Y-19125246D02*
X7231967Y-19106198D01*
X7355777Y-19020484D02*
X7374825Y-19020484D01*
X7374825Y-19020484D02*
X7393872Y-19030008D01*
X7393872Y-19030008D02*
X7403396Y-19039531D01*
X7403396Y-19039531D02*
X7412920Y-19058579D01*
X7412920Y-19058579D02*
X7422444Y-19096674D01*
X7422444Y-19096674D02*
X7422444Y-19144293D01*
X7422444Y-19144293D02*
X7412920Y-19182389D01*
X7412920Y-19182389D02*
X7403396Y-19201436D01*
X7403396Y-19201436D02*
X7393872Y-19210960D01*
X7393872Y-19210960D02*
X7374825Y-19220484D01*
X7374825Y-19220484D02*
X7355777Y-19220484D01*
X7355777Y-19220484D02*
X7336729Y-19210960D01*
X7336729Y-19210960D02*
X7327206Y-19201436D01*
X7327206Y-19201436D02*
X7317682Y-19182389D01*
X7317682Y-19182389D02*
X7308158Y-19144293D01*
X7308158Y-19144293D02*
X7308158Y-19096674D01*
X7308158Y-19096674D02*
X7317682Y-19058579D01*
X7317682Y-19058579D02*
X7327206Y-19039531D01*
X7327206Y-19039531D02*
X7336729Y-19030008D01*
X7336729Y-19030008D02*
X7355777Y-19020484D01*
X7498634Y-19020484D02*
X7498634Y-19058579D01*
X7574825Y-19020484D02*
X7574825Y-19058579D01*
X7870063Y-19296674D02*
X7860539Y-19287150D01*
X7860539Y-19287150D02*
X7841491Y-19258579D01*
X7841491Y-19258579D02*
X7831968Y-19239531D01*
X7831968Y-19239531D02*
X7822444Y-19210960D01*
X7822444Y-19210960D02*
X7812920Y-19163341D01*
X7812920Y-19163341D02*
X7812920Y-19125246D01*
X7812920Y-19125246D02*
X7822444Y-19077627D01*
X7822444Y-19077627D02*
X7831968Y-19049055D01*
X7831968Y-19049055D02*
X7841491Y-19030008D01*
X7841491Y-19030008D02*
X7860539Y-19001436D01*
X7860539Y-19001436D02*
X7870063Y-18991912D01*
X8051015Y-19220484D02*
X7936729Y-19220484D01*
X7993872Y-19220484D02*
X7993872Y-19020484D01*
X7993872Y-19020484D02*
X7974825Y-19049055D01*
X7974825Y-19049055D02*
X7955777Y-19068103D01*
X7955777Y-19068103D02*
X7936729Y-19077627D01*
X8127206Y-19039531D02*
X8136729Y-19030008D01*
X8136729Y-19030008D02*
X8155777Y-19020484D01*
X8155777Y-19020484D02*
X8203396Y-19020484D01*
X8203396Y-19020484D02*
X8222444Y-19030008D01*
X8222444Y-19030008D02*
X8231968Y-19039531D01*
X8231968Y-19039531D02*
X8241491Y-19058579D01*
X8241491Y-19058579D02*
X8241491Y-19077627D01*
X8241491Y-19077627D02*
X8231968Y-19106198D01*
X8231968Y-19106198D02*
X8117682Y-19220484D01*
X8117682Y-19220484D02*
X8241491Y-19220484D01*
X8479587Y-19220484D02*
X8479587Y-19020484D01*
X8565301Y-19220484D02*
X8565301Y-19115722D01*
X8565301Y-19115722D02*
X8555777Y-19096674D01*
X8555777Y-19096674D02*
X8536730Y-19087150D01*
X8536730Y-19087150D02*
X8508158Y-19087150D01*
X8508158Y-19087150D02*
X8489111Y-19096674D01*
X8489111Y-19096674D02*
X8479587Y-19106198D01*
X8689111Y-19220484D02*
X8670063Y-19210960D01*
X8670063Y-19210960D02*
X8660539Y-19201436D01*
X8660539Y-19201436D02*
X8651015Y-19182389D01*
X8651015Y-19182389D02*
X8651015Y-19125246D01*
X8651015Y-19125246D02*
X8660539Y-19106198D01*
X8660539Y-19106198D02*
X8670063Y-19096674D01*
X8670063Y-19096674D02*
X8689111Y-19087150D01*
X8689111Y-19087150D02*
X8717682Y-19087150D01*
X8717682Y-19087150D02*
X8736730Y-19096674D01*
X8736730Y-19096674D02*
X8746253Y-19106198D01*
X8746253Y-19106198D02*
X8755777Y-19125246D01*
X8755777Y-19125246D02*
X8755777Y-19182389D01*
X8755777Y-19182389D02*
X8746253Y-19201436D01*
X8746253Y-19201436D02*
X8736730Y-19210960D01*
X8736730Y-19210960D02*
X8717682Y-19220484D01*
X8717682Y-19220484D02*
X8689111Y-19220484D01*
X8870063Y-19220484D02*
X8851015Y-19210960D01*
X8851015Y-19210960D02*
X8841492Y-19191912D01*
X8841492Y-19191912D02*
X8841492Y-19020484D01*
X9022444Y-19210960D02*
X9003396Y-19220484D01*
X9003396Y-19220484D02*
X8965301Y-19220484D01*
X8965301Y-19220484D02*
X8946253Y-19210960D01*
X8946253Y-19210960D02*
X8936730Y-19191912D01*
X8936730Y-19191912D02*
X8936730Y-19115722D01*
X8936730Y-19115722D02*
X8946253Y-19096674D01*
X8946253Y-19096674D02*
X8965301Y-19087150D01*
X8965301Y-19087150D02*
X9003396Y-19087150D01*
X9003396Y-19087150D02*
X9022444Y-19096674D01*
X9022444Y-19096674D02*
X9031968Y-19115722D01*
X9031968Y-19115722D02*
X9031968Y-19134770D01*
X9031968Y-19134770D02*
X8936730Y-19153817D01*
X9108158Y-19210960D02*
X9127206Y-19220484D01*
X9127206Y-19220484D02*
X9165301Y-19220484D01*
X9165301Y-19220484D02*
X9184349Y-19210960D01*
X9184349Y-19210960D02*
X9193873Y-19191912D01*
X9193873Y-19191912D02*
X9193873Y-19182389D01*
X9193873Y-19182389D02*
X9184349Y-19163341D01*
X9184349Y-19163341D02*
X9165301Y-19153817D01*
X9165301Y-19153817D02*
X9136730Y-19153817D01*
X9136730Y-19153817D02*
X9117682Y-19144293D01*
X9117682Y-19144293D02*
X9108158Y-19125246D01*
X9108158Y-19125246D02*
X9108158Y-19115722D01*
X9108158Y-19115722D02*
X9117682Y-19096674D01*
X9117682Y-19096674D02*
X9136730Y-19087150D01*
X9136730Y-19087150D02*
X9165301Y-19087150D01*
X9165301Y-19087150D02*
X9184349Y-19096674D01*
X9260539Y-19296674D02*
X9270063Y-19287150D01*
X9270063Y-19287150D02*
X9289111Y-19258579D01*
X9289111Y-19258579D02*
X9298634Y-19239531D01*
X9298634Y-19239531D02*
X9308158Y-19210960D01*
X9308158Y-19210960D02*
X9317682Y-19163341D01*
X9317682Y-19163341D02*
X9317682Y-19125246D01*
X9317682Y-19125246D02*
X9308158Y-19077627D01*
X9308158Y-19077627D02*
X9298634Y-19049055D01*
X9298634Y-19049055D02*
X9289111Y-19030008D01*
X9289111Y-19030008D02*
X9270063Y-19001436D01*
X9270063Y-19001436D02*
X9260539Y-18991912D01*
D14*
X4124820Y-19313770D02*
X4295000Y-19483950D01*
X4295000Y-19313770D02*
X4124820Y-19483950D01*
X4270078Y-19459028D02*
X4270078Y-19338692D01*
X4149742Y-19338692D01*
X4149742Y-19459028D01*
X4270078Y-19459028D01*
D11*
X4660539Y-19490344D02*
X4546253Y-19490344D01*
X4603396Y-19490344D02*
X4603396Y-19290344D01*
X4603396Y-19290344D02*
X4584348Y-19318915D01*
X4584348Y-19318915D02*
X4565301Y-19337963D01*
X4565301Y-19337963D02*
X4546253Y-19347487D01*
X4746253Y-19471296D02*
X4755777Y-19480820D01*
X4755777Y-19480820D02*
X4746253Y-19490344D01*
X4746253Y-19490344D02*
X4736729Y-19480820D01*
X4736729Y-19480820D02*
X4746253Y-19471296D01*
X4746253Y-19471296D02*
X4746253Y-19490344D01*
X4822444Y-19290344D02*
X4955777Y-19290344D01*
X4955777Y-19290344D02*
X4870063Y-19490344D01*
X5070063Y-19290344D02*
X5089110Y-19290344D01*
X5089110Y-19290344D02*
X5108158Y-19299868D01*
X5108158Y-19299868D02*
X5117682Y-19309391D01*
X5117682Y-19309391D02*
X5127205Y-19328439D01*
X5127205Y-19328439D02*
X5136729Y-19366534D01*
X5136729Y-19366534D02*
X5136729Y-19414153D01*
X5136729Y-19414153D02*
X5127205Y-19452249D01*
X5127205Y-19452249D02*
X5117682Y-19471296D01*
X5117682Y-19471296D02*
X5108158Y-19480820D01*
X5108158Y-19480820D02*
X5089110Y-19490344D01*
X5089110Y-19490344D02*
X5070063Y-19490344D01*
X5070063Y-19490344D02*
X5051015Y-19480820D01*
X5051015Y-19480820D02*
X5041491Y-19471296D01*
X5041491Y-19471296D02*
X5031967Y-19452249D01*
X5031967Y-19452249D02*
X5022444Y-19414153D01*
X5022444Y-19414153D02*
X5022444Y-19366534D01*
X5022444Y-19366534D02*
X5031967Y-19328439D01*
X5031967Y-19328439D02*
X5041491Y-19309391D01*
X5041491Y-19309391D02*
X5051015Y-19299868D01*
X5051015Y-19299868D02*
X5070063Y-19290344D01*
X5212920Y-19309391D02*
X5222444Y-19299868D01*
X5222444Y-19299868D02*
X5241491Y-19290344D01*
X5241491Y-19290344D02*
X5289110Y-19290344D01*
X5289110Y-19290344D02*
X5308158Y-19299868D01*
X5308158Y-19299868D02*
X5317682Y-19309391D01*
X5317682Y-19309391D02*
X5327205Y-19328439D01*
X5327205Y-19328439D02*
X5327205Y-19347487D01*
X5327205Y-19347487D02*
X5317682Y-19376058D01*
X5317682Y-19376058D02*
X5203396Y-19490344D01*
X5203396Y-19490344D02*
X5327205Y-19490344D01*
X5412920Y-19490344D02*
X5412920Y-19357010D01*
X5412920Y-19376058D02*
X5422444Y-19366534D01*
X5422444Y-19366534D02*
X5441491Y-19357010D01*
X5441491Y-19357010D02*
X5470063Y-19357010D01*
X5470063Y-19357010D02*
X5489110Y-19366534D01*
X5489110Y-19366534D02*
X5498634Y-19385582D01*
X5498634Y-19385582D02*
X5498634Y-19490344D01*
X5498634Y-19385582D02*
X5508158Y-19366534D01*
X5508158Y-19366534D02*
X5527205Y-19357010D01*
X5527205Y-19357010D02*
X5555777Y-19357010D01*
X5555777Y-19357010D02*
X5574825Y-19366534D01*
X5574825Y-19366534D02*
X5584348Y-19385582D01*
X5584348Y-19385582D02*
X5584348Y-19490344D01*
X5679586Y-19490344D02*
X5679586Y-19357010D01*
X5679586Y-19376058D02*
X5689110Y-19366534D01*
X5689110Y-19366534D02*
X5708158Y-19357010D01*
X5708158Y-19357010D02*
X5736729Y-19357010D01*
X5736729Y-19357010D02*
X5755777Y-19366534D01*
X5755777Y-19366534D02*
X5765301Y-19385582D01*
X5765301Y-19385582D02*
X5765301Y-19490344D01*
X5765301Y-19385582D02*
X5774824Y-19366534D01*
X5774824Y-19366534D02*
X5793872Y-19357010D01*
X5793872Y-19357010D02*
X5822443Y-19357010D01*
X5822443Y-19357010D02*
X5841491Y-19366534D01*
X5841491Y-19366534D02*
X5851015Y-19385582D01*
X5851015Y-19385582D02*
X5851015Y-19490344D01*
X6241491Y-19280820D02*
X6070063Y-19537963D01*
X6498634Y-19290344D02*
X6517682Y-19290344D01*
X6517682Y-19290344D02*
X6536729Y-19299868D01*
X6536729Y-19299868D02*
X6546253Y-19309391D01*
X6546253Y-19309391D02*
X6555777Y-19328439D01*
X6555777Y-19328439D02*
X6565301Y-19366534D01*
X6565301Y-19366534D02*
X6565301Y-19414153D01*
X6565301Y-19414153D02*
X6555777Y-19452249D01*
X6555777Y-19452249D02*
X6546253Y-19471296D01*
X6546253Y-19471296D02*
X6536729Y-19480820D01*
X6536729Y-19480820D02*
X6517682Y-19490344D01*
X6517682Y-19490344D02*
X6498634Y-19490344D01*
X6498634Y-19490344D02*
X6479586Y-19480820D01*
X6479586Y-19480820D02*
X6470063Y-19471296D01*
X6470063Y-19471296D02*
X6460539Y-19452249D01*
X6460539Y-19452249D02*
X6451015Y-19414153D01*
X6451015Y-19414153D02*
X6451015Y-19366534D01*
X6451015Y-19366534D02*
X6460539Y-19328439D01*
X6460539Y-19328439D02*
X6470063Y-19309391D01*
X6470063Y-19309391D02*
X6479586Y-19299868D01*
X6479586Y-19299868D02*
X6498634Y-19290344D01*
X6651015Y-19471296D02*
X6660539Y-19480820D01*
X6660539Y-19480820D02*
X6651015Y-19490344D01*
X6651015Y-19490344D02*
X6641491Y-19480820D01*
X6641491Y-19480820D02*
X6651015Y-19471296D01*
X6651015Y-19471296D02*
X6651015Y-19490344D01*
X6784348Y-19290344D02*
X6803396Y-19290344D01*
X6803396Y-19290344D02*
X6822444Y-19299868D01*
X6822444Y-19299868D02*
X6831967Y-19309391D01*
X6831967Y-19309391D02*
X6841491Y-19328439D01*
X6841491Y-19328439D02*
X6851015Y-19366534D01*
X6851015Y-19366534D02*
X6851015Y-19414153D01*
X6851015Y-19414153D02*
X6841491Y-19452249D01*
X6841491Y-19452249D02*
X6831967Y-19471296D01*
X6831967Y-19471296D02*
X6822444Y-19480820D01*
X6822444Y-19480820D02*
X6803396Y-19490344D01*
X6803396Y-19490344D02*
X6784348Y-19490344D01*
X6784348Y-19490344D02*
X6765301Y-19480820D01*
X6765301Y-19480820D02*
X6755777Y-19471296D01*
X6755777Y-19471296D02*
X6746253Y-19452249D01*
X6746253Y-19452249D02*
X6736729Y-19414153D01*
X6736729Y-19414153D02*
X6736729Y-19366534D01*
X6736729Y-19366534D02*
X6746253Y-19328439D01*
X6746253Y-19328439D02*
X6755777Y-19309391D01*
X6755777Y-19309391D02*
X6765301Y-19299868D01*
X6765301Y-19299868D02*
X6784348Y-19290344D01*
X7022444Y-19290344D02*
X6984348Y-19290344D01*
X6984348Y-19290344D02*
X6965301Y-19299868D01*
X6965301Y-19299868D02*
X6955777Y-19309391D01*
X6955777Y-19309391D02*
X6936729Y-19337963D01*
X6936729Y-19337963D02*
X6927206Y-19376058D01*
X6927206Y-19376058D02*
X6927206Y-19452249D01*
X6927206Y-19452249D02*
X6936729Y-19471296D01*
X6936729Y-19471296D02*
X6946253Y-19480820D01*
X6946253Y-19480820D02*
X6965301Y-19490344D01*
X6965301Y-19490344D02*
X7003396Y-19490344D01*
X7003396Y-19490344D02*
X7022444Y-19480820D01*
X7022444Y-19480820D02*
X7031967Y-19471296D01*
X7031967Y-19471296D02*
X7041491Y-19452249D01*
X7041491Y-19452249D02*
X7041491Y-19404630D01*
X7041491Y-19404630D02*
X7031967Y-19385582D01*
X7031967Y-19385582D02*
X7022444Y-19376058D01*
X7022444Y-19376058D02*
X7003396Y-19366534D01*
X7003396Y-19366534D02*
X6965301Y-19366534D01*
X6965301Y-19366534D02*
X6946253Y-19376058D01*
X6946253Y-19376058D02*
X6936729Y-19385582D01*
X6936729Y-19385582D02*
X6927206Y-19404630D01*
X7108158Y-19290344D02*
X7241491Y-19290344D01*
X7241491Y-19290344D02*
X7155777Y-19490344D01*
X7355777Y-19290344D02*
X7374825Y-19290344D01*
X7374825Y-19290344D02*
X7393872Y-19299868D01*
X7393872Y-19299868D02*
X7403396Y-19309391D01*
X7403396Y-19309391D02*
X7412920Y-19328439D01*
X7412920Y-19328439D02*
X7422444Y-19366534D01*
X7422444Y-19366534D02*
X7422444Y-19414153D01*
X7422444Y-19414153D02*
X7412920Y-19452249D01*
X7412920Y-19452249D02*
X7403396Y-19471296D01*
X7403396Y-19471296D02*
X7393872Y-19480820D01*
X7393872Y-19480820D02*
X7374825Y-19490344D01*
X7374825Y-19490344D02*
X7355777Y-19490344D01*
X7355777Y-19490344D02*
X7336729Y-19480820D01*
X7336729Y-19480820D02*
X7327206Y-19471296D01*
X7327206Y-19471296D02*
X7317682Y-19452249D01*
X7317682Y-19452249D02*
X7308158Y-19414153D01*
X7308158Y-19414153D02*
X7308158Y-19366534D01*
X7308158Y-19366534D02*
X7317682Y-19328439D01*
X7317682Y-19328439D02*
X7327206Y-19309391D01*
X7327206Y-19309391D02*
X7336729Y-19299868D01*
X7336729Y-19299868D02*
X7355777Y-19290344D01*
X7498634Y-19290344D02*
X7498634Y-19328439D01*
X7574825Y-19290344D02*
X7574825Y-19328439D01*
X7870063Y-19566534D02*
X7860539Y-19557010D01*
X7860539Y-19557010D02*
X7841491Y-19528439D01*
X7841491Y-19528439D02*
X7831968Y-19509391D01*
X7831968Y-19509391D02*
X7822444Y-19480820D01*
X7822444Y-19480820D02*
X7812920Y-19433201D01*
X7812920Y-19433201D02*
X7812920Y-19395106D01*
X7812920Y-19395106D02*
X7822444Y-19347487D01*
X7822444Y-19347487D02*
X7831968Y-19318915D01*
X7831968Y-19318915D02*
X7841491Y-19299868D01*
X7841491Y-19299868D02*
X7860539Y-19271296D01*
X7860539Y-19271296D02*
X7870063Y-19261772D01*
X7927206Y-19290344D02*
X8051015Y-19290344D01*
X8051015Y-19290344D02*
X7984348Y-19366534D01*
X7984348Y-19366534D02*
X8012920Y-19366534D01*
X8012920Y-19366534D02*
X8031968Y-19376058D01*
X8031968Y-19376058D02*
X8041491Y-19385582D01*
X8041491Y-19385582D02*
X8051015Y-19404630D01*
X8051015Y-19404630D02*
X8051015Y-19452249D01*
X8051015Y-19452249D02*
X8041491Y-19471296D01*
X8041491Y-19471296D02*
X8031968Y-19480820D01*
X8031968Y-19480820D02*
X8012920Y-19490344D01*
X8012920Y-19490344D02*
X7955777Y-19490344D01*
X7955777Y-19490344D02*
X7936729Y-19480820D01*
X7936729Y-19480820D02*
X7927206Y-19471296D01*
X8127206Y-19309391D02*
X8136729Y-19299868D01*
X8136729Y-19299868D02*
X8155777Y-19290344D01*
X8155777Y-19290344D02*
X8203396Y-19290344D01*
X8203396Y-19290344D02*
X8222444Y-19299868D01*
X8222444Y-19299868D02*
X8231968Y-19309391D01*
X8231968Y-19309391D02*
X8241491Y-19328439D01*
X8241491Y-19328439D02*
X8241491Y-19347487D01*
X8241491Y-19347487D02*
X8231968Y-19376058D01*
X8231968Y-19376058D02*
X8117682Y-19490344D01*
X8117682Y-19490344D02*
X8241491Y-19490344D01*
X8479587Y-19490344D02*
X8479587Y-19290344D01*
X8565301Y-19490344D02*
X8565301Y-19385582D01*
X8565301Y-19385582D02*
X8555777Y-19366534D01*
X8555777Y-19366534D02*
X8536730Y-19357010D01*
X8536730Y-19357010D02*
X8508158Y-19357010D01*
X8508158Y-19357010D02*
X8489111Y-19366534D01*
X8489111Y-19366534D02*
X8479587Y-19376058D01*
X8689111Y-19490344D02*
X8670063Y-19480820D01*
X8670063Y-19480820D02*
X8660539Y-19471296D01*
X8660539Y-19471296D02*
X8651015Y-19452249D01*
X8651015Y-19452249D02*
X8651015Y-19395106D01*
X8651015Y-19395106D02*
X8660539Y-19376058D01*
X8660539Y-19376058D02*
X8670063Y-19366534D01*
X8670063Y-19366534D02*
X8689111Y-19357010D01*
X8689111Y-19357010D02*
X8717682Y-19357010D01*
X8717682Y-19357010D02*
X8736730Y-19366534D01*
X8736730Y-19366534D02*
X8746253Y-19376058D01*
X8746253Y-19376058D02*
X8755777Y-19395106D01*
X8755777Y-19395106D02*
X8755777Y-19452249D01*
X8755777Y-19452249D02*
X8746253Y-19471296D01*
X8746253Y-19471296D02*
X8736730Y-19480820D01*
X8736730Y-19480820D02*
X8717682Y-19490344D01*
X8717682Y-19490344D02*
X8689111Y-19490344D01*
X8870063Y-19490344D02*
X8851015Y-19480820D01*
X8851015Y-19480820D02*
X8841492Y-19461772D01*
X8841492Y-19461772D02*
X8841492Y-19290344D01*
X9022444Y-19480820D02*
X9003396Y-19490344D01*
X9003396Y-19490344D02*
X8965301Y-19490344D01*
X8965301Y-19490344D02*
X8946253Y-19480820D01*
X8946253Y-19480820D02*
X8936730Y-19461772D01*
X8936730Y-19461772D02*
X8936730Y-19385582D01*
X8936730Y-19385582D02*
X8946253Y-19366534D01*
X8946253Y-19366534D02*
X8965301Y-19357010D01*
X8965301Y-19357010D02*
X9003396Y-19357010D01*
X9003396Y-19357010D02*
X9022444Y-19366534D01*
X9022444Y-19366534D02*
X9031968Y-19385582D01*
X9031968Y-19385582D02*
X9031968Y-19404630D01*
X9031968Y-19404630D02*
X8936730Y-19423677D01*
X9108158Y-19480820D02*
X9127206Y-19490344D01*
X9127206Y-19490344D02*
X9165301Y-19490344D01*
X9165301Y-19490344D02*
X9184349Y-19480820D01*
X9184349Y-19480820D02*
X9193873Y-19461772D01*
X9193873Y-19461772D02*
X9193873Y-19452249D01*
X9193873Y-19452249D02*
X9184349Y-19433201D01*
X9184349Y-19433201D02*
X9165301Y-19423677D01*
X9165301Y-19423677D02*
X9136730Y-19423677D01*
X9136730Y-19423677D02*
X9117682Y-19414153D01*
X9117682Y-19414153D02*
X9108158Y-19395106D01*
X9108158Y-19395106D02*
X9108158Y-19385582D01*
X9108158Y-19385582D02*
X9117682Y-19366534D01*
X9117682Y-19366534D02*
X9136730Y-19357010D01*
X9136730Y-19357010D02*
X9165301Y-19357010D01*
X9165301Y-19357010D02*
X9184349Y-19366534D01*
X9260539Y-19566534D02*
X9270063Y-19557010D01*
X9270063Y-19557010D02*
X9289111Y-19528439D01*
X9289111Y-19528439D02*
X9298634Y-19509391D01*
X9298634Y-19509391D02*
X9308158Y-19480820D01*
X9308158Y-19480820D02*
X9317682Y-19433201D01*
X9317682Y-19433201D02*
X9317682Y-19395106D01*
X9317682Y-19395106D02*
X9308158Y-19347487D01*
X9308158Y-19347487D02*
X9298634Y-19318915D01*
X9298634Y-19318915D02*
X9289111Y-19299868D01*
X9289111Y-19299868D02*
X9270063Y-19271296D01*
X9270063Y-19271296D02*
X9260539Y-19261772D01*
X4095000Y-19589040D02*
X4295000Y-19789040D01*
X4295000Y-19589040D02*
X4095000Y-19789040D01*
X4195000Y-19789040D02*
X4295000Y-19689040D01*
X4195000Y-19589040D01*
X4095000Y-19689040D01*
X4195000Y-19789040D01*
X4536729Y-19580524D02*
X4660539Y-19580524D01*
X4660539Y-19580524D02*
X4593872Y-19656714D01*
X4593872Y-19656714D02*
X4622444Y-19656714D01*
X4622444Y-19656714D02*
X4641491Y-19666238D01*
X4641491Y-19666238D02*
X4651015Y-19675762D01*
X4651015Y-19675762D02*
X4660539Y-19694810D01*
X4660539Y-19694810D02*
X4660539Y-19742429D01*
X4660539Y-19742429D02*
X4651015Y-19761476D01*
X4651015Y-19761476D02*
X4641491Y-19771000D01*
X4641491Y-19771000D02*
X4622444Y-19780524D01*
X4622444Y-19780524D02*
X4565301Y-19780524D01*
X4565301Y-19780524D02*
X4546253Y-19771000D01*
X4546253Y-19771000D02*
X4536729Y-19761476D01*
X4746253Y-19761476D02*
X4755777Y-19771000D01*
X4755777Y-19771000D02*
X4746253Y-19780524D01*
X4746253Y-19780524D02*
X4736729Y-19771000D01*
X4736729Y-19771000D02*
X4746253Y-19761476D01*
X4746253Y-19761476D02*
X4746253Y-19780524D01*
X4831967Y-19599571D02*
X4841491Y-19590048D01*
X4841491Y-19590048D02*
X4860539Y-19580524D01*
X4860539Y-19580524D02*
X4908158Y-19580524D01*
X4908158Y-19580524D02*
X4927205Y-19590048D01*
X4927205Y-19590048D02*
X4936729Y-19599571D01*
X4936729Y-19599571D02*
X4946253Y-19618619D01*
X4946253Y-19618619D02*
X4946253Y-19637667D01*
X4946253Y-19637667D02*
X4936729Y-19666238D01*
X4936729Y-19666238D02*
X4822444Y-19780524D01*
X4822444Y-19780524D02*
X4946253Y-19780524D01*
X5070063Y-19580524D02*
X5089110Y-19580524D01*
X5089110Y-19580524D02*
X5108158Y-19590048D01*
X5108158Y-19590048D02*
X5117682Y-19599571D01*
X5117682Y-19599571D02*
X5127205Y-19618619D01*
X5127205Y-19618619D02*
X5136729Y-19656714D01*
X5136729Y-19656714D02*
X5136729Y-19704333D01*
X5136729Y-19704333D02*
X5127205Y-19742429D01*
X5127205Y-19742429D02*
X5117682Y-19761476D01*
X5117682Y-19761476D02*
X5108158Y-19771000D01*
X5108158Y-19771000D02*
X5089110Y-19780524D01*
X5089110Y-19780524D02*
X5070063Y-19780524D01*
X5070063Y-19780524D02*
X5051015Y-19771000D01*
X5051015Y-19771000D02*
X5041491Y-19761476D01*
X5041491Y-19761476D02*
X5031967Y-19742429D01*
X5031967Y-19742429D02*
X5022444Y-19704333D01*
X5022444Y-19704333D02*
X5022444Y-19656714D01*
X5022444Y-19656714D02*
X5031967Y-19618619D01*
X5031967Y-19618619D02*
X5041491Y-19599571D01*
X5041491Y-19599571D02*
X5051015Y-19590048D01*
X5051015Y-19590048D02*
X5070063Y-19580524D01*
X5260539Y-19580524D02*
X5279586Y-19580524D01*
X5279586Y-19580524D02*
X5298634Y-19590048D01*
X5298634Y-19590048D02*
X5308158Y-19599571D01*
X5308158Y-19599571D02*
X5317682Y-19618619D01*
X5317682Y-19618619D02*
X5327205Y-19656714D01*
X5327205Y-19656714D02*
X5327205Y-19704333D01*
X5327205Y-19704333D02*
X5317682Y-19742429D01*
X5317682Y-19742429D02*
X5308158Y-19761476D01*
X5308158Y-19761476D02*
X5298634Y-19771000D01*
X5298634Y-19771000D02*
X5279586Y-19780524D01*
X5279586Y-19780524D02*
X5260539Y-19780524D01*
X5260539Y-19780524D02*
X5241491Y-19771000D01*
X5241491Y-19771000D02*
X5231967Y-19761476D01*
X5231967Y-19761476D02*
X5222444Y-19742429D01*
X5222444Y-19742429D02*
X5212920Y-19704333D01*
X5212920Y-19704333D02*
X5212920Y-19656714D01*
X5212920Y-19656714D02*
X5222444Y-19618619D01*
X5222444Y-19618619D02*
X5231967Y-19599571D01*
X5231967Y-19599571D02*
X5241491Y-19590048D01*
X5241491Y-19590048D02*
X5260539Y-19580524D01*
X5412920Y-19780524D02*
X5412920Y-19647190D01*
X5412920Y-19666238D02*
X5422444Y-19656714D01*
X5422444Y-19656714D02*
X5441491Y-19647190D01*
X5441491Y-19647190D02*
X5470063Y-19647190D01*
X5470063Y-19647190D02*
X5489110Y-19656714D01*
X5489110Y-19656714D02*
X5498634Y-19675762D01*
X5498634Y-19675762D02*
X5498634Y-19780524D01*
X5498634Y-19675762D02*
X5508158Y-19656714D01*
X5508158Y-19656714D02*
X5527205Y-19647190D01*
X5527205Y-19647190D02*
X5555777Y-19647190D01*
X5555777Y-19647190D02*
X5574825Y-19656714D01*
X5574825Y-19656714D02*
X5584348Y-19675762D01*
X5584348Y-19675762D02*
X5584348Y-19780524D01*
X5679586Y-19780524D02*
X5679586Y-19647190D01*
X5679586Y-19666238D02*
X5689110Y-19656714D01*
X5689110Y-19656714D02*
X5708158Y-19647190D01*
X5708158Y-19647190D02*
X5736729Y-19647190D01*
X5736729Y-19647190D02*
X5755777Y-19656714D01*
X5755777Y-19656714D02*
X5765301Y-19675762D01*
X5765301Y-19675762D02*
X5765301Y-19780524D01*
X5765301Y-19675762D02*
X5774824Y-19656714D01*
X5774824Y-19656714D02*
X5793872Y-19647190D01*
X5793872Y-19647190D02*
X5822443Y-19647190D01*
X5822443Y-19647190D02*
X5841491Y-19656714D01*
X5841491Y-19656714D02*
X5851015Y-19675762D01*
X5851015Y-19675762D02*
X5851015Y-19780524D01*
X6241491Y-19571000D02*
X6070063Y-19828143D01*
X6498634Y-19580524D02*
X6517682Y-19580524D01*
X6517682Y-19580524D02*
X6536729Y-19590048D01*
X6536729Y-19590048D02*
X6546253Y-19599571D01*
X6546253Y-19599571D02*
X6555777Y-19618619D01*
X6555777Y-19618619D02*
X6565301Y-19656714D01*
X6565301Y-19656714D02*
X6565301Y-19704333D01*
X6565301Y-19704333D02*
X6555777Y-19742429D01*
X6555777Y-19742429D02*
X6546253Y-19761476D01*
X6546253Y-19761476D02*
X6536729Y-19771000D01*
X6536729Y-19771000D02*
X6517682Y-19780524D01*
X6517682Y-19780524D02*
X6498634Y-19780524D01*
X6498634Y-19780524D02*
X6479586Y-19771000D01*
X6479586Y-19771000D02*
X6470063Y-19761476D01*
X6470063Y-19761476D02*
X6460539Y-19742429D01*
X6460539Y-19742429D02*
X6451015Y-19704333D01*
X6451015Y-19704333D02*
X6451015Y-19656714D01*
X6451015Y-19656714D02*
X6460539Y-19618619D01*
X6460539Y-19618619D02*
X6470063Y-19599571D01*
X6470063Y-19599571D02*
X6479586Y-19590048D01*
X6479586Y-19590048D02*
X6498634Y-19580524D01*
X6651015Y-19761476D02*
X6660539Y-19771000D01*
X6660539Y-19771000D02*
X6651015Y-19780524D01*
X6651015Y-19780524D02*
X6641491Y-19771000D01*
X6641491Y-19771000D02*
X6651015Y-19761476D01*
X6651015Y-19761476D02*
X6651015Y-19780524D01*
X6851015Y-19780524D02*
X6736729Y-19780524D01*
X6793872Y-19780524D02*
X6793872Y-19580524D01*
X6793872Y-19580524D02*
X6774825Y-19609095D01*
X6774825Y-19609095D02*
X6755777Y-19628143D01*
X6755777Y-19628143D02*
X6736729Y-19637667D01*
X6927206Y-19599571D02*
X6936729Y-19590048D01*
X6936729Y-19590048D02*
X6955777Y-19580524D01*
X6955777Y-19580524D02*
X7003396Y-19580524D01*
X7003396Y-19580524D02*
X7022444Y-19590048D01*
X7022444Y-19590048D02*
X7031967Y-19599571D01*
X7031967Y-19599571D02*
X7041491Y-19618619D01*
X7041491Y-19618619D02*
X7041491Y-19637667D01*
X7041491Y-19637667D02*
X7031967Y-19666238D01*
X7031967Y-19666238D02*
X6917682Y-19780524D01*
X6917682Y-19780524D02*
X7041491Y-19780524D01*
X7212920Y-19580524D02*
X7174825Y-19580524D01*
X7174825Y-19580524D02*
X7155777Y-19590048D01*
X7155777Y-19590048D02*
X7146253Y-19599571D01*
X7146253Y-19599571D02*
X7127206Y-19628143D01*
X7127206Y-19628143D02*
X7117682Y-19666238D01*
X7117682Y-19666238D02*
X7117682Y-19742429D01*
X7117682Y-19742429D02*
X7127206Y-19761476D01*
X7127206Y-19761476D02*
X7136729Y-19771000D01*
X7136729Y-19771000D02*
X7155777Y-19780524D01*
X7155777Y-19780524D02*
X7193872Y-19780524D01*
X7193872Y-19780524D02*
X7212920Y-19771000D01*
X7212920Y-19771000D02*
X7222444Y-19761476D01*
X7222444Y-19761476D02*
X7231967Y-19742429D01*
X7231967Y-19742429D02*
X7231967Y-19694810D01*
X7231967Y-19694810D02*
X7222444Y-19675762D01*
X7222444Y-19675762D02*
X7212920Y-19666238D01*
X7212920Y-19666238D02*
X7193872Y-19656714D01*
X7193872Y-19656714D02*
X7155777Y-19656714D01*
X7155777Y-19656714D02*
X7136729Y-19666238D01*
X7136729Y-19666238D02*
X7127206Y-19675762D01*
X7127206Y-19675762D02*
X7117682Y-19694810D01*
X7355777Y-19580524D02*
X7374825Y-19580524D01*
X7374825Y-19580524D02*
X7393872Y-19590048D01*
X7393872Y-19590048D02*
X7403396Y-19599571D01*
X7403396Y-19599571D02*
X7412920Y-19618619D01*
X7412920Y-19618619D02*
X7422444Y-19656714D01*
X7422444Y-19656714D02*
X7422444Y-19704333D01*
X7422444Y-19704333D02*
X7412920Y-19742429D01*
X7412920Y-19742429D02*
X7403396Y-19761476D01*
X7403396Y-19761476D02*
X7393872Y-19771000D01*
X7393872Y-19771000D02*
X7374825Y-19780524D01*
X7374825Y-19780524D02*
X7355777Y-19780524D01*
X7355777Y-19780524D02*
X7336729Y-19771000D01*
X7336729Y-19771000D02*
X7327206Y-19761476D01*
X7327206Y-19761476D02*
X7317682Y-19742429D01*
X7317682Y-19742429D02*
X7308158Y-19704333D01*
X7308158Y-19704333D02*
X7308158Y-19656714D01*
X7308158Y-19656714D02*
X7317682Y-19618619D01*
X7317682Y-19618619D02*
X7327206Y-19599571D01*
X7327206Y-19599571D02*
X7336729Y-19590048D01*
X7336729Y-19590048D02*
X7355777Y-19580524D01*
X7498634Y-19580524D02*
X7498634Y-19618619D01*
X7574825Y-19580524D02*
X7574825Y-19618619D01*
X7870063Y-19856714D02*
X7860539Y-19847190D01*
X7860539Y-19847190D02*
X7841491Y-19818619D01*
X7841491Y-19818619D02*
X7831968Y-19799571D01*
X7831968Y-19799571D02*
X7822444Y-19771000D01*
X7822444Y-19771000D02*
X7812920Y-19723381D01*
X7812920Y-19723381D02*
X7812920Y-19685286D01*
X7812920Y-19685286D02*
X7822444Y-19637667D01*
X7822444Y-19637667D02*
X7831968Y-19609095D01*
X7831968Y-19609095D02*
X7841491Y-19590048D01*
X7841491Y-19590048D02*
X7860539Y-19561476D01*
X7860539Y-19561476D02*
X7870063Y-19551952D01*
X8031968Y-19647190D02*
X8031968Y-19780524D01*
X7984348Y-19571000D02*
X7936729Y-19713857D01*
X7936729Y-19713857D02*
X8060539Y-19713857D01*
X8289110Y-19780524D02*
X8289110Y-19580524D01*
X8374825Y-19780524D02*
X8374825Y-19675762D01*
X8374825Y-19675762D02*
X8365301Y-19656714D01*
X8365301Y-19656714D02*
X8346253Y-19647190D01*
X8346253Y-19647190D02*
X8317682Y-19647190D01*
X8317682Y-19647190D02*
X8298634Y-19656714D01*
X8298634Y-19656714D02*
X8289110Y-19666238D01*
X8498634Y-19780524D02*
X8479587Y-19771000D01*
X8479587Y-19771000D02*
X8470063Y-19761476D01*
X8470063Y-19761476D02*
X8460539Y-19742429D01*
X8460539Y-19742429D02*
X8460539Y-19685286D01*
X8460539Y-19685286D02*
X8470063Y-19666238D01*
X8470063Y-19666238D02*
X8479587Y-19656714D01*
X8479587Y-19656714D02*
X8498634Y-19647190D01*
X8498634Y-19647190D02*
X8527206Y-19647190D01*
X8527206Y-19647190D02*
X8546253Y-19656714D01*
X8546253Y-19656714D02*
X8555777Y-19666238D01*
X8555777Y-19666238D02*
X8565301Y-19685286D01*
X8565301Y-19685286D02*
X8565301Y-19742429D01*
X8565301Y-19742429D02*
X8555777Y-19761476D01*
X8555777Y-19761476D02*
X8546253Y-19771000D01*
X8546253Y-19771000D02*
X8527206Y-19780524D01*
X8527206Y-19780524D02*
X8498634Y-19780524D01*
X8679587Y-19780524D02*
X8660539Y-19771000D01*
X8660539Y-19771000D02*
X8651015Y-19751952D01*
X8651015Y-19751952D02*
X8651015Y-19580524D01*
X8831968Y-19771000D02*
X8812920Y-19780524D01*
X8812920Y-19780524D02*
X8774825Y-19780524D01*
X8774825Y-19780524D02*
X8755777Y-19771000D01*
X8755777Y-19771000D02*
X8746253Y-19751952D01*
X8746253Y-19751952D02*
X8746253Y-19675762D01*
X8746253Y-19675762D02*
X8755777Y-19656714D01*
X8755777Y-19656714D02*
X8774825Y-19647190D01*
X8774825Y-19647190D02*
X8812920Y-19647190D01*
X8812920Y-19647190D02*
X8831968Y-19656714D01*
X8831968Y-19656714D02*
X8841492Y-19675762D01*
X8841492Y-19675762D02*
X8841492Y-19694810D01*
X8841492Y-19694810D02*
X8746253Y-19713857D01*
X8917682Y-19771000D02*
X8936730Y-19780524D01*
X8936730Y-19780524D02*
X8974825Y-19780524D01*
X8974825Y-19780524D02*
X8993873Y-19771000D01*
X8993873Y-19771000D02*
X9003396Y-19751952D01*
X9003396Y-19751952D02*
X9003396Y-19742429D01*
X9003396Y-19742429D02*
X8993873Y-19723381D01*
X8993873Y-19723381D02*
X8974825Y-19713857D01*
X8974825Y-19713857D02*
X8946253Y-19713857D01*
X8946253Y-19713857D02*
X8927206Y-19704333D01*
X8927206Y-19704333D02*
X8917682Y-19685286D01*
X8917682Y-19685286D02*
X8917682Y-19675762D01*
X8917682Y-19675762D02*
X8927206Y-19656714D01*
X8927206Y-19656714D02*
X8946253Y-19647190D01*
X8946253Y-19647190D02*
X8974825Y-19647190D01*
X8974825Y-19647190D02*
X8993873Y-19656714D01*
X9070063Y-19856714D02*
X9079587Y-19847190D01*
X9079587Y-19847190D02*
X9098634Y-19818619D01*
X9098634Y-19818619D02*
X9108158Y-19799571D01*
X9108158Y-19799571D02*
X9117682Y-19771000D01*
X9117682Y-19771000D02*
X9127206Y-19723381D01*
X9127206Y-19723381D02*
X9127206Y-19685286D01*
X9127206Y-19685286D02*
X9117682Y-19637667D01*
X9117682Y-19637667D02*
X9108158Y-19609095D01*
X9108158Y-19609095D02*
X9098634Y-19590048D01*
X9098634Y-19590048D02*
X9079587Y-19561476D01*
X9079587Y-19561476D02*
X9070063Y-19551952D01*
M02*
