%TF.GenerationSoftware,KiCad,Pcbnew,8.0.5*%
%TF.CreationDate,2024-10-22T16:12:07-04:00*%
%TF.ProjectId,huxley-rounded,6875786c-6579-42d7-926f-756e6465642e,rev?*%
%TF.SameCoordinates,Original*%
%TF.FileFunction,Copper,L1,Top*%
%TF.FilePolarity,Positive*%
%FSLAX46Y46*%
G04 Gerber Fmt 4.6, Leading zero omitted, Abs format (unit mm)*
G04 Created by KiCad (PCBNEW 8.0.5) date 2024-10-22 16:12:07*
%MOMM*%
%LPD*%
G01*
G04 APERTURE LIST*
G04 Aperture macros list*
%AMRoundRect*
0 Rectangle with rounded corners*
0 $1 Rounding radius*
0 $2 $3 $4 $5 $6 $7 $8 $9 X,Y pos of 4 corners*
0 Add a 4 corners polygon primitive as box body*
4,1,4,$2,$3,$4,$5,$6,$7,$8,$9,$2,$3,0*
0 Add four circle primitives for the rounded corners*
1,1,$1+$1,$2,$3*
1,1,$1+$1,$4,$5*
1,1,$1+$1,$6,$7*
1,1,$1+$1,$8,$9*
0 Add four rect primitives between the rounded corners*
20,1,$1+$1,$2,$3,$4,$5,0*
20,1,$1+$1,$4,$5,$6,$7,0*
20,1,$1+$1,$6,$7,$8,$9,0*
20,1,$1+$1,$8,$9,$2,$3,0*%
G04 Aperture macros list end*
%TA.AperFunction,SMDPad,CuDef*%
%ADD10RoundRect,0.200000X0.275000X-0.200000X0.275000X0.200000X-0.275000X0.200000X-0.275000X-0.200000X0*%
%TD*%
%TA.AperFunction,SMDPad,CuDef*%
%ADD11RoundRect,0.225000X0.250000X-0.225000X0.250000X0.225000X-0.250000X0.225000X-0.250000X-0.225000X0*%
%TD*%
%TA.AperFunction,SMDPad,CuDef*%
%ADD12RoundRect,0.225000X0.225000X0.250000X-0.225000X0.250000X-0.225000X-0.250000X0.225000X-0.250000X0*%
%TD*%
%TA.AperFunction,SMDPad,CuDef*%
%ADD13RoundRect,0.200000X-0.200000X-0.275000X0.200000X-0.275000X0.200000X0.275000X-0.200000X0.275000X0*%
%TD*%
%TA.AperFunction,ComponentPad*%
%ADD14C,2.006600*%
%TD*%
%TA.AperFunction,ComponentPad*%
%ADD15C,1.905000*%
%TD*%
%TA.AperFunction,SMDPad,CuDef*%
%ADD16RoundRect,0.225000X-0.250000X0.225000X-0.250000X-0.225000X0.250000X-0.225000X0.250000X0.225000X0*%
%TD*%
%TA.AperFunction,ComponentPad*%
%ADD17C,3.600000*%
%TD*%
%TA.AperFunction,ConnectorPad*%
%ADD18C,5.600000*%
%TD*%
%TA.AperFunction,ComponentPad*%
%ADD19C,1.397000*%
%TD*%
%TA.AperFunction,ComponentPad*%
%ADD20R,1.397000X1.397000*%
%TD*%
%TA.AperFunction,SMDPad,CuDef*%
%ADD21RoundRect,0.200000X-0.275000X0.200000X-0.275000X-0.200000X0.275000X-0.200000X0.275000X0.200000X0*%
%TD*%
%TA.AperFunction,ComponentPad*%
%ADD22C,2.209800*%
%TD*%
%TA.AperFunction,SMDPad,CuDef*%
%ADD23R,0.355600X1.409700*%
%TD*%
%TA.AperFunction,ComponentPad*%
%ADD24R,1.700000X1.700000*%
%TD*%
%TA.AperFunction,ComponentPad*%
%ADD25O,1.700000X1.700000*%
%TD*%
%TA.AperFunction,SMDPad,CuDef*%
%ADD26RoundRect,0.200000X0.200000X0.275000X-0.200000X0.275000X-0.200000X-0.275000X0.200000X-0.275000X0*%
%TD*%
%TA.AperFunction,SMDPad,CuDef*%
%ADD27RoundRect,0.100000X-0.100000X0.637500X-0.100000X-0.637500X0.100000X-0.637500X0.100000X0.637500X0*%
%TD*%
%TA.AperFunction,SMDPad,CuDef*%
%ADD28RoundRect,0.225000X-0.225000X-0.250000X0.225000X-0.250000X0.225000X0.250000X-0.225000X0.250000X0*%
%TD*%
%TA.AperFunction,SMDPad,CuDef*%
%ADD29R,0.355600X1.066800*%
%TD*%
%TA.AperFunction,ComponentPad*%
%ADD30C,1.143000*%
%TD*%
%TA.AperFunction,SMDPad,CuDef*%
%ADD31C,3.000000*%
%TD*%
%TA.AperFunction,ComponentPad*%
%ADD32O,1.600000X1.200000*%
%TD*%
%TA.AperFunction,ComponentPad*%
%ADD33O,1.200000X1.200000*%
%TD*%
%TA.AperFunction,ViaPad*%
%ADD34C,0.508000*%
%TD*%
%TA.AperFunction,Conductor*%
%ADD35C,0.203200*%
%TD*%
%TA.AperFunction,Conductor*%
%ADD36C,0.304800*%
%TD*%
%TA.AperFunction,Conductor*%
%ADD37C,0.254000*%
%TD*%
%TA.AperFunction,Conductor*%
%ADD38C,0.200000*%
%TD*%
%TA.AperFunction,Conductor*%
%ADD39C,0.609600*%
%TD*%
G04 APERTURE END LIST*
D10*
%TO.P,R10,1*%
%TO.N,output_5+*%
X73000000Y-127050000D03*
%TO.P,R10,2*%
%TO.N,GND*%
X73000000Y-125400000D03*
%TD*%
D11*
%TO.P,C69,1*%
%TO.N,output_2-*%
X133000000Y-99775000D03*
%TO.P,C69,2*%
%TO.N,GND*%
X133000000Y-98225000D03*
%TD*%
D12*
%TO.P,C16,1*%
%TO.N,PP_SYS_3V3*%
X107309000Y-70405000D03*
%TO.P,C16,2*%
%TO.N,GND*%
X105759000Y-70405000D03*
%TD*%
D13*
%TO.P,R20,1*%
%TO.N,/ibias/R2_3*%
X129985000Y-67310000D03*
%TO.P,R20,2*%
%TO.N,GND*%
X131635000Y-67310000D03*
%TD*%
D14*
%TO.P,J19,1*%
%TO.N,vd1_dummy*%
X71000000Y-88000000D03*
D15*
%TO.P,J19,2*%
%TO.N,GND*%
X68447300Y-85447300D03*
%TO.P,J19,3,Ext*%
X68447300Y-90552700D03*
%TO.P,J19,4,Ext*%
X73552700Y-90552700D03*
%TO.P,J19,5,Ext*%
X73552700Y-85447300D03*
%TD*%
D16*
%TO.P,C37,1*%
%TO.N,vrbias*%
X144500000Y-76225000D03*
%TO.P,C37,2*%
%TO.N,GND*%
X144500000Y-77775000D03*
%TD*%
D14*
%TO.P,J5,1*%
%TO.N,CLK*%
X98750000Y-151000000D03*
D15*
%TO.P,J5,2*%
%TO.N,GND*%
X96197300Y-148447300D03*
%TO.P,J5,3,Ext*%
X96197300Y-153552700D03*
%TO.P,J5,4,Ext*%
X101302700Y-153552700D03*
%TO.P,J5,5,Ext*%
X101302700Y-148447300D03*
%TD*%
D12*
%TO.P,C21,1*%
%TO.N,PP_VDD_0V9*%
X75775000Y-147000000D03*
%TO.P,C21,2*%
%TO.N,GND*%
X74225000Y-147000000D03*
%TD*%
D11*
%TO.P,C64,1*%
%TO.N,output_0-*%
X133000000Y-127275000D03*
%TO.P,C64,2*%
%TO.N,GND*%
X133000000Y-125725000D03*
%TD*%
D17*
%TO.P,H3,1*%
%TO.N,N/C*%
X51000000Y-161000000D03*
D18*
X51000000Y-161000000D03*
%TD*%
D19*
%TO.P,D1,1,C*%
%TO.N,GND*%
X101600000Y-78359000D03*
D20*
%TO.P,D1,2,A*%
%TO.N,/ibias/ibias_m*%
X111760000Y-78359000D03*
%TD*%
D12*
%TO.P,C17,1*%
%TO.N,PP_SYS_3V3*%
X107309000Y-72005000D03*
%TO.P,C17,2*%
%TO.N,GND*%
X105759000Y-72005000D03*
%TD*%
D21*
%TO.P,R9,1*%
%TO.N,output_4+*%
X73000000Y-116175000D03*
%TO.P,R9,2*%
%TO.N,GND*%
X73000000Y-117825000D03*
%TD*%
D16*
%TO.P,C41,1*%
%TO.N,vlvl*%
X77000000Y-63225000D03*
%TO.P,C41,2*%
%TO.N,GND*%
X77000000Y-64775000D03*
%TD*%
D22*
%TO.P,J24,1,1*%
%TO.N,vlvl*%
X71224800Y-55000000D03*
%TO.P,J24,2,2*%
X76000000Y-55000000D03*
%TO.P,J24,3,3*%
X73612400Y-52612400D03*
%TO.P,J24,4,4*%
X73612400Y-57387600D03*
%TD*%
D12*
%TO.P,C29,1*%
%TO.N,PP_SYS_3V3*%
X89775000Y-64750000D03*
%TO.P,C29,2*%
%TO.N,GND*%
X88225000Y-64750000D03*
%TD*%
D13*
%TO.P,R22,1*%
%TO.N,PP_AD2_3V3*%
X104975000Y-142000000D03*
%TO.P,R22,2*%
%TO.N,LVLS_EN*%
X106625000Y-142000000D03*
%TD*%
D16*
%TO.P,C5,1*%
%TO.N,output_2+*%
X135962000Y-102251000D03*
%TO.P,C5,2*%
%TO.N,GND*%
X135962000Y-103801000D03*
%TD*%
%TO.P,C42,1*%
%TO.N,vlvl*%
X78500000Y-63225000D03*
%TO.P,C42,2*%
%TO.N,GND*%
X78500000Y-64775000D03*
%TD*%
D23*
%TO.P,U6,1,GND*%
%TO.N,GND*%
X108425001Y-148452750D03*
%TO.P,U6,2,VREFA*%
%TO.N,PP_AD2_3V3*%
X109075000Y-148452750D03*
%TO.P,U6,3,A1*%
%TO.N,TSCAN_OUT_3V3*%
X109724998Y-148452750D03*
%TO.P,U6,4,A2*%
%TO.N,TSCAN_EN_3V3*%
X110374999Y-148452750D03*
%TO.P,U6,5,A3*%
%TO.N,IO_UCLK_3V3*%
X111024998Y-148452750D03*
%TO.P,U6,6,A4*%
%TO.N,SPI_COPI_3V3*%
X111674999Y-148452750D03*
%TO.P,U6,7,A5*%
%TO.N,SPI_CIPO_3V3*%
X112324998Y-148452750D03*
%TO.P,U6,8,A6*%
%TO.N,SPI_CLK_3V3*%
X112974999Y-148452750D03*
%TO.P,U6,9,A7*%
%TO.N,SPI_CS_L_3V3*%
X113624998Y-148452750D03*
%TO.P,U6,10,A8*%
%TO.N,unconnected-(U6-A8-Pad10)*%
X114274999Y-148452750D03*
%TO.P,U6,11,A9*%
%TO.N,SCAN_EN_3V3*%
X114924998Y-148452750D03*
%TO.P,U6,12,A10*%
%TO.N,RST_L_3V3*%
X115574999Y-148452750D03*
%TO.P,U6,13,B10*%
%TO.N,RST_L*%
X115574999Y-142547250D03*
%TO.P,U6,14,B9*%
%TO.N,SCAN_EN*%
X114925000Y-142547250D03*
%TO.P,U6,15,B8*%
%TO.N,unconnected-(U6-B8-Pad15)*%
X114274999Y-142547250D03*
%TO.P,U6,16,B7*%
%TO.N,SPI_CS_L*%
X113625001Y-142547250D03*
%TO.P,U6,17,B6*%
%TO.N,SPI_CLK*%
X112974999Y-142547250D03*
%TO.P,U6,18,B5*%
%TO.N,SPI_CIPO*%
X112325001Y-142547250D03*
%TO.P,U6,19,B4*%
%TO.N,SPI_COPI*%
X111675002Y-142547250D03*
%TO.P,U6,20,B3*%
%TO.N,IO_UCLK*%
X111025001Y-142547250D03*
%TO.P,U6,21,B2*%
%TO.N,TSCAN_EN*%
X110375002Y-142547250D03*
%TO.P,U6,22,B1*%
%TO.N,TSCAN_OUT*%
X109725001Y-142547250D03*
%TO.P,U6,23,VREFB*%
%TO.N,PP_VDDIO_1V8*%
X109075002Y-142547250D03*
%TO.P,U6,24,EN*%
%TO.N,LVLS_EN*%
X108425001Y-142547250D03*
%TD*%
D16*
%TO.P,C35,1*%
%TO.N,PP_VDDIO_1V8*%
X143000000Y-147225000D03*
%TO.P,C35,2*%
%TO.N,GND*%
X143000000Y-148775000D03*
%TD*%
D11*
%TO.P,C6,1*%
%TO.N,output_3+*%
X76000000Y-100775000D03*
%TO.P,C6,2*%
%TO.N,GND*%
X76000000Y-99225000D03*
%TD*%
D16*
%TO.P,C66,1*%
%TO.N,output_1+*%
X133000000Y-116225000D03*
%TO.P,C66,2*%
%TO.N,GND*%
X133000000Y-117775000D03*
%TD*%
%TO.P,C32,1*%
%TO.N,PP_VDDIO_1V8*%
X147500000Y-147225000D03*
%TO.P,C32,2*%
%TO.N,GND*%
X147500000Y-148775000D03*
%TD*%
D11*
%TO.P,C4,1*%
%TO.N,output_1-*%
X136000000Y-113775000D03*
%TO.P,C4,2*%
%TO.N,GND*%
X136000000Y-112225000D03*
%TD*%
D21*
%TO.P,R1,1*%
%TO.N,output_0+*%
X139000000Y-129675000D03*
%TO.P,R1,2*%
%TO.N,GND*%
X139000000Y-131325000D03*
%TD*%
D11*
%TO.P,C67,1*%
%TO.N,output_1-*%
X133000000Y-113775000D03*
%TO.P,C67,2*%
%TO.N,GND*%
X133000000Y-112225000D03*
%TD*%
D12*
%TO.P,C18,1*%
%TO.N,PP_SYS_3V3*%
X136165000Y-71805000D03*
%TO.P,C18,2*%
%TO.N,GND*%
X134615000Y-71805000D03*
%TD*%
D22*
%TO.P,J39,1,1*%
%TO.N,vrbias*%
X155224800Y-71612400D03*
%TO.P,J39,2,2*%
X160000000Y-71612400D03*
%TO.P,J39,3,3*%
X157612400Y-69224800D03*
%TO.P,J39,4,4*%
X157612400Y-74000000D03*
%TD*%
%TO.P,J34,1,1*%
%TO.N,GND*%
X145000000Y-54000000D03*
%TO.P,J34,2,2*%
X149775200Y-54000000D03*
%TO.P,J34,3,3*%
X147387600Y-51612400D03*
%TO.P,J34,4,4*%
X147387600Y-56387600D03*
%TD*%
D24*
%TO.P,J6,1,Scope_Ch1+*%
%TO.N,unconnected-(J6B-Scope_Ch1+-Pad1)*%
X145400000Y-156000000D03*
D25*
%TO.P,J6,2,Scope_Ch1-*%
%TO.N,unconnected-(J6B-Scope_Ch1--Pad2)*%
X145400000Y-158540000D03*
%TO.P,J6,3,Scope_Ch2+*%
%TO.N,unconnected-(J6B-Scope_Ch2+-Pad3)*%
X142860000Y-156000000D03*
%TO.P,J6,4,Scope_Ch2-*%
%TO.N,unconnected-(J6B-Scope_Ch2--Pad4)*%
X142860000Y-158540000D03*
%TO.P,J6,5,GND*%
%TO.N,GND*%
X140320000Y-156000000D03*
%TO.P,J6,6,GND*%
X140320000Y-158540000D03*
%TO.P,J6,7,V+Power*%
%TO.N,PP_AD2_3V3*%
X137780000Y-156000000D03*
%TO.P,J6,8,V-Power*%
%TO.N,unconnected-(J6D-V-Power-Pad8)*%
X137780000Y-158540000D03*
%TO.P,J6,9,WaveformGen1*%
%TO.N,unconnected-(J6C-WaveformGen1-Pad9)*%
X135240000Y-156000000D03*
%TO.P,J6,10,WaveformGen2*%
%TO.N,unconnected-(J6C-WaveformGen2-Pad10)*%
X135240000Y-158540000D03*
%TO.P,J6,11,GND*%
%TO.N,GND*%
X132700000Y-156000000D03*
%TO.P,J6,12,GND*%
X132700000Y-158540000D03*
%TO.P,J6,13,Trigger1*%
%TO.N,unconnected-(J6B-Trigger1-Pad13)*%
X130160000Y-156000000D03*
%TO.P,J6,14,Trigger2*%
%TO.N,unconnected-(J6B-Trigger2-Pad14)*%
X130160000Y-158540000D03*
%TO.P,J6,15,DIO0*%
%TO.N,unconnected-(J6A-DIO0-Pad15)*%
X127620000Y-156000000D03*
%TO.P,J6,16,DIO8*%
%TO.N,unconnected-(J6A-DIO8-Pad16)*%
X127620000Y-158540000D03*
%TO.P,J6,17,DIO1*%
%TO.N,IBIAS_SEL2*%
X125080000Y-156000000D03*
%TO.P,J6,18,DIO9*%
%TO.N,IBIAS_SEL1*%
X125080000Y-158540000D03*
%TO.P,J6,19,DIO2*%
%TO.N,IBIAS_SEL4*%
X122540000Y-156000000D03*
%TO.P,J6,20,DIO10*%
%TO.N,IBIAS_SEL3*%
X122540000Y-158540000D03*
%TO.P,J6,21,DIO3*%
%TO.N,SCAN_EN_3V3*%
X120000000Y-156000000D03*
%TO.P,J6,22,DIO11*%
%TO.N,RST_L_3V3*%
X120000000Y-158540000D03*
%TO.P,J6,23,DIO4*%
%TO.N,SPI_CLK_3V3*%
X117460000Y-156000000D03*
%TO.P,J6,24,DIO12*%
%TO.N,SPI_CS_L_3V3*%
X117460000Y-158540000D03*
%TO.P,J6,25,DIO5*%
%TO.N,SPI_COPI_3V3*%
X114920000Y-156000000D03*
%TO.P,J6,26,DIO13*%
%TO.N,SPI_CIPO_3V3*%
X114920000Y-158540000D03*
%TO.P,J6,27,DIO6*%
%TO.N,TSCAN_EN_3V3*%
X112380000Y-156000000D03*
%TO.P,J6,28,DIO14*%
%TO.N,IO_UCLK_3V3*%
X112380000Y-158540000D03*
%TO.P,J6,29,DIO7*%
%TO.N,LVLS_EN*%
X109840000Y-156000000D03*
%TO.P,J6,30,DIO15*%
%TO.N,TSCAN_OUT_3V3*%
X109840000Y-158540000D03*
%TD*%
D21*
%TO.P,R3,1*%
%TO.N,output_1+*%
X139000000Y-116175000D03*
%TO.P,R3,2*%
%TO.N,GND*%
X139000000Y-117825000D03*
%TD*%
D22*
%TO.P,J37,1,1*%
%TO.N,GND*%
X62224800Y-158000000D03*
%TO.P,J37,2,2*%
X67000000Y-158000000D03*
%TO.P,J37,3,3*%
X64612400Y-155612400D03*
%TO.P,J37,4,4*%
X64612400Y-160387600D03*
%TD*%
D24*
%TO.P,J27,1,Pin_1*%
%TO.N,/ibias/ibias_rset*%
X119380000Y-71120000D03*
D25*
%TO.P,J27,2,Pin_2*%
%TO.N,/ibias/R1_4*%
X116840000Y-71120000D03*
%TD*%
D14*
%TO.P,J13,1*%
%TO.N,output_4+*%
X64000000Y-115000000D03*
D15*
%TO.P,J13,2*%
%TO.N,output_4-*%
X61447300Y-112447300D03*
%TO.P,J13,3,Ext*%
X61447300Y-117552700D03*
%TO.P,J13,4,Ext*%
X66552700Y-117552700D03*
%TO.P,J13,5,Ext*%
X66552700Y-112447300D03*
%TD*%
D26*
%TO.P,R16,1*%
%TO.N,/ibias/R1_2*%
X113855000Y-63500000D03*
%TO.P,R16,2*%
%TO.N,/ibias/ibias_m*%
X112205000Y-63500000D03*
%TD*%
D14*
%TO.P,J11,1*%
%TO.N,output_3+*%
X64000000Y-101000000D03*
D15*
%TO.P,J11,2*%
%TO.N,output_3-*%
X61447300Y-98447300D03*
%TO.P,J11,3,Ext*%
X61447300Y-103552700D03*
%TO.P,J11,4,Ext*%
X66552700Y-103552700D03*
%TO.P,J11,5,Ext*%
X66552700Y-98447300D03*
%TD*%
D27*
%TO.P,U4,1,SEL1*%
%TO.N,IBIAS_SEL1*%
X109209000Y-62542500D03*
%TO.P,U4,2,D1*%
%TO.N,/ibias/R1_1*%
X108559000Y-62542500D03*
%TO.P,U4,3,S1*%
%TO.N,/ibias/ibias_rset*%
X107909000Y-62542500D03*
%TO.P,U4,4,NC*%
%TO.N,unconnected-(U4-NC-Pad4)*%
X107259000Y-62542500D03*
%TO.P,U4,5,GND*%
%TO.N,GND*%
X106609000Y-62542500D03*
%TO.P,U4,6,S4*%
%TO.N,/ibias/ibias_rset*%
X105959000Y-62542500D03*
%TO.P,U4,7,D4*%
%TO.N,/ibias/R1_2*%
X105309000Y-62542500D03*
%TO.P,U4,8,SEL4*%
%TO.N,IBIAS_SEL2*%
X104659000Y-62542500D03*
%TO.P,U4,9,SEL3*%
%TO.N,IBIAS_SEL3*%
X104659000Y-68267500D03*
%TO.P,U4,10,D3*%
%TO.N,/ibias/R1_3*%
X105309000Y-68267500D03*
%TO.P,U4,11,S3*%
%TO.N,/ibias/ibias_rset*%
X105959000Y-68267500D03*
%TO.P,U4,12,NC*%
%TO.N,unconnected-(U4-NC-Pad12)*%
X106609000Y-68267500D03*
%TO.P,U4,13,VDD*%
%TO.N,PP_SYS_3V3*%
X107259000Y-68267500D03*
%TO.P,U4,14,S2*%
%TO.N,/ibias/ibias_rset*%
X107909000Y-68267500D03*
%TO.P,U4,15,D2*%
%TO.N,/ibias/R1_4*%
X108559000Y-68267500D03*
%TO.P,U4,16,SEL2*%
%TO.N,IBIAS_SEL4*%
X109209000Y-68267500D03*
%TD*%
D11*
%TO.P,C7,1*%
%TO.N,output_2-*%
X136000000Y-99775000D03*
%TO.P,C7,2*%
%TO.N,GND*%
X136000000Y-98225000D03*
%TD*%
D14*
%TO.P,J17,1*%
%TO.N,vbias0*%
X139000000Y-88000000D03*
D15*
%TO.P,J17,2*%
%TO.N,GND*%
X136447300Y-85447300D03*
%TO.P,J17,3,Ext*%
X136447300Y-90552700D03*
%TO.P,J17,4,Ext*%
X141552700Y-90552700D03*
%TO.P,J17,5,Ext*%
X141552700Y-85447300D03*
%TD*%
D16*
%TO.P,C33,1*%
%TO.N,PP_VDDIO_1V8*%
X146000000Y-147225000D03*
%TO.P,C33,2*%
%TO.N,GND*%
X146000000Y-148775000D03*
%TD*%
D28*
%TO.P,C15,1*%
%TO.N,PP_SYS_3V3*%
X94050000Y-68200000D03*
%TO.P,C15,2*%
%TO.N,GND*%
X95600000Y-68200000D03*
%TD*%
D16*
%TO.P,C36,1*%
%TO.N,vrbias*%
X149000000Y-76225000D03*
%TO.P,C36,2*%
%TO.N,GND*%
X149000000Y-77775000D03*
%TD*%
D11*
%TO.P,C11,1*%
%TO.N,output_4-*%
X76000000Y-113775000D03*
%TO.P,C11,2*%
%TO.N,GND*%
X76000000Y-112225000D03*
%TD*%
D27*
%TO.P,U5,1,SEL1*%
%TO.N,IBIAS_SEL1*%
X138165000Y-62542500D03*
%TO.P,U5,2,D1*%
%TO.N,/ibias/R2_1*%
X137515000Y-62542500D03*
%TO.P,U5,3,S1*%
%TO.N,/ibias/ibias_rset*%
X136865000Y-62542500D03*
%TO.P,U5,4,NC*%
%TO.N,unconnected-(U5-NC-Pad4)*%
X136215000Y-62542500D03*
%TO.P,U5,5,GND*%
%TO.N,GND*%
X135565000Y-62542500D03*
%TO.P,U5,6,S4*%
%TO.N,/ibias/ibias_rset*%
X134915000Y-62542500D03*
%TO.P,U5,7,D4*%
%TO.N,/ibias/R2_2*%
X134265000Y-62542500D03*
%TO.P,U5,8,SEL4*%
%TO.N,IBIAS_SEL2*%
X133615000Y-62542500D03*
%TO.P,U5,9,SEL3*%
%TO.N,IBIAS_SEL3*%
X133615000Y-68267500D03*
%TO.P,U5,10,D3*%
%TO.N,/ibias/R2_3*%
X134265000Y-68267500D03*
%TO.P,U5,11,S3*%
%TO.N,/ibias/ibias_rset*%
X134915000Y-68267500D03*
%TO.P,U5,12,NC*%
%TO.N,unconnected-(U5-NC-Pad12)*%
X135565000Y-68267500D03*
%TO.P,U5,13,VDD*%
%TO.N,PP_SYS_3V3*%
X136215000Y-68267500D03*
%TO.P,U5,14,S2*%
%TO.N,/ibias/ibias_rset*%
X136865000Y-68267500D03*
%TO.P,U5,15,D2*%
%TO.N,/ibias/R2_4*%
X137515000Y-68267500D03*
%TO.P,U5,16,SEL2*%
%TO.N,IBIAS_SEL4*%
X138165000Y-68267500D03*
%TD*%
D22*
%TO.P,J2,1,1*%
%TO.N,PP_TAVDD_1V8*%
X51612400Y-68612400D03*
%TO.P,J2,2,2*%
X51612400Y-73387600D03*
%TO.P,J2,3,3*%
X54000000Y-71000000D03*
%TO.P,J2,4,4*%
X49224800Y-71000000D03*
%TD*%
D29*
%TO.P,U3,1,RS1+*%
%TO.N,iout_dummy*%
X94024640Y-77133600D03*
%TO.P,U3,2,RS1-*%
%TO.N,GND*%
X94674880Y-77133600D03*
%TO.P,U3,3,RS2+*%
%TO.N,unconnected-(U3-RS2+-Pad3)*%
X95325120Y-77133600D03*
%TO.P,U3,4,RS2-*%
%TO.N,unconnected-(U3-RS2--Pad4)*%
X95975360Y-77133600D03*
%TO.P,U3,5,GND*%
%TO.N,GND*%
X95975360Y-72866400D03*
%TO.P,U3,6,OUT2*%
%TO.N,unconnected-(U3-OUT2-Pad6)*%
X95325120Y-72866400D03*
%TO.P,U3,7,OUT1*%
%TO.N,iout_dummy_amp*%
X94674880Y-72866400D03*
%TO.P,U3,8,VDD*%
%TO.N,PP_SYS_3V3*%
X94024640Y-72866400D03*
%TD*%
D30*
%TO.P,U1,*%
%TO.N,*%
X87122000Y-99060000D03*
X87122000Y-101600000D03*
X87122000Y-104140000D03*
X87122000Y-106680000D03*
X87122000Y-109220000D03*
X87122000Y-111760000D03*
X87122000Y-114300000D03*
X87122000Y-116840000D03*
X87122000Y-119380000D03*
X87122000Y-121920000D03*
X87122000Y-124460000D03*
X87122000Y-127000000D03*
X87122000Y-129540000D03*
X87122000Y-132080000D03*
X87122000Y-134620000D03*
X89662000Y-99060000D03*
X89662000Y-101600000D03*
X89662000Y-104140000D03*
X89662000Y-106680000D03*
X89662000Y-109220000D03*
X89662000Y-111760000D03*
X89662000Y-114300000D03*
X89662000Y-116840000D03*
X89662000Y-119380000D03*
X89662000Y-121920000D03*
X89662000Y-124460000D03*
X89662000Y-127000000D03*
X89662000Y-129540000D03*
X89662000Y-132080000D03*
X89662000Y-134620000D03*
X92202000Y-99060000D03*
X92202000Y-101600000D03*
X92202000Y-132080000D03*
X92202000Y-134620000D03*
X94742000Y-99060000D03*
X94742000Y-101600000D03*
X94742000Y-132080000D03*
X94742000Y-134620000D03*
X97282000Y-99060000D03*
X97282000Y-101600000D03*
X97282000Y-109220000D03*
X97282000Y-111760000D03*
X97282000Y-121920000D03*
X97282000Y-124460000D03*
X97282000Y-132080000D03*
X97282000Y-134620000D03*
X99822000Y-99060000D03*
X99822000Y-101600000D03*
X99822000Y-109220000D03*
X99822000Y-111760000D03*
X99822000Y-114300000D03*
X99822000Y-116840000D03*
X99822000Y-119380000D03*
X99822000Y-121920000D03*
X99822000Y-124460000D03*
X99822000Y-132080000D03*
X99822000Y-134620000D03*
X102362000Y-99060000D03*
X102362000Y-101600000D03*
X102362000Y-111760000D03*
X102362000Y-114300000D03*
X102362000Y-116840000D03*
X102362000Y-119380000D03*
X102362000Y-121920000D03*
X102362000Y-132080000D03*
X102362000Y-134620000D03*
X104902000Y-99060000D03*
X104902000Y-101600000D03*
X104902000Y-111760000D03*
X104902000Y-114300000D03*
X104902000Y-116840000D03*
X104902000Y-119380000D03*
X104902000Y-121920000D03*
X104902000Y-132080000D03*
X104902000Y-134620000D03*
X107442000Y-99060000D03*
X107442000Y-101600000D03*
X107442000Y-111760000D03*
X107442000Y-114300000D03*
X107442000Y-116840000D03*
X107442000Y-119380000D03*
X107442000Y-121920000D03*
X107442000Y-132080000D03*
X107442000Y-134620000D03*
X109982000Y-99060000D03*
X109982000Y-101600000D03*
X109982000Y-109220000D03*
X109982000Y-111760000D03*
X109982000Y-114300000D03*
X109982000Y-116840000D03*
X109982000Y-119380000D03*
X109982000Y-121920000D03*
X109982000Y-124460000D03*
X109982000Y-132080000D03*
X109982000Y-134620000D03*
X112522000Y-99060000D03*
X112522000Y-101600000D03*
X112522000Y-109220000D03*
X112522000Y-111760000D03*
X112522000Y-121920000D03*
X112522000Y-124460000D03*
X112522000Y-132080000D03*
X112522000Y-134620000D03*
X115062000Y-99060000D03*
X115062000Y-101600000D03*
X115062000Y-132080000D03*
X115062000Y-134620000D03*
X117602000Y-99060000D03*
X117602000Y-101600000D03*
X117602000Y-132080000D03*
X117602000Y-134620000D03*
X120142000Y-99060000D03*
X120142000Y-101600000D03*
X120142000Y-104140000D03*
X120142000Y-106680000D03*
X120142000Y-109220000D03*
X120142000Y-111760000D03*
X120142000Y-114300000D03*
X120142000Y-116840000D03*
X120142000Y-119380000D03*
X120142000Y-121920000D03*
X120142000Y-124460000D03*
X120142000Y-127000000D03*
X120142000Y-129540000D03*
X120142000Y-132080000D03*
X120142000Y-134620000D03*
X122682000Y-99060000D03*
X122682000Y-101600000D03*
X122682000Y-104140000D03*
X122682000Y-106680000D03*
X122682000Y-109220000D03*
X122682000Y-111760000D03*
X122682000Y-114300000D03*
X122682000Y-116840000D03*
X122682000Y-119380000D03*
X122682000Y-121920000D03*
X122682000Y-124460000D03*
X122682000Y-127000000D03*
X122682000Y-129540000D03*
X122682000Y-132080000D03*
X122682000Y-134620000D03*
%TO.P,U1,A1,VDDPST*%
%TO.N,PP_VDDIO_1V8*%
X117602000Y-129540000D03*
%TO.P,U1,A2*%
%TO.N,N/C*%
X115062000Y-129540000D03*
%TO.P,U1,A3,SPI_CS_L*%
%TO.N,SPI_CS_L*%
X112522000Y-129540000D03*
%TO.P,U1,A4,VSS*%
%TO.N,GND*%
X109982000Y-129540000D03*
%TO.P,U1,A5,VDD*%
%TO.N,PP_VDD_0V9*%
X107442000Y-129540000D03*
%TO.P,U1,A6,SPI_COPI*%
%TO.N,SPI_COPI*%
X104902000Y-129540000D03*
%TO.P,U1,A7,VDDPST_POC*%
%TO.N,PP_VDDIO_1V8*%
X102362000Y-129540000D03*
%TO.P,U1,A8,CLK*%
%TO.N,CLK*%
X99822000Y-129540000D03*
%TO.P,U1,A9*%
%TO.N,N/C*%
X97282000Y-129540000D03*
%TO.P,U1,A10*%
X94742000Y-129540000D03*
%TO.P,U1,A11,VSS*%
%TO.N,GND*%
X92202000Y-129540000D03*
%TO.P,U1,B1*%
%TO.N,N/C*%
X117602000Y-127000000D03*
%TO.P,U1,B2*%
X115062000Y-127000000D03*
%TO.P,U1,B3*%
X112522000Y-127000000D03*
%TO.P,U1,B4,SPI_CLK*%
%TO.N,SPI_CLK*%
X109982000Y-127000000D03*
%TO.P,U1,B5,SPI_CIPO*%
%TO.N,SPI_CIPO*%
X107442000Y-127000000D03*
%TO.P,U1,B6*%
%TO.N,N/C*%
X104902000Y-127000000D03*
%TO.P,U1,B7,IO_UCLK*%
%TO.N,IO_UCLK*%
X102362000Y-127000000D03*
%TO.P,U1,B8*%
%TO.N,N/C*%
X99822000Y-127000000D03*
%TO.P,U1,B9*%
X97282000Y-127000000D03*
%TO.P,U1,B10*%
X94742000Y-127000000D03*
%TO.P,U1,B11*%
X92202000Y-127000000D03*
%TO.P,U1,C1,RST_L*%
%TO.N,RST_L*%
X117602000Y-124460000D03*
%TO.P,U1,C2*%
%TO.N,N/C*%
X115062000Y-124460000D03*
%TO.P,U1,C5*%
X107442000Y-124460000D03*
%TO.P,U1,C6*%
X104902000Y-124460000D03*
%TO.P,U1,C7*%
X102362000Y-124460000D03*
%TO.P,U1,C10*%
X94742000Y-124460000D03*
%TO.P,U1,C11,TSCAN_OUT*%
%TO.N,TSCAN_OUT*%
X92202000Y-124460000D03*
%TO.P,U1,D1,VDD*%
%TO.N,PP_VDD_0V9*%
X117602000Y-121920000D03*
%TO.P,U1,D2,SCAN_EN*%
%TO.N,SCAN_EN*%
X115062000Y-121920000D03*
%TO.P,U1,D10,TSCAN_EN*%
%TO.N,TSCAN_EN*%
X94742000Y-121920000D03*
%TO.P,U1,D11,VDD*%
%TO.N,PP_VDD_0V9*%
X92202000Y-121920000D03*
%TO.P,U1,E1,output_0-*%
%TO.N,output_0-*%
X117602000Y-119380000D03*
%TO.P,U1,E2,output_0+*%
%TO.N,output_0+*%
X115062000Y-119380000D03*
%TO.P,U1,E3*%
%TO.N,N/C*%
X112522000Y-119380000D03*
%TO.P,U1,E9*%
X97282000Y-119380000D03*
%TO.P,U1,E10,output_5-*%
%TO.N,output_5-*%
X94742000Y-119380000D03*
%TO.P,U1,E11,TAVDD*%
%TO.N,PP_TAVDD_1V8*%
X92202000Y-119380000D03*
%TO.P,U1,F1*%
%TO.N,N/C*%
X117602000Y-116840000D03*
%TO.P,U1,F2*%
X115062000Y-116840000D03*
%TO.P,U1,F3*%
X112522000Y-116840000D03*
%TO.P,U1,F9*%
X97282000Y-116840000D03*
%TO.P,U1,F10,output_4+*%
%TO.N,output_4+*%
X94742000Y-116840000D03*
%TO.P,U1,F11,output_5+*%
%TO.N,output_5+*%
X92202000Y-116840000D03*
%TO.P,U1,G1,TAVDD*%
%TO.N,PP_TAVDD_1V8*%
X117602000Y-114300000D03*
%TO.P,U1,G2,output_1+*%
%TO.N,output_1+*%
X115062000Y-114300000D03*
%TO.P,U1,G3*%
%TO.N,N/C*%
X112522000Y-114300000D03*
%TO.P,U1,G9*%
X97282000Y-114300000D03*
%TO.P,U1,G10,output_3+*%
%TO.N,output_3+*%
X94742000Y-114300000D03*
%TO.P,U1,G11,output_4-*%
%TO.N,output_4-*%
X92202000Y-114300000D03*
%TO.P,U1,H1,output_1-*%
%TO.N,output_1-*%
X117602000Y-111760000D03*
%TO.P,U1,H2,output_2+*%
%TO.N,output_2+*%
X115062000Y-111760000D03*
%TO.P,U1,H10*%
%TO.N,N/C*%
X94742000Y-111760000D03*
%TO.P,U1,H11,output_3-*%
%TO.N,output_3-*%
X92202000Y-111760000D03*
%TO.P,U1,J1,output_2-*%
%TO.N,output_2-*%
X117602000Y-109220000D03*
%TO.P,U1,J2*%
%TO.N,N/C*%
X115062000Y-109220000D03*
%TO.P,U1,J5*%
X107442000Y-109220000D03*
%TO.P,U1,J6*%
X104902000Y-109220000D03*
%TO.P,U1,J7*%
X102362000Y-109220000D03*
%TO.P,U1,J10*%
X94742000Y-109220000D03*
%TO.P,U1,J11*%
X92202000Y-109220000D03*
%TO.P,U1,K1,VSS*%
%TO.N,GND*%
X117602000Y-106680000D03*
%TO.P,U1,K2*%
%TO.N,N/C*%
X115062000Y-106680000D03*
%TO.P,U1,K3*%
X112522000Y-106680000D03*
%TO.P,U1,K4*%
X109982000Y-106680000D03*
%TO.P,U1,K5,vrbias*%
%TO.N,vrbias*%
X107442000Y-106680000D03*
%TO.P,U1,K6,vbias0*%
%TO.N,vbias0*%
X104902000Y-106680000D03*
%TO.P,U1,K7*%
%TO.N,N/C*%
X102362000Y-106680000D03*
%TO.P,U1,K8*%
X99822000Y-106680000D03*
%TO.P,U1,K9,vd1_dummy*%
%TO.N,vd1_dummy*%
X97282000Y-106680000D03*
%TO.P,U1,K10*%
%TO.N,N/C*%
X94742000Y-106680000D03*
%TO.P,U1,K11*%
X92202000Y-106680000D03*
%TO.P,U1,L1,VSS*%
%TO.N,GND*%
X117602000Y-104140000D03*
%TO.P,U1,L2*%
%TO.N,N/C*%
X115062000Y-104140000D03*
%TO.P,U1,L3*%
X112522000Y-104140000D03*
%TO.P,U1,L4,vbias2*%
%TO.N,vbias2*%
X109982000Y-104140000D03*
%TO.P,U1,L5,vbias1*%
%TO.N,vbias1*%
X107442000Y-104140000D03*
%TO.P,U1,L6,vlvl*%
%TO.N,vlvl*%
X104902000Y-104140000D03*
%TO.P,U1,L7,VSS*%
%TO.N,GND*%
X102362000Y-104140000D03*
%TO.P,U1,L8,TAVDD*%
%TO.N,PP_TAVDD_1V8*%
X99822000Y-104140000D03*
%TO.P,U1,L9,iout_dummy*%
%TO.N,iout_dummy*%
X97282000Y-104140000D03*
%TO.P,U1,L10,vlvl_p_dummy*%
%TO.N,vlvl_p_dummy*%
X94742000Y-104140000D03*
%TO.P,U1,L11,VSS*%
%TO.N,GND*%
X92202000Y-104140000D03*
%TD*%
D24*
%TO.P,J30,1,Pin_1*%
%TO.N,/ibias/ibias_rset*%
X124460000Y-67310000D03*
D25*
%TO.P,J30,2,Pin_2*%
%TO.N,/ibias/R2_3*%
X127000000Y-67310000D03*
%TD*%
D16*
%TO.P,C26,1*%
%TO.N,PP_TAVDD_1V8*%
X63000000Y-75725000D03*
%TO.P,C26,2*%
%TO.N,GND*%
X63000000Y-77275000D03*
%TD*%
D24*
%TO.P,J31,1,Pin_1*%
%TO.N,/ibias/ibias_rset*%
X124460000Y-71120000D03*
D25*
%TO.P,J31,2,Pin_2*%
%TO.N,/ibias/R2_4*%
X127000000Y-71120000D03*
%TD*%
D16*
%TO.P,C75,1*%
%TO.N,output_5-*%
X79000000Y-129450000D03*
%TO.P,C75,2*%
%TO.N,GND*%
X79000000Y-131000000D03*
%TD*%
D31*
%TO.P,TP4,1,1*%
%TO.N,GND*%
X49100000Y-98500000D03*
%TD*%
D11*
%TO.P,C70,1*%
%TO.N,output_3+*%
X79000000Y-100775000D03*
%TO.P,C70,2*%
%TO.N,GND*%
X79000000Y-99225000D03*
%TD*%
D13*
%TO.P,R21,1*%
%TO.N,/ibias/R2_4*%
X129985000Y-71120000D03*
%TO.P,R21,2*%
%TO.N,GND*%
X131635000Y-71120000D03*
%TD*%
D12*
%TO.P,C20,1*%
%TO.N,PP_VDD_0V9*%
X75775000Y-145490000D03*
%TO.P,C20,2*%
%TO.N,GND*%
X74225000Y-145490000D03*
%TD*%
%TO.P,C19,1*%
%TO.N,PP_SYS_3V3*%
X136165000Y-70205000D03*
%TO.P,C19,2*%
%TO.N,GND*%
X134615000Y-70205000D03*
%TD*%
D10*
%TO.P,R11,1*%
%TO.N,output_4-*%
X73000000Y-113825000D03*
%TO.P,R11,2*%
%TO.N,GND*%
X73000000Y-112175000D03*
%TD*%
D16*
%TO.P,C8,1*%
%TO.N,output_3-*%
X76000000Y-103225000D03*
%TO.P,C8,2*%
%TO.N,GND*%
X76000000Y-104775000D03*
%TD*%
D24*
%TO.P,J28,1,Pin_1*%
%TO.N,/ibias/ibias_rset*%
X124460000Y-59690000D03*
D25*
%TO.P,J28,2,Pin_2*%
%TO.N,/ibias/R2_1*%
X127000000Y-59690000D03*
%TD*%
D16*
%TO.P,C9,1*%
%TO.N,output_4+*%
X76000000Y-116225000D03*
%TO.P,C9,2*%
%TO.N,GND*%
X76000000Y-117775000D03*
%TD*%
%TO.P,C72,1*%
%TO.N,output_4+*%
X79000000Y-116225000D03*
%TO.P,C72,2*%
%TO.N,GND*%
X79000000Y-117775000D03*
%TD*%
%TO.P,C68,1*%
%TO.N,output_2+*%
X133000000Y-102225000D03*
%TO.P,C68,2*%
%TO.N,GND*%
X133000000Y-103775000D03*
%TD*%
D10*
%TO.P,R6,1*%
%TO.N,output_3+*%
X73000000Y-100825000D03*
%TO.P,R6,2*%
%TO.N,GND*%
X73000000Y-99175000D03*
%TD*%
D12*
%TO.P,C23,1*%
%TO.N,PP_VDD_0V9*%
X75725000Y-150000000D03*
%TO.P,C23,2*%
%TO.N,GND*%
X74175000Y-150000000D03*
%TD*%
D26*
%TO.P,R18,1*%
%TO.N,/ibias/R1_4*%
X113855000Y-71120000D03*
%TO.P,R18,2*%
%TO.N,/ibias/ibias_m*%
X112205000Y-71120000D03*
%TD*%
D21*
%TO.P,R5,1*%
%TO.N,output_2+*%
X139000000Y-102175000D03*
%TO.P,R5,2*%
%TO.N,GND*%
X139000000Y-103825000D03*
%TD*%
D28*
%TO.P,C13,1*%
%TO.N,PP_SYS_3V3*%
X94050000Y-71200000D03*
%TO.P,C13,2*%
%TO.N,GND*%
X95600000Y-71200000D03*
%TD*%
D16*
%TO.P,C25,1*%
%TO.N,PP_TAVDD_1V8*%
X61500000Y-75725000D03*
%TO.P,C25,2*%
%TO.N,GND*%
X61500000Y-77275000D03*
%TD*%
D14*
%TO.P,J18,1*%
%TO.N,vbias2*%
X156000000Y-88000000D03*
D15*
%TO.P,J18,2*%
%TO.N,GND*%
X153447300Y-85447300D03*
%TO.P,J18,3,Ext*%
X153447300Y-90552700D03*
%TO.P,J18,4,Ext*%
X158552700Y-90552700D03*
%TO.P,J18,5,Ext*%
X158552700Y-85447300D03*
%TD*%
D16*
%TO.P,C34,1*%
%TO.N,PP_VDDIO_1V8*%
X144500000Y-147225000D03*
%TO.P,C34,2*%
%TO.N,GND*%
X144500000Y-148775000D03*
%TD*%
%TO.P,C1,1*%
%TO.N,output_0+*%
X136000000Y-129725000D03*
%TO.P,C1,2*%
%TO.N,GND*%
X136000000Y-131275000D03*
%TD*%
D26*
%TO.P,R17,1*%
%TO.N,/ibias/R1_3*%
X113855000Y-67310000D03*
%TO.P,R17,2*%
%TO.N,/ibias/ibias_m*%
X112205000Y-67310000D03*
%TD*%
D24*
%TO.P,J26,1,Pin_1*%
%TO.N,/ibias/ibias_rset*%
X119380000Y-67310000D03*
D25*
%TO.P,J26,2,Pin_2*%
%TO.N,/ibias/R1_3*%
X116840000Y-67310000D03*
%TD*%
D14*
%TO.P,J15,1*%
%TO.N,output_5+*%
X64000000Y-130000000D03*
D15*
%TO.P,J15,2*%
%TO.N,output_5-*%
X61447300Y-127447300D03*
%TO.P,J15,3,Ext*%
X61447300Y-132552700D03*
%TO.P,J15,4,Ext*%
X66552700Y-132552700D03*
%TO.P,J15,5,Ext*%
X66552700Y-127447300D03*
%TD*%
D13*
%TO.P,R14,1*%
%TO.N,/ibias/R2_1*%
X129985000Y-59690000D03*
%TO.P,R14,2*%
%TO.N,GND*%
X131635000Y-59690000D03*
%TD*%
D12*
%TO.P,C31,1*%
%TO.N,PP_SYS_3V3*%
X89775000Y-67750000D03*
%TO.P,C31,2*%
%TO.N,GND*%
X88225000Y-67750000D03*
%TD*%
D24*
%TO.P,J32,1,Pin_1*%
%TO.N,iout_dummy_amp*%
X80000000Y-69450000D03*
D25*
%TO.P,J32,2,Pin_2*%
%TO.N,iout_dummy_amp_conn*%
X80000000Y-71990000D03*
%TO.P,J32,3,Pin_3*%
%TO.N,iout_dummy*%
X80000000Y-74530000D03*
%TD*%
D22*
%TO.P,J35,1,1*%
%TO.N,PP_SYS_3V3*%
X91224800Y-55000000D03*
%TO.P,J35,2,2*%
X96000000Y-55000000D03*
%TO.P,J35,3,3*%
X93612400Y-52612400D03*
%TO.P,J35,4,4*%
X93612400Y-57387600D03*
%TD*%
D16*
%TO.P,C71,1*%
%TO.N,output_3-*%
X79000000Y-103225000D03*
%TO.P,C71,2*%
%TO.N,GND*%
X79000000Y-104775000D03*
%TD*%
%TO.P,C43,1*%
%TO.N,vlvl*%
X80000000Y-63225000D03*
%TO.P,C43,2*%
%TO.N,GND*%
X80000000Y-64775000D03*
%TD*%
D21*
%TO.P,R12,1*%
%TO.N,output_5-*%
X73000000Y-129400000D03*
%TO.P,R12,2*%
%TO.N,GND*%
X73000000Y-131050000D03*
%TD*%
D24*
%TO.P,J29,1,Pin_1*%
%TO.N,/ibias/ibias_rset*%
X124460000Y-63500000D03*
D25*
%TO.P,J29,2,Pin_2*%
%TO.N,/ibias/R2_2*%
X127000000Y-63500000D03*
%TD*%
D16*
%TO.P,C27,1*%
%TO.N,PP_TAVDD_1V8*%
X64500000Y-75725000D03*
%TO.P,C27,2*%
%TO.N,GND*%
X64500000Y-77275000D03*
%TD*%
%TO.P,C38,1*%
%TO.N,vrbias*%
X146000000Y-76225000D03*
%TO.P,C38,2*%
%TO.N,GND*%
X146000000Y-77775000D03*
%TD*%
D17*
%TO.P,H1,1*%
%TO.N,N/C*%
X159000000Y-53000000D03*
D18*
X159000000Y-53000000D03*
%TD*%
D17*
%TO.P,H4,1*%
%TO.N,N/C*%
X51000000Y-53000000D03*
D18*
X51000000Y-53000000D03*
%TD*%
D13*
%TO.P,R19,1*%
%TO.N,/ibias/R2_2*%
X129985000Y-63500000D03*
%TO.P,R19,2*%
%TO.N,GND*%
X131635000Y-63500000D03*
%TD*%
D16*
%TO.P,C65,1*%
%TO.N,output_0+*%
X133000000Y-129725000D03*
%TO.P,C65,2*%
%TO.N,GND*%
X133000000Y-131275000D03*
%TD*%
%TO.P,C40,1*%
%TO.N,vlvl*%
X75500000Y-63225000D03*
%TO.P,C40,2*%
%TO.N,GND*%
X75500000Y-64775000D03*
%TD*%
D26*
%TO.P,R13,1*%
%TO.N,/ibias/R1_1*%
X113855000Y-59690000D03*
%TO.P,R13,2*%
%TO.N,/ibias/ibias_m*%
X112205000Y-59690000D03*
%TD*%
D14*
%TO.P,J4,1*%
%TO.N,output_0+*%
X145000000Y-130000000D03*
D15*
%TO.P,J4,2*%
%TO.N,output_0-*%
X142447300Y-127447300D03*
%TO.P,J4,3,Ext*%
X142447300Y-132552700D03*
%TO.P,J4,4,Ext*%
X147552700Y-132552700D03*
%TO.P,J4,5,Ext*%
X147552700Y-127447300D03*
%TD*%
D24*
%TO.P,J25,1,Pin_1*%
%TO.N,/ibias/ibias_rset*%
X119380000Y-63500000D03*
D25*
%TO.P,J25,2,Pin_2*%
%TO.N,/ibias/R1_2*%
X116840000Y-63500000D03*
%TD*%
D12*
%TO.P,C30,1*%
%TO.N,PP_SYS_3V3*%
X89775000Y-66250000D03*
%TO.P,C30,2*%
%TO.N,GND*%
X88225000Y-66250000D03*
%TD*%
D14*
%TO.P,J7,1*%
%TO.N,output_1+*%
X145000000Y-115000000D03*
D15*
%TO.P,J7,2*%
%TO.N,output_1-*%
X142447300Y-112447300D03*
%TO.P,J7,3,Ext*%
X142447300Y-117552700D03*
%TO.P,J7,4,Ext*%
X147552700Y-117552700D03*
%TO.P,J7,5,Ext*%
X147552700Y-112447300D03*
%TD*%
D12*
%TO.P,C28,1*%
%TO.N,PP_SYS_3V3*%
X89775000Y-63250000D03*
%TO.P,C28,2*%
%TO.N,GND*%
X88225000Y-63250000D03*
%TD*%
D21*
%TO.P,R8,1*%
%TO.N,output_3-*%
X73000000Y-103175000D03*
%TO.P,R8,2*%
%TO.N,GND*%
X73000000Y-104825000D03*
%TD*%
D17*
%TO.P,H2,1*%
%TO.N,N/C*%
X159000000Y-161000000D03*
D18*
X159000000Y-161000000D03*
%TD*%
D11*
%TO.P,C10,1*%
%TO.N,output_5+*%
X76000000Y-127000000D03*
%TO.P,C10,2*%
%TO.N,GND*%
X76000000Y-125450000D03*
%TD*%
D31*
%TO.P,TP3,1,1*%
%TO.N,GND*%
X151900000Y-161100000D03*
%TD*%
D14*
%TO.P,J22,1*%
%TO.N,iout_dummy_amp_conn*%
X70750000Y-71500000D03*
D15*
%TO.P,J22,2*%
%TO.N,GND*%
X68197300Y-68947300D03*
%TO.P,J22,3,Ext*%
X68197300Y-74052700D03*
%TO.P,J22,4,Ext*%
X73302700Y-74052700D03*
%TO.P,J22,5,Ext*%
X73302700Y-68947300D03*
%TD*%
D22*
%TO.P,J1,1,1*%
%TO.N,PP_VDDIO_1V8*%
X156000000Y-151000000D03*
%TO.P,J1,2,2*%
X156000000Y-146224800D03*
%TO.P,J1,3,3*%
X153612400Y-148612400D03*
%TO.P,J1,4,4*%
X158387600Y-148612400D03*
%TD*%
D16*
%TO.P,C39,1*%
%TO.N,vrbias*%
X147500000Y-76225000D03*
%TO.P,C39,2*%
%TO.N,GND*%
X147500000Y-77775000D03*
%TD*%
D11*
%TO.P,C74,1*%
%TO.N,output_5+*%
X79000000Y-127027000D03*
%TO.P,C74,2*%
%TO.N,GND*%
X79000000Y-125477000D03*
%TD*%
D31*
%TO.P,TP1,1,1*%
%TO.N,GND*%
X105000000Y-51000000D03*
%TD*%
D13*
%TO.P,R15,1*%
%TO.N,iout_dummy*%
X93566880Y-79604000D03*
%TO.P,R15,2*%
%TO.N,GND*%
X95216880Y-79604000D03*
%TD*%
D11*
%TO.P,C2,1*%
%TO.N,output_0-*%
X136000000Y-127275000D03*
%TO.P,C2,2*%
%TO.N,GND*%
X136000000Y-125725000D03*
%TD*%
D24*
%TO.P,J21,1,Pin_1*%
%TO.N,/ibias/ibias_rset*%
X119380000Y-59690000D03*
D25*
%TO.P,J21,2,Pin_2*%
%TO.N,/ibias/R1_1*%
X116840000Y-59690000D03*
%TD*%
D10*
%TO.P,R7,1*%
%TO.N,output_2-*%
X139000000Y-99825000D03*
%TO.P,R7,2*%
%TO.N,GND*%
X139000000Y-98175000D03*
%TD*%
%TO.P,R2,1*%
%TO.N,output_0-*%
X139000000Y-127325000D03*
%TO.P,R2,2*%
%TO.N,GND*%
X139000000Y-125675000D03*
%TD*%
D28*
%TO.P,C14,1*%
%TO.N,PP_SYS_3V3*%
X94050000Y-69700000D03*
%TO.P,C14,2*%
%TO.N,GND*%
X95600000Y-69700000D03*
%TD*%
D32*
%TO.P,U2,1,R*%
%TO.N,/ibias/ibias_rset*%
X119270000Y-78000000D03*
D33*
%TO.P,U2,2,+V*%
%TO.N,vbias1*%
X118000000Y-76730000D03*
%TO.P,U2,3,-V*%
%TO.N,/ibias/ibias_m*%
X116730000Y-78000000D03*
%TD*%
D16*
%TO.P,C12,1*%
%TO.N,output_5-*%
X76000000Y-129450000D03*
%TO.P,C12,2*%
%TO.N,GND*%
X76000000Y-131000000D03*
%TD*%
%TO.P,C3,1*%
%TO.N,output_1+*%
X136000000Y-116225000D03*
%TO.P,C3,2*%
%TO.N,GND*%
X136000000Y-117775000D03*
%TD*%
D11*
%TO.P,C73,1*%
%TO.N,output_4-*%
X79000000Y-113775000D03*
%TO.P,C73,2*%
%TO.N,GND*%
X79000000Y-112225000D03*
%TD*%
D22*
%TO.P,J3,1,1*%
%TO.N,PP_VDD_0V9*%
X80000000Y-158000000D03*
%TO.P,J3,2,2*%
X84775200Y-158000000D03*
%TO.P,J3,3,3*%
X82387600Y-155612400D03*
%TO.P,J3,4,4*%
X82387600Y-160387600D03*
%TD*%
D14*
%TO.P,J20,1*%
%TO.N,vlvl_p_dummy*%
X52000000Y-88000000D03*
D15*
%TO.P,J20,2*%
%TO.N,GND*%
X49447300Y-85447300D03*
%TO.P,J20,3,Ext*%
X49447300Y-90552700D03*
%TO.P,J20,4,Ext*%
X54552700Y-90552700D03*
%TO.P,J20,5,Ext*%
X54552700Y-85447300D03*
%TD*%
D14*
%TO.P,J9,1*%
%TO.N,output_2+*%
X145000000Y-101000000D03*
D15*
%TO.P,J9,2*%
%TO.N,output_2-*%
X142447300Y-98447300D03*
%TO.P,J9,3,Ext*%
X142447300Y-103552700D03*
%TO.P,J9,4,Ext*%
X147552700Y-103552700D03*
%TO.P,J9,5,Ext*%
X147552700Y-98447300D03*
%TD*%
D12*
%TO.P,C22,1*%
%TO.N,PP_VDD_0V9*%
X75775000Y-148500000D03*
%TO.P,C22,2*%
%TO.N,GND*%
X74225000Y-148500000D03*
%TD*%
D31*
%TO.P,TP2,1,1*%
%TO.N,GND*%
X156650000Y-100900000D03*
%TD*%
D16*
%TO.P,C24,1*%
%TO.N,PP_TAVDD_1V8*%
X60000000Y-75725000D03*
%TO.P,C24,2*%
%TO.N,GND*%
X60000000Y-77275000D03*
%TD*%
D10*
%TO.P,R4,1*%
%TO.N,output_1-*%
X139000000Y-113825000D03*
%TO.P,R4,2*%
%TO.N,GND*%
X139000000Y-112175000D03*
%TD*%
D34*
%TO.N,GND*%
X147500000Y-148775000D03*
X135962000Y-103801000D03*
X74175000Y-150000000D03*
X61500000Y-77275000D03*
X133000000Y-98225000D03*
X134590000Y-70205000D03*
X63000000Y-77275000D03*
X105759000Y-70405000D03*
X88225000Y-67750000D03*
X144500000Y-148775000D03*
X147500000Y-77775000D03*
X133000000Y-131275000D03*
X49100000Y-98500000D03*
X64500000Y-77275000D03*
X76000000Y-131000000D03*
X126275000Y-124500000D03*
X74225000Y-147000000D03*
X131645000Y-67300000D03*
X76000000Y-104775000D03*
X88225000Y-63250000D03*
X79000000Y-125477000D03*
X136000000Y-112225000D03*
X76000000Y-117775000D03*
X126525000Y-116000000D03*
X88225000Y-64750000D03*
X96292000Y-79604000D03*
X106629200Y-61112400D03*
X82450000Y-121250000D03*
X96778000Y-72714000D03*
X126275000Y-123000000D03*
X73000000Y-104825000D03*
X126275000Y-130500000D03*
X82475000Y-119000000D03*
X79000000Y-104775000D03*
X133000000Y-112225000D03*
X152000000Y-161100000D03*
X98725000Y-93500000D03*
X80000000Y-64775000D03*
X139000000Y-131325000D03*
X98725000Y-92000000D03*
X136000000Y-131275000D03*
X105759000Y-72005000D03*
X73000000Y-99200000D03*
X95600000Y-71200000D03*
X75500000Y-64775000D03*
X76000000Y-112225000D03*
X133000000Y-117775000D03*
X79000000Y-112225000D03*
X139000000Y-98175000D03*
X73000000Y-112175000D03*
X133000000Y-103775000D03*
X98725000Y-90500000D03*
X98500000Y-95225000D03*
X139000000Y-112175000D03*
X126275000Y-129000000D03*
X78500000Y-64775000D03*
X79000000Y-99225000D03*
X73000000Y-117825000D03*
X60000000Y-77275000D03*
X144500000Y-77775000D03*
X88225000Y-66250000D03*
X139000000Y-117825000D03*
X146000000Y-148775000D03*
X131645000Y-71125000D03*
X135870000Y-61258800D03*
X136000000Y-125725000D03*
X133000000Y-125725000D03*
X95600000Y-69700000D03*
X134590000Y-71805000D03*
X73000000Y-131050000D03*
X156650000Y-100900000D03*
X139000000Y-103825000D03*
X82450000Y-122750000D03*
X131620000Y-63500000D03*
X94679600Y-78235600D03*
X101250000Y-138775000D03*
X76000000Y-125450000D03*
X74225000Y-148500000D03*
X76000000Y-99225000D03*
X149000000Y-77775000D03*
X79000000Y-117775000D03*
X146000000Y-77775000D03*
X73000000Y-125400000D03*
X143000000Y-148775000D03*
X98725000Y-89000000D03*
X79000000Y-131000000D03*
X139000000Y-125675000D03*
X77000000Y-64775000D03*
X131620000Y-59700000D03*
X105000000Y-51100000D03*
X95600000Y-68200000D03*
X74225000Y-145490000D03*
X136000000Y-117775000D03*
X108343401Y-149750000D03*
X136000000Y-98225000D03*
X99750000Y-138775000D03*
X126525000Y-117500000D03*
%TO.N,PP_SYS_3V3*%
X89775000Y-67750000D03*
X94000000Y-67200000D03*
X89775000Y-66250000D03*
X89775000Y-64750000D03*
X108400000Y-72000000D03*
X89775000Y-63250000D03*
X136200000Y-72900000D03*
%TO.N,PP_VDD_0V9*%
X84000000Y-121250000D03*
X75775000Y-147000000D03*
X124725000Y-123000000D03*
X124725000Y-124500000D03*
X75775000Y-145490000D03*
X75725000Y-150000000D03*
X75775000Y-148500000D03*
X84000000Y-122750000D03*
%TO.N,PP_TAVDD_1V8*%
X84025000Y-119000000D03*
X63000000Y-75725000D03*
X61500000Y-75725000D03*
X60000000Y-75725000D03*
X64500000Y-75725000D03*
X124975000Y-117500000D03*
X124975000Y-116000000D03*
X98500000Y-96775000D03*
%TO.N,PP_VDDIO_1V8*%
X101250000Y-137225000D03*
X147500000Y-147225000D03*
X144500000Y-147225000D03*
X99750000Y-137225000D03*
X124725000Y-129000000D03*
X146000000Y-147225000D03*
X143000000Y-147225000D03*
X124725000Y-130500000D03*
X108500000Y-140750000D03*
%TO.N,vlvl*%
X78500000Y-63225000D03*
X80000000Y-63225000D03*
X75500000Y-63225000D03*
X77000000Y-63225000D03*
%TO.N,vrbias*%
X149000000Y-76225000D03*
X144500000Y-76225000D03*
X147500000Y-76225000D03*
X146000000Y-76225000D03*
%TO.N,/ibias/ibias_m*%
X112205000Y-59690000D03*
X112205000Y-63500000D03*
X112205000Y-67310000D03*
X112205000Y-71120000D03*
%TO.N,IBIAS_SEL3*%
X141700000Y-66000000D03*
X103600000Y-68000000D03*
X133000000Y-68200000D03*
%TO.N,IBIAS_SEL4*%
X110200000Y-69400000D03*
X141300000Y-66800000D03*
%TO.N,IBIAS_SEL1*%
X110100000Y-61400000D03*
X141100000Y-64200000D03*
%TO.N,IBIAS_SEL2*%
X103800000Y-62600000D03*
X141700000Y-65100000D03*
X133000000Y-62400000D03*
%TO.N,PP_AD2_3V3*%
X109493001Y-146397250D03*
X103425000Y-142000000D03*
%TD*%
D35*
%TO.N,IBIAS_SEL3*%
X162862632Y-67437368D02*
X162988534Y-67563270D01*
%TO.N,output_5-*%
X90719415Y-123280585D02*
X90931662Y-123068338D01*
%TO.N,output_0+*%
X130046800Y-126617261D02*
X130046793Y-126999269D01*
%TO.N,PP_AD2_3V3*%
X109284000Y-146606250D02*
G75*
G03*
X109075023Y-147110822I504600J-504550D01*
G01*
%TO.N,PP_VDDIO_1V8*%
X108787501Y-141037501D02*
G75*
G02*
X109075006Y-141731589I-694101J-694099D01*
G01*
%TO.N,CLK*%
X99254999Y-130044999D02*
G75*
G03*
X98749989Y-131264177I1219201J-1219201D01*
G01*
X99791000Y-129540000D02*
G75*
G03*
X99738088Y-129561929I0J-74800D01*
G01*
D36*
%TO.N,PP_SYS_3V3*%
X136165000Y-72840251D02*
G75*
G03*
X136182486Y-72882514I59700J-49D01*
G01*
X108397500Y-72002500D02*
G75*
G02*
X108391464Y-72004985I-6000J6000D01*
G01*
X136215000Y-71719644D02*
G75*
G02*
X136189987Y-71779987I-85400J44D01*
G01*
X107259000Y-71919644D02*
G75*
G03*
X107284013Y-71979987I85400J44D01*
G01*
D37*
X94025000Y-67225000D02*
G75*
G02*
X94050018Y-67285355I-60400J-60400D01*
G01*
D36*
X136190000Y-71780000D02*
G75*
G03*
X136164982Y-71840355I60400J-60400D01*
G01*
D37*
X94050000Y-72823107D02*
G75*
G02*
X94037318Y-72853718I-43300J7D01*
G01*
D36*
X107284000Y-71980000D02*
G75*
G03*
X107344355Y-72005018I60400J60400D01*
G01*
%TO.N,GND*%
X131632500Y-59690000D02*
G75*
G03*
X131628240Y-59691775I0J-6000D01*
G01*
X131641767Y-71121767D02*
G75*
G03*
X131637500Y-71119990I-4267J-4233D01*
G01*
X135717500Y-61411300D02*
G75*
G03*
X135564987Y-61779467I368200J-368200D01*
G01*
X106619100Y-61122500D02*
G75*
G03*
X106608993Y-61146883I24400J-24400D01*
G01*
D37*
X96271083Y-72714000D02*
G75*
G03*
X96087121Y-72790201I17J-260200D01*
G01*
X108389200Y-149671816D02*
G75*
G02*
X108366296Y-149727096I-78200J16D01*
G01*
X94677240Y-77135960D02*
G75*
G02*
X94679617Y-77141657I-5740J-5740D01*
G01*
D35*
%TO.N,output_5-*%
X91153200Y-122533496D02*
G75*
G02*
X90931668Y-123068344I-756400J-4D01*
G01*
X92618970Y-118118970D02*
G75*
G03*
X92090329Y-117899976I-528670J-528630D01*
G01*
X91466928Y-118213728D02*
G75*
G03*
X91153214Y-118971137I757372J-757372D01*
G01*
X73625000Y-129425000D02*
G75*
G03*
X73685355Y-129450018I60400J60400D01*
G01*
X92090329Y-117900000D02*
G75*
G03*
X91561675Y-118118958I-29J-747600D01*
G01*
X90719415Y-123280585D02*
G75*
G02*
X90232915Y-123482115I-486515J486485D01*
G01*
X80369300Y-128453200D02*
G75*
G03*
X79733401Y-128716596I0J-899300D01*
G01*
X93575236Y-119075236D02*
G75*
G03*
X94311000Y-119380008I735764J735736D01*
G01*
X81005197Y-128189802D02*
G75*
G02*
X80369300Y-128453198I-635897J635902D01*
G01*
X69546942Y-128453200D02*
G75*
G03*
X67623038Y-129250070I-42J-2720800D01*
G01*
X73625000Y-129425000D02*
G75*
G03*
X73564644Y-129399982I-60400J-60400D01*
G01*
X86839881Y-123482100D02*
G75*
G03*
X84916007Y-124279000I19J-2720800D01*
G01*
X67341915Y-129531245D02*
G75*
G03*
X66552671Y-131436580I1905285J-1905355D01*
G01*
X72526600Y-128926600D02*
G75*
G03*
X71383711Y-128453195I-1142900J-1142900D01*
G01*
%TO.N,output_4-*%
X73160355Y-113775000D02*
G75*
G03*
X73100013Y-113800013I45J-85400D01*
G01*
X72643749Y-113825000D02*
G75*
G03*
X72035559Y-114076875I-49J-860100D01*
G01*
D38*
X85940432Y-115405250D02*
G75*
G03*
X85953106Y-115410503I12668J12650D01*
G01*
X85940432Y-115405250D02*
G75*
G03*
X85927757Y-115400023I-12632J-12650D01*
G01*
D35*
X66552700Y-113525410D02*
G75*
G03*
X66925553Y-114425547I1273000J10D01*
G01*
X73100000Y-113800000D02*
G75*
G02*
X73039644Y-113825018I-60400J60400D01*
G01*
X71800799Y-114311700D02*
G75*
G02*
X70625801Y-114798400I-1174999J1175000D01*
G01*
X79828103Y-114603103D02*
G75*
G03*
X81751981Y-115400005I1923897J1923903D01*
G01*
X66925550Y-114425550D02*
G75*
G03*
X67825689Y-114798404I900150J900150D01*
G01*
D38*
X91646750Y-114855250D02*
G75*
G02*
X90306257Y-115410483I-1340450J1340450D01*
G01*
D35*
X73037500Y-113825000D02*
X72962500Y-113825000D01*
D38*
X85167591Y-115400000D02*
X83632409Y-115400000D01*
D35*
%TO.N,output_5+*%
X85853553Y-123000000D02*
G75*
G03*
X85249984Y-123249984I-53J-853500D01*
G01*
X90529539Y-122829539D02*
G75*
G02*
X90118009Y-123000004I-411539J411539D01*
G01*
X80759520Y-127794557D02*
G75*
G02*
X80263539Y-128000034I-496020J495957D01*
G01*
X73414263Y-127027000D02*
G75*
G03*
X73386511Y-127038511I37J-39300D01*
G01*
X85019119Y-123480880D02*
G75*
G03*
X85000033Y-123527039I46181J-46120D01*
G01*
D38*
X91109414Y-117932585D02*
G75*
G03*
X90699991Y-118921000I988386J-988415D01*
G01*
D35*
X85000000Y-123527039D02*
G75*
G02*
X84980866Y-123573183I-65300J39D01*
G01*
X69359220Y-128000000D02*
G75*
G03*
X67435327Y-128796881I-20J-2720800D01*
G01*
X67021454Y-129210784D02*
G75*
G02*
X65116119Y-129999999I-1905354J1905384D01*
G01*
X72524999Y-127524999D02*
G75*
G02*
X71378248Y-128000019I-1146799J1146799D01*
G01*
X73386500Y-127038500D02*
G75*
G02*
X73358736Y-127050015I-27800J27800D01*
G01*
X73187500Y-127050000D02*
G75*
G03*
X72867410Y-127182575I0J-452700D01*
G01*
X90700000Y-122418009D02*
G75*
G02*
X90529536Y-122829536I-582000J9D01*
G01*
X79767557Y-127794557D02*
G75*
G03*
X80263539Y-127999979I495943J495957D01*
G01*
%TO.N,output_4+*%
X80859153Y-115862100D02*
G75*
G03*
X80481484Y-116018584I47J-534100D01*
G01*
X94253050Y-116351050D02*
G75*
G03*
X93072620Y-115862092I-1180450J-1180450D01*
G01*
X71800799Y-115738300D02*
G75*
G03*
X72975796Y-116225002I1175001J1175000D01*
G01*
X66984878Y-115125800D02*
G75*
G03*
X67288586Y-115251612I303722J303700D01*
G01*
X78975000Y-116200000D02*
G75*
G02*
X78914644Y-116225018I-60400J60400D01*
G01*
X71800799Y-115738300D02*
G75*
G03*
X70625801Y-115251600I-1174999J-1175000D01*
G01*
X66984878Y-115125800D02*
G75*
G03*
X66681169Y-115000019I-303678J-303700D01*
G01*
X80481450Y-116018550D02*
G75*
G02*
X80103746Y-116175019I-377750J377750D01*
G01*
X79035355Y-116175000D02*
G75*
G03*
X78975013Y-116200013I45J-85400D01*
G01*
%TO.N,output_3-*%
X73350000Y-103200000D02*
G75*
G02*
X73289644Y-103225018I-60400J60400D01*
G01*
X73000000Y-103162500D02*
G75*
G03*
X73062500Y-103225000I62500J0D01*
G01*
X67026350Y-101473650D02*
G75*
G03*
X66552718Y-102617142I1143450J-1143450D01*
G01*
D38*
X91504720Y-111062720D02*
G75*
G03*
X90629000Y-110699973I-875720J-875680D01*
G01*
D35*
X68169842Y-101000000D02*
G75*
G03*
X67026338Y-101473638I-42J-1617100D01*
G01*
X86168230Y-110343230D02*
G75*
G03*
X87029549Y-110699962I861270J861330D01*
G01*
X71696896Y-101796896D02*
G75*
G03*
X69773018Y-100999995I-1923896J-1923904D01*
G01*
X73410355Y-103175000D02*
G75*
G03*
X73350013Y-103200013I45J-85400D01*
G01*
X72955805Y-103055805D02*
G75*
G02*
X72999997Y-103162500I-106705J-106695D01*
G01*
%TO.N,output_2-*%
X127995296Y-104779703D02*
G75*
G03*
X127198394Y-106703581I1923904J-1923897D01*
G01*
X126278033Y-109451503D02*
G75*
G02*
X124354156Y-110248360I-1923833J1923903D01*
G01*
X138650000Y-99800000D02*
G75*
G03*
X138589644Y-99774982I-60400J-60400D01*
G01*
X140186701Y-100299200D02*
G75*
G03*
X141331521Y-100773391I1144799J1144800D01*
G01*
X142447300Y-100055220D02*
G75*
G02*
X142236944Y-100563044I-718200J20D01*
G01*
X138650000Y-99800000D02*
G75*
G03*
X138710355Y-99825018I60400J60400D01*
G01*
X142236950Y-100563050D02*
G75*
G02*
X141729120Y-100773408I-507850J507850D01*
G01*
X127198400Y-107404156D02*
G75*
G02*
X126401531Y-109328062I-2720800J-44D01*
G01*
X139964408Y-100076907D02*
G75*
G03*
X139356250Y-99825045I-608108J-608193D01*
G01*
X117912700Y-109937700D02*
G75*
G03*
X118662796Y-110248402I750100J750100D01*
G01*
X117602000Y-109423500D02*
G75*
G03*
X117745894Y-109770898I491300J0D01*
G01*
X139162500Y-99825000D02*
X138837500Y-99825000D01*
%TO.N,output_3+*%
X67109078Y-100750000D02*
G75*
G02*
X66505524Y-101000004I-603578J603600D01*
G01*
D38*
X79825000Y-102451848D02*
G75*
G03*
X80427330Y-103906061I2056500J-52D01*
G01*
X79025000Y-100800000D02*
G75*
G03*
X78975000Y-100800000I-25000J-24998D01*
G01*
X91681148Y-110602750D02*
G75*
G03*
X92250298Y-110838501I569152J569150D01*
G01*
D35*
X71203422Y-100662500D02*
G75*
G03*
X71595731Y-100824980I392278J392300D01*
G01*
X78975000Y-100800000D02*
G75*
G02*
X78914644Y-100825018I-60400J60400D01*
G01*
X67712631Y-100500000D02*
G75*
G03*
X67109073Y-100749995I-31J-853500D01*
G01*
D38*
X86509834Y-109988531D02*
G75*
G03*
X87020366Y-110200025I510566J510531D01*
G01*
X91597648Y-110519250D02*
G75*
G03*
X90826910Y-110199996I-770748J-770750D01*
G01*
X93123500Y-111711702D02*
G75*
G03*
X93359250Y-112280850I804900J2D01*
G01*
D35*
X71203422Y-100662500D02*
G75*
G03*
X70811112Y-100499988I-392322J-392300D01*
G01*
D38*
X92887750Y-111142552D02*
G75*
G02*
X93123498Y-111711702I-569150J-569148D01*
G01*
X92819447Y-111074249D02*
G75*
G03*
X92250298Y-110838502I-569147J-569151D01*
G01*
X94516999Y-113438601D02*
G75*
G02*
X94741999Y-113981801I-543199J-543199D01*
G01*
X79412500Y-101187500D02*
G75*
G02*
X79825015Y-102183363I-995900J-995900D01*
G01*
D35*
%TO.N,output_2+*%
X138710355Y-102175000D02*
G75*
G03*
X138650013Y-102200013I45J-85400D01*
G01*
X128448496Y-104967425D02*
G75*
G03*
X127651609Y-106891303I1923904J-1923875D01*
G01*
X127651600Y-107591880D02*
G75*
G02*
X126854719Y-109515774I-2720800J-20D01*
G01*
X142635230Y-101000000D02*
G75*
G03*
X142361691Y-101113291I-30J-386800D01*
G01*
X139964408Y-101923092D02*
G75*
G02*
X139356250Y-102175025I-608208J608192D01*
G01*
X138650000Y-102200000D02*
G75*
G02*
X138589644Y-102225018I-60400J60400D01*
G01*
X117721801Y-110701600D02*
G75*
G03*
X116444199Y-111230799I-1J-1806800D01*
G01*
X116216581Y-111458418D02*
G75*
G02*
X115488500Y-111759988I-728081J728118D01*
G01*
X132095461Y-102225000D02*
G75*
G03*
X130551346Y-102864635I39J-2183700D01*
G01*
X142361700Y-101113300D02*
G75*
G02*
X142088169Y-101226587I-273500J273500D01*
G01*
X126465758Y-109904703D02*
G75*
G02*
X124541880Y-110701578I-1923858J1923903D01*
G01*
X141331521Y-101226600D02*
G75*
G03*
X140186695Y-101700794I-21J-1619000D01*
G01*
X139162500Y-102175000D02*
X138837500Y-102175000D01*
%TO.N,output_1-*%
X117825200Y-112550200D02*
G75*
G03*
X118364052Y-112773420I538900J538900D01*
G01*
X125590758Y-113570296D02*
G75*
G03*
X123666880Y-112773421I-1923858J-1923904D01*
G01*
X132643749Y-113775000D02*
G75*
G03*
X132035559Y-114026875I-49J-860100D01*
G01*
X133025000Y-113800000D02*
G75*
G03*
X133085355Y-113825018I60400J60400D01*
G01*
X125996965Y-113976503D02*
G75*
G03*
X127920843Y-114773362I1923835J1923903D01*
G01*
X131788299Y-114274200D02*
G75*
G02*
X130583123Y-114773409I-1205199J1205200D01*
G01*
X140050001Y-114162500D02*
G75*
G03*
X140864798Y-114500001I814799J814800D01*
G01*
X133025000Y-113800000D02*
G75*
G03*
X132964644Y-113774982I-60400J-60400D01*
G01*
X142223650Y-114276350D02*
G75*
G02*
X141683711Y-114500005I-539950J539950D01*
G01*
X139964408Y-114076907D02*
G75*
G03*
X139356250Y-113825045I-608108J-608193D01*
G01*
X117602000Y-112043500D02*
G75*
G03*
X117802470Y-112527458I684400J0D01*
G01*
X142447300Y-113736411D02*
G75*
G02*
X142223647Y-114276347I-763600J11D01*
G01*
%TO.N,output_1+*%
X139035355Y-116175000D02*
G75*
G03*
X138975013Y-116200013I45J-85400D01*
G01*
D38*
X138975000Y-116200000D02*
G75*
G02*
X138914644Y-116225018I-60400J60400D01*
G01*
D35*
X139439904Y-116060095D02*
G75*
G02*
X139162500Y-116175002I-277404J277395D01*
G01*
X117957408Y-113226600D02*
G75*
G03*
X116661698Y-113763298I-8J-1832400D01*
G01*
X132035591Y-115973092D02*
G75*
G03*
X132643749Y-116224955I608109J608192D01*
G01*
X125403034Y-114023496D02*
G75*
G03*
X123479156Y-113226638I-1923834J-1923904D01*
G01*
X125809241Y-114429703D02*
G75*
G03*
X127733119Y-115226579I1923859J1923903D01*
G01*
X141330850Y-115000000D02*
G75*
G03*
X139912485Y-115587485I-50J-2005800D01*
G01*
X116500827Y-113924172D02*
G75*
G02*
X115593500Y-114299986I-907327J907372D01*
G01*
X131788299Y-115725800D02*
G75*
G03*
X130583123Y-115226591I-1205199J-1205200D01*
G01*
%TO.N,output_0-*%
X130820461Y-127679539D02*
G75*
G03*
X131594122Y-127999991I773639J773639D01*
G01*
D38*
X142447300Y-128148543D02*
G75*
G02*
X142373637Y-128326337I-251500J43D01*
G01*
X139450000Y-127950000D02*
G75*
G03*
X140536396Y-128400002I1086400J1086400D01*
G01*
D35*
X129842716Y-124842716D02*
G75*
G02*
X130499974Y-126429539I-1586816J-1586784D01*
G01*
X126195296Y-121195296D02*
G75*
G03*
X124271418Y-120398395I-1923896J-1923904D01*
G01*
D37*
X142850000Y-127447300D02*
G75*
G03*
X142447300Y-127850000I0J-402700D01*
G01*
D38*
X142373650Y-128326350D02*
G75*
G02*
X142195843Y-128400018I-177850J177850D01*
G01*
D35*
X133025000Y-127300000D02*
G75*
G03*
X132975000Y-127300000I-25000J-24998D01*
G01*
D38*
X139000000Y-127412500D02*
G75*
G03*
X139061880Y-127561862I211200J0D01*
G01*
D35*
X133025000Y-127300000D02*
G75*
G03*
X133085355Y-127325018I60400J60400D01*
G01*
X130500000Y-126905877D02*
G75*
G03*
X130820454Y-127679546I1094100J-23D01*
G01*
D38*
X139000000Y-127412500D02*
G75*
G03*
X138912500Y-127325000I-87500J0D01*
G01*
D35*
X118111200Y-119889200D02*
G75*
G03*
X119340517Y-120398393I1229300J1229300D01*
G01*
X132637500Y-127637500D02*
G75*
G02*
X131762347Y-128000020I-875200J875200D01*
G01*
D38*
%TO.N,output_0+*%
X139169194Y-129630805D02*
G75*
G02*
X139062500Y-129674996I-106694J106705D01*
G01*
D35*
X116865800Y-120115800D02*
G75*
G03*
X118642178Y-120851609I1776400J1776400D01*
G01*
X129389516Y-125030438D02*
G75*
G02*
X130046829Y-126617261I-1586816J-1586862D01*
G01*
D38*
X142350000Y-129450000D02*
G75*
G03*
X143677817Y-129999993I1327800J1327800D01*
G01*
D35*
X130046793Y-126999269D02*
G75*
G03*
X130433923Y-127933941I1321807J-31D01*
G01*
X131950996Y-129450996D02*
G75*
G03*
X132612500Y-129725002I661504J661496D01*
G01*
X116507595Y-119757595D02*
G75*
G03*
X115596000Y-119380003I-911595J-911605D01*
G01*
D38*
X140448007Y-128900000D02*
G75*
G03*
X139512498Y-129287498I-7J-1323000D01*
G01*
D35*
X126007574Y-121648496D02*
G75*
G03*
X124083696Y-120851610I-1923874J-1923904D01*
G01*
D38*
X142350000Y-129450000D02*
G75*
G03*
X141022182Y-128900007I-1327800J-1327800D01*
G01*
D35*
X133025000Y-129700000D02*
G75*
G02*
X132964644Y-129725018I-60400J60400D01*
G01*
X133085355Y-129675000D02*
G75*
G03*
X133025013Y-129700013I45J-85400D01*
G01*
D38*
X139062500Y-129675000D02*
X138937500Y-129675000D01*
D35*
%TO.N,iout_dummy_amp_conn*%
X70875000Y-71625000D02*
G75*
G03*
X71176776Y-71750010I301800J301800D01*
G01*
X79880000Y-71870000D02*
G75*
G03*
X79590294Y-71750002I-289700J-289700D01*
G01*
%TO.N,IBIAS_SEL2*%
X104630250Y-62571250D02*
G75*
G02*
X104560841Y-62600017I-69450J69450D01*
G01*
X125123817Y-155832247D02*
G75*
G03*
X125080021Y-155938032I105783J-105753D01*
G01*
X163862632Y-155062632D02*
G75*
G02*
X161599625Y-156000011I-2263032J2263032D01*
G01*
X163368188Y-67368188D02*
G75*
G02*
X164800012Y-70824887I-3456688J-3456712D01*
G01*
X148371536Y-154796800D02*
G75*
G03*
X151276317Y-155999982I2904764J2904800D01*
G01*
X128341460Y-153593600D02*
G75*
G03*
X126670230Y-154285876I40J-2363500D01*
G01*
X162693792Y-66693792D02*
G75*
G03*
X158846036Y-65099989I-3847792J-3847808D01*
G01*
X133543750Y-62471250D02*
G75*
G03*
X133371737Y-62399985I-172050J-172050D01*
G01*
X148371536Y-154796800D02*
G75*
G03*
X145466754Y-153593638I-2904736J-2904800D01*
G01*
X164800000Y-152799625D02*
G75*
G02*
X163862625Y-155062625I-3200400J25D01*
G01*
%TO.N,IBIAS_SEL1*%
X148250000Y-155250000D02*
G75*
G03*
X151267766Y-156500014I3017800J3017800D01*
G01*
X128654594Y-154000000D02*
G75*
G03*
X127025002Y-154675002I6J-2304600D01*
G01*
X162368528Y-65793792D02*
G75*
G03*
X158520772Y-64200034I-3847728J-3847808D01*
G01*
X109900000Y-61400000D02*
G75*
G03*
X109558587Y-61541430I0J-482800D01*
G01*
X138165000Y-63286697D02*
G75*
G03*
X138432499Y-63932501I913300J-3D01*
G01*
X165350000Y-152915075D02*
G75*
G02*
X164300007Y-155450007I-3584900J-25D01*
G01*
X109439340Y-61660659D02*
G75*
G03*
X109209026Y-62216750I556060J-556041D01*
G01*
X126350000Y-156371974D02*
G75*
G02*
X125715008Y-157905008I-2168000J-26D01*
G01*
X138432500Y-63932500D02*
G75*
G03*
X139078302Y-64199999I645800J645800D01*
G01*
X127025000Y-154675000D02*
G75*
G03*
X126349998Y-156304594I1629600J-1629600D01*
G01*
X164025468Y-67450732D02*
G75*
G02*
X165349985Y-70648436I-3197668J-3197668D01*
G01*
X148250000Y-155250000D02*
G75*
G03*
X145232233Y-153999986I-3017800J-3017800D01*
G01*
X164300000Y-155450000D02*
G75*
G02*
X161765075Y-156499990I-2534900J2534900D01*
G01*
%TO.N,IBIAS_SEL4*%
X148661408Y-153937200D02*
G75*
G03*
X145869611Y-152780793I-2791808J-2791800D01*
G01*
X138382500Y-67017500D02*
G75*
G03*
X138164996Y-67542591I525100J-525100D01*
G01*
X163078200Y-154421800D02*
G75*
G02*
X161456331Y-155093613I-1621900J1621900D01*
G01*
X109658578Y-69258578D02*
G75*
G03*
X110000000Y-69400013I341422J341378D01*
G01*
X122660208Y-155539791D02*
G75*
G03*
X122539995Y-155830000I290192J-290209D01*
G01*
X127455101Y-152780800D02*
G75*
G03*
X123979599Y-154220399I-1J-4915100D01*
G01*
X109209000Y-68538250D02*
G75*
G03*
X109400434Y-69000464I653600J-50D01*
G01*
X138907591Y-66800000D02*
G75*
G03*
X138382503Y-67017503I9J-742600D01*
G01*
X163750000Y-152799931D02*
G75*
G02*
X163078191Y-154421791I-2293700J31D01*
G01*
X148661408Y-153937200D02*
G75*
G03*
X151453204Y-155093596I2791792J2791800D01*
G01*
X162700264Y-67849736D02*
G75*
G03*
X160165977Y-66800009I-2534264J-2534264D01*
G01*
X162700264Y-67849736D02*
G75*
G02*
X163749991Y-70384022I-2534264J-2534264D01*
G01*
%TO.N,IBIAS_SEL3*%
X104525250Y-68133750D02*
G75*
G03*
X104202348Y-67999950I-322950J-322850D01*
G01*
X123800000Y-156389045D02*
G75*
G02*
X123169987Y-157909987I-2151000J45D01*
G01*
X163487632Y-154687632D02*
G75*
G02*
X161526402Y-155500001I-1961232J1961232D01*
G01*
X162862632Y-67437368D02*
G75*
G03*
X159392518Y-65999992I-3470132J-3470132D01*
G01*
X164300000Y-152726402D02*
G75*
G02*
X163487631Y-154687631I-2773600J2D01*
G01*
X162988534Y-67563270D02*
G75*
G02*
X164299987Y-70729428I-3166134J-3166130D01*
G01*
X124494825Y-154619910D02*
G75*
G03*
X123799981Y-156297368I1677475J-1677490D01*
G01*
X127431931Y-153187200D02*
G75*
G03*
X124863759Y-154250959I-31J-3631900D01*
G01*
X133033750Y-68233750D02*
G75*
G03*
X133115229Y-68267488I81450J81450D01*
G01*
X148493072Y-154343600D02*
G75*
G03*
X145701275Y-153187218I-2791772J-2791800D01*
G01*
X148493072Y-154343600D02*
G75*
G03*
X151284868Y-155500021I2791828J2791800D01*
G01*
%TO.N,/ibias/R2_4*%
X136957500Y-73142500D02*
G75*
G02*
X135611575Y-73699990I-1345900J1345900D01*
G01*
X130865000Y-72820000D02*
G75*
G03*
X132989507Y-73699997I2124500J2124500D01*
G01*
X129985000Y-71530000D02*
G75*
G03*
X130274919Y-72229907I989800J0D01*
G01*
X137515000Y-71796575D02*
G75*
G02*
X136957507Y-73142507I-1903400J-25D01*
G01*
%TO.N,/ibias/R2_3*%
X133967500Y-66697500D02*
G75*
G03*
X133249271Y-66400012I-718200J-718200D01*
G01*
X131154368Y-66400000D02*
G75*
G03*
X130327509Y-66742509I32J-1169400D01*
G01*
X133967500Y-66697500D02*
G75*
G02*
X134264988Y-67415728I-718200J-718200D01*
G01*
X130064549Y-67005450D02*
G75*
G03*
X129985000Y-67197500I192051J-192050D01*
G01*
X129985000Y-67197500D02*
G75*
G02*
X129872500Y-67310000I-112500J0D01*
G01*
%TO.N,/ibias/R2_2*%
X133917500Y-64152500D02*
G75*
G02*
X133078560Y-64499984I-838900J838900D01*
G01*
X129985000Y-63607500D02*
G75*
G03*
X129877500Y-63500000I-107500J0D01*
G01*
X130377500Y-64107500D02*
G75*
G03*
X131325078Y-64500009I947600J947600D01*
G01*
X129985000Y-63607500D02*
G75*
G03*
X130061019Y-63791007I259500J0D01*
G01*
X134265000Y-63313560D02*
G75*
G02*
X133917511Y-64152511I-1186400J-40D01*
G01*
%TO.N,/ibias/R2_1*%
X130227500Y-60457500D02*
G75*
G03*
X130812946Y-60699981I585400J585400D01*
G01*
X129985000Y-59952500D02*
G75*
G03*
X129722500Y-59690000I-262500J0D01*
G01*
X129985000Y-59952500D02*
G75*
G03*
X130170621Y-60400609I633700J0D01*
G01*
X137144652Y-61124652D02*
G75*
G02*
X137515048Y-62018750I-894052J-894148D01*
G01*
X137117500Y-61097500D02*
G75*
G03*
X136157850Y-60700021I-959600J-959600D01*
G01*
%TO.N,/ibias/R1_4*%
X113855000Y-71049900D02*
G75*
G03*
X113925100Y-71120000I70100J0D01*
G01*
X108559000Y-69149044D02*
G75*
G03*
X108838734Y-69824266I954900J44D01*
G01*
X108838700Y-69824300D02*
G75*
G03*
X109513955Y-70104018I675300J675300D01*
G01*
X113417100Y-70541900D02*
G75*
G03*
X112359915Y-70103993I-1057200J-1057200D01*
G01*
X113805431Y-70930231D02*
G75*
G02*
X113855011Y-71049900I-119631J-119669D01*
G01*
%TO.N,/ibias/R1_3*%
X105671900Y-66098100D02*
G75*
G03*
X105309007Y-66974218I876100J-876100D01*
G01*
X106548018Y-65735200D02*
G75*
G03*
X105671895Y-66098095I-18J-1239000D01*
G01*
X113067600Y-66522600D02*
G75*
G03*
X111166648Y-65735151I-1901000J-1900900D01*
G01*
%TO.N,/ibias/R1_2*%
X113823500Y-63500000D02*
G75*
G03*
X113769736Y-63522283I0J-76000D01*
G01*
X105308400Y-64087265D02*
G75*
G03*
X105627390Y-64857410I1089100J-35D01*
G01*
X112953800Y-64338200D02*
G75*
G02*
X110930206Y-65176403I-2023600J2023600D01*
G01*
X105308700Y-62542800D02*
G75*
G03*
X105308410Y-62543524I700J-700D01*
G01*
X105627400Y-64857400D02*
G75*
G03*
X106397534Y-65176386I770100J770100D01*
G01*
X113886500Y-63500000D02*
X113823500Y-63500000D01*
%TO.N,/ibias/R1_1*%
X109784361Y-60700000D02*
G75*
G03*
X108917911Y-61058911I39J-1225400D01*
G01*
X108917900Y-61058900D02*
G75*
G03*
X108558984Y-61925361I866500J-866500D01*
G01*
X113350000Y-60195000D02*
G75*
G02*
X112130822Y-60700009I-1219200J1219200D01*
G01*
%TO.N,/ibias/ibias_rset*%
X106114500Y-66855500D02*
G75*
G03*
X105959004Y-67230910I375400J-375400D01*
G01*
X106114500Y-64044500D02*
G75*
G03*
X106489910Y-64199996I375400J375400D01*
G01*
X107789500Y-66819500D02*
G75*
G03*
X107501001Y-66699999I-288500J-288500D01*
G01*
X107789500Y-66819500D02*
G75*
G02*
X107909001Y-67107998I-288500J-288500D01*
G01*
X107789500Y-64080500D02*
G75*
G02*
X107501001Y-64200001I-288500J288500D01*
G01*
X106489910Y-66700000D02*
G75*
G03*
X106114497Y-66855497I-10J-530900D01*
G01*
X107909000Y-63792001D02*
G75*
G02*
X107789500Y-64080500I-408000J1D01*
G01*
X105959000Y-63669089D02*
G75*
G03*
X106114497Y-64044503I530900J-11D01*
G01*
%TO.N,iout_dummy_amp*%
X94674880Y-73195760D02*
G75*
G02*
X94442015Y-73758040I-795180J-40D01*
G01*
X89043792Y-71043792D02*
G75*
G03*
X85196036Y-69449989I-3847792J-3847808D01*
G01*
X91392893Y-73392893D02*
G75*
G03*
X93100000Y-74100004I1707107J1707093D01*
G01*
X94387440Y-73812560D02*
G75*
G02*
X93693498Y-74099994I-693940J693960D01*
G01*
%TO.N,iout_dummy*%
X80270200Y-74800200D02*
G75*
G03*
X80922520Y-75070392I652300J652300D01*
G01*
X93566880Y-93846404D02*
G75*
G03*
X94783437Y-96783443I4153620J4D01*
G01*
X88664192Y-76664192D02*
G75*
G03*
X84816436Y-75070389I-3847792J-3847808D01*
G01*
X93795760Y-79375120D02*
G75*
G03*
X93566862Y-79927685I552540J-552580D01*
G01*
X96000000Y-101951489D02*
G75*
G03*
X96640997Y-103499003I2188500J-11D01*
G01*
X94783440Y-96783440D02*
G75*
G02*
X96000016Y-99720475I-2937040J-2937060D01*
G01*
X93476354Y-81476354D02*
G75*
G03*
X93533440Y-81499981I57046J57054D01*
G01*
X94024640Y-78822554D02*
G75*
G02*
X93795782Y-79375142I-781440J-46D01*
G01*
%TO.N,vbias2*%
X151253963Y-88000000D02*
G75*
G03*
X147406215Y-89593801I37J-5441600D01*
G01*
X136753963Y-93000000D02*
G75*
G03*
X132906236Y-94593821I37J-5441500D01*
G01*
X145593792Y-91406207D02*
G75*
G02*
X141746036Y-93000010I-3847792J3847807D01*
G01*
X112269523Y-102800000D02*
G75*
G03*
X110651993Y-103469993I-23J-2287500D01*
G01*
X126293792Y-101206207D02*
G75*
G02*
X122446036Y-102800010I-3847792J3847807D01*
G01*
%TO.N,vd1_dummy*%
X95653553Y-103253553D02*
G75*
G03*
X94800000Y-102899998I-853553J-853547D01*
G01*
X93100000Y-100600000D02*
G75*
G03*
X92375735Y-100299985I-724300J-724300D01*
G01*
X84506207Y-98706207D02*
G75*
G03*
X88353963Y-100300011I3847793J3847807D01*
G01*
X93946446Y-102546446D02*
G75*
G03*
X94800000Y-102900002I853554J853546D01*
G01*
X74789949Y-88989949D02*
G75*
G03*
X72400000Y-88000000I-2389949J-2389951D01*
G01*
X93400000Y-101450000D02*
G75*
G03*
X93788912Y-102388904I1327800J0D01*
G01*
X96100000Y-104662199D02*
G75*
G03*
X96691000Y-106089000I2017800J-1D01*
G01*
X95700000Y-103300000D02*
G75*
G02*
X96100006Y-104265685I-965700J-965700D01*
G01*
X93100000Y-100600000D02*
G75*
G02*
X93400015Y-101324264I-724300J-724300D01*
G01*
%TO.N,vbias0*%
X118053963Y-88000000D02*
G75*
G03*
X114206236Y-89593821I37J-5441500D01*
G01*
X107793792Y-96006207D02*
G75*
G03*
X106199959Y-99853963I3847708J-3847793D01*
G01*
X106200000Y-104282175D02*
G75*
G02*
X105551007Y-105849007I-2215800J-25D01*
G01*
X104966346Y-106433653D02*
G75*
G03*
X104902001Y-106589000I155354J-155347D01*
G01*
%TO.N,vlvl_p_dummy*%
X60593792Y-89593792D02*
G75*
G03*
X56746036Y-87999989I-3847792J-3847808D01*
G01*
X64656207Y-93656207D02*
G75*
G03*
X68503963Y-95250011I3847793J3847807D01*
G01*
X94062516Y-103962516D02*
G75*
G03*
X94491000Y-104139991I428484J428516D01*
G01*
X80231509Y-96843792D02*
G75*
G03*
X76383753Y-95250048I-3847709J-3847808D01*
G01*
X93605000Y-103505000D02*
G75*
G03*
X92071974Y-102870011I-1533000J-1533000D01*
G01*
X84663924Y-101276207D02*
G75*
G03*
X88511680Y-102869999I3847776J3847807D01*
G01*
%TO.N,TSCAN_EN*%
X109713062Y-140013062D02*
G75*
G02*
X110374984Y-141611126I-1598062J-1598038D01*
G01*
X103239673Y-136839673D02*
G75*
G03*
X106056400Y-138006386I2816727J2816773D01*
G01*
X95371000Y-122571000D02*
G75*
G03*
X96889540Y-123199983I1518500J1518500D01*
G01*
X108873126Y-139173126D02*
G75*
G03*
X106056400Y-138006414I-2816726J-2816774D01*
G01*
X101206400Y-134042249D02*
G75*
G03*
X101746765Y-135346707I1844800J49D01*
G01*
X100703200Y-123703200D02*
G75*
G03*
X99488367Y-123200013I-1214800J-1214800D01*
G01*
X94742000Y-121931000D02*
G75*
G03*
X94749769Y-121949787I26600J0D01*
G01*
X100703200Y-123703200D02*
G75*
G02*
X101206387Y-124918032I-1214800J-1214800D01*
G01*
%TO.N,SCAN_EN_3V3*%
X119646446Y-154646446D02*
G75*
G02*
X120000002Y-155500000I-853546J-853554D01*
G01*
X114924998Y-149188874D02*
G75*
G03*
X115445494Y-150445538I1777202J-26D01*
G01*
%TO.N,RST_L*%
X118201000Y-125059000D02*
G75*
G02*
X118799994Y-126505113I-1446100J-1446100D01*
G01*
X116608169Y-138591829D02*
G75*
G03*
X115575026Y-141086125I2494331J-2494271D01*
G01*
X118800000Y-134146036D02*
G75*
G02*
X117206200Y-137993785I-5441600J36D01*
G01*
%TO.N,SCAN_EN*%
X115612500Y-138987500D02*
G75*
G03*
X114924988Y-140647271I1659800J-1659800D01*
G01*
X115681000Y-122539000D02*
G75*
G02*
X116300001Y-124033398I-1494400J-1494400D01*
G01*
X116300000Y-137327728D02*
G75*
G02*
X115612492Y-138987492I-2347300J28D01*
G01*
%TO.N,TSCAN_EN_3V3*%
X111382979Y-152182979D02*
G75*
G02*
X112380012Y-154590000I-2406979J-2407021D01*
G01*
X110374999Y-149813874D02*
G75*
G03*
X111337455Y-152137463I3286001J-26D01*
G01*
%TO.N,SPI_CIPO*%
X107442000Y-127021000D02*
G75*
G03*
X107456849Y-127056849I50700J0D01*
G01*
X108071000Y-127671000D02*
G75*
G02*
X108699983Y-129189540I-1518500J-1518500D01*
G01*
X108700000Y-134971300D02*
G75*
G03*
X110293782Y-138819066I5441600J0D01*
G01*
X111725026Y-140250290D02*
G75*
G02*
X112325043Y-141698757I-1448426J-1448510D01*
G01*
%TO.N,SPI_CLK_3V3*%
X112974999Y-149163874D02*
G75*
G03*
X113477827Y-150377851I1716801J-26D01*
G01*
X116880172Y-153780172D02*
G75*
G02*
X117459987Y-155180000I-1399872J-1399828D01*
G01*
%TO.N,SPI_CS_L_3V3*%
X113624998Y-149038874D02*
G75*
G03*
X114039442Y-150039458I1415002J-26D01*
G01*
X118700000Y-156423187D02*
G75*
G02*
X118080004Y-157920004I-2116800J-13D01*
G01*
X117780761Y-153780761D02*
G75*
G02*
X118699993Y-156000000I-2219261J-2219239D01*
G01*
%TO.N,RST_L_3V3*%
X120443395Y-154443395D02*
G75*
G02*
X121200002Y-156270000I-1826595J-1826605D01*
G01*
X115574999Y-149013874D02*
G75*
G03*
X115971755Y-149971791I1354701J-26D01*
G01*
X121200000Y-156491471D02*
G75*
G02*
X120600008Y-157940008I-2048500J-29D01*
G01*
%TO.N,SPI_CIPO_3V3*%
X115224192Y-153524192D02*
G75*
G02*
X116200004Y-155880000I-2355792J-2355808D01*
G01*
X116200000Y-156354903D02*
G75*
G02*
X115559999Y-157899999I-2185100J3D01*
G01*
X112324998Y-149538874D02*
G75*
G03*
X113092997Y-151393009I2622102J-26D01*
G01*
%TO.N,TSCAN_OUT_3V3*%
X109724998Y-150452724D02*
G75*
G03*
X110412506Y-152112492I2347302J24D01*
G01*
X110412499Y-152112499D02*
G75*
G02*
X111100012Y-153772273I-1659799J-1659801D01*
G01*
X111100000Y-156389045D02*
G75*
G02*
X110469987Y-157909987I-2151000J45D01*
G01*
%TO.N,SPI_COPI_3V3*%
X114255319Y-153455319D02*
G75*
G02*
X114919989Y-155060000I-1604719J-1604681D01*
G01*
X111674999Y-149663874D02*
G75*
G03*
X112531383Y-151731403I2923901J-26D01*
G01*
%TO.N,IO_UCLK*%
X110380738Y-140080738D02*
G75*
G02*
X111024968Y-141636125I-1555438J-1555362D01*
G01*
X108501040Y-138201040D02*
G75*
G03*
X107050000Y-137600005I-1451040J-1451060D01*
G01*
X103800000Y-133502943D02*
G75*
G03*
X105000034Y-136399966I4097000J43D01*
G01*
X103081000Y-127719000D02*
G75*
G02*
X103799992Y-129454819I-1735800J-1735800D01*
G01*
X105598959Y-136998959D02*
G75*
G03*
X107050000Y-137599995I1451041J1451059D01*
G01*
%TO.N,SPI_CS_L*%
X113712500Y-141125099D02*
G75*
G03*
X113625017Y-141336341I211200J-211201D01*
G01*
X113800000Y-140913857D02*
G75*
G02*
X113712513Y-141125112I-298700J-43D01*
G01*
X113161000Y-130179000D02*
G75*
G02*
X113800007Y-131721682I-1542700J-1542700D01*
G01*
%TO.N,LVLS_EN*%
X108151376Y-142273625D02*
G75*
G03*
X107490786Y-142000005I-660576J-660575D01*
G01*
X108151376Y-142273625D02*
G75*
G02*
X108424995Y-142934214I-660576J-660575D01*
G01*
X107912500Y-143877750D02*
G75*
G03*
X107400029Y-145115036I1237300J-1237250D01*
G01*
X108425001Y-142956250D02*
G75*
G02*
X108135767Y-143654429I-987401J50D01*
G01*
X109076324Y-153076324D02*
G75*
G02*
X109840015Y-154920000I-1843624J-1843676D01*
G01*
X107400000Y-149674659D02*
G75*
G03*
X108619988Y-152620012I4165300J-41D01*
G01*
%TO.N,TSCAN_OUT*%
X108662500Y-139562500D02*
G75*
G03*
X106097397Y-138500001I-2565100J-2565100D01*
G01*
X103065596Y-137315596D02*
G75*
G03*
X105925000Y-138500002I2859404J2859396D01*
G01*
X109045383Y-139945383D02*
G75*
G02*
X109724971Y-141586125I-1640783J-1640717D01*
G01*
X100415319Y-125984681D02*
G75*
G02*
X100800007Y-126913383I-928719J-928719D01*
G01*
X92772000Y-125030000D02*
G75*
G03*
X94148101Y-125599999I1376100J1376100D01*
G01*
X100415319Y-125984681D02*
G75*
G03*
X99486616Y-125599993I-928719J-928719D01*
G01*
X100800000Y-134095062D02*
G75*
G03*
X101475229Y-135725257I2305400J-38D01*
G01*
%TO.N,SPI_CLK*%
X111200000Y-137895414D02*
G75*
G03*
X112087509Y-140038017I3030100J14D01*
G01*
X110591000Y-127609000D02*
G75*
G02*
X111200018Y-129079256I-1470300J-1470300D01*
G01*
X112401633Y-140352161D02*
G75*
G02*
X112975005Y-141736388I-1384233J-1384239D01*
G01*
%TO.N,IO_UCLK_3V3*%
X111024998Y-149738874D02*
G75*
G03*
X111934407Y-151934443I3105002J-26D01*
G01*
X112312499Y-152312499D02*
G75*
G02*
X113600000Y-155420801I-3108299J-3108301D01*
G01*
X113600000Y-156457329D02*
G75*
G02*
X112989991Y-157929991I-2082700J29D01*
G01*
%TO.N,SPI_COPI*%
X111048417Y-140148417D02*
G75*
G02*
X111674981Y-141661126I-1512717J-1512683D01*
G01*
X105551000Y-130189000D02*
G75*
G02*
X106199990Y-131755824I-1566800J-1566800D01*
G01*
X106200000Y-133069000D02*
G75*
G03*
X107777557Y-136877553I5386100J0D01*
G01*
X111675002Y-141661126D02*
X111675002Y-142547250D01*
X105551000Y-130189000D02*
X104902000Y-129540000D01*
X111048417Y-140148417D02*
X107777555Y-136877555D01*
X106200000Y-131755824D02*
X106200000Y-133069000D01*
%TO.N,IO_UCLK_3V3*%
X113600000Y-155420801D02*
X113600000Y-156457329D01*
X112990000Y-157930000D02*
X112380000Y-158540000D01*
X111934425Y-151934425D02*
X112312499Y-152312499D01*
X111024998Y-149738874D02*
X111024998Y-148452750D01*
%TO.N,SPI_CLK*%
X111200000Y-137895414D02*
X111200000Y-129079256D01*
X112087499Y-140038027D02*
X112401633Y-140352161D01*
X112974999Y-141736388D02*
X112974999Y-142547250D01*
X110591000Y-127609000D02*
X109982000Y-127000000D01*
D37*
%TO.N,GND*%
X96087120Y-72790200D02*
X96010920Y-72866400D01*
X152000000Y-161100000D02*
X151900000Y-161100000D01*
D36*
X131637500Y-71120000D02*
X131635000Y-71120000D01*
X131641767Y-71121767D02*
X131645000Y-71125000D01*
D37*
X73000000Y-99200000D02*
X73000000Y-99175000D01*
X94679600Y-78235600D02*
X94679600Y-77141657D01*
D36*
X106629200Y-61112400D02*
X106619100Y-61122500D01*
X131620000Y-63500000D02*
X131635000Y-63500000D01*
X135565000Y-61779467D02*
X135565000Y-62542500D01*
D37*
X108343401Y-149750000D02*
X108366300Y-149727100D01*
X94677240Y-77135960D02*
X94674880Y-77133600D01*
X96778000Y-72714000D02*
X96271083Y-72714000D01*
D36*
X134590000Y-71805000D02*
X134615000Y-71805000D01*
X106609000Y-61146883D02*
X106609000Y-62542500D01*
X134590000Y-70205000D02*
X134615000Y-70205000D01*
X135717500Y-61411300D02*
X135870000Y-61258800D01*
D39*
X96292000Y-79604000D02*
X95216880Y-79604000D01*
D36*
X131645000Y-67300000D02*
X131635000Y-67310000D01*
D37*
X108389200Y-149671816D02*
X108389200Y-147952750D01*
D36*
X131632500Y-59690000D02*
X131635000Y-59690000D01*
X131628232Y-59691767D02*
X131620000Y-59700000D01*
D35*
%TO.N,TSCAN_OUT*%
X106097397Y-138500000D02*
X105925000Y-138500000D01*
X92772000Y-125030000D02*
X92202000Y-124460000D01*
X94148101Y-125600000D02*
X99486616Y-125600000D01*
X103065596Y-137315596D02*
X101475243Y-135725243D01*
X100800000Y-126913383D02*
X100800000Y-134095062D01*
X109725001Y-141586125D02*
X109725001Y-142547250D01*
X108662500Y-139562500D02*
X109045383Y-139945383D01*
%TO.N,LVLS_EN*%
X107490786Y-142000000D02*
X106625000Y-142000000D01*
X109076324Y-153076324D02*
X108620000Y-152620000D01*
X107400000Y-145115036D02*
X107400000Y-149674659D01*
X109840000Y-154920000D02*
X109840000Y-156000000D01*
X107912500Y-143877750D02*
X108135794Y-143654456D01*
X108425001Y-142934214D02*
X108425001Y-142956250D01*
%TO.N,SPI_CS_L*%
X113625001Y-141336341D02*
X113625001Y-142547250D01*
X113800000Y-140913857D02*
X113800000Y-131721682D01*
X113161000Y-130179000D02*
X112522000Y-129540000D01*
%TO.N,IO_UCLK*%
X105000000Y-136400000D02*
X105598959Y-136998959D01*
X110380738Y-140080738D02*
X108501040Y-138201040D01*
X111025001Y-141636125D02*
X111025001Y-142547250D01*
X103081000Y-127719000D02*
X102362000Y-127000000D01*
X103800000Y-133502943D02*
X103800000Y-129454819D01*
D36*
%TO.N,PP_SYS_3V3*%
X136165000Y-72840251D02*
X136165000Y-71840355D01*
D37*
X94000000Y-67200000D02*
X94025000Y-67225000D01*
X94050000Y-68200000D02*
X94050000Y-72823107D01*
D36*
X107259000Y-71919644D02*
X107259000Y-68267500D01*
X136182500Y-72882500D02*
X136200000Y-72900000D01*
X136215000Y-71719644D02*
X136215000Y-68267500D01*
X108397500Y-72002500D02*
X108400000Y-72000000D01*
D37*
X94050000Y-68200000D02*
X94050000Y-67285355D01*
X94037320Y-72853720D02*
X94024640Y-72866400D01*
D36*
X108391464Y-72005000D02*
X107344355Y-72005000D01*
D35*
%TO.N,SPI_COPI_3V3*%
X114920000Y-155060000D02*
X114920000Y-156000000D01*
X114255319Y-153455319D02*
X112531393Y-151731393D01*
X111674999Y-149663874D02*
X111674999Y-148452750D01*
%TO.N,TSCAN_OUT_3V3*%
X110470000Y-157910000D02*
X109840000Y-158540000D01*
X111100000Y-153772273D02*
X111100000Y-156389045D01*
X109724998Y-150452724D02*
X109724998Y-148452750D01*
%TO.N,SPI_CIPO_3V3*%
X112324998Y-149538874D02*
X112324998Y-148452750D01*
X115224192Y-153524192D02*
X113093003Y-151393003D01*
X116200000Y-155880000D02*
X116200000Y-156354903D01*
X115560000Y-157900000D02*
X114920000Y-158540000D01*
%TO.N,RST_L_3V3*%
X115574999Y-149013874D02*
X115574999Y-148452750D01*
X121200000Y-156270000D02*
X121200000Y-156491471D01*
X120600000Y-157940000D02*
X120000000Y-158540000D01*
X120443395Y-154443395D02*
X115971773Y-149971773D01*
%TO.N,SPI_CS_L_3V3*%
X118080000Y-157920000D02*
X117460000Y-158540000D01*
X118700000Y-156423187D02*
X118700000Y-156000000D01*
X113624998Y-149038874D02*
X113624998Y-148452750D01*
X114039450Y-150039450D02*
X117780761Y-153780761D01*
%TO.N,SPI_CLK_3V3*%
X113477839Y-150377839D02*
X116880172Y-153780172D01*
X112974999Y-149163874D02*
X112974999Y-148452750D01*
X117460000Y-155180000D02*
X117460000Y-156000000D01*
%TO.N,SPI_CIPO*%
X107442000Y-127021000D02*
X107442000Y-127000000D01*
X108700000Y-129189540D02*
X108700000Y-134971300D01*
X107456849Y-127056849D02*
X108071000Y-127671000D01*
X112325001Y-141698757D02*
X112325001Y-142547250D01*
X110293792Y-138819056D02*
X111725026Y-140250290D01*
%TO.N,TSCAN_EN_3V3*%
X112380000Y-154590000D02*
X112380000Y-156000000D01*
X111382979Y-152182979D02*
X111337459Y-152137459D01*
X110374999Y-149813874D02*
X110374999Y-148452750D01*
%TO.N,SCAN_EN*%
X114925000Y-140647271D02*
X114925000Y-142547250D01*
X116300000Y-124033398D02*
X116300000Y-137327728D01*
X115681000Y-122539000D02*
X115062000Y-121920000D01*
%TO.N,RST_L*%
X116608169Y-138591829D02*
X117206207Y-137993792D01*
X118201000Y-125059000D02*
X117602000Y-124460000D01*
X115574999Y-141086125D02*
X115574999Y-142547250D01*
X118800000Y-126505113D02*
X118800000Y-134146036D01*
%TO.N,SCAN_EN_3V3*%
X119646446Y-154646446D02*
X115445516Y-150445516D01*
X114924998Y-149188874D02*
X114924998Y-148452750D01*
X120000000Y-155500000D02*
X120000000Y-156000000D01*
%TO.N,TSCAN_EN*%
X96889540Y-123200000D02*
X99488367Y-123200000D01*
X95371000Y-122571000D02*
X94749778Y-121949778D01*
X101206400Y-134042249D02*
X101206400Y-124918032D01*
X103239673Y-136839673D02*
X101746736Y-135346736D01*
X94742000Y-121931000D02*
X94742000Y-121920000D01*
X109713062Y-140013062D02*
X108873126Y-139173126D01*
X110375002Y-141611126D02*
X110375002Y-142547250D01*
%TO.N,CLK*%
X99791000Y-129540000D02*
X99822000Y-129540000D01*
X99254999Y-130044999D02*
X99738079Y-129561920D01*
X98750000Y-131264177D02*
X98750000Y-151000000D01*
%TO.N,vlvl_p_dummy*%
X68503963Y-95250000D02*
X76383753Y-95250000D01*
X94062516Y-103962516D02*
X93605000Y-103505000D01*
X56746036Y-88000000D02*
X52000000Y-88000000D01*
X94491000Y-104140000D02*
X94742000Y-104140000D01*
X92071974Y-102870000D02*
X88511680Y-102870000D01*
X80231509Y-96843792D02*
X84663924Y-101276207D01*
X60593792Y-89593792D02*
X64656207Y-93656207D01*
%TO.N,PP_VDDIO_1V8*%
X108787501Y-141037501D02*
X108500000Y-140750000D01*
X109075002Y-141731589D02*
X109075002Y-142547250D01*
%TO.N,vbias0*%
X118053963Y-88000000D02*
X139000000Y-88000000D01*
X105550999Y-105848999D02*
X104966346Y-106433653D01*
X104902000Y-106589000D02*
X104902000Y-106680000D01*
X106200000Y-99853963D02*
X106200000Y-104282175D01*
X114206207Y-89593792D02*
X107793792Y-96006207D01*
%TO.N,vd1_dummy*%
X93400000Y-101450000D02*
X93400000Y-101324264D01*
X96691000Y-106089000D02*
X97282000Y-106680000D01*
X92375735Y-100300000D02*
X88353963Y-100300000D01*
X95653553Y-103253553D02*
X95700000Y-103300000D01*
X72400000Y-88000000D02*
X71000000Y-88000000D01*
X96100000Y-104662199D02*
X96100000Y-104265685D01*
X93946446Y-102546446D02*
X93788908Y-102388908D01*
X84506207Y-98706207D02*
X74789949Y-88989949D01*
%TO.N,vbias2*%
X132906207Y-94593792D02*
X126293792Y-101206207D01*
X136753963Y-93000000D02*
X141746036Y-93000000D01*
X147406206Y-89593792D02*
X145593792Y-91406207D01*
X151253963Y-88000000D02*
X156000000Y-88000000D01*
X112269523Y-102800000D02*
X122446036Y-102800000D01*
X110652000Y-103470000D02*
X109982000Y-104140000D01*
%TO.N,iout_dummy*%
X93566880Y-81500000D02*
X93533440Y-81500000D01*
X88664192Y-76664192D02*
X93476354Y-81476354D01*
X93566880Y-81500000D02*
X93566880Y-79927685D01*
X96000000Y-101951489D02*
X96000000Y-99720475D01*
X80270200Y-74800200D02*
X80000000Y-74530000D01*
X94024640Y-78822554D02*
X94024640Y-77133600D01*
X96641000Y-103499000D02*
X97282000Y-104140000D01*
X80922520Y-75070400D02*
X84816436Y-75070400D01*
X93566880Y-93846404D02*
X93566880Y-81500000D01*
%TO.N,iout_dummy_amp*%
X94674880Y-73195760D02*
X94674880Y-72866400D01*
X93100000Y-74100000D02*
X93693498Y-74100000D01*
X94441987Y-73758012D02*
X94387440Y-73812560D01*
X85196036Y-69450000D02*
X80000000Y-69450000D01*
X89043792Y-71043792D02*
X91392893Y-73392893D01*
%TO.N,/ibias/ibias_rset*%
X107501001Y-66700000D02*
X106489910Y-66700000D01*
X107909000Y-63792001D02*
X107909000Y-62542500D01*
X134915000Y-68267500D02*
X134915000Y-62542500D01*
X105959000Y-63669089D02*
X105959000Y-62542500D01*
X105959000Y-67230910D02*
X105959000Y-68267500D01*
X136865000Y-62542500D02*
X136865000Y-68267500D01*
X106489910Y-64200000D02*
X107501001Y-64200000D01*
X107909000Y-67107998D02*
X107909000Y-68267500D01*
%TO.N,/ibias/R1_1*%
X108559000Y-61925361D02*
X108559000Y-62542500D01*
X109784361Y-60700000D02*
X112130822Y-60700000D01*
X113855000Y-59690000D02*
X113350000Y-60195000D01*
X113855000Y-59690000D02*
X116840000Y-59690000D01*
%TO.N,/ibias/R1_2*%
X113769726Y-63522273D02*
X112953800Y-64338200D01*
X105308700Y-62542800D02*
X105309000Y-62542500D01*
X113886500Y-63500000D02*
X116840000Y-63500000D01*
X105308400Y-64087265D02*
X105308400Y-62543524D01*
X110930206Y-65176400D02*
X106397534Y-65176400D01*
%TO.N,/ibias/R1_3*%
X105309000Y-66974218D02*
X105309000Y-68267500D01*
X113855000Y-67310000D02*
X113067600Y-66522600D01*
X113855000Y-67310000D02*
X116840000Y-67310000D01*
X106548018Y-65735200D02*
X111166648Y-65735200D01*
%TO.N,/ibias/R1_4*%
X108559000Y-69149044D02*
X108559000Y-68267500D01*
X113925100Y-71120000D02*
X116840000Y-71120000D01*
X109513955Y-70104000D02*
X112359915Y-70104000D01*
X113417100Y-70541900D02*
X113805431Y-70930231D01*
%TO.N,/ibias/R2_1*%
X137144652Y-61124652D02*
X137117500Y-61097500D01*
X130227500Y-60457500D02*
X130170615Y-60400615D01*
X137515000Y-62018750D02*
X137515000Y-62542500D01*
X130812946Y-60700000D02*
X136157850Y-60700000D01*
X129722500Y-59690000D02*
X127000000Y-59690000D01*
%TO.N,/ibias/R2_2*%
X130377500Y-64107500D02*
X130061013Y-63791013D01*
X129877500Y-63500000D02*
X127000000Y-63500000D01*
X134265000Y-63313560D02*
X134265000Y-62542500D01*
X133078560Y-64500000D02*
X131325078Y-64500000D01*
%TO.N,/ibias/R2_3*%
X129872500Y-67310000D02*
X127000000Y-67310000D01*
X133249271Y-66400000D02*
X131154368Y-66400000D01*
X134265000Y-67415728D02*
X134265000Y-68267500D01*
X130327499Y-66742499D02*
X130064549Y-67005450D01*
%TO.N,/ibias/R2_4*%
X129985000Y-71530000D02*
X129985000Y-71120000D01*
X135611575Y-73700000D02*
X132989507Y-73700000D01*
X129985000Y-71120000D02*
X127000000Y-71120000D01*
X137515000Y-71796575D02*
X137515000Y-68267500D01*
X130865000Y-72820000D02*
X130274913Y-72229913D01*
%TO.N,IBIAS_SEL3*%
X133115229Y-68267500D02*
X133615000Y-68267500D01*
X124494825Y-154619910D02*
X124863768Y-154250968D01*
X164300000Y-152726402D02*
X164300000Y-70729428D01*
X104202348Y-68000000D02*
X103600000Y-68000000D01*
X161526402Y-155500000D02*
X151284868Y-155500000D01*
X104525250Y-68133750D02*
X104659000Y-68267500D01*
X127431931Y-153187200D02*
X145701275Y-153187200D01*
X123170000Y-157910000D02*
X122540000Y-158540000D01*
X123800000Y-156389045D02*
X123800000Y-156297368D01*
X159392518Y-66000000D02*
X141700000Y-66000000D01*
X133000000Y-68200000D02*
X133033750Y-68233750D01*
%TO.N,IBIAS_SEL4*%
X161456331Y-155093600D02*
X151453204Y-155093600D01*
X138907591Y-66800000D02*
X160165977Y-66800000D01*
X109658578Y-69258578D02*
X109400449Y-69000449D01*
X145869611Y-152780800D02*
X127455101Y-152780800D01*
X110200000Y-69400000D02*
X110000000Y-69400000D01*
X163750000Y-152799931D02*
X163750000Y-70384022D01*
X109209000Y-68538250D02*
X109209000Y-68267500D01*
X122660208Y-155539791D02*
X123979600Y-154220400D01*
X138165000Y-67542591D02*
X138165000Y-68267500D01*
X122540000Y-155830000D02*
X122540000Y-156000000D01*
%TO.N,IBIAS_SEL1*%
X128654594Y-154000000D02*
X145232233Y-154000000D01*
X125715000Y-157905000D02*
X125080000Y-158540000D01*
X138165000Y-63286697D02*
X138165000Y-62542500D01*
X158520772Y-64200000D02*
X141100000Y-64200000D01*
X151267766Y-156500000D02*
X161765075Y-156500000D01*
X109209000Y-62216750D02*
X109209000Y-62542500D01*
X162368528Y-65793792D02*
X164025468Y-67450732D01*
X109558578Y-61541421D02*
X109439340Y-61660659D01*
X126350000Y-156371974D02*
X126350000Y-156304594D01*
X165350000Y-152915075D02*
X165350000Y-70648436D01*
X139078302Y-64200000D02*
X141100000Y-64200000D01*
X109900000Y-61400000D02*
X110100000Y-61400000D01*
%TO.N,IBIAS_SEL2*%
X125123817Y-155832247D02*
X126670209Y-154285855D01*
X161599625Y-156000000D02*
X151276317Y-156000000D01*
X104630250Y-62571250D02*
X104659000Y-62542500D01*
X141700000Y-65100000D02*
X158846036Y-65100000D01*
X164800000Y-70824887D02*
X164800000Y-152799625D01*
X128341460Y-153593600D02*
X145466754Y-153593600D01*
X163368188Y-67368188D02*
X162693792Y-66693792D01*
X133000000Y-62400000D02*
X133371737Y-62400000D01*
X125080000Y-155938032D02*
X125080000Y-156000000D01*
X133543750Y-62471250D02*
X133615000Y-62542500D01*
X104560841Y-62600000D02*
X103800000Y-62600000D01*
%TO.N,PP_AD2_3V3*%
X103425000Y-142000000D02*
X104975000Y-142000000D01*
X109493001Y-146397250D02*
X109284000Y-146606250D01*
X109075000Y-147110822D02*
X109075000Y-148452750D01*
%TO.N,iout_dummy_amp_conn*%
X71176776Y-71750000D02*
X79590294Y-71750000D01*
X70875000Y-71625000D02*
X70750000Y-71500000D01*
X79880000Y-71870000D02*
X80000000Y-71990000D01*
D38*
%TO.N,output_0+*%
X143677817Y-130000000D02*
X145000000Y-130000000D01*
D35*
X130433932Y-127933932D02*
X131950996Y-129450996D01*
X115596000Y-119380000D02*
X115062000Y-119380000D01*
X132612500Y-129725000D02*
X132964644Y-129725000D01*
X129389516Y-125030438D02*
X126007574Y-121648496D01*
X118642178Y-120851600D02*
X124083696Y-120851600D01*
X116865800Y-120115800D02*
X116507595Y-119757595D01*
X138937500Y-129675000D02*
X133085355Y-129675000D01*
D38*
X140448007Y-128900000D02*
X141022182Y-128900000D01*
X139169194Y-129630805D02*
X139512500Y-129287500D01*
%TO.N,output_0-*%
X140536396Y-128400000D02*
X142195843Y-128400000D01*
X147552700Y-132552700D02*
X147552700Y-127447300D01*
D35*
X130500000Y-126429539D02*
X130500000Y-126905877D01*
D38*
X142447300Y-128148543D02*
X142447300Y-127850000D01*
D37*
X147552700Y-127447300D02*
X142850000Y-127447300D01*
D35*
X131594122Y-128000000D02*
X131762347Y-128000000D01*
X132975000Y-127300000D02*
X132637500Y-127637500D01*
X118111200Y-119889200D02*
X117602000Y-119380000D01*
D38*
X147552700Y-132552700D02*
X142447300Y-132552700D01*
D35*
X133085355Y-127325000D02*
X138912500Y-127325000D01*
X129842716Y-124842716D02*
X126195296Y-121195296D01*
X124271418Y-120398400D02*
X119340517Y-120398400D01*
D38*
X139450000Y-127950000D02*
X139061871Y-127561871D01*
D35*
%TO.N,output_1+*%
X141330850Y-115000000D02*
X145000000Y-115000000D01*
X132643749Y-116225000D02*
X133000000Y-116225000D01*
X127733119Y-115226600D02*
X130583123Y-115226600D01*
X116661699Y-113763299D02*
X116500827Y-113924172D01*
X132035591Y-115973092D02*
X131788299Y-115725800D01*
D38*
X138914644Y-116225000D02*
X133000000Y-116225000D01*
D35*
X139439904Y-116060095D02*
X139912500Y-115587500D01*
X117957408Y-113226600D02*
X123479156Y-113226600D01*
X115593500Y-114300000D02*
X115062000Y-114300000D01*
X139035355Y-116175000D02*
X139162500Y-116175000D01*
X125403034Y-114023496D02*
X125809241Y-114429703D01*
%TO.N,output_1-*%
X142447300Y-112447300D02*
X142447300Y-113736411D01*
X140050001Y-114162500D02*
X139964408Y-114076907D01*
X147552700Y-112447300D02*
X142447300Y-112447300D01*
X139356250Y-113825000D02*
X139000000Y-113825000D01*
X132035591Y-114026907D02*
X131788299Y-114274200D01*
X125590758Y-113570296D02*
X125996965Y-113976503D01*
X147552700Y-117552700D02*
X147552700Y-112447300D01*
X118364052Y-112773400D02*
X123666880Y-112773400D01*
X117602000Y-112043500D02*
X117602000Y-111760000D01*
X132643749Y-113775000D02*
X132964644Y-113775000D01*
X147552700Y-117552700D02*
X142447300Y-117552700D01*
X133085355Y-113825000D02*
X139000000Y-113825000D01*
X140864798Y-114500000D02*
X141683711Y-114500000D01*
X117825200Y-112550200D02*
X117802464Y-112527464D01*
X127920843Y-114773400D02*
X130583123Y-114773400D01*
%TO.N,output_2+*%
X128448496Y-104967425D02*
X130551316Y-102864605D01*
X126854703Y-109515758D02*
X126465758Y-109904703D01*
X142088169Y-101226600D02*
X141331521Y-101226600D01*
X139964408Y-101923092D02*
X140186701Y-101700800D01*
X115488500Y-111760000D02*
X115062000Y-111760000D01*
X138589644Y-102225000D02*
X133000000Y-102225000D01*
X142635230Y-101000000D02*
X145000000Y-101000000D01*
X127651600Y-106891303D02*
X127651600Y-107591880D01*
X117721801Y-110701600D02*
X124541880Y-110701600D01*
X138710355Y-102175000D02*
X138837500Y-102175000D01*
X139356250Y-102175000D02*
X139162500Y-102175000D01*
X116444199Y-111230799D02*
X116216581Y-111458418D01*
X132095461Y-102225000D02*
X133000000Y-102225000D01*
D38*
%TO.N,output_3+*%
X79025000Y-100800000D02*
X79412500Y-101187500D01*
X94742000Y-113981801D02*
X94742000Y-114300000D01*
X92887750Y-111142552D02*
X92819447Y-111074249D01*
D35*
X73000000Y-100825000D02*
X71595731Y-100825000D01*
D38*
X93359249Y-112280851D02*
X94516999Y-113438601D01*
D35*
X73000000Y-100825000D02*
X78914644Y-100825000D01*
D38*
X91681148Y-110602750D02*
X91597648Y-110519250D01*
D35*
X66505524Y-101000000D02*
X64000000Y-101000000D01*
D38*
X80427347Y-103906044D02*
X86509834Y-109988531D01*
X87020366Y-110200000D02*
X90826910Y-110200000D01*
X79825000Y-102451848D02*
X79825000Y-102183363D01*
D35*
X67712631Y-100500000D02*
X70811112Y-100500000D01*
%TO.N,output_2-*%
X147552700Y-98447300D02*
X142447300Y-98447300D01*
X127995296Y-104779703D02*
X133000000Y-99775000D01*
X138589644Y-99775000D02*
X133000000Y-99775000D01*
X127198400Y-106703581D02*
X127198400Y-107404156D01*
X140186701Y-100299200D02*
X139964408Y-100076907D01*
X138710355Y-99825000D02*
X138837500Y-99825000D01*
X147552700Y-98447300D02*
X147552700Y-103552700D01*
X124354156Y-110248400D02*
X118662796Y-110248400D01*
X147552700Y-103552700D02*
X142447300Y-103552700D01*
X141331521Y-100773400D02*
X141729120Y-100773400D01*
X139356250Y-99825000D02*
X139162500Y-99825000D01*
X142447300Y-100055220D02*
X142447300Y-98447300D01*
X117602000Y-109423500D02*
X117602000Y-109220000D01*
X126278033Y-109451503D02*
X126401503Y-109328034D01*
X117912700Y-109937700D02*
X117745896Y-109770896D01*
%TO.N,output_3-*%
X71696896Y-101796896D02*
X72955805Y-103055805D01*
X90629000Y-110700000D02*
X87029549Y-110700000D01*
X61447300Y-98447300D02*
X61447300Y-103552700D01*
X66552700Y-103552700D02*
X61447300Y-103552700D01*
X61447300Y-98447300D02*
X66552700Y-98447300D01*
X68169842Y-101000000D02*
X69773018Y-101000000D01*
X73289644Y-103225000D02*
X73062500Y-103225000D01*
X66552700Y-102617142D02*
X66552700Y-103552700D01*
X79000000Y-103175000D02*
X86168230Y-110343230D01*
D38*
X91504720Y-111062720D02*
X92202000Y-111760000D01*
D35*
X79000000Y-103175000D02*
X73410355Y-103175000D01*
%TO.N,output_4+*%
X94253050Y-116351050D02*
X94742000Y-116840000D01*
X66681169Y-115000000D02*
X64000000Y-115000000D01*
X80859153Y-115862100D02*
X93072620Y-115862100D01*
X67288586Y-115251600D02*
X70625801Y-115251600D01*
X72975796Y-116225000D02*
X78914644Y-116225000D01*
X80103746Y-116175000D02*
X79035355Y-116175000D01*
%TO.N,output_5+*%
X90700000Y-122418009D02*
X90700000Y-119300000D01*
D38*
X90700000Y-118921000D02*
X90700000Y-119500000D01*
X91109414Y-117932585D02*
X92202000Y-116840000D01*
D35*
X79000000Y-127027000D02*
X79767557Y-127794557D01*
X73414263Y-127027000D02*
X79000000Y-127027000D01*
X73358736Y-127050000D02*
X73187500Y-127050000D01*
X65116119Y-130000000D02*
X64000000Y-130000000D01*
X85853553Y-123000000D02*
X90118009Y-123000000D01*
X72524999Y-127524999D02*
X72867417Y-127182582D01*
X85249999Y-123249999D02*
X85019119Y-123480880D01*
X67435342Y-128796896D02*
X67021454Y-129210784D01*
X69359220Y-128000000D02*
X71378248Y-128000000D01*
X80759520Y-127794557D02*
X84980880Y-123573197D01*
D38*
%TO.N,output_4-*%
X85927757Y-115400000D02*
X85167591Y-115400000D01*
X85953106Y-115410500D02*
X90306257Y-115410500D01*
D35*
X73039644Y-113825000D02*
X73037500Y-113825000D01*
X70625801Y-114798400D02*
X67825689Y-114798400D01*
X79828103Y-114603103D02*
X79000000Y-113775000D01*
X81751981Y-115400000D02*
X83632409Y-115400000D01*
X72643749Y-113825000D02*
X72962500Y-113825000D01*
X66552700Y-112447300D02*
X61447300Y-112447300D01*
X73160355Y-113775000D02*
X79000000Y-113775000D01*
X66552700Y-112447300D02*
X66552700Y-113525410D01*
X61447300Y-117552700D02*
X66552700Y-117552700D01*
X72035591Y-114076907D02*
X71800799Y-114311700D01*
D38*
X91646750Y-114855250D02*
X92202000Y-114300000D01*
D35*
X61447300Y-112447300D02*
X61447300Y-117552700D01*
%TO.N,output_5-*%
X67623064Y-129250096D02*
X67341915Y-129531245D01*
X90232915Y-123482100D02*
X86839881Y-123482100D01*
X91153200Y-122533496D02*
X91153200Y-118971137D01*
X81005197Y-128189802D02*
X84916003Y-124278996D01*
X73000000Y-129400000D02*
X72526600Y-128926600D01*
X66552700Y-132552700D02*
X66552700Y-131436580D01*
X69546942Y-128453200D02*
X71383711Y-128453200D01*
X91466928Y-118213728D02*
X91561687Y-118118970D01*
X73685355Y-129450000D02*
X79000000Y-129450000D01*
X61447300Y-127447300D02*
X61447300Y-132552700D01*
X94311000Y-119380000D02*
X94742000Y-119380000D01*
X92618970Y-118118970D02*
X93575236Y-119075236D01*
X79733402Y-128716597D02*
X79000000Y-129450000D01*
X66552700Y-132552700D02*
X61447300Y-132552700D01*
X73564644Y-129400000D02*
X73000000Y-129400000D01*
X61447300Y-127447300D02*
X66552700Y-127447300D01*
%TD*%
%TA.AperFunction,Conductor*%
%TO.N,/ibias/ibias_rset*%
G36*
X139713039Y-56289685D02*
G01*
X139758794Y-56342489D01*
X139770000Y-56394000D01*
X139770000Y-63473900D01*
X139750315Y-63540939D01*
X139697511Y-63586694D01*
X139646000Y-63597900D01*
X139086427Y-63597900D01*
X139070243Y-63596839D01*
X139048633Y-63593994D01*
X139013938Y-63589426D01*
X138982672Y-63581048D01*
X138937782Y-63562454D01*
X138909750Y-63546270D01*
X138874080Y-63518900D01*
X138832876Y-63462472D01*
X138828721Y-63392726D01*
X138835005Y-63373068D01*
X138850044Y-63336762D01*
X138865500Y-63219361D01*
X138865499Y-61865640D01*
X138865499Y-61865636D01*
X138850046Y-61748246D01*
X138850044Y-61748241D01*
X138850044Y-61748238D01*
X138789536Y-61602159D01*
X138693282Y-61476718D01*
X138567841Y-61380464D01*
X138421762Y-61319956D01*
X138421760Y-61319955D01*
X138304362Y-61304500D01*
X138057914Y-61304500D01*
X137990875Y-61284815D01*
X137945120Y-61232011D01*
X137943355Y-61227959D01*
X137928208Y-61191395D01*
X137805856Y-60979498D01*
X137656891Y-60785385D01*
X137579585Y-60708087D01*
X137579550Y-60708022D01*
X137543263Y-60671736D01*
X137543264Y-60671736D01*
X137452458Y-60580931D01*
X137248694Y-60424579D01*
X137122891Y-60351949D01*
X137026269Y-60296165D01*
X136972561Y-60273919D01*
X136788976Y-60197880D01*
X136788974Y-60197879D01*
X136788973Y-60197879D01*
X136722472Y-60180062D01*
X136540888Y-60131412D01*
X136540885Y-60131411D01*
X136418904Y-60115356D01*
X136286247Y-60097895D01*
X136286242Y-60097895D01*
X136157828Y-60097900D01*
X132659500Y-60097900D01*
X132592461Y-60078215D01*
X132546706Y-60025411D01*
X132535500Y-59973900D01*
X132535500Y-59358386D01*
X132535500Y-59358384D01*
X132529086Y-59287804D01*
X132478478Y-59125394D01*
X132390472Y-58979815D01*
X132390470Y-58979813D01*
X132390469Y-58979811D01*
X132270188Y-58859530D01*
X132202475Y-58818596D01*
X132124606Y-58771522D01*
X131962196Y-58720914D01*
X131962194Y-58720913D01*
X131962192Y-58720913D01*
X131912778Y-58716423D01*
X131891616Y-58714500D01*
X131378384Y-58714500D01*
X131359145Y-58716248D01*
X131307807Y-58720913D01*
X131145393Y-58771522D01*
X130999811Y-58859530D01*
X130999810Y-58859531D01*
X130897681Y-58961661D01*
X130836358Y-58995146D01*
X130766666Y-58990162D01*
X130722319Y-58961661D01*
X130620188Y-58859530D01*
X130552475Y-58818596D01*
X130474606Y-58771522D01*
X130312196Y-58720914D01*
X130312194Y-58720913D01*
X130312192Y-58720913D01*
X130262778Y-58716423D01*
X130241616Y-58714500D01*
X129728384Y-58714500D01*
X129709145Y-58716248D01*
X129657807Y-58720913D01*
X129495393Y-58771522D01*
X129349811Y-58859530D01*
X129229531Y-58979810D01*
X129229528Y-58979814D01*
X129200368Y-59028051D01*
X129148840Y-59075238D01*
X129094252Y-59087900D01*
X128288344Y-59087900D01*
X128221305Y-59068215D01*
X128175960Y-59016300D01*
X128174035Y-59012171D01*
X128038495Y-58818599D01*
X128038494Y-58818597D01*
X127871402Y-58651506D01*
X127871395Y-58651501D01*
X127677834Y-58515967D01*
X127677830Y-58515965D01*
X127606727Y-58482809D01*
X127463663Y-58416097D01*
X127463659Y-58416096D01*
X127463655Y-58416094D01*
X127235413Y-58354938D01*
X127235403Y-58354936D01*
X127000001Y-58334341D01*
X126999999Y-58334341D01*
X126764596Y-58354936D01*
X126764586Y-58354938D01*
X126536344Y-58416094D01*
X126536335Y-58416098D01*
X126322171Y-58515964D01*
X126322169Y-58515965D01*
X126128600Y-58651503D01*
X126006284Y-58773819D01*
X125944961Y-58807303D01*
X125875269Y-58802319D01*
X125819336Y-58760447D01*
X125802421Y-58729470D01*
X125753354Y-58597913D01*
X125753350Y-58597906D01*
X125667190Y-58482812D01*
X125667187Y-58482809D01*
X125552093Y-58396649D01*
X125552086Y-58396645D01*
X125417379Y-58346403D01*
X125417372Y-58346401D01*
X125357844Y-58340000D01*
X124710000Y-58340000D01*
X124710000Y-59256988D01*
X124652993Y-59224075D01*
X124525826Y-59190000D01*
X124394174Y-59190000D01*
X124267007Y-59224075D01*
X124210000Y-59256988D01*
X124210000Y-58340000D01*
X123562155Y-58340000D01*
X123502627Y-58346401D01*
X123502620Y-58346403D01*
X123367913Y-58396645D01*
X123367906Y-58396649D01*
X123252812Y-58482809D01*
X123252809Y-58482812D01*
X123166649Y-58597906D01*
X123166645Y-58597913D01*
X123116403Y-58732620D01*
X123116401Y-58732627D01*
X123110000Y-58792155D01*
X123110000Y-59440000D01*
X124026988Y-59440000D01*
X123994075Y-59497007D01*
X123960000Y-59624174D01*
X123960000Y-59755826D01*
X123994075Y-59882993D01*
X124026988Y-59940000D01*
X123110000Y-59940000D01*
X123110000Y-60587844D01*
X123116401Y-60647372D01*
X123116403Y-60647379D01*
X123166645Y-60782086D01*
X123166649Y-60782093D01*
X123252809Y-60897187D01*
X123252812Y-60897190D01*
X123367906Y-60983350D01*
X123367913Y-60983354D01*
X123502620Y-61033596D01*
X123502627Y-61033598D01*
X123562155Y-61039999D01*
X123562172Y-61040000D01*
X124210000Y-61040000D01*
X124210000Y-60123012D01*
X124267007Y-60155925D01*
X124394174Y-60190000D01*
X124525826Y-60190000D01*
X124652993Y-60155925D01*
X124710000Y-60123012D01*
X124710000Y-61040000D01*
X125357828Y-61040000D01*
X125357844Y-61039999D01*
X125417372Y-61033598D01*
X125417379Y-61033596D01*
X125552086Y-60983354D01*
X125552093Y-60983350D01*
X125667187Y-60897190D01*
X125667190Y-60897187D01*
X125753350Y-60782093D01*
X125753354Y-60782086D01*
X125802422Y-60650529D01*
X125844293Y-60594595D01*
X125909757Y-60570178D01*
X125978030Y-60585030D01*
X126006285Y-60606181D01*
X126128599Y-60728495D01*
X126170168Y-60757602D01*
X126322165Y-60864032D01*
X126322167Y-60864033D01*
X126322170Y-60864035D01*
X126536337Y-60963903D01*
X126764592Y-61025063D01*
X126935319Y-61040000D01*
X126999999Y-61045659D01*
X127000000Y-61045659D01*
X127000001Y-61045659D01*
X127064681Y-61040000D01*
X127235408Y-61025063D01*
X127463663Y-60963903D01*
X127677830Y-60864035D01*
X127871401Y-60728495D01*
X128038495Y-60561401D01*
X128174035Y-60367830D01*
X128175961Y-60363698D01*
X128222132Y-60311258D01*
X128288345Y-60292100D01*
X129094252Y-60292100D01*
X129161291Y-60311785D01*
X129200368Y-60351949D01*
X129229528Y-60400185D01*
X129229531Y-60400189D01*
X129349811Y-60520469D01*
X129349813Y-60520470D01*
X129349815Y-60520472D01*
X129495394Y-60608478D01*
X129549669Y-60625390D01*
X129607817Y-60664128D01*
X129613095Y-60670888D01*
X129676100Y-60757602D01*
X129676101Y-60757603D01*
X129676102Y-60757604D01*
X129737146Y-60818644D01*
X129737149Y-60818647D01*
X129765418Y-60846916D01*
X129765454Y-60846982D01*
X129868009Y-60949534D01*
X129868015Y-60949540D01*
X130016746Y-61063664D01*
X130106314Y-61115373D01*
X130179100Y-61157394D01*
X130352299Y-61229130D01*
X130533381Y-61277644D01*
X130719246Y-61302104D01*
X130812979Y-61302100D01*
X132969260Y-61302100D01*
X133036299Y-61321785D01*
X133082054Y-61374589D01*
X133091998Y-61443747D01*
X133067636Y-61501586D01*
X132989265Y-61603721D01*
X132932837Y-61644924D01*
X132904773Y-61651455D01*
X132831048Y-61659761D01*
X132670560Y-61715919D01*
X132526599Y-61806376D01*
X132406376Y-61926599D01*
X132315919Y-62070560D01*
X132259761Y-62231048D01*
X132240726Y-62399997D01*
X132240726Y-62400004D01*
X132244876Y-62436839D01*
X132232821Y-62505661D01*
X132185472Y-62557040D01*
X132117861Y-62574664D01*
X132084767Y-62569108D01*
X132084273Y-62568954D01*
X131962196Y-62530914D01*
X131891616Y-62524500D01*
X131378384Y-62524500D01*
X131359145Y-62526248D01*
X131307807Y-62530913D01*
X131145393Y-62581522D01*
X130999811Y-62669530D01*
X130999810Y-62669531D01*
X130897681Y-62771661D01*
X130836358Y-62805146D01*
X130766666Y-62800162D01*
X130722319Y-62771661D01*
X130620188Y-62669530D01*
X130552475Y-62628596D01*
X130474606Y-62581522D01*
X130312196Y-62530914D01*
X130312194Y-62530913D01*
X130312192Y-62530913D01*
X130262778Y-62526423D01*
X130241616Y-62524500D01*
X129728384Y-62524500D01*
X129709145Y-62526248D01*
X129657807Y-62530913D01*
X129495393Y-62581522D01*
X129349811Y-62669530D01*
X129229531Y-62789810D01*
X129229528Y-62789814D01*
X129200368Y-62838051D01*
X129148840Y-62885238D01*
X129094252Y-62897900D01*
X128288344Y-62897900D01*
X128221305Y-62878215D01*
X128175960Y-62826300D01*
X128174035Y-62822171D01*
X128038495Y-62628599D01*
X128038494Y-62628597D01*
X127871402Y-62461506D01*
X127871395Y-62461501D01*
X127677834Y-62325967D01*
X127677830Y-62325965D01*
X127606727Y-62292809D01*
X127463663Y-62226097D01*
X127463659Y-62226096D01*
X127463655Y-62226094D01*
X127235413Y-62164938D01*
X127235403Y-62164936D01*
X127000001Y-62144341D01*
X126999999Y-62144341D01*
X126764596Y-62164936D01*
X126764586Y-62164938D01*
X126536344Y-62226094D01*
X126536335Y-62226098D01*
X126322171Y-62325964D01*
X126322169Y-62325965D01*
X126128600Y-62461503D01*
X126006284Y-62583819D01*
X125944961Y-62617303D01*
X125875269Y-62612319D01*
X125819336Y-62570447D01*
X125802421Y-62539470D01*
X125753354Y-62407913D01*
X125753350Y-62407906D01*
X125667190Y-62292812D01*
X125667187Y-62292809D01*
X125552093Y-62206649D01*
X125552086Y-62206645D01*
X125417379Y-62156403D01*
X125417372Y-62156401D01*
X125357844Y-62150000D01*
X124710000Y-62150000D01*
X124710000Y-63066988D01*
X124652993Y-63034075D01*
X124525826Y-63000000D01*
X124394174Y-63000000D01*
X124267007Y-63034075D01*
X124210000Y-63066988D01*
X124210000Y-62150000D01*
X123562155Y-62150000D01*
X123502627Y-62156401D01*
X123502620Y-62156403D01*
X123367913Y-62206645D01*
X123367906Y-62206649D01*
X123252812Y-62292809D01*
X123252809Y-62292812D01*
X123166649Y-62407906D01*
X123166645Y-62407913D01*
X123116403Y-62542620D01*
X123116401Y-62542627D01*
X123110000Y-62602155D01*
X123110000Y-63250000D01*
X124026988Y-63250000D01*
X123994075Y-63307007D01*
X123960000Y-63434174D01*
X123960000Y-63565826D01*
X123994075Y-63692993D01*
X124026988Y-63750000D01*
X123110000Y-63750000D01*
X123110000Y-64397844D01*
X123116401Y-64457372D01*
X123116403Y-64457379D01*
X123166645Y-64592086D01*
X123166649Y-64592093D01*
X123252809Y-64707187D01*
X123252812Y-64707190D01*
X123367906Y-64793350D01*
X123367913Y-64793354D01*
X123502620Y-64843596D01*
X123502627Y-64843598D01*
X123562155Y-64849999D01*
X123562172Y-64850000D01*
X124210000Y-64850000D01*
X124210000Y-63933012D01*
X124267007Y-63965925D01*
X124394174Y-64000000D01*
X124525826Y-64000000D01*
X124652993Y-63965925D01*
X124710000Y-63933012D01*
X124710000Y-64850000D01*
X125357828Y-64850000D01*
X125357844Y-64849999D01*
X125417372Y-64843598D01*
X125417379Y-64843596D01*
X125552086Y-64793354D01*
X125552093Y-64793350D01*
X125667187Y-64707190D01*
X125667190Y-64707187D01*
X125753350Y-64592093D01*
X125753354Y-64592086D01*
X125802422Y-64460529D01*
X125844293Y-64404595D01*
X125909757Y-64380178D01*
X125978030Y-64395030D01*
X126006285Y-64416181D01*
X126128599Y-64538495D01*
X126201156Y-64589300D01*
X126322165Y-64674032D01*
X126322167Y-64674033D01*
X126322170Y-64674035D01*
X126536337Y-64773903D01*
X126536343Y-64773904D01*
X126536344Y-64773905D01*
X126591285Y-64788626D01*
X126764592Y-64835063D01*
X126935319Y-64850000D01*
X126999999Y-64855659D01*
X127000000Y-64855659D01*
X127000001Y-64855659D01*
X127064681Y-64850000D01*
X127235408Y-64835063D01*
X127463663Y-64773903D01*
X127677830Y-64674035D01*
X127871401Y-64538495D01*
X128038495Y-64371401D01*
X128174035Y-64177830D01*
X128175961Y-64173698D01*
X128222132Y-64121258D01*
X128288345Y-64102100D01*
X129094252Y-64102100D01*
X129161291Y-64121785D01*
X129200368Y-64161949D01*
X129229528Y-64210185D01*
X129229531Y-64210189D01*
X129349811Y-64330469D01*
X129349813Y-64330470D01*
X129349815Y-64330472D01*
X129495394Y-64418478D01*
X129657804Y-64469086D01*
X129728384Y-64475500D01*
X129842640Y-64475500D01*
X129909679Y-64495185D01*
X129930316Y-64511814D01*
X129977428Y-64558926D01*
X130013354Y-64594852D01*
X130013449Y-64594935D01*
X130041769Y-64623254D01*
X130243750Y-64778241D01*
X130464232Y-64905538D01*
X130699443Y-65002968D01*
X130945359Y-65068863D01*
X131197772Y-65102098D01*
X131233969Y-65102098D01*
X131233989Y-65102100D01*
X131245810Y-65102100D01*
X131325068Y-65102100D01*
X131398176Y-65102101D01*
X131398180Y-65102100D01*
X133078540Y-65102100D01*
X133157828Y-65102100D01*
X133165987Y-65102100D01*
X133166204Y-65102085D01*
X133195768Y-65102086D01*
X133428220Y-65071490D01*
X133654689Y-65010813D01*
X133871300Y-64921094D01*
X134074347Y-64803868D01*
X134260355Y-64661141D01*
X134284477Y-64637017D01*
X134284488Y-64637009D01*
X134291552Y-64629944D01*
X134291554Y-64629944D01*
X134306919Y-64614579D01*
X134306965Y-64614553D01*
X134343259Y-64578259D01*
X134343260Y-64578260D01*
X134426154Y-64495367D01*
X134568883Y-64309357D01*
X134686110Y-64106308D01*
X134775830Y-63889695D01*
X134834840Y-63669445D01*
X134871202Y-63609789D01*
X134934048Y-63579258D01*
X135003424Y-63587551D01*
X135029062Y-63604903D01*
X135030268Y-63603333D01*
X135036717Y-63608281D01*
X135036718Y-63608282D01*
X135066485Y-63631123D01*
X135107688Y-63687548D01*
X135115000Y-63729499D01*
X135115000Y-63772010D01*
X135171631Y-63764555D01*
X135191887Y-63756165D01*
X135261356Y-63748693D01*
X135286797Y-63756163D01*
X135286802Y-63756165D01*
X135308238Y-63765044D01*
X135425639Y-63780500D01*
X135704360Y-63780499D01*
X135704361Y-63780499D01*
X135716594Y-63778888D01*
X135821762Y-63765044D01*
X135842545Y-63756434D01*
X135912014Y-63748965D01*
X135937453Y-63756434D01*
X135958238Y-63765044D01*
X136075639Y-63780500D01*
X136354360Y-63780499D01*
X136354361Y-63780499D01*
X136368018Y-63778701D01*
X136471762Y-63765044D01*
X136493200Y-63756163D01*
X136562668Y-63748694D01*
X136588106Y-63756163D01*
X136608365Y-63764554D01*
X136608377Y-63764558D01*
X136664998Y-63772011D01*
X136665000Y-63772010D01*
X136665000Y-63729499D01*
X136684685Y-63662460D01*
X136713512Y-63631125D01*
X136743282Y-63608282D01*
X136766625Y-63577860D01*
X136823051Y-63536658D01*
X136892797Y-63532503D01*
X136953718Y-63566714D01*
X136963368Y-63577851D01*
X136986718Y-63608282D01*
X137016485Y-63631123D01*
X137057688Y-63687548D01*
X137065000Y-63729499D01*
X137065000Y-63772010D01*
X137121631Y-63764555D01*
X137141887Y-63756165D01*
X137211356Y-63748693D01*
X137236797Y-63756163D01*
X137236802Y-63756165D01*
X137258238Y-63765044D01*
X137375639Y-63780500D01*
X137559727Y-63780499D01*
X137626766Y-63800183D01*
X137672521Y-63852987D01*
X137674288Y-63857046D01*
X137716259Y-63958373D01*
X137716263Y-63958383D01*
X137815586Y-64130415D01*
X137936514Y-64288013D01*
X137936516Y-64288015D01*
X137936517Y-64288016D01*
X137970430Y-64321929D01*
X137970432Y-64321931D01*
X138006750Y-64358249D01*
X138006750Y-64358250D01*
X138028678Y-64380178D01*
X138076985Y-64428485D01*
X138234583Y-64549413D01*
X138406611Y-64648734D01*
X138406627Y-64648742D01*
X138505635Y-64689752D01*
X138590147Y-64724758D01*
X138782028Y-64776172D01*
X138978978Y-64802101D01*
X139078303Y-64802100D01*
X139646000Y-64802100D01*
X139713039Y-64821785D01*
X139758794Y-64874589D01*
X139770000Y-64926100D01*
X139770000Y-66073900D01*
X139750315Y-66140939D01*
X139697511Y-66186694D01*
X139646000Y-66197900D01*
X138988303Y-66197900D01*
X138988287Y-66197899D01*
X138958948Y-66197899D01*
X138958937Y-66197896D01*
X138819449Y-66197897D01*
X138644693Y-66220907D01*
X138644687Y-66220908D01*
X138474425Y-66266530D01*
X138311571Y-66333988D01*
X138311567Y-66333990D01*
X138158924Y-66422119D01*
X138158918Y-66422123D01*
X138158917Y-66422124D01*
X138129571Y-66444642D01*
X138019064Y-66529437D01*
X138019063Y-66529439D01*
X137956750Y-66591752D01*
X137899955Y-66648545D01*
X137899909Y-66648596D01*
X137894443Y-66654062D01*
X137894433Y-66654073D01*
X137787133Y-66793907D01*
X137787121Y-66793925D01*
X137698994Y-66946564D01*
X137698987Y-66946578D01*
X137696344Y-66952960D01*
X137652499Y-67007361D01*
X137586204Y-67029421D01*
X137581787Y-67029500D01*
X137375636Y-67029500D01*
X137258241Y-67044954D01*
X137258239Y-67044955D01*
X137236796Y-67053837D01*
X137167327Y-67061304D01*
X137141895Y-67053837D01*
X137121631Y-67045444D01*
X137065000Y-67037987D01*
X137065000Y-67080499D01*
X137045315Y-67147538D01*
X137016489Y-67178873D01*
X136986719Y-67201716D01*
X136986716Y-67201720D01*
X136963374Y-67232140D01*
X136906948Y-67273341D01*
X136837202Y-67277496D01*
X136776281Y-67243283D01*
X136766630Y-67232146D01*
X136743282Y-67201718D01*
X136743280Y-67201717D01*
X136743280Y-67201716D01*
X136713511Y-67178873D01*
X136672310Y-67122444D01*
X136665000Y-67080499D01*
X136665000Y-67037987D01*
X136608370Y-67045443D01*
X136588103Y-67053838D01*
X136518633Y-67061304D01*
X136493203Y-67053837D01*
X136471762Y-67044956D01*
X136471760Y-67044955D01*
X136354361Y-67029500D01*
X136075636Y-67029500D01*
X135958246Y-67044953D01*
X135958234Y-67044957D01*
X135937450Y-67053566D01*
X135867981Y-67061033D01*
X135842550Y-67053566D01*
X135821765Y-67044957D01*
X135821760Y-67044955D01*
X135704361Y-67029500D01*
X135425636Y-67029500D01*
X135308241Y-67044954D01*
X135308239Y-67044955D01*
X135286796Y-67053837D01*
X135217327Y-67061304D01*
X135191895Y-67053837D01*
X135171631Y-67045444D01*
X135115000Y-67037987D01*
X135115000Y-67080499D01*
X135095315Y-67147538D01*
X135066488Y-67178874D01*
X135040139Y-67199093D01*
X134974970Y-67224288D01*
X134906525Y-67210251D01*
X134856535Y-67161438D01*
X134841711Y-67116895D01*
X134839414Y-67099441D01*
X134784529Y-66894593D01*
X134784527Y-66894588D01*
X134703371Y-66698652D01*
X134597334Y-66514986D01*
X134468230Y-66346732D01*
X134468227Y-66346729D01*
X134468223Y-66346724D01*
X134429576Y-66308077D01*
X134429559Y-66308046D01*
X134393256Y-66271743D01*
X134393257Y-66271743D01*
X134318275Y-66196761D01*
X134150020Y-66067656D01*
X133966353Y-65961618D01*
X133770415Y-65880461D01*
X133770412Y-65880460D01*
X133770407Y-65880458D01*
X133565564Y-65825574D01*
X133472108Y-65813273D01*
X133355294Y-65797897D01*
X133355289Y-65797897D01*
X133249253Y-65797900D01*
X131235077Y-65797900D01*
X131235045Y-65797898D01*
X131205725Y-65797898D01*
X131205680Y-65797885D01*
X131038244Y-65797888D01*
X130808013Y-65828204D01*
X130583712Y-65888311D01*
X130583709Y-65888312D01*
X130369191Y-65977172D01*
X130369167Y-65977183D01*
X130168090Y-66093278D01*
X130168067Y-66093293D01*
X129983849Y-66234650D01*
X129970825Y-66247674D01*
X129957800Y-66260700D01*
X129920319Y-66298181D01*
X129858996Y-66331666D01*
X129832638Y-66334500D01*
X129728384Y-66334500D01*
X129709145Y-66336248D01*
X129657807Y-66340913D01*
X129495393Y-66391522D01*
X129349811Y-66479530D01*
X129229531Y-66599810D01*
X129229528Y-66599814D01*
X129200368Y-66648051D01*
X129148840Y-66695238D01*
X129094252Y-66707900D01*
X128288344Y-66707900D01*
X128221305Y-66688215D01*
X128175960Y-66636300D01*
X128174035Y-66632171D01*
X128102096Y-66529431D01*
X128038494Y-66438597D01*
X127871402Y-66271506D01*
X127871395Y-66271501D01*
X127677834Y-66135967D01*
X127677830Y-66135965D01*
X127606727Y-66102809D01*
X127463663Y-66036097D01*
X127463659Y-66036096D01*
X127463655Y-66036094D01*
X127235413Y-65974938D01*
X127235403Y-65974936D01*
X127000001Y-65954341D01*
X126999999Y-65954341D01*
X126764596Y-65974936D01*
X126764586Y-65974938D01*
X126536344Y-66036094D01*
X126536335Y-66036098D01*
X126322171Y-66135964D01*
X126322169Y-66135965D01*
X126128600Y-66271503D01*
X126006284Y-66393819D01*
X125944961Y-66427303D01*
X125875269Y-66422319D01*
X125819336Y-66380447D01*
X125802421Y-66349470D01*
X125753354Y-66217913D01*
X125753350Y-66217906D01*
X125667190Y-66102812D01*
X125667187Y-66102809D01*
X125552093Y-66016649D01*
X125552086Y-66016645D01*
X125417379Y-65966403D01*
X125417372Y-65966401D01*
X125357844Y-65960000D01*
X124710000Y-65960000D01*
X124710000Y-66876988D01*
X124652993Y-66844075D01*
X124525826Y-66810000D01*
X124394174Y-66810000D01*
X124267007Y-66844075D01*
X124210000Y-66876988D01*
X124210000Y-65960000D01*
X123562155Y-65960000D01*
X123502627Y-65966401D01*
X123502620Y-65966403D01*
X123367913Y-66016645D01*
X123367906Y-66016649D01*
X123252812Y-66102809D01*
X123252809Y-66102812D01*
X123166649Y-66217906D01*
X123166645Y-66217913D01*
X123116403Y-66352620D01*
X123116401Y-66352627D01*
X123110000Y-66412155D01*
X123110000Y-67060000D01*
X124026988Y-67060000D01*
X123994075Y-67117007D01*
X123960000Y-67244174D01*
X123960000Y-67375826D01*
X123994075Y-67502993D01*
X124026988Y-67560000D01*
X123110000Y-67560000D01*
X123110000Y-68207844D01*
X123116401Y-68267372D01*
X123116403Y-68267379D01*
X123166645Y-68402086D01*
X123166649Y-68402093D01*
X123252809Y-68517187D01*
X123252812Y-68517190D01*
X123367906Y-68603350D01*
X123367913Y-68603354D01*
X123502620Y-68653596D01*
X123502627Y-68653598D01*
X123562155Y-68659999D01*
X123562172Y-68660000D01*
X124210000Y-68660000D01*
X124210000Y-67743012D01*
X124267007Y-67775925D01*
X124394174Y-67810000D01*
X124525826Y-67810000D01*
X124652993Y-67775925D01*
X124710000Y-67743012D01*
X124710000Y-68660000D01*
X125357828Y-68660000D01*
X125357844Y-68659999D01*
X125417372Y-68653598D01*
X125417379Y-68653596D01*
X125552086Y-68603354D01*
X125552093Y-68603350D01*
X125667187Y-68517190D01*
X125667190Y-68517187D01*
X125753350Y-68402093D01*
X125753354Y-68402086D01*
X125802422Y-68270529D01*
X125844293Y-68214595D01*
X125909757Y-68190178D01*
X125978030Y-68205030D01*
X126006285Y-68226181D01*
X126128599Y-68348495D01*
X126205135Y-68402086D01*
X126322165Y-68484032D01*
X126322167Y-68484033D01*
X126322170Y-68484035D01*
X126536337Y-68583903D01*
X126764592Y-68645063D01*
X126935319Y-68660000D01*
X126999999Y-68665659D01*
X127000000Y-68665659D01*
X127000001Y-68665659D01*
X127064681Y-68660000D01*
X127235408Y-68645063D01*
X127463663Y-68583903D01*
X127677830Y-68484035D01*
X127871401Y-68348495D01*
X128038495Y-68181401D01*
X128174035Y-67987830D01*
X128175961Y-67983698D01*
X128222132Y-67931258D01*
X128288345Y-67912100D01*
X129094252Y-67912100D01*
X129161291Y-67931785D01*
X129200368Y-67971949D01*
X129229528Y-68020185D01*
X129229531Y-68020189D01*
X129349811Y-68140469D01*
X129349813Y-68140470D01*
X129349815Y-68140472D01*
X129495394Y-68228478D01*
X129657804Y-68279086D01*
X129728384Y-68285500D01*
X129728387Y-68285500D01*
X130241613Y-68285500D01*
X130241616Y-68285500D01*
X130312196Y-68279086D01*
X130474606Y-68228478D01*
X130620185Y-68140472D01*
X130620189Y-68140468D01*
X130722319Y-68038339D01*
X130783642Y-68004854D01*
X130853334Y-68009838D01*
X130897681Y-68038339D01*
X130999811Y-68140469D01*
X130999813Y-68140470D01*
X130999815Y-68140472D01*
X131145394Y-68228478D01*
X131307804Y-68279086D01*
X131378384Y-68285500D01*
X131378387Y-68285500D01*
X131891613Y-68285500D01*
X131891616Y-68285500D01*
X131962196Y-68279086D01*
X132096583Y-68237209D01*
X132166442Y-68236058D01*
X132225834Y-68272859D01*
X132255902Y-68335928D01*
X132256692Y-68341709D01*
X132259762Y-68368951D01*
X132259762Y-68368953D01*
X132259763Y-68368954D01*
X132300031Y-68484035D01*
X132315919Y-68529439D01*
X132388569Y-68645061D01*
X132406376Y-68673400D01*
X132526600Y-68793624D01*
X132670563Y-68884082D01*
X132831046Y-68940237D01*
X132831051Y-68940237D01*
X132832425Y-68940551D01*
X132833230Y-68941001D01*
X132837619Y-68942537D01*
X132837350Y-68943305D01*
X132893407Y-68974654D01*
X132926270Y-69036313D01*
X132927783Y-69045257D01*
X132929956Y-69061762D01*
X132990464Y-69207841D01*
X133086718Y-69333282D01*
X133212159Y-69429536D01*
X133358238Y-69490044D01*
X133475639Y-69505500D01*
X133602934Y-69505499D01*
X133669973Y-69525183D01*
X133715728Y-69577987D01*
X133725672Y-69647145D01*
X133720640Y-69668502D01*
X133674651Y-69807288D01*
X133664500Y-69906647D01*
X133664500Y-70503337D01*
X133664501Y-70503355D01*
X133674650Y-70602707D01*
X133674651Y-70602710D01*
X133727996Y-70763694D01*
X133728001Y-70763705D01*
X133817029Y-70908040D01*
X133817032Y-70908044D01*
X133826307Y-70917319D01*
X133859792Y-70978642D01*
X133854808Y-71048334D01*
X133826307Y-71092681D01*
X133817032Y-71101955D01*
X133817029Y-71101959D01*
X133728001Y-71246294D01*
X133727996Y-71246305D01*
X133674651Y-71407290D01*
X133664500Y-71506647D01*
X133664500Y-72103337D01*
X133664501Y-72103355D01*
X133674650Y-72202707D01*
X133674651Y-72202710D01*
X133727996Y-72363694D01*
X133728001Y-72363705D01*
X133817029Y-72508040D01*
X133817032Y-72508044D01*
X133936955Y-72627967D01*
X133936959Y-72627970D01*
X134081294Y-72716998D01*
X134081297Y-72716999D01*
X134081303Y-72717003D01*
X134242292Y-72770349D01*
X134341655Y-72780500D01*
X134888344Y-72780499D01*
X134888352Y-72780498D01*
X134888355Y-72780498D01*
X134942760Y-72774940D01*
X134987708Y-72770349D01*
X135148697Y-72717003D01*
X135267854Y-72643505D01*
X135335245Y-72625065D01*
X135401908Y-72645987D01*
X135446678Y-72699629D01*
X135456170Y-72762928D01*
X135440726Y-72899997D01*
X135440726Y-72900002D01*
X135447488Y-72960016D01*
X135435434Y-73028838D01*
X135388085Y-73080218D01*
X135324268Y-73097900D01*
X132992986Y-73097900D01*
X132986034Y-73097705D01*
X132968727Y-73096733D01*
X132727473Y-73083185D01*
X132713655Y-73081628D01*
X132461787Y-73038834D01*
X132448230Y-73035740D01*
X132202726Y-72965011D01*
X132189602Y-72960418D01*
X131953578Y-72862655D01*
X131941049Y-72856622D01*
X131717436Y-72733036D01*
X131705662Y-72725637D01*
X131574356Y-72632470D01*
X131497311Y-72577803D01*
X131486442Y-72569137D01*
X131480351Y-72563694D01*
X131312117Y-72413350D01*
X131293369Y-72396596D01*
X131288315Y-72391817D01*
X131194621Y-72298123D01*
X131161136Y-72236800D01*
X131166120Y-72167108D01*
X131207992Y-72111175D01*
X131273456Y-72086758D01*
X131301269Y-72088497D01*
X131301270Y-72088492D01*
X131301482Y-72088511D01*
X131306497Y-72088825D01*
X131307791Y-72089082D01*
X131307804Y-72089086D01*
X131378384Y-72095500D01*
X131378387Y-72095500D01*
X131891613Y-72095500D01*
X131891616Y-72095500D01*
X131962196Y-72089086D01*
X132124606Y-72038478D01*
X132270185Y-71950472D01*
X132390472Y-71830185D01*
X132478478Y-71684606D01*
X132529086Y-71522196D01*
X132535500Y-71451616D01*
X132535500Y-70788384D01*
X132529086Y-70717804D01*
X132478478Y-70555394D01*
X132390472Y-70409815D01*
X132390470Y-70409813D01*
X132390469Y-70409811D01*
X132270188Y-70289530D01*
X132244096Y-70273757D01*
X132124606Y-70201522D01*
X131962196Y-70150914D01*
X131962194Y-70150913D01*
X131962192Y-70150913D01*
X131912778Y-70146423D01*
X131891616Y-70144500D01*
X131378384Y-70144500D01*
X131359145Y-70146248D01*
X131307807Y-70150913D01*
X131145393Y-70201522D01*
X130999811Y-70289530D01*
X130999810Y-70289531D01*
X130897681Y-70391661D01*
X130836358Y-70425146D01*
X130766666Y-70420162D01*
X130722319Y-70391661D01*
X130620188Y-70289530D01*
X130594096Y-70273757D01*
X130474606Y-70201522D01*
X130312196Y-70150914D01*
X130312194Y-70150913D01*
X130312192Y-70150913D01*
X130262778Y-70146423D01*
X130241616Y-70144500D01*
X129728384Y-70144500D01*
X129709145Y-70146248D01*
X129657807Y-70150913D01*
X129495393Y-70201522D01*
X129349811Y-70289530D01*
X129229531Y-70409810D01*
X129229528Y-70409814D01*
X129200368Y-70458051D01*
X129148840Y-70505238D01*
X129094252Y-70517900D01*
X128288344Y-70517900D01*
X128221305Y-70498215D01*
X128175960Y-70446300D01*
X128174035Y-70442171D01*
X128094737Y-70328921D01*
X128038494Y-70248597D01*
X127871402Y-70081506D01*
X127871395Y-70081501D01*
X127840831Y-70060100D01*
X127765414Y-70007292D01*
X127677834Y-69945967D01*
X127677830Y-69945965D01*
X127606727Y-69912809D01*
X127463663Y-69846097D01*
X127463659Y-69846096D01*
X127463655Y-69846094D01*
X127235413Y-69784938D01*
X127235403Y-69784936D01*
X127000001Y-69764341D01*
X126999999Y-69764341D01*
X126764596Y-69784936D01*
X126764586Y-69784938D01*
X126536344Y-69846094D01*
X126536335Y-69846098D01*
X126322171Y-69945964D01*
X126322169Y-69945965D01*
X126128600Y-70081503D01*
X126006284Y-70203819D01*
X125944961Y-70237303D01*
X125875269Y-70232319D01*
X125819336Y-70190447D01*
X125802421Y-70159470D01*
X125753354Y-70027913D01*
X125753350Y-70027906D01*
X125667190Y-69912812D01*
X125667187Y-69912809D01*
X125552093Y-69826649D01*
X125552086Y-69826645D01*
X125417379Y-69776403D01*
X125417372Y-69776401D01*
X125357844Y-69770000D01*
X124710000Y-69770000D01*
X124710000Y-70686988D01*
X124652993Y-70654075D01*
X124525826Y-70620000D01*
X124394174Y-70620000D01*
X124267007Y-70654075D01*
X124210000Y-70686988D01*
X124210000Y-69770000D01*
X123562155Y-69770000D01*
X123502627Y-69776401D01*
X123502620Y-69776403D01*
X123367913Y-69826645D01*
X123367906Y-69826649D01*
X123252812Y-69912809D01*
X123252809Y-69912812D01*
X123166649Y-70027906D01*
X123166645Y-70027913D01*
X123116403Y-70162620D01*
X123116401Y-70162627D01*
X123110000Y-70222155D01*
X123110000Y-70870000D01*
X124026988Y-70870000D01*
X123994075Y-70927007D01*
X123960000Y-71054174D01*
X123960000Y-71185826D01*
X123994075Y-71312993D01*
X124026988Y-71370000D01*
X123110000Y-71370000D01*
X123110000Y-72017844D01*
X123116401Y-72077372D01*
X123116403Y-72077379D01*
X123166645Y-72212086D01*
X123166649Y-72212093D01*
X123252809Y-72327187D01*
X123252812Y-72327190D01*
X123367906Y-72413350D01*
X123367913Y-72413354D01*
X123502620Y-72463596D01*
X123502627Y-72463598D01*
X123562155Y-72469999D01*
X123562172Y-72470000D01*
X124210000Y-72470000D01*
X124210000Y-71553012D01*
X124267007Y-71585925D01*
X124394174Y-71620000D01*
X124525826Y-71620000D01*
X124652993Y-71585925D01*
X124710000Y-71553012D01*
X124710000Y-72470000D01*
X125357828Y-72470000D01*
X125357844Y-72469999D01*
X125417372Y-72463598D01*
X125417379Y-72463596D01*
X125552086Y-72413354D01*
X125552093Y-72413350D01*
X125667187Y-72327190D01*
X125667190Y-72327187D01*
X125753350Y-72212093D01*
X125753354Y-72212086D01*
X125802422Y-72080529D01*
X125844293Y-72024595D01*
X125909757Y-72000178D01*
X125978030Y-72015030D01*
X126006285Y-72036181D01*
X126128599Y-72158495D01*
X126212037Y-72216919D01*
X126322165Y-72294032D01*
X126322167Y-72294033D01*
X126322170Y-72294035D01*
X126536337Y-72393903D01*
X126536343Y-72393904D01*
X126536344Y-72393905D01*
X126591285Y-72408626D01*
X126764592Y-72455063D01*
X126935319Y-72470000D01*
X126999999Y-72475659D01*
X127000000Y-72475659D01*
X127000001Y-72475659D01*
X127064681Y-72470000D01*
X127235408Y-72455063D01*
X127463663Y-72393903D01*
X127677830Y-72294035D01*
X127871401Y-72158495D01*
X128038495Y-71991401D01*
X128174035Y-71797830D01*
X128175961Y-71793698D01*
X128222132Y-71741258D01*
X128288345Y-71722100D01*
X129094252Y-71722100D01*
X129161291Y-71741785D01*
X129200368Y-71781949D01*
X129229528Y-71830185D01*
X129229531Y-71830189D01*
X129349810Y-71950468D01*
X129349814Y-71950471D01*
X129349815Y-71950472D01*
X129373526Y-71964806D01*
X129416476Y-71990771D01*
X129463663Y-72042299D01*
X129466885Y-72049433D01*
X129544000Y-72235597D01*
X129544005Y-72235609D01*
X129648346Y-72416329D01*
X129648348Y-72416332D01*
X129648349Y-72416333D01*
X129775390Y-72581891D01*
X129848901Y-72655399D01*
X129848903Y-72655401D01*
X130402930Y-73209428D01*
X130402933Y-73209434D01*
X130439249Y-73245750D01*
X130439249Y-73245751D01*
X130564535Y-73371038D01*
X130838461Y-73595843D01*
X131133103Y-73792716D01*
X131133112Y-73792721D01*
X131133114Y-73792722D01*
X131445615Y-73959758D01*
X131445617Y-73959758D01*
X131445623Y-73959762D01*
X131633907Y-74037751D01*
X131773006Y-74095368D01*
X131773010Y-74095369D01*
X131773012Y-74095370D01*
X132112116Y-74198236D01*
X132112122Y-74198237D01*
X132112125Y-74198238D01*
X132112136Y-74198241D01*
X132306358Y-74236872D01*
X132459670Y-74267368D01*
X132812327Y-74302101D01*
X132989508Y-74302100D01*
X133062617Y-74302100D01*
X135611567Y-74302100D01*
X135690843Y-74302100D01*
X135699044Y-74302100D01*
X135699175Y-74302091D01*
X135752275Y-74302092D01*
X135942893Y-74280616D01*
X136031913Y-74270588D01*
X136031913Y-74270587D01*
X136031921Y-74270587D01*
X136306281Y-74207968D01*
X136571905Y-74115025D01*
X136825452Y-73992925D01*
X137063734Y-73843204D01*
X137283754Y-73667744D01*
X137346923Y-73604575D01*
X137346953Y-73604558D01*
X137383255Y-73568255D01*
X137383256Y-73568256D01*
X137482752Y-73468760D01*
X137658212Y-73248740D01*
X137807933Y-73010457D01*
X137930034Y-72756909D01*
X138022978Y-72491284D01*
X138085596Y-72216923D01*
X138117102Y-71937275D01*
X138117100Y-71796567D01*
X138117100Y-71761735D01*
X138117100Y-69629499D01*
X138136785Y-69562460D01*
X138189589Y-69516705D01*
X138241100Y-69505499D01*
X138304363Y-69505499D01*
X138421753Y-69490046D01*
X138421757Y-69490044D01*
X138421762Y-69490044D01*
X138567841Y-69429536D01*
X138693282Y-69333282D01*
X138789536Y-69207841D01*
X138850044Y-69061762D01*
X138865500Y-68944361D01*
X138865499Y-67590640D01*
X138865498Y-67590636D01*
X138861465Y-67560000D01*
X138859133Y-67542283D01*
X138869899Y-67473250D01*
X138916279Y-67420994D01*
X138982072Y-67402100D01*
X139646000Y-67402100D01*
X139713039Y-67421785D01*
X139758794Y-67474589D01*
X139770000Y-67526100D01*
X139770000Y-79876000D01*
X139750315Y-79943039D01*
X139697511Y-79988794D01*
X139646000Y-80000000D01*
X102664000Y-80000000D01*
X102596961Y-79980315D01*
X102551206Y-79927511D01*
X102540000Y-79876000D01*
X102540000Y-79145396D01*
X102559685Y-79078357D01*
X102565037Y-79070681D01*
X102623778Y-78992896D01*
X102722824Y-78793984D01*
X102783634Y-78580260D01*
X102804137Y-78359000D01*
X102790784Y-78214905D01*
X102783634Y-78137740D01*
X102783633Y-78137738D01*
X102757553Y-78046078D01*
X102722824Y-77924016D01*
X102693390Y-77864905D01*
X102623781Y-77725110D01*
X102623777Y-77725103D01*
X102565045Y-77647329D01*
X102551939Y-77612635D01*
X110561000Y-77612635D01*
X110561000Y-79105370D01*
X110561001Y-79105376D01*
X110567408Y-79164983D01*
X110617702Y-79299828D01*
X110617706Y-79299835D01*
X110703952Y-79415044D01*
X110703955Y-79415047D01*
X110819164Y-79501293D01*
X110819171Y-79501297D01*
X110954017Y-79551591D01*
X110954016Y-79551591D01*
X110960944Y-79552335D01*
X111013627Y-79558000D01*
X112506372Y-79557999D01*
X112565983Y-79551591D01*
X112700831Y-79501296D01*
X112816046Y-79415046D01*
X112902296Y-79299831D01*
X112952591Y-79164983D01*
X112959000Y-79105373D01*
X112958999Y-77999999D01*
X115624785Y-77999999D01*
X115624785Y-78000000D01*
X115643602Y-78203082D01*
X115699417Y-78399247D01*
X115699422Y-78399260D01*
X115790327Y-78581821D01*
X115913237Y-78744581D01*
X116063958Y-78881980D01*
X116063960Y-78881982D01*
X116158962Y-78940804D01*
X116237363Y-78989348D01*
X116427544Y-79063024D01*
X116628024Y-79100500D01*
X116628026Y-79100500D01*
X116831974Y-79100500D01*
X116831976Y-79100500D01*
X117032456Y-79063024D01*
X117222637Y-78989348D01*
X117396041Y-78881981D01*
X117546764Y-78744579D01*
X117669673Y-78581821D01*
X117760582Y-78399250D01*
X117781084Y-78327192D01*
X117818360Y-78268104D01*
X117881670Y-78238546D01*
X117950909Y-78247907D01*
X118004096Y-78293217D01*
X118018279Y-78322812D01*
X118050591Y-78422256D01*
X118129195Y-78576524D01*
X118230967Y-78716602D01*
X118353397Y-78839032D01*
X118493475Y-78940804D01*
X118647742Y-79019408D01*
X118812415Y-79072914D01*
X118983429Y-79100000D01*
X119020000Y-79100000D01*
X119520000Y-79100000D01*
X119556571Y-79100000D01*
X119727584Y-79072914D01*
X119892257Y-79019408D01*
X120046524Y-78940804D01*
X120186602Y-78839032D01*
X120309032Y-78716602D01*
X120410804Y-78576524D01*
X120489408Y-78422255D01*
X120542914Y-78257584D01*
X120544115Y-78250000D01*
X119520000Y-78250000D01*
X119520000Y-79100000D01*
X119020000Y-79100000D01*
X119020000Y-78244975D01*
X119055095Y-78280070D01*
X119134905Y-78326148D01*
X119223922Y-78350000D01*
X119316078Y-78350000D01*
X119405095Y-78326148D01*
X119484905Y-78280070D01*
X119550070Y-78214905D01*
X119596148Y-78135095D01*
X119620000Y-78046078D01*
X119620000Y-77953922D01*
X119596148Y-77864905D01*
X119550070Y-77785095D01*
X119514975Y-77750000D01*
X119520000Y-77750000D01*
X120544115Y-77750000D01*
X120544115Y-77749999D01*
X120542914Y-77742415D01*
X120489408Y-77577744D01*
X120410804Y-77423475D01*
X120309032Y-77283397D01*
X120186602Y-77160967D01*
X120046524Y-77059195D01*
X119892257Y-76980591D01*
X119727584Y-76927085D01*
X119556571Y-76900000D01*
X119520000Y-76900000D01*
X119520000Y-77750000D01*
X119514975Y-77750000D01*
X119484905Y-77719930D01*
X119405095Y-77673852D01*
X119316078Y-77650000D01*
X119223922Y-77650000D01*
X119134905Y-77673852D01*
X119055095Y-77719930D01*
X119020000Y-77755025D01*
X119020000Y-77179666D01*
X119030429Y-77135341D01*
X119028510Y-77134598D01*
X119030578Y-77129257D01*
X119030582Y-77129250D01*
X119086397Y-76933083D01*
X119105215Y-76730000D01*
X119086397Y-76526917D01*
X119030582Y-76330750D01*
X118939673Y-76148179D01*
X118816764Y-75985421D01*
X118816762Y-75985418D01*
X118666041Y-75848019D01*
X118666039Y-75848017D01*
X118492642Y-75740655D01*
X118492635Y-75740651D01*
X118397546Y-75703814D01*
X118302456Y-75666976D01*
X118101976Y-75629500D01*
X117898024Y-75629500D01*
X117697544Y-75666976D01*
X117697541Y-75666976D01*
X117697541Y-75666977D01*
X117507364Y-75740651D01*
X117507357Y-75740655D01*
X117333960Y-75848017D01*
X117333958Y-75848019D01*
X117183237Y-75985418D01*
X117060327Y-76148178D01*
X116969422Y-76330739D01*
X116969417Y-76330752D01*
X116913602Y-76526917D01*
X116894785Y-76729999D01*
X116894785Y-76730000D01*
X116897941Y-76764059D01*
X116884526Y-76832628D01*
X116836169Y-76883060D01*
X116774470Y-76899500D01*
X116628024Y-76899500D01*
X116427544Y-76936976D01*
X116427541Y-76936976D01*
X116427541Y-76936977D01*
X116237364Y-77010651D01*
X116237357Y-77010655D01*
X116063960Y-77118017D01*
X116063958Y-77118019D01*
X115913237Y-77255418D01*
X115790327Y-77418178D01*
X115699422Y-77600739D01*
X115699417Y-77600752D01*
X115643602Y-77796917D01*
X115624785Y-77999999D01*
X112958999Y-77999999D01*
X112958999Y-77612628D01*
X112952591Y-77553017D01*
X112902299Y-77418178D01*
X112902297Y-77418171D01*
X112902293Y-77418164D01*
X112816047Y-77302955D01*
X112816044Y-77302952D01*
X112700835Y-77216706D01*
X112700828Y-77216702D01*
X112565982Y-77166408D01*
X112565983Y-77166408D01*
X112506383Y-77160001D01*
X112506381Y-77160000D01*
X112506373Y-77160000D01*
X112506364Y-77160000D01*
X111013629Y-77160000D01*
X111013623Y-77160001D01*
X110954016Y-77166408D01*
X110819171Y-77216702D01*
X110819164Y-77216706D01*
X110703955Y-77302952D01*
X110703952Y-77302955D01*
X110617706Y-77418164D01*
X110617702Y-77418171D01*
X110567408Y-77553017D01*
X110561069Y-77611981D01*
X110561001Y-77612623D01*
X110561000Y-77612635D01*
X102551939Y-77612635D01*
X102540354Y-77581968D01*
X102540000Y-77572603D01*
X102540000Y-67999997D01*
X102840726Y-67999997D01*
X102840726Y-68000002D01*
X102859761Y-68168951D01*
X102915919Y-68329439D01*
X102927893Y-68348495D01*
X103006376Y-68473400D01*
X103126600Y-68593624D01*
X103270563Y-68684082D01*
X103361546Y-68715918D01*
X103431048Y-68740238D01*
X103599997Y-68759274D01*
X103600000Y-68759274D01*
X103600003Y-68759274D01*
X103701372Y-68747851D01*
X103768954Y-68740237D01*
X103793543Y-68731632D01*
X103863320Y-68728069D01*
X103923949Y-68762795D01*
X103956178Y-68824788D01*
X103958500Y-68848672D01*
X103958500Y-68944362D01*
X103973953Y-69061753D01*
X103973956Y-69061761D01*
X103973956Y-69061762D01*
X104034464Y-69207841D01*
X104130718Y-69333282D01*
X104256159Y-69429536D01*
X104402238Y-69490044D01*
X104519639Y-69505500D01*
X104798360Y-69505499D01*
X104850307Y-69498660D01*
X104919339Y-69509425D01*
X104971595Y-69555805D01*
X104990481Y-69623074D01*
X104970001Y-69689874D01*
X104963761Y-69698504D01*
X104961030Y-69701957D01*
X104872001Y-69846294D01*
X104871996Y-69846305D01*
X104818651Y-70007290D01*
X104808500Y-70106647D01*
X104808500Y-70703337D01*
X104808501Y-70703355D01*
X104818650Y-70802707D01*
X104818651Y-70802710D01*
X104871996Y-70963694D01*
X104872001Y-70963705D01*
X104961029Y-71108040D01*
X104961032Y-71108044D01*
X104970307Y-71117319D01*
X105003792Y-71178642D01*
X104998808Y-71248334D01*
X104970307Y-71292681D01*
X104961032Y-71301955D01*
X104961029Y-71301959D01*
X104872001Y-71446294D01*
X104871996Y-71446305D01*
X104818651Y-71607290D01*
X104808500Y-71706647D01*
X104808500Y-72303337D01*
X104808501Y-72303355D01*
X104818650Y-72402707D01*
X104818651Y-72402710D01*
X104871996Y-72563694D01*
X104872001Y-72563705D01*
X104961029Y-72708040D01*
X104961032Y-72708044D01*
X105080955Y-72827967D01*
X105080959Y-72827970D01*
X105225294Y-72916998D01*
X105225297Y-72916999D01*
X105225303Y-72917003D01*
X105386292Y-72970349D01*
X105485655Y-72980500D01*
X106032344Y-72980499D01*
X106032352Y-72980498D01*
X106032355Y-72980498D01*
X106086760Y-72974940D01*
X106131708Y-72970349D01*
X106292697Y-72917003D01*
X106437044Y-72827968D01*
X106446319Y-72818693D01*
X106507642Y-72785208D01*
X106577334Y-72790192D01*
X106621681Y-72818693D01*
X106630955Y-72827967D01*
X106630959Y-72827970D01*
X106775294Y-72916998D01*
X106775297Y-72916999D01*
X106775303Y-72917003D01*
X106936292Y-72970349D01*
X107035655Y-72980500D01*
X107582344Y-72980499D01*
X107582352Y-72980498D01*
X107582355Y-72980498D01*
X107636760Y-72974940D01*
X107681708Y-72970349D01*
X107842697Y-72917003D01*
X107987044Y-72827968D01*
X108060191Y-72754820D01*
X108121510Y-72721338D01*
X108188821Y-72725461D01*
X108231046Y-72740237D01*
X108231049Y-72740237D01*
X108231051Y-72740238D01*
X108399997Y-72759274D01*
X108400000Y-72759274D01*
X108400003Y-72759274D01*
X108568951Y-72740238D01*
X108589533Y-72733036D01*
X108729437Y-72684082D01*
X108873400Y-72593624D01*
X108993624Y-72473400D01*
X109084082Y-72329437D01*
X109140237Y-72168954D01*
X109140237Y-72168953D01*
X109140238Y-72168951D01*
X109159274Y-72000002D01*
X109159274Y-71999997D01*
X109140238Y-71831048D01*
X109099691Y-71715172D01*
X109084082Y-71670563D01*
X108993624Y-71526600D01*
X108873400Y-71406376D01*
X108729437Y-71315918D01*
X108689533Y-71301955D01*
X108568951Y-71259761D01*
X108400003Y-71240726D01*
X108399996Y-71240726D01*
X108250302Y-71257592D01*
X108181480Y-71245537D01*
X108130101Y-71198188D01*
X108112477Y-71130578D01*
X108130880Y-71069276D01*
X108196003Y-70963697D01*
X108249349Y-70802708D01*
X108259500Y-70703345D01*
X108259499Y-70395958D01*
X108279183Y-70328921D01*
X108331987Y-70283166D01*
X108401146Y-70273222D01*
X108402419Y-70273803D01*
X108402769Y-70273757D01*
X108419468Y-70281589D01*
X108464701Y-70302247D01*
X108465910Y-70303372D01*
X108466026Y-70303427D01*
X108471555Y-70308628D01*
X108485125Y-70322198D01*
X108566087Y-70384323D01*
X108641473Y-70442170D01*
X108647050Y-70446449D01*
X108647055Y-70446452D01*
X108647063Y-70446457D01*
X108823794Y-70548496D01*
X108823800Y-70548499D01*
X108823807Y-70548503D01*
X109012372Y-70626615D01*
X109209519Y-70679447D01*
X109411875Y-70706096D01*
X109424666Y-70706096D01*
X109424716Y-70706100D01*
X109513927Y-70706100D01*
X109587035Y-70706103D01*
X109587039Y-70706101D01*
X109594610Y-70706102D01*
X109594659Y-70706100D01*
X111180500Y-70706100D01*
X111247539Y-70725785D01*
X111293294Y-70778589D01*
X111304500Y-70830100D01*
X111304500Y-71451613D01*
X111310913Y-71522192D01*
X111310913Y-71522194D01*
X111310914Y-71522196D01*
X111361522Y-71684606D01*
X111395769Y-71741258D01*
X111449530Y-71830188D01*
X111569811Y-71950469D01*
X111569813Y-71950470D01*
X111569815Y-71950472D01*
X111715394Y-72038478D01*
X111877804Y-72089086D01*
X111948384Y-72095500D01*
X111948387Y-72095500D01*
X112461613Y-72095500D01*
X112461616Y-72095500D01*
X112532196Y-72089086D01*
X112694606Y-72038478D01*
X112840185Y-71950472D01*
X112853382Y-71937275D01*
X112942319Y-71848339D01*
X113003642Y-71814854D01*
X113073334Y-71819838D01*
X113117681Y-71848339D01*
X113219811Y-71950469D01*
X113219813Y-71950470D01*
X113219815Y-71950472D01*
X113365394Y-72038478D01*
X113527804Y-72089086D01*
X113598384Y-72095500D01*
X113598387Y-72095500D01*
X114111613Y-72095500D01*
X114111616Y-72095500D01*
X114182196Y-72089086D01*
X114344606Y-72038478D01*
X114490185Y-71950472D01*
X114610472Y-71830185D01*
X114639632Y-71781949D01*
X114691160Y-71734762D01*
X114745748Y-71722100D01*
X115551655Y-71722100D01*
X115618694Y-71741785D01*
X115664038Y-71793698D01*
X115665965Y-71797830D01*
X115801505Y-71991401D01*
X115968599Y-72158495D01*
X116052037Y-72216919D01*
X116162165Y-72294032D01*
X116162167Y-72294033D01*
X116162170Y-72294035D01*
X116376337Y-72393903D01*
X116376343Y-72393904D01*
X116376344Y-72393905D01*
X116431285Y-72408626D01*
X116604592Y-72455063D01*
X116775319Y-72470000D01*
X116839999Y-72475659D01*
X116840000Y-72475659D01*
X116840001Y-72475659D01*
X116904681Y-72470000D01*
X117075408Y-72455063D01*
X117303663Y-72393903D01*
X117517830Y-72294035D01*
X117711401Y-72158495D01*
X117833717Y-72036178D01*
X117895036Y-72002696D01*
X117964728Y-72007680D01*
X118020662Y-72049551D01*
X118037577Y-72080528D01*
X118086646Y-72212088D01*
X118086649Y-72212093D01*
X118172809Y-72327187D01*
X118172812Y-72327190D01*
X118287906Y-72413350D01*
X118287913Y-72413354D01*
X118422620Y-72463596D01*
X118422627Y-72463598D01*
X118482155Y-72469999D01*
X118482172Y-72470000D01*
X119130000Y-72470000D01*
X119130000Y-71553012D01*
X119187007Y-71585925D01*
X119314174Y-71620000D01*
X119445826Y-71620000D01*
X119572993Y-71585925D01*
X119630000Y-71553012D01*
X119630000Y-72470000D01*
X120277828Y-72470000D01*
X120277844Y-72469999D01*
X120337372Y-72463598D01*
X120337379Y-72463596D01*
X120472086Y-72413354D01*
X120472093Y-72413350D01*
X120587187Y-72327190D01*
X120587190Y-72327187D01*
X120673350Y-72212093D01*
X120673354Y-72212086D01*
X120723596Y-72077379D01*
X120723598Y-72077372D01*
X120729999Y-72017844D01*
X120730000Y-72017827D01*
X120730000Y-71370000D01*
X119813012Y-71370000D01*
X119845925Y-71312993D01*
X119880000Y-71185826D01*
X119880000Y-71054174D01*
X119845925Y-70927007D01*
X119813012Y-70870000D01*
X120730000Y-70870000D01*
X120730000Y-70222172D01*
X120729999Y-70222155D01*
X120723598Y-70162627D01*
X120723596Y-70162620D01*
X120673354Y-70027913D01*
X120673350Y-70027906D01*
X120587190Y-69912812D01*
X120587187Y-69912809D01*
X120472093Y-69826649D01*
X120472086Y-69826645D01*
X120337379Y-69776403D01*
X120337372Y-69776401D01*
X120277844Y-69770000D01*
X119630000Y-69770000D01*
X119630000Y-70686988D01*
X119572993Y-70654075D01*
X119445826Y-70620000D01*
X119314174Y-70620000D01*
X119187007Y-70654075D01*
X119130000Y-70686988D01*
X119130000Y-69770000D01*
X118482155Y-69770000D01*
X118422627Y-69776401D01*
X118422620Y-69776403D01*
X118287913Y-69826645D01*
X118287906Y-69826649D01*
X118172812Y-69912809D01*
X118172809Y-69912812D01*
X118086649Y-70027906D01*
X118086645Y-70027913D01*
X118037578Y-70159470D01*
X117995707Y-70215404D01*
X117930242Y-70239821D01*
X117861969Y-70224969D01*
X117833715Y-70203819D01*
X117774396Y-70144500D01*
X117711401Y-70081505D01*
X117711397Y-70081502D01*
X117711396Y-70081501D01*
X117517834Y-69945967D01*
X117517830Y-69945965D01*
X117446727Y-69912809D01*
X117303663Y-69846097D01*
X117303659Y-69846096D01*
X117303655Y-69846094D01*
X117075413Y-69784938D01*
X117075403Y-69784936D01*
X116840001Y-69764341D01*
X116839999Y-69764341D01*
X116604596Y-69784936D01*
X116604586Y-69784938D01*
X116376344Y-69846094D01*
X116376335Y-69846098D01*
X116162171Y-69945964D01*
X116162169Y-69945965D01*
X115968597Y-70081505D01*
X115801506Y-70248596D01*
X115665965Y-70442170D01*
X115665964Y-70442173D01*
X115664040Y-70446300D01*
X115617870Y-70498741D01*
X115551656Y-70517900D01*
X114745748Y-70517900D01*
X114678709Y-70498215D01*
X114639632Y-70458051D01*
X114610471Y-70409814D01*
X114610468Y-70409810D01*
X114490188Y-70289530D01*
X114464096Y-70273757D01*
X114344606Y-70201522D01*
X114182196Y-70150914D01*
X114182194Y-70150913D01*
X114182192Y-70150913D01*
X114132778Y-70146423D01*
X114111616Y-70144500D01*
X114111613Y-70144500D01*
X113922560Y-70144500D01*
X113855521Y-70124815D01*
X113834878Y-70108180D01*
X113781193Y-70054494D01*
X113781101Y-70054413D01*
X113759564Y-70032876D01*
X113712794Y-69995579D01*
X113575405Y-69886014D01*
X113375960Y-69760693D01*
X113163738Y-69658491D01*
X113163731Y-69658488D01*
X112941408Y-69580693D01*
X112941399Y-69580691D01*
X112711764Y-69528277D01*
X112711754Y-69528275D01*
X112477700Y-69501902D01*
X112477698Y-69501901D01*
X112445315Y-69501901D01*
X112445293Y-69501900D01*
X112439183Y-69501900D01*
X112359921Y-69501900D01*
X112286813Y-69501899D01*
X112286812Y-69501899D01*
X112279218Y-69501899D01*
X112279202Y-69501900D01*
X111081569Y-69501900D01*
X111014530Y-69482215D01*
X110968775Y-69429411D01*
X110958349Y-69391784D01*
X110940238Y-69231048D01*
X110926756Y-69192521D01*
X110884082Y-69070563D01*
X110793624Y-68926600D01*
X110673400Y-68806376D01*
X110568142Y-68740238D01*
X110529439Y-68715919D01*
X110529438Y-68715918D01*
X110529437Y-68715918D01*
X110457688Y-68690812D01*
X110368951Y-68659761D01*
X110200003Y-68640726D01*
X110199996Y-68640726D01*
X110047382Y-68657921D01*
X109978560Y-68645866D01*
X109927181Y-68598517D01*
X109909499Y-68534701D01*
X109909499Y-67590636D01*
X109894046Y-67473246D01*
X109894044Y-67473241D01*
X109894044Y-67473238D01*
X109833536Y-67327159D01*
X109737282Y-67201718D01*
X109611841Y-67105464D01*
X109609144Y-67104347D01*
X109465762Y-67044956D01*
X109465760Y-67044955D01*
X109348361Y-67029500D01*
X109069636Y-67029500D01*
X108952246Y-67044953D01*
X108952234Y-67044957D01*
X108931450Y-67053566D01*
X108861981Y-67061033D01*
X108836550Y-67053566D01*
X108815765Y-67044957D01*
X108815760Y-67044955D01*
X108698361Y-67029500D01*
X108419636Y-67029500D01*
X108302241Y-67044954D01*
X108302239Y-67044955D01*
X108280796Y-67053837D01*
X108211327Y-67061304D01*
X108185895Y-67053837D01*
X108165631Y-67045444D01*
X108109000Y-67037987D01*
X108109000Y-67080499D01*
X108089315Y-67147538D01*
X108060489Y-67178873D01*
X108030719Y-67201716D01*
X108030716Y-67201720D01*
X108007374Y-67232140D01*
X107950948Y-67273341D01*
X107881202Y-67277496D01*
X107820281Y-67243283D01*
X107810630Y-67232146D01*
X107787282Y-67201718D01*
X107787280Y-67201717D01*
X107787280Y-67201716D01*
X107757511Y-67178873D01*
X107716310Y-67122444D01*
X107709000Y-67080499D01*
X107709000Y-67037987D01*
X107652370Y-67045443D01*
X107632103Y-67053838D01*
X107562633Y-67061304D01*
X107537203Y-67053837D01*
X107515762Y-67044956D01*
X107515760Y-67044955D01*
X107398361Y-67029500D01*
X107119636Y-67029500D01*
X107002246Y-67044953D01*
X107002234Y-67044957D01*
X106981450Y-67053566D01*
X106911981Y-67061033D01*
X106886550Y-67053566D01*
X106865765Y-67044957D01*
X106865760Y-67044955D01*
X106748361Y-67029500D01*
X106469636Y-67029500D01*
X106352241Y-67044954D01*
X106352239Y-67044955D01*
X106330796Y-67053837D01*
X106261327Y-67061304D01*
X106235895Y-67053837D01*
X106215631Y-67045444D01*
X106158999Y-67037987D01*
X106116858Y-67074945D01*
X106053476Y-67104347D01*
X105984260Y-67094815D01*
X105931185Y-67049374D01*
X105911102Y-66982453D01*
X105911100Y-66981716D01*
X105911100Y-66980299D01*
X105911697Y-66968146D01*
X105913822Y-66946572D01*
X105922140Y-66862103D01*
X105926882Y-66838266D01*
X105940334Y-66793918D01*
X105956035Y-66742154D01*
X105965331Y-66719710D01*
X106012681Y-66631124D01*
X106026182Y-66610920D01*
X106035296Y-66599815D01*
X106089873Y-66533311D01*
X106107056Y-66516128D01*
X106184729Y-66452384D01*
X106204928Y-66438888D01*
X106293509Y-66391541D01*
X106315956Y-66382243D01*
X106412077Y-66353086D01*
X106435903Y-66348347D01*
X106542030Y-66337896D01*
X106554177Y-66337300D01*
X106621117Y-66337301D01*
X106621121Y-66337300D01*
X111163153Y-66337300D01*
X111170108Y-66337495D01*
X111393270Y-66350031D01*
X111407081Y-66351588D01*
X111413126Y-66352615D01*
X111418905Y-66353597D01*
X111481700Y-66384233D01*
X111517963Y-66443955D01*
X111516182Y-66513802D01*
X111485816Y-66563525D01*
X111449531Y-66599809D01*
X111449530Y-66599811D01*
X111361522Y-66745393D01*
X111310913Y-66907807D01*
X111307391Y-66946572D01*
X111304880Y-66974209D01*
X111304500Y-66978386D01*
X111304500Y-67641613D01*
X111310913Y-67712192D01*
X111310913Y-67712194D01*
X111310914Y-67712196D01*
X111361522Y-67874606D01*
X111395769Y-67931258D01*
X111449530Y-68020188D01*
X111569811Y-68140469D01*
X111569813Y-68140470D01*
X111569815Y-68140472D01*
X111715394Y-68228478D01*
X111877804Y-68279086D01*
X111948384Y-68285500D01*
X111948387Y-68285500D01*
X112461613Y-68285500D01*
X112461616Y-68285500D01*
X112532196Y-68279086D01*
X112694606Y-68228478D01*
X112840185Y-68140472D01*
X112840189Y-68140468D01*
X112942319Y-68038339D01*
X113003642Y-68004854D01*
X113073334Y-68009838D01*
X113117681Y-68038339D01*
X113219811Y-68140469D01*
X113219813Y-68140470D01*
X113219815Y-68140472D01*
X113365394Y-68228478D01*
X113527804Y-68279086D01*
X113598384Y-68285500D01*
X113598387Y-68285500D01*
X114111613Y-68285500D01*
X114111616Y-68285500D01*
X114182196Y-68279086D01*
X114344606Y-68228478D01*
X114490185Y-68140472D01*
X114610472Y-68020185D01*
X114639632Y-67971949D01*
X114691160Y-67924762D01*
X114745748Y-67912100D01*
X115551655Y-67912100D01*
X115618694Y-67931785D01*
X115664038Y-67983698D01*
X115665965Y-67987830D01*
X115801505Y-68181401D01*
X115968599Y-68348495D01*
X116045135Y-68402086D01*
X116162165Y-68484032D01*
X116162167Y-68484033D01*
X116162170Y-68484035D01*
X116376337Y-68583903D01*
X116604592Y-68645063D01*
X116775319Y-68660000D01*
X116839999Y-68665659D01*
X116840000Y-68665659D01*
X116840001Y-68665659D01*
X116904681Y-68660000D01*
X117075408Y-68645063D01*
X117303663Y-68583903D01*
X117517830Y-68484035D01*
X117711401Y-68348495D01*
X117833717Y-68226178D01*
X117895036Y-68192696D01*
X117964728Y-68197680D01*
X118020662Y-68239551D01*
X118037577Y-68270528D01*
X118086646Y-68402088D01*
X118086649Y-68402093D01*
X118172809Y-68517187D01*
X118172812Y-68517190D01*
X118287906Y-68603350D01*
X118287913Y-68603354D01*
X118422620Y-68653596D01*
X118422627Y-68653598D01*
X118482155Y-68659999D01*
X118482172Y-68660000D01*
X119130000Y-68660000D01*
X119130000Y-67743012D01*
X119187007Y-67775925D01*
X119314174Y-67810000D01*
X119445826Y-67810000D01*
X119572993Y-67775925D01*
X119630000Y-67743012D01*
X119630000Y-68660000D01*
X120277828Y-68660000D01*
X120277844Y-68659999D01*
X120337372Y-68653598D01*
X120337379Y-68653596D01*
X120472086Y-68603354D01*
X120472093Y-68603350D01*
X120587187Y-68517190D01*
X120587190Y-68517187D01*
X120673350Y-68402093D01*
X120673354Y-68402086D01*
X120723596Y-68267379D01*
X120723598Y-68267372D01*
X120729999Y-68207844D01*
X120730000Y-68207827D01*
X120730000Y-67560000D01*
X119813012Y-67560000D01*
X119845925Y-67502993D01*
X119880000Y-67375826D01*
X119880000Y-67244174D01*
X119845925Y-67117007D01*
X119813012Y-67060000D01*
X120730000Y-67060000D01*
X120730000Y-66412172D01*
X120729999Y-66412155D01*
X120723598Y-66352627D01*
X120723596Y-66352620D01*
X120673354Y-66217913D01*
X120673350Y-66217906D01*
X120587190Y-66102812D01*
X120587187Y-66102809D01*
X120472093Y-66016649D01*
X120472086Y-66016645D01*
X120337379Y-65966403D01*
X120337372Y-65966401D01*
X120277844Y-65960000D01*
X119630000Y-65960000D01*
X119630000Y-66876988D01*
X119572993Y-66844075D01*
X119445826Y-66810000D01*
X119314174Y-66810000D01*
X119187007Y-66844075D01*
X119130000Y-66876988D01*
X119130000Y-65960000D01*
X118482155Y-65960000D01*
X118422627Y-65966401D01*
X118422620Y-65966403D01*
X118287913Y-66016645D01*
X118287906Y-66016649D01*
X118172812Y-66102809D01*
X118172809Y-66102812D01*
X118086649Y-66217906D01*
X118086645Y-66217913D01*
X118037578Y-66349470D01*
X117995707Y-66405404D01*
X117930242Y-66429821D01*
X117861969Y-66414969D01*
X117833715Y-66393819D01*
X117773884Y-66333988D01*
X117711401Y-66271505D01*
X117711397Y-66271502D01*
X117711396Y-66271501D01*
X117517834Y-66135967D01*
X117517830Y-66135965D01*
X117446727Y-66102809D01*
X117303663Y-66036097D01*
X117303659Y-66036096D01*
X117303655Y-66036094D01*
X117075413Y-65974938D01*
X117075403Y-65974936D01*
X116840001Y-65954341D01*
X116839999Y-65954341D01*
X116604596Y-65974936D01*
X116604586Y-65974938D01*
X116376344Y-66036094D01*
X116376335Y-66036098D01*
X116162171Y-66135964D01*
X116162169Y-66135965D01*
X115968597Y-66271505D01*
X115801506Y-66438596D01*
X115665965Y-66632170D01*
X115665964Y-66632173D01*
X115664040Y-66636300D01*
X115617870Y-66688741D01*
X115551656Y-66707900D01*
X114745748Y-66707900D01*
X114678709Y-66688215D01*
X114639632Y-66648051D01*
X114622891Y-66620359D01*
X114610472Y-66599815D01*
X114610471Y-66599814D01*
X114610468Y-66599810D01*
X114490188Y-66479530D01*
X114422475Y-66438596D01*
X114344606Y-66391522D01*
X114182196Y-66340914D01*
X114182194Y-66340913D01*
X114182192Y-66340913D01*
X114132778Y-66336423D01*
X114111616Y-66334500D01*
X114111613Y-66334500D01*
X113782360Y-66334500D01*
X113715321Y-66314815D01*
X113694679Y-66298181D01*
X113431824Y-66035326D01*
X113431287Y-66034854D01*
X113379031Y-65982597D01*
X113379015Y-65982582D01*
X113129128Y-65777494D01*
X112860312Y-65597867D01*
X112860308Y-65597865D01*
X112702654Y-65513592D01*
X112652811Y-65464628D01*
X112637352Y-65396490D01*
X112661186Y-65330811D01*
X112702659Y-65294876D01*
X112713151Y-65289269D01*
X112996133Y-65100186D01*
X113259220Y-64884277D01*
X113379549Y-64763949D01*
X113431244Y-64712254D01*
X113431244Y-64712253D01*
X113631680Y-64511816D01*
X113693003Y-64478334D01*
X113719360Y-64475500D01*
X114111613Y-64475500D01*
X114111616Y-64475500D01*
X114182196Y-64469086D01*
X114344606Y-64418478D01*
X114490185Y-64330472D01*
X114610472Y-64210185D01*
X114635397Y-64168952D01*
X114639632Y-64161949D01*
X114691160Y-64114762D01*
X114745748Y-64102100D01*
X115551655Y-64102100D01*
X115618694Y-64121785D01*
X115664038Y-64173698D01*
X115665965Y-64177830D01*
X115801505Y-64371401D01*
X115968599Y-64538495D01*
X116041156Y-64589300D01*
X116162165Y-64674032D01*
X116162167Y-64674033D01*
X116162170Y-64674035D01*
X116376337Y-64773903D01*
X116376343Y-64773904D01*
X116376344Y-64773905D01*
X116431285Y-64788626D01*
X116604592Y-64835063D01*
X116775319Y-64850000D01*
X116839999Y-64855659D01*
X116840000Y-64855659D01*
X116840001Y-64855659D01*
X116904681Y-64850000D01*
X117075408Y-64835063D01*
X117303663Y-64773903D01*
X117517830Y-64674035D01*
X117711401Y-64538495D01*
X117833717Y-64416178D01*
X117895036Y-64382696D01*
X117964728Y-64387680D01*
X118020662Y-64429551D01*
X118037577Y-64460528D01*
X118086646Y-64592088D01*
X118086649Y-64592093D01*
X118172809Y-64707187D01*
X118172812Y-64707190D01*
X118287906Y-64793350D01*
X118287913Y-64793354D01*
X118422620Y-64843596D01*
X118422627Y-64843598D01*
X118482155Y-64849999D01*
X118482172Y-64850000D01*
X119130000Y-64850000D01*
X119130000Y-63933012D01*
X119187007Y-63965925D01*
X119314174Y-64000000D01*
X119445826Y-64000000D01*
X119572993Y-63965925D01*
X119630000Y-63933012D01*
X119630000Y-64850000D01*
X120277828Y-64850000D01*
X120277844Y-64849999D01*
X120337372Y-64843598D01*
X120337379Y-64843596D01*
X120472086Y-64793354D01*
X120472093Y-64793350D01*
X120587187Y-64707190D01*
X120587190Y-64707187D01*
X120673350Y-64592093D01*
X120673354Y-64592086D01*
X120723596Y-64457379D01*
X120723598Y-64457372D01*
X120729999Y-64397844D01*
X120730000Y-64397827D01*
X120730000Y-63750000D01*
X119813012Y-63750000D01*
X119845925Y-63692993D01*
X119880000Y-63565826D01*
X119880000Y-63434174D01*
X119845925Y-63307007D01*
X119813012Y-63250000D01*
X120730000Y-63250000D01*
X120730000Y-62602172D01*
X120729999Y-62602155D01*
X120723598Y-62542627D01*
X120723596Y-62542620D01*
X120673354Y-62407913D01*
X120673350Y-62407906D01*
X120587190Y-62292812D01*
X120587187Y-62292809D01*
X120472093Y-62206649D01*
X120472086Y-62206645D01*
X120337379Y-62156403D01*
X120337372Y-62156401D01*
X120277844Y-62150000D01*
X119630000Y-62150000D01*
X119630000Y-63066988D01*
X119572993Y-63034075D01*
X119445826Y-63000000D01*
X119314174Y-63000000D01*
X119187007Y-63034075D01*
X119130000Y-63066988D01*
X119130000Y-62150000D01*
X118482155Y-62150000D01*
X118422627Y-62156401D01*
X118422620Y-62156403D01*
X118287913Y-62206645D01*
X118287906Y-62206649D01*
X118172812Y-62292809D01*
X118172809Y-62292812D01*
X118086649Y-62407906D01*
X118086645Y-62407913D01*
X118037578Y-62539470D01*
X117995707Y-62595404D01*
X117930242Y-62619821D01*
X117861969Y-62604969D01*
X117833715Y-62583819D01*
X117774396Y-62524500D01*
X117711401Y-62461505D01*
X117711397Y-62461502D01*
X117711396Y-62461501D01*
X117517834Y-62325967D01*
X117517830Y-62325965D01*
X117446727Y-62292809D01*
X117303663Y-62226097D01*
X117303659Y-62226096D01*
X117303655Y-62226094D01*
X117075413Y-62164938D01*
X117075403Y-62164936D01*
X116840001Y-62144341D01*
X116839999Y-62144341D01*
X116604596Y-62164936D01*
X116604586Y-62164938D01*
X116376344Y-62226094D01*
X116376335Y-62226098D01*
X116162171Y-62325964D01*
X116162169Y-62325965D01*
X115968597Y-62461505D01*
X115801506Y-62628596D01*
X115665965Y-62822170D01*
X115665964Y-62822173D01*
X115664040Y-62826300D01*
X115617870Y-62878741D01*
X115551656Y-62897900D01*
X114745748Y-62897900D01*
X114678709Y-62878215D01*
X114639632Y-62838051D01*
X114610471Y-62789814D01*
X114610468Y-62789810D01*
X114490188Y-62669530D01*
X114422475Y-62628596D01*
X114344606Y-62581522D01*
X114182196Y-62530914D01*
X114182194Y-62530913D01*
X114182192Y-62530913D01*
X114132778Y-62526423D01*
X114111616Y-62524500D01*
X113598384Y-62524500D01*
X113579145Y-62526248D01*
X113527807Y-62530913D01*
X113365393Y-62581522D01*
X113219811Y-62669530D01*
X113219810Y-62669531D01*
X113117681Y-62771661D01*
X113056358Y-62805146D01*
X112986666Y-62800162D01*
X112942319Y-62771661D01*
X112840188Y-62669530D01*
X112772475Y-62628596D01*
X112694606Y-62581522D01*
X112532196Y-62530914D01*
X112532194Y-62530913D01*
X112532192Y-62530913D01*
X112482778Y-62526423D01*
X112461616Y-62524500D01*
X111948384Y-62524500D01*
X111929145Y-62526248D01*
X111877807Y-62530913D01*
X111715393Y-62581522D01*
X111569811Y-62669530D01*
X111449530Y-62789811D01*
X111361522Y-62935393D01*
X111310913Y-63097807D01*
X111304500Y-63168386D01*
X111304500Y-63831613D01*
X111310913Y-63902192D01*
X111310913Y-63902194D01*
X111310914Y-63902196D01*
X111361522Y-64064606D01*
X111395769Y-64121258D01*
X111449530Y-64210188D01*
X111535891Y-64296549D01*
X111569376Y-64357872D01*
X111564392Y-64427564D01*
X111522520Y-64483497D01*
X111482535Y-64503385D01*
X111439719Y-64515719D01*
X111426165Y-64518812D01*
X111190075Y-64558926D01*
X111176257Y-64560483D01*
X110933713Y-64574105D01*
X110926760Y-64574300D01*
X106478240Y-64574300D01*
X106478207Y-64574298D01*
X106470623Y-64574298D01*
X106463337Y-64574298D01*
X106403602Y-64574299D01*
X106391449Y-64573702D01*
X106314658Y-64566141D01*
X106290817Y-64561399D01*
X106222826Y-64540776D01*
X106200367Y-64531474D01*
X106137713Y-64497986D01*
X106117499Y-64484480D01*
X106062641Y-64439459D01*
X106045452Y-64422270D01*
X106000333Y-64367292D01*
X105986829Y-64347081D01*
X105953339Y-64284425D01*
X105944036Y-64261965D01*
X105923415Y-64193981D01*
X105918673Y-64170139D01*
X105913808Y-64120732D01*
X105911096Y-64093193D01*
X105910500Y-64081042D01*
X105910502Y-64014176D01*
X105910500Y-64014171D01*
X105910501Y-64007412D01*
X105910500Y-64007374D01*
X105910500Y-63729116D01*
X105930185Y-63662077D01*
X105982989Y-63616322D01*
X106052147Y-63606378D01*
X106109903Y-63630676D01*
X106110405Y-63631061D01*
X106151654Y-63687454D01*
X106159000Y-63729499D01*
X106159000Y-63772010D01*
X106215631Y-63764555D01*
X106235887Y-63756165D01*
X106305356Y-63748693D01*
X106330797Y-63756163D01*
X106330802Y-63756165D01*
X106352238Y-63765044D01*
X106469639Y-63780500D01*
X106748360Y-63780499D01*
X106748361Y-63780499D01*
X106760594Y-63778888D01*
X106865762Y-63765044D01*
X106886545Y-63756434D01*
X106956014Y-63748965D01*
X106981453Y-63756434D01*
X107002238Y-63765044D01*
X107119639Y-63780500D01*
X107398360Y-63780499D01*
X107398361Y-63780499D01*
X107412018Y-63778701D01*
X107515762Y-63765044D01*
X107537200Y-63756163D01*
X107606668Y-63748694D01*
X107632106Y-63756163D01*
X107652365Y-63764554D01*
X107652377Y-63764558D01*
X107708998Y-63772011D01*
X107709000Y-63772010D01*
X107709000Y-63729499D01*
X107728685Y-63662460D01*
X107757512Y-63631125D01*
X107787282Y-63608282D01*
X107810625Y-63577860D01*
X107867051Y-63536658D01*
X107936797Y-63532503D01*
X107997718Y-63566714D01*
X108007368Y-63577851D01*
X108030718Y-63608282D01*
X108060485Y-63631123D01*
X108101688Y-63687548D01*
X108109000Y-63729499D01*
X108109000Y-63772010D01*
X108165631Y-63764555D01*
X108185887Y-63756165D01*
X108255356Y-63748693D01*
X108280797Y-63756163D01*
X108280802Y-63756165D01*
X108302238Y-63765044D01*
X108419639Y-63780500D01*
X108698360Y-63780499D01*
X108698361Y-63780499D01*
X108710594Y-63778888D01*
X108815762Y-63765044D01*
X108836545Y-63756434D01*
X108906014Y-63748965D01*
X108931453Y-63756434D01*
X108952238Y-63765044D01*
X109069639Y-63780500D01*
X109348360Y-63780499D01*
X109348363Y-63780499D01*
X109465753Y-63765046D01*
X109465757Y-63765044D01*
X109465762Y-63765044D01*
X109611841Y-63704536D01*
X109737282Y-63608282D01*
X109833536Y-63482841D01*
X109894044Y-63336762D01*
X109909500Y-63219361D01*
X109909499Y-62276564D01*
X109929183Y-62209526D01*
X109981987Y-62163771D01*
X110047382Y-62153345D01*
X110089620Y-62158104D01*
X110099999Y-62159274D01*
X110100000Y-62159274D01*
X110100003Y-62159274D01*
X110268951Y-62140238D01*
X110290502Y-62132697D01*
X110429437Y-62084082D01*
X110573400Y-61993624D01*
X110693624Y-61873400D01*
X110784082Y-61729437D01*
X110840237Y-61568954D01*
X110840237Y-61568953D01*
X110840238Y-61568951D01*
X110857898Y-61412216D01*
X110884965Y-61347802D01*
X110942560Y-61308247D01*
X110981118Y-61302100D01*
X112057718Y-61302100D01*
X112057722Y-61302101D01*
X112079457Y-61302100D01*
X112079489Y-61302109D01*
X112130830Y-61302108D01*
X112130830Y-61302109D01*
X112261462Y-61302107D01*
X112261473Y-61302107D01*
X112478573Y-61277643D01*
X112521108Y-61272850D01*
X112775838Y-61214707D01*
X113022456Y-61128410D01*
X113257862Y-61015043D01*
X113479094Y-60876032D01*
X113683372Y-60713125D01*
X113694678Y-60701819D01*
X113756001Y-60668334D01*
X113782359Y-60665500D01*
X114111613Y-60665500D01*
X114111616Y-60665500D01*
X114182196Y-60659086D01*
X114344606Y-60608478D01*
X114490185Y-60520472D01*
X114610472Y-60400185D01*
X114639632Y-60351949D01*
X114691160Y-60304762D01*
X114745748Y-60292100D01*
X115551655Y-60292100D01*
X115618694Y-60311785D01*
X115664038Y-60363698D01*
X115665965Y-60367830D01*
X115801505Y-60561401D01*
X115968599Y-60728495D01*
X116010168Y-60757602D01*
X116162165Y-60864032D01*
X116162167Y-60864033D01*
X116162170Y-60864035D01*
X116376337Y-60963903D01*
X116604592Y-61025063D01*
X116775319Y-61040000D01*
X116839999Y-61045659D01*
X116840000Y-61045659D01*
X116840001Y-61045659D01*
X116904681Y-61040000D01*
X117075408Y-61025063D01*
X117303663Y-60963903D01*
X117517830Y-60864035D01*
X117711401Y-60728495D01*
X117833717Y-60606178D01*
X117895036Y-60572696D01*
X117964728Y-60577680D01*
X118020662Y-60619551D01*
X118037577Y-60650528D01*
X118086646Y-60782088D01*
X118086649Y-60782093D01*
X118172809Y-60897187D01*
X118172812Y-60897190D01*
X118287906Y-60983350D01*
X118287913Y-60983354D01*
X118422620Y-61033596D01*
X118422627Y-61033598D01*
X118482155Y-61039999D01*
X118482172Y-61040000D01*
X119130000Y-61040000D01*
X119130000Y-60123012D01*
X119187007Y-60155925D01*
X119314174Y-60190000D01*
X119445826Y-60190000D01*
X119572993Y-60155925D01*
X119630000Y-60123012D01*
X119630000Y-61040000D01*
X120277828Y-61040000D01*
X120277844Y-61039999D01*
X120337372Y-61033598D01*
X120337379Y-61033596D01*
X120472086Y-60983354D01*
X120472093Y-60983350D01*
X120587187Y-60897190D01*
X120587190Y-60897187D01*
X120673350Y-60782093D01*
X120673354Y-60782086D01*
X120723596Y-60647379D01*
X120723598Y-60647372D01*
X120729999Y-60587844D01*
X120730000Y-60587827D01*
X120730000Y-59940000D01*
X119813012Y-59940000D01*
X119845925Y-59882993D01*
X119880000Y-59755826D01*
X119880000Y-59624174D01*
X119845925Y-59497007D01*
X119813012Y-59440000D01*
X120730000Y-59440000D01*
X120730000Y-58792172D01*
X120729999Y-58792155D01*
X120723598Y-58732627D01*
X120723596Y-58732620D01*
X120673354Y-58597913D01*
X120673350Y-58597906D01*
X120587190Y-58482812D01*
X120587187Y-58482809D01*
X120472093Y-58396649D01*
X120472086Y-58396645D01*
X120337379Y-58346403D01*
X120337372Y-58346401D01*
X120277844Y-58340000D01*
X119630000Y-58340000D01*
X119630000Y-59256988D01*
X119572993Y-59224075D01*
X119445826Y-59190000D01*
X119314174Y-59190000D01*
X119187007Y-59224075D01*
X119130000Y-59256988D01*
X119130000Y-58340000D01*
X118482155Y-58340000D01*
X118422627Y-58346401D01*
X118422620Y-58346403D01*
X118287913Y-58396645D01*
X118287906Y-58396649D01*
X118172812Y-58482809D01*
X118172809Y-58482812D01*
X118086649Y-58597906D01*
X118086645Y-58597913D01*
X118037578Y-58729470D01*
X117995707Y-58785404D01*
X117930242Y-58809821D01*
X117861969Y-58794969D01*
X117833715Y-58773819D01*
X117774396Y-58714500D01*
X117711401Y-58651505D01*
X117711397Y-58651502D01*
X117711396Y-58651501D01*
X117517834Y-58515967D01*
X117517830Y-58515965D01*
X117446727Y-58482809D01*
X117303663Y-58416097D01*
X117303659Y-58416096D01*
X117303655Y-58416094D01*
X117075413Y-58354938D01*
X117075403Y-58354936D01*
X116840001Y-58334341D01*
X116839999Y-58334341D01*
X116604596Y-58354936D01*
X116604586Y-58354938D01*
X116376344Y-58416094D01*
X116376335Y-58416098D01*
X116162171Y-58515964D01*
X116162169Y-58515965D01*
X115968597Y-58651505D01*
X115801506Y-58818596D01*
X115665965Y-59012170D01*
X115665964Y-59012173D01*
X115664040Y-59016300D01*
X115617870Y-59068741D01*
X115551656Y-59087900D01*
X114745748Y-59087900D01*
X114678709Y-59068215D01*
X114639632Y-59028051D01*
X114610471Y-58979814D01*
X114610468Y-58979810D01*
X114490188Y-58859530D01*
X114422475Y-58818596D01*
X114344606Y-58771522D01*
X114182196Y-58720914D01*
X114182194Y-58720913D01*
X114182192Y-58720913D01*
X114132778Y-58716423D01*
X114111616Y-58714500D01*
X113598384Y-58714500D01*
X113579145Y-58716248D01*
X113527807Y-58720913D01*
X113365393Y-58771522D01*
X113219811Y-58859530D01*
X113219810Y-58859531D01*
X113117681Y-58961661D01*
X113056358Y-58995146D01*
X112986666Y-58990162D01*
X112942319Y-58961661D01*
X112840188Y-58859530D01*
X112772475Y-58818596D01*
X112694606Y-58771522D01*
X112532196Y-58720914D01*
X112532194Y-58720913D01*
X112532192Y-58720913D01*
X112482778Y-58716423D01*
X112461616Y-58714500D01*
X111948384Y-58714500D01*
X111929145Y-58716248D01*
X111877807Y-58720913D01*
X111715393Y-58771522D01*
X111569811Y-58859530D01*
X111449530Y-58979811D01*
X111361522Y-59125393D01*
X111310913Y-59287807D01*
X111304500Y-59358386D01*
X111304500Y-59973900D01*
X111284815Y-60040939D01*
X111232011Y-60086694D01*
X111180500Y-60097900D01*
X109865067Y-60097900D01*
X109865035Y-60097898D01*
X109835718Y-60097898D01*
X109835663Y-60097882D01*
X109664565Y-60097887D01*
X109427064Y-60129161D01*
X109427054Y-60129163D01*
X109195667Y-60191169D01*
X109195664Y-60191170D01*
X108974366Y-60282838D01*
X108974344Y-60282849D01*
X108766892Y-60402625D01*
X108576845Y-60548456D01*
X108555124Y-60570178D01*
X108492151Y-60633151D01*
X108435408Y-60689893D01*
X108435230Y-60690093D01*
X108407463Y-60717862D01*
X108407460Y-60717865D01*
X108261639Y-60907901D01*
X108261635Y-60907907D01*
X108141858Y-61115363D01*
X108141852Y-61115373D01*
X108050185Y-61336669D01*
X108019403Y-61451537D01*
X107983036Y-61511197D01*
X107920188Y-61541724D01*
X107850813Y-61533427D01*
X107801253Y-61494926D01*
X107787282Y-61476718D01*
X107764601Y-61459314D01*
X107757511Y-61453873D01*
X107716310Y-61397444D01*
X107709000Y-61355499D01*
X107709000Y-61312987D01*
X107652370Y-61320443D01*
X107632103Y-61328838D01*
X107562633Y-61336304D01*
X107537203Y-61328837D01*
X107515762Y-61319956D01*
X107487948Y-61316294D01*
X107424052Y-61288026D01*
X107385582Y-61229701D01*
X107380916Y-61179473D01*
X107388474Y-61112400D01*
X107380954Y-61045659D01*
X107369438Y-60943448D01*
X107341650Y-60864035D01*
X107313282Y-60782963D01*
X107222824Y-60639000D01*
X107102600Y-60518776D01*
X106958637Y-60428318D01*
X106920112Y-60414837D01*
X106798151Y-60372161D01*
X106629203Y-60353126D01*
X106629197Y-60353126D01*
X106460248Y-60372161D01*
X106299760Y-60428319D01*
X106155799Y-60518776D01*
X106035576Y-60638999D01*
X105945119Y-60782960D01*
X105888961Y-60943448D01*
X105869926Y-61112397D01*
X105869926Y-61112404D01*
X105876948Y-61174729D01*
X105864893Y-61243551D01*
X105817544Y-61294930D01*
X105769913Y-61311551D01*
X105702371Y-61320442D01*
X105702369Y-61320443D01*
X105682105Y-61328837D01*
X105612635Y-61336304D01*
X105587203Y-61328837D01*
X105565762Y-61319956D01*
X105565760Y-61319955D01*
X105448361Y-61304500D01*
X105169636Y-61304500D01*
X105052246Y-61319953D01*
X105052234Y-61319957D01*
X105031450Y-61328566D01*
X104961981Y-61336033D01*
X104936550Y-61328566D01*
X104915765Y-61319957D01*
X104915760Y-61319955D01*
X104798361Y-61304500D01*
X104519636Y-61304500D01*
X104402246Y-61319953D01*
X104402237Y-61319956D01*
X104256160Y-61380463D01*
X104130718Y-61476718D01*
X104034463Y-61602160D01*
X103973956Y-61748237D01*
X103972420Y-61753971D01*
X103936053Y-61813630D01*
X103873205Y-61844157D01*
X103838763Y-61845093D01*
X103800004Y-61840726D01*
X103799997Y-61840726D01*
X103631048Y-61859761D01*
X103470560Y-61915919D01*
X103326599Y-62006376D01*
X103206376Y-62126599D01*
X103115919Y-62270560D01*
X103059761Y-62431048D01*
X103040726Y-62599997D01*
X103040726Y-62600002D01*
X103059761Y-62768951D01*
X103097995Y-62878215D01*
X103115918Y-62929437D01*
X103206376Y-63073400D01*
X103326600Y-63193624D01*
X103470563Y-63284082D01*
X103592521Y-63326756D01*
X103631048Y-63340238D01*
X103799997Y-63359274D01*
X103800000Y-63359274D01*
X103800001Y-63359274D01*
X103813605Y-63357740D01*
X103882374Y-63349992D01*
X103951195Y-63362046D01*
X104002575Y-63409394D01*
X104010819Y-63425758D01*
X104034464Y-63482841D01*
X104126920Y-63603333D01*
X104130718Y-63608282D01*
X104256159Y-63704536D01*
X104402238Y-63765044D01*
X104519639Y-63780500D01*
X104582300Y-63780499D01*
X104649338Y-63800183D01*
X104695094Y-63852986D01*
X104706300Y-63904499D01*
X104706300Y-64174533D01*
X104706311Y-64174712D01*
X104706311Y-64193981D01*
X104706311Y-64198096D01*
X104718147Y-64288016D01*
X104735243Y-64417906D01*
X104792616Y-64632041D01*
X104792617Y-64632045D01*
X104792619Y-64632050D01*
X104877457Y-64836877D01*
X104988306Y-65028877D01*
X105123268Y-65204765D01*
X105146843Y-65228340D01*
X105146856Y-65228354D01*
X105149955Y-65231453D01*
X105149956Y-65231454D01*
X105165321Y-65246819D01*
X105165344Y-65246861D01*
X105201641Y-65283158D01*
X105201641Y-65283159D01*
X105249293Y-65330811D01*
X105280027Y-65361545D01*
X105324724Y-65395842D01*
X105365927Y-65452270D01*
X105370082Y-65522016D01*
X105335870Y-65582936D01*
X105331804Y-65586699D01*
X105302180Y-65616322D01*
X105302179Y-65616321D01*
X105282474Y-65636027D01*
X105282456Y-65636036D01*
X105160813Y-65757678D01*
X105013893Y-65949149D01*
X104893221Y-66158162D01*
X104800861Y-66381144D01*
X104738398Y-66614265D01*
X104738395Y-66614277D01*
X104706899Y-66853549D01*
X104706899Y-66905500D01*
X104687214Y-66972539D01*
X104634410Y-67018294D01*
X104582901Y-67029500D01*
X104519637Y-67029500D01*
X104402246Y-67044953D01*
X104402237Y-67044956D01*
X104256160Y-67105463D01*
X104214345Y-67137548D01*
X104130718Y-67201718D01*
X104130717Y-67201719D01*
X104130716Y-67201720D01*
X104073661Y-67276075D01*
X104017233Y-67317277D01*
X103947487Y-67321432D01*
X103934332Y-67317630D01*
X103768952Y-67259762D01*
X103600003Y-67240726D01*
X103599997Y-67240726D01*
X103431048Y-67259761D01*
X103270560Y-67315919D01*
X103126599Y-67406376D01*
X103006376Y-67526599D01*
X102915919Y-67670560D01*
X102859761Y-67831048D01*
X102840726Y-67999997D01*
X102540000Y-67999997D01*
X102540000Y-56394000D01*
X102559685Y-56326961D01*
X102612489Y-56281206D01*
X102664000Y-56270000D01*
X139646000Y-56270000D01*
X139713039Y-56289685D01*
G37*
%TD.AperFunction*%
%TD*%
M02*
