M48
; DRILL file {KiCad 8.0.5} date 2024-10-22T16:07:46-0400
; FORMAT={-:-/ absolute / inch / decimal}
; #@! TF.CreationDate,2024-10-22T16:07:46-04:00
; #@! TF.GenerationSoftware,Kicad,Pcbnew,8.0.5
; #@! TF.FileFunction,Plated,1,4,PTH
FMAT,2
INCH
; #@! TA.AperFunction,Plated,PTH,ViaDrill
T1C0.0100
; #@! TA.AperFunction,Plated,PTH,ComponentDrill
T2C0.0276
; #@! TA.AperFunction,Plated,PTH,ComponentDrill
T3C0.0320
; #@! TA.AperFunction,Plated,PTH,ComponentDrill
T4C0.0350
; #@! TA.AperFunction,Plated,PTH,ComponentDrill
T5C0.0394
; #@! TA.AperFunction,Plated,PTH,ComponentDrill
T6C0.0550
; #@! TA.AperFunction,Plated,PTH,ComponentDrill
T7C0.0590
; #@! TA.AperFunction,Plated,PTH,ComponentDrill
T8C0.0670
; #@! TA.AperFunction,Plated,PTH,ComponentDrill
T9C0.1260
%
G90
G05
T1
X1.9331Y-3.878
X2.3622Y-2.9813
X2.3622Y-3.0423
X2.4213Y-2.9813
X2.4213Y-3.0423
X2.4803Y-2.9813
X2.4803Y-3.0423
X2.5394Y-2.9813
X2.5394Y-3.0423
X2.874Y-3.9055
X2.874Y-4.127
X2.874Y-4.4163
X2.874Y-4.6388
X2.874Y-4.937
X2.874Y-5.1594
X2.9203Y-5.9055
X2.9222Y-5.728
X2.9222Y-5.7874
X2.9222Y-5.8465
X2.9724Y-2.4892
X2.9724Y-2.5502
X2.9813Y-5.9055
X2.9833Y-5.728
X2.9833Y-5.7874
X2.9833Y-5.8465
X2.9921Y-3.9065
X2.9921Y-4.125
X2.9921Y-4.4183
X2.9921Y-4.6368
X2.9921Y-4.939
X2.9921Y-5.1575
X3.0315Y-2.4892
X3.0315Y-2.5502
X3.0906Y-2.4892
X3.0906Y-2.5502
X3.1102Y-3.9065
X3.1102Y-4.125
X3.1102Y-4.4183
X3.1102Y-4.6368
X3.1102Y-4.94
X3.1102Y-5.1575
X3.1496Y-2.4892
X3.1496Y-2.5502
X3.2461Y-4.7736
X3.2461Y-4.8327
X3.247Y-4.685
X3.3071Y-4.7736
X3.3071Y-4.8327
X3.3081Y-4.685
X3.4734Y-2.4902
X3.4734Y-2.5492
X3.4734Y-2.6083
X3.4734Y-2.6673
X3.5344Y-2.4902
X3.5344Y-2.5492
X3.5344Y-2.6083
X3.5344Y-2.6673
X3.7008Y-2.6457
X3.7275Y-3.0801
X3.7638Y-2.685
X3.7638Y-2.7441
X3.7638Y-2.8031
X3.791Y-3.134
X3.8102Y-2.8628
X3.878Y-3.749
X3.878Y-3.81
X3.8868Y-3.5039
X3.8868Y-3.563
X3.8868Y-3.622
X3.8868Y-3.6811
X3.9272Y-5.4026
X3.9272Y-5.4636
X3.9862Y-5.4026
X3.9862Y-5.4636
X4.0719Y-5.5906
X4.0787Y-2.6772
X4.0866Y-2.4646
X4.1339Y-2.0118
X4.1637Y-2.7719
X4.1637Y-2.8348
X4.198Y-2.406
X4.2655Y-5.8957
X4.2677Y-2.8346
X4.2717Y-5.5413
X4.3107Y-5.7637
X4.3346Y-2.4173
X4.3386Y-2.7323
X4.4175Y-2.35
X4.4175Y-2.5
X4.4175Y-2.65
X4.4175Y-2.8
X4.9104Y-4.8425
X4.9104Y-4.9016
X4.9104Y-5.0787
X4.9104Y-5.1378
X4.9203Y-4.5669
X4.9203Y-4.626
X4.9715Y-4.8425
X4.9715Y-4.9016
X4.9715Y-5.0787
X4.9715Y-5.1378
X4.9813Y-4.5669
X4.9813Y-4.626
X5.1819Y-2.3504
X5.1819Y-2.5
X5.1829Y-2.6496
X5.1829Y-2.8002
X5.2362Y-2.4567
X5.2362Y-2.685
X5.2362Y-3.8671
X5.2362Y-4.0856
X5.2362Y-4.4183
X5.2362Y-4.6368
X5.2362Y-4.9498
X5.2362Y-5.1683
X5.2988Y-2.764
X5.2988Y-2.827
X5.3492Y-2.4118
X5.3528Y-4.0867
X5.3543Y-3.8671
X5.3543Y-4.4183
X5.3543Y-4.6368
X5.3543Y-4.9498
X5.3543Y-5.1683
X5.3622Y-2.8701
X5.4724Y-3.8652
X5.4724Y-4.0876
X5.4724Y-4.4163
X5.4724Y-4.6388
X5.4724Y-4.9478
X5.4724Y-5.1703
X5.5551Y-2.5276
X5.563Y-2.6299
X5.5787Y-2.563
X5.5787Y-2.5984
X5.6299Y-5.7963
X5.6299Y-5.8573
X5.689Y-3.001
X5.689Y-3.062
X5.689Y-5.7963
X5.689Y-5.8573
X5.748Y-3.001
X5.748Y-3.062
X5.748Y-5.7963
X5.748Y-5.8573
X5.8071Y-3.001
X5.8071Y-3.062
X5.8071Y-5.7963
X5.8071Y-5.8573
X5.8661Y-3.001
X5.8661Y-3.062
X5.9843Y-6.3425
X6.1673Y-3.9724
T2
X4.5957Y-3.0709
X4.6457Y-3.0209
X4.6957Y-3.0709
T3
X3.43Y-3.9
X3.43Y-4.0
X3.43Y-4.1
X3.43Y-4.2
X3.43Y-4.3
X3.43Y-4.4
X3.43Y-4.5
X3.43Y-4.6
X3.43Y-4.7
X3.43Y-4.8
X3.43Y-4.9
X3.43Y-5.0
X3.43Y-5.1
X3.43Y-5.2
X3.43Y-5.3
X3.53Y-3.9
X3.53Y-4.0
X3.53Y-4.1
X3.53Y-4.2
X3.53Y-4.3
X3.53Y-4.4
X3.53Y-4.5
X3.53Y-4.6
X3.53Y-4.7
X3.53Y-4.8
X3.53Y-4.9
X3.53Y-5.0
X3.53Y-5.1
X3.53Y-5.2
X3.53Y-5.3
X3.63Y-3.9
X3.63Y-4.0
X3.63Y-4.1
X3.63Y-4.2
X3.63Y-4.3
X3.63Y-4.4
X3.63Y-4.5
X3.63Y-4.6
X3.63Y-4.7
X3.63Y-4.8
X3.63Y-4.9
X3.63Y-5.0
X3.63Y-5.1
X3.63Y-5.2
X3.63Y-5.3
X3.73Y-3.9
X3.73Y-4.0
X3.73Y-4.1
X3.73Y-4.2
X3.73Y-4.3
X3.73Y-4.4
X3.73Y-4.5
X3.73Y-4.6
X3.73Y-4.7
X3.73Y-4.8
X3.73Y-4.9
X3.73Y-5.0
X3.73Y-5.1
X3.73Y-5.2
X3.73Y-5.3
X3.83Y-3.9
X3.83Y-4.0
X3.83Y-4.1
X3.83Y-4.2
X3.83Y-4.3
X3.83Y-4.4
X3.83Y-4.5
X3.83Y-4.6
X3.83Y-4.7
X3.83Y-4.8
X3.83Y-4.9
X3.83Y-5.0
X3.83Y-5.1
X3.83Y-5.2
X3.83Y-5.3
X3.93Y-3.9
X3.93Y-4.0
X3.93Y-4.1
X3.93Y-4.2
X3.93Y-4.3
X3.93Y-4.4
X3.93Y-4.5
X3.93Y-4.6
X3.93Y-4.7
X3.93Y-4.8
X3.93Y-4.9
X3.93Y-5.0
X3.93Y-5.1
X3.93Y-5.2
X3.93Y-5.3
X4.03Y-3.9
X4.03Y-4.0
X4.03Y-4.1
X4.03Y-4.2
X4.03Y-4.3
X4.03Y-4.4
X4.03Y-4.5
X4.03Y-4.6
X4.03Y-4.7
X4.03Y-4.8
X4.03Y-4.9
X4.03Y-5.0
X4.03Y-5.1
X4.03Y-5.2
X4.03Y-5.3
X4.13Y-3.9
X4.13Y-4.0
X4.13Y-4.1
X4.13Y-4.2
X4.13Y-4.3
X4.13Y-4.4
X4.13Y-4.5
X4.13Y-4.6
X4.13Y-4.7
X4.13Y-4.8
X4.13Y-4.9
X4.13Y-5.0
X4.13Y-5.1
X4.13Y-5.2
X4.13Y-5.3
X4.23Y-3.9
X4.23Y-4.0
X4.23Y-4.1
X4.23Y-4.2
X4.23Y-4.3
X4.23Y-4.4
X4.23Y-4.5
X4.23Y-4.6
X4.23Y-4.7
X4.23Y-4.8
X4.23Y-4.9
X4.23Y-5.0
X4.23Y-5.1
X4.23Y-5.2
X4.23Y-5.3
X4.33Y-3.9
X4.33Y-4.0
X4.33Y-4.1
X4.33Y-4.2
X4.33Y-4.3
X4.33Y-4.4
X4.33Y-4.5
X4.33Y-4.6
X4.33Y-4.7
X4.33Y-4.8
X4.33Y-4.9
X4.33Y-5.0
X4.33Y-5.1
X4.33Y-5.2
X4.33Y-5.3
X4.43Y-3.9
X4.43Y-4.0
X4.43Y-4.1
X4.43Y-4.2
X4.43Y-4.3
X4.43Y-4.4
X4.43Y-4.5
X4.43Y-4.6
X4.43Y-4.7
X4.43Y-4.8
X4.43Y-4.9
X4.43Y-5.0
X4.43Y-5.1
X4.43Y-5.2
X4.43Y-5.3
X4.53Y-3.9
X4.53Y-4.0
X4.53Y-4.1
X4.53Y-4.2
X4.53Y-4.3
X4.53Y-4.4
X4.53Y-4.5
X4.53Y-4.6
X4.53Y-4.7
X4.53Y-4.8
X4.53Y-4.9
X4.53Y-5.0
X4.53Y-5.1
X4.53Y-5.2
X4.53Y-5.3
X4.63Y-3.9
X4.63Y-4.0
X4.63Y-4.1
X4.63Y-4.2
X4.63Y-4.3
X4.63Y-4.4
X4.63Y-4.5
X4.63Y-4.6
X4.63Y-4.7
X4.63Y-4.8
X4.63Y-4.9
X4.63Y-5.0
X4.63Y-5.1
X4.63Y-5.2
X4.63Y-5.3
X4.73Y-3.9
X4.73Y-4.0
X4.73Y-4.1
X4.73Y-4.2
X4.73Y-4.3
X4.73Y-4.4
X4.73Y-4.5
X4.73Y-4.6
X4.73Y-4.7
X4.73Y-4.8
X4.73Y-4.9
X4.73Y-5.0
X4.73Y-5.1
X4.73Y-5.2
X4.73Y-5.3
X4.83Y-3.9
X4.83Y-4.0
X4.83Y-4.1
X4.83Y-4.2
X4.83Y-4.3
X4.83Y-4.4
X4.83Y-4.5
X4.83Y-4.6
X4.83Y-4.7
X4.83Y-4.8
X4.83Y-4.9
X4.83Y-5.0
X4.83Y-5.1
X4.83Y-5.2
X4.83Y-5.3
T4
X4.0Y-3.085
X4.4Y-3.085
T5
X3.1496Y-2.7343
X3.1496Y-2.8343
X3.1496Y-2.9343
X4.3244Y-6.1417
X4.3244Y-6.2417
X4.4244Y-6.1417
X4.4244Y-6.2417
X4.5244Y-6.1417
X4.5244Y-6.2417
X4.6Y-2.35
X4.6Y-2.5
X4.6Y-2.65
X4.6Y-2.8
X4.6244Y-6.1417
X4.6244Y-6.2417
X4.7Y-2.35
X4.7Y-2.5
X4.7Y-2.65
X4.7Y-2.8
X4.7244Y-6.1417
X4.7244Y-6.2417
X4.8244Y-6.1417
X4.8244Y-6.2417
X4.9Y-2.35
X4.9Y-2.5
X4.9Y-2.65
X4.9Y-2.8
X4.9244Y-6.1417
X4.9244Y-6.2417
X5.0Y-2.35
X5.0Y-2.5
X5.0Y-2.65
X5.0Y-2.8
X5.0244Y-6.1417
X5.0244Y-6.2417
X5.1244Y-6.1417
X5.1244Y-6.2417
X5.2244Y-6.1417
X5.2244Y-6.2417
X5.3244Y-6.1417
X5.3244Y-6.2417
X5.4244Y-6.1417
X5.4244Y-6.2417
X5.5244Y-6.1417
X5.5244Y-6.2417
X5.6244Y-6.1417
X5.6244Y-6.2417
X5.7244Y-6.1417
X5.7244Y-6.2417
T6
X1.9467Y-3.3641
X1.9467Y-3.5651
X2.1477Y-3.3641
X2.1477Y-3.5651
X2.4192Y-3.8759
X2.4192Y-4.0769
X2.4192Y-4.4271
X2.4192Y-4.6281
X2.4192Y-5.0176
X2.4192Y-5.2186
X2.6202Y-3.8759
X2.6202Y-4.0769
X2.6202Y-4.4271
X2.6202Y-4.6281
X2.6202Y-5.0176
X2.6202Y-5.2186
X2.6849Y-2.7145
X2.6849Y-2.9155
X2.6948Y-3.3641
X2.6948Y-3.5651
X2.8859Y-2.7145
X2.8859Y-2.9155
X2.8958Y-3.3641
X2.8958Y-3.5651
X3.7873Y-5.8444
X3.7873Y-6.0454
X3.9883Y-5.8444
X3.9883Y-6.0454
X5.3719Y-3.3641
X5.3719Y-3.5651
X5.5729Y-3.3641
X5.5729Y-3.5651
X5.6082Y-3.8759
X5.6082Y-4.0769
X5.6082Y-4.4271
X5.6082Y-4.6281
X5.6082Y-5.0176
X5.6082Y-5.2186
X5.8092Y-3.8759
X5.8092Y-4.0769
X5.8092Y-4.4271
X5.8092Y-4.6281
X5.8092Y-5.0176
X5.8092Y-5.2186
X6.0412Y-3.3641
X6.0412Y-3.5651
X6.2422Y-3.3641
X6.2422Y-3.5651
T7
X2.0472Y-3.4646
X2.5197Y-3.9764
X2.5197Y-4.5276
X2.5197Y-5.1181
X2.7854Y-2.815
X2.7953Y-3.4646
X3.8878Y-5.9449
X5.4724Y-3.4646
X5.7087Y-3.9764
X5.7087Y-4.5276
X5.7087Y-5.1181
X6.1417Y-3.4646
T8
X1.938Y-2.7953
X2.032Y-2.7013
X2.032Y-2.8893
X2.126Y-2.7953
X2.4498Y-6.2205
X2.5438Y-6.1265
X2.5438Y-6.3145
X2.6378Y-6.2205
X2.8041Y-2.1654
X2.8981Y-2.0714
X2.8981Y-2.2594
X2.9921Y-2.1654
X3.1496Y-6.2205
X3.2436Y-6.1265
X3.2436Y-6.3145
X3.3376Y-6.2205
X3.5915Y-2.1654
X3.6855Y-2.0714
X3.6855Y-2.2594
X3.7795Y-2.1654
X5.7087Y-2.126
X5.8027Y-2.032
X5.8027Y-2.22
X5.8967Y-2.126
X6.0477Y-5.8509
X6.1112Y-2.8194
X6.1417Y-5.7569
X6.1417Y-5.9449
X6.2052Y-2.7254
X6.2052Y-2.9134
X6.2357Y-5.8509
X6.2992Y-2.8194
T9
X2.0079Y-2.0866
X2.0079Y-6.3386
X6.2598Y-2.0866
X6.2598Y-6.3386
M30
