%TF.GenerationSoftware,KiCad,Pcbnew,8.0.5*%
%TF.CreationDate,2024-10-22T16:07:44-04:00*%
%TF.ProjectId,huxley,6875786c-6579-42e6-9b69-6361645f7063,rev?*%
%TF.SameCoordinates,Original*%
%TF.FileFunction,Copper,L1,Top*%
%TF.FilePolarity,Positive*%
%FSLAX46Y46*%
G04 Gerber Fmt 4.6, Leading zero omitted, Abs format (unit mm)*
G04 Created by KiCad (PCBNEW 8.0.5) date 2024-10-22 16:07:44*
%MOMM*%
%LPD*%
G01*
G04 APERTURE LIST*
G04 Aperture macros list*
%AMRoundRect*
0 Rectangle with rounded corners*
0 $1 Rounding radius*
0 $2 $3 $4 $5 $6 $7 $8 $9 X,Y pos of 4 corners*
0 Add a 4 corners polygon primitive as box body*
4,1,4,$2,$3,$4,$5,$6,$7,$8,$9,$2,$3,0*
0 Add four circle primitives for the rounded corners*
1,1,$1+$1,$2,$3*
1,1,$1+$1,$4,$5*
1,1,$1+$1,$6,$7*
1,1,$1+$1,$8,$9*
0 Add four rect primitives between the rounded corners*
20,1,$1+$1,$2,$3,$4,$5,0*
20,1,$1+$1,$4,$5,$6,$7,0*
20,1,$1+$1,$6,$7,$8,$9,0*
20,1,$1+$1,$8,$9,$2,$3,0*%
G04 Aperture macros list end*
%TA.AperFunction,SMDPad,CuDef*%
%ADD10RoundRect,0.200000X0.275000X-0.200000X0.275000X0.200000X-0.275000X0.200000X-0.275000X-0.200000X0*%
%TD*%
%TA.AperFunction,SMDPad,CuDef*%
%ADD11RoundRect,0.225000X0.250000X-0.225000X0.250000X0.225000X-0.250000X0.225000X-0.250000X-0.225000X0*%
%TD*%
%TA.AperFunction,SMDPad,CuDef*%
%ADD12RoundRect,0.225000X0.225000X0.250000X-0.225000X0.250000X-0.225000X-0.250000X0.225000X-0.250000X0*%
%TD*%
%TA.AperFunction,SMDPad,CuDef*%
%ADD13RoundRect,0.200000X-0.200000X-0.275000X0.200000X-0.275000X0.200000X0.275000X-0.200000X0.275000X0*%
%TD*%
%TA.AperFunction,ComponentPad*%
%ADD14C,2.006600*%
%TD*%
%TA.AperFunction,ComponentPad*%
%ADD15C,1.905000*%
%TD*%
%TA.AperFunction,SMDPad,CuDef*%
%ADD16RoundRect,0.225000X-0.250000X0.225000X-0.250000X-0.225000X0.250000X-0.225000X0.250000X0.225000X0*%
%TD*%
%TA.AperFunction,ComponentPad*%
%ADD17C,3.600000*%
%TD*%
%TA.AperFunction,ConnectorPad*%
%ADD18C,5.600000*%
%TD*%
%TA.AperFunction,ComponentPad*%
%ADD19C,1.397000*%
%TD*%
%TA.AperFunction,ComponentPad*%
%ADD20R,1.397000X1.397000*%
%TD*%
%TA.AperFunction,SMDPad,CuDef*%
%ADD21RoundRect,0.200000X-0.275000X0.200000X-0.275000X-0.200000X0.275000X-0.200000X0.275000X0.200000X0*%
%TD*%
%TA.AperFunction,ComponentPad*%
%ADD22C,2.209800*%
%TD*%
%TA.AperFunction,SMDPad,CuDef*%
%ADD23R,0.355600X1.409700*%
%TD*%
%TA.AperFunction,ComponentPad*%
%ADD24R,1.700000X1.700000*%
%TD*%
%TA.AperFunction,ComponentPad*%
%ADD25O,1.700000X1.700000*%
%TD*%
%TA.AperFunction,SMDPad,CuDef*%
%ADD26RoundRect,0.200000X0.200000X0.275000X-0.200000X0.275000X-0.200000X-0.275000X0.200000X-0.275000X0*%
%TD*%
%TA.AperFunction,SMDPad,CuDef*%
%ADD27RoundRect,0.100000X-0.100000X0.637500X-0.100000X-0.637500X0.100000X-0.637500X0.100000X0.637500X0*%
%TD*%
%TA.AperFunction,SMDPad,CuDef*%
%ADD28RoundRect,0.225000X-0.225000X-0.250000X0.225000X-0.250000X0.225000X0.250000X-0.225000X0.250000X0*%
%TD*%
%TA.AperFunction,SMDPad,CuDef*%
%ADD29R,0.355600X1.066800*%
%TD*%
%TA.AperFunction,ComponentPad*%
%ADD30C,1.143000*%
%TD*%
%TA.AperFunction,SMDPad,CuDef*%
%ADD31C,3.000000*%
%TD*%
%TA.AperFunction,ComponentPad*%
%ADD32O,1.600000X1.200000*%
%TD*%
%TA.AperFunction,ComponentPad*%
%ADD33O,1.200000X1.200000*%
%TD*%
%TA.AperFunction,ViaPad*%
%ADD34C,0.508000*%
%TD*%
%TA.AperFunction,Conductor*%
%ADD35C,0.203200*%
%TD*%
%TA.AperFunction,Conductor*%
%ADD36C,0.254000*%
%TD*%
%TA.AperFunction,Conductor*%
%ADD37C,0.304800*%
%TD*%
%TA.AperFunction,Conductor*%
%ADD38C,0.609600*%
%TD*%
%TA.AperFunction,Conductor*%
%ADD39C,0.200000*%
%TD*%
G04 APERTURE END LIST*
D10*
%TO.P,R10,1*%
%TO.N,output_5+*%
X73000000Y-127050000D03*
%TO.P,R10,2*%
%TO.N,GND*%
X73000000Y-125400000D03*
%TD*%
D11*
%TO.P,C69,1*%
%TO.N,output_2-*%
X133000000Y-99775000D03*
%TO.P,C69,2*%
%TO.N,GND*%
X133000000Y-98225000D03*
%TD*%
D12*
%TO.P,C16,1*%
%TO.N,PP_SYS_3V3*%
X107309000Y-70405000D03*
%TO.P,C16,2*%
%TO.N,GND*%
X105759000Y-70405000D03*
%TD*%
D13*
%TO.P,R20,1*%
%TO.N,/ibias/R2_3*%
X129985000Y-67310000D03*
%TO.P,R20,2*%
%TO.N,GND*%
X131635000Y-67310000D03*
%TD*%
D14*
%TO.P,J19,1*%
%TO.N,vd1_dummy*%
X71000000Y-88000000D03*
D15*
%TO.P,J19,2*%
%TO.N,GND*%
X68447300Y-85447300D03*
%TO.P,J19,3,Ext*%
X68447300Y-90552700D03*
%TO.P,J19,4,Ext*%
X73552700Y-90552700D03*
%TO.P,J19,5,Ext*%
X73552700Y-85447300D03*
%TD*%
D16*
%TO.P,C37,1*%
%TO.N,vrbias*%
X144500000Y-76225000D03*
%TO.P,C37,2*%
%TO.N,GND*%
X144500000Y-77775000D03*
%TD*%
D14*
%TO.P,J5,1*%
%TO.N,CLK*%
X98750000Y-151000000D03*
D15*
%TO.P,J5,2*%
%TO.N,GND*%
X96197300Y-148447300D03*
%TO.P,J5,3,Ext*%
X96197300Y-153552700D03*
%TO.P,J5,4,Ext*%
X101302700Y-153552700D03*
%TO.P,J5,5,Ext*%
X101302700Y-148447300D03*
%TD*%
D12*
%TO.P,C21,1*%
%TO.N,PP_VDD_0V9*%
X75775000Y-147000000D03*
%TO.P,C21,2*%
%TO.N,GND*%
X74225000Y-147000000D03*
%TD*%
D11*
%TO.P,C64,1*%
%TO.N,output_0-*%
X133000000Y-127275000D03*
%TO.P,C64,2*%
%TO.N,GND*%
X133000000Y-125725000D03*
%TD*%
D17*
%TO.P,H3,1*%
%TO.N,N/C*%
X51000000Y-161000000D03*
D18*
X51000000Y-161000000D03*
%TD*%
D19*
%TO.P,D1,1,C*%
%TO.N,GND*%
X101600000Y-78359000D03*
D20*
%TO.P,D1,2,A*%
%TO.N,/ibias/ibias_m*%
X111760000Y-78359000D03*
%TD*%
D12*
%TO.P,C17,1*%
%TO.N,PP_SYS_3V3*%
X107309000Y-72005000D03*
%TO.P,C17,2*%
%TO.N,GND*%
X105759000Y-72005000D03*
%TD*%
D21*
%TO.P,R9,1*%
%TO.N,output_4+*%
X73000000Y-116175000D03*
%TO.P,R9,2*%
%TO.N,GND*%
X73000000Y-117825000D03*
%TD*%
D16*
%TO.P,C41,1*%
%TO.N,vlvl*%
X77000000Y-63225000D03*
%TO.P,C41,2*%
%TO.N,GND*%
X77000000Y-64775000D03*
%TD*%
D22*
%TO.P,J24,1,1*%
%TO.N,vlvl*%
X71224800Y-55000000D03*
%TO.P,J24,2,2*%
X76000000Y-55000000D03*
%TO.P,J24,3,3*%
X73612400Y-52612400D03*
%TO.P,J24,4,4*%
X73612400Y-57387600D03*
%TD*%
D12*
%TO.P,C29,1*%
%TO.N,PP_SYS_3V3*%
X89775000Y-64750000D03*
%TO.P,C29,2*%
%TO.N,GND*%
X88225000Y-64750000D03*
%TD*%
D13*
%TO.P,R22,1*%
%TO.N,PP_AD2_3V3*%
X104975000Y-142000000D03*
%TO.P,R22,2*%
%TO.N,LVLS_EN*%
X106625000Y-142000000D03*
%TD*%
D16*
%TO.P,C5,1*%
%TO.N,output_2+*%
X135962000Y-102251000D03*
%TO.P,C5,2*%
%TO.N,GND*%
X135962000Y-103801000D03*
%TD*%
%TO.P,C42,1*%
%TO.N,vlvl*%
X78500000Y-63225000D03*
%TO.P,C42,2*%
%TO.N,GND*%
X78500000Y-64775000D03*
%TD*%
D23*
%TO.P,U6,1,GND*%
%TO.N,GND*%
X108425001Y-148452750D03*
%TO.P,U6,2,VREFA*%
%TO.N,PP_AD2_3V3*%
X109075000Y-148452750D03*
%TO.P,U6,3,A1*%
%TO.N,TSCAN_OUT_3V3*%
X109724998Y-148452750D03*
%TO.P,U6,4,A2*%
%TO.N,TSCAN_EN_3V3*%
X110374999Y-148452750D03*
%TO.P,U6,5,A3*%
%TO.N,IO_UCLK_3V3*%
X111024998Y-148452750D03*
%TO.P,U6,6,A4*%
%TO.N,SPI_COPI_3V3*%
X111674999Y-148452750D03*
%TO.P,U6,7,A5*%
%TO.N,SPI_CIPO_3V3*%
X112324998Y-148452750D03*
%TO.P,U6,8,A6*%
%TO.N,SPI_CLK_3V3*%
X112974999Y-148452750D03*
%TO.P,U6,9,A7*%
%TO.N,SPI_CS_L_3V3*%
X113624998Y-148452750D03*
%TO.P,U6,10,A8*%
%TO.N,unconnected-(U6-A8-Pad10)*%
X114274999Y-148452750D03*
%TO.P,U6,11,A9*%
%TO.N,SCAN_EN_3V3*%
X114924998Y-148452750D03*
%TO.P,U6,12,A10*%
%TO.N,RST_L_3V3*%
X115574999Y-148452750D03*
%TO.P,U6,13,B10*%
%TO.N,RST_L*%
X115574999Y-142547250D03*
%TO.P,U6,14,B9*%
%TO.N,SCAN_EN*%
X114925000Y-142547250D03*
%TO.P,U6,15,B8*%
%TO.N,unconnected-(U6-B8-Pad15)*%
X114274999Y-142547250D03*
%TO.P,U6,16,B7*%
%TO.N,SPI_CS_L*%
X113625001Y-142547250D03*
%TO.P,U6,17,B6*%
%TO.N,SPI_CLK*%
X112974999Y-142547250D03*
%TO.P,U6,18,B5*%
%TO.N,SPI_CIPO*%
X112325001Y-142547250D03*
%TO.P,U6,19,B4*%
%TO.N,SPI_COPI*%
X111675002Y-142547250D03*
%TO.P,U6,20,B3*%
%TO.N,IO_UCLK*%
X111025001Y-142547250D03*
%TO.P,U6,21,B2*%
%TO.N,TSCAN_EN*%
X110375002Y-142547250D03*
%TO.P,U6,22,B1*%
%TO.N,TSCAN_OUT*%
X109725001Y-142547250D03*
%TO.P,U6,23,VREFB*%
%TO.N,PP_VDDIO_1V8*%
X109075002Y-142547250D03*
%TO.P,U6,24,EN*%
%TO.N,LVLS_EN*%
X108425001Y-142547250D03*
%TD*%
D16*
%TO.P,C35,1*%
%TO.N,PP_VDDIO_1V8*%
X143000000Y-147225000D03*
%TO.P,C35,2*%
%TO.N,GND*%
X143000000Y-148775000D03*
%TD*%
D11*
%TO.P,C6,1*%
%TO.N,output_3+*%
X76000000Y-100775000D03*
%TO.P,C6,2*%
%TO.N,GND*%
X76000000Y-99225000D03*
%TD*%
D16*
%TO.P,C66,1*%
%TO.N,output_1+*%
X133000000Y-116225000D03*
%TO.P,C66,2*%
%TO.N,GND*%
X133000000Y-117775000D03*
%TD*%
%TO.P,C32,1*%
%TO.N,PP_VDDIO_1V8*%
X147500000Y-147225000D03*
%TO.P,C32,2*%
%TO.N,GND*%
X147500000Y-148775000D03*
%TD*%
D11*
%TO.P,C4,1*%
%TO.N,output_1-*%
X136000000Y-113775000D03*
%TO.P,C4,2*%
%TO.N,GND*%
X136000000Y-112225000D03*
%TD*%
D21*
%TO.P,R1,1*%
%TO.N,output_0+*%
X139000000Y-129675000D03*
%TO.P,R1,2*%
%TO.N,GND*%
X139000000Y-131325000D03*
%TD*%
D11*
%TO.P,C67,1*%
%TO.N,output_1-*%
X133000000Y-113775000D03*
%TO.P,C67,2*%
%TO.N,GND*%
X133000000Y-112225000D03*
%TD*%
D12*
%TO.P,C18,1*%
%TO.N,PP_SYS_3V3*%
X136165000Y-71805000D03*
%TO.P,C18,2*%
%TO.N,GND*%
X134615000Y-71805000D03*
%TD*%
D22*
%TO.P,J39,1,1*%
%TO.N,vrbias*%
X155224800Y-71612400D03*
%TO.P,J39,2,2*%
X160000000Y-71612400D03*
%TO.P,J39,3,3*%
X157612400Y-69224800D03*
%TO.P,J39,4,4*%
X157612400Y-74000000D03*
%TD*%
%TO.P,J34,1,1*%
%TO.N,GND*%
X145000000Y-54000000D03*
%TO.P,J34,2,2*%
X149775200Y-54000000D03*
%TO.P,J34,3,3*%
X147387600Y-51612400D03*
%TO.P,J34,4,4*%
X147387600Y-56387600D03*
%TD*%
D24*
%TO.P,J6,1,Scope_Ch1+*%
%TO.N,unconnected-(J6B-Scope_Ch1+-Pad1)*%
X145400000Y-156000000D03*
D25*
%TO.P,J6,2,Scope_Ch1-*%
%TO.N,unconnected-(J6B-Scope_Ch1--Pad2)*%
X145400000Y-158540000D03*
%TO.P,J6,3,Scope_Ch2+*%
%TO.N,unconnected-(J6B-Scope_Ch2+-Pad3)*%
X142860000Y-156000000D03*
%TO.P,J6,4,Scope_Ch2-*%
%TO.N,unconnected-(J6B-Scope_Ch2--Pad4)*%
X142860000Y-158540000D03*
%TO.P,J6,5,GND*%
%TO.N,GND*%
X140320000Y-156000000D03*
%TO.P,J6,6,GND*%
X140320000Y-158540000D03*
%TO.P,J6,7,V+Power*%
%TO.N,PP_AD2_3V3*%
X137780000Y-156000000D03*
%TO.P,J6,8,V-Power*%
%TO.N,unconnected-(J6D-V-Power-Pad8)*%
X137780000Y-158540000D03*
%TO.P,J6,9,WaveformGen1*%
%TO.N,unconnected-(J6C-WaveformGen1-Pad9)*%
X135240000Y-156000000D03*
%TO.P,J6,10,WaveformGen2*%
%TO.N,unconnected-(J6C-WaveformGen2-Pad10)*%
X135240000Y-158540000D03*
%TO.P,J6,11,GND*%
%TO.N,GND*%
X132700000Y-156000000D03*
%TO.P,J6,12,GND*%
X132700000Y-158540000D03*
%TO.P,J6,13,Trigger1*%
%TO.N,unconnected-(J6B-Trigger1-Pad13)*%
X130160000Y-156000000D03*
%TO.P,J6,14,Trigger2*%
%TO.N,unconnected-(J6B-Trigger2-Pad14)*%
X130160000Y-158540000D03*
%TO.P,J6,15,DIO0*%
%TO.N,unconnected-(J6A-DIO0-Pad15)*%
X127620000Y-156000000D03*
%TO.P,J6,16,DIO8*%
%TO.N,unconnected-(J6A-DIO8-Pad16)*%
X127620000Y-158540000D03*
%TO.P,J6,17,DIO1*%
%TO.N,IBIAS_SEL2*%
X125080000Y-156000000D03*
%TO.P,J6,18,DIO9*%
%TO.N,IBIAS_SEL1*%
X125080000Y-158540000D03*
%TO.P,J6,19,DIO2*%
%TO.N,IBIAS_SEL4*%
X122540000Y-156000000D03*
%TO.P,J6,20,DIO10*%
%TO.N,IBIAS_SEL3*%
X122540000Y-158540000D03*
%TO.P,J6,21,DIO3*%
%TO.N,SCAN_EN_3V3*%
X120000000Y-156000000D03*
%TO.P,J6,22,DIO11*%
%TO.N,RST_L_3V3*%
X120000000Y-158540000D03*
%TO.P,J6,23,DIO4*%
%TO.N,SPI_CLK_3V3*%
X117460000Y-156000000D03*
%TO.P,J6,24,DIO12*%
%TO.N,SPI_CS_L_3V3*%
X117460000Y-158540000D03*
%TO.P,J6,25,DIO5*%
%TO.N,SPI_COPI_3V3*%
X114920000Y-156000000D03*
%TO.P,J6,26,DIO13*%
%TO.N,SPI_CIPO_3V3*%
X114920000Y-158540000D03*
%TO.P,J6,27,DIO6*%
%TO.N,TSCAN_EN_3V3*%
X112380000Y-156000000D03*
%TO.P,J6,28,DIO14*%
%TO.N,IO_UCLK_3V3*%
X112380000Y-158540000D03*
%TO.P,J6,29,DIO7*%
%TO.N,LVLS_EN*%
X109840000Y-156000000D03*
%TO.P,J6,30,DIO15*%
%TO.N,TSCAN_OUT_3V3*%
X109840000Y-158540000D03*
%TD*%
D21*
%TO.P,R3,1*%
%TO.N,output_1+*%
X139000000Y-116175000D03*
%TO.P,R3,2*%
%TO.N,GND*%
X139000000Y-117825000D03*
%TD*%
D22*
%TO.P,J37,1,1*%
%TO.N,GND*%
X62224800Y-158000000D03*
%TO.P,J37,2,2*%
X67000000Y-158000000D03*
%TO.P,J37,3,3*%
X64612400Y-155612400D03*
%TO.P,J37,4,4*%
X64612400Y-160387600D03*
%TD*%
D24*
%TO.P,J27,1,Pin_1*%
%TO.N,/ibias/ibias_rset*%
X119380000Y-71120000D03*
D25*
%TO.P,J27,2,Pin_2*%
%TO.N,/ibias/R1_4*%
X116840000Y-71120000D03*
%TD*%
D14*
%TO.P,J13,1*%
%TO.N,output_4+*%
X64000000Y-115000000D03*
D15*
%TO.P,J13,2*%
%TO.N,output_4-*%
X61447300Y-112447300D03*
%TO.P,J13,3,Ext*%
X61447300Y-117552700D03*
%TO.P,J13,4,Ext*%
X66552700Y-117552700D03*
%TO.P,J13,5,Ext*%
X66552700Y-112447300D03*
%TD*%
D26*
%TO.P,R16,1*%
%TO.N,/ibias/R1_2*%
X113855000Y-63500000D03*
%TO.P,R16,2*%
%TO.N,/ibias/ibias_m*%
X112205000Y-63500000D03*
%TD*%
D14*
%TO.P,J11,1*%
%TO.N,output_3+*%
X64000000Y-101000000D03*
D15*
%TO.P,J11,2*%
%TO.N,output_3-*%
X61447300Y-98447300D03*
%TO.P,J11,3,Ext*%
X61447300Y-103552700D03*
%TO.P,J11,4,Ext*%
X66552700Y-103552700D03*
%TO.P,J11,5,Ext*%
X66552700Y-98447300D03*
%TD*%
D27*
%TO.P,U4,1,SEL1*%
%TO.N,IBIAS_SEL1*%
X109209000Y-62542500D03*
%TO.P,U4,2,D1*%
%TO.N,/ibias/R1_1*%
X108559000Y-62542500D03*
%TO.P,U4,3,S1*%
%TO.N,/ibias/ibias_rset*%
X107909000Y-62542500D03*
%TO.P,U4,4,NC*%
%TO.N,unconnected-(U4-NC-Pad4)*%
X107259000Y-62542500D03*
%TO.P,U4,5,GND*%
%TO.N,GND*%
X106609000Y-62542500D03*
%TO.P,U4,6,S4*%
%TO.N,/ibias/ibias_rset*%
X105959000Y-62542500D03*
%TO.P,U4,7,D4*%
%TO.N,/ibias/R1_2*%
X105309000Y-62542500D03*
%TO.P,U4,8,SEL4*%
%TO.N,IBIAS_SEL2*%
X104659000Y-62542500D03*
%TO.P,U4,9,SEL3*%
%TO.N,IBIAS_SEL3*%
X104659000Y-68267500D03*
%TO.P,U4,10,D3*%
%TO.N,/ibias/R1_3*%
X105309000Y-68267500D03*
%TO.P,U4,11,S3*%
%TO.N,/ibias/ibias_rset*%
X105959000Y-68267500D03*
%TO.P,U4,12,NC*%
%TO.N,unconnected-(U4-NC-Pad12)*%
X106609000Y-68267500D03*
%TO.P,U4,13,VDD*%
%TO.N,PP_SYS_3V3*%
X107259000Y-68267500D03*
%TO.P,U4,14,S2*%
%TO.N,/ibias/ibias_rset*%
X107909000Y-68267500D03*
%TO.P,U4,15,D2*%
%TO.N,/ibias/R1_4*%
X108559000Y-68267500D03*
%TO.P,U4,16,SEL2*%
%TO.N,IBIAS_SEL4*%
X109209000Y-68267500D03*
%TD*%
D11*
%TO.P,C7,1*%
%TO.N,output_2-*%
X136000000Y-99775000D03*
%TO.P,C7,2*%
%TO.N,GND*%
X136000000Y-98225000D03*
%TD*%
D14*
%TO.P,J17,1*%
%TO.N,vbias0*%
X139000000Y-88000000D03*
D15*
%TO.P,J17,2*%
%TO.N,GND*%
X136447300Y-85447300D03*
%TO.P,J17,3,Ext*%
X136447300Y-90552700D03*
%TO.P,J17,4,Ext*%
X141552700Y-90552700D03*
%TO.P,J17,5,Ext*%
X141552700Y-85447300D03*
%TD*%
D16*
%TO.P,C33,1*%
%TO.N,PP_VDDIO_1V8*%
X146000000Y-147225000D03*
%TO.P,C33,2*%
%TO.N,GND*%
X146000000Y-148775000D03*
%TD*%
D28*
%TO.P,C15,1*%
%TO.N,PP_SYS_3V3*%
X94050000Y-68200000D03*
%TO.P,C15,2*%
%TO.N,GND*%
X95600000Y-68200000D03*
%TD*%
D16*
%TO.P,C36,1*%
%TO.N,vrbias*%
X149000000Y-76225000D03*
%TO.P,C36,2*%
%TO.N,GND*%
X149000000Y-77775000D03*
%TD*%
D11*
%TO.P,C11,1*%
%TO.N,output_4-*%
X76000000Y-113775000D03*
%TO.P,C11,2*%
%TO.N,GND*%
X76000000Y-112225000D03*
%TD*%
D27*
%TO.P,U5,1,SEL1*%
%TO.N,IBIAS_SEL1*%
X138165000Y-62542500D03*
%TO.P,U5,2,D1*%
%TO.N,/ibias/R2_1*%
X137515000Y-62542500D03*
%TO.P,U5,3,S1*%
%TO.N,/ibias/ibias_rset*%
X136865000Y-62542500D03*
%TO.P,U5,4,NC*%
%TO.N,unconnected-(U5-NC-Pad4)*%
X136215000Y-62542500D03*
%TO.P,U5,5,GND*%
%TO.N,GND*%
X135565000Y-62542500D03*
%TO.P,U5,6,S4*%
%TO.N,/ibias/ibias_rset*%
X134915000Y-62542500D03*
%TO.P,U5,7,D4*%
%TO.N,/ibias/R2_2*%
X134265000Y-62542500D03*
%TO.P,U5,8,SEL4*%
%TO.N,IBIAS_SEL2*%
X133615000Y-62542500D03*
%TO.P,U5,9,SEL3*%
%TO.N,IBIAS_SEL3*%
X133615000Y-68267500D03*
%TO.P,U5,10,D3*%
%TO.N,/ibias/R2_3*%
X134265000Y-68267500D03*
%TO.P,U5,11,S3*%
%TO.N,/ibias/ibias_rset*%
X134915000Y-68267500D03*
%TO.P,U5,12,NC*%
%TO.N,unconnected-(U5-NC-Pad12)*%
X135565000Y-68267500D03*
%TO.P,U5,13,VDD*%
%TO.N,PP_SYS_3V3*%
X136215000Y-68267500D03*
%TO.P,U5,14,S2*%
%TO.N,/ibias/ibias_rset*%
X136865000Y-68267500D03*
%TO.P,U5,15,D2*%
%TO.N,/ibias/R2_4*%
X137515000Y-68267500D03*
%TO.P,U5,16,SEL2*%
%TO.N,IBIAS_SEL4*%
X138165000Y-68267500D03*
%TD*%
D22*
%TO.P,J2,1,1*%
%TO.N,PP_TAVDD_1V8*%
X51612400Y-68612400D03*
%TO.P,J2,2,2*%
X51612400Y-73387600D03*
%TO.P,J2,3,3*%
X54000000Y-71000000D03*
%TO.P,J2,4,4*%
X49224800Y-71000000D03*
%TD*%
D29*
%TO.P,U3,1,RS1+*%
%TO.N,iout_dummy*%
X94024640Y-77133600D03*
%TO.P,U3,2,RS1-*%
%TO.N,GND*%
X94674880Y-77133600D03*
%TO.P,U3,3,RS2+*%
%TO.N,unconnected-(U3-RS2+-Pad3)*%
X95325120Y-77133600D03*
%TO.P,U3,4,RS2-*%
%TO.N,unconnected-(U3-RS2--Pad4)*%
X95975360Y-77133600D03*
%TO.P,U3,5,GND*%
%TO.N,GND*%
X95975360Y-72866400D03*
%TO.P,U3,6,OUT2*%
%TO.N,unconnected-(U3-OUT2-Pad6)*%
X95325120Y-72866400D03*
%TO.P,U3,7,OUT1*%
%TO.N,iout_dummy_amp*%
X94674880Y-72866400D03*
%TO.P,U3,8,VDD*%
%TO.N,PP_SYS_3V3*%
X94024640Y-72866400D03*
%TD*%
D30*
%TO.P,U1,*%
%TO.N,*%
X87122000Y-99060000D03*
X87122000Y-101600000D03*
X87122000Y-104140000D03*
X87122000Y-106680000D03*
X87122000Y-109220000D03*
X87122000Y-111760000D03*
X87122000Y-114300000D03*
X87122000Y-116840000D03*
X87122000Y-119380000D03*
X87122000Y-121920000D03*
X87122000Y-124460000D03*
X87122000Y-127000000D03*
X87122000Y-129540000D03*
X87122000Y-132080000D03*
X87122000Y-134620000D03*
X89662000Y-99060000D03*
X89662000Y-101600000D03*
X89662000Y-104140000D03*
X89662000Y-106680000D03*
X89662000Y-109220000D03*
X89662000Y-111760000D03*
X89662000Y-114300000D03*
X89662000Y-116840000D03*
X89662000Y-119380000D03*
X89662000Y-121920000D03*
X89662000Y-124460000D03*
X89662000Y-127000000D03*
X89662000Y-129540000D03*
X89662000Y-132080000D03*
X89662000Y-134620000D03*
X92202000Y-99060000D03*
X92202000Y-101600000D03*
X92202000Y-132080000D03*
X92202000Y-134620000D03*
X94742000Y-99060000D03*
X94742000Y-101600000D03*
X94742000Y-132080000D03*
X94742000Y-134620000D03*
X97282000Y-99060000D03*
X97282000Y-101600000D03*
X97282000Y-109220000D03*
X97282000Y-111760000D03*
X97282000Y-121920000D03*
X97282000Y-124460000D03*
X97282000Y-132080000D03*
X97282000Y-134620000D03*
X99822000Y-99060000D03*
X99822000Y-101600000D03*
X99822000Y-109220000D03*
X99822000Y-111760000D03*
X99822000Y-114300000D03*
X99822000Y-116840000D03*
X99822000Y-119380000D03*
X99822000Y-121920000D03*
X99822000Y-124460000D03*
X99822000Y-132080000D03*
X99822000Y-134620000D03*
X102362000Y-99060000D03*
X102362000Y-101600000D03*
X102362000Y-111760000D03*
X102362000Y-114300000D03*
X102362000Y-116840000D03*
X102362000Y-119380000D03*
X102362000Y-121920000D03*
X102362000Y-132080000D03*
X102362000Y-134620000D03*
X104902000Y-99060000D03*
X104902000Y-101600000D03*
X104902000Y-111760000D03*
X104902000Y-114300000D03*
X104902000Y-116840000D03*
X104902000Y-119380000D03*
X104902000Y-121920000D03*
X104902000Y-132080000D03*
X104902000Y-134620000D03*
X107442000Y-99060000D03*
X107442000Y-101600000D03*
X107442000Y-111760000D03*
X107442000Y-114300000D03*
X107442000Y-116840000D03*
X107442000Y-119380000D03*
X107442000Y-121920000D03*
X107442000Y-132080000D03*
X107442000Y-134620000D03*
X109982000Y-99060000D03*
X109982000Y-101600000D03*
X109982000Y-109220000D03*
X109982000Y-111760000D03*
X109982000Y-114300000D03*
X109982000Y-116840000D03*
X109982000Y-119380000D03*
X109982000Y-121920000D03*
X109982000Y-124460000D03*
X109982000Y-132080000D03*
X109982000Y-134620000D03*
X112522000Y-99060000D03*
X112522000Y-101600000D03*
X112522000Y-109220000D03*
X112522000Y-111760000D03*
X112522000Y-121920000D03*
X112522000Y-124460000D03*
X112522000Y-132080000D03*
X112522000Y-134620000D03*
X115062000Y-99060000D03*
X115062000Y-101600000D03*
X115062000Y-132080000D03*
X115062000Y-134620000D03*
X117602000Y-99060000D03*
X117602000Y-101600000D03*
X117602000Y-132080000D03*
X117602000Y-134620000D03*
X120142000Y-99060000D03*
X120142000Y-101600000D03*
X120142000Y-104140000D03*
X120142000Y-106680000D03*
X120142000Y-109220000D03*
X120142000Y-111760000D03*
X120142000Y-114300000D03*
X120142000Y-116840000D03*
X120142000Y-119380000D03*
X120142000Y-121920000D03*
X120142000Y-124460000D03*
X120142000Y-127000000D03*
X120142000Y-129540000D03*
X120142000Y-132080000D03*
X120142000Y-134620000D03*
X122682000Y-99060000D03*
X122682000Y-101600000D03*
X122682000Y-104140000D03*
X122682000Y-106680000D03*
X122682000Y-109220000D03*
X122682000Y-111760000D03*
X122682000Y-114300000D03*
X122682000Y-116840000D03*
X122682000Y-119380000D03*
X122682000Y-121920000D03*
X122682000Y-124460000D03*
X122682000Y-127000000D03*
X122682000Y-129540000D03*
X122682000Y-132080000D03*
X122682000Y-134620000D03*
%TO.P,U1,A1,VDDPST*%
%TO.N,PP_VDDIO_1V8*%
X117602000Y-129540000D03*
%TO.P,U1,A2*%
%TO.N,N/C*%
X115062000Y-129540000D03*
%TO.P,U1,A3,SPI_CS_L*%
%TO.N,SPI_CS_L*%
X112522000Y-129540000D03*
%TO.P,U1,A4,VSS*%
%TO.N,GND*%
X109982000Y-129540000D03*
%TO.P,U1,A5,VDD*%
%TO.N,PP_VDD_0V9*%
X107442000Y-129540000D03*
%TO.P,U1,A6,SPI_COPI*%
%TO.N,SPI_COPI*%
X104902000Y-129540000D03*
%TO.P,U1,A7,VDDPST_POC*%
%TO.N,PP_VDDIO_1V8*%
X102362000Y-129540000D03*
%TO.P,U1,A8,CLK*%
%TO.N,CLK*%
X99822000Y-129540000D03*
%TO.P,U1,A9*%
%TO.N,N/C*%
X97282000Y-129540000D03*
%TO.P,U1,A10*%
X94742000Y-129540000D03*
%TO.P,U1,A11,VSS*%
%TO.N,GND*%
X92202000Y-129540000D03*
%TO.P,U1,B1*%
%TO.N,N/C*%
X117602000Y-127000000D03*
%TO.P,U1,B2*%
X115062000Y-127000000D03*
%TO.P,U1,B3*%
X112522000Y-127000000D03*
%TO.P,U1,B4,SPI_CLK*%
%TO.N,SPI_CLK*%
X109982000Y-127000000D03*
%TO.P,U1,B5,SPI_CIPO*%
%TO.N,SPI_CIPO*%
X107442000Y-127000000D03*
%TO.P,U1,B6*%
%TO.N,N/C*%
X104902000Y-127000000D03*
%TO.P,U1,B7,IO_UCLK*%
%TO.N,IO_UCLK*%
X102362000Y-127000000D03*
%TO.P,U1,B8*%
%TO.N,N/C*%
X99822000Y-127000000D03*
%TO.P,U1,B9*%
X97282000Y-127000000D03*
%TO.P,U1,B10*%
X94742000Y-127000000D03*
%TO.P,U1,B11*%
X92202000Y-127000000D03*
%TO.P,U1,C1,RST_L*%
%TO.N,RST_L*%
X117602000Y-124460000D03*
%TO.P,U1,C2*%
%TO.N,N/C*%
X115062000Y-124460000D03*
%TO.P,U1,C5*%
X107442000Y-124460000D03*
%TO.P,U1,C6*%
X104902000Y-124460000D03*
%TO.P,U1,C7*%
X102362000Y-124460000D03*
%TO.P,U1,C10*%
X94742000Y-124460000D03*
%TO.P,U1,C11,TSCAN_OUT*%
%TO.N,TSCAN_OUT*%
X92202000Y-124460000D03*
%TO.P,U1,D1,VDD*%
%TO.N,PP_VDD_0V9*%
X117602000Y-121920000D03*
%TO.P,U1,D2,SCAN_EN*%
%TO.N,SCAN_EN*%
X115062000Y-121920000D03*
%TO.P,U1,D10,TSCAN_EN*%
%TO.N,TSCAN_EN*%
X94742000Y-121920000D03*
%TO.P,U1,D11,VDD*%
%TO.N,PP_VDD_0V9*%
X92202000Y-121920000D03*
%TO.P,U1,E1,output_0-*%
%TO.N,output_0-*%
X117602000Y-119380000D03*
%TO.P,U1,E2,output_0+*%
%TO.N,output_0+*%
X115062000Y-119380000D03*
%TO.P,U1,E3*%
%TO.N,N/C*%
X112522000Y-119380000D03*
%TO.P,U1,E9*%
X97282000Y-119380000D03*
%TO.P,U1,E10,output_5-*%
%TO.N,output_5-*%
X94742000Y-119380000D03*
%TO.P,U1,E11,TAVDD*%
%TO.N,PP_TAVDD_1V8*%
X92202000Y-119380000D03*
%TO.P,U1,F1*%
%TO.N,N/C*%
X117602000Y-116840000D03*
%TO.P,U1,F2*%
X115062000Y-116840000D03*
%TO.P,U1,F3*%
X112522000Y-116840000D03*
%TO.P,U1,F9*%
X97282000Y-116840000D03*
%TO.P,U1,F10,output_4+*%
%TO.N,output_4+*%
X94742000Y-116840000D03*
%TO.P,U1,F11,output_5+*%
%TO.N,output_5+*%
X92202000Y-116840000D03*
%TO.P,U1,G1,TAVDD*%
%TO.N,PP_TAVDD_1V8*%
X117602000Y-114300000D03*
%TO.P,U1,G2,output_1+*%
%TO.N,output_1+*%
X115062000Y-114300000D03*
%TO.P,U1,G3*%
%TO.N,N/C*%
X112522000Y-114300000D03*
%TO.P,U1,G9*%
X97282000Y-114300000D03*
%TO.P,U1,G10,output_3+*%
%TO.N,output_3+*%
X94742000Y-114300000D03*
%TO.P,U1,G11,output_4-*%
%TO.N,output_4-*%
X92202000Y-114300000D03*
%TO.P,U1,H1,output_1-*%
%TO.N,output_1-*%
X117602000Y-111760000D03*
%TO.P,U1,H2,output_2+*%
%TO.N,output_2+*%
X115062000Y-111760000D03*
%TO.P,U1,H10*%
%TO.N,N/C*%
X94742000Y-111760000D03*
%TO.P,U1,H11,output_3-*%
%TO.N,output_3-*%
X92202000Y-111760000D03*
%TO.P,U1,J1,output_2-*%
%TO.N,output_2-*%
X117602000Y-109220000D03*
%TO.P,U1,J2*%
%TO.N,N/C*%
X115062000Y-109220000D03*
%TO.P,U1,J5*%
X107442000Y-109220000D03*
%TO.P,U1,J6*%
X104902000Y-109220000D03*
%TO.P,U1,J7*%
X102362000Y-109220000D03*
%TO.P,U1,J10*%
X94742000Y-109220000D03*
%TO.P,U1,J11*%
X92202000Y-109220000D03*
%TO.P,U1,K1,VSS*%
%TO.N,GND*%
X117602000Y-106680000D03*
%TO.P,U1,K2*%
%TO.N,N/C*%
X115062000Y-106680000D03*
%TO.P,U1,K3*%
X112522000Y-106680000D03*
%TO.P,U1,K4*%
X109982000Y-106680000D03*
%TO.P,U1,K5,vrbias*%
%TO.N,vrbias*%
X107442000Y-106680000D03*
%TO.P,U1,K6,vbias0*%
%TO.N,vbias0*%
X104902000Y-106680000D03*
%TO.P,U1,K7*%
%TO.N,N/C*%
X102362000Y-106680000D03*
%TO.P,U1,K8*%
X99822000Y-106680000D03*
%TO.P,U1,K9,vd1_dummy*%
%TO.N,vd1_dummy*%
X97282000Y-106680000D03*
%TO.P,U1,K10*%
%TO.N,N/C*%
X94742000Y-106680000D03*
%TO.P,U1,K11*%
X92202000Y-106680000D03*
%TO.P,U1,L1,VSS*%
%TO.N,GND*%
X117602000Y-104140000D03*
%TO.P,U1,L2*%
%TO.N,N/C*%
X115062000Y-104140000D03*
%TO.P,U1,L3*%
X112522000Y-104140000D03*
%TO.P,U1,L4,vbias2*%
%TO.N,vbias2*%
X109982000Y-104140000D03*
%TO.P,U1,L5,vbias1*%
%TO.N,vbias1*%
X107442000Y-104140000D03*
%TO.P,U1,L6,vlvl*%
%TO.N,vlvl*%
X104902000Y-104140000D03*
%TO.P,U1,L7,VSS*%
%TO.N,GND*%
X102362000Y-104140000D03*
%TO.P,U1,L8,TAVDD*%
%TO.N,PP_TAVDD_1V8*%
X99822000Y-104140000D03*
%TO.P,U1,L9,iout_dummy*%
%TO.N,iout_dummy*%
X97282000Y-104140000D03*
%TO.P,U1,L10,vlvl_p_dummy*%
%TO.N,vlvl_p_dummy*%
X94742000Y-104140000D03*
%TO.P,U1,L11,VSS*%
%TO.N,GND*%
X92202000Y-104140000D03*
%TD*%
D24*
%TO.P,J30,1,Pin_1*%
%TO.N,/ibias/ibias_rset*%
X124460000Y-67310000D03*
D25*
%TO.P,J30,2,Pin_2*%
%TO.N,/ibias/R2_3*%
X127000000Y-67310000D03*
%TD*%
D16*
%TO.P,C26,1*%
%TO.N,PP_TAVDD_1V8*%
X63000000Y-75725000D03*
%TO.P,C26,2*%
%TO.N,GND*%
X63000000Y-77275000D03*
%TD*%
D24*
%TO.P,J31,1,Pin_1*%
%TO.N,/ibias/ibias_rset*%
X124460000Y-71120000D03*
D25*
%TO.P,J31,2,Pin_2*%
%TO.N,/ibias/R2_4*%
X127000000Y-71120000D03*
%TD*%
D16*
%TO.P,C75,1*%
%TO.N,output_5-*%
X79000000Y-129450000D03*
%TO.P,C75,2*%
%TO.N,GND*%
X79000000Y-131000000D03*
%TD*%
D31*
%TO.P,TP4,1,1*%
%TO.N,GND*%
X49100000Y-98500000D03*
%TD*%
D11*
%TO.P,C70,1*%
%TO.N,output_3+*%
X79000000Y-100775000D03*
%TO.P,C70,2*%
%TO.N,GND*%
X79000000Y-99225000D03*
%TD*%
D13*
%TO.P,R21,1*%
%TO.N,/ibias/R2_4*%
X129985000Y-71120000D03*
%TO.P,R21,2*%
%TO.N,GND*%
X131635000Y-71120000D03*
%TD*%
D12*
%TO.P,C20,1*%
%TO.N,PP_VDD_0V9*%
X75775000Y-145490000D03*
%TO.P,C20,2*%
%TO.N,GND*%
X74225000Y-145490000D03*
%TD*%
%TO.P,C19,1*%
%TO.N,PP_SYS_3V3*%
X136165000Y-70205000D03*
%TO.P,C19,2*%
%TO.N,GND*%
X134615000Y-70205000D03*
%TD*%
D10*
%TO.P,R11,1*%
%TO.N,output_4-*%
X73000000Y-113825000D03*
%TO.P,R11,2*%
%TO.N,GND*%
X73000000Y-112175000D03*
%TD*%
D16*
%TO.P,C8,1*%
%TO.N,output_3-*%
X76000000Y-103225000D03*
%TO.P,C8,2*%
%TO.N,GND*%
X76000000Y-104775000D03*
%TD*%
D24*
%TO.P,J28,1,Pin_1*%
%TO.N,/ibias/ibias_rset*%
X124460000Y-59690000D03*
D25*
%TO.P,J28,2,Pin_2*%
%TO.N,/ibias/R2_1*%
X127000000Y-59690000D03*
%TD*%
D16*
%TO.P,C9,1*%
%TO.N,output_4+*%
X76000000Y-116225000D03*
%TO.P,C9,2*%
%TO.N,GND*%
X76000000Y-117775000D03*
%TD*%
%TO.P,C72,1*%
%TO.N,output_4+*%
X79000000Y-116225000D03*
%TO.P,C72,2*%
%TO.N,GND*%
X79000000Y-117775000D03*
%TD*%
%TO.P,C68,1*%
%TO.N,output_2+*%
X133000000Y-102225000D03*
%TO.P,C68,2*%
%TO.N,GND*%
X133000000Y-103775000D03*
%TD*%
D10*
%TO.P,R6,1*%
%TO.N,output_3+*%
X73000000Y-100825000D03*
%TO.P,R6,2*%
%TO.N,GND*%
X73000000Y-99175000D03*
%TD*%
D12*
%TO.P,C23,1*%
%TO.N,PP_VDD_0V9*%
X75725000Y-150000000D03*
%TO.P,C23,2*%
%TO.N,GND*%
X74175000Y-150000000D03*
%TD*%
D26*
%TO.P,R18,1*%
%TO.N,/ibias/R1_4*%
X113855000Y-71120000D03*
%TO.P,R18,2*%
%TO.N,/ibias/ibias_m*%
X112205000Y-71120000D03*
%TD*%
D21*
%TO.P,R5,1*%
%TO.N,output_2+*%
X139000000Y-102175000D03*
%TO.P,R5,2*%
%TO.N,GND*%
X139000000Y-103825000D03*
%TD*%
D28*
%TO.P,C13,1*%
%TO.N,PP_SYS_3V3*%
X94050000Y-71200000D03*
%TO.P,C13,2*%
%TO.N,GND*%
X95600000Y-71200000D03*
%TD*%
D16*
%TO.P,C25,1*%
%TO.N,PP_TAVDD_1V8*%
X61500000Y-75725000D03*
%TO.P,C25,2*%
%TO.N,GND*%
X61500000Y-77275000D03*
%TD*%
D14*
%TO.P,J18,1*%
%TO.N,vbias2*%
X156000000Y-88000000D03*
D15*
%TO.P,J18,2*%
%TO.N,GND*%
X153447300Y-85447300D03*
%TO.P,J18,3,Ext*%
X153447300Y-90552700D03*
%TO.P,J18,4,Ext*%
X158552700Y-90552700D03*
%TO.P,J18,5,Ext*%
X158552700Y-85447300D03*
%TD*%
D16*
%TO.P,C34,1*%
%TO.N,PP_VDDIO_1V8*%
X144500000Y-147225000D03*
%TO.P,C34,2*%
%TO.N,GND*%
X144500000Y-148775000D03*
%TD*%
%TO.P,C1,1*%
%TO.N,output_0+*%
X136000000Y-129725000D03*
%TO.P,C1,2*%
%TO.N,GND*%
X136000000Y-131275000D03*
%TD*%
D26*
%TO.P,R17,1*%
%TO.N,/ibias/R1_3*%
X113855000Y-67310000D03*
%TO.P,R17,2*%
%TO.N,/ibias/ibias_m*%
X112205000Y-67310000D03*
%TD*%
D24*
%TO.P,J26,1,Pin_1*%
%TO.N,/ibias/ibias_rset*%
X119380000Y-67310000D03*
D25*
%TO.P,J26,2,Pin_2*%
%TO.N,/ibias/R1_3*%
X116840000Y-67310000D03*
%TD*%
D14*
%TO.P,J15,1*%
%TO.N,output_5+*%
X64000000Y-130000000D03*
D15*
%TO.P,J15,2*%
%TO.N,output_5-*%
X61447300Y-127447300D03*
%TO.P,J15,3,Ext*%
X61447300Y-132552700D03*
%TO.P,J15,4,Ext*%
X66552700Y-132552700D03*
%TO.P,J15,5,Ext*%
X66552700Y-127447300D03*
%TD*%
D13*
%TO.P,R14,1*%
%TO.N,/ibias/R2_1*%
X129985000Y-59690000D03*
%TO.P,R14,2*%
%TO.N,GND*%
X131635000Y-59690000D03*
%TD*%
D12*
%TO.P,C31,1*%
%TO.N,PP_SYS_3V3*%
X89775000Y-67750000D03*
%TO.P,C31,2*%
%TO.N,GND*%
X88225000Y-67750000D03*
%TD*%
D24*
%TO.P,J32,1,Pin_1*%
%TO.N,iout_dummy_amp*%
X80000000Y-69450000D03*
D25*
%TO.P,J32,2,Pin_2*%
%TO.N,iout_dummy_amp_conn*%
X80000000Y-71990000D03*
%TO.P,J32,3,Pin_3*%
%TO.N,iout_dummy*%
X80000000Y-74530000D03*
%TD*%
D22*
%TO.P,J35,1,1*%
%TO.N,PP_SYS_3V3*%
X91224800Y-55000000D03*
%TO.P,J35,2,2*%
X96000000Y-55000000D03*
%TO.P,J35,3,3*%
X93612400Y-52612400D03*
%TO.P,J35,4,4*%
X93612400Y-57387600D03*
%TD*%
D16*
%TO.P,C71,1*%
%TO.N,output_3-*%
X79000000Y-103225000D03*
%TO.P,C71,2*%
%TO.N,GND*%
X79000000Y-104775000D03*
%TD*%
%TO.P,C43,1*%
%TO.N,vlvl*%
X80000000Y-63225000D03*
%TO.P,C43,2*%
%TO.N,GND*%
X80000000Y-64775000D03*
%TD*%
D21*
%TO.P,R12,1*%
%TO.N,output_5-*%
X73000000Y-129400000D03*
%TO.P,R12,2*%
%TO.N,GND*%
X73000000Y-131050000D03*
%TD*%
D24*
%TO.P,J29,1,Pin_1*%
%TO.N,/ibias/ibias_rset*%
X124460000Y-63500000D03*
D25*
%TO.P,J29,2,Pin_2*%
%TO.N,/ibias/R2_2*%
X127000000Y-63500000D03*
%TD*%
D16*
%TO.P,C27,1*%
%TO.N,PP_TAVDD_1V8*%
X64500000Y-75725000D03*
%TO.P,C27,2*%
%TO.N,GND*%
X64500000Y-77275000D03*
%TD*%
%TO.P,C38,1*%
%TO.N,vrbias*%
X146000000Y-76225000D03*
%TO.P,C38,2*%
%TO.N,GND*%
X146000000Y-77775000D03*
%TD*%
D17*
%TO.P,H1,1*%
%TO.N,N/C*%
X159000000Y-53000000D03*
D18*
X159000000Y-53000000D03*
%TD*%
D17*
%TO.P,H4,1*%
%TO.N,N/C*%
X51000000Y-53000000D03*
D18*
X51000000Y-53000000D03*
%TD*%
D13*
%TO.P,R19,1*%
%TO.N,/ibias/R2_2*%
X129985000Y-63500000D03*
%TO.P,R19,2*%
%TO.N,GND*%
X131635000Y-63500000D03*
%TD*%
D16*
%TO.P,C65,1*%
%TO.N,output_0+*%
X133000000Y-129725000D03*
%TO.P,C65,2*%
%TO.N,GND*%
X133000000Y-131275000D03*
%TD*%
%TO.P,C40,1*%
%TO.N,vlvl*%
X75500000Y-63225000D03*
%TO.P,C40,2*%
%TO.N,GND*%
X75500000Y-64775000D03*
%TD*%
D26*
%TO.P,R13,1*%
%TO.N,/ibias/R1_1*%
X113855000Y-59690000D03*
%TO.P,R13,2*%
%TO.N,/ibias/ibias_m*%
X112205000Y-59690000D03*
%TD*%
D14*
%TO.P,J4,1*%
%TO.N,output_0+*%
X145000000Y-130000000D03*
D15*
%TO.P,J4,2*%
%TO.N,output_0-*%
X142447300Y-127447300D03*
%TO.P,J4,3,Ext*%
X142447300Y-132552700D03*
%TO.P,J4,4,Ext*%
X147552700Y-132552700D03*
%TO.P,J4,5,Ext*%
X147552700Y-127447300D03*
%TD*%
D24*
%TO.P,J25,1,Pin_1*%
%TO.N,/ibias/ibias_rset*%
X119380000Y-63500000D03*
D25*
%TO.P,J25,2,Pin_2*%
%TO.N,/ibias/R1_2*%
X116840000Y-63500000D03*
%TD*%
D12*
%TO.P,C30,1*%
%TO.N,PP_SYS_3V3*%
X89775000Y-66250000D03*
%TO.P,C30,2*%
%TO.N,GND*%
X88225000Y-66250000D03*
%TD*%
D14*
%TO.P,J7,1*%
%TO.N,output_1+*%
X145000000Y-115000000D03*
D15*
%TO.P,J7,2*%
%TO.N,output_1-*%
X142447300Y-112447300D03*
%TO.P,J7,3,Ext*%
X142447300Y-117552700D03*
%TO.P,J7,4,Ext*%
X147552700Y-117552700D03*
%TO.P,J7,5,Ext*%
X147552700Y-112447300D03*
%TD*%
D12*
%TO.P,C28,1*%
%TO.N,PP_SYS_3V3*%
X89775000Y-63250000D03*
%TO.P,C28,2*%
%TO.N,GND*%
X88225000Y-63250000D03*
%TD*%
D21*
%TO.P,R8,1*%
%TO.N,output_3-*%
X73000000Y-103175000D03*
%TO.P,R8,2*%
%TO.N,GND*%
X73000000Y-104825000D03*
%TD*%
D17*
%TO.P,H2,1*%
%TO.N,N/C*%
X159000000Y-161000000D03*
D18*
X159000000Y-161000000D03*
%TD*%
D11*
%TO.P,C10,1*%
%TO.N,output_5+*%
X76000000Y-127000000D03*
%TO.P,C10,2*%
%TO.N,GND*%
X76000000Y-125450000D03*
%TD*%
D31*
%TO.P,TP3,1,1*%
%TO.N,GND*%
X151900000Y-161100000D03*
%TD*%
D14*
%TO.P,J22,1*%
%TO.N,iout_dummy_amp_conn*%
X70750000Y-71500000D03*
D15*
%TO.P,J22,2*%
%TO.N,GND*%
X68197300Y-68947300D03*
%TO.P,J22,3,Ext*%
X68197300Y-74052700D03*
%TO.P,J22,4,Ext*%
X73302700Y-74052700D03*
%TO.P,J22,5,Ext*%
X73302700Y-68947300D03*
%TD*%
D22*
%TO.P,J1,1,1*%
%TO.N,PP_VDDIO_1V8*%
X156000000Y-151000000D03*
%TO.P,J1,2,2*%
X156000000Y-146224800D03*
%TO.P,J1,3,3*%
X153612400Y-148612400D03*
%TO.P,J1,4,4*%
X158387600Y-148612400D03*
%TD*%
D16*
%TO.P,C39,1*%
%TO.N,vrbias*%
X147500000Y-76225000D03*
%TO.P,C39,2*%
%TO.N,GND*%
X147500000Y-77775000D03*
%TD*%
D11*
%TO.P,C74,1*%
%TO.N,output_5+*%
X79000000Y-127027000D03*
%TO.P,C74,2*%
%TO.N,GND*%
X79000000Y-125477000D03*
%TD*%
D31*
%TO.P,TP1,1,1*%
%TO.N,GND*%
X105000000Y-51000000D03*
%TD*%
D13*
%TO.P,R15,1*%
%TO.N,iout_dummy*%
X93566880Y-79604000D03*
%TO.P,R15,2*%
%TO.N,GND*%
X95216880Y-79604000D03*
%TD*%
D11*
%TO.P,C2,1*%
%TO.N,output_0-*%
X136000000Y-127275000D03*
%TO.P,C2,2*%
%TO.N,GND*%
X136000000Y-125725000D03*
%TD*%
D24*
%TO.P,J21,1,Pin_1*%
%TO.N,/ibias/ibias_rset*%
X119380000Y-59690000D03*
D25*
%TO.P,J21,2,Pin_2*%
%TO.N,/ibias/R1_1*%
X116840000Y-59690000D03*
%TD*%
D10*
%TO.P,R7,1*%
%TO.N,output_2-*%
X139000000Y-99825000D03*
%TO.P,R7,2*%
%TO.N,GND*%
X139000000Y-98175000D03*
%TD*%
%TO.P,R2,1*%
%TO.N,output_0-*%
X139000000Y-127325000D03*
%TO.P,R2,2*%
%TO.N,GND*%
X139000000Y-125675000D03*
%TD*%
D28*
%TO.P,C14,1*%
%TO.N,PP_SYS_3V3*%
X94050000Y-69700000D03*
%TO.P,C14,2*%
%TO.N,GND*%
X95600000Y-69700000D03*
%TD*%
D32*
%TO.P,U2,1,R*%
%TO.N,/ibias/ibias_rset*%
X119270000Y-78000000D03*
D33*
%TO.P,U2,2,+V*%
%TO.N,vbias1*%
X118000000Y-76730000D03*
%TO.P,U2,3,-V*%
%TO.N,/ibias/ibias_m*%
X116730000Y-78000000D03*
%TD*%
D16*
%TO.P,C12,1*%
%TO.N,output_5-*%
X76000000Y-129450000D03*
%TO.P,C12,2*%
%TO.N,GND*%
X76000000Y-131000000D03*
%TD*%
%TO.P,C3,1*%
%TO.N,output_1+*%
X136000000Y-116225000D03*
%TO.P,C3,2*%
%TO.N,GND*%
X136000000Y-117775000D03*
%TD*%
D11*
%TO.P,C73,1*%
%TO.N,output_4-*%
X79000000Y-113775000D03*
%TO.P,C73,2*%
%TO.N,GND*%
X79000000Y-112225000D03*
%TD*%
D22*
%TO.P,J3,1,1*%
%TO.N,PP_VDD_0V9*%
X80000000Y-158000000D03*
%TO.P,J3,2,2*%
X84775200Y-158000000D03*
%TO.P,J3,3,3*%
X82387600Y-155612400D03*
%TO.P,J3,4,4*%
X82387600Y-160387600D03*
%TD*%
D14*
%TO.P,J20,1*%
%TO.N,vlvl_p_dummy*%
X52000000Y-88000000D03*
D15*
%TO.P,J20,2*%
%TO.N,GND*%
X49447300Y-85447300D03*
%TO.P,J20,3,Ext*%
X49447300Y-90552700D03*
%TO.P,J20,4,Ext*%
X54552700Y-90552700D03*
%TO.P,J20,5,Ext*%
X54552700Y-85447300D03*
%TD*%
D14*
%TO.P,J9,1*%
%TO.N,output_2+*%
X145000000Y-101000000D03*
D15*
%TO.P,J9,2*%
%TO.N,output_2-*%
X142447300Y-98447300D03*
%TO.P,J9,3,Ext*%
X142447300Y-103552700D03*
%TO.P,J9,4,Ext*%
X147552700Y-103552700D03*
%TO.P,J9,5,Ext*%
X147552700Y-98447300D03*
%TD*%
D12*
%TO.P,C22,1*%
%TO.N,PP_VDD_0V9*%
X75775000Y-148500000D03*
%TO.P,C22,2*%
%TO.N,GND*%
X74225000Y-148500000D03*
%TD*%
D31*
%TO.P,TP2,1,1*%
%TO.N,GND*%
X156650000Y-100900000D03*
%TD*%
D16*
%TO.P,C24,1*%
%TO.N,PP_TAVDD_1V8*%
X60000000Y-75725000D03*
%TO.P,C24,2*%
%TO.N,GND*%
X60000000Y-77275000D03*
%TD*%
D10*
%TO.P,R4,1*%
%TO.N,output_1-*%
X139000000Y-113825000D03*
%TO.P,R4,2*%
%TO.N,GND*%
X139000000Y-112175000D03*
%TD*%
D34*
%TO.N,GND*%
X147500000Y-148775000D03*
X135962000Y-103801000D03*
X74175000Y-150000000D03*
X61500000Y-77275000D03*
X133000000Y-98225000D03*
X134590000Y-70205000D03*
X63000000Y-77275000D03*
X105759000Y-70405000D03*
X88225000Y-67750000D03*
X144500000Y-148775000D03*
X147500000Y-77775000D03*
X133000000Y-131275000D03*
X49100000Y-98500000D03*
X64500000Y-77275000D03*
X76000000Y-131000000D03*
X126275000Y-124500000D03*
X74225000Y-147000000D03*
X131645000Y-67300000D03*
X76000000Y-104775000D03*
X88225000Y-63250000D03*
X79000000Y-125477000D03*
X136000000Y-112225000D03*
X76000000Y-117775000D03*
X126525000Y-116000000D03*
X88225000Y-64750000D03*
X96292000Y-79604000D03*
X106629200Y-61112400D03*
X82450000Y-121250000D03*
X96778000Y-72714000D03*
X126275000Y-123000000D03*
X73000000Y-104825000D03*
X126275000Y-130500000D03*
X82475000Y-119000000D03*
X79000000Y-104775000D03*
X133000000Y-112225000D03*
X152000000Y-161100000D03*
X98725000Y-93500000D03*
X80000000Y-64775000D03*
X139000000Y-131325000D03*
X98725000Y-92000000D03*
X136000000Y-131275000D03*
X105759000Y-72005000D03*
X73000000Y-99200000D03*
X95600000Y-71200000D03*
X75500000Y-64775000D03*
X76000000Y-112225000D03*
X133000000Y-117775000D03*
X79000000Y-112225000D03*
X139000000Y-98175000D03*
X73000000Y-112175000D03*
X133000000Y-103775000D03*
X98725000Y-90500000D03*
X98500000Y-95225000D03*
X139000000Y-112175000D03*
X126275000Y-129000000D03*
X78500000Y-64775000D03*
X79000000Y-99225000D03*
X73000000Y-117825000D03*
X60000000Y-77275000D03*
X144500000Y-77775000D03*
X88225000Y-66250000D03*
X139000000Y-117825000D03*
X146000000Y-148775000D03*
X131645000Y-71125000D03*
X135870000Y-61258800D03*
X136000000Y-125725000D03*
X133000000Y-125725000D03*
X95600000Y-69700000D03*
X134590000Y-71805000D03*
X73000000Y-131050000D03*
X156650000Y-100900000D03*
X139000000Y-103825000D03*
X82450000Y-122750000D03*
X131620000Y-63500000D03*
X94679600Y-78235600D03*
X101250000Y-138775000D03*
X76000000Y-125450000D03*
X74225000Y-148500000D03*
X76000000Y-99225000D03*
X149000000Y-77775000D03*
X79000000Y-117775000D03*
X146000000Y-77775000D03*
X73000000Y-125400000D03*
X143000000Y-148775000D03*
X98725000Y-89000000D03*
X79000000Y-131000000D03*
X139000000Y-125675000D03*
X77000000Y-64775000D03*
X131620000Y-59700000D03*
X105000000Y-51100000D03*
X95600000Y-68200000D03*
X74225000Y-145490000D03*
X136000000Y-117775000D03*
X108343401Y-149750000D03*
X136000000Y-98225000D03*
X99750000Y-138775000D03*
X126525000Y-117500000D03*
%TO.N,PP_SYS_3V3*%
X89775000Y-67750000D03*
X94000000Y-67200000D03*
X89775000Y-66250000D03*
X89775000Y-64750000D03*
X108400000Y-72000000D03*
X89775000Y-63250000D03*
X136200000Y-72900000D03*
%TO.N,PP_VDD_0V9*%
X84000000Y-121250000D03*
X75775000Y-147000000D03*
X124725000Y-123000000D03*
X124725000Y-124500000D03*
X75775000Y-145490000D03*
X75725000Y-150000000D03*
X75775000Y-148500000D03*
X84000000Y-122750000D03*
%TO.N,PP_TAVDD_1V8*%
X84025000Y-119000000D03*
X63000000Y-75725000D03*
X61500000Y-75725000D03*
X60000000Y-75725000D03*
X64500000Y-75725000D03*
X124975000Y-117500000D03*
X124975000Y-116000000D03*
X98500000Y-96775000D03*
%TO.N,PP_VDDIO_1V8*%
X101250000Y-137225000D03*
X147500000Y-147225000D03*
X144500000Y-147225000D03*
X99750000Y-137225000D03*
X124725000Y-129000000D03*
X146000000Y-147225000D03*
X143000000Y-147225000D03*
X124725000Y-130500000D03*
X108500000Y-140750000D03*
%TO.N,vlvl*%
X78500000Y-63225000D03*
X80000000Y-63225000D03*
X75500000Y-63225000D03*
X77000000Y-63225000D03*
%TO.N,vrbias*%
X149000000Y-76225000D03*
X144500000Y-76225000D03*
X147500000Y-76225000D03*
X146000000Y-76225000D03*
%TO.N,/ibias/ibias_m*%
X112205000Y-59690000D03*
X112205000Y-63500000D03*
X112205000Y-67310000D03*
X112205000Y-71120000D03*
%TO.N,IBIAS_SEL3*%
X141700000Y-66000000D03*
X103600000Y-68000000D03*
X133000000Y-68200000D03*
%TO.N,IBIAS_SEL4*%
X110200000Y-69400000D03*
X141300000Y-66800000D03*
%TO.N,IBIAS_SEL1*%
X110100000Y-61400000D03*
X141100000Y-64200000D03*
%TO.N,IBIAS_SEL2*%
X103800000Y-62600000D03*
X141700000Y-65100000D03*
X133000000Y-62400000D03*
%TO.N,PP_AD2_3V3*%
X109493001Y-146397250D03*
X103425000Y-142000000D03*
%TD*%
D35*
%TO.N,SPI_COPI*%
X111675002Y-140775002D02*
X111675002Y-142547250D01*
X104902000Y-129540000D02*
X106200000Y-130838000D01*
X106200000Y-135300000D02*
X111675002Y-140775002D01*
X106200000Y-130838000D02*
X106200000Y-135300000D01*
%TO.N,IO_UCLK_3V3*%
X113600000Y-153600000D02*
X113600000Y-157320000D01*
X113600000Y-157320000D02*
X112380000Y-158540000D01*
X111024998Y-151024998D02*
X113600000Y-153600000D01*
X111024998Y-148452750D02*
X111024998Y-151024998D01*
%TO.N,SPI_CLK*%
X111200000Y-128218000D02*
X111200000Y-139150528D01*
X111200000Y-139150528D02*
X112974999Y-140925527D01*
X112974999Y-140925527D02*
X112974999Y-142547250D01*
X109982000Y-127000000D02*
X111200000Y-128218000D01*
D36*
%TO.N,GND*%
X96163320Y-72714000D02*
X96010920Y-72866400D01*
X151900000Y-161100000D02*
X152000000Y-161100000D01*
D37*
X131635000Y-71120000D02*
X131640000Y-71120000D01*
X131640000Y-71120000D02*
X131645000Y-71125000D01*
D36*
X73000000Y-99175000D02*
X73000000Y-99200000D01*
X94679600Y-78235600D02*
X94679600Y-77138320D01*
D37*
X106629200Y-61112400D02*
X106609000Y-61132600D01*
X131635000Y-63500000D02*
X131620000Y-63500000D01*
X135565000Y-61563800D02*
X135565000Y-62542500D01*
D36*
X108343401Y-149750000D02*
X108389200Y-149704201D01*
X94679600Y-77138320D02*
X94674880Y-77133600D01*
X96778000Y-72714000D02*
X96163320Y-72714000D01*
D37*
X134615000Y-71805000D02*
X134590000Y-71805000D01*
X106609000Y-61132600D02*
X106609000Y-62542500D01*
X134615000Y-70205000D02*
X134590000Y-70205000D01*
X135870000Y-61258800D02*
X135565000Y-61563800D01*
D38*
X95216880Y-79604000D02*
X96292000Y-79604000D01*
D37*
X131635000Y-67310000D02*
X131645000Y-67300000D01*
D36*
X108389200Y-149704201D02*
X108389200Y-147952750D01*
D37*
X131635000Y-59690000D02*
X131630000Y-59690000D01*
X131630000Y-59690000D02*
X131620000Y-59700000D01*
D35*
%TO.N,TSCAN_OUT*%
X104250000Y-138500000D02*
X107600000Y-138500000D01*
X92202000Y-124460000D02*
X93342000Y-125600000D01*
X93342000Y-125600000D02*
X100030638Y-125600000D01*
X100800000Y-135050000D02*
X104250000Y-138500000D01*
X100030638Y-125600000D02*
X100800000Y-126369362D01*
X100800000Y-126369362D02*
X100800000Y-135050000D01*
X109725001Y-140625001D02*
X109725001Y-142547250D01*
X107600000Y-138500000D02*
X109725001Y-140625001D01*
%TO.N,LVLS_EN*%
X106625000Y-142000000D02*
X107877751Y-142000000D01*
X107400000Y-151400000D02*
X109840000Y-153840000D01*
X107400000Y-144390251D02*
X107400000Y-151400000D01*
X109840000Y-153840000D02*
X109840000Y-156000000D01*
X107877751Y-142000000D02*
X108425001Y-142547250D01*
X108425001Y-143365250D02*
X107400000Y-144390251D01*
X108425001Y-142547250D02*
X108425001Y-143365250D01*
%TO.N,SPI_CS_L*%
X113625001Y-141212599D02*
X113625001Y-142547250D01*
X113800000Y-130818000D02*
X113800000Y-141037600D01*
X112522000Y-129540000D02*
X113800000Y-130818000D01*
X113800000Y-141037600D02*
X113625001Y-141212599D01*
%TO.N,IO_UCLK*%
X106200000Y-137600000D02*
X107900000Y-137600000D01*
X103800000Y-135200000D02*
X106200000Y-137600000D01*
X107900000Y-137600000D02*
X111025001Y-140725001D01*
X111025001Y-140725001D02*
X111025001Y-142547250D01*
X102362000Y-127000000D02*
X103800000Y-128438000D01*
X103800000Y-128438000D02*
X103800000Y-135200000D01*
D37*
%TO.N,PP_SYS_3V3*%
X136165000Y-71805000D02*
X136165000Y-72865000D01*
D36*
X94050000Y-67250000D02*
X94000000Y-67200000D01*
X94050000Y-68200000D02*
X94050000Y-72841040D01*
D37*
X107309000Y-72005000D02*
X107259000Y-71955000D01*
X107259000Y-71955000D02*
X107259000Y-68267500D01*
X136165000Y-72865000D02*
X136200000Y-72900000D01*
X136215000Y-71755000D02*
X136215000Y-68267500D01*
X136165000Y-71805000D02*
X136215000Y-71755000D01*
X108395000Y-72005000D02*
X108400000Y-72000000D01*
D36*
X94050000Y-68200000D02*
X94050000Y-67250000D01*
X94050000Y-72841040D02*
X94024640Y-72866400D01*
D37*
X107309000Y-72005000D02*
X108395000Y-72005000D01*
D35*
%TO.N,SPI_COPI_3V3*%
X114920000Y-154120000D02*
X114920000Y-156000000D01*
X111674999Y-150874999D02*
X114920000Y-154120000D01*
X111674999Y-148452750D02*
X111674999Y-150874999D01*
%TO.N,TSCAN_OUT_3V3*%
X109840000Y-158540000D02*
X111100000Y-157280000D01*
X111100000Y-157280000D02*
X111100000Y-152800000D01*
X111100000Y-152800000D02*
X109724998Y-151424998D01*
X109724998Y-151424998D02*
X109724998Y-148452750D01*
%TO.N,SPI_CIPO_3V3*%
X112324998Y-148452750D02*
X112324998Y-150624998D01*
X112324998Y-150624998D02*
X116200000Y-154500000D01*
X116200000Y-154500000D02*
X116200000Y-157260000D01*
X116200000Y-157260000D02*
X114920000Y-158540000D01*
%TO.N,RST_L_3V3*%
X115574999Y-148452750D02*
X115574999Y-149574999D01*
X121200000Y-155200000D02*
X121200000Y-157340000D01*
X121200000Y-157340000D02*
X120000000Y-158540000D01*
X115574999Y-149574999D02*
X121200000Y-155200000D01*
%TO.N,SPI_CS_L_3V3*%
X117460000Y-158540000D02*
X118700000Y-157300000D01*
X118700000Y-157300000D02*
X118700000Y-154700000D01*
X113624998Y-149624998D02*
X113624998Y-148452750D01*
X118700000Y-154700000D02*
X113624998Y-149624998D01*
%TO.N,SPI_CLK_3V3*%
X112974999Y-149874999D02*
X117460000Y-154360000D01*
X112974999Y-148452750D02*
X112974999Y-149874999D01*
X117460000Y-154360000D02*
X117460000Y-156000000D01*
%TO.N,SPI_CIPO*%
X107442000Y-127000000D02*
X107442000Y-127042000D01*
X108700000Y-128300000D02*
X108700000Y-137225264D01*
X107442000Y-127042000D02*
X108700000Y-128300000D01*
X112325001Y-140850265D02*
X112325001Y-142547250D01*
X108700000Y-137225264D02*
X112325001Y-140850265D01*
%TO.N,TSCAN_EN_3V3*%
X112380000Y-153180000D02*
X112380000Y-156000000D01*
X110374999Y-151174999D02*
X112380000Y-153180000D01*
X110374999Y-148452750D02*
X110374999Y-151174999D01*
%TO.N,SCAN_EN*%
X114925000Y-139675000D02*
X116300000Y-138300000D01*
X114925000Y-142547250D02*
X114925000Y-139675000D01*
X116300000Y-138300000D02*
X116300000Y-123158000D01*
X116300000Y-123158000D02*
X115062000Y-121920000D01*
%TO.N,RST_L*%
X115574999Y-139625001D02*
X118800000Y-136400000D01*
X118800000Y-125658000D02*
X117602000Y-124460000D01*
X115574999Y-142547250D02*
X115574999Y-139625001D01*
X118800000Y-136400000D02*
X118800000Y-125658000D01*
%TO.N,SCAN_EN_3V3*%
X114924998Y-149924998D02*
X120000000Y-155000000D01*
X114924998Y-148452750D02*
X114924998Y-149924998D01*
X120000000Y-155000000D02*
X120000000Y-156000000D01*
%TO.N,TSCAN_EN*%
X104406400Y-138006400D02*
X107706400Y-138006400D01*
X96000000Y-123200000D02*
X100200000Y-123200000D01*
X100200000Y-123200000D02*
X101206400Y-124206400D01*
X94742000Y-121942000D02*
X96000000Y-123200000D01*
X101206400Y-124206400D02*
X101206400Y-134806400D01*
X101206400Y-134806400D02*
X104406400Y-138006400D01*
X94742000Y-121920000D02*
X94742000Y-121942000D01*
X107706400Y-138006400D02*
X110375002Y-140675002D01*
X110375002Y-140675002D02*
X110375002Y-142547250D01*
%TO.N,CLK*%
X99760000Y-129540000D02*
X99822000Y-129540000D01*
X98750000Y-130550000D02*
X99760000Y-129540000D01*
X98750000Y-151000000D02*
X98750000Y-130550000D01*
%TO.N,vlvl_p_dummy*%
X66250000Y-95250000D02*
X78637717Y-95250000D01*
X92970000Y-102870000D02*
X94240000Y-104140000D01*
X52000000Y-88000000D02*
X59000000Y-88000000D01*
X94240000Y-104140000D02*
X94742000Y-104140000D01*
X86257717Y-102870000D02*
X92970000Y-102870000D01*
X78637717Y-95250000D02*
X86257717Y-102870000D01*
X59000000Y-88000000D02*
X66250000Y-95250000D01*
%TO.N,PP_VDDIO_1V8*%
X108500000Y-140750000D02*
X109075002Y-141325002D01*
X109075002Y-141325002D02*
X109075002Y-142547250D01*
%TO.N,vbias0*%
X115800000Y-88000000D02*
X139000000Y-88000000D01*
X104902000Y-106498000D02*
X106200000Y-105200000D01*
X104902000Y-106680000D02*
X104902000Y-106498000D01*
X106200000Y-105200000D02*
X106200000Y-97600000D01*
X106200000Y-97600000D02*
X115800000Y-88000000D01*
%TO.N,vd1_dummy*%
X94300000Y-102900000D02*
X95300000Y-102900000D01*
X92800000Y-100300000D02*
X93400000Y-100900000D01*
X93400000Y-100900000D02*
X93400000Y-102000000D01*
X96100000Y-105498000D02*
X97282000Y-106680000D01*
X86100000Y-100300000D02*
X92800000Y-100300000D01*
X95300000Y-102900000D02*
X96100000Y-103700000D01*
X71000000Y-88000000D02*
X73800000Y-88000000D01*
X96100000Y-103700000D02*
X96100000Y-105498000D01*
X93400000Y-102000000D02*
X94300000Y-102900000D01*
X73800000Y-88000000D02*
X86100000Y-100300000D01*
%TO.N,vbias2*%
X124700000Y-102800000D02*
X134500000Y-93000000D01*
X134500000Y-93000000D02*
X144000000Y-93000000D01*
X144000000Y-93000000D02*
X149000000Y-88000000D01*
X149000000Y-88000000D02*
X156000000Y-88000000D01*
X111322000Y-102800000D02*
X124700000Y-102800000D01*
X109982000Y-104140000D02*
X111322000Y-102800000D01*
%TO.N,iout_dummy*%
X93500000Y-81500000D02*
X93566880Y-81500000D01*
X93566880Y-95566880D02*
X96000000Y-98000000D01*
X94024640Y-79146240D02*
X93566880Y-79604000D01*
X87070400Y-75070400D02*
X93500000Y-81500000D01*
X93566880Y-79604000D02*
X93566880Y-81500000D01*
X96000000Y-98000000D02*
X96000000Y-102858000D01*
X80000000Y-74530000D02*
X80540400Y-75070400D01*
X94024640Y-77133600D02*
X94024640Y-79146240D01*
X96000000Y-102858000D02*
X97282000Y-104140000D01*
X80540400Y-75070400D02*
X87070400Y-75070400D01*
X93566880Y-81500000D02*
X93566880Y-95566880D01*
%TO.N,iout_dummy_amp*%
X94674880Y-73525120D02*
X94674880Y-72866400D01*
X92100000Y-74100000D02*
X94100000Y-74100000D01*
X94100000Y-74100000D02*
X94674880Y-73525120D01*
X80000000Y-69450000D02*
X87450000Y-69450000D01*
X87450000Y-69450000D02*
X92100000Y-74100000D01*
%TO.N,/ibias/ibias_rset*%
X106270000Y-66700000D02*
X107670000Y-66700000D01*
X107909000Y-63961000D02*
X107909000Y-62542500D01*
X134915000Y-68267500D02*
X134915000Y-62542500D01*
X105959000Y-62542500D02*
X105959000Y-63889000D01*
X105959000Y-68267500D02*
X105959000Y-67011000D01*
X136865000Y-62542500D02*
X136865000Y-68267500D01*
X106270000Y-64200000D02*
X107670000Y-64200000D01*
X105959000Y-63889000D02*
X106270000Y-64200000D01*
X107670000Y-64200000D02*
X107909000Y-63961000D01*
X105959000Y-67011000D02*
X106270000Y-66700000D01*
X107909000Y-66939000D02*
X107909000Y-68267500D01*
X107670000Y-66700000D02*
X107909000Y-66939000D01*
%TO.N,/ibias/R1_1*%
X109276800Y-60700000D02*
X108559000Y-61417800D01*
X108559000Y-61417800D02*
X108559000Y-62542500D01*
X112845000Y-60700000D02*
X109276800Y-60700000D01*
X113855000Y-59690000D02*
X112845000Y-60700000D01*
X116840000Y-59690000D02*
X113855000Y-59690000D01*
%TO.N,/ibias/R1_2*%
X112115600Y-65176400D02*
X113792000Y-63500000D01*
X105309000Y-62542500D02*
X105308400Y-62543100D01*
X105308400Y-64538400D02*
X105946400Y-65176400D01*
X116840000Y-63500000D02*
X113855000Y-63500000D01*
X113792000Y-63500000D02*
X113855000Y-63500000D01*
X105308400Y-62543100D02*
X105308400Y-64538400D01*
X105946400Y-65176400D02*
X112115600Y-65176400D01*
%TO.N,/ibias/R1_3*%
X106034800Y-65735200D02*
X105309000Y-66461000D01*
X105309000Y-66461000D02*
X105309000Y-68267500D01*
X113855000Y-67310000D02*
X112280200Y-65735200D01*
X116840000Y-67310000D02*
X113855000Y-67310000D01*
X112280200Y-65735200D02*
X106034800Y-65735200D01*
%TO.N,/ibias/R1_4*%
X113855000Y-71120000D02*
X113855000Y-70979800D01*
X109118400Y-70104000D02*
X108559000Y-69544600D01*
X108559000Y-69544600D02*
X108559000Y-68267500D01*
X113855000Y-71120000D02*
X116840000Y-71120000D01*
X112979200Y-70104000D02*
X109118400Y-70104000D01*
X113855000Y-70979800D02*
X112979200Y-70104000D01*
%TO.N,/ibias/R2_1*%
X136720000Y-60700000D02*
X137515000Y-61495000D01*
X129985000Y-60215000D02*
X130470000Y-60700000D01*
X137515000Y-61495000D02*
X137515000Y-62542500D01*
X130470000Y-60700000D02*
X136720000Y-60700000D01*
X129985000Y-59690000D02*
X127000000Y-59690000D01*
X129985000Y-59690000D02*
X129985000Y-60215000D01*
%TO.N,/ibias/R2_2*%
X129985000Y-63715000D02*
X130770000Y-64500000D01*
X129985000Y-63500000D02*
X129985000Y-63715000D01*
X129985000Y-63500000D02*
X127000000Y-63500000D01*
X133570000Y-64500000D02*
X134265000Y-63805000D01*
X134265000Y-63805000D02*
X134265000Y-62542500D01*
X130770000Y-64500000D02*
X133570000Y-64500000D01*
%TO.N,/ibias/R2_3*%
X133670000Y-66400000D02*
X134265000Y-66995000D01*
X129985000Y-67310000D02*
X127000000Y-67310000D01*
X130670000Y-66400000D02*
X133670000Y-66400000D01*
X134265000Y-66995000D02*
X134265000Y-68267500D01*
X129985000Y-67085000D02*
X130670000Y-66400000D01*
X129985000Y-67310000D02*
X129985000Y-67085000D01*
%TO.N,/ibias/R2_4*%
X129985000Y-71120000D02*
X129985000Y-71940000D01*
X131745000Y-73700000D02*
X136400000Y-73700000D01*
X129985000Y-71120000D02*
X127000000Y-71120000D01*
X136400000Y-73700000D02*
X137515000Y-72585000D01*
X137515000Y-72585000D02*
X137515000Y-68267500D01*
X129985000Y-71940000D02*
X131745000Y-73700000D01*
%TO.N,IBIAS_SEL3*%
X161425264Y-66000000D02*
X164300000Y-68874736D01*
X149649472Y-155500000D02*
X147336672Y-153187200D01*
X133067500Y-68267500D02*
X133615000Y-68267500D01*
X125927536Y-153187200D02*
X123800000Y-155314736D01*
X164300000Y-153875264D02*
X162675264Y-155500000D01*
X164300000Y-68874736D02*
X164300000Y-153875264D01*
X103600000Y-68000000D02*
X104391500Y-68000000D01*
X162675264Y-155500000D02*
X149649472Y-155500000D01*
X104391500Y-68000000D02*
X104659000Y-68267500D01*
X147336672Y-153187200D02*
X125927536Y-153187200D01*
X123800000Y-157280000D02*
X122540000Y-158540000D01*
X123800000Y-155314736D02*
X123800000Y-157280000D01*
X141700000Y-66000000D02*
X161425264Y-66000000D01*
X133000000Y-68200000D02*
X133067500Y-68267500D01*
%TO.N,IBIAS_SEL4*%
X163750000Y-68899472D02*
X161650528Y-66800000D01*
X149817808Y-155093600D02*
X162406400Y-155093600D01*
X161650528Y-66800000D02*
X138600000Y-66800000D01*
X138600000Y-66800000D02*
X138165000Y-67235000D01*
X109800000Y-69400000D02*
X109209000Y-68809000D01*
X125419200Y-152780800D02*
X147505008Y-152780800D01*
X110200000Y-69400000D02*
X109800000Y-69400000D01*
X147505008Y-152780800D02*
X149817808Y-155093600D01*
X162406400Y-155093600D02*
X163750000Y-153750000D01*
X163750000Y-153750000D02*
X163750000Y-68899472D01*
X109209000Y-68809000D02*
X109209000Y-68267500D01*
X122540000Y-155660000D02*
X125419200Y-152780800D01*
X138165000Y-67235000D02*
X138165000Y-68267500D01*
X122540000Y-156000000D02*
X122540000Y-155660000D01*
%TO.N,IBIAS_SEL1*%
X127700000Y-154000000D02*
X147000000Y-154000000D01*
X138700000Y-64200000D02*
X138165000Y-63665000D01*
X125080000Y-158540000D02*
X126350000Y-157270000D01*
X138165000Y-63665000D02*
X138165000Y-62542500D01*
X165350000Y-154400000D02*
X163250000Y-156500000D01*
X141100000Y-64200000D02*
X160774736Y-64200000D01*
X163250000Y-156500000D02*
X149500000Y-156500000D01*
X109209000Y-61891000D02*
X109209000Y-62542500D01*
X160774736Y-64200000D02*
X165350000Y-68775264D01*
X109700000Y-61400000D02*
X109209000Y-61891000D01*
X149500000Y-156500000D02*
X147000000Y-154000000D01*
X126350000Y-157270000D02*
X126350000Y-155350000D01*
X165350000Y-68775264D02*
X165350000Y-154400000D01*
X141100000Y-64200000D02*
X138700000Y-64200000D01*
X110100000Y-61400000D02*
X109700000Y-61400000D01*
X126350000Y-155350000D02*
X127700000Y-154000000D01*
%TO.N,IBIAS_SEL2*%
X164800000Y-154125264D02*
X162925264Y-156000000D01*
X127362465Y-153593600D02*
X125080000Y-155876065D01*
X162925264Y-156000000D02*
X149574736Y-156000000D01*
X104601500Y-62600000D02*
X104659000Y-62542500D01*
X141700000Y-65100000D02*
X161100000Y-65100000D01*
X164800000Y-68800000D02*
X164800000Y-154125264D01*
X147168336Y-153593600D02*
X127362465Y-153593600D01*
X149574736Y-156000000D02*
X147168336Y-153593600D01*
X161100000Y-65100000D02*
X164800000Y-68800000D01*
X133000000Y-62400000D02*
X133472500Y-62400000D01*
X125080000Y-155876065D02*
X125080000Y-156000000D01*
X133472500Y-62400000D02*
X133615000Y-62542500D01*
X103800000Y-62600000D02*
X104601500Y-62600000D01*
%TO.N,PP_AD2_3V3*%
X104975000Y-142000000D02*
X103425000Y-142000000D01*
X109075000Y-146815251D02*
X109493001Y-146397250D01*
X109075000Y-148452750D02*
X109075000Y-146815251D01*
%TO.N,iout_dummy_amp_conn*%
X79760000Y-71750000D02*
X71000000Y-71750000D01*
X71000000Y-71750000D02*
X70750000Y-71500000D01*
X80000000Y-71990000D02*
X79760000Y-71750000D01*
%TO.N,output_0+*%
X133050000Y-129675000D02*
X133000000Y-129725000D01*
D39*
X145000000Y-130000000D02*
X142900000Y-130000000D01*
D35*
X130046800Y-127546800D02*
X132225000Y-129725000D01*
X115062000Y-119380000D02*
X116130000Y-119380000D01*
D39*
X142900000Y-130000000D02*
X141800000Y-128900000D01*
D35*
X132225000Y-129725000D02*
X133000000Y-129725000D01*
X125210678Y-120851600D02*
X130046800Y-125687722D01*
X117601600Y-120851600D02*
X125210678Y-120851600D01*
D39*
X139125000Y-129675000D02*
X139000000Y-129675000D01*
D35*
X116130000Y-119380000D02*
X117601600Y-120851600D01*
X130046800Y-125687722D02*
X130046800Y-127546800D01*
X139000000Y-129675000D02*
X133050000Y-129675000D01*
D39*
X141800000Y-128900000D02*
X139900000Y-128900000D01*
X139900000Y-128900000D02*
X139125000Y-129675000D01*
%TO.N,output_0-*%
X142300000Y-128400000D02*
X139900000Y-128400000D01*
X147552700Y-127447300D02*
X147552700Y-132552700D01*
D35*
X130500000Y-125500000D02*
X130500000Y-127359078D01*
D39*
X142447300Y-127447300D02*
X142447300Y-128252700D01*
D36*
X142447300Y-127447300D02*
X147552700Y-127447300D01*
D35*
X131140922Y-128000000D02*
X132275000Y-128000000D01*
D39*
X142447300Y-128252700D02*
X142300000Y-128400000D01*
D35*
X130500000Y-127359078D02*
X131140922Y-128000000D01*
X132275000Y-128000000D02*
X133000000Y-127275000D01*
X133050000Y-127325000D02*
X133000000Y-127275000D01*
X117602000Y-119380000D02*
X118620400Y-120398400D01*
D39*
X147552700Y-132552700D02*
X142447300Y-132552700D01*
D35*
X139000000Y-127325000D02*
X133050000Y-127325000D01*
D39*
X139000000Y-127500000D02*
X139000000Y-127325000D01*
D35*
X125398400Y-120398400D02*
X130500000Y-125500000D01*
X118620400Y-120398400D02*
X125398400Y-120398400D01*
D39*
X139900000Y-128400000D02*
X139000000Y-127500000D01*
%TO.N,output_1+*%
X138950000Y-116225000D02*
X139000000Y-116175000D01*
D35*
X145000000Y-115000000D02*
X140500000Y-115000000D01*
X133000000Y-116225000D02*
X132287499Y-116225000D01*
X131289099Y-115226600D02*
X126606138Y-115226600D01*
X117198400Y-113226600D02*
X116125000Y-114300000D01*
X132287499Y-116225000D02*
X131289099Y-115226600D01*
D39*
X133000000Y-116225000D02*
X138950000Y-116225000D01*
D35*
X140500000Y-115000000D02*
X139325000Y-116175000D01*
X124606138Y-113226600D02*
X117198400Y-113226600D01*
X116125000Y-114300000D02*
X115062000Y-114300000D01*
X139325000Y-116175000D02*
X139000000Y-116175000D01*
X126606138Y-115226600D02*
X124606138Y-113226600D01*
%TO.N,output_1-*%
X133050000Y-113825000D02*
X133000000Y-113775000D01*
X142447300Y-112447300D02*
X142447300Y-114052700D01*
X140387501Y-114500000D02*
X139712501Y-113825000D01*
X142447300Y-112447300D02*
X147552700Y-112447300D01*
X139712501Y-113825000D02*
X139000000Y-113825000D01*
X132287499Y-113775000D02*
X131289099Y-114773400D01*
X126793862Y-114773400D02*
X124793862Y-112773400D01*
X147552700Y-112447300D02*
X147552700Y-117552700D01*
X124793862Y-112773400D02*
X118048400Y-112773400D01*
X117602000Y-112327000D02*
X117602000Y-111760000D01*
X133000000Y-113775000D02*
X132287499Y-113775000D01*
X147552700Y-117552700D02*
X142447300Y-117552700D01*
X139000000Y-113825000D02*
X133050000Y-113825000D01*
X142447300Y-114052700D02*
X142000000Y-114500000D01*
X142000000Y-114500000D02*
X140387501Y-114500000D01*
X118048400Y-112773400D02*
X117602000Y-112327000D01*
X131289099Y-114773400D02*
X126793862Y-114773400D01*
%TO.N,output_2+*%
X131190922Y-102225000D02*
X127651600Y-105764322D01*
X125668862Y-110701600D02*
X127651600Y-108718862D01*
X142248400Y-101226600D02*
X140660901Y-101226600D01*
X140660901Y-101226600D02*
X139712501Y-102175000D01*
X115915000Y-111760000D02*
X115062000Y-111760000D01*
X142475000Y-101000000D02*
X142248400Y-101226600D01*
X138625000Y-102225000D02*
X133000000Y-102225000D01*
X145000000Y-101000000D02*
X142475000Y-101000000D01*
X127651600Y-105764322D02*
X127651600Y-108718862D01*
X125668862Y-110701600D02*
X116973400Y-110701600D01*
X139000000Y-102175000D02*
X138675000Y-102175000D01*
X139712501Y-102175000D02*
X139000000Y-102175000D01*
X116973400Y-110701600D02*
X115915000Y-111760000D01*
X133000000Y-102225000D02*
X131190922Y-102225000D01*
X138675000Y-102175000D02*
X138625000Y-102225000D01*
D39*
%TO.N,output_3+*%
X79825000Y-101600000D02*
X79000000Y-100775000D01*
X94742000Y-114300000D02*
X94742000Y-113663602D01*
D35*
X66859078Y-101000000D02*
X67359078Y-100500000D01*
D39*
X93123500Y-111378302D02*
X92583698Y-110838500D01*
D35*
X71040922Y-100500000D02*
X71365922Y-100825000D01*
X71365922Y-100825000D02*
X73000000Y-100825000D01*
D39*
X94742000Y-113663602D02*
X93123500Y-112045102D01*
D35*
X73000000Y-100825000D02*
X78950000Y-100825000D01*
D39*
X91916898Y-110838500D02*
X91278398Y-110200000D01*
X92583698Y-110838500D02*
X91916898Y-110838500D01*
D35*
X64000000Y-101000000D02*
X66859078Y-101000000D01*
D39*
X86721303Y-110200000D02*
X79825000Y-103303697D01*
D35*
X78950000Y-100825000D02*
X79000000Y-100775000D01*
D39*
X91278398Y-110200000D02*
X86721303Y-110200000D01*
X79825000Y-103303697D02*
X79825000Y-101600000D01*
D35*
X67359078Y-100500000D02*
X71040922Y-100500000D01*
D39*
X93123500Y-112045102D02*
X93123500Y-111378302D01*
D35*
%TO.N,output_2-*%
X142447300Y-98447300D02*
X147552700Y-98447300D01*
X133000000Y-99775000D02*
X127198400Y-105576600D01*
X138625000Y-99775000D02*
X133000000Y-99775000D01*
X127198400Y-105576600D02*
X127198400Y-108531138D01*
X140660901Y-100773400D02*
X139712501Y-99825000D01*
X139000000Y-99825000D02*
X138675000Y-99825000D01*
X147552700Y-98447300D02*
X147552700Y-103552700D01*
X138675000Y-99825000D02*
X138625000Y-99775000D01*
X125481138Y-110248400D02*
X118223400Y-110248400D01*
X147552700Y-103552700D02*
X142447300Y-103552700D01*
X142026600Y-100773400D02*
X140660901Y-100773400D01*
X139712501Y-99825000D02*
X139000000Y-99825000D01*
X142447300Y-98447300D02*
X142447300Y-100352700D01*
X117602000Y-109627000D02*
X117602000Y-109220000D01*
X125481138Y-110248400D02*
X127198400Y-108531138D01*
X118223400Y-110248400D02*
X117602000Y-109627000D01*
X142447300Y-100352700D02*
X142026600Y-100773400D01*
%TO.N,output_3-*%
X70900000Y-101000000D02*
X73000000Y-103100000D01*
X86525000Y-110700000D02*
X90800000Y-110700000D01*
X61447300Y-98447300D02*
X61447300Y-103552700D01*
X66552700Y-103552700D02*
X61447300Y-103552700D01*
X61447300Y-98447300D02*
X66552700Y-98447300D01*
X67500000Y-101000000D02*
X70900000Y-101000000D01*
X73000000Y-103225000D02*
X73325000Y-103225000D01*
X66552700Y-103552700D02*
X66552700Y-101947300D01*
X79000000Y-103175000D02*
X86525000Y-110700000D01*
D39*
X92202000Y-111760000D02*
X91142000Y-110700000D01*
X91142000Y-110700000D02*
X90800000Y-110700000D01*
D35*
X73375000Y-103175000D02*
X79000000Y-103175000D01*
X66552700Y-101947300D02*
X67500000Y-101000000D01*
X73325000Y-103225000D02*
X73375000Y-103175000D01*
X73000000Y-103100000D02*
X73000000Y-103225000D01*
%TO.N,output_4+*%
X93764100Y-115862100D02*
X94742000Y-116840000D01*
X64000000Y-115000000D02*
X66859078Y-115000000D01*
X80325000Y-116175000D02*
X80637900Y-115862100D01*
X66859078Y-115000000D02*
X67110678Y-115251600D01*
X71314099Y-115251600D02*
X72287499Y-116225000D01*
X80637900Y-115862100D02*
X93764100Y-115862100D01*
X67110678Y-115251600D02*
X71314099Y-115251600D01*
X72287499Y-116225000D02*
X78950000Y-116225000D01*
X78950000Y-116225000D02*
X79000000Y-116175000D01*
X79000000Y-116175000D02*
X80325000Y-116175000D01*
%TO.N,output_5+*%
X90700000Y-119300000D02*
X90700000Y-122659078D01*
D39*
X90700000Y-119500000D02*
X90700000Y-118342000D01*
D35*
X80554078Y-128000000D02*
X79973000Y-128000000D01*
D39*
X90700000Y-118342000D02*
X92202000Y-116840000D01*
D35*
X79973000Y-128000000D02*
X79000000Y-127027000D01*
X73398000Y-127027000D02*
X79000000Y-127027000D01*
X73000000Y-127050000D02*
X73375000Y-127050000D01*
X90700000Y-122659078D02*
X90359078Y-123000000D01*
X64000000Y-130000000D02*
X66232239Y-130000000D01*
X85000000Y-123500000D02*
X85000000Y-123554078D01*
X90359078Y-123000000D02*
X85500000Y-123000000D01*
X72050000Y-128000000D02*
X73000000Y-127050000D01*
X85500000Y-123000000D02*
X85000000Y-123500000D01*
X66232239Y-130000000D02*
X68232239Y-128000000D01*
X68232239Y-128000000D02*
X72050000Y-128000000D01*
X85000000Y-123554078D02*
X80554078Y-128000000D01*
X73375000Y-127050000D02*
X73398000Y-127027000D01*
D39*
%TO.N,output_4-*%
X84400000Y-115400000D02*
X85935182Y-115400000D01*
X85945682Y-115410500D02*
X91091500Y-115410500D01*
D35*
X73000000Y-113825000D02*
X73075000Y-113825000D01*
X67298400Y-114798400D02*
X71314099Y-114798400D01*
X80625000Y-115400000D02*
X79000000Y-113775000D01*
X66552700Y-114052700D02*
X67298400Y-114798400D01*
X84400000Y-115400000D02*
X80625000Y-115400000D01*
X72287499Y-113825000D02*
X73000000Y-113825000D01*
X61447300Y-112447300D02*
X66552700Y-112447300D01*
X73125000Y-113775000D02*
X79000000Y-113775000D01*
X66552700Y-112447300D02*
X66552700Y-114052700D01*
X66552700Y-117552700D02*
X61447300Y-117552700D01*
X73075000Y-113825000D02*
X73125000Y-113775000D01*
D39*
X85935182Y-115400000D02*
X85945682Y-115410500D01*
D35*
X71314099Y-114798400D02*
X72287499Y-113825000D01*
D39*
X91091500Y-115410500D02*
X92202000Y-114300000D01*
D35*
X61447300Y-112447300D02*
X61447300Y-117552700D01*
%TO.N,output_5-*%
X66552700Y-130320461D02*
X68419961Y-128453200D01*
X85712900Y-123482100D02*
X90517900Y-123482100D01*
X79996800Y-128453200D02*
X80741800Y-128453200D01*
X73600000Y-129400000D02*
X73650000Y-129450000D01*
X91153200Y-122846800D02*
X91153200Y-118527458D01*
X80741800Y-128453200D02*
X85712900Y-123482100D01*
X72053200Y-128453200D02*
X73000000Y-129400000D01*
X66552700Y-132552700D02*
X66552700Y-130320461D01*
X68419961Y-128453200D02*
X72053200Y-128453200D01*
X91780658Y-117900000D02*
X92400000Y-117900000D01*
X90517900Y-123482100D02*
X91153200Y-122846800D01*
X91153200Y-118527458D02*
X91780658Y-117900000D01*
X73650000Y-129450000D02*
X79000000Y-129450000D01*
X61447300Y-127447300D02*
X61447300Y-132552700D01*
X93880000Y-119380000D02*
X94742000Y-119380000D01*
X92400000Y-117900000D02*
X93880000Y-119380000D01*
X79000000Y-129450000D02*
X79996800Y-128453200D01*
X66552700Y-132552700D02*
X61447300Y-132552700D01*
X73000000Y-129400000D02*
X73600000Y-129400000D01*
X66552700Y-127447300D02*
X61447300Y-127447300D01*
%TD*%
%TA.AperFunction,Conductor*%
%TO.N,/ibias/ibias_rset*%
G36*
X139713039Y-56289685D02*
G01*
X139758794Y-56342489D01*
X139770000Y-56394000D01*
X139770000Y-63473900D01*
X139750315Y-63540939D01*
X139697511Y-63586694D01*
X139646000Y-63597900D01*
X139000760Y-63597900D01*
X138933721Y-63578215D01*
X138913079Y-63561581D01*
X138861245Y-63509747D01*
X138827760Y-63448424D01*
X138832744Y-63378732D01*
X138834366Y-63374612D01*
X138848604Y-63340238D01*
X138850044Y-63336762D01*
X138865500Y-63219361D01*
X138865499Y-61865640D01*
X138865499Y-61865636D01*
X138850046Y-61748246D01*
X138850044Y-61748241D01*
X138850044Y-61748238D01*
X138789536Y-61602159D01*
X138693282Y-61476718D01*
X138567841Y-61380464D01*
X138421762Y-61319956D01*
X138421760Y-61319955D01*
X138304370Y-61304501D01*
X138304367Y-61304500D01*
X138304361Y-61304500D01*
X138304354Y-61304500D01*
X138171851Y-61304500D01*
X138104812Y-61284815D01*
X138064464Y-61242500D01*
X137996802Y-61125305D01*
X137996798Y-61125300D01*
X137089699Y-60218201D01*
X137089694Y-60218197D01*
X137070542Y-60207140D01*
X137070541Y-60207140D01*
X137040853Y-60190000D01*
X136981833Y-60155925D01*
X136952404Y-60138934D01*
X136952403Y-60138933D01*
X136901357Y-60125255D01*
X136799268Y-60097900D01*
X136799266Y-60097900D01*
X132659500Y-60097900D01*
X132592461Y-60078215D01*
X132546706Y-60025411D01*
X132535500Y-59973900D01*
X132535500Y-59358386D01*
X132535500Y-59358384D01*
X132529086Y-59287804D01*
X132478478Y-59125394D01*
X132390472Y-58979815D01*
X132390470Y-58979813D01*
X132390469Y-58979811D01*
X132270188Y-58859530D01*
X132202475Y-58818596D01*
X132124606Y-58771522D01*
X131962196Y-58720914D01*
X131962194Y-58720913D01*
X131962192Y-58720913D01*
X131912778Y-58716423D01*
X131891616Y-58714500D01*
X131378384Y-58714500D01*
X131359145Y-58716248D01*
X131307807Y-58720913D01*
X131145393Y-58771522D01*
X130999811Y-58859530D01*
X130999810Y-58859531D01*
X130897681Y-58961661D01*
X130836358Y-58995146D01*
X130766666Y-58990162D01*
X130722319Y-58961661D01*
X130620188Y-58859530D01*
X130552475Y-58818596D01*
X130474606Y-58771522D01*
X130312196Y-58720914D01*
X130312194Y-58720913D01*
X130312192Y-58720913D01*
X130262778Y-58716423D01*
X130241616Y-58714500D01*
X129728384Y-58714500D01*
X129709145Y-58716248D01*
X129657807Y-58720913D01*
X129495393Y-58771522D01*
X129349811Y-58859530D01*
X129229531Y-58979810D01*
X129229528Y-58979814D01*
X129200368Y-59028051D01*
X129148840Y-59075238D01*
X129094252Y-59087900D01*
X128288344Y-59087900D01*
X128221305Y-59068215D01*
X128175960Y-59016300D01*
X128174035Y-59012171D01*
X128038495Y-58818599D01*
X128038494Y-58818597D01*
X127871402Y-58651506D01*
X127871395Y-58651501D01*
X127677834Y-58515967D01*
X127677830Y-58515965D01*
X127606727Y-58482809D01*
X127463663Y-58416097D01*
X127463659Y-58416096D01*
X127463655Y-58416094D01*
X127235413Y-58354938D01*
X127235403Y-58354936D01*
X127000001Y-58334341D01*
X126999999Y-58334341D01*
X126764596Y-58354936D01*
X126764586Y-58354938D01*
X126536344Y-58416094D01*
X126536335Y-58416098D01*
X126322171Y-58515964D01*
X126322169Y-58515965D01*
X126128600Y-58651503D01*
X126006284Y-58773819D01*
X125944961Y-58807303D01*
X125875269Y-58802319D01*
X125819336Y-58760447D01*
X125802421Y-58729470D01*
X125753354Y-58597913D01*
X125753350Y-58597906D01*
X125667190Y-58482812D01*
X125667187Y-58482809D01*
X125552093Y-58396649D01*
X125552086Y-58396645D01*
X125417379Y-58346403D01*
X125417372Y-58346401D01*
X125357844Y-58340000D01*
X124710000Y-58340000D01*
X124710000Y-59256988D01*
X124652993Y-59224075D01*
X124525826Y-59190000D01*
X124394174Y-59190000D01*
X124267007Y-59224075D01*
X124210000Y-59256988D01*
X124210000Y-58340000D01*
X123562155Y-58340000D01*
X123502627Y-58346401D01*
X123502620Y-58346403D01*
X123367913Y-58396645D01*
X123367906Y-58396649D01*
X123252812Y-58482809D01*
X123252809Y-58482812D01*
X123166649Y-58597906D01*
X123166645Y-58597913D01*
X123116403Y-58732620D01*
X123116401Y-58732627D01*
X123110000Y-58792155D01*
X123110000Y-59440000D01*
X124026988Y-59440000D01*
X123994075Y-59497007D01*
X123960000Y-59624174D01*
X123960000Y-59755826D01*
X123994075Y-59882993D01*
X124026988Y-59940000D01*
X123110000Y-59940000D01*
X123110000Y-60587844D01*
X123116401Y-60647372D01*
X123116403Y-60647379D01*
X123166645Y-60782086D01*
X123166649Y-60782093D01*
X123252809Y-60897187D01*
X123252812Y-60897190D01*
X123367906Y-60983350D01*
X123367913Y-60983354D01*
X123502620Y-61033596D01*
X123502627Y-61033598D01*
X123562155Y-61039999D01*
X123562172Y-61040000D01*
X124210000Y-61040000D01*
X124210000Y-60123012D01*
X124267007Y-60155925D01*
X124394174Y-60190000D01*
X124525826Y-60190000D01*
X124652993Y-60155925D01*
X124710000Y-60123012D01*
X124710000Y-61040000D01*
X125357828Y-61040000D01*
X125357844Y-61039999D01*
X125417372Y-61033598D01*
X125417379Y-61033596D01*
X125552086Y-60983354D01*
X125552093Y-60983350D01*
X125667187Y-60897190D01*
X125667190Y-60897187D01*
X125753350Y-60782093D01*
X125753354Y-60782086D01*
X125802422Y-60650529D01*
X125844293Y-60594595D01*
X125909757Y-60570178D01*
X125978030Y-60585030D01*
X126006285Y-60606181D01*
X126128599Y-60728495D01*
X126205135Y-60782086D01*
X126322165Y-60864032D01*
X126322167Y-60864033D01*
X126322170Y-60864035D01*
X126536337Y-60963903D01*
X126764592Y-61025063D01*
X126935319Y-61040000D01*
X126999999Y-61045659D01*
X127000000Y-61045659D01*
X127000001Y-61045659D01*
X127064681Y-61040000D01*
X127235408Y-61025063D01*
X127463663Y-60963903D01*
X127677830Y-60864035D01*
X127871401Y-60728495D01*
X128038495Y-60561401D01*
X128174035Y-60367830D01*
X128175961Y-60363698D01*
X128222132Y-60311258D01*
X128288345Y-60292100D01*
X129094252Y-60292100D01*
X129161291Y-60311785D01*
X129200368Y-60351949D01*
X129229528Y-60400185D01*
X129229531Y-60400189D01*
X129349811Y-60520469D01*
X129349813Y-60520470D01*
X129349815Y-60520472D01*
X129495394Y-60608478D01*
X129512099Y-60613683D01*
X129562889Y-60644387D01*
X130100302Y-61181800D01*
X130237599Y-61261068D01*
X130390732Y-61302100D01*
X132969260Y-61302100D01*
X133036299Y-61321785D01*
X133082054Y-61374589D01*
X133091998Y-61443747D01*
X133067636Y-61501586D01*
X132989265Y-61603721D01*
X132932837Y-61644924D01*
X132904773Y-61651455D01*
X132831048Y-61659761D01*
X132670560Y-61715919D01*
X132526599Y-61806376D01*
X132406376Y-61926599D01*
X132315919Y-62070560D01*
X132259761Y-62231048D01*
X132240726Y-62399997D01*
X132240726Y-62400004D01*
X132244876Y-62436839D01*
X132232821Y-62505661D01*
X132185472Y-62557040D01*
X132117861Y-62574664D01*
X132084767Y-62569108D01*
X132084273Y-62568954D01*
X131962196Y-62530914D01*
X131891616Y-62524500D01*
X131378384Y-62524500D01*
X131359145Y-62526248D01*
X131307807Y-62530913D01*
X131145393Y-62581522D01*
X130999811Y-62669530D01*
X130999810Y-62669531D01*
X130897681Y-62771661D01*
X130836358Y-62805146D01*
X130766666Y-62800162D01*
X130722319Y-62771661D01*
X130620188Y-62669530D01*
X130552475Y-62628596D01*
X130474606Y-62581522D01*
X130312196Y-62530914D01*
X130312194Y-62530913D01*
X130312192Y-62530913D01*
X130262778Y-62526423D01*
X130241616Y-62524500D01*
X129728384Y-62524500D01*
X129709145Y-62526248D01*
X129657807Y-62530913D01*
X129495393Y-62581522D01*
X129349811Y-62669530D01*
X129229531Y-62789810D01*
X129229528Y-62789814D01*
X129200368Y-62838051D01*
X129148840Y-62885238D01*
X129094252Y-62897900D01*
X128288344Y-62897900D01*
X128221305Y-62878215D01*
X128175960Y-62826300D01*
X128174035Y-62822171D01*
X128038495Y-62628599D01*
X128038494Y-62628597D01*
X127871402Y-62461506D01*
X127871395Y-62461501D01*
X127677834Y-62325967D01*
X127677830Y-62325965D01*
X127606727Y-62292809D01*
X127463663Y-62226097D01*
X127463659Y-62226096D01*
X127463655Y-62226094D01*
X127235413Y-62164938D01*
X127235403Y-62164936D01*
X127000001Y-62144341D01*
X126999999Y-62144341D01*
X126764596Y-62164936D01*
X126764586Y-62164938D01*
X126536344Y-62226094D01*
X126536335Y-62226098D01*
X126322171Y-62325964D01*
X126322169Y-62325965D01*
X126128600Y-62461503D01*
X126006284Y-62583819D01*
X125944961Y-62617303D01*
X125875269Y-62612319D01*
X125819336Y-62570447D01*
X125802421Y-62539470D01*
X125753354Y-62407913D01*
X125753350Y-62407906D01*
X125667190Y-62292812D01*
X125667187Y-62292809D01*
X125552093Y-62206649D01*
X125552086Y-62206645D01*
X125417379Y-62156403D01*
X125417372Y-62156401D01*
X125357844Y-62150000D01*
X124710000Y-62150000D01*
X124710000Y-63066988D01*
X124652993Y-63034075D01*
X124525826Y-63000000D01*
X124394174Y-63000000D01*
X124267007Y-63034075D01*
X124210000Y-63066988D01*
X124210000Y-62150000D01*
X123562155Y-62150000D01*
X123502627Y-62156401D01*
X123502620Y-62156403D01*
X123367913Y-62206645D01*
X123367906Y-62206649D01*
X123252812Y-62292809D01*
X123252809Y-62292812D01*
X123166649Y-62407906D01*
X123166645Y-62407913D01*
X123116403Y-62542620D01*
X123116401Y-62542627D01*
X123110000Y-62602155D01*
X123110000Y-63250000D01*
X124026988Y-63250000D01*
X123994075Y-63307007D01*
X123960000Y-63434174D01*
X123960000Y-63565826D01*
X123994075Y-63692993D01*
X124026988Y-63750000D01*
X123110000Y-63750000D01*
X123110000Y-64397844D01*
X123116401Y-64457372D01*
X123116403Y-64457379D01*
X123166645Y-64592086D01*
X123166649Y-64592093D01*
X123252809Y-64707187D01*
X123252812Y-64707190D01*
X123367906Y-64793350D01*
X123367913Y-64793354D01*
X123502620Y-64843596D01*
X123502627Y-64843598D01*
X123562155Y-64849999D01*
X123562172Y-64850000D01*
X124210000Y-64850000D01*
X124210000Y-63933012D01*
X124267007Y-63965925D01*
X124394174Y-64000000D01*
X124525826Y-64000000D01*
X124652993Y-63965925D01*
X124710000Y-63933012D01*
X124710000Y-64850000D01*
X125357828Y-64850000D01*
X125357844Y-64849999D01*
X125417372Y-64843598D01*
X125417379Y-64843596D01*
X125552086Y-64793354D01*
X125552093Y-64793350D01*
X125667187Y-64707190D01*
X125667190Y-64707187D01*
X125753350Y-64592093D01*
X125753354Y-64592086D01*
X125802422Y-64460529D01*
X125844293Y-64404595D01*
X125909757Y-64380178D01*
X125978030Y-64395030D01*
X126006285Y-64416181D01*
X126128599Y-64538495D01*
X126179734Y-64574300D01*
X126322165Y-64674032D01*
X126322167Y-64674033D01*
X126322170Y-64674035D01*
X126536337Y-64773903D01*
X126764592Y-64835063D01*
X126935319Y-64850000D01*
X126999999Y-64855659D01*
X127000000Y-64855659D01*
X127000001Y-64855659D01*
X127064681Y-64850000D01*
X127235408Y-64835063D01*
X127463663Y-64773903D01*
X127677830Y-64674035D01*
X127871401Y-64538495D01*
X128038495Y-64371401D01*
X128174035Y-64177830D01*
X128175961Y-64173698D01*
X128222132Y-64121258D01*
X128288345Y-64102100D01*
X129094252Y-64102100D01*
X129161291Y-64121785D01*
X129200368Y-64161949D01*
X129229528Y-64210185D01*
X129229531Y-64210189D01*
X129349811Y-64330469D01*
X129349813Y-64330470D01*
X129349815Y-64330472D01*
X129495394Y-64418478D01*
X129657804Y-64469086D01*
X129728384Y-64475500D01*
X129842640Y-64475500D01*
X129909679Y-64495185D01*
X129930321Y-64511819D01*
X130400302Y-64981800D01*
X130537599Y-65061068D01*
X130690732Y-65102100D01*
X130690735Y-65102100D01*
X133649266Y-65102100D01*
X133649268Y-65102100D01*
X133802402Y-65061067D01*
X133939698Y-64981800D01*
X134051800Y-64869698D01*
X134746800Y-64174698D01*
X134826067Y-64037402D01*
X134867100Y-63884268D01*
X134867100Y-63828281D01*
X134886785Y-63761242D01*
X134939589Y-63715487D01*
X135008747Y-63705543D01*
X135072303Y-63734568D01*
X135072860Y-63735054D01*
X135115000Y-63772010D01*
X135171631Y-63764555D01*
X135191887Y-63756165D01*
X135261356Y-63748693D01*
X135286797Y-63756163D01*
X135286802Y-63756165D01*
X135308238Y-63765044D01*
X135425639Y-63780500D01*
X135704360Y-63780499D01*
X135704361Y-63780499D01*
X135716594Y-63778888D01*
X135821762Y-63765044D01*
X135842545Y-63756434D01*
X135912014Y-63748965D01*
X135937453Y-63756434D01*
X135958238Y-63765044D01*
X136075639Y-63780500D01*
X136354360Y-63780499D01*
X136354361Y-63780499D01*
X136368018Y-63778701D01*
X136471762Y-63765044D01*
X136493200Y-63756163D01*
X136562668Y-63748694D01*
X136588106Y-63756163D01*
X136608365Y-63764554D01*
X136608377Y-63764558D01*
X136664998Y-63772011D01*
X136665000Y-63772010D01*
X136665000Y-63729499D01*
X136684685Y-63662460D01*
X136713512Y-63631125D01*
X136743282Y-63608282D01*
X136766625Y-63577860D01*
X136823051Y-63536658D01*
X136892797Y-63532503D01*
X136953718Y-63566714D01*
X136963368Y-63577851D01*
X136986718Y-63608282D01*
X137016485Y-63631123D01*
X137057688Y-63687548D01*
X137065000Y-63729499D01*
X137065000Y-63772010D01*
X137121631Y-63764555D01*
X137141887Y-63756165D01*
X137211356Y-63748693D01*
X137236797Y-63756163D01*
X137236802Y-63756165D01*
X137258238Y-63765044D01*
X137375639Y-63780500D01*
X137477460Y-63780499D01*
X137544498Y-63800183D01*
X137590254Y-63852986D01*
X137597234Y-63872404D01*
X137603930Y-63897395D01*
X137603934Y-63897404D01*
X137605490Y-63900099D01*
X137644461Y-63967599D01*
X137683200Y-64034698D01*
X138218200Y-64569698D01*
X138330302Y-64681800D01*
X138467598Y-64761067D01*
X138620732Y-64802100D01*
X138620734Y-64802100D01*
X139646000Y-64802100D01*
X139713039Y-64821785D01*
X139758794Y-64874589D01*
X139770000Y-64926100D01*
X139770000Y-66073900D01*
X139750315Y-66140939D01*
X139697511Y-66186694D01*
X139646000Y-66197900D01*
X138520732Y-66197900D01*
X138446070Y-66217906D01*
X138367596Y-66238933D01*
X138367595Y-66238934D01*
X138311188Y-66271501D01*
X138245371Y-66309500D01*
X138245368Y-66309502D01*
X138230305Y-66318197D01*
X138230300Y-66318201D01*
X137683201Y-66865300D01*
X137683197Y-66865305D01*
X137624195Y-66967500D01*
X137573628Y-67015716D01*
X137516809Y-67029500D01*
X137375637Y-67029500D01*
X137258241Y-67044954D01*
X137258239Y-67044955D01*
X137236796Y-67053837D01*
X137167327Y-67061304D01*
X137141895Y-67053837D01*
X137121631Y-67045444D01*
X137065000Y-67037987D01*
X137065000Y-67080499D01*
X137045315Y-67147538D01*
X137016489Y-67178873D01*
X136986719Y-67201716D01*
X136986716Y-67201720D01*
X136963374Y-67232140D01*
X136906948Y-67273341D01*
X136837202Y-67277496D01*
X136776281Y-67243283D01*
X136766630Y-67232146D01*
X136743282Y-67201718D01*
X136743280Y-67201717D01*
X136743280Y-67201716D01*
X136713511Y-67178873D01*
X136672310Y-67122444D01*
X136665000Y-67080499D01*
X136665000Y-67037987D01*
X136608370Y-67045443D01*
X136588103Y-67053838D01*
X136518633Y-67061304D01*
X136493203Y-67053837D01*
X136471762Y-67044956D01*
X136471760Y-67044955D01*
X136354361Y-67029500D01*
X136075636Y-67029500D01*
X135958246Y-67044953D01*
X135958234Y-67044957D01*
X135937450Y-67053566D01*
X135867981Y-67061033D01*
X135842550Y-67053566D01*
X135821765Y-67044957D01*
X135821760Y-67044955D01*
X135704361Y-67029500D01*
X135425636Y-67029500D01*
X135308241Y-67044954D01*
X135308239Y-67044955D01*
X135286796Y-67053837D01*
X135217327Y-67061304D01*
X135191895Y-67053837D01*
X135171631Y-67045444D01*
X135114999Y-67037987D01*
X135072858Y-67074945D01*
X135009476Y-67104347D01*
X134940260Y-67094815D01*
X134887185Y-67049374D01*
X134867102Y-66982453D01*
X134867100Y-66981716D01*
X134867100Y-66915733D01*
X134867100Y-66915732D01*
X134826067Y-66762598D01*
X134746800Y-66625302D01*
X134634698Y-66513200D01*
X134039698Y-65918200D01*
X134008058Y-65899933D01*
X134008058Y-65899932D01*
X134008056Y-65899932D01*
X133902404Y-65838934D01*
X133902403Y-65838933D01*
X133851357Y-65825255D01*
X133749268Y-65797900D01*
X130590732Y-65797900D01*
X130488642Y-65825255D01*
X130437597Y-65838933D01*
X130331942Y-65899933D01*
X130300303Y-65918199D01*
X130300300Y-65918201D01*
X129920321Y-66298181D01*
X129858998Y-66331666D01*
X129832640Y-66334500D01*
X129728384Y-66334500D01*
X129709145Y-66336248D01*
X129657807Y-66340913D01*
X129495393Y-66391522D01*
X129349811Y-66479530D01*
X129229531Y-66599810D01*
X129229528Y-66599814D01*
X129200368Y-66648051D01*
X129148840Y-66695238D01*
X129094252Y-66707900D01*
X128288344Y-66707900D01*
X128221305Y-66688215D01*
X128175960Y-66636300D01*
X128174035Y-66632171D01*
X128038495Y-66438599D01*
X128038494Y-66438597D01*
X127871402Y-66271506D01*
X127871395Y-66271501D01*
X127677834Y-66135967D01*
X127677830Y-66135965D01*
X127582050Y-66091302D01*
X127463663Y-66036097D01*
X127463659Y-66036096D01*
X127463655Y-66036094D01*
X127235413Y-65974938D01*
X127235403Y-65974936D01*
X127000001Y-65954341D01*
X126999999Y-65954341D01*
X126764596Y-65974936D01*
X126764586Y-65974938D01*
X126536344Y-66036094D01*
X126536335Y-66036098D01*
X126322171Y-66135964D01*
X126322169Y-66135965D01*
X126128600Y-66271503D01*
X126006284Y-66393819D01*
X125944961Y-66427303D01*
X125875269Y-66422319D01*
X125819336Y-66380447D01*
X125802421Y-66349470D01*
X125753354Y-66217913D01*
X125753350Y-66217906D01*
X125667190Y-66102812D01*
X125667187Y-66102809D01*
X125552093Y-66016649D01*
X125552086Y-66016645D01*
X125417379Y-65966403D01*
X125417372Y-65966401D01*
X125357844Y-65960000D01*
X124710000Y-65960000D01*
X124710000Y-66876988D01*
X124652993Y-66844075D01*
X124525826Y-66810000D01*
X124394174Y-66810000D01*
X124267007Y-66844075D01*
X124210000Y-66876988D01*
X124210000Y-65960000D01*
X123562155Y-65960000D01*
X123502627Y-65966401D01*
X123502620Y-65966403D01*
X123367913Y-66016645D01*
X123367906Y-66016649D01*
X123252812Y-66102809D01*
X123252809Y-66102812D01*
X123166649Y-66217906D01*
X123166645Y-66217913D01*
X123116403Y-66352620D01*
X123116401Y-66352627D01*
X123110000Y-66412155D01*
X123110000Y-67060000D01*
X124026988Y-67060000D01*
X123994075Y-67117007D01*
X123960000Y-67244174D01*
X123960000Y-67375826D01*
X123994075Y-67502993D01*
X124026988Y-67560000D01*
X123110000Y-67560000D01*
X123110000Y-68207844D01*
X123116401Y-68267372D01*
X123116403Y-68267379D01*
X123166645Y-68402086D01*
X123166649Y-68402093D01*
X123252809Y-68517187D01*
X123252812Y-68517190D01*
X123367906Y-68603350D01*
X123367913Y-68603354D01*
X123502620Y-68653596D01*
X123502627Y-68653598D01*
X123562155Y-68659999D01*
X123562172Y-68660000D01*
X124210000Y-68660000D01*
X124210000Y-67743012D01*
X124267007Y-67775925D01*
X124394174Y-67810000D01*
X124525826Y-67810000D01*
X124652993Y-67775925D01*
X124710000Y-67743012D01*
X124710000Y-68660000D01*
X125357828Y-68660000D01*
X125357844Y-68659999D01*
X125417372Y-68653598D01*
X125417379Y-68653596D01*
X125552086Y-68603354D01*
X125552093Y-68603350D01*
X125667187Y-68517190D01*
X125667190Y-68517187D01*
X125753350Y-68402093D01*
X125753354Y-68402086D01*
X125802422Y-68270529D01*
X125844293Y-68214595D01*
X125909757Y-68190178D01*
X125978030Y-68205030D01*
X126006285Y-68226181D01*
X126128599Y-68348495D01*
X126205135Y-68402086D01*
X126322165Y-68484032D01*
X126322167Y-68484033D01*
X126322170Y-68484035D01*
X126536337Y-68583903D01*
X126764592Y-68645063D01*
X126935319Y-68660000D01*
X126999999Y-68665659D01*
X127000000Y-68665659D01*
X127000001Y-68665659D01*
X127064681Y-68660000D01*
X127235408Y-68645063D01*
X127463663Y-68583903D01*
X127677830Y-68484035D01*
X127871401Y-68348495D01*
X128038495Y-68181401D01*
X128174035Y-67987830D01*
X128175961Y-67983698D01*
X128222132Y-67931258D01*
X128288345Y-67912100D01*
X129094252Y-67912100D01*
X129161291Y-67931785D01*
X129200368Y-67971949D01*
X129229528Y-68020185D01*
X129229531Y-68020189D01*
X129349811Y-68140469D01*
X129349813Y-68140470D01*
X129349815Y-68140472D01*
X129495394Y-68228478D01*
X129657804Y-68279086D01*
X129728384Y-68285500D01*
X129728387Y-68285500D01*
X130241613Y-68285500D01*
X130241616Y-68285500D01*
X130312196Y-68279086D01*
X130474606Y-68228478D01*
X130620185Y-68140472D01*
X130620189Y-68140468D01*
X130722319Y-68038339D01*
X130783642Y-68004854D01*
X130853334Y-68009838D01*
X130897681Y-68038339D01*
X130999811Y-68140469D01*
X130999813Y-68140470D01*
X130999815Y-68140472D01*
X131145394Y-68228478D01*
X131307804Y-68279086D01*
X131378384Y-68285500D01*
X131378387Y-68285500D01*
X131891613Y-68285500D01*
X131891616Y-68285500D01*
X131962196Y-68279086D01*
X132096583Y-68237209D01*
X132166442Y-68236058D01*
X132225834Y-68272859D01*
X132255902Y-68335928D01*
X132256692Y-68341709D01*
X132259762Y-68368951D01*
X132259762Y-68368953D01*
X132259763Y-68368954D01*
X132300031Y-68484035D01*
X132315919Y-68529439D01*
X132388569Y-68645061D01*
X132406376Y-68673400D01*
X132526600Y-68793624D01*
X132670563Y-68884082D01*
X132831046Y-68940237D01*
X132831051Y-68940237D01*
X132832425Y-68940551D01*
X132833230Y-68941001D01*
X132837619Y-68942537D01*
X132837350Y-68943305D01*
X132893407Y-68974654D01*
X132926270Y-69036313D01*
X132927783Y-69045257D01*
X132929956Y-69061762D01*
X132990464Y-69207841D01*
X133086718Y-69333282D01*
X133212159Y-69429536D01*
X133358238Y-69490044D01*
X133475639Y-69505500D01*
X133602934Y-69505499D01*
X133669973Y-69525183D01*
X133715728Y-69577987D01*
X133725672Y-69647145D01*
X133720640Y-69668502D01*
X133674651Y-69807288D01*
X133664500Y-69906647D01*
X133664500Y-70503337D01*
X133664501Y-70503355D01*
X133674650Y-70602707D01*
X133674651Y-70602710D01*
X133727996Y-70763694D01*
X133728001Y-70763705D01*
X133817029Y-70908040D01*
X133817032Y-70908044D01*
X133826307Y-70917319D01*
X133859792Y-70978642D01*
X133854808Y-71048334D01*
X133826307Y-71092681D01*
X133817032Y-71101955D01*
X133817029Y-71101959D01*
X133728001Y-71246294D01*
X133727996Y-71246305D01*
X133674651Y-71407290D01*
X133664500Y-71506647D01*
X133664500Y-72103337D01*
X133664501Y-72103355D01*
X133674650Y-72202707D01*
X133674651Y-72202710D01*
X133727996Y-72363694D01*
X133728001Y-72363705D01*
X133817029Y-72508040D01*
X133817032Y-72508044D01*
X133936955Y-72627967D01*
X133936959Y-72627970D01*
X134081294Y-72716998D01*
X134081297Y-72716999D01*
X134081303Y-72717003D01*
X134242292Y-72770349D01*
X134341655Y-72780500D01*
X134888344Y-72780499D01*
X134888352Y-72780498D01*
X134888355Y-72780498D01*
X134942760Y-72774940D01*
X134987708Y-72770349D01*
X135148697Y-72717003D01*
X135267854Y-72643505D01*
X135335245Y-72625065D01*
X135401908Y-72645987D01*
X135446678Y-72699629D01*
X135456170Y-72762928D01*
X135440726Y-72899997D01*
X135440726Y-72900002D01*
X135447488Y-72960016D01*
X135435434Y-73028838D01*
X135388085Y-73080218D01*
X135324268Y-73097900D01*
X132045760Y-73097900D01*
X131978721Y-73078215D01*
X131958079Y-73061581D01*
X131194621Y-72298123D01*
X131161136Y-72236800D01*
X131166120Y-72167108D01*
X131207992Y-72111175D01*
X131273456Y-72086758D01*
X131301269Y-72088497D01*
X131301270Y-72088492D01*
X131301482Y-72088511D01*
X131306497Y-72088825D01*
X131307791Y-72089082D01*
X131307804Y-72089086D01*
X131378384Y-72095500D01*
X131378387Y-72095500D01*
X131891613Y-72095500D01*
X131891616Y-72095500D01*
X131962196Y-72089086D01*
X132124606Y-72038478D01*
X132270185Y-71950472D01*
X132390472Y-71830185D01*
X132478478Y-71684606D01*
X132529086Y-71522196D01*
X132535500Y-71451616D01*
X132535500Y-70788384D01*
X132529086Y-70717804D01*
X132478478Y-70555394D01*
X132390472Y-70409815D01*
X132390470Y-70409813D01*
X132390469Y-70409811D01*
X132270188Y-70289530D01*
X132202475Y-70248596D01*
X132124606Y-70201522D01*
X131962196Y-70150914D01*
X131962194Y-70150913D01*
X131962192Y-70150913D01*
X131912778Y-70146423D01*
X131891616Y-70144500D01*
X131378384Y-70144500D01*
X131359145Y-70146248D01*
X131307807Y-70150913D01*
X131145393Y-70201522D01*
X130999811Y-70289530D01*
X130999810Y-70289531D01*
X130897681Y-70391661D01*
X130836358Y-70425146D01*
X130766666Y-70420162D01*
X130722319Y-70391661D01*
X130620188Y-70289530D01*
X130552475Y-70248596D01*
X130474606Y-70201522D01*
X130312196Y-70150914D01*
X130312194Y-70150913D01*
X130312192Y-70150913D01*
X130262778Y-70146423D01*
X130241616Y-70144500D01*
X129728384Y-70144500D01*
X129709145Y-70146248D01*
X129657807Y-70150913D01*
X129495393Y-70201522D01*
X129349811Y-70289530D01*
X129229531Y-70409810D01*
X129229528Y-70409814D01*
X129200368Y-70458051D01*
X129148840Y-70505238D01*
X129094252Y-70517900D01*
X128288344Y-70517900D01*
X128221305Y-70498215D01*
X128175960Y-70446300D01*
X128174035Y-70442171D01*
X128067154Y-70289528D01*
X128038494Y-70248597D01*
X127871402Y-70081506D01*
X127871395Y-70081501D01*
X127677834Y-69945967D01*
X127677830Y-69945965D01*
X127606727Y-69912809D01*
X127463663Y-69846097D01*
X127463659Y-69846096D01*
X127463655Y-69846094D01*
X127235413Y-69784938D01*
X127235403Y-69784936D01*
X127000001Y-69764341D01*
X126999999Y-69764341D01*
X126764596Y-69784936D01*
X126764586Y-69784938D01*
X126536344Y-69846094D01*
X126536335Y-69846098D01*
X126322171Y-69945964D01*
X126322169Y-69945965D01*
X126128600Y-70081503D01*
X126006284Y-70203819D01*
X125944961Y-70237303D01*
X125875269Y-70232319D01*
X125819336Y-70190447D01*
X125802421Y-70159470D01*
X125753354Y-70027913D01*
X125753350Y-70027906D01*
X125667190Y-69912812D01*
X125667187Y-69912809D01*
X125552093Y-69826649D01*
X125552086Y-69826645D01*
X125417379Y-69776403D01*
X125417372Y-69776401D01*
X125357844Y-69770000D01*
X124710000Y-69770000D01*
X124710000Y-70686988D01*
X124652993Y-70654075D01*
X124525826Y-70620000D01*
X124394174Y-70620000D01*
X124267007Y-70654075D01*
X124210000Y-70686988D01*
X124210000Y-69770000D01*
X123562155Y-69770000D01*
X123502627Y-69776401D01*
X123502620Y-69776403D01*
X123367913Y-69826645D01*
X123367906Y-69826649D01*
X123252812Y-69912809D01*
X123252809Y-69912812D01*
X123166649Y-70027906D01*
X123166645Y-70027913D01*
X123116403Y-70162620D01*
X123116401Y-70162627D01*
X123110000Y-70222155D01*
X123110000Y-70870000D01*
X124026988Y-70870000D01*
X123994075Y-70927007D01*
X123960000Y-71054174D01*
X123960000Y-71185826D01*
X123994075Y-71312993D01*
X124026988Y-71370000D01*
X123110000Y-71370000D01*
X123110000Y-72017844D01*
X123116401Y-72077372D01*
X123116403Y-72077379D01*
X123166645Y-72212086D01*
X123166649Y-72212093D01*
X123252809Y-72327187D01*
X123252812Y-72327190D01*
X123367906Y-72413350D01*
X123367913Y-72413354D01*
X123502620Y-72463596D01*
X123502627Y-72463598D01*
X123562155Y-72469999D01*
X123562172Y-72470000D01*
X124210000Y-72470000D01*
X124210000Y-71553012D01*
X124267007Y-71585925D01*
X124394174Y-71620000D01*
X124525826Y-71620000D01*
X124652993Y-71585925D01*
X124710000Y-71553012D01*
X124710000Y-72470000D01*
X125357828Y-72470000D01*
X125357844Y-72469999D01*
X125417372Y-72463598D01*
X125417379Y-72463596D01*
X125552086Y-72413354D01*
X125552093Y-72413350D01*
X125667187Y-72327190D01*
X125667190Y-72327187D01*
X125753350Y-72212093D01*
X125753354Y-72212086D01*
X125802422Y-72080529D01*
X125844293Y-72024595D01*
X125909757Y-72000178D01*
X125978030Y-72015030D01*
X126006285Y-72036181D01*
X126128599Y-72158495D01*
X126148462Y-72172403D01*
X126322165Y-72294032D01*
X126322167Y-72294033D01*
X126322170Y-72294035D01*
X126536337Y-72393903D01*
X126536343Y-72393904D01*
X126536344Y-72393905D01*
X126591285Y-72408626D01*
X126764592Y-72455063D01*
X126935319Y-72470000D01*
X126999999Y-72475659D01*
X127000000Y-72475659D01*
X127000001Y-72475659D01*
X127064681Y-72470000D01*
X127235408Y-72455063D01*
X127463663Y-72393903D01*
X127677830Y-72294035D01*
X127871401Y-72158495D01*
X128038495Y-71991401D01*
X128174035Y-71797830D01*
X128175961Y-71793698D01*
X128222132Y-71741258D01*
X128288345Y-71722100D01*
X129094252Y-71722100D01*
X129161291Y-71741785D01*
X129200368Y-71781949D01*
X129229528Y-71830185D01*
X129347722Y-71948379D01*
X129381206Y-72009700D01*
X129382823Y-72018981D01*
X129423933Y-72172403D01*
X129437110Y-72195225D01*
X129453819Y-72224166D01*
X129503200Y-72309698D01*
X131263200Y-74069698D01*
X131375302Y-74181800D01*
X131512598Y-74261067D01*
X131665732Y-74302100D01*
X131665734Y-74302100D01*
X136479266Y-74302100D01*
X136479268Y-74302100D01*
X136632402Y-74261067D01*
X136769698Y-74181800D01*
X136881800Y-74069698D01*
X137996800Y-72954698D01*
X138018563Y-72917003D01*
X138076067Y-72817402D01*
X138117100Y-72664268D01*
X138117100Y-69629499D01*
X138136785Y-69562460D01*
X138189589Y-69516705D01*
X138241100Y-69505499D01*
X138304363Y-69505499D01*
X138421753Y-69490046D01*
X138421757Y-69490044D01*
X138421762Y-69490044D01*
X138567841Y-69429536D01*
X138693282Y-69333282D01*
X138789536Y-69207841D01*
X138850044Y-69061762D01*
X138865500Y-68944361D01*
X138865499Y-67590640D01*
X138865498Y-67590636D01*
X138861465Y-67560000D01*
X138859133Y-67542283D01*
X138869899Y-67473250D01*
X138916279Y-67420994D01*
X138982072Y-67402100D01*
X139646000Y-67402100D01*
X139713039Y-67421785D01*
X139758794Y-67474589D01*
X139770000Y-67526100D01*
X139770000Y-79876000D01*
X139750315Y-79943039D01*
X139697511Y-79988794D01*
X139646000Y-80000000D01*
X102664000Y-80000000D01*
X102596961Y-79980315D01*
X102551206Y-79927511D01*
X102540000Y-79876000D01*
X102540000Y-79145396D01*
X102559685Y-79078357D01*
X102565037Y-79070681D01*
X102623778Y-78992896D01*
X102722824Y-78793984D01*
X102783634Y-78580260D01*
X102804137Y-78359000D01*
X102790784Y-78214905D01*
X102783634Y-78137740D01*
X102783633Y-78137738D01*
X102757553Y-78046078D01*
X102722824Y-77924016D01*
X102693390Y-77864905D01*
X102623781Y-77725110D01*
X102623777Y-77725103D01*
X102565045Y-77647329D01*
X102551939Y-77612635D01*
X110561000Y-77612635D01*
X110561000Y-79105370D01*
X110561001Y-79105376D01*
X110567408Y-79164983D01*
X110617702Y-79299828D01*
X110617706Y-79299835D01*
X110703952Y-79415044D01*
X110703955Y-79415047D01*
X110819164Y-79501293D01*
X110819171Y-79501297D01*
X110954017Y-79551591D01*
X110954016Y-79551591D01*
X110960944Y-79552335D01*
X111013627Y-79558000D01*
X112506372Y-79557999D01*
X112565983Y-79551591D01*
X112700831Y-79501296D01*
X112816046Y-79415046D01*
X112902296Y-79299831D01*
X112952591Y-79164983D01*
X112959000Y-79105373D01*
X112958999Y-77999999D01*
X115624785Y-77999999D01*
X115624785Y-78000000D01*
X115643602Y-78203082D01*
X115699417Y-78399247D01*
X115699422Y-78399260D01*
X115790327Y-78581821D01*
X115913237Y-78744581D01*
X116063958Y-78881980D01*
X116063960Y-78881982D01*
X116158962Y-78940804D01*
X116237363Y-78989348D01*
X116427544Y-79063024D01*
X116628024Y-79100500D01*
X116628026Y-79100500D01*
X116831974Y-79100500D01*
X116831976Y-79100500D01*
X117032456Y-79063024D01*
X117222637Y-78989348D01*
X117396041Y-78881981D01*
X117546764Y-78744579D01*
X117669673Y-78581821D01*
X117760582Y-78399250D01*
X117781084Y-78327192D01*
X117818360Y-78268104D01*
X117881670Y-78238546D01*
X117950909Y-78247907D01*
X118004096Y-78293217D01*
X118018279Y-78322812D01*
X118050591Y-78422256D01*
X118129195Y-78576524D01*
X118230967Y-78716602D01*
X118353397Y-78839032D01*
X118493475Y-78940804D01*
X118647742Y-79019408D01*
X118812415Y-79072914D01*
X118983429Y-79100000D01*
X119020000Y-79100000D01*
X119520000Y-79100000D01*
X119556571Y-79100000D01*
X119727584Y-79072914D01*
X119892257Y-79019408D01*
X120046524Y-78940804D01*
X120186602Y-78839032D01*
X120309032Y-78716602D01*
X120410804Y-78576524D01*
X120489408Y-78422255D01*
X120542914Y-78257584D01*
X120544115Y-78250000D01*
X119520000Y-78250000D01*
X119520000Y-79100000D01*
X119020000Y-79100000D01*
X119020000Y-78244975D01*
X119055095Y-78280070D01*
X119134905Y-78326148D01*
X119223922Y-78350000D01*
X119316078Y-78350000D01*
X119405095Y-78326148D01*
X119484905Y-78280070D01*
X119550070Y-78214905D01*
X119596148Y-78135095D01*
X119620000Y-78046078D01*
X119620000Y-77953922D01*
X119596148Y-77864905D01*
X119550070Y-77785095D01*
X119514975Y-77750000D01*
X119520000Y-77750000D01*
X120544115Y-77750000D01*
X120544115Y-77749999D01*
X120542914Y-77742415D01*
X120489408Y-77577744D01*
X120410804Y-77423475D01*
X120309032Y-77283397D01*
X120186602Y-77160967D01*
X120046524Y-77059195D01*
X119892257Y-76980591D01*
X119727584Y-76927085D01*
X119556571Y-76900000D01*
X119520000Y-76900000D01*
X119520000Y-77750000D01*
X119514975Y-77750000D01*
X119484905Y-77719930D01*
X119405095Y-77673852D01*
X119316078Y-77650000D01*
X119223922Y-77650000D01*
X119134905Y-77673852D01*
X119055095Y-77719930D01*
X119020000Y-77755025D01*
X119020000Y-77179666D01*
X119030429Y-77135341D01*
X119028510Y-77134598D01*
X119030578Y-77129257D01*
X119030582Y-77129250D01*
X119086397Y-76933083D01*
X119105215Y-76730000D01*
X119086397Y-76526917D01*
X119030582Y-76330750D01*
X118939673Y-76148179D01*
X118816764Y-75985421D01*
X118816762Y-75985418D01*
X118666041Y-75848019D01*
X118666039Y-75848017D01*
X118492642Y-75740655D01*
X118492635Y-75740651D01*
X118397546Y-75703814D01*
X118302456Y-75666976D01*
X118101976Y-75629500D01*
X117898024Y-75629500D01*
X117697544Y-75666976D01*
X117697541Y-75666976D01*
X117697541Y-75666977D01*
X117507364Y-75740651D01*
X117507357Y-75740655D01*
X117333960Y-75848017D01*
X117333958Y-75848019D01*
X117183237Y-75985418D01*
X117060327Y-76148178D01*
X116969422Y-76330739D01*
X116969417Y-76330752D01*
X116913602Y-76526917D01*
X116894785Y-76729999D01*
X116894785Y-76730000D01*
X116897941Y-76764059D01*
X116884526Y-76832628D01*
X116836169Y-76883060D01*
X116774470Y-76899500D01*
X116628024Y-76899500D01*
X116427544Y-76936976D01*
X116427541Y-76936976D01*
X116427541Y-76936977D01*
X116237364Y-77010651D01*
X116237357Y-77010655D01*
X116063960Y-77118017D01*
X116063958Y-77118019D01*
X115913237Y-77255418D01*
X115790327Y-77418178D01*
X115699422Y-77600739D01*
X115699417Y-77600752D01*
X115643602Y-77796917D01*
X115624785Y-77999999D01*
X112958999Y-77999999D01*
X112958999Y-77612628D01*
X112952591Y-77553017D01*
X112902299Y-77418178D01*
X112902297Y-77418171D01*
X112902293Y-77418164D01*
X112816047Y-77302955D01*
X112816044Y-77302952D01*
X112700835Y-77216706D01*
X112700828Y-77216702D01*
X112565982Y-77166408D01*
X112565983Y-77166408D01*
X112506383Y-77160001D01*
X112506381Y-77160000D01*
X112506373Y-77160000D01*
X112506364Y-77160000D01*
X111013629Y-77160000D01*
X111013623Y-77160001D01*
X110954016Y-77166408D01*
X110819171Y-77216702D01*
X110819164Y-77216706D01*
X110703955Y-77302952D01*
X110703952Y-77302955D01*
X110617706Y-77418164D01*
X110617702Y-77418171D01*
X110567408Y-77553017D01*
X110561069Y-77611981D01*
X110561001Y-77612623D01*
X110561000Y-77612635D01*
X102551939Y-77612635D01*
X102540354Y-77581968D01*
X102540000Y-77572603D01*
X102540000Y-67999997D01*
X102840726Y-67999997D01*
X102840726Y-68000002D01*
X102859761Y-68168951D01*
X102915919Y-68329439D01*
X102927893Y-68348495D01*
X103006376Y-68473400D01*
X103126600Y-68593624D01*
X103270563Y-68684082D01*
X103361546Y-68715918D01*
X103431048Y-68740238D01*
X103599997Y-68759274D01*
X103600000Y-68759274D01*
X103600003Y-68759274D01*
X103701372Y-68747851D01*
X103768954Y-68740237D01*
X103793543Y-68731632D01*
X103863320Y-68728069D01*
X103923949Y-68762795D01*
X103956178Y-68824788D01*
X103958500Y-68848672D01*
X103958500Y-68944362D01*
X103973953Y-69061753D01*
X103973956Y-69061761D01*
X103973956Y-69061762D01*
X104034464Y-69207841D01*
X104130718Y-69333282D01*
X104256159Y-69429536D01*
X104402238Y-69490044D01*
X104519639Y-69505500D01*
X104798360Y-69505499D01*
X104850307Y-69498660D01*
X104919339Y-69509425D01*
X104971595Y-69555805D01*
X104990481Y-69623074D01*
X104970001Y-69689874D01*
X104963761Y-69698504D01*
X104961030Y-69701957D01*
X104872001Y-69846294D01*
X104871996Y-69846305D01*
X104818651Y-70007290D01*
X104808500Y-70106647D01*
X104808500Y-70703337D01*
X104808501Y-70703355D01*
X104818650Y-70802707D01*
X104818651Y-70802710D01*
X104871996Y-70963694D01*
X104872001Y-70963705D01*
X104961029Y-71108040D01*
X104961032Y-71108044D01*
X104970307Y-71117319D01*
X105003792Y-71178642D01*
X104998808Y-71248334D01*
X104970307Y-71292681D01*
X104961032Y-71301955D01*
X104961029Y-71301959D01*
X104872001Y-71446294D01*
X104871996Y-71446305D01*
X104818651Y-71607290D01*
X104808500Y-71706647D01*
X104808500Y-72303337D01*
X104808501Y-72303355D01*
X104818650Y-72402707D01*
X104818651Y-72402710D01*
X104871996Y-72563694D01*
X104872001Y-72563705D01*
X104961029Y-72708040D01*
X104961032Y-72708044D01*
X105080955Y-72827967D01*
X105080959Y-72827970D01*
X105225294Y-72916998D01*
X105225297Y-72916999D01*
X105225303Y-72917003D01*
X105386292Y-72970349D01*
X105485655Y-72980500D01*
X106032344Y-72980499D01*
X106032352Y-72980498D01*
X106032355Y-72980498D01*
X106086760Y-72974940D01*
X106131708Y-72970349D01*
X106292697Y-72917003D01*
X106437044Y-72827968D01*
X106446319Y-72818693D01*
X106507642Y-72785208D01*
X106577334Y-72790192D01*
X106621681Y-72818693D01*
X106630955Y-72827967D01*
X106630959Y-72827970D01*
X106775294Y-72916998D01*
X106775297Y-72916999D01*
X106775303Y-72917003D01*
X106936292Y-72970349D01*
X107035655Y-72980500D01*
X107582344Y-72980499D01*
X107582352Y-72980498D01*
X107582355Y-72980498D01*
X107636760Y-72974940D01*
X107681708Y-72970349D01*
X107842697Y-72917003D01*
X107987044Y-72827968D01*
X108060191Y-72754820D01*
X108121510Y-72721338D01*
X108188821Y-72725461D01*
X108231046Y-72740237D01*
X108231049Y-72740237D01*
X108231051Y-72740238D01*
X108399997Y-72759274D01*
X108400000Y-72759274D01*
X108400003Y-72759274D01*
X108568951Y-72740238D01*
X108568954Y-72740237D01*
X108729437Y-72684082D01*
X108873400Y-72593624D01*
X108993624Y-72473400D01*
X109084082Y-72329437D01*
X109140237Y-72168954D01*
X109140237Y-72168953D01*
X109140238Y-72168951D01*
X109159274Y-72000002D01*
X109159274Y-71999997D01*
X109140238Y-71831048D01*
X109099691Y-71715172D01*
X109084082Y-71670563D01*
X108993624Y-71526600D01*
X108873400Y-71406376D01*
X108729437Y-71315918D01*
X108689533Y-71301955D01*
X108568951Y-71259761D01*
X108400003Y-71240726D01*
X108399996Y-71240726D01*
X108250302Y-71257592D01*
X108181480Y-71245537D01*
X108130101Y-71198188D01*
X108112477Y-71130578D01*
X108130880Y-71069276D01*
X108196003Y-70963697D01*
X108249349Y-70802708D01*
X108259500Y-70703345D01*
X108259499Y-70395957D01*
X108279183Y-70328920D01*
X108331987Y-70283165D01*
X108401146Y-70273221D01*
X108464701Y-70302246D01*
X108471180Y-70308278D01*
X108636600Y-70473698D01*
X108748702Y-70585800D01*
X108885998Y-70665067D01*
X109039132Y-70706100D01*
X111180500Y-70706100D01*
X111247539Y-70725785D01*
X111293294Y-70778589D01*
X111304500Y-70830100D01*
X111304500Y-71451613D01*
X111310913Y-71522192D01*
X111310913Y-71522194D01*
X111310914Y-71522196D01*
X111361522Y-71684606D01*
X111395769Y-71741258D01*
X111449530Y-71830188D01*
X111569811Y-71950469D01*
X111569813Y-71950470D01*
X111569815Y-71950472D01*
X111715394Y-72038478D01*
X111877804Y-72089086D01*
X111948384Y-72095500D01*
X111948387Y-72095500D01*
X112461613Y-72095500D01*
X112461616Y-72095500D01*
X112532196Y-72089086D01*
X112694606Y-72038478D01*
X112840185Y-71950472D01*
X112842280Y-71948377D01*
X112942319Y-71848339D01*
X113003642Y-71814854D01*
X113073334Y-71819838D01*
X113117681Y-71848339D01*
X113219811Y-71950469D01*
X113219813Y-71950470D01*
X113219815Y-71950472D01*
X113365394Y-72038478D01*
X113527804Y-72089086D01*
X113598384Y-72095500D01*
X113598387Y-72095500D01*
X114111613Y-72095500D01*
X114111616Y-72095500D01*
X114182196Y-72089086D01*
X114344606Y-72038478D01*
X114490185Y-71950472D01*
X114610472Y-71830185D01*
X114639632Y-71781949D01*
X114691160Y-71734762D01*
X114745748Y-71722100D01*
X115551655Y-71722100D01*
X115618694Y-71741785D01*
X115664038Y-71793698D01*
X115665965Y-71797830D01*
X115801505Y-71991401D01*
X115968599Y-72158495D01*
X115988462Y-72172403D01*
X116162165Y-72294032D01*
X116162167Y-72294033D01*
X116162170Y-72294035D01*
X116376337Y-72393903D01*
X116376343Y-72393904D01*
X116376344Y-72393905D01*
X116431285Y-72408626D01*
X116604592Y-72455063D01*
X116775319Y-72470000D01*
X116839999Y-72475659D01*
X116840000Y-72475659D01*
X116840001Y-72475659D01*
X116904681Y-72470000D01*
X117075408Y-72455063D01*
X117303663Y-72393903D01*
X117517830Y-72294035D01*
X117711401Y-72158495D01*
X117833717Y-72036178D01*
X117895036Y-72002696D01*
X117964728Y-72007680D01*
X118020662Y-72049551D01*
X118037577Y-72080528D01*
X118086646Y-72212088D01*
X118086649Y-72212093D01*
X118172809Y-72327187D01*
X118172812Y-72327190D01*
X118287906Y-72413350D01*
X118287913Y-72413354D01*
X118422620Y-72463596D01*
X118422627Y-72463598D01*
X118482155Y-72469999D01*
X118482172Y-72470000D01*
X119130000Y-72470000D01*
X119130000Y-71553012D01*
X119187007Y-71585925D01*
X119314174Y-71620000D01*
X119445826Y-71620000D01*
X119572993Y-71585925D01*
X119630000Y-71553012D01*
X119630000Y-72470000D01*
X120277828Y-72470000D01*
X120277844Y-72469999D01*
X120337372Y-72463598D01*
X120337379Y-72463596D01*
X120472086Y-72413354D01*
X120472093Y-72413350D01*
X120587187Y-72327190D01*
X120587190Y-72327187D01*
X120673350Y-72212093D01*
X120673354Y-72212086D01*
X120723596Y-72077379D01*
X120723598Y-72077372D01*
X120729999Y-72017844D01*
X120730000Y-72017827D01*
X120730000Y-71370000D01*
X119813012Y-71370000D01*
X119845925Y-71312993D01*
X119880000Y-71185826D01*
X119880000Y-71054174D01*
X119845925Y-70927007D01*
X119813012Y-70870000D01*
X120730000Y-70870000D01*
X120730000Y-70222172D01*
X120729999Y-70222155D01*
X120723598Y-70162627D01*
X120723596Y-70162620D01*
X120673354Y-70027913D01*
X120673350Y-70027906D01*
X120587190Y-69912812D01*
X120587187Y-69912809D01*
X120472093Y-69826649D01*
X120472086Y-69826645D01*
X120337379Y-69776403D01*
X120337372Y-69776401D01*
X120277844Y-69770000D01*
X119630000Y-69770000D01*
X119630000Y-70686988D01*
X119572993Y-70654075D01*
X119445826Y-70620000D01*
X119314174Y-70620000D01*
X119187007Y-70654075D01*
X119130000Y-70686988D01*
X119130000Y-69770000D01*
X118482155Y-69770000D01*
X118422627Y-69776401D01*
X118422620Y-69776403D01*
X118287913Y-69826645D01*
X118287906Y-69826649D01*
X118172812Y-69912809D01*
X118172809Y-69912812D01*
X118086649Y-70027906D01*
X118086645Y-70027913D01*
X118037578Y-70159470D01*
X117995707Y-70215404D01*
X117930242Y-70239821D01*
X117861969Y-70224969D01*
X117833715Y-70203819D01*
X117774396Y-70144500D01*
X117711401Y-70081505D01*
X117711397Y-70081502D01*
X117711396Y-70081501D01*
X117517834Y-69945967D01*
X117517830Y-69945965D01*
X117446727Y-69912809D01*
X117303663Y-69846097D01*
X117303659Y-69846096D01*
X117303655Y-69846094D01*
X117075413Y-69784938D01*
X117075403Y-69784936D01*
X116840001Y-69764341D01*
X116839999Y-69764341D01*
X116604596Y-69784936D01*
X116604586Y-69784938D01*
X116376344Y-69846094D01*
X116376335Y-69846098D01*
X116162171Y-69945964D01*
X116162169Y-69945965D01*
X115968597Y-70081505D01*
X115801506Y-70248596D01*
X115665965Y-70442170D01*
X115665964Y-70442173D01*
X115664040Y-70446300D01*
X115617870Y-70498741D01*
X115551656Y-70517900D01*
X114745748Y-70517900D01*
X114678709Y-70498215D01*
X114639632Y-70458051D01*
X114610471Y-70409814D01*
X114610468Y-70409810D01*
X114490188Y-70289530D01*
X114422475Y-70248596D01*
X114344606Y-70201522D01*
X114182196Y-70150914D01*
X114182194Y-70150913D01*
X114182192Y-70150913D01*
X114132778Y-70146423D01*
X114111616Y-70144500D01*
X114111613Y-70144500D01*
X113922560Y-70144500D01*
X113855521Y-70124815D01*
X113834879Y-70108181D01*
X113348899Y-69622201D01*
X113348898Y-69622200D01*
X113211602Y-69542933D01*
X113211603Y-69542933D01*
X113160557Y-69529255D01*
X113058468Y-69501900D01*
X113058466Y-69501900D01*
X111081569Y-69501900D01*
X111014530Y-69482215D01*
X110968775Y-69429411D01*
X110958349Y-69391784D01*
X110940238Y-69231048D01*
X110926756Y-69192521D01*
X110884082Y-69070563D01*
X110793624Y-68926600D01*
X110673400Y-68806376D01*
X110568142Y-68740238D01*
X110529439Y-68715919D01*
X110529438Y-68715918D01*
X110529437Y-68715918D01*
X110457688Y-68690812D01*
X110368951Y-68659761D01*
X110200003Y-68640726D01*
X110199996Y-68640726D01*
X110047382Y-68657921D01*
X109978560Y-68645866D01*
X109927181Y-68598517D01*
X109909499Y-68534701D01*
X109909499Y-67590636D01*
X109894046Y-67473246D01*
X109894044Y-67473241D01*
X109894044Y-67473238D01*
X109833536Y-67327159D01*
X109737282Y-67201718D01*
X109611841Y-67105464D01*
X109609144Y-67104347D01*
X109465762Y-67044956D01*
X109465760Y-67044955D01*
X109348361Y-67029500D01*
X109069636Y-67029500D01*
X108952246Y-67044953D01*
X108952234Y-67044957D01*
X108931450Y-67053566D01*
X108861981Y-67061033D01*
X108836550Y-67053566D01*
X108815765Y-67044957D01*
X108815760Y-67044955D01*
X108698361Y-67029500D01*
X108419636Y-67029500D01*
X108302241Y-67044954D01*
X108302239Y-67044955D01*
X108280796Y-67053837D01*
X108211327Y-67061304D01*
X108185895Y-67053837D01*
X108165631Y-67045444D01*
X108109000Y-67037987D01*
X108109000Y-67080499D01*
X108089315Y-67147538D01*
X108060489Y-67178873D01*
X108030719Y-67201716D01*
X108030716Y-67201720D01*
X108007374Y-67232140D01*
X107950948Y-67273341D01*
X107881202Y-67277496D01*
X107820281Y-67243283D01*
X107810630Y-67232146D01*
X107787282Y-67201718D01*
X107787280Y-67201717D01*
X107787280Y-67201716D01*
X107757511Y-67178873D01*
X107716310Y-67122444D01*
X107709000Y-67080499D01*
X107709000Y-67037987D01*
X107652370Y-67045443D01*
X107632103Y-67053838D01*
X107562633Y-67061304D01*
X107537203Y-67053837D01*
X107515762Y-67044956D01*
X107515760Y-67044955D01*
X107398361Y-67029500D01*
X107119636Y-67029500D01*
X107002246Y-67044953D01*
X107002234Y-67044957D01*
X106981450Y-67053566D01*
X106911981Y-67061033D01*
X106886550Y-67053566D01*
X106865765Y-67044957D01*
X106865760Y-67044955D01*
X106748361Y-67029500D01*
X106469636Y-67029500D01*
X106352241Y-67044954D01*
X106352239Y-67044955D01*
X106330796Y-67053837D01*
X106261327Y-67061304D01*
X106235895Y-67053837D01*
X106215631Y-67045444D01*
X106158999Y-67037987D01*
X106116858Y-67074945D01*
X106053476Y-67104347D01*
X105984260Y-67094815D01*
X105931185Y-67049374D01*
X105911102Y-66982453D01*
X105911100Y-66981716D01*
X105911100Y-66761760D01*
X105930785Y-66694721D01*
X105947419Y-66674079D01*
X106247879Y-66373619D01*
X106309202Y-66340134D01*
X106335560Y-66337300D01*
X111412680Y-66337300D01*
X111479719Y-66356985D01*
X111525474Y-66409789D01*
X111535418Y-66478947D01*
X111506393Y-66542503D01*
X111500361Y-66548981D01*
X111449531Y-66599810D01*
X111449530Y-66599811D01*
X111361522Y-66745393D01*
X111310913Y-66907807D01*
X111304500Y-66978386D01*
X111304500Y-67641613D01*
X111310913Y-67712192D01*
X111310913Y-67712194D01*
X111310914Y-67712196D01*
X111361522Y-67874606D01*
X111395769Y-67931258D01*
X111449530Y-68020188D01*
X111569811Y-68140469D01*
X111569813Y-68140470D01*
X111569815Y-68140472D01*
X111715394Y-68228478D01*
X111877804Y-68279086D01*
X111948384Y-68285500D01*
X111948387Y-68285500D01*
X112461613Y-68285500D01*
X112461616Y-68285500D01*
X112532196Y-68279086D01*
X112694606Y-68228478D01*
X112840185Y-68140472D01*
X112840189Y-68140468D01*
X112942319Y-68038339D01*
X113003642Y-68004854D01*
X113073334Y-68009838D01*
X113117681Y-68038339D01*
X113219811Y-68140469D01*
X113219813Y-68140470D01*
X113219815Y-68140472D01*
X113365394Y-68228478D01*
X113527804Y-68279086D01*
X113598384Y-68285500D01*
X113598387Y-68285500D01*
X114111613Y-68285500D01*
X114111616Y-68285500D01*
X114182196Y-68279086D01*
X114344606Y-68228478D01*
X114490185Y-68140472D01*
X114610472Y-68020185D01*
X114639632Y-67971949D01*
X114691160Y-67924762D01*
X114745748Y-67912100D01*
X115551655Y-67912100D01*
X115618694Y-67931785D01*
X115664038Y-67983698D01*
X115665965Y-67987830D01*
X115801505Y-68181401D01*
X115968599Y-68348495D01*
X116045135Y-68402086D01*
X116162165Y-68484032D01*
X116162167Y-68484033D01*
X116162170Y-68484035D01*
X116376337Y-68583903D01*
X116604592Y-68645063D01*
X116775319Y-68660000D01*
X116839999Y-68665659D01*
X116840000Y-68665659D01*
X116840001Y-68665659D01*
X116904681Y-68660000D01*
X117075408Y-68645063D01*
X117303663Y-68583903D01*
X117517830Y-68484035D01*
X117711401Y-68348495D01*
X117833717Y-68226178D01*
X117895036Y-68192696D01*
X117964728Y-68197680D01*
X118020662Y-68239551D01*
X118037577Y-68270528D01*
X118086646Y-68402088D01*
X118086649Y-68402093D01*
X118172809Y-68517187D01*
X118172812Y-68517190D01*
X118287906Y-68603350D01*
X118287913Y-68603354D01*
X118422620Y-68653596D01*
X118422627Y-68653598D01*
X118482155Y-68659999D01*
X118482172Y-68660000D01*
X119130000Y-68660000D01*
X119130000Y-67743012D01*
X119187007Y-67775925D01*
X119314174Y-67810000D01*
X119445826Y-67810000D01*
X119572993Y-67775925D01*
X119630000Y-67743012D01*
X119630000Y-68660000D01*
X120277828Y-68660000D01*
X120277844Y-68659999D01*
X120337372Y-68653598D01*
X120337379Y-68653596D01*
X120472086Y-68603354D01*
X120472093Y-68603350D01*
X120587187Y-68517190D01*
X120587190Y-68517187D01*
X120673350Y-68402093D01*
X120673354Y-68402086D01*
X120723596Y-68267379D01*
X120723598Y-68267372D01*
X120729999Y-68207844D01*
X120730000Y-68207827D01*
X120730000Y-67560000D01*
X119813012Y-67560000D01*
X119845925Y-67502993D01*
X119880000Y-67375826D01*
X119880000Y-67244174D01*
X119845925Y-67117007D01*
X119813012Y-67060000D01*
X120730000Y-67060000D01*
X120730000Y-66412172D01*
X120729999Y-66412155D01*
X120723598Y-66352627D01*
X120723596Y-66352620D01*
X120673354Y-66217913D01*
X120673350Y-66217906D01*
X120587190Y-66102812D01*
X120587187Y-66102809D01*
X120472093Y-66016649D01*
X120472086Y-66016645D01*
X120337379Y-65966403D01*
X120337372Y-65966401D01*
X120277844Y-65960000D01*
X119630000Y-65960000D01*
X119630000Y-66876988D01*
X119572993Y-66844075D01*
X119445826Y-66810000D01*
X119314174Y-66810000D01*
X119187007Y-66844075D01*
X119130000Y-66876988D01*
X119130000Y-65960000D01*
X118482155Y-65960000D01*
X118422627Y-65966401D01*
X118422620Y-65966403D01*
X118287913Y-66016645D01*
X118287906Y-66016649D01*
X118172812Y-66102809D01*
X118172809Y-66102812D01*
X118086649Y-66217906D01*
X118086645Y-66217913D01*
X118037578Y-66349470D01*
X117995707Y-66405404D01*
X117930242Y-66429821D01*
X117861969Y-66414969D01*
X117833715Y-66393819D01*
X117774396Y-66334500D01*
X117711401Y-66271505D01*
X117711397Y-66271502D01*
X117711396Y-66271501D01*
X117517834Y-66135967D01*
X117517830Y-66135965D01*
X117422050Y-66091302D01*
X117303663Y-66036097D01*
X117303659Y-66036096D01*
X117303655Y-66036094D01*
X117075413Y-65974938D01*
X117075403Y-65974936D01*
X116840001Y-65954341D01*
X116839999Y-65954341D01*
X116604596Y-65974936D01*
X116604586Y-65974938D01*
X116376344Y-66036094D01*
X116376335Y-66036098D01*
X116162171Y-66135964D01*
X116162169Y-66135965D01*
X115968597Y-66271505D01*
X115801506Y-66438596D01*
X115665965Y-66632170D01*
X115665964Y-66632173D01*
X115664040Y-66636300D01*
X115617870Y-66688741D01*
X115551656Y-66707900D01*
X114745748Y-66707900D01*
X114678709Y-66688215D01*
X114639632Y-66648051D01*
X114625880Y-66625303D01*
X114610472Y-66599815D01*
X114610471Y-66599814D01*
X114610468Y-66599810D01*
X114490188Y-66479530D01*
X114422475Y-66438596D01*
X114344606Y-66391522D01*
X114182196Y-66340914D01*
X114182194Y-66340913D01*
X114182192Y-66340913D01*
X114132778Y-66336423D01*
X114111616Y-66334500D01*
X114111613Y-66334500D01*
X113782360Y-66334500D01*
X113715321Y-66314815D01*
X113694679Y-66298181D01*
X112857679Y-65461181D01*
X112824194Y-65399858D01*
X112829178Y-65330166D01*
X112857679Y-65285819D01*
X113631679Y-64511819D01*
X113693002Y-64478334D01*
X113719360Y-64475500D01*
X114111613Y-64475500D01*
X114111616Y-64475500D01*
X114182196Y-64469086D01*
X114344606Y-64418478D01*
X114490185Y-64330472D01*
X114610472Y-64210185D01*
X114639632Y-64161949D01*
X114691160Y-64114762D01*
X114745748Y-64102100D01*
X115551655Y-64102100D01*
X115618694Y-64121785D01*
X115664038Y-64173698D01*
X115665965Y-64177830D01*
X115801505Y-64371401D01*
X115968599Y-64538495D01*
X116019734Y-64574300D01*
X116162165Y-64674032D01*
X116162167Y-64674033D01*
X116162170Y-64674035D01*
X116376337Y-64773903D01*
X116604592Y-64835063D01*
X116775319Y-64850000D01*
X116839999Y-64855659D01*
X116840000Y-64855659D01*
X116840001Y-64855659D01*
X116904681Y-64850000D01*
X117075408Y-64835063D01*
X117303663Y-64773903D01*
X117517830Y-64674035D01*
X117711401Y-64538495D01*
X117833717Y-64416178D01*
X117895036Y-64382696D01*
X117964728Y-64387680D01*
X118020662Y-64429551D01*
X118037577Y-64460528D01*
X118086646Y-64592088D01*
X118086649Y-64592093D01*
X118172809Y-64707187D01*
X118172812Y-64707190D01*
X118287906Y-64793350D01*
X118287913Y-64793354D01*
X118422620Y-64843596D01*
X118422627Y-64843598D01*
X118482155Y-64849999D01*
X118482172Y-64850000D01*
X119130000Y-64850000D01*
X119130000Y-63933012D01*
X119187007Y-63965925D01*
X119314174Y-64000000D01*
X119445826Y-64000000D01*
X119572993Y-63965925D01*
X119630000Y-63933012D01*
X119630000Y-64850000D01*
X120277828Y-64850000D01*
X120277844Y-64849999D01*
X120337372Y-64843598D01*
X120337379Y-64843596D01*
X120472086Y-64793354D01*
X120472093Y-64793350D01*
X120587187Y-64707190D01*
X120587190Y-64707187D01*
X120673350Y-64592093D01*
X120673354Y-64592086D01*
X120723596Y-64457379D01*
X120723598Y-64457372D01*
X120729999Y-64397844D01*
X120730000Y-64397827D01*
X120730000Y-63750000D01*
X119813012Y-63750000D01*
X119845925Y-63692993D01*
X119880000Y-63565826D01*
X119880000Y-63434174D01*
X119845925Y-63307007D01*
X119813012Y-63250000D01*
X120730000Y-63250000D01*
X120730000Y-62602172D01*
X120729999Y-62602155D01*
X120723598Y-62542627D01*
X120723596Y-62542620D01*
X120673354Y-62407913D01*
X120673350Y-62407906D01*
X120587190Y-62292812D01*
X120587187Y-62292809D01*
X120472093Y-62206649D01*
X120472086Y-62206645D01*
X120337379Y-62156403D01*
X120337372Y-62156401D01*
X120277844Y-62150000D01*
X119630000Y-62150000D01*
X119630000Y-63066988D01*
X119572993Y-63034075D01*
X119445826Y-63000000D01*
X119314174Y-63000000D01*
X119187007Y-63034075D01*
X119130000Y-63066988D01*
X119130000Y-62150000D01*
X118482155Y-62150000D01*
X118422627Y-62156401D01*
X118422620Y-62156403D01*
X118287913Y-62206645D01*
X118287906Y-62206649D01*
X118172812Y-62292809D01*
X118172809Y-62292812D01*
X118086649Y-62407906D01*
X118086645Y-62407913D01*
X118037578Y-62539470D01*
X117995707Y-62595404D01*
X117930242Y-62619821D01*
X117861969Y-62604969D01*
X117833715Y-62583819D01*
X117774396Y-62524500D01*
X117711401Y-62461505D01*
X117711397Y-62461502D01*
X117711396Y-62461501D01*
X117517834Y-62325967D01*
X117517830Y-62325965D01*
X117446727Y-62292809D01*
X117303663Y-62226097D01*
X117303659Y-62226096D01*
X117303655Y-62226094D01*
X117075413Y-62164938D01*
X117075403Y-62164936D01*
X116840001Y-62144341D01*
X116839999Y-62144341D01*
X116604596Y-62164936D01*
X116604586Y-62164938D01*
X116376344Y-62226094D01*
X116376335Y-62226098D01*
X116162171Y-62325964D01*
X116162169Y-62325965D01*
X115968597Y-62461505D01*
X115801506Y-62628596D01*
X115665965Y-62822170D01*
X115665964Y-62822173D01*
X115664040Y-62826300D01*
X115617870Y-62878741D01*
X115551656Y-62897900D01*
X114745748Y-62897900D01*
X114678709Y-62878215D01*
X114639632Y-62838051D01*
X114610471Y-62789814D01*
X114610468Y-62789810D01*
X114490188Y-62669530D01*
X114422475Y-62628596D01*
X114344606Y-62581522D01*
X114182196Y-62530914D01*
X114182194Y-62530913D01*
X114182192Y-62530913D01*
X114132778Y-62526423D01*
X114111616Y-62524500D01*
X113598384Y-62524500D01*
X113579145Y-62526248D01*
X113527807Y-62530913D01*
X113365393Y-62581522D01*
X113219811Y-62669530D01*
X113219810Y-62669531D01*
X113117681Y-62771661D01*
X113056358Y-62805146D01*
X112986666Y-62800162D01*
X112942319Y-62771661D01*
X112840188Y-62669530D01*
X112772475Y-62628596D01*
X112694606Y-62581522D01*
X112532196Y-62530914D01*
X112532194Y-62530913D01*
X112532192Y-62530913D01*
X112482778Y-62526423D01*
X112461616Y-62524500D01*
X111948384Y-62524500D01*
X111929145Y-62526248D01*
X111877807Y-62530913D01*
X111715393Y-62581522D01*
X111569811Y-62669530D01*
X111449530Y-62789811D01*
X111361522Y-62935393D01*
X111310913Y-63097807D01*
X111304500Y-63168386D01*
X111304500Y-63831613D01*
X111310913Y-63902192D01*
X111310913Y-63902194D01*
X111310914Y-63902196D01*
X111361522Y-64064606D01*
X111395769Y-64121258D01*
X111449530Y-64210188D01*
X111569810Y-64330468D01*
X111569814Y-64330471D01*
X111569815Y-64330472D01*
X111592496Y-64344183D01*
X111639684Y-64395710D01*
X111651523Y-64464570D01*
X111624255Y-64528899D01*
X111566536Y-64568273D01*
X111528347Y-64574300D01*
X106247160Y-64574300D01*
X106180121Y-64554615D01*
X106159479Y-64537981D01*
X105946819Y-64325321D01*
X105913334Y-64263998D01*
X105910500Y-64237640D01*
X105910500Y-63729116D01*
X105930185Y-63662077D01*
X105982989Y-63616322D01*
X106052147Y-63606378D01*
X106109903Y-63630676D01*
X106110405Y-63631061D01*
X106151654Y-63687454D01*
X106159000Y-63729499D01*
X106159000Y-63772010D01*
X106215631Y-63764555D01*
X106235887Y-63756165D01*
X106305356Y-63748693D01*
X106330797Y-63756163D01*
X106330802Y-63756165D01*
X106352238Y-63765044D01*
X106469639Y-63780500D01*
X106748360Y-63780499D01*
X106748361Y-63780499D01*
X106760594Y-63778888D01*
X106865762Y-63765044D01*
X106886545Y-63756434D01*
X106956014Y-63748965D01*
X106981453Y-63756434D01*
X107002238Y-63765044D01*
X107119639Y-63780500D01*
X107398360Y-63780499D01*
X107398361Y-63780499D01*
X107412018Y-63778701D01*
X107515762Y-63765044D01*
X107537200Y-63756163D01*
X107606668Y-63748694D01*
X107632106Y-63756163D01*
X107652365Y-63764554D01*
X107652377Y-63764558D01*
X107708998Y-63772011D01*
X107709000Y-63772010D01*
X107709000Y-63729499D01*
X107728685Y-63662460D01*
X107757512Y-63631125D01*
X107787282Y-63608282D01*
X107810625Y-63577860D01*
X107867051Y-63536658D01*
X107936797Y-63532503D01*
X107997718Y-63566714D01*
X108007368Y-63577851D01*
X108030718Y-63608282D01*
X108060485Y-63631123D01*
X108101688Y-63687548D01*
X108109000Y-63729499D01*
X108109000Y-63772010D01*
X108165631Y-63764555D01*
X108185887Y-63756165D01*
X108255356Y-63748693D01*
X108280797Y-63756163D01*
X108280802Y-63756165D01*
X108302238Y-63765044D01*
X108419639Y-63780500D01*
X108698360Y-63780499D01*
X108698361Y-63780499D01*
X108710594Y-63778888D01*
X108815762Y-63765044D01*
X108836545Y-63756434D01*
X108906014Y-63748965D01*
X108931453Y-63756434D01*
X108952238Y-63765044D01*
X109069639Y-63780500D01*
X109348360Y-63780499D01*
X109348363Y-63780499D01*
X109465753Y-63765046D01*
X109465757Y-63765044D01*
X109465762Y-63765044D01*
X109611841Y-63704536D01*
X109737282Y-63608282D01*
X109833536Y-63482841D01*
X109894044Y-63336762D01*
X109909500Y-63219361D01*
X109909499Y-62276564D01*
X109929183Y-62209526D01*
X109981987Y-62163771D01*
X110047382Y-62153345D01*
X110089620Y-62158104D01*
X110099999Y-62159274D01*
X110100000Y-62159274D01*
X110100003Y-62159274D01*
X110268951Y-62140238D01*
X110290502Y-62132697D01*
X110429437Y-62084082D01*
X110573400Y-61993624D01*
X110693624Y-61873400D01*
X110784082Y-61729437D01*
X110840237Y-61568954D01*
X110840237Y-61568953D01*
X110840238Y-61568951D01*
X110857898Y-61412216D01*
X110884965Y-61347802D01*
X110942560Y-61308247D01*
X110981118Y-61302100D01*
X112924266Y-61302100D01*
X112924268Y-61302100D01*
X113077402Y-61261067D01*
X113214698Y-61181800D01*
X113326800Y-61069698D01*
X113694679Y-60701819D01*
X113756002Y-60668334D01*
X113782360Y-60665500D01*
X114111613Y-60665500D01*
X114111616Y-60665500D01*
X114182196Y-60659086D01*
X114344606Y-60608478D01*
X114490185Y-60520472D01*
X114610472Y-60400185D01*
X114639632Y-60351949D01*
X114691160Y-60304762D01*
X114745748Y-60292100D01*
X115551655Y-60292100D01*
X115618694Y-60311785D01*
X115664038Y-60363698D01*
X115665965Y-60367830D01*
X115801505Y-60561401D01*
X115968599Y-60728495D01*
X116045135Y-60782086D01*
X116162165Y-60864032D01*
X116162167Y-60864033D01*
X116162170Y-60864035D01*
X116376337Y-60963903D01*
X116604592Y-61025063D01*
X116775319Y-61040000D01*
X116839999Y-61045659D01*
X116840000Y-61045659D01*
X116840001Y-61045659D01*
X116904681Y-61040000D01*
X117075408Y-61025063D01*
X117303663Y-60963903D01*
X117517830Y-60864035D01*
X117711401Y-60728495D01*
X117833717Y-60606178D01*
X117895036Y-60572696D01*
X117964728Y-60577680D01*
X118020662Y-60619551D01*
X118037577Y-60650528D01*
X118086646Y-60782088D01*
X118086649Y-60782093D01*
X118172809Y-60897187D01*
X118172812Y-60897190D01*
X118287906Y-60983350D01*
X118287913Y-60983354D01*
X118422620Y-61033596D01*
X118422627Y-61033598D01*
X118482155Y-61039999D01*
X118482172Y-61040000D01*
X119130000Y-61040000D01*
X119130000Y-60123012D01*
X119187007Y-60155925D01*
X119314174Y-60190000D01*
X119445826Y-60190000D01*
X119572993Y-60155925D01*
X119630000Y-60123012D01*
X119630000Y-61040000D01*
X120277828Y-61040000D01*
X120277844Y-61039999D01*
X120337372Y-61033598D01*
X120337379Y-61033596D01*
X120472086Y-60983354D01*
X120472093Y-60983350D01*
X120587187Y-60897190D01*
X120587190Y-60897187D01*
X120673350Y-60782093D01*
X120673354Y-60782086D01*
X120723596Y-60647379D01*
X120723598Y-60647372D01*
X120729999Y-60587844D01*
X120730000Y-60587827D01*
X120730000Y-59940000D01*
X119813012Y-59940000D01*
X119845925Y-59882993D01*
X119880000Y-59755826D01*
X119880000Y-59624174D01*
X119845925Y-59497007D01*
X119813012Y-59440000D01*
X120730000Y-59440000D01*
X120730000Y-58792172D01*
X120729999Y-58792155D01*
X120723598Y-58732627D01*
X120723596Y-58732620D01*
X120673354Y-58597913D01*
X120673350Y-58597906D01*
X120587190Y-58482812D01*
X120587187Y-58482809D01*
X120472093Y-58396649D01*
X120472086Y-58396645D01*
X120337379Y-58346403D01*
X120337372Y-58346401D01*
X120277844Y-58340000D01*
X119630000Y-58340000D01*
X119630000Y-59256988D01*
X119572993Y-59224075D01*
X119445826Y-59190000D01*
X119314174Y-59190000D01*
X119187007Y-59224075D01*
X119130000Y-59256988D01*
X119130000Y-58340000D01*
X118482155Y-58340000D01*
X118422627Y-58346401D01*
X118422620Y-58346403D01*
X118287913Y-58396645D01*
X118287906Y-58396649D01*
X118172812Y-58482809D01*
X118172809Y-58482812D01*
X118086649Y-58597906D01*
X118086645Y-58597913D01*
X118037578Y-58729470D01*
X117995707Y-58785404D01*
X117930242Y-58809821D01*
X117861969Y-58794969D01*
X117833715Y-58773819D01*
X117774396Y-58714500D01*
X117711401Y-58651505D01*
X117711397Y-58651502D01*
X117711396Y-58651501D01*
X117517834Y-58515967D01*
X117517830Y-58515965D01*
X117446727Y-58482809D01*
X117303663Y-58416097D01*
X117303659Y-58416096D01*
X117303655Y-58416094D01*
X117075413Y-58354938D01*
X117075403Y-58354936D01*
X116840001Y-58334341D01*
X116839999Y-58334341D01*
X116604596Y-58354936D01*
X116604586Y-58354938D01*
X116376344Y-58416094D01*
X116376335Y-58416098D01*
X116162171Y-58515964D01*
X116162169Y-58515965D01*
X115968597Y-58651505D01*
X115801506Y-58818596D01*
X115665965Y-59012170D01*
X115665964Y-59012173D01*
X115664040Y-59016300D01*
X115617870Y-59068741D01*
X115551656Y-59087900D01*
X114745748Y-59087900D01*
X114678709Y-59068215D01*
X114639632Y-59028051D01*
X114610471Y-58979814D01*
X114610468Y-58979810D01*
X114490188Y-58859530D01*
X114422475Y-58818596D01*
X114344606Y-58771522D01*
X114182196Y-58720914D01*
X114182194Y-58720913D01*
X114182192Y-58720913D01*
X114132778Y-58716423D01*
X114111616Y-58714500D01*
X113598384Y-58714500D01*
X113579145Y-58716248D01*
X113527807Y-58720913D01*
X113365393Y-58771522D01*
X113219811Y-58859530D01*
X113219810Y-58859531D01*
X113117681Y-58961661D01*
X113056358Y-58995146D01*
X112986666Y-58990162D01*
X112942319Y-58961661D01*
X112840188Y-58859530D01*
X112772475Y-58818596D01*
X112694606Y-58771522D01*
X112532196Y-58720914D01*
X112532194Y-58720913D01*
X112532192Y-58720913D01*
X112482778Y-58716423D01*
X112461616Y-58714500D01*
X111948384Y-58714500D01*
X111929145Y-58716248D01*
X111877807Y-58720913D01*
X111715393Y-58771522D01*
X111569811Y-58859530D01*
X111449530Y-58979811D01*
X111361522Y-59125393D01*
X111310913Y-59287807D01*
X111304500Y-59358386D01*
X111304500Y-59973900D01*
X111284815Y-60040939D01*
X111232011Y-60086694D01*
X111180500Y-60097900D01*
X109356068Y-60097900D01*
X109197532Y-60097900D01*
X109095442Y-60125255D01*
X109044397Y-60138933D01*
X108907103Y-60218199D01*
X108907100Y-60218201D01*
X108077201Y-61048100D01*
X108077199Y-61048103D01*
X107997933Y-61185397D01*
X107997933Y-61185398D01*
X107959571Y-61328566D01*
X107956900Y-61338533D01*
X107955939Y-61345832D01*
X107927671Y-61409728D01*
X107869346Y-61448198D01*
X107799481Y-61449028D01*
X107740258Y-61411954D01*
X107710480Y-61348748D01*
X107709000Y-61329644D01*
X107709000Y-61312987D01*
X107652370Y-61320443D01*
X107632103Y-61328838D01*
X107562633Y-61336304D01*
X107537203Y-61328837D01*
X107515762Y-61319956D01*
X107487948Y-61316294D01*
X107424052Y-61288026D01*
X107385582Y-61229701D01*
X107380916Y-61179473D01*
X107388474Y-61112400D01*
X107383663Y-61069698D01*
X107369438Y-60943448D01*
X107341650Y-60864035D01*
X107313282Y-60782963D01*
X107222824Y-60639000D01*
X107102600Y-60518776D01*
X106958637Y-60428318D01*
X106920112Y-60414837D01*
X106798151Y-60372161D01*
X106629203Y-60353126D01*
X106629197Y-60353126D01*
X106460248Y-60372161D01*
X106299760Y-60428319D01*
X106155799Y-60518776D01*
X106035576Y-60638999D01*
X105945119Y-60782960D01*
X105888961Y-60943448D01*
X105869926Y-61112397D01*
X105869926Y-61112404D01*
X105876948Y-61174729D01*
X105864893Y-61243551D01*
X105817544Y-61294930D01*
X105769913Y-61311551D01*
X105702371Y-61320442D01*
X105702369Y-61320443D01*
X105682105Y-61328837D01*
X105612635Y-61336304D01*
X105587203Y-61328837D01*
X105565762Y-61319956D01*
X105565760Y-61319955D01*
X105448361Y-61304500D01*
X105169636Y-61304500D01*
X105052246Y-61319953D01*
X105052234Y-61319957D01*
X105031450Y-61328566D01*
X104961981Y-61336033D01*
X104936550Y-61328566D01*
X104915765Y-61319957D01*
X104915760Y-61319955D01*
X104798361Y-61304500D01*
X104519636Y-61304500D01*
X104402246Y-61319953D01*
X104402237Y-61319956D01*
X104256160Y-61380463D01*
X104130718Y-61476718D01*
X104034463Y-61602160D01*
X103973956Y-61748237D01*
X103972420Y-61753971D01*
X103936053Y-61813630D01*
X103873205Y-61844157D01*
X103838763Y-61845093D01*
X103800004Y-61840726D01*
X103799997Y-61840726D01*
X103631048Y-61859761D01*
X103470560Y-61915919D01*
X103326599Y-62006376D01*
X103206376Y-62126599D01*
X103115919Y-62270560D01*
X103059761Y-62431048D01*
X103040726Y-62599997D01*
X103040726Y-62600002D01*
X103059761Y-62768951D01*
X103097995Y-62878215D01*
X103115918Y-62929437D01*
X103206376Y-63073400D01*
X103326600Y-63193624D01*
X103470563Y-63284082D01*
X103592521Y-63326756D01*
X103631048Y-63340238D01*
X103799997Y-63359274D01*
X103800000Y-63359274D01*
X103800001Y-63359274D01*
X103813605Y-63357740D01*
X103882374Y-63349992D01*
X103951195Y-63362046D01*
X104002575Y-63409394D01*
X104010819Y-63425758D01*
X104034464Y-63482841D01*
X104122751Y-63597900D01*
X104130718Y-63608282D01*
X104256159Y-63704536D01*
X104402238Y-63765044D01*
X104519639Y-63780500D01*
X104582300Y-63780499D01*
X104649338Y-63800183D01*
X104695094Y-63852986D01*
X104706300Y-63904499D01*
X104706300Y-64617668D01*
X104730287Y-64707187D01*
X104747333Y-64770803D01*
X104759096Y-64791177D01*
X104760353Y-64793354D01*
X104765401Y-64802096D01*
X104765402Y-64802100D01*
X104765403Y-64802100D01*
X104826599Y-64908096D01*
X104826601Y-64908099D01*
X105330821Y-65412319D01*
X105364306Y-65473642D01*
X105359322Y-65543334D01*
X105330821Y-65587681D01*
X104827201Y-66091300D01*
X104827199Y-66091303D01*
X104747933Y-66228597D01*
X104729288Y-66298181D01*
X104707245Y-66380447D01*
X104706900Y-66381733D01*
X104706900Y-66905500D01*
X104687215Y-66972539D01*
X104634411Y-67018294D01*
X104582902Y-67029500D01*
X104519637Y-67029500D01*
X104402246Y-67044953D01*
X104402237Y-67044956D01*
X104256160Y-67105463D01*
X104214345Y-67137548D01*
X104130718Y-67201718D01*
X104130717Y-67201719D01*
X104130716Y-67201720D01*
X104073661Y-67276075D01*
X104017233Y-67317277D01*
X103947487Y-67321432D01*
X103934332Y-67317630D01*
X103768952Y-67259762D01*
X103600003Y-67240726D01*
X103599997Y-67240726D01*
X103431048Y-67259761D01*
X103270560Y-67315919D01*
X103126599Y-67406376D01*
X103006376Y-67526599D01*
X102915919Y-67670560D01*
X102859761Y-67831048D01*
X102840726Y-67999997D01*
X102540000Y-67999997D01*
X102540000Y-56394000D01*
X102559685Y-56326961D01*
X102612489Y-56281206D01*
X102664000Y-56270000D01*
X139646000Y-56270000D01*
X139713039Y-56289685D01*
G37*
%TD.AperFunction*%
%TD*%
M02*
