%TF.GenerationSoftware,KiCad,Pcbnew,8.0.5*%
%TF.CreationDate,2024-10-22T14:52:20-04:00*%
%TF.ProjectId,huxley,6875786c-6579-42e6-9b69-6361645f7063,rev?*%
%TF.SameCoordinates,Original*%
%TF.FileFunction,Paste,Top*%
%TF.FilePolarity,Positive*%
%FSLAX46Y46*%
G04 Gerber Fmt 4.6, Leading zero omitted, Abs format (unit mm)*
G04 Created by KiCad (PCBNEW 8.0.5) date 2024-10-22 14:52:20*
%MOMM*%
%LPD*%
G01*
G04 APERTURE LIST*
G04 Aperture macros list*
%AMRoundRect*
0 Rectangle with rounded corners*
0 $1 Rounding radius*
0 $2 $3 $4 $5 $6 $7 $8 $9 X,Y pos of 4 corners*
0 Add a 4 corners polygon primitive as box body*
4,1,4,$2,$3,$4,$5,$6,$7,$8,$9,$2,$3,0*
0 Add four circle primitives for the rounded corners*
1,1,$1+$1,$2,$3*
1,1,$1+$1,$4,$5*
1,1,$1+$1,$6,$7*
1,1,$1+$1,$8,$9*
0 Add four rect primitives between the rounded corners*
20,1,$1+$1,$2,$3,$4,$5,0*
20,1,$1+$1,$4,$5,$6,$7,0*
20,1,$1+$1,$6,$7,$8,$9,0*
20,1,$1+$1,$8,$9,$2,$3,0*%
G04 Aperture macros list end*
%ADD10RoundRect,0.200000X0.275000X-0.200000X0.275000X0.200000X-0.275000X0.200000X-0.275000X-0.200000X0*%
%ADD11RoundRect,0.225000X0.250000X-0.225000X0.250000X0.225000X-0.250000X0.225000X-0.250000X-0.225000X0*%
%ADD12RoundRect,0.225000X0.225000X0.250000X-0.225000X0.250000X-0.225000X-0.250000X0.225000X-0.250000X0*%
%ADD13RoundRect,0.200000X-0.200000X-0.275000X0.200000X-0.275000X0.200000X0.275000X-0.200000X0.275000X0*%
%ADD14RoundRect,0.225000X-0.250000X0.225000X-0.250000X-0.225000X0.250000X-0.225000X0.250000X0.225000X0*%
%ADD15RoundRect,0.200000X-0.275000X0.200000X-0.275000X-0.200000X0.275000X-0.200000X0.275000X0.200000X0*%
%ADD16R,0.355600X1.409700*%
%ADD17RoundRect,0.200000X0.200000X0.275000X-0.200000X0.275000X-0.200000X-0.275000X0.200000X-0.275000X0*%
%ADD18RoundRect,0.100000X-0.100000X0.637500X-0.100000X-0.637500X0.100000X-0.637500X0.100000X0.637500X0*%
%ADD19RoundRect,0.225000X-0.225000X-0.250000X0.225000X-0.250000X0.225000X0.250000X-0.225000X0.250000X0*%
%ADD20R,0.355600X1.066800*%
G04 APERTURE END LIST*
D10*
%TO.C,R10*%
X73000000Y-125400000D03*
X73000000Y-127050000D03*
%TD*%
D11*
%TO.C,C69*%
X133000000Y-98225000D03*
X133000000Y-99775000D03*
%TD*%
D12*
%TO.C,C16*%
X105759000Y-70405000D03*
X107309000Y-70405000D03*
%TD*%
D13*
%TO.C,R20*%
X131635000Y-67310000D03*
X129985000Y-67310000D03*
%TD*%
D14*
%TO.C,C37*%
X144500000Y-77775000D03*
X144500000Y-76225000D03*
%TD*%
D12*
%TO.C,C21*%
X74225000Y-147000000D03*
X75775000Y-147000000D03*
%TD*%
D11*
%TO.C,C64*%
X133000000Y-125725000D03*
X133000000Y-127275000D03*
%TD*%
D12*
%TO.C,C17*%
X105759000Y-72005000D03*
X107309000Y-72005000D03*
%TD*%
D15*
%TO.C,R9*%
X73000000Y-117825000D03*
X73000000Y-116175000D03*
%TD*%
D14*
%TO.C,C41*%
X77000000Y-64775000D03*
X77000000Y-63225000D03*
%TD*%
D12*
%TO.C,C29*%
X88225000Y-64750000D03*
X89775000Y-64750000D03*
%TD*%
D13*
%TO.C,R22*%
X106625000Y-142000000D03*
X104975000Y-142000000D03*
%TD*%
D14*
%TO.C,C5*%
X135962000Y-103801000D03*
X135962000Y-102251000D03*
%TD*%
%TO.C,C42*%
X78500000Y-64775000D03*
X78500000Y-63225000D03*
%TD*%
D16*
%TO.C,U6*%
X108425001Y-142547250D03*
X109075002Y-142547250D03*
X109725001Y-142547250D03*
X110375002Y-142547250D03*
X111025001Y-142547250D03*
X111675002Y-142547250D03*
X112325001Y-142547250D03*
X112974999Y-142547250D03*
X113625001Y-142547250D03*
X114274999Y-142547250D03*
X114925000Y-142547250D03*
X115574999Y-142547250D03*
X115574999Y-148452750D03*
X114924998Y-148452750D03*
X114274999Y-148452750D03*
X113624998Y-148452750D03*
X112974999Y-148452750D03*
X112324998Y-148452750D03*
X111674999Y-148452750D03*
X111024998Y-148452750D03*
X110374999Y-148452750D03*
X109724998Y-148452750D03*
X109075000Y-148452750D03*
X108425001Y-148452750D03*
%TD*%
D14*
%TO.C,C35*%
X143000000Y-148775000D03*
X143000000Y-147225000D03*
%TD*%
D11*
%TO.C,C6*%
X76000000Y-99225000D03*
X76000000Y-100775000D03*
%TD*%
D14*
%TO.C,C66*%
X133000000Y-117775000D03*
X133000000Y-116225000D03*
%TD*%
%TO.C,C32*%
X147500000Y-148775000D03*
X147500000Y-147225000D03*
%TD*%
D11*
%TO.C,C4*%
X136000000Y-112225000D03*
X136000000Y-113775000D03*
%TD*%
D15*
%TO.C,R1*%
X139000000Y-131325000D03*
X139000000Y-129675000D03*
%TD*%
D11*
%TO.C,C67*%
X133000000Y-112225000D03*
X133000000Y-113775000D03*
%TD*%
D12*
%TO.C,C18*%
X134615000Y-71805000D03*
X136165000Y-71805000D03*
%TD*%
D15*
%TO.C,R3*%
X139000000Y-117825000D03*
X139000000Y-116175000D03*
%TD*%
D17*
%TO.C,R16*%
X112205000Y-63500000D03*
X113855000Y-63500000D03*
%TD*%
D18*
%TO.C,U4*%
X109209000Y-68267500D03*
X108559000Y-68267500D03*
X107909000Y-68267500D03*
X107259000Y-68267500D03*
X106609000Y-68267500D03*
X105959000Y-68267500D03*
X105309000Y-68267500D03*
X104659000Y-68267500D03*
X104659000Y-62542500D03*
X105309000Y-62542500D03*
X105959000Y-62542500D03*
X106609000Y-62542500D03*
X107259000Y-62542500D03*
X107909000Y-62542500D03*
X108559000Y-62542500D03*
X109209000Y-62542500D03*
%TD*%
D11*
%TO.C,C7*%
X136000000Y-98225000D03*
X136000000Y-99775000D03*
%TD*%
D14*
%TO.C,C33*%
X146000000Y-148775000D03*
X146000000Y-147225000D03*
%TD*%
D19*
%TO.C,C15*%
X95600000Y-68200000D03*
X94050000Y-68200000D03*
%TD*%
D14*
%TO.C,C36*%
X149000000Y-77775000D03*
X149000000Y-76225000D03*
%TD*%
D11*
%TO.C,C11*%
X76000000Y-112225000D03*
X76000000Y-113775000D03*
%TD*%
D18*
%TO.C,U5*%
X138165000Y-68267500D03*
X137515000Y-68267500D03*
X136865000Y-68267500D03*
X136215000Y-68267500D03*
X135565000Y-68267500D03*
X134915000Y-68267500D03*
X134265000Y-68267500D03*
X133615000Y-68267500D03*
X133615000Y-62542500D03*
X134265000Y-62542500D03*
X134915000Y-62542500D03*
X135565000Y-62542500D03*
X136215000Y-62542500D03*
X136865000Y-62542500D03*
X137515000Y-62542500D03*
X138165000Y-62542500D03*
%TD*%
D20*
%TO.C,U3*%
X94024640Y-72866400D03*
X94674880Y-72866400D03*
X95325120Y-72866400D03*
X95975360Y-72866400D03*
X95975360Y-77133600D03*
X95325120Y-77133600D03*
X94674880Y-77133600D03*
X94024640Y-77133600D03*
%TD*%
D14*
%TO.C,C26*%
X63000000Y-77275000D03*
X63000000Y-75725000D03*
%TD*%
%TO.C,C75*%
X79000000Y-131000000D03*
X79000000Y-129450000D03*
%TD*%
D11*
%TO.C,C70*%
X79000000Y-99225000D03*
X79000000Y-100775000D03*
%TD*%
D13*
%TO.C,R21*%
X131635000Y-71120000D03*
X129985000Y-71120000D03*
%TD*%
D12*
%TO.C,C20*%
X74225000Y-145490000D03*
X75775000Y-145490000D03*
%TD*%
%TO.C,C19*%
X134615000Y-70205000D03*
X136165000Y-70205000D03*
%TD*%
D10*
%TO.C,R11*%
X73000000Y-112175000D03*
X73000000Y-113825000D03*
%TD*%
D14*
%TO.C,C8*%
X76000000Y-104775000D03*
X76000000Y-103225000D03*
%TD*%
%TO.C,C9*%
X76000000Y-117775000D03*
X76000000Y-116225000D03*
%TD*%
%TO.C,C72*%
X79000000Y-117775000D03*
X79000000Y-116225000D03*
%TD*%
%TO.C,C68*%
X133000000Y-103775000D03*
X133000000Y-102225000D03*
%TD*%
D10*
%TO.C,R6*%
X73000000Y-99175000D03*
X73000000Y-100825000D03*
%TD*%
D12*
%TO.C,C23*%
X74175000Y-150000000D03*
X75725000Y-150000000D03*
%TD*%
D17*
%TO.C,R18*%
X112205000Y-71120000D03*
X113855000Y-71120000D03*
%TD*%
D15*
%TO.C,R5*%
X139000000Y-103825000D03*
X139000000Y-102175000D03*
%TD*%
D19*
%TO.C,C13*%
X95600000Y-71200000D03*
X94050000Y-71200000D03*
%TD*%
D14*
%TO.C,C25*%
X61500000Y-77275000D03*
X61500000Y-75725000D03*
%TD*%
%TO.C,C34*%
X144500000Y-148775000D03*
X144500000Y-147225000D03*
%TD*%
%TO.C,C1*%
X136000000Y-131275000D03*
X136000000Y-129725000D03*
%TD*%
D17*
%TO.C,R17*%
X112205000Y-67310000D03*
X113855000Y-67310000D03*
%TD*%
D13*
%TO.C,R14*%
X131635000Y-59690000D03*
X129985000Y-59690000D03*
%TD*%
D12*
%TO.C,C31*%
X88225000Y-67750000D03*
X89775000Y-67750000D03*
%TD*%
D14*
%TO.C,C71*%
X79000000Y-104775000D03*
X79000000Y-103225000D03*
%TD*%
%TO.C,C43*%
X80000000Y-64775000D03*
X80000000Y-63225000D03*
%TD*%
D15*
%TO.C,R12*%
X73000000Y-131050000D03*
X73000000Y-129400000D03*
%TD*%
D14*
%TO.C,C27*%
X64500000Y-77275000D03*
X64500000Y-75725000D03*
%TD*%
%TO.C,C38*%
X146000000Y-77775000D03*
X146000000Y-76225000D03*
%TD*%
D13*
%TO.C,R19*%
X131635000Y-63500000D03*
X129985000Y-63500000D03*
%TD*%
D14*
%TO.C,C65*%
X133000000Y-131275000D03*
X133000000Y-129725000D03*
%TD*%
%TO.C,C40*%
X75500000Y-64775000D03*
X75500000Y-63225000D03*
%TD*%
D17*
%TO.C,R13*%
X112205000Y-59690000D03*
X113855000Y-59690000D03*
%TD*%
D12*
%TO.C,C30*%
X88225000Y-66250000D03*
X89775000Y-66250000D03*
%TD*%
%TO.C,C28*%
X88225000Y-63250000D03*
X89775000Y-63250000D03*
%TD*%
D15*
%TO.C,R8*%
X73000000Y-104825000D03*
X73000000Y-103175000D03*
%TD*%
D11*
%TO.C,C10*%
X76000000Y-125450000D03*
X76000000Y-127000000D03*
%TD*%
D14*
%TO.C,C39*%
X147500000Y-77775000D03*
X147500000Y-76225000D03*
%TD*%
D11*
%TO.C,C74*%
X79000000Y-125477000D03*
X79000000Y-127027000D03*
%TD*%
D13*
%TO.C,R15*%
X95216880Y-79604000D03*
X93566880Y-79604000D03*
%TD*%
D11*
%TO.C,C2*%
X136000000Y-125725000D03*
X136000000Y-127275000D03*
%TD*%
D10*
%TO.C,R7*%
X139000000Y-98175000D03*
X139000000Y-99825000D03*
%TD*%
%TO.C,R2*%
X139000000Y-125675000D03*
X139000000Y-127325000D03*
%TD*%
D19*
%TO.C,C14*%
X95600000Y-69700000D03*
X94050000Y-69700000D03*
%TD*%
D14*
%TO.C,C12*%
X76000000Y-131000000D03*
X76000000Y-129450000D03*
%TD*%
%TO.C,C3*%
X136000000Y-117775000D03*
X136000000Y-116225000D03*
%TD*%
D11*
%TO.C,C73*%
X79000000Y-112225000D03*
X79000000Y-113775000D03*
%TD*%
D12*
%TO.C,C22*%
X74225000Y-148500000D03*
X75775000Y-148500000D03*
%TD*%
D14*
%TO.C,C24*%
X60000000Y-77275000D03*
X60000000Y-75725000D03*
%TD*%
D10*
%TO.C,R4*%
X139000000Y-112175000D03*
X139000000Y-113825000D03*
%TD*%
M02*
