M48
; DRILL file {KiCad 8.0.5} date 2024-11-15T20:53:49-0500
; FORMAT={-:-/ absolute / inch / decimal}
; #@! TF.CreationDate,2024-11-15T20:53:49-05:00
; #@! TF.GenerationSoftware,Kicad,Pcbnew,8.0.5
; #@! TF.FileFunction,Plated,1,4,PTH
FMAT,2
INCH
; #@! TA.AperFunction,Plated,PTH,ViaDrill
T1C0.0100
; #@! TA.AperFunction,Plated,PTH,ComponentDrill
T2C0.0335
; #@! TA.AperFunction,Plated,PTH,ComponentDrill
T3C0.0394
; #@! TA.AperFunction,Plated,PTH,ComponentDrill
T4C0.0413
; #@! TA.AperFunction,Plated,PTH,ComponentDrill
T5C0.0512
; #@! TA.AperFunction,Plated,PTH,ComponentDrill
T6C0.0591
; #@! TA.AperFunction,Plated,PTH,ComponentDrill
T7C0.0670
%
G90
G05
T1
X0.99Y-2.42
X1.12Y-2.1
X1.169Y-2.348
X1.198Y-2.636
X1.198Y-2.69
X1.198Y-2.743
X1.198Y-2.797
X1.268Y-2.741
X1.274Y-2.795
X1.289Y-2.016
X1.289Y-2.06
X1.297Y-2.642
X1.297Y-2.696
X1.299Y-1.714
X1.301Y-1.656
X1.301Y-1.772
X1.342Y-2.743
X1.344Y-2.795
X1.361Y-1.656
X1.361Y-1.772
X1.363Y-1.714
X1.367Y-2.64
X1.373Y-2.014
X1.373Y-2.062
X1.373Y-2.694
X1.424Y-2.742
X1.426Y-2.794
X1.441Y-2.642
X1.443Y-2.694
X1.445Y-2.322
X1.451Y-1.852
X1.451Y-1.902
X1.501Y-2.742
X1.501Y-2.796
X1.571Y-2.74
X1.577Y-2.794
X1.645Y-2.742
X1.647Y-2.794
X1.715Y-2.05
X1.717Y-1.988
X1.778Y-2.772
X1.785Y-1.988
X1.787Y-2.052
X1.788Y-3.012
X1.792Y-2.623
X1.861Y-1.99
X1.861Y-2.05
X1.868Y-2.626
X1.91Y-2.77
X1.92Y-3.01
X1.9283Y-2.3213
X1.94Y-2.2
X1.959Y-2.594
X1.96Y-2.65
X1.962Y-2.729
X1.962Y-2.804
X1.99Y-3.072
X2.027Y-2.12
X2.094Y-2.593
X2.094Y-2.654
X2.094Y-2.727
X2.094Y-2.81
X2.116Y-3.068
X2.119Y-2.941
X2.1516Y-2.0992
X2.2236Y-2.1012
X2.2976Y-2.0992
X2.3449Y-2.015
X2.345Y-1.975
X2.345Y-2.06
X2.538Y-2.39
X2.7295Y-2.04
X2.764Y-2.279
X2.797Y-2.658
X2.797Y-2.712
X2.83Y-2.56
X2.83Y-2.61
X2.867Y-2.656
X2.873Y-2.71
X2.882Y-1.643
X2.884Y-1.585
X2.884Y-1.701
X2.892Y-1.955
X2.892Y-1.999
X2.906Y-2.557
X2.906Y-2.611
X2.941Y-2.658
X2.943Y-2.71
X2.944Y-1.585
X2.944Y-1.701
X2.946Y-1.643
X2.976Y-1.953
X2.976Y-2.001
X2.976Y-2.555
X2.982Y-2.609
X3.023Y-2.657
X3.025Y-2.709
X3.0365Y-2.2545
X3.05Y-2.557
X3.052Y-2.609
X3.054Y-1.791
X3.054Y-1.841
X3.11Y-2.657
X3.11Y-2.711
X3.18Y-2.655
X3.186Y-2.709
X3.254Y-2.657
X3.256Y-2.709
X3.324Y-1.99
X3.326Y-1.928
X3.383Y-3.01
X3.394Y-1.928
X3.396Y-1.992
X3.415Y-2.572
X3.45Y-2.675
X3.45Y-2.75
X3.47Y-1.93
X3.47Y-1.99
X3.488Y-2.575
X3.51Y-3.01
X3.52Y-2.28
X3.54Y-2.131
X3.58Y-2.541
X3.58Y-2.678
X3.58Y-2.753
X3.581Y-2.601
X3.59Y-2.89
X3.61Y-3.01
X3.67Y-2.22
X3.7Y-2.09
X3.715Y-2.542
X3.715Y-2.603
X3.715Y-2.676
X3.715Y-2.759
X3.737Y-3.01
X3.74Y-2.89
X3.7616Y-2.0592
X3.8336Y-2.0612
X3.9076Y-2.0592
X3.9549Y-1.975
X3.955Y-1.935
X3.955Y-2.02
X4.176Y-1.688
X4.458Y-2.476
X4.62Y-2.14
X4.656Y-2.38
X4.689Y-2.778
X4.689Y-2.832
X4.72Y-2.67
X4.72Y-2.724
X4.759Y-2.776
X4.76Y-2.3433
X4.765Y-2.83
X4.798Y-2.67
X4.798Y-2.724
X4.802Y-1.712
X4.804Y-1.654
X4.804Y-1.77
X4.824Y-2.034
X4.824Y-2.078
X4.833Y-2.778
X4.835Y-2.83
X4.864Y-1.654
X4.864Y-1.77
X4.866Y-1.712
X4.868Y-2.668
X4.874Y-2.722
X4.908Y-2.032
X4.908Y-2.08
X4.915Y-2.777
X4.917Y-2.829
X4.942Y-2.67
X4.944Y-2.722
X4.986Y-1.87
X4.986Y-1.92
X5.002Y-2.652
X5.002Y-2.77
X5.002Y-2.824
X5.072Y-2.768
X5.078Y-2.822
X5.146Y-2.77
X5.148Y-2.822
X5.18Y-2.654
X5.216Y-2.078
X5.218Y-2.016
X5.224Y-2.654
X5.286Y-2.016
X5.288Y-2.08
X5.309Y-2.639
X5.362Y-2.018
X5.362Y-2.078
X5.385Y-2.642
X5.434Y-2.38
X5.437Y-2.26
X5.4751Y-0.8169
X5.476Y-2.61
X5.477Y-2.666
X5.479Y-2.745
X5.479Y-2.82
X5.5Y-0.692
X5.507Y-3.088
X5.6Y-2.3
X5.611Y-2.609
X5.611Y-2.67
X5.611Y-2.743
X5.611Y-2.826
X5.633Y-3.084
X5.636Y-2.957
X5.64Y-2.17
X5.6816Y-2.1342
X5.7536Y-2.1362
X5.804Y-1.664
X5.8276Y-2.1342
X5.8749Y-2.05
X5.875Y-2.01
X5.875Y-2.095
X5.91Y-0.64
X6.03Y-1.476
X6.084Y-1.396
X6.1174Y-0.642
X6.122Y-2.446
X6.2527Y-2.1127
X6.29Y-2.358
X6.39Y-2.28
X6.404Y-2.693
X6.41Y-2.747
X6.41Y-2.81
X6.422Y-2.588
X6.422Y-2.642
X6.426Y-1.664
X6.428Y-1.606
X6.428Y-1.722
X6.434Y-1.978
X6.434Y-2.022
X6.478Y-2.695
X6.48Y-2.747
X6.48Y-2.81
X6.488Y-1.606
X6.488Y-1.722
X6.49Y-1.664
X6.492Y-2.586
X6.498Y-2.64
X6.518Y-1.976
X6.518Y-2.024
X6.56Y-2.694
X6.562Y-2.746
X6.566Y-2.588
X6.568Y-2.64
X6.596Y-1.814
X6.596Y-1.864
X6.626Y-2.688
X6.626Y-2.742
X6.696Y-2.686
X6.702Y-2.74
X6.77Y-2.688
X6.772Y-2.74
X6.84Y-1.996
X6.842Y-1.934
X6.91Y-1.934
X6.912Y-1.998
X6.935Y-2.623
X6.941Y-2.561
X6.986Y-1.936
X6.986Y-1.996
X7.046Y-2.32
X7.054Y-2.564
X7.055Y-2.62
X7.057Y-2.699
X7.057Y-2.774
X7.07Y-2.19
X7.085Y-3.042
X7.189Y-2.563
X7.189Y-2.624
X7.189Y-2.697
X7.189Y-2.78
X7.19Y-2.26
X7.211Y-3.038
X7.214Y-2.911
X7.25Y-2.15
X7.2666Y-2.0942
X7.3386Y-2.0962
X7.4126Y-2.0942
X7.4599Y-2.01
X7.46Y-1.97
X7.46Y-2.055
X7.978Y-2.492
X8.12Y-2.18
X8.1432Y-2.4146
X8.2596Y-2.3471
X8.275Y-2.742
X8.28Y-2.86
X8.281Y-2.796
X8.282Y-2.638
X8.282Y-2.692
X8.288Y-2.022
X8.288Y-2.066
X8.292Y-1.742
X8.294Y-1.684
X8.294Y-1.78
X8.349Y-2.744
X8.35Y-2.86
X8.351Y-2.796
X8.352Y-2.636
X8.354Y-1.684
X8.354Y-1.78
X8.356Y-1.742
X8.358Y-2.69
X8.372Y-2.02
X8.372Y-2.068
X8.426Y-2.638
X8.428Y-2.69
X8.431Y-2.743
X8.433Y-2.795
X8.45Y-1.858
X8.45Y-1.908
X8.486Y-2.738
X8.486Y-2.792
X8.556Y-2.736
X8.562Y-2.79
X8.63Y-2.738
X8.632Y-2.79
X8.7Y-2.046
X8.702Y-1.984
X8.77Y-1.984
X8.772Y-2.048
X8.783Y-2.616
X8.846Y-1.986
X8.846Y-2.046
X8.866Y-2.62
X8.927Y-2.361
X8.94Y-2.24
X8.951Y-2.594
X8.952Y-2.65
X8.954Y-2.729
X8.954Y-2.804
X8.954Y-2.87
X8.982Y-3.072
X9.086Y-2.593
X9.086Y-2.654
X9.086Y-2.727
X9.086Y-2.81
X9.1Y-2.19
X9.1Y-2.26
X9.108Y-3.068
X9.111Y-2.941
X9.1566Y-2.1392
X9.2286Y-2.1412
X9.3026Y-2.1392
X9.3499Y-2.055
X9.35Y-2.015
X9.35Y-2.1
X9.618Y-2.406
X9.75Y-2.14
X9.786Y-2.46
X9.878Y-1.662
X9.88Y-1.604
X9.88Y-1.72
X9.91Y-2.596
X9.91Y-2.65
X9.918Y-1.964
X9.918Y-2.008
X9.921Y-2.694
X9.925Y-2.799
X9.927Y-2.748
X9.94Y-1.604
X9.94Y-1.72
X9.942Y-1.662
X9.98Y-2.594
X9.986Y-2.648
X9.995Y-2.694
X9.995Y-2.799
X9.997Y-2.748
X10.002Y-1.962
X10.002Y-2.01
X10.048Y-2.272
X10.05Y-1.81
X10.05Y-1.86
X10.054Y-2.596
X10.054Y-2.694
X10.054Y-2.799
X10.056Y-2.648
X10.056Y-2.748
X10.112Y-2.799
X10.114Y-2.694
X10.114Y-2.748
X10.184Y-2.694
X10.188Y-2.799
X10.19Y-2.748
X10.258Y-2.694
X10.258Y-2.799
X10.26Y-2.748
X10.328Y-2.004
X10.33Y-1.942
X10.398Y-1.942
X10.4Y-2.005
X10.455Y-2.595
X10.474Y-1.944
X10.474Y-2.004
X10.538Y-2.599
X10.5496Y-2.3096
X10.56Y-2.18
X10.623Y-2.573
X10.624Y-2.629
X10.626Y-2.708
X10.626Y-2.783
X10.654Y-3.051
X10.69Y-2.25
X10.73Y-2.14
X10.758Y-2.572
X10.758Y-2.633
X10.758Y-2.706
X10.758Y-2.789
X10.78Y-3.047
X10.7816Y-2.0842
X10.783Y-2.92
X10.8536Y-2.0862
X10.9276Y-2.0842
X10.9749Y-2.0
X10.975Y-1.96
X10.975Y-2.045
T2
X1.2425Y-2.9169
X1.4394Y-2.9169
X1.6626Y-2.9169
X1.8594Y-2.9169
X2.8374Y-2.8858
X3.0343Y-2.8858
X3.2799Y-2.8858
X3.4768Y-2.8858
X4.7896Y-2.97
X4.9864Y-2.97
X5.2913Y-2.97
X5.4881Y-2.97
X6.4831Y-2.904
X6.68Y-2.904
X6.9036Y-2.908
X7.1004Y-2.908
X8.3251Y-2.968
X8.522Y-2.968
X8.7756Y-2.968
X8.9724Y-2.968
X9.1016Y-3.6
X9.2984Y-3.6
X9.998Y-2.9091
X10.1949Y-2.9091
X10.4252Y-2.9091
X10.622Y-2.9091
X10.6616Y-4.24
X10.8584Y-4.24
T3
X5.024Y-0.868
X5.0248Y-1.0763
X5.0248Y-1.2846
X5.124Y-0.868
X5.1248Y-1.0763
X5.1248Y-1.2846
X5.224Y-0.868
X5.2248Y-1.0763
X5.2248Y-1.2846
X5.324Y-0.868
X5.3248Y-1.0763
X5.3248Y-1.2846
X5.424Y-0.868
X5.4248Y-1.0763
X5.4248Y-1.2846
X5.524Y-0.868
X5.5248Y-1.0763
X5.5248Y-1.2846
X7.2102Y-0.87
X7.3102Y-0.87
T4
X7.5765Y-0.87
X8.8836Y-0.87
T5
X1.1642Y-3.454
X2.066Y-1.022
X2.5728Y-1.022
X2.866Y-3.454
X3.0796Y-1.022
X3.5864Y-1.022
X4.0932Y-1.022
X4.6Y-1.022
X4.606Y-3.454
X6.34Y-3.454
X8.028Y-3.454
X9.796Y-3.454
T6
X1.0392Y-3.329
X1.0392Y-3.579
X1.2892Y-3.329
X1.2892Y-3.579
X1.941Y-0.897
X1.941Y-1.147
X2.191Y-0.897
X2.191Y-1.147
X2.4478Y-0.897
X2.4478Y-1.147
X2.6978Y-0.897
X2.6978Y-1.147
X2.741Y-3.329
X2.741Y-3.579
X2.9546Y-0.897
X2.9546Y-1.147
X2.991Y-3.329
X2.991Y-3.579
X3.2046Y-0.897
X3.2046Y-1.147
X3.4614Y-0.897
X3.4614Y-1.147
X3.7114Y-0.897
X3.7114Y-1.147
X3.9682Y-0.897
X3.9682Y-1.147
X4.2182Y-0.897
X4.2182Y-1.147
X4.475Y-0.897
X4.475Y-1.147
X4.481Y-3.329
X4.481Y-3.579
X4.725Y-0.897
X4.725Y-1.147
X4.731Y-3.329
X4.731Y-3.579
X6.215Y-3.329
X6.215Y-3.579
X6.465Y-3.329
X6.465Y-3.579
X7.903Y-3.329
X7.903Y-3.579
X8.153Y-3.329
X8.153Y-3.579
X9.671Y-3.329
X9.671Y-3.579
X9.921Y-3.329
X9.921Y-3.579
T7
X5.352Y-4.1855
X5.446Y-4.0915
X5.446Y-4.2795
X5.54Y-4.1855
X5.984Y-4.1855
X6.078Y-4.0915
X6.078Y-4.2795
X6.172Y-4.1855
X8.64Y-4.1595
X8.734Y-4.0655
X8.734Y-4.2535
X8.828Y-4.1595
X9.494Y-4.1635
X9.588Y-4.0695
X9.588Y-4.2575
X9.682Y-4.1635
X10.1475Y-4.162
X10.2415Y-4.068
X10.2415Y-4.256
X10.3355Y-4.162
M30
